<svg width="21" height="20" viewBox="0 0 21 20" fill="none" xmlns="http://www.w3.org/2000/svg">
<path d="M10.4999 7.49995V10.8333M10.4999 14.1666H10.5082M9.34598 3.24305L2.4919 15.0819C2.11173 15.7386 1.92165 16.0669 1.94974 16.3364C1.97425 16.5714 2.09739 16.785 2.28852 16.924C2.50765 17.0833 2.88704 17.0833 3.64581 17.0833H17.3539C18.1127 17.0833 18.4921 17.0833 18.7112 16.924C18.9024 16.785 19.0255 16.5714 19.05 16.3364C19.0781 16.0669 18.888 15.7386 18.5078 15.0819L11.6538 3.24305C11.275 2.58875 11.0856 2.26159 10.8385 2.15172C10.6229 2.05587 10.3768 2.05587 10.1613 2.15172C9.91419 2.26159 9.72478 2.58875 9.34598 3.24305Z" stroke="#DC6803" stroke-width="1.66667" stroke-linecap="round" stroke-linejoin="round"/>
</svg>
