<svg width="21" height="21" viewBox="0 0 21 21" fill="none" xmlns="http://www.w3.org/2000/svg">
<g clip-path="url(#clip0_1801_114009)">
<path d="M7.5 12.125C7.5 12.125 8.75 13.7917 10.8333 13.7917C12.9167 13.7917 14.1667 12.125 14.1667 12.125M13.3333 7.95833H13.3417M8.33333 7.95833H8.34167M19.1667 10.4583C19.1667 15.0607 15.4357 18.7917 10.8333 18.7917C6.23096 18.7917 2.5 15.0607 2.5 10.4583C2.5 5.85596 6.23096 2.125 10.8333 2.125C15.4357 2.125 19.1667 5.85596 19.1667 10.4583ZM13.75 7.95833C13.75 8.18845 13.5635 8.375 13.3333 8.375C13.1032 8.375 12.9167 8.18845 12.9167 7.95833C12.9167 7.72821 13.1032 7.54167 13.3333 7.54167C13.5635 7.54167 13.75 7.72821 13.75 7.95833ZM8.75 7.95833C8.75 8.18845 8.56345 8.375 8.33333 8.375C8.10321 8.375 7.91667 8.18845 7.91667 7.95833C7.91667 7.72821 8.10321 7.54167 8.33333 7.54167C8.56345 7.54167 8.75 7.72821 8.75 7.95833Z" stroke="#344054" stroke-width="2" stroke-linecap="round" stroke-linejoin="round"/>
</g>
<defs>
<clipPath id="clip0_1801_114009">
<rect width="20" height="20" fill="white" transform="translate(0.833496 0.458344)"/>
</clipPath>
</defs>
</svg>
