<svg width="254" height="254" viewBox="0 0 254 254" fill="none" xmlns="http://www.w3.org/2000/svg">
<path d="M250.031 127C250.031 194.948 194.948 250.031 127 250.031C59.0517 250.031 3.96875 194.948 3.96875 127C3.96875 59.0517 59.0517 3.96875 127 3.96875C194.948 3.96875 250.031 59.0517 250.031 127Z" fill="white" stroke="#CED3E6" stroke-width="7.9375"/>
<g clip-path="url(#clip0_2059_115157)">
<path d="M218.281 127C218.281 177.593 177.592 218.281 127 218.281C76.4068 218.281 35.7183 177.593 35.7183 127C35.7183 76.4069 76.4068 35.7185 127 35.7185C177.592 35.7185 218.281 76.4069 218.281 127Z" stroke="#F6F6F6" stroke-width="7.9375"/>
<g clip-path="url(#clip1_2059_115157)">
<path d="M126.999 37.0416C176.686 37.0416 216.958 77.3209 216.958 127C216.958 176.687 176.686 216.958 126.999 216.958C77.3201 216.958 37.0409 176.683 37.0409 127C37.0409 77.3209 77.3201 37.0416 126.999 37.0416Z" fill="#F5AC37"/>
<path d="M130.315 133.352H164.498C165.227 133.352 165.571 133.352 165.623 132.397C165.903 128.92 165.903 125.422 165.623 121.941C165.623 121.265 165.287 120.985 164.555 120.985H96.5252C95.6831 120.985 95.4564 121.265 95.4564 122.054V132.061C95.4564 133.352 95.4564 133.352 96.8045 133.352H130.315ZM161.806 109.29C161.903 109.035 161.903 108.756 161.806 108.505C161.235 107.262 160.559 106.076 159.774 104.963C158.592 103.06 157.199 101.307 155.612 99.7323C154.863 98.781 153.997 97.9268 153.025 97.2022C148.16 93.0609 142.375 90.1301 136.157 88.6565C133.019 87.9522 129.813 87.6162 126.599 87.6445H96.4078C95.5657 87.6445 95.4524 87.9805 95.4524 88.7132V108.671C95.4524 109.513 95.4524 109.739 96.5211 109.739H161.401C161.401 109.739 161.964 109.626 162.077 109.29H161.802H161.806ZM161.806 145.047C160.851 144.942 159.887 144.942 158.932 145.047H96.5818C95.7398 145.047 95.4564 145.047 95.4564 146.173V165.685C95.4564 166.584 95.4564 166.81 96.5818 166.81H125.368C126.745 166.916 128.121 166.819 129.469 166.531C133.647 166.232 137.756 165.325 141.674 163.831C143.099 163.337 144.476 162.693 145.775 161.92H146.168C152.916 158.41 158.397 152.897 161.854 146.128C161.854 146.128 162.247 145.278 161.806 145.056V145.047ZM84.158 176.927V176.591V163.491V159.05V145.837C84.158 145.104 84.158 144.995 83.2593 144.995H71.0582C70.3821 144.995 70.1028 144.995 70.1028 144.096V133.413H83.146C83.8746 133.413 84.158 133.413 84.158 132.458V121.888C84.158 121.212 84.158 121.046 83.2593 121.046H71.0582C70.3821 121.046 70.1028 121.046 70.1028 120.147V110.254C70.1028 109.634 70.1028 109.468 71.0015 109.468H83.0893C83.9313 109.468 84.158 109.468 84.158 108.399V78.0949C84.158 77.1962 84.158 76.9695 85.2834 76.9695H127.449C130.51 77.0909 133.55 77.4269 136.557 77.9815C142.755 79.1272 148.71 81.3415 154.155 84.5031C157.766 86.6284 161.089 89.1949 164.049 92.1501C166.275 94.4616 168.283 96.9634 170.064 99.6271C171.833 102.327 173.303 105.214 174.456 108.229C174.598 109.015 175.351 109.545 176.136 109.411H186.2C187.491 109.411 187.491 109.411 187.548 110.65V119.872C187.548 120.771 187.212 120.997 186.309 120.997H178.549C177.764 120.997 177.537 120.997 177.594 122.009C177.901 125.434 177.901 128.871 177.594 132.296C177.594 133.251 177.594 133.364 178.666 133.364H187.544C187.937 133.87 187.544 134.377 187.544 134.887C187.601 135.538 187.601 136.198 187.544 136.85V143.655C187.544 144.61 187.265 144.894 186.419 144.894H175.792C175.051 144.752 174.331 145.226 174.161 145.962C171.631 152.541 167.583 158.439 162.352 163.167C160.442 164.888 158.434 166.507 156.337 168.001C154.086 169.296 151.896 170.644 149.589 171.713C145.342 173.623 140.889 175.032 136.319 175.927C131.979 176.704 127.579 177.056 123.162 176.996H84.1418V176.939L84.158 176.927Z" fill="#FEFEFD"/>
</g>
</g>
<defs>
<clipPath id="clip0_2059_115157">
<rect x="31.7496" y="31.7498" width="190.5" height="190.5" fill="white"/>
</clipPath>
<clipPath id="clip1_2059_115157">
<rect width="179.917" height="179.917" fill="white" transform="translate(37.0409 37.0416)"/>
</clipPath>
</defs>
</svg>
