<svg width="19" height="16" viewBox="0 0 19 16" fill="none" xmlns="http://www.w3.org/2000/svg">
<path d="M1.58392 5.5H17.4173M7.83392 0.5L6.16726 5.5L9.50059 15.0833L12.8339 5.5L11.1673 0.5M10.0127 14.8854L17.4783 5.92679C17.6048 5.77496 17.6681 5.69905 17.6922 5.6143C17.7135 5.53959 17.7135 5.46041 17.6922 5.38569C17.6681 5.30095 17.6048 5.22504 17.4783 5.07321L13.8672 0.739877C13.7937 0.651703 13.7569 0.607616 13.7119 0.575922C13.672 0.54784 13.6275 0.526985 13.5804 0.514308C13.5272 0.5 13.4698 0.5 13.355 0.5H5.64617C5.5314 0.5 5.47401 0.5 5.42083 0.514308C5.37371 0.526985 5.32918 0.54784 5.28928 0.575922C5.24424 0.607616 5.2075 0.651703 5.13403 0.739877L1.52292 5.07321C1.39639 5.22504 1.33313 5.30095 1.30895 5.38569C1.28764 5.46041 1.28764 5.53959 1.30895 5.6143C1.33313 5.69904 1.39639 5.77496 1.52291 5.92679L8.98844 14.8854C9.16432 15.0965 9.25226 15.202 9.35755 15.2405C9.44992 15.2743 9.55126 15.2743 9.64363 15.2405C9.74892 15.202 9.83686 15.0965 10.0127 14.8854Z" stroke="#1F2937" stroke-linecap="round" stroke-linejoin="round"/>
</svg>
