<svg width="21" height="18" viewBox="0 0 21 18" fill="none" xmlns="http://www.w3.org/2000/svg">
<path d="M1.9961 6.44061H19.0021M8.70897 1.07031L6.91887 6.44061L10.4991 16.7337L14.0793 6.44061L12.2892 1.07031M11.0492 16.5211L19.0676 6.89901C19.2035 6.73594 19.2714 6.6544 19.2974 6.56338C19.3203 6.48314 19.3203 6.39809 19.2974 6.31784C19.2714 6.22683 19.2035 6.14529 19.0676 5.98222L15.189 1.32795C15.1101 1.23325 15.0706 1.1859 15.0223 1.15186C14.9794 1.1217 14.9316 1.0993 14.881 1.08568C14.8239 1.07031 14.7622 1.07031 14.639 1.07031H6.3592C6.23592 1.07031 6.17428 1.07031 6.11716 1.08568C6.06656 1.0993 6.01873 1.1217 5.97587 1.15186C5.9275 1.1859 5.88804 1.23325 5.80912 1.32796L1.93057 5.98221C1.79468 6.14529 1.72673 6.22682 1.70076 6.31784C1.67787 6.39809 1.67787 6.48314 1.70076 6.56338C1.72673 6.6544 1.79468 6.73594 1.93057 6.89901L9.949 16.5211C10.1379 16.7478 10.2324 16.8612 10.3454 16.9025C10.4447 16.9388 10.5535 16.9388 10.6527 16.9025C10.7658 16.8612 10.8602 16.7478 11.0492 16.5211Z" stroke="#1F2937" stroke-width="1.7901" stroke-linecap="round" stroke-linejoin="round"/>
</svg>
