<svg width="20" height="20" viewBox="0 0 20 20" fill="none" xmlns="http://www.w3.org/2000/svg">
<path d="M10.125 5.17674V18.0387M10.125 5.17674H7.28277C6.86399 5.17674 6.46235 5.00735 6.16622 4.70584C5.8701 4.40433 5.70374 3.99539 5.70374 3.56899C5.70374 3.14259 5.8701 2.73365 6.16622 2.43214C6.46235 2.13063 6.86399 1.96124 7.28277 1.96124C9.49343 1.96124 10.125 5.17674 10.125 5.17674ZM10.125 5.17674H12.9673C13.3861 5.17674 13.7877 5.00735 14.0839 4.70584C14.38 4.40433 14.5463 3.99539 14.5463 3.56899C14.5463 3.14259 14.38 2.73365 14.0839 2.43214C13.7877 2.13063 13.3861 1.96124 12.9673 1.96124C10.7567 1.96124 10.125 5.17674 10.125 5.17674ZM16.556 9.19611V15.4663C16.556 16.3667 16.556 16.817 16.3808 17.1609C16.2267 17.4634 15.9807 17.7093 15.6782 17.8635C15.3343 18.0387 14.8841 18.0387 13.9836 18.0387L6.26645 18.0387C5.36602 18.0387 4.91581 18.0387 4.5719 17.8635C4.26938 17.7093 4.02343 17.4634 3.86929 17.1609C3.69405 16.817 3.69405 16.3667 3.69405 15.4663V9.19611M2.0863 6.46294L2.0863 7.90991C2.0863 8.36012 2.0863 8.58522 2.17392 8.75718C2.25099 8.90844 2.37397 9.03142 2.52523 9.10849C2.69718 9.19611 2.92229 9.19611 3.3725 9.19611L16.8776 9.19611C17.3278 9.19611 17.5529 9.19611 17.7249 9.10849C17.8761 9.03142 17.9991 8.90844 18.0762 8.75718C18.1638 8.58523 18.1638 8.36012 18.1638 7.90991V6.46294C18.1638 6.01272 18.1638 5.78762 18.0762 5.61566C17.9991 5.4644 17.8761 5.34143 17.7249 5.26435C17.5529 5.17674 17.3278 5.17674 16.8776 5.17674L3.3725 5.17674C2.92229 5.17674 2.69718 5.17674 2.52523 5.26435C2.37397 5.34142 2.25099 5.4644 2.17392 5.61566C2.0863 5.78762 2.0863 6.01272 2.0863 6.46294Z" stroke="black" stroke-linecap="round" stroke-linejoin="round"/>
</svg>
