<svg width="255" height="254" viewBox="0 0 255 254" fill="none" xmlns="http://www.w3.org/2000/svg">
<path d="M250.962 126.998C250.962 194.973 195.857 250.079 127.881 250.079C59.9054 250.079 4.80033 194.973 4.80033 126.998C4.80033 59.0223 59.9054 3.91727 127.881 3.91727C195.857 3.91727 250.962 59.0223 250.962 126.998Z" fill="white" stroke="#CED3E6" stroke-width="7.83454"/>
<g clip-path="url(#clip0_2059_115165)">
<path d="M220.441 126.998C220.441 178.117 179.001 219.557 127.881 219.557C76.7622 219.557 35.322 178.117 35.322 126.998C35.322 75.8784 76.7622 34.4381 127.881 34.4381C179.001 34.4381 220.441 75.8784 220.441 126.998Z" fill="#627EEA" stroke="#627EEA" stroke-width="5.37795"/>
<path d="M130.847 64.026V110.571L170.188 128.15L130.847 64.026Z" fill="white" fill-opacity="0.602"/>
<path d="M130.847 64.026L91.5016 128.15L130.847 110.571V64.026Z" fill="white"/>
<path d="M130.847 158.313V189.939L170.214 135.475L130.847 158.313Z" fill="white" fill-opacity="0.602"/>
<path d="M130.847 189.939V158.308L91.5016 135.476L130.847 189.939Z" fill="white"/>
<path d="M130.847 150.991L170.188 128.149L130.847 110.581V150.991Z" fill="white" fill-opacity="0.2"/>
<path d="M91.5016 128.149L130.847 150.991V110.581L91.5016 128.149Z" fill="white" fill-opacity="0.602"/>
</g>
<defs>
<clipPath id="clip0_2059_115165">
<rect width="190.497" height="190.497" fill="white" transform="translate(32.633 31.7491)"/>
</clipPath>
</defs>
</svg>
