<svg width="21" height="20" viewBox="0 0 21 20" fill="none" xmlns="http://www.w3.org/2000/svg">
<path d="M9.29167 3.33333H6.625C5.22487 3.33333 4.5248 3.33333 3.99002 3.60582C3.51962 3.8455 3.13717 4.22795 2.89748 4.69836C2.625 5.23314 2.625 5.9332 2.625 7.33333V13.5C2.625 14.9001 2.625 15.6002 2.89748 16.135C3.13717 16.6054 3.51962 16.9878 3.99002 17.2275C4.5248 17.5 5.22487 17.5 6.625 17.5H12.7917C14.1918 17.5 14.8919 17.5 15.4266 17.2275C15.897 16.9878 16.2795 16.6054 16.5192 16.135C16.7917 15.6002 16.7917 14.9001 16.7917 13.5V10.8333M10.9583 14.1667H5.95833M12.625 10.8333H5.95833M16.8928 3.23223C17.8691 4.20854 17.8691 5.79146 16.8928 6.76777C15.9165 7.74408 14.3335 7.74408 13.3572 6.76777C12.3809 5.79146 12.3809 4.20854 13.3572 3.23223C14.3335 2.25592 15.9165 2.25592 16.8928 3.23223Z" stroke="black" stroke-width="1.5" stroke-linecap="round" stroke-linejoin="round"/>
</svg>
