<svg width="24" height="25" viewBox="0 0 24 25" fill="none" xmlns="http://www.w3.org/2000/svg">
<path d="M7 22.6667V11.6667M2 13.6667V20.6667C2 21.7712 2.89543 22.6667 4 22.6667H17.4262C18.907 22.6667 20.1662 21.5863 20.3914 20.1228L21.4683 13.1228C21.7479 11.3056 20.3418 9.66666 18.5032 9.66666H15C14.4477 9.66666 14 9.21894 14 8.66666V5.1325C14 3.77065 12.896 2.66666 11.5342 2.66666C11.2093 2.66666 10.915 2.85795 10.7831 3.15478L7.26394 11.0728C7.10344 11.4339 6.74532 11.6667 6.35013 11.6667H4C2.89543 11.6667 2 12.5621 2 13.6667Z" stroke="white" stroke-width="2" stroke-linecap="round" stroke-linejoin="round"/>
</svg>
