<svg width="19" height="18" viewBox="0 0 19 18" fill="none" xmlns="http://www.w3.org/2000/svg">
<path d="M9.49967 4.17643V17.0384M9.49967 4.17643H6.65741C6.23862 4.17643 5.83699 4.00705 5.54086 3.70553C5.24473 3.40402 5.07837 2.99509 5.07837 2.56868C5.07837 2.14228 5.24473 1.73335 5.54086 1.43184C5.83699 1.13032 6.23862 0.960938 6.65741 0.960938C8.86806 0.960937 9.49967 4.17643 9.49967 4.17643ZM9.49967 4.17643H12.3419C12.7607 4.17643 13.1624 4.00705 13.4585 3.70553C13.7546 3.40402 13.921 2.99509 13.921 2.56868C13.921 2.14228 13.7546 1.73335 13.4585 1.43184C13.1624 1.13032 12.7607 0.960938 12.3419 0.960938C10.1313 0.960937 9.49967 4.17643 9.49967 4.17643ZM15.9307 8.1958V14.466C15.9307 15.3664 15.9307 15.8167 15.7554 16.1606C15.6013 16.4631 15.3553 16.709 15.0528 16.8632C14.7089 17.0384 14.2587 17.0384 13.3583 17.0384L5.64108 17.0384C4.74066 17.0384 4.29045 17.0384 3.94653 16.8632C3.64401 16.709 3.39806 16.4631 3.24392 16.1606C3.06868 15.8166 3.06868 15.3664 3.06868 14.466V8.1958M1.46094 5.46263L1.46094 6.9096C1.46094 7.35981 1.46094 7.58492 1.54855 7.75688C1.62562 7.90814 1.7486 8.03111 1.89986 8.10818C2.07182 8.1958 2.29692 8.1958 2.74714 8.1958L16.2522 8.1958C16.7024 8.1958 16.9275 8.1958 17.0995 8.10818C17.2507 8.03111 17.3737 7.90814 17.4508 7.75688C17.5384 7.58492 17.5384 7.35981 17.5384 6.9096V5.46263C17.5384 5.01242 17.5384 4.78731 17.4508 4.61536C17.3737 4.4641 17.2507 4.34112 17.0995 4.26405C16.9275 4.17643 16.7024 4.17643 16.2522 4.17643L2.74714 4.17643C2.29692 4.17643 2.07182 4.17643 1.89986 4.26405C1.7486 4.34112 1.62562 4.4641 1.54855 4.61536C1.46094 4.78731 1.46094 5.01242 1.46094 5.46263Z" stroke="black" stroke-width="1.5" stroke-linecap="round" stroke-linejoin="round"/>
</svg>
