<svg width="255" height="254" viewBox="0 0 255 254" fill="none" xmlns="http://www.w3.org/2000/svg">
<path d="M250.724 127C250.724 194.977 195.618 250.083 127.641 250.083C59.6644 250.083 4.55838 194.977 4.55838 127C4.55838 59.0233 59.6644 3.91727 127.641 3.91727C195.618 3.91727 250.724 59.0233 250.724 127Z" fill="white" stroke="#CED3E6" stroke-width="7.83454"/>
<g clip-path="url(#clip0_2059_115185)">
<path d="M219.458 127.311C219.458 178.027 178.67 218.815 127.953 218.815C77.2361 218.815 36.448 178.027 36.448 127.311C36.448 76.5937 77.2361 35.8055 127.953 35.8055C178.67 35.8055 219.458 76.5937 219.458 127.311Z" fill="#2775CA" stroke="#2775CA" stroke-width="7.95695"/>
<path d="M154.477 143.246C154.477 130.149 146.164 125.659 129.537 123.789C117.661 122.292 115.286 119.298 115.286 114.059C115.286 108.82 119.245 105.453 127.162 105.453C134.287 105.453 138.246 107.698 140.225 113.311C140.622 114.434 141.809 115.182 142.997 115.182H149.33C150.914 115.182 152.102 114.059 152.102 112.563V112.189C150.518 103.956 143.392 97.5954 134.287 96.8473V87.8669C134.287 86.3698 133.1 85.2473 131.121 84.8728H125.183C123.599 84.8728 122.411 85.9954 122.015 87.8669V96.4728C110.139 97.9699 102.618 105.453 102.618 114.808C102.618 127.156 110.535 132.02 127.162 133.892C138.246 135.762 141.809 138.007 141.809 143.995C141.809 149.982 136.266 154.098 128.746 154.098C118.452 154.098 114.889 149.981 113.702 144.368C113.307 142.872 112.119 142.123 110.931 142.123H104.201C102.618 142.123 101.43 143.246 101.43 144.743V145.117C103.013 154.471 109.348 161.206 122.411 163.078V172.058C122.411 173.555 123.599 174.677 125.578 175.052H131.516C133.1 175.052 134.287 173.929 134.684 172.058V163.078C146.56 161.206 154.477 153.349 154.477 143.246Z" fill="white"/>
<path d="M108.466 178.823C78.6643 168.521 63.3809 136.509 74.4617 108.176C80.1929 92.7224 92.8014 80.9482 108.466 75.4289C109.995 74.6933 110.759 73.5894 110.759 71.749V66.598C110.759 65.1259 109.995 64.022 108.466 63.6547C108.084 63.6547 107.32 63.6547 106.938 64.022C70.6407 75.0606 50.7724 112.225 62.2347 147.18C69.112 167.785 85.5416 183.607 106.938 190.23C108.466 190.966 109.995 190.23 110.376 188.758C110.759 188.391 110.759 188.023 110.759 187.287V182.135C110.759 181.031 109.612 179.56 108.466 178.823ZM148.967 64.022C147.438 63.2864 145.909 64.022 145.528 65.4941C145.146 65.8624 145.146 66.2297 145.146 66.9662V72.1173C145.146 73.5894 146.292 75.0606 147.438 75.7971C177.24 86.0992 192.523 118.111 181.442 146.444C175.711 161.898 163.103 173.672 147.438 179.192C145.909 179.927 145.146 181.031 145.146 182.872V188.023C145.146 189.495 145.909 190.599 147.438 190.966C147.82 190.966 148.584 190.966 148.967 190.599C185.264 179.56 205.132 142.396 193.67 107.441C186.792 86.4675 169.98 70.6452 148.967 64.022Z" fill="white"/>
</g>
<defs>
<clipPath id="clip0_2059_115185">
<rect x="32.4695" y="31.827" width="190.967" height="190.967" fill="white"/>
</clipPath>
</defs>
</svg>
