<svg width="130" height="130" viewBox="0 0 130 130" fill="none" xmlns="http://www.w3.org/2000/svg">
<rect x="2.51562" y="2.55728" width="124.969" height="124.969" rx="62.4844" fill="white" stroke="#CED3E6" stroke-width="4.03125"/>
<g clip-path="url(#clip0_1801_116814)">
<path d="M111.36 65.0413C111.36 90.736 90.695 111.401 65.0002 111.401C39.3055 111.401 18.6409 90.736 18.6409 65.0413C18.6409 39.3465 39.3055 18.6819 65.0002 18.6819C90.695 18.6819 111.36 39.3465 111.36 65.0413Z" fill="#2775CA" stroke="#2775CA" stroke-width="4.03125"/>
<path d="M78.438 73.1145C78.438 66.4796 74.2262 64.2047 65.8027 63.257C59.7858 62.4985 58.5825 60.9821 58.5825 58.3277C58.5825 55.6734 60.5882 53.9677 64.5993 53.9677C68.2094 53.9677 70.2152 55.1051 71.2178 57.9487C71.4185 58.5175 72.0202 58.8965 72.6219 58.8965H75.8305C76.6329 58.8965 77.2346 58.3277 77.2346 57.5697V57.38C76.4322 53.2092 72.8221 49.9866 68.2094 49.6076V45.0579C68.2094 44.2994 67.6077 43.7307 66.6051 43.541H63.5966C62.7942 43.541 62.1926 44.1097 61.9918 45.0579V49.4179C55.975 50.1763 52.1647 53.9677 52.1647 58.7072C52.1647 64.9631 56.1757 67.4273 64.5993 68.3755C70.2152 69.3232 72.0202 70.4606 72.0202 73.494C72.0202 76.5273 69.212 78.6125 65.4017 78.6125C60.1868 78.6125 58.3817 76.5268 57.7801 73.6832C57.5798 72.9252 56.9781 72.5458 56.3764 72.5458H52.9666C52.1647 72.5458 51.563 73.1145 51.563 73.873V74.0627C52.3649 78.8017 55.574 82.2141 62.1926 83.1622V87.712C62.1926 88.47 62.7942 89.0387 63.7969 89.2285H66.8053C67.6077 89.2285 68.2094 88.6597 68.4101 87.712V83.1622C74.4269 82.2141 78.438 78.233 78.438 73.1145Z" fill="white"/>
<path d="M55.1276 91.1395C40.0289 85.9201 32.2859 69.7018 37.8998 55.3474C40.8034 47.5179 47.1913 41.5527 55.1276 38.7564C55.902 38.3837 56.289 37.8245 56.289 36.8921V34.2824C56.289 33.5366 55.902 32.9773 55.1276 32.7912C54.9339 32.7912 54.5469 32.7912 54.3531 32.9773C35.9639 38.5699 25.898 57.3983 31.7052 75.1078C35.1895 85.547 43.5132 93.563 54.3531 96.9185C55.1276 97.2912 55.902 96.9185 56.0953 96.1727C56.289 95.9866 56.289 95.8 56.289 95.4274V92.8172C56.289 92.258 55.7083 91.5126 55.1276 91.1395ZM75.6464 32.9773C74.8719 32.6047 74.0975 32.9773 73.9042 33.7232C73.7105 33.9097 73.7105 34.0959 73.7105 34.469V37.0787C73.7105 37.8245 74.2912 38.5699 74.8719 38.943C89.9706 44.1624 97.7136 60.3807 92.0997 74.7351C89.1961 82.5646 82.8082 88.5298 74.8719 91.326C74.0975 91.6987 73.7105 92.258 73.7105 93.1904V95.8C73.7105 96.5459 74.0975 97.1051 74.8719 97.2912C75.0657 97.2912 75.4527 97.2912 75.6464 97.1051C94.0356 91.5126 104.102 72.6842 98.2943 54.9747C94.81 44.3489 86.2925 36.3329 75.6464 32.9773Z" fill="white"/>
</g>
<defs>
<clipPath id="clip0_1801_116814">
<rect x="16.6252" y="16.6663" width="96.75" height="96.75" fill="white"/>
</clipPath>
</defs>
</svg>
