<svg width="130" height="130" viewBox="0 0 130 130" fill="none" xmlns="http://www.w3.org/2000/svg">
<path d="M128.467 65.0417C128.467 100.094 100.052 128.509 64.9999 128.509C29.948 128.509 1.53279 100.094 1.53279 65.0417C1.53279 29.9897 29.948 1.57454 64.9999 1.57454C100.052 1.57454 128.467 29.9897 128.467 65.0417Z" fill="white" stroke="#CED3E6" stroke-width="2.74576"/>
<g clip-path="url(#clip0_1801_116805)">
<path d="M65.0001 113.672C91.8577 113.672 113.63 91.8992 113.63 65.0416C113.63 38.184 91.8577 16.4116 65.0001 16.4116C38.1425 16.4116 16.3701 38.184 16.3701 65.0416C16.3701 91.8992 38.1425 113.672 65.0001 113.672Z" fill="#50AF95"/>
<g clip-path="url(#clip1_1801_116805)">
<path fill-rule="evenodd" clip-rule="evenodd" d="M41.028 32.9667L27.2349 63.8931C27.1824 64.0081 27.1658 64.1381 27.1875 64.2639C27.2091 64.3898 27.2679 64.5049 27.3553 64.5925L64.607 102.696C64.7128 102.805 64.8537 102.865 65.0003 102.865C65.1469 102.865 65.2879 102.805 65.3937 102.696L102.645 64.5949C102.733 64.5073 102.792 64.3921 102.813 64.2663C102.835 64.1404 102.818 64.0105 102.766 63.8955L88.9727 32.9691C88.9282 32.8652 88.8566 32.7772 88.7665 32.7156C88.6763 32.654 88.5715 32.6214 88.4645 32.6218H41.5406C41.433 32.6203 41.3274 32.6521 41.2365 32.7133C41.1455 32.7745 41.0731 32.8625 41.028 32.9667Z" fill="#50AF95"/>
<path fill-rule="evenodd" clip-rule="evenodd" d="M69.7864 67.069C69.5189 67.0904 68.1372 67.1785 65.055 67.1785C62.6035 67.1785 60.8629 67.1 60.2523 67.069C50.7783 66.6242 43.7069 64.8637 43.7069 62.756C43.7069 60.6482 50.7783 58.8902 60.2523 58.4382V65.3157C60.8718 65.3633 62.6458 65.4751 65.0973 65.4751C68.0391 65.4751 69.5123 65.3443 69.7775 65.3181V58.4429C79.2313 58.8926 86.2872 60.653 86.2872 62.756C86.2872 64.859 79.2336 66.6194 69.7775 67.0667L69.7864 67.069ZM69.7864 57.7316V51.5773H82.9799V42.1923H47.0587V51.5773H60.25V57.7293C49.5281 58.255 41.4648 60.5222 41.4648 63.2389C41.4648 65.9557 49.5281 68.2204 60.25 68.7486V88.4701H69.7841V68.7414C80.4816 68.2157 88.5314 65.9509 88.5314 63.2365C88.5314 60.5222 80.4883 58.2574 69.7841 57.7293L69.7864 57.7316Z" fill="white"/>
</g>
</g>
<defs>
<clipPath id="clip0_1801_116805">
<rect width="97.26" height="97.26" fill="white" transform="translate(16.3701 16.4116)"/>
</clipPath>
<clipPath id="clip1_1801_116805">
<rect width="75.6467" height="70.2433" fill="white" transform="translate(27.1768 32.6217)"/>
</clipPath>
</defs>
</svg>
