<svg width="255" height="254" viewBox="0 0 255 254" fill="none" xmlns="http://www.w3.org/2000/svg">
<path d="M250.841 126.998C250.841 194.973 195.736 250.079 127.76 250.079C59.7845 250.079 4.67948 194.973 4.67948 126.998C4.67948 59.0223 59.7845 3.91727 127.76 3.91727C195.736 3.91727 250.841 59.0223 250.841 126.998Z" fill="white" stroke="#CED3E6" stroke-width="7.83454"/>
<g clip-path="url(#clip0_2059_115177)">
<path d="M127.76 222.246C180.365 222.246 223.009 179.602 223.009 126.998C223.009 74.3934 180.365 31.7493 127.76 31.7493C75.1561 31.7493 32.512 74.3934 32.512 126.998C32.512 179.602 75.1561 222.246 127.76 222.246Z" fill="#50AF95"/>
<g clip-path="url(#clip1_2059_115177)">
<path fill-rule="evenodd" clip-rule="evenodd" d="M80.8076 64.1744L53.7921 124.748C53.6893 124.973 53.6567 125.228 53.6991 125.474C53.7415 125.721 53.8567 125.946 54.0278 126.118L126.99 200.749C127.198 200.961 127.474 201.08 127.761 201.08C128.048 201.08 128.324 200.961 128.531 200.749L201.494 126.122C201.665 125.951 201.78 125.725 201.822 125.479C201.865 125.232 201.832 124.978 201.729 124.753L174.714 64.179C174.627 63.9756 174.486 63.8033 174.31 63.6826C174.133 63.562 173.928 63.4982 173.719 63.4987H81.8116C81.601 63.496 81.3942 63.5583 81.2161 63.6781C81.0379 63.798 80.8961 63.9704 80.8076 64.1744Z" fill="#50AF95"/>
<path fill-rule="evenodd" clip-rule="evenodd" d="M137.134 130.968C136.611 131.01 133.904 131.182 127.867 131.182C123.066 131.182 119.657 131.029 118.461 130.968C99.9046 130.097 86.0541 126.649 86.0541 122.52C86.0541 118.392 99.9046 114.949 118.461 114.063V127.534C119.674 127.627 123.149 127.846 127.95 127.846C133.712 127.846 136.597 127.59 137.117 127.539V114.073C155.634 114.953 169.454 118.401 169.454 122.52C169.454 126.639 155.638 130.087 137.117 130.963L137.134 130.968ZM137.134 112.68V100.625H162.976V82.2437H92.6192V100.625H118.456V112.675C97.4557 113.705 81.6628 118.145 81.6628 123.466C81.6628 128.787 97.4557 133.223 118.456 134.258V172.885H137.13V134.244C158.082 133.214 173.849 128.778 173.849 123.462C173.849 118.145 158.096 113.709 137.13 112.675L137.134 112.68Z" fill="white"/>
</g>
</g>
<defs>
<clipPath id="clip0_2059_115177">
<rect width="190.497" height="190.497" fill="white" transform="translate(32.512 31.7493)"/>
</clipPath>
<clipPath id="clip1_2059_115177">
<rect width="148.164" height="137.581" fill="white" transform="translate(53.6785 63.4987)"/>
</clipPath>
</defs>
</svg>
