<svg width="21" height="21" viewBox="0 0 21 21" fill="none" xmlns="http://www.w3.org/2000/svg">
<g clip-path="url(#clip0_25_6832)">
<path d="M4.67967 4.17816H2.27778C1.29594 4.17816 0.5 4.9741 0.5 5.95594V18.4923C0.5 19.4742 1.29594 20.2701 2.27778 20.2701H4.67967C5.66151 20.2701 6.45744 19.4742 6.45744 18.4923V5.95594C6.45744 4.9741 5.66151 4.17816 4.67967 4.17816Z" fill="#FF9400"/>
<path d="M11.7009 7.85632H9.29902C8.31718 7.85632 7.52124 8.65226 7.52124 9.6341V18.4923C7.52124 19.4742 8.31718 20.2701 9.29902 20.2701H11.7009C12.6827 20.2701 13.4787 19.4742 13.4787 18.4923V9.6341C13.4787 8.65226 12.6827 7.85632 11.7009 7.85632Z" fill="#FF9400"/>
<path d="M18.7221 0.5H16.3203C15.3384 0.5 14.5425 1.29594 14.5425 2.27778V18.4923C14.5425 19.4742 15.3384 20.2701 16.3203 20.2701H18.7221C19.704 20.2701 20.4999 19.4742 20.4999 18.4923V2.27778C20.4999 1.29594 19.704 0.5 18.7221 0.5Z" fill="#FF9400"/>
</g>
<defs>
<clipPath id="clip0_25_6832">
<rect width="20" height="20" fill="white" transform="translate(0.5 0.5)"/>
</clipPath>
</defs>
</svg>
