<svg width="15" height="14" viewBox="0 0 15 14" fill="none" xmlns="http://www.w3.org/2000/svg">
<path d="M2.64631 4.90629V10.4915M5.78802 4.90629V10.4915M9.27881 4.90629V10.4915M12.4205 4.90629V10.4915M1.25 11.6086L1.25 12.1671C1.25 12.5581 1.25 12.7536 1.32609 12.903C1.39303 13.0343 1.49983 13.1411 1.6312 13.2081C1.78054 13.2842 1.97605 13.2842 2.36705 13.2842H12.6998C13.0908 13.2842 13.2863 13.2842 13.4356 13.2081C13.567 13.1411 13.6738 13.0343 13.7407 12.903C13.8168 12.7536 13.8168 12.5581 13.8168 12.1671V11.6086C13.8168 11.2176 13.8168 11.0221 13.7407 10.8727C13.6738 10.7414 13.567 10.6346 13.4356 10.5676C13.2863 10.4915 13.0908 10.4915 12.6998 10.4915H2.36705C1.97605 10.4915 1.78054 10.4915 1.6312 10.5676C1.49983 10.6346 1.39303 10.7414 1.32609 10.8727C1.25 11.0221 1.25 11.2176 1.25 11.6086ZM7.29109 0.771194L2.12473 1.91927C1.81261 1.98863 1.65655 2.02331 1.54006 2.10724C1.43731 2.18126 1.35663 2.28184 1.30666 2.3982C1.25 2.53013 1.25 2.68999 1.25 3.00972L1.25 3.78923C1.25 4.18024 1.25 4.37574 1.32609 4.52509C1.39303 4.65645 1.49983 4.76326 1.6312 4.83019C1.78054 4.90629 1.97605 4.90629 2.36705 4.90629H12.6998C13.0908 4.90629 13.2863 4.90629 13.4356 4.83019C13.567 4.76326 13.6738 4.65645 13.7407 4.52509C13.8168 4.37574 13.8168 4.18024 13.8168 3.78923V3.00973C13.8168 2.68999 13.8168 2.53013 13.7602 2.3982C13.7102 2.28184 13.6295 2.18126 13.5268 2.10724C13.4103 2.02331 13.2542 1.98863 12.9421 1.91927L7.77574 0.771194C7.68531 0.751098 7.64009 0.741051 7.5944 0.737044C7.55382 0.733485 7.51301 0.733485 7.47242 0.737044C7.42673 0.741051 7.38152 0.751098 7.29109 0.771194Z" stroke="black" stroke-width="1.27517" stroke-linecap="round" stroke-linejoin="round"/>
</svg>
