<svg width="25" height="25" viewBox="0 0 25 25" fill="none" xmlns="http://www.w3.org/2000/svg">
<path d="M7.6297 1.66669C7.07957 1.66669 6.5392 1.93036 6.21043 2.41864L0.956522 10.2084C0.429179 10.9929 0.637512 12.0541 1.41876 12.5814L10.8231 18.9225C10.8426 18.6296 10.9272 18.3399 11.103 18.0827C11.5197 17.4642 12.2684 17.2103 12.952 17.3893C12.952 17.0606 13.0464 16.7285 13.2449 16.4356C13.7723 15.6511 14.8335 15.4427 15.6147 15.9733C16.1453 15.1888 17.2065 14.9805 17.9878 15.5111L20.3771 11.9694C20.9012 11.1882 20.6961 10.127 19.9149 9.59963L8.58348 1.95966C8.28725 1.76109 7.95848 1.66669 7.6297 1.66669ZM10.0353 6.58205C10.8165 6.58205 11.5945 6.98895 11.9949 7.7995C13.7886 8.05992 14.5014 10.2604 13.2059 11.5235C13.5119 13.3073 11.6401 14.668 10.0353 13.8249C8.43374 14.668 6.56525 13.3073 6.86798 11.5235C5.57241 10.2604 6.28855 8.05992 8.07892 7.7995C8.47931 6.98895 9.2573 6.58205 10.0353 6.58205ZM10.0353 9.19924C9.30288 9.19924 8.70717 9.79494 8.70717 10.5274C8.70717 11.263 9.30288 11.8555 10.0353 11.8555C10.771 11.8555 11.3667 11.263 11.3667 10.5274C11.3667 9.79494 10.771 9.19924 10.0353 9.19924ZM18.3751 17.6725C18.284 17.6725 18.1994 17.6921 18.1277 17.7376C17.9389 17.8516 17.8478 18.112 17.8771 18.4603C17.9064 18.8086 18.0529 19.2155 18.284 19.5931C18.7625 20.3776 19.4689 20.8203 19.8628 20.5827C20.0516 20.4688 20.1427 20.2084 20.1134 19.86C20.0841 19.5117 19.9376 19.1016 19.7065 18.7272C19.3257 18.1022 18.7886 17.6758 18.3751 17.6725ZM14.9734 19.7526C14.5438 19.7689 14.2443 19.9219 14.1629 20.1628C14.0099 20.5957 14.5926 21.1947 15.4617 21.4974C16.3309 21.7969 17.1577 21.6927 17.3107 21.2598C17.3823 21.0482 17.2879 20.791 17.0438 20.5404C16.7996 20.2897 16.4285 20.0684 16.0119 19.9219C15.6538 19.7982 15.2892 19.7363 14.9734 19.7526ZM20.5496 21.6602C19.6772 21.683 18.9969 22.041 18.9936 22.4772C18.9936 22.6986 19.1662 22.9134 19.4787 23.0729C19.7912 23.2324 20.2143 23.3236 20.6538 23.3268C21.575 23.3334 22.3237 22.9688 22.327 22.5065C22.3302 22.2884 22.1577 22.0736 21.8452 21.9141C21.5327 21.7546 21.1095 21.6634 20.6668 21.6602C20.6277 21.6602 20.5887 21.6602 20.5496 21.6602Z" fill="#8315AA"/>
</svg>
