<svg width="19" height="19" viewBox="0 0 19 19" fill="none" xmlns="http://www.w3.org/2000/svg">
<g clip-path="url(#clip0_25_6843)">
<path d="M2.03381 15.2112C2.78889 15.2112 3.401 14.4875 3.401 13.5948C3.401 12.7021 2.78889 11.9785 2.03381 11.9785C1.27874 11.9785 0.666626 12.7021 0.666626 13.5948C0.666626 14.4875 1.27874 15.2112 2.03381 15.2112Z" fill="#FF9400"/>
<path d="M1.67237 16.7198C1.11691 16.7198 0.666626 17.2023 0.666626 17.7974C0.666626 18.3925 1.11691 18.875 1.67237 18.875H17.1609C17.7163 18.875 18.1666 18.3925 18.1666 17.7974C18.1666 17.2023 17.7163 16.7198 17.1609 16.7198H1.67237Z" fill="#FF9400"/>
<path d="M1.69102 12.764C1.42731 13.1163 1.45802 13.6577 1.7596 13.9732C2.06118 14.2887 2.51944 14.2589 2.78315 13.9066L7.73298 7.29345C7.99669 6.94113 7.96599 6.39974 7.6644 6.08423C7.36282 5.76871 6.90456 5.79855 6.64086 6.15087L1.69102 12.764Z" fill="#FF9400"/>
<path d="M9.91874 9.00181C9.64143 9.34424 9.65242 9.88876 9.94329 10.218C10.2342 10.5473 10.6948 10.5366 10.9721 10.1942L17.1353 2.58398C17.4126 2.24155 17.4016 1.69704 17.1107 1.36777C16.8198 1.0385 16.3592 1.04918 16.0819 1.39161L9.91874 9.00181Z" fill="#FF9400"/>
<path d="M6.66273 6.34087L6.66273 6.34087C6.40961 6.71117 6.4636 7.259 6.78332 7.56449L9.58492 10.2413C9.90464 10.5468 10.369 10.4943 10.6222 10.124C10.8753 9.75368 10.8213 9.20585 10.5016 8.90036L7.69997 6.22352C7.38025 5.91803 6.91586 5.97057 6.66273 6.34087Z" fill="#FF9400"/>
<path d="M7.32025 8.53018C8.07533 8.53018 8.68744 7.80651 8.68744 6.9138C8.68744 6.0211 8.07533 5.29742 7.32025 5.29742C6.56517 5.29742 5.95306 6.0211 5.95306 6.9138C5.95306 7.80651 6.56517 8.53018 7.32025 8.53018Z" fill="#FF9400"/>
<path d="M10.0546 11.3319C10.8097 11.3319 11.4218 10.6082 11.4218 9.7155C11.4218 8.8228 10.8097 8.09912 10.0546 8.09912C9.29955 8.09912 8.68744 8.8228 8.68744 9.7155C8.68744 10.6082 9.29955 11.3319 10.0546 11.3319Z" fill="#FF9400"/>
<path d="M16.7994 3.35776C17.5545 3.35776 18.1666 2.63408 18.1666 1.74138C18.1666 0.848678 17.5545 0.125 16.7994 0.125C16.0444 0.125 15.4323 0.848678 15.4323 1.74138C15.4323 2.63408 16.0444 3.35776 16.7994 3.35776Z" fill="#FF9400"/>
</g>
<defs>
<clipPath id="clip0_25_6843">
<rect width="17.5" height="18.75" fill="white" transform="translate(0.666626 0.125)"/>
</clipPath>
</defs>
</svg>
