<svg width="20" height="20" viewBox="0 0 20 20" fill="none" xmlns="http://www.w3.org/2000/svg">
<g clip-path="url(#clip0_1408_226938)">
<mask id="mask0_1408_226938" style="mask-type:luminance" maskUnits="userSpaceOnUse" x="0" y="0" width="20" height="20">
<path d="M19.5238 0.476196H0.476196V19.5238H19.5238V0.476196Z" fill="white"/>
</mask>
<g mask="url(#mask0_1408_226938)">
<path d="M4.45683 3.97919H2.16932C1.23423 3.97919 0.476196 4.73722 0.476196 5.67231V17.6117C0.476196 18.5468 1.23423 19.3048 2.16932 19.3048H4.45683C5.39192 19.3048 6.14995 18.5468 6.14995 17.6117V5.67231C6.14995 4.73722 5.39192 3.97919 4.45683 3.97919Z" fill="#282F3D"/>
<path d="M11.1437 7.48224H8.85621C7.92112 7.48224 7.16309 8.24028 7.16309 9.17536V17.6117C7.16309 18.5469 7.92112 19.3049 8.85621 19.3049H11.1437C12.0788 19.3049 12.8369 18.5469 12.8369 17.6117V9.17536C12.8369 8.24028 12.0788 7.48224 11.1437 7.48224Z" fill="#282F3D"/>
<path d="M17.8306 0.476196H15.5431C14.608 0.476196 13.85 1.23423 13.85 2.16932V17.6117C13.85 18.5469 14.608 19.3049 15.5431 19.3049H17.8306C18.7657 19.3049 19.5237 18.5469 19.5237 17.6117V2.16932C19.5237 1.23423 18.7657 0.476196 17.8306 0.476196Z" fill="#282F3D"/>
</g>
</g>
<defs>
<clipPath id="clip0_1408_226938">
<rect width="20" height="20" fill="white"/>
</clipPath>
</defs>
</svg>
