<svg width="20" height="20" viewBox="0 0 20 20" fill="none" xmlns="http://www.w3.org/2000/svg">
<g clip-path="url(#clip0_1408_226930)">
<mask id="mask0_1408_226930" style="mask-type:luminance" maskUnits="userSpaceOnUse" x="0" y="0" width="20" height="20">
<path d="M19.5238 0.476196H0.476196V19.5238H19.5238V0.476196Z" fill="white"/>
</mask>
<g mask="url(#mask0_1408_226930)">
<path d="M18.0515 0.781126L15.0978 2.07492C14.5374 2.32065 13.9072 2.29136 13.3672 1.99626L11.1066 0.759428C10.41 0.378614 9.58467 0.413332 8.91683 0.851648L5.45427 3.1246C4.97322 3.44086 4.39751 3.53415 3.85403 3.38497L1.79007 2.82026C1.12174 2.63747 0.476196 3.18968 0.476196 3.94264V10.4696C0.476196 9.4574 1.67562 9.05921 2.1884 9.9017L3.42401 11.9305C4.08541 13.0182 5.49143 13.1701 6.33465 12.2462L8.87867 9.46064C9.56686 8.70715 10.5656 8.40391 11.5094 8.66213L13.2871 9.14818C13.8811 9.31146 14.5112 9.20839 15.0364 8.86338L17.6859 7.12314C18.4851 6.60019 19.5238 7.21002 19.5238 8.22987L19.5007 1.85521C19.5007 1.03718 18.7451 0.476801 18.0515 0.781126Z" fill="#282F3D"/>
<path d="M0.476196 6.37085H19.5238V16.1951C19.5238 17.9291 18.1025 19.3349 16.3492 19.3349H3.6508C1.89751 19.3349 0.476196 17.9291 0.476196 16.1951V6.37085Z" fill="#282F3D"/>
</g>
</g>
<defs>
<clipPath id="clip0_1408_226930">
<rect width="20" height="20" fill="white"/>
</clipPath>
</defs>
</svg>
