<svg width="20" height="20" viewBox="0 0 20 20" fill="none" xmlns="http://www.w3.org/2000/svg">
<g clip-path="url(#clip0_1408_226948)">
<path d="M13.9344 0.555542H6.06561C5.50917 0.555542 5.12825 1.09576 5.33522 1.59141L6.06481 3.57776H13.9352L14.6648 1.59141C14.8718 1.09576 14.4909 0.555542 13.9344 0.555542ZM13.9352 5.08888H6.06481C6.06481 5.08888 0.555557 9.62221 0.555557 14.9111C0.555557 17.9333 2.91667 19.4444 4.49075 19.4444C6.06481 19.4444 10 19.4444 10 19.4444C10 19.4444 13.9352 19.4444 15.5092 19.4444C17.0833 19.4444 19.4444 17.9333 19.4444 14.9111C19.4444 9.62221 13.9352 5.08888 13.9352 5.08888ZM10.787 15.5895V16.8H9.21297V15.5933C8.05525 15.3849 7.32722 14.7018 7.28472 13.7038H8.64787C8.71319 14.2281 9.26414 14.5643 10.0582 14.5643C10.791 14.5643 11.3097 14.2235 11.3097 13.7347C11.3097 13.3222 10.9736 13.0849 10.1472 12.9142L9.26964 12.7351C8.04186 12.4888 7.43898 11.8745 7.43898 10.8885C7.43898 9.89648 8.12292 9.18928 9.21297 8.95656V7.73332H10.787V8.9543C11.8496 9.18248 12.5594 9.87759 12.5941 10.8167H11.2679C11.2026 10.306 10.7075 9.96523 10.026 9.96523C9.32078 9.96523 8.85408 10.2788 8.85408 10.7722C8.85408 11.1711 9.17598 11.4 9.96537 11.561L10.7776 11.7272C12.1321 12.0007 12.7153 12.5613 12.7153 13.5647C12.7153 14.6451 11.9928 15.3698 10.787 15.5895Z" fill="#282F3D"/>
</g>
<defs>
<clipPath id="clip0_1408_226948">
<rect width="20" height="18.8889" fill="white" transform="translate(0 0.555542)"/>
</clipPath>
</defs>
</svg>
