<svg width="16" height="16" viewBox="0 0 16 16" fill="none" xmlns="http://www.w3.org/2000/svg">
<path d="M6.10753 5.99992C6.26426 5.55436 6.57363 5.17866 6.98083 4.93934C7.38803 4.70002 7.86679 4.61254 8.33231 4.69239C8.79783 4.77224 9.22007 5.01427 9.52424 5.3756C9.82842 5.73694 9.9949 6.19427 9.99419 6.66659C9.99419 7.99992 7.99419 8.66659 7.99419 8.66659M8.04753 11.3333H8.05419M14.7142 7.99992C14.7142 11.6818 11.7294 14.6666 8.04753 14.6666C4.36563 14.6666 1.38086 11.6818 1.38086 7.99992C1.38086 4.31802 4.36563 1.33325 8.04753 1.33325C11.7294 1.33325 14.7142 4.31802 14.7142 7.99992Z" stroke="#98A2B3" stroke-width="1.33333" stroke-linecap="round" stroke-linejoin="round"/>
</svg>
