<svg width="18" height="17" viewBox="0 0 18 17" fill="none" xmlns="http://www.w3.org/2000/svg">
<path d="M12.541 0H5.45905C4.95825 0 4.61542 0.4862 4.8017 0.93228L5.45833 2.72H12.5417L13.1983 0.93228C13.3846 0.4862 13.0418 0 12.541 0ZM12.5417 4.08H5.45833C5.45833 4.08 0.5 8.16 0.5 12.92C0.5 15.64 2.625 17 4.04167 17C5.45833 17 9 17 9 17C9 17 12.5417 17 13.9583 17C15.375 17 17.5 15.64 17.5 12.92C17.5 8.16 12.5417 4.08 12.5417 4.08ZM9.70833 13.5306V14.62H8.29167V13.534C7.24972 13.3464 6.5945 12.7316 6.55625 11.8334H7.78308C7.84187 12.3053 8.33772 12.6079 9.05242 12.6079C9.71188 12.6079 10.1787 12.3012 10.1787 11.8612C10.1787 11.49 9.87622 11.2764 9.13247 11.1228L8.34267 10.9616C7.23767 10.7399 6.69508 10.1871 6.69508 9.29968C6.69508 8.40684 7.31063 7.77036 8.29167 7.56092V6.46H9.70833V7.55888C10.6646 7.76424 11.3035 8.38984 11.3347 9.23508H10.1411C10.0823 8.7754 9.63678 8.46872 9.02337 8.46872C8.3887 8.46872 7.96867 8.75092 7.96867 9.19496C7.96867 9.554 8.25838 9.76004 8.96883 9.90488L9.69983 10.0545C10.9189 10.3006 11.4438 10.8052 11.4438 11.7082C11.4438 12.6806 10.7935 13.3328 9.70833 13.5306Z" fill="#1F2937"/>
</svg>
