<svg width="19" height="20" viewBox="0 0 19 20" fill="none" xmlns="http://www.w3.org/2000/svg">
<path d="M6.91921 7.48464H6.92758M11.9459 12.5114H11.9543M12.7837 6.64685L6.08142 13.3492M17.8105 9.998C17.8105 14.625 14.0595 18.3759 9.43257 18.3759C4.80559 18.3759 1.05469 14.625 1.05469 9.998C1.05469 5.37102 4.80559 1.62012 9.43257 1.62012C14.0595 1.62012 17.8105 5.37102 17.8105 9.998ZM7.3381 7.48464C7.3381 7.71598 7.15055 7.90353 6.91921 7.90353C6.68786 7.90353 6.50031 7.71598 6.50031 7.48464C6.50031 7.25329 6.68786 7.06574 6.91921 7.06574C7.15055 7.06574 7.3381 7.25329 7.3381 7.48464ZM12.3648 12.5114C12.3648 12.7427 12.1773 12.9303 11.9459 12.9303C11.7146 12.9303 11.527 12.7427 11.527 12.5114C11.527 12.28 11.7146 12.0925 11.9459 12.0925C12.1773 12.0925 12.3648 12.28 12.3648 12.5114Z" stroke="black" stroke-width="1.27517" stroke-linecap="round" stroke-linejoin="round"/>
</svg>
