<svg width="21" height="21" viewBox="0 0 21 21" fill="none" xmlns="http://www.w3.org/2000/svg">
<g clip-path="url(#clip0_25_6858)">
<path d="M18.9541 0.820197L15.8527 2.17868C15.2643 2.4367 14.6026 2.40594 14.0356 2.09609L11.6619 0.797415C10.9305 0.39756 10.0639 0.434014 9.36267 0.894246L5.72698 3.28085C5.22187 3.61292 4.61738 3.71087 4.04673 3.55423L1.87957 2.96129C1.17782 2.76936 0.5 3.34918 0.5 4.13979V10.9931C0.5 9.93028 1.7594 9.51219 2.29781 10.3968L3.5952 12.527C4.28967 13.6691 5.766 13.8286 6.65138 12.8585L9.3226 9.93369C10.0452 9.14252 11.0939 8.82412 12.0849 9.09525L13.9514 9.6056C14.5751 9.77705 15.2368 9.66883 15.7882 9.30656L18.5702 7.47931C19.4093 6.93021 20.5 7.57054 20.5 8.64138L20.4757 1.94799C20.4757 1.08905 19.6824 0.500656 18.9541 0.820197Z" fill="#FF9400"/>
<path d="M0.5 6.68939H20.5V17.0049C20.5 18.8256 19.0076 20.3016 17.1667 20.3016H3.83333C1.99238 20.3016 0.5 18.8256 0.5 17.0049V6.68939Z" fill="#FF9400"/>
</g>
<defs>
<clipPath id="clip0_25_6858">
<rect width="20" height="20" fill="white" transform="translate(0.5 0.5)"/>
</clipPath>
</defs>
</svg>
