<svg width="20" height="20" viewBox="0 0 20 20" fill="none" xmlns="http://www.w3.org/2000/svg">
<g id="notification-text">
<path id="Icon" d="M9.16664 3.33919H6.49997C5.09984 3.33919 4.39977 3.33919 3.86499 3.61168C3.39459 3.85136 3.01214 4.23381 2.77245 4.70422C2.49997 5.239 2.49997 5.93906 2.49997 7.33919V13.5059C2.49997 14.906 2.49997 15.6061 2.77245 16.1408C3.01214 16.6112 3.39459 16.9937 3.86499 17.2334C4.39977 17.5059 5.09984 17.5059 6.49997 17.5059H12.6666C14.0668 17.5059 14.7668 17.5059 15.3016 17.2334C15.772 16.9937 16.1545 16.6112 16.3942 16.1408C16.6666 15.6061 16.6666 14.906 16.6666 13.5059V10.8392M10.8333 14.1725H5.8333M12.5 10.8392H5.8333M16.7677 3.23809C17.744 4.2144 17.744 5.79732 16.7677 6.77363C15.7914 7.74994 14.2085 7.74994 13.2322 6.77363C12.2559 5.79732 12.2559 4.2144 13.2322 3.23809C14.2085 2.26178 15.7914 2.26178 16.7677 3.23809Z" stroke="#344054" stroke-width="1.5" stroke-linecap="round" stroke-linejoin="round"/>
</g>
</svg>
