<svg width="48" height="48" viewBox="0 0 48 48" fill="none" xmlns="http://www.w3.org/2000/svg">
<rect width="48" height="48" rx="10" fill="#93E4B5"/>
<path d="M32 17C32 18.6569 28.4183 20 24 20C19.5817 20 16 18.6569 16 17M32 17C32 15.3431 28.4183 14 24 14C19.5817 14 16 15.3431 16 17M32 17V31C32 32.6569 28.4183 34 24 34C19.5817 34 16 32.6569 16 31V17M32 21.6666C32 23.3235 28.4183 24.6666 24 24.6666C19.5817 24.6666 16 23.3235 16 21.6666M32 26.33C32 27.9869 28.4183 29.33 24 29.33C19.5817 29.33 16 27.9869 16 26.33" stroke="white" stroke-width="1.5" stroke-linecap="round" stroke-linejoin="round"/>
</svg>
