<svg width="45" height="45" viewBox="0 0 45 45" fill="none" xmlns="http://www.w3.org/2000/svg">
<rect x="3.23712" y="3.23711" width="38.4742" height="38.4742" rx="19.2371" fill="#D1FADF"/>
<path d="M30.4897 18.4665L24.1826 24.7736C23.8652 25.091 23.7065 25.2497 23.5235 25.3092C23.3625 25.3615 23.1891 25.3615 23.0281 25.3092C22.8451 25.2497 22.6863 25.091 22.3689 24.7736L20.1749 22.5795C19.8575 22.2621 19.6987 22.1034 19.5157 22.0439C19.3547 21.9916 19.1813 21.9916 19.0203 22.0439C18.8373 22.1034 18.6786 22.2621 18.3612 22.5795L14.4588 26.482M30.4897 18.4665H24.8789M30.4897 18.4665V24.0773" stroke="#039855" stroke-width="1.60309" stroke-linecap="round" stroke-linejoin="round"/>
<rect x="3.23712" y="3.23711" width="38.4742" height="38.4742" rx="19.2371" stroke="#ECFDF3" stroke-width="6.41237"/>
</svg>
