<svg width="48" height="48" viewBox="0 0 48 48" fill="none" xmlns="http://www.w3.org/2000/svg">
<rect width="48" height="48" rx="10" fill="#FFBB5D"/>
<path d="M16.0839 21.5H31.9173M22.3339 16.5L20.6673 21.5L24.0006 31.0833L27.3339 21.5L25.6673 16.5M24.5127 30.8854L31.9783 21.9268C32.1048 21.775 32.1681 21.699 32.1922 21.6143C32.2135 21.5396 32.2135 21.4604 32.1922 21.3857C32.1681 21.301 32.1048 21.225 31.9783 21.0732L28.3672 16.7399C28.2937 16.6517 28.2569 16.6076 28.2119 16.5759C28.172 16.5478 28.1275 16.527 28.0804 16.5143C28.0272 16.5 27.9698 16.5 27.855 16.5H20.1462C20.0314 16.5 19.974 16.5 19.9208 16.5143C19.8737 16.527 19.8292 16.5478 19.7893 16.5759C19.7442 16.6076 19.7075 16.6517 19.634 16.7399L16.0229 21.0732C15.8964 21.225 15.8331 21.301 15.809 21.3857C15.7876 21.4604 15.7876 21.5396 15.809 21.6143C15.8331 21.699 15.8964 21.775 16.0229 21.9268L23.4884 30.8854C23.6643 31.0965 23.7523 31.202 23.8576 31.2405C23.9499 31.2743 24.0513 31.2743 24.1436 31.2405C24.2489 31.202 24.3369 31.0965 24.5127 30.8854Z" stroke="white" stroke-linecap="round" stroke-linejoin="round"/>
</svg>
