<svg width="77" height="76" viewBox="0 0 77 76" fill="none" xmlns="http://www.w3.org/2000/svg">
<rect x="0.968018" y="0.296368" width="75.6743" height="75.6743" rx="37.8372" fill="#27AE60"/>
<g clip-path="url(#clip0_450_125106)">
<path d="M38.8052 32.0069C42.8433 32.0069 46.1286 28.7216 46.1286 24.6835C45.7604 14.9816 31.8486 14.9841 31.482 24.6836C31.482 28.7216 34.7672 32.0069 38.8052 32.0069ZM38.8052 19.8013C41.4974 19.8013 43.6875 21.9915 43.6875 24.6835C43.442 31.1515 34.1675 31.1499 33.9231 24.6835C33.9231 21.9915 36.1132 19.8013 38.8052 19.8013Z" fill="white"/>
<path d="M58.3342 40.5507H54.6724C54.6724 37.1857 51.9348 34.448 48.5697 34.448H18.0559V58.8591H59.5547V40.5507H58.3342ZM57.1135 42.9918V45.433H49.7902C48.7948 45.433 47.8506 45.7294 47.0549 46.2699C46.5689 45.6588 46.082 45.1203 45.5428 44.5896C46.2146 43.5996 47.334 42.9918 48.5697 42.9918H52.2313H57.1135ZM32.7025 49.0946H20.497V46.6535H32.7025C38.3471 46.6535 43.0102 50.9332 43.6193 56.418H41.1589C40.5647 52.283 36.9993 49.0946 32.7025 49.0946ZM32.7025 44.2124H20.497V41.7713H32.7025C41.0411 41.7713 47.8979 48.2368 48.5232 56.418H46.0725C45.4537 49.5847 39.6942 44.2124 32.7025 44.2124ZM48.4448 48.2774C48.8381 48.0166 49.302 47.8741 49.7902 47.8741H57.1135V50.3152H52.2313C51.3515 50.3152 50.5045 50.5517 49.7679 50.9825C49.4034 50.0471 48.9614 49.1428 48.4448 48.2774ZM48.5697 36.8891C50.5888 36.8891 52.2313 38.5316 52.2313 40.5507H48.5697C46.6059 40.5507 44.818 41.4714 43.6857 42.9875C40.5342 40.6146 36.7172 39.3302 32.7025 39.3302H20.497V36.8891H48.5697ZM20.497 51.5357H32.7025C35.6497 51.5357 38.1155 53.6358 38.6824 56.418H20.497V51.5357ZM50.9698 56.418C50.9038 55.4095 50.7564 54.4171 50.5306 53.448C50.9824 53.0089 51.5895 52.7563 52.2313 52.7563H57.1135V56.418H50.9698Z" fill="white"/>
</g>
<defs>
<clipPath id="clip0_450_125106">
<rect width="41.4988" height="41.4988" fill="white" transform="translate(18.0559 17.3841)"/>
</clipPath>
</defs>
</svg>
