<svg width="78" height="77" viewBox="0 0 78 77" fill="none" xmlns="http://www.w3.org/2000/svg">
<g clip-path="url(#clip0_956_213502)">
<path d="M77.1423 38.4336C77.1423 17.5367 60.202 0.596436 39.3052 0.596436C18.4083 0.596436 1.46802 17.5367 1.46802 38.4336C1.46802 59.3305 18.4083 76.2707 39.3052 76.2707C60.202 76.2707 77.1423 59.3305 77.1423 38.4336Z" fill="#1E1F20"/>
<mask id="mask0_956_213502" style="mask-type:luminance" maskUnits="userSpaceOnUse" x="18" y="17" width="43" height="43">
<path d="M60.0547 17.6841H18.5559V59.1829H60.0547V17.6841Z" fill="white"/>
</mask>
<g mask="url(#mask0_956_213502)">
<path d="M39.3051 32.3069C43.3432 32.3069 46.6285 29.0216 46.6285 24.9835C46.2603 15.2816 32.3485 15.2841 31.9819 24.9836C31.9819 29.0216 35.2671 32.3069 39.3051 32.3069ZM39.3051 20.1013C41.9973 20.1013 44.1874 22.2915 44.1874 24.9835C43.9419 31.4515 34.6674 31.4499 34.423 24.9835C34.423 22.2915 36.6131 20.1013 39.3051 20.1013Z" fill="white"/>
<path d="M58.8342 40.8507H55.1724C55.1724 37.4857 52.4348 34.748 49.0697 34.748H18.5559V59.1591H60.0547V40.8507H58.8342ZM57.6135 43.2918V45.733H50.2902C49.2948 45.733 48.3506 46.0294 47.5549 46.5699C47.0689 45.9588 46.582 45.4203 46.0428 44.8896C46.7146 43.8996 47.834 43.2918 49.0697 43.2918H52.7313H57.6135ZM33.2025 49.3946H20.997V46.9535H33.2025C38.8471 46.9535 43.5102 51.2332 44.1193 56.718H41.6589C41.0647 52.583 37.4993 49.3946 33.2025 49.3946ZM33.2025 44.5124H20.997V42.0713H33.2025C41.5411 42.0713 48.3979 48.5368 49.0232 56.718H46.5725C45.9537 49.8847 40.1942 44.5124 33.2025 44.5124ZM48.9448 48.5774C49.3381 48.3166 49.802 48.1741 50.2902 48.1741H57.6135V50.6152H52.7313C51.8515 50.6152 51.0045 50.8517 50.2679 51.2825C49.9034 50.3471 49.4614 49.4428 48.9448 48.5774ZM49.0697 37.1891C51.0888 37.1891 52.7313 38.8316 52.7313 40.8507H49.0697C47.1059 40.8507 45.318 41.7714 44.1857 43.2875C41.0342 40.9146 37.2172 39.6302 33.2025 39.6302H20.997V37.1891H49.0697ZM20.997 51.8357H33.2025C36.1497 51.8357 38.6155 53.9358 39.1824 56.718H20.997V51.8357ZM51.4698 56.718C51.4038 55.7095 51.2564 54.7171 51.0306 53.748C51.4824 53.3089 52.0895 53.0563 52.7313 53.0563H57.6135V56.718H51.4698Z" fill="white"/>
</g>
</g>
<defs>
<clipPath id="clip0_956_213502">
<rect width="77" height="76" fill="white" transform="translate(0.5 0.300049)"/>
</clipPath>
</defs>
</svg>
