<svg width="22" height="21" viewBox="0 0 22 21" fill="none" xmlns="http://www.w3.org/2000/svg">
<path d="M9.43057 1.59937C9.4024 1.60262 9.3711 1.60588 9.34293 1.61239H4.67298C3.79658 1.61239 3.07042 2.3676 3.07042 3.27905V8.91707C1.60871 10.141 0.66658 12.016 0.66658 14.1123C0.66345 14.3467 0.757349 14.5713 0.920109 14.7341C1.086 14.8936 1.30823 14.9717 1.53359 14.9554C1.92797 17.7679 4.26295 19.9457 7.07681 19.9457C9.89068 19.9457 12.2256 17.7679 12.62 14.9554C12.6857 14.9587 12.7483 14.9554 12.8109 14.9457H15.5372C15.2617 15.4372 15.0896 16.0036 15.0896 16.6123C15.0896 18.445 16.5325 19.9457 18.2947 19.9457C20.0569 19.9457 21.4998 18.445 21.4998 16.6123C21.4998 15.5153 20.974 14.542 20.1789 13.9333L21.4654 9.35327L21.4685 9.33374C21.4716 9.32723 21.4748 9.32072 21.4748 9.31095C21.4904 9.24585 21.4998 9.18075 21.4998 9.11239C21.4998 8.6534 21.1398 8.27905 20.6985 8.27905H16.6921V4.11239H17.4934V2.44572H15.8908C15.4495 2.44572 15.0896 2.82007 15.0896 3.27905V8.27905H11.7092L10.5072 3.27905H11.0832C11.3711 3.28231 11.6403 3.12606 11.7874 2.86564C11.9314 2.60523 11.9314 2.28622 11.7874 2.0258C11.6403 1.76538 11.3711 1.60913 11.0832 1.61239H9.60585C9.57455 1.60588 9.54325 1.60262 9.50882 1.59937C9.48378 1.59937 9.45561 1.59937 9.43057 1.59937ZM4.67298 3.27905H8.85465L10.0409 8.21069C9.152 7.72567 8.14414 7.44572 7.07681 7.44572C6.22858 7.44572 5.41479 7.6215 4.67298 7.93726V3.27905ZM7.07681 9.94572C9.29911 9.94572 11.0832 11.8011 11.0832 14.1123C11.0832 16.4235 9.29911 18.279 7.07681 18.279C4.85452 18.279 3.07042 16.4235 3.07042 14.1123C3.07042 11.8011 4.85452 9.94572 7.07681 9.94572ZM7.07681 12.4457C6.19102 12.4457 5.47426 13.1911 5.47426 14.1123C5.47426 15.0336 6.19102 15.779 7.07681 15.779C7.9626 15.779 8.67937 15.0336 8.67937 14.1123C8.67937 13.1911 7.9626 12.4457 7.07681 12.4457ZM18.2947 14.9457C19.1899 14.9457 19.8972 15.6813 19.8972 16.6123C19.8972 17.5433 19.1899 18.279 18.2947 18.279C17.3995 18.279 16.6921 17.5433 16.6921 16.6123C16.6921 15.6813 17.3995 14.9457 18.2947 14.9457Z" fill="#1E1F20"/>
</svg>
