<svg width="22" height="20" viewBox="0 0 22 20" fill="none" xmlns="http://www.w3.org/2000/svg">
<path d="M9.43063 0.799316C9.40246 0.802571 9.37116 0.805827 9.34299 0.812337H4.67304C3.79664 0.812337 3.07048 1.56755 3.07048 2.479V8.11702C1.60877 9.34098 0.666641 11.216 0.666641 13.3123C0.663511 13.5467 0.75741 13.7713 0.92017 13.9341C1.08606 14.0936 1.30829 14.1717 1.53365 14.1554C1.92803 16.9679 4.26301 19.1457 7.07687 19.1457C9.89074 19.1457 12.2257 16.9679 12.6201 14.1554C12.6858 14.1587 12.7484 14.1554 12.811 14.1457H15.5373C15.2618 14.6372 15.0897 15.2036 15.0897 15.8123C15.0897 17.645 16.5326 19.1457 18.2948 19.1457C20.057 19.1457 21.4999 17.645 21.4999 15.8123C21.4999 14.7153 20.9741 13.742 20.179 13.1333L21.4655 8.55322L21.4686 8.53369C21.4717 8.52718 21.4749 8.52067 21.4749 8.5109C21.4905 8.4458 21.4999 8.3807 21.4999 8.31234C21.4999 7.85335 21.1399 7.479 20.6986 7.479H16.6922V3.31234H17.4935V1.64567H15.8909C15.4496 1.64567 15.0897 2.02002 15.0897 2.479V7.479H11.7093L10.5073 2.479H11.0833C11.3712 2.48226 11.6404 2.32601 11.7875 2.06559C11.9315 1.80518 11.9315 1.48617 11.7875 1.22575C11.6404 0.965332 11.3712 0.809082 11.0833 0.812337H9.60591C9.57461 0.805827 9.54331 0.802571 9.50888 0.799316C9.48384 0.799316 9.45567 0.799316 9.43063 0.799316ZM4.67304 2.479H8.85471L10.041 7.41064C9.15206 6.92562 8.1442 6.64567 7.07687 6.64567C6.22864 6.64567 5.41485 6.82145 4.67304 7.13721V2.479ZM7.07687 9.14567C9.29917 9.14567 11.0833 11.0011 11.0833 13.3123C11.0833 15.6235 9.29917 17.479 7.07687 17.479C4.85458 17.479 3.07048 15.6235 3.07048 13.3123C3.07048 11.0011 4.85458 9.14567 7.07687 9.14567ZM7.07687 11.6457C6.19108 11.6457 5.47432 12.3911 5.47432 13.3123C5.47432 14.2336 6.19108 14.979 7.07687 14.979C7.96266 14.979 8.67943 14.2336 8.67943 13.3123C8.67943 12.3911 7.96266 11.6457 7.07687 11.6457ZM18.2948 14.1457C19.19 14.1457 19.8973 14.8813 19.8973 15.8123C19.8973 16.7433 19.19 17.479 18.2948 17.479C17.3996 17.479 16.6922 16.7433 16.6922 15.8123C16.6922 14.8813 17.3996 14.1457 18.2948 14.1457Z" fill="white"/>
</svg>
