<svg width="16" height="16" viewBox="0 0 16 16" fill="none" xmlns="http://www.w3.org/2000/svg">
<path d="M9.18253 7.40803H5.63707M6.81889 9.77166H5.63707M10.3643 5.04439H5.63707M12.728 4.92621V11.0717C12.728 12.0645 12.728 12.5609 12.5348 12.9401C12.3648 13.2737 12.0936 13.5449 11.7601 13.7148C11.3808 13.908 10.8844 13.908 9.89162 13.908H6.1098C5.11698 13.908 4.62057 13.908 4.24136 13.7148C3.9078 13.5449 3.63661 13.2737 3.46665 12.9401C3.27344 12.5609 3.27344 12.0645 3.27344 11.0717V4.92621C3.27344 3.93339 3.27344 3.43698 3.46665 3.05777C3.63661 2.72421 3.9078 2.45302 4.24136 2.28306C4.62057 2.08984 5.11698 2.08984 6.1098 2.08984H9.89162C10.8844 2.08984 11.3808 2.08984 11.7601 2.28306C12.0936 2.45302 12.3648 2.72421 12.5348 3.05777C12.728 3.43698 12.728 3.93339 12.728 4.92621Z" stroke="#15B088" stroke-width="1.18182" stroke-linecap="round" stroke-linejoin="round"/>
</svg>
