<svg width="18" height="18" viewBox="0 0 18 18" fill="none" xmlns="http://www.w3.org/2000/svg">
<path d="M10.4544 8.27202H6.09073M7.54528 11.1811H6.09073M11.9089 5.36293H6.09073M14.818 5.21747V12.7811C14.818 14.003 14.818 14.614 14.5802 15.0807C14.371 15.4913 14.0372 15.825 13.6267 16.0342C13.16 16.272 12.549 16.272 11.3271 16.272H6.67255C5.45062 16.272 4.83965 16.272 4.37293 16.0342C3.9624 15.825 3.62862 15.4913 3.41944 15.0807C3.18164 14.614 3.18164 14.003 3.18164 12.7811V5.21747C3.18164 3.99554 3.18164 3.38457 3.41944 2.91786C3.62862 2.50732 3.9624 2.17354 4.37293 1.96437C4.83965 1.72656 5.45062 1.72656 6.67255 1.72656H11.3271C12.549 1.72656 13.16 1.72656 13.6267 1.96437C14.0372 2.17354 14.371 2.50732 14.5802 2.91786C14.818 3.38457 14.818 3.99554 14.818 5.21747Z" stroke="#036666" stroke-width="1.45455" stroke-linecap="round" stroke-linejoin="round"/>
</svg>
