<svg width="24" height="24" viewBox="0 0 24 24" fill="none" xmlns="http://www.w3.org/2000/svg">
<g clip-path="url(#clip0_450_125048)">
<path d="M8.88461 -0.0288467C6.72115 -0.0288467 5.98196 5.54567 4.0673 7.875C4.06009 7.88582 4.04567 7.89303 4.03845 7.90385C1.57932 8.93149 0.0288391 10.4207 0.0288391 12.0865C0.0288391 13.9038 1.86778 15.5337 4.73076 16.5577C5.37259 18.1587 6.15144 19.8425 7.21153 21.2308C8.39422 22.7776 9.98797 24 12 24C14.012 24 15.6058 22.7776 16.7885 21.2308C17.8486 19.8425 18.6274 18.1587 19.2692 16.5577C22.1322 15.5337 23.9711 13.9038 23.9711 12.0865C23.9711 10.4207 22.4207 8.93149 19.9615 7.90385C18.1911 5.70072 17.2788 -0.0288467 15.1154 -0.0288467C13.8786 -0.0288467 13.3017 1.38461 12 1.38461C10.6983 1.38461 10.1214 -0.0288467 8.88461 -0.0288467ZM12 10.1538C15.0901 10.1538 16.6947 10.619 17.5385 11.0769V13.2981L18.5769 13.1538C18.5769 13.1538 18.8618 13.1358 19.0673 13.2115C19.2728 13.2873 19.3846 13.2332 19.3846 13.8462C19.3846 14.3293 19.0204 14.6935 18.5481 14.7404L18 14.7981L17.7981 15.3462C17.149 17.03 16.3089 18.8077 15.3173 20.1058C14.3257 21.4038 13.2656 22.1538 12 22.1538C10.7344 22.1538 9.67427 21.4038 8.68268 20.1058C7.6911 18.8077 6.85095 17.0264 6.20192 15.3462L5.99999 14.7981L5.45192 14.7692C4.97956 14.7224 4.61538 14.3329 4.61538 13.8462C4.61538 13.2764 4.71273 13.3269 4.93269 13.2404C5.15264 13.1538 5.45192 13.1538 5.45192 13.1538L6.46153 13.2692V11.0769C7.30168 10.619 8.90985 10.1538 12 10.1538Z" fill="#FF9400"/>
</g>
<defs>
<clipPath id="clip0_450_125048">
<rect width="24" height="24" fill="white"/>
</clipPath>
</defs>
</svg>
