<svg width="15" height="14" viewBox="0 0 15 14" fill="none" xmlns="http://www.w3.org/2000/svg">
<path d="M12.3167 0.133362C12.3167 0.133362 11.4667 1.2667 11.4667 2.1167C11.4667 2.58597 11.8474 2.9667 12.3167 2.9667C12.7859 2.9667 13.1667 2.58597 13.1667 2.1167C13.1667 1.2667 12.3167 0.133362 12.3167 0.133362ZM2.68335 0.700028C2.68335 0.700028 1.83335 1.83336 1.83335 2.68336C1.83335 3.15263 2.21407 3.53336 2.68335 3.53336C3.15262 3.53336 3.53335 3.15263 3.53335 2.68336C3.53335 1.83336 2.68335 0.700028 2.68335 0.700028ZM8.35001 0.700028C8.35001 0.700028 7.50001 1.83336 7.50001 2.68336C7.50001 3.15263 7.88074 3.53336 8.35001 3.53336C8.81928 3.53336 9.20001 3.15263 9.20001 2.68336C9.20001 1.83336 8.35001 0.700028 8.35001 0.700028ZM5.51668 1.83336C5.51668 1.83336 4.66668 2.9667 4.66668 3.8167C4.66668 4.28597 5.04741 4.6667 5.51668 4.6667C5.98595 4.6667 6.36668 4.28597 6.36668 3.8167C6.36668 2.9667 5.51668 1.83336 5.51668 1.83336ZM12.0333 4.6667C9.76668 4.6667 7.50001 5.80003 7.50001 8.63336C7.50001 9.28193 7.59519 9.78662 7.76785 10.1828C7.65275 10.4529 7.55092 10.7185 7.45795 10.9819C7.24767 10.5326 6.9909 10.1142 6.69207 9.72464C6.58361 9.58297 6.4685 9.44352 6.35118 9.30849C6.36004 9.23987 6.36668 9.16904 6.36668 9.10485C6.36668 6.74521 4.47853 5.80003 2.58816 5.80003H0.700012V7.2167C0.700012 10.05 2.58816 11.4667 4.00483 11.4667C4.29038 11.4667 4.54051 11.418 4.77072 11.3494C4.38335 10.7805 3.72592 9.93935 2.80952 9.1956C2.56603 8.9986 2.5284 8.64222 2.7254 8.40094C2.92241 8.15745 3.27879 8.11761 3.52228 8.31461C4.33022 8.97203 5.14702 9.7512 5.56759 10.1563C5.64064 10.2426 5.72475 10.3267 5.79116 10.413C6.51277 11.3538 6.93556 12.3897 6.93335 13.7311C6.93335 13.7356 6.93335 13.7378 6.93335 13.74L7.50001 13.7334H8.06668C8.06668 13.7311 8.06668 13.7289 8.06668 13.7267C8.05782 12.8834 8.36772 11.4755 9.06941 10.0722C9.24207 9.72906 9.43686 9.38375 9.656 9.04508C10.0544 8.4762 10.4772 7.90068 10.869 7.50667C11.0904 7.28532 11.449 7.28531 11.6703 7.50446C11.8917 7.72581 11.8939 8.0844 11.6725 8.30576C10.7362 9.24873 10.0788 10.2869 9.67592 11.4313C9.884 11.4556 10.1031 11.4667 10.3333 11.4667C12.0333 11.4667 14.3 9.7667 14.3 6.36669V4.6667H12.0333Z" fill="#AB6AC2"/>
</svg>
