<svg width="48" height="48" viewBox="0 0 48 48" fill="none" xmlns="http://www.w3.org/2000/svg">
<rect width="48" height="48" rx="10" fill="#036666"/>
<path d="M19 31.5H21.5M26.5 31.5H29M28.5833 19.4167V26.0833M16.5 19.1667L16.5 26.3333C16.5 27.2668 16.5 27.7335 16.6817 28.09C16.8414 28.4036 17.0964 28.6586 17.41 28.8183C17.7665 29 18.2332 29 19.1667 29L28.8333 29C29.7668 29 30.2335 29 30.59 28.8183C30.9036 28.6586 31.1586 28.4036 31.3183 28.09C31.5 27.7335 31.5 27.2668 31.5 26.3333V19.1667C31.5 18.2332 31.5 17.7665 31.3183 17.41C31.1586 17.0964 30.9036 16.8414 30.59 16.6817C30.2335 16.5 29.7668 16.5 28.8333 16.5L19.1667 16.5C18.2332 16.5 17.7665 16.5 17.41 16.6817C17.0964 16.8414 16.8414 17.0964 16.6817 17.41C16.5 17.7665 16.5 18.2332 16.5 19.1667ZM23.5833 22.75C23.5833 23.9006 22.6506 24.8333 21.5 24.8333C20.3494 24.8333 19.4167 23.9006 19.4167 22.75C19.4167 21.5994 20.3494 20.6667 21.5 20.6667C22.6506 20.6667 23.5833 21.5994 23.5833 22.75Z" stroke="white" stroke-width="1.3" stroke-linecap="round" stroke-linejoin="round"/>
</svg>
