<svg width="22" height="18" viewBox="0 0 22 18" fill="none" xmlns="http://www.w3.org/2000/svg">
<path d="M9.35001 0.189103C9.32067 0.191138 9.29146 0.194789 9.26251 0.200041H4.60001C3.72556 0.200041 3.00001 0.92559 3.00001 1.80004V7.2141C1.53954 8.38877 0.600013 10.1872 0.600013 12.2C0.59856 12.3115 0.620417 12.422 0.664182 12.5246C0.707946 12.6271 0.772653 12.7193 0.854153 12.7954C0.935653 12.8715 1.03215 12.9297 1.13745 12.9662C1.24275 13.0028 1.35454 13.017 1.46564 13.0079C1.86037 15.71 4.19168 17.8 7.00001 17.8C9.80835 17.8 12.1397 15.71 12.5344 13.0079C12.5985 13.013 12.6631 13.0104 12.7266 13H15.4485C15.1709 13.4733 15 14.0155 15 14.6C15 16.3579 16.4422 17.8 18.2 17.8C19.9578 17.8 21.4 16.3579 21.4 14.6C21.4 13.5469 20.8758 12.614 20.0828 12.0297L21.3656 7.63129L21.3703 7.6141C21.3725 7.60632 21.3746 7.59851 21.3766 7.59067C21.392 7.5283 21.3999 7.46429 21.4 7.40004C21.4 7.18787 21.3157 6.98438 21.1657 6.83436C21.0157 6.68433 20.8122 6.60004 20.6 6.60004H16.6V2.60004H17.4V1.00004H15.8C15.5878 1.00006 15.3844 1.08435 15.2344 1.23438C15.0843 1.3844 15 1.58787 15 1.80004V6.60004H11.625L10.425 1.80004H11C11.106 1.80154 11.2113 1.78195 11.3096 1.74242C11.408 1.70289 11.4976 1.6442 11.5731 1.56977C11.6486 1.49533 11.7085 1.40663 11.7494 1.30883C11.7903 1.21102 11.8114 1.10606 11.8114 1.00004C11.8114 0.89402 11.7903 0.789058 11.7494 0.691252C11.7085 0.593446 11.6486 0.504748 11.5731 0.430312C11.4976 0.355877 11.408 0.297188 11.3096 0.257657C11.2113 0.218126 11.106 0.198541 11 0.200041H9.52658C9.49454 0.194429 9.46218 0.190776 9.4297 0.189103C9.40315 0.187779 9.37656 0.187779 9.35001 0.189103ZM4.60001 1.80004H8.77501L9.95782 6.53285C9.07187 6.06805 8.06667 5.80004 7.00001 5.80004C6.15162 5.80004 5.34206 5.9699 4.60001 6.27192V1.80004ZM7.00001 8.20004C9.21863 8.20004 11 9.98143 11 12.2C11 14.4187 9.21863 16.2 7.00001 16.2C4.7814 16.2 3.00001 14.4187 3.00001 12.2C3.00001 9.98143 4.7814 8.20004 7.00001 8.20004ZM7.00001 10.6C6.57567 10.6 6.1687 10.7686 5.86864 11.0687C5.56858 11.3687 5.40001 11.7757 5.40001 12.2C5.40001 12.6244 5.56858 13.0314 5.86864 13.3314C6.1687 13.6315 6.57567 13.8 7.00001 13.8C7.42436 13.8 7.83133 13.6315 8.13138 13.3314C8.43144 13.0314 8.60001 12.6244 8.60001 12.2C8.60001 11.7757 8.43144 11.3687 8.13138 11.0687C7.83133 10.7686 7.42436 10.6 7.00001 10.6ZM18.2 13C19.0931 13 19.8 13.7069 19.8 14.6C19.8 15.4932 19.0931 16.2 18.2 16.2C17.3069 16.2 16.6 15.4932 16.6 14.6C16.6 13.7069 17.3069 13 18.2 13Z" fill="#1F2937"/>
</svg>
