<svg width="20" height="22" viewBox="0 0 20 22" fill="none" xmlns="http://www.w3.org/2000/svg">
<path d="M5.99999 0.909424C5.89759 0.909424 5.79518 0.947049 5.71718 1.02505L4.34374 2.40005H2.39999C2.17919 2.40005 1.99999 2.57925 1.99999 2.80005V4.7438L0.624994 6.11724C0.468994 6.27324 0.468994 6.52686 0.624994 6.68286L1.99999 8.0563V8.28442C2.36719 8.19962 2.78824 8.11149 3.25624 8.02349C2.97304 7.54669 2.79999 6.99525 2.79999 6.40005C2.79999 4.63285 4.23279 3.20005 5.99999 3.20005C7.76719 3.20005 9.19999 4.63285 9.19999 6.40005C9.19999 6.72645 9.13727 7.0345 9.04687 7.3313C9.61087 7.2961 10.1957 7.2654 10.8141 7.2438L11.375 6.68286C11.531 6.52686 11.531 6.27324 11.375 6.11724L9.99999 4.7438V2.80005C9.99999 2.57925 9.82079 2.40005 9.59999 2.40005H7.65624L6.28281 1.02505C6.20481 0.947049 6.10239 0.909424 5.99999 0.909424ZM11.9281 8.81411C5.80092 8.92531 2.24741 9.81655 0.957806 10.2125C0.621806 10.3157 0.399994 10.6238 0.399994 10.975V14.6469C0.399994 15.3013 1.14391 15.681 1.67031 15.2938C4.26551 13.3842 7.86652 10.9477 11.9281 8.81411ZM17.8859 8.90005C12.5427 12.6656 9.34888 17.5986 7.82968 20.4282C7.54488 20.9594 7.93586 21.6 8.53906 21.6H13.3797C13.7797 21.6 14.1151 21.3054 14.1719 20.9094C14.5143 18.4982 15.4723 13.448 17.8859 8.90005ZM14.9937 9.08755C8.94654 11.9507 3.56632 15.8254 0.703119 18.0454C0.507919 18.1966 0.399994 18.4263 0.399994 18.6735V20.8C0.399994 21.2416 0.758394 21.6 1.19999 21.6H4.94999C5.26279 21.6 5.54379 21.4207 5.67499 21.1375C6.68139 18.9623 9.54494 13.5875 14.9937 9.08755ZM19.6 9.1063C17.2568 13.2735 16.2344 18.1245 15.8312 20.6797C15.7544 21.1653 16.1314 21.6 16.6234 21.6H18.8C19.2416 21.6 19.6 21.2416 19.6 20.8V9.1063Z" fill="#1F2937"/>
</svg>
