<svg width="24" height="24" viewBox="0 0 24 24" fill="none" xmlns="http://www.w3.org/2000/svg">
<g clip-path="url(#clip0_1620_299517)">
<path d="M22.7812 22.5468H15.183C16.0251 22.2933 16.8364 21.9393 17.5975 21.4894C19.2372 20.5201 20.6058 19.1353 21.5553 17.4845C21.6081 17.3927 21.5928 17.2768 21.5178 17.202C21.4429 17.1271 21.327 17.1116 21.2353 17.1645C19.6453 18.0791 17.8296 18.5625 15.9844 18.5625C10.1688 18.5625 5.4375 13.8311 5.4375 8.01559C5.4375 6.1704 5.92092 4.3547 6.83541 2.7647C6.88823 2.67287 6.87291 2.55699 6.798 2.48209C6.72305 2.40718 6.60722 2.39185 6.51539 2.44468C4.86464 3.39418 3.47981 4.76274 2.51058 6.40243C1.51214 8.09153 0.984375 10.0271 0.984375 12C0.984375 14.9424 2.13019 17.7086 4.21078 19.7892C5.51423 21.0926 7.0868 22.029 8.80313 22.5468H1.21875C1.08933 22.5468 0.984375 22.6517 0.984375 22.7812C0.984375 22.9107 1.08933 23.0156 1.21875 23.0156H12H22.7812C22.9107 23.0156 23.0156 22.9107 23.0156 22.7812C23.0156 22.6517 22.9107 22.5468 22.7812 22.5468Z" fill="#1F2937"/>
<path d="M10.3594 6.60938H12.606L10.1937 9.02175C10.1266 9.08878 10.1066 9.18961 10.1429 9.27717C10.1791 9.36473 10.2646 9.42183 10.3594 9.42183H13.4063C13.5358 9.42183 13.6407 9.31687 13.6407 9.18745C13.6407 9.05803 13.5358 8.95308 13.4063 8.95308H10.9253L13.3376 6.5407C13.4047 6.47367 13.4247 6.37284 13.3884 6.28528C13.3522 6.19772 13.2667 6.14062 13.1719 6.14062H10.3594C10.23 6.14062 10.125 6.24558 10.125 6.375C10.125 6.50442 10.23 6.60938 10.3594 6.60938Z" fill="#1F2937"/>
<path d="M16.2188 9.89062H17.5279L16.053 11.3655C15.986 11.4325 15.966 11.5334 16.0022 11.6209C16.0385 11.7085 16.124 11.7656 16.2188 11.7656H18.25C18.3795 11.7656 18.4844 11.6606 18.4844 11.5312C18.4844 11.4018 18.3795 11.2968 18.25 11.2968H16.7846L18.2595 9.82195C18.3265 9.75492 18.3465 9.65409 18.3103 9.56653C18.274 9.47897 18.1885 9.42188 18.0938 9.42188H16.2188C16.0893 9.42188 15.9844 9.52683 15.9844 9.65625C15.9844 9.78567 16.0893 9.89062 16.2188 9.89062Z" fill="#1F2937"/>
<path d="M16.4531 1.45312H18.6998L16.2874 3.8655C16.2203 3.93253 16.2003 4.03336 16.2366 4.12092C16.2728 4.20853 16.3583 4.26562 16.4531 4.26562H19.5C19.6295 4.26562 19.7344 4.16067 19.7344 4.03125C19.7344 3.90183 19.6295 3.79688 19.5 3.79688H17.019L19.4313 1.3845C19.4984 1.31747 19.5184 1.21664 19.4821 1.12908C19.4459 1.04147 19.3604 0.984375 19.2656 0.984375H16.4531C16.3237 0.984375 16.2188 1.08933 16.2188 1.21875C16.2188 1.34817 16.3237 1.45312 16.4531 1.45312Z" fill="#1F2937"/>
</g>
<defs>
<clipPath id="clip0_1620_299517">
<rect width="24" height="24" fill="white"/>
</clipPath>
</defs>
</svg>
