<svg width="24" height="24" viewBox="0 0 24 24" fill="none" xmlns="http://www.w3.org/2000/svg">
<path d="M8.88462 -0.0288086C6.72115 -0.0288086 5.98197 5.54571 4.06731 7.87504C4.0601 7.88585 4.04567 7.89307 4.03846 7.90388C1.57933 8.93153 0.0288467 10.4207 0.0288467 12.0866C0.0288467 13.9039 1.86779 15.5337 4.73077 16.5577C5.3726 18.1587 6.15144 19.8426 7.21154 21.2308C8.39423 22.7777 9.98798 24 12 24C14.012 24 15.6058 22.7777 16.7885 21.2308C17.8486 19.8426 18.6274 18.1587 19.2692 16.5577C22.1322 15.5337 23.9712 13.9039 23.9712 12.0866C23.9712 10.4207 22.4207 8.93153 19.9615 7.90388C18.1911 5.70076 17.2788 -0.0288086 15.1154 -0.0288086C13.8786 -0.0288086 13.3017 1.38465 12 1.38465C10.6983 1.38465 10.1214 -0.0288086 8.88462 -0.0288086ZM12 10.1539C15.0901 10.1539 16.6947 10.619 17.5385 11.077V13.2981L18.5769 13.1539C18.5769 13.1539 18.8618 13.1359 19.0673 13.2116C19.2728 13.2873 19.3846 13.2332 19.3846 13.8462C19.3846 14.3294 19.0204 14.6935 18.5481 14.7404L18 14.7981L17.7981 15.3462C17.149 17.0301 16.3089 18.8077 15.3173 20.1058C14.3257 21.4039 13.2656 22.1539 12 22.1539C10.7344 22.1539 9.67428 21.4039 8.68269 20.1058C7.69111 18.8077 6.85096 17.0265 6.20192 15.3462L6 14.7981L5.45192 14.7693C4.97957 14.7224 4.61539 14.333 4.61539 13.8462C4.61539 13.2765 4.71274 13.327 4.93269 13.2404C5.15264 13.1539 5.45192 13.1539 5.45192 13.1539L6.46154 13.2693V11.077C7.30168 10.619 8.90986 10.1539 12 10.1539Z" fill="#1F2937"/>
</svg>
