<svg width="11" height="11" viewBox="0 0 11 11" fill="none" xmlns="http://www.w3.org/2000/svg">
<path d="M5.5 0.5C2.7385 0.5 0.5 2.7385 0.5 5.5C0.5 8.2615 2.7385 10.5 5.5 10.5C8.2615 10.5 10.5 8.2615 10.5 5.5C10.5 2.7385 8.2615 0.5 5.5 0.5ZM6 7.699V8.5H5V7.7015C4.2645 7.5635 3.802 7.1115 3.775 6.451H4.641C4.6825 6.798 5.0325 7.0205 5.537 7.0205C6.0025 7.0205 6.332 6.795 6.332 6.4715C6.332 6.1985 6.1185 6.0415 5.5935 5.9285L5.036 5.81C4.256 5.647 3.873 5.2405 3.873 4.588C3.873 3.9315 4.3075 3.4635 5 3.3095V2.5H6V3.308C6.675 3.459 7.126 3.919 7.148 4.5405H6.3055C6.264 4.2025 5.9495 3.977 5.5165 3.977C5.0685 3.977 4.772 4.1845 4.772 4.511C4.772 4.775 4.9765 4.9265 5.478 5.033L5.994 5.143C6.8545 5.324 7.225 5.695 7.225 6.359C7.225 7.074 6.766 7.5535 6 7.699Z" fill="#1F2937"/>
</svg>
