<svg width="234" height="51" viewBox="0 0 234 51" fill="none" xmlns="http://www.w3.org/2000/svg">
<rect width="234" height="50.6225" transform="translate(0 0.245117)" fill="#FFAF1D"/>
<path d="M106.849 29.1187C106.001 29.1187 105.328 28.8846 104.838 28.4091C104.34 27.9337 104.092 27.2607 104.092 26.383V24.7372C104.092 23.8594 104.34 23.1791 104.838 22.711C105.335 22.2355 106.001 22.0015 106.849 22.0015C107.691 22.0015 108.342 22.2282 108.802 22.689C109.263 23.1499 109.49 23.7789 109.49 24.5836V24.6421H108.217V24.547C108.217 24.1447 108.108 23.8082 107.881 23.5522C107.654 23.2889 107.31 23.1645 106.849 23.1645C106.396 23.1645 106.038 23.3035 105.774 23.5814C105.511 23.8594 105.387 24.2398 105.387 24.7225V26.4049C105.387 26.8804 105.518 27.2607 105.774 27.546C106.038 27.8313 106.396 27.9703 106.849 27.9703C107.31 27.9703 107.654 27.8386 107.881 27.5753C108.108 27.3119 108.217 26.9828 108.217 26.5805V26.4049H109.49V26.5439C109.49 27.3485 109.263 27.9776 108.802 28.4384C108.342 28.8846 107.691 29.1187 106.849 29.1187Z" fill="white"/>
<path d="M110.001 28.9799L111.8 22.1333H114.046L115.845 28.9799H114.514L114.141 27.473H111.698L111.325 28.9799H110.001ZM112.005 26.2807H113.841L113.007 22.9452H112.832L112.005 26.2807Z" fill="white"/>
<path d="M116.665 28.9799V22.1333H119.057L120.242 28.0948H120.417L121.602 22.1333H123.994V28.9799H122.744V23.0842H122.568L121.398 28.9799H119.269L118.099 23.0842H117.923V28.9799H116.665Z" fill="white"/>
<path d="M125.292 28.9799V22.1333H129.688V23.3037H126.579V24.9348H129.417V26.1052H126.579V27.7949H129.747V28.9652H125.292V28.9799Z" fill="white"/>
<path d="M130.71 28.9799V22.1333H131.997V27.8022H135.128V28.9725H130.71V28.9799Z" fill="white"/>
<path d="M138.435 29.1187C137.572 29.1187 136.892 28.8846 136.38 28.4091C135.868 27.9337 135.619 27.2607 135.619 26.383V24.7372C135.619 23.8594 135.875 23.1791 136.38 22.711C136.892 22.2355 137.572 22.0015 138.435 22.0015C139.298 22.0015 139.979 22.2355 140.491 22.711C141.003 23.1864 141.251 23.8594 141.251 24.7372V26.383C141.251 27.2607 140.995 27.941 140.491 28.4091C139.979 28.8773 139.291 29.1187 138.435 29.1187ZM138.435 27.9629C138.918 27.9629 139.291 27.824 139.562 27.546C139.832 27.2681 139.964 26.8877 139.964 26.4195V24.6933C139.964 24.2251 139.832 23.8521 139.562 23.5668C139.291 23.2889 138.918 23.1499 138.435 23.1499C137.96 23.1499 137.587 23.2889 137.316 23.5668C137.046 23.8448 136.914 24.2251 136.914 24.6933V26.4122C136.914 26.8804 137.046 27.2534 137.316 27.5387C137.579 27.824 137.96 27.9629 138.435 27.9629Z" fill="white"/>
<path d="M143.696 28.9799V23.311H141.699V22.1406H146.98V23.311H144.984V28.9799H143.696Z" fill="white"/>
<path d="M95.5854 32.8711V26.8584C97.0191 27.012 97.9919 27.6704 97.9919 27.6704L98.9063 26.639C97.4067 25.571 95.1831 25.5271 95.1831 25.5271L94.8173 21.4894C95.0587 21.3285 95.2196 21.0579 95.2196 20.7433C95.2196 20.2532 94.8173 19.8509 94.3272 19.8509C93.8372 19.8509 93.4349 20.2532 93.4349 20.7433C93.4349 21.0579 93.5958 21.3358 93.8372 21.4894L93.4714 25.5271C93.4714 25.5271 91.2478 25.5637 89.7482 26.639L90.6626 27.6704C90.6626 27.6704 91.6354 27.012 93.0691 26.8584V32.8711C87.4661 28.7164 87.0052 22.6817 87.0199 20.6775C87.0199 20.2606 87.2686 19.8802 87.6489 19.712C88.7681 19.2146 91.3209 18.2417 94.3199 18.2417C97.319 18.2417 99.8718 19.2146 100.991 19.712C101.371 19.8802 101.62 20.2606 101.62 20.6775C101.635 22.6817 101.174 28.7164 95.5854 32.8711Z" fill="white"/>
</svg>
