<svg width="10" height="10" viewBox="0 0 10 10" fill="none" xmlns="http://www.w3.org/2000/svg">
<g clip-path="url(#clip0_461_49265)">
<path d="M7.57812 8.125V4.60938C7.57812 4.47656 7.47656 4.375 7.34375 4.375C7.21094 4.375 7.10938 4.47656 7.10938 4.60938V8.125C7.10938 8.42969 6.86719 8.67188 6.5625 8.67188H1.875C1.57031 8.67188 1.32812 8.42969 1.32812 8.125V3.4375C1.32812 3.13281 1.57031 2.89062 1.875 2.89062H5.39062C5.52344 2.89062 5.625 2.78906 5.625 2.65625C5.625 2.52344 5.52344 2.42188 5.39062 2.42188H1.875C1.3125 2.42188 0.859375 2.875 0.859375 3.4375V8.125C0.859375 8.6875 1.3125 9.14062 1.875 9.14062H6.5625C7.125 9.14062 7.57812 8.6875 7.57812 8.125Z" fill="#15202B"/>
<path d="M8.90625 3.67188C9.03906 3.67188 9.14062 3.57031 9.14062 3.4375V1.09375C9.14062 0.960938 9.03906 0.859375 8.90625 0.859375H6.5625C6.42969 0.859375 6.32812 0.960938 6.32812 1.09375C6.32812 1.22656 6.42969 1.32812 6.5625 1.32812H8.34375L4.71875 4.95312C4.625 5.04688 4.625 5.19531 4.71875 5.28125C4.76563 5.32812 4.82812 5.35156 4.88281 5.35156C4.9375 5.35156 5 5.32812 5.04687 5.28125L8.67188 1.65625V3.4375C8.67188 3.57031 8.77344 3.67188 8.90625 3.67188Z" fill="#15202B"/>
</g>
<defs>
<clipPath id="clip0_461_49265">
<rect width="10" height="10" fill="white"/>
</clipPath>
</defs>
</svg>
