<svg width="7" height="10" viewBox="0 0 7 10" fill="none" xmlns="http://www.w3.org/2000/svg">
<path d="M5.41673 0.882353C4.80746 0.882353 4.24467 0.992216 3.79172 1.17727V0H2.70838V1.17727C2.2554 0.992216 1.69261 0.882353 1.08338 0.882353V0.294118H0V1.76471C0 2.57559 1.21493 3.23529 2.70835 3.23529V4.11845C2.25537 3.93339 1.69257 3.82353 1.08334 3.82353H0V4.70588C0 5.51676 1.21493 6.17647 2.70835 6.17647V7.05963C2.25537 6.87457 1.69257 6.76471 1.08334 6.76471H0V7.64706C0 8.45794 1.21493 9.11765 2.70835 9.11765V10H3.79169V9.11765C5.28507 9.11765 6.5 8.45794 6.5 7.64706V6.76471H5.4167C4.80743 6.76471 4.24463 6.87457 3.79169 7.05963V6.17647C5.28507 6.17647 6.5 5.51676 6.5 4.70588V3.82353H5.4167C4.80743 3.82353 4.24463 3.93339 3.79169 4.11845V3.23529C5.28507 3.23529 6.5 2.57559 6.5 1.76471C6.5 1.55559 6.5 1.50947 6.5 0.294118H5.4167V0.882353H5.41673ZM1.08338 7.64706V7.35294C1.97941 7.35294 2.70838 7.74875 2.70838 8.23529V8.52941C1.81228 8.52941 1.08338 8.13361 1.08338 7.64706ZM5.41673 7.35294V7.64706C5.41673 8.13361 4.68775 8.52941 3.79172 8.52941V8.23529C3.79172 7.74875 4.52063 7.35294 5.41673 7.35294ZM1.08338 4.70588V4.41176C1.97941 4.41176 2.70838 4.80759 2.70838 5.29412V5.58824C1.81228 5.58824 1.08338 5.19243 1.08338 4.70588ZM5.41673 4.41176V4.70588C5.41673 5.19243 4.68775 5.58824 3.79172 5.58824V5.29412C3.79172 4.80759 4.52063 4.41176 5.41673 4.41176ZM1.08338 1.76471V1.47059C1.97941 1.47059 2.70838 1.86641 2.70838 2.35294V2.64706C1.81228 2.64706 1.08338 2.25124 1.08338 1.76471ZM5.41673 1.76471C5.41673 2.25124 4.68775 2.64706 3.79172 2.64706V2.35294C3.79172 1.86641 4.52063 1.47059 5.41673 1.47059V1.76471Z" fill="#1F2937"/>
</svg>
