<svg width="92" height="23" viewBox="0 0 92 23" fill="none" xmlns="http://www.w3.org/2000/svg">
<path d="M30.5799 17.0071C29.2978 17.0071 28.281 16.6534 27.5405 15.935C26.7889 15.2166 26.4131 14.1997 26.4131 12.8734V10.3866C26.4131 9.06029 26.7889 8.0324 27.5405 7.32503C28.292 6.60661 29.2978 6.25293 30.5799 6.25293C31.851 6.25293 32.8346 6.59556 33.531 7.29187C34.2273 7.98819 34.5699 8.93871 34.5699 10.1545V10.2429H32.6467V10.0992C32.6467 9.49134 32.481 8.98292 32.1383 8.59608C31.7957 8.19819 31.2762 8.01029 30.5799 8.01029C29.8947 8.01029 29.3531 8.22029 28.9552 8.64029C28.5573 9.06029 28.3694 9.63502 28.3694 10.3645V12.9066C28.3694 13.625 28.5683 14.1997 28.9552 14.6308C29.3531 15.0618 29.8947 15.2718 30.5799 15.2718C31.2762 15.2718 31.7957 15.0729 32.1383 14.675C32.481 14.2771 32.6467 13.7797 32.6467 13.1719V12.9066H34.5699V13.1166C34.5699 14.3324 34.2273 15.2829 33.531 15.9792C32.8346 16.6534 31.851 17.0071 30.5799 17.0071Z" fill="white"/>
<path d="M35.3418 16.7974L38.0607 6.45215H41.4539L44.1728 16.7974H42.1612L41.5976 14.5205H37.906L37.3423 16.7974H35.3418ZM38.3702 12.719H41.1444L39.8844 7.67899H39.6191L38.3702 12.719Z" fill="white"/>
<path d="M45.4111 16.7974V6.45215H49.0253L50.8159 15.46H51.0811L52.8716 6.45215H56.4858V16.7974H54.5958V7.88898H54.3306L52.5622 16.7974H49.3459L47.5774 7.88898H47.3122V16.7974H45.4111Z" fill="white"/>
<path d="M58.4473 16.7974V6.45215H65.0899V8.22056H60.3925V10.6853H64.6809V12.4537H60.3925V15.0069H65.1783V16.7753H58.4473V16.7974Z" fill="white"/>
<path d="M66.6328 16.7974V6.45215H68.5781V15.0179H73.3086V16.7863H66.6328V16.7974Z" fill="white"/>
<path d="M78.307 17.0071C77.0028 17.0071 75.9749 16.6534 75.2012 15.935C74.4275 15.2166 74.0518 14.1997 74.0518 12.8734V10.3866C74.0518 9.06029 74.4386 8.0324 75.2012 7.32503C75.9749 6.60661 77.0028 6.25293 78.307 6.25293C79.6112 6.25293 80.6391 6.60661 81.4128 7.32503C82.1865 8.04345 82.5623 9.06029 82.5623 10.3866V12.8734C82.5623 14.1997 82.1754 15.2276 81.4128 15.935C80.6391 16.6424 79.6002 17.0071 78.307 17.0071ZM78.307 15.2608C79.0365 15.2608 79.6002 15.0508 80.0091 14.6308C80.418 14.2108 80.617 13.6361 80.617 12.9287V10.3203C80.617 9.61292 80.418 9.04924 80.0091 8.61818C79.6002 8.19819 79.0365 7.98819 78.307 7.98819C77.5886 7.98819 77.0249 8.19819 76.616 8.61818C76.207 9.03818 76.0081 9.61292 76.0081 10.3203V12.9176C76.0081 13.625 76.207 14.1887 76.616 14.6197C77.0138 15.0508 77.5886 15.2608 78.307 15.2608Z" fill="white"/>
<path d="M86.2556 16.7971V8.23131H83.2383V6.46289H91.2183V8.23131H88.2009V16.7971H86.2556Z" fill="white"/>
<path d="M13.5593 22.6775V13.5922C15.7256 13.8243 17.1956 14.8191 17.1956 14.8191L18.5772 13.2606C16.3114 11.647 12.9514 11.5807 12.9514 11.5807L12.3988 5.47962C12.7635 5.23646 13.0067 4.82751 13.0067 4.35225C13.0067 3.61173 12.3988 3.00384 11.6582 3.00384C10.9177 3.00384 10.3098 3.61173 10.3098 4.35225C10.3098 4.82751 10.553 5.24751 10.9177 5.47962L10.3651 11.5807C10.3651 11.5807 7.0051 11.6359 4.73932 13.2606L6.12089 14.8191C6.12089 14.8191 7.59088 13.8243 9.75719 13.5922V22.6775C1.29091 16.3996 0.594593 7.28119 0.616698 4.25278C0.616698 3.62278 0.992486 3.04805 1.56722 2.79384C3.25827 2.04226 7.11562 0.572266 11.6472 0.572266C16.1788 0.572266 20.0361 2.04226 21.7272 2.79384C22.3019 3.04805 22.6777 3.62278 22.6777 4.25278C22.6998 7.28119 22.0035 16.3996 13.5593 22.6775Z" fill="white"/>
</svg>
