<svg width="61" height="15" viewBox="0 0 61 15" fill="none" xmlns="http://www.w3.org/2000/svg">
<path d="M20.3494 11.1187C19.5009 11.1187 18.828 10.8846 18.3379 10.4091C17.8405 9.93369 17.5918 9.26074 17.5918 8.38297V6.73716C17.5918 5.8594 17.8405 5.17913 18.3379 4.71099C18.8353 4.23554 19.5009 4.00146 20.3494 4.00146C21.1906 4.00146 21.8416 4.22822 22.3025 4.68905C22.7633 5.14987 22.9901 5.77894 22.9901 6.58356V6.64207H21.7173V6.54698C21.7173 6.14467 21.6076 5.8082 21.3808 5.55218C21.1541 5.28885 20.8103 5.1645 20.3494 5.1645C19.8959 5.1645 19.5375 5.30348 19.2742 5.58144C19.0108 5.8594 18.8865 6.23976 18.8865 6.72253V8.40492C18.8865 8.88037 19.0182 9.26074 19.2742 9.54601C19.5375 9.83128 19.8959 9.97026 20.3494 9.97026C20.8103 9.97026 21.1541 9.8386 21.3808 9.57527C21.6076 9.31194 21.7173 8.98278 21.7173 8.58047V8.40492H22.9901V8.5439C22.9901 9.34851 22.7633 9.97758 22.3025 10.4384C21.8416 10.8846 21.1906 11.1187 20.3494 11.1187Z" fill="white"/>
<path d="M23.501 10.9799L25.3004 4.1333H27.546L29.3454 10.9799H28.0141L27.6411 9.47303H25.198L24.8249 10.9799H23.501ZM25.5052 8.28074H27.3412L26.5073 4.94523H26.3318L25.5052 8.28074Z" fill="white"/>
<path d="M30.165 10.9799V4.1333H32.5569L33.7419 10.0948H33.9175L35.1025 4.1333H37.4944V10.9799H36.2436V5.08421H36.068L34.8977 10.9799H32.7691L31.5987 5.08421H31.4232V10.9799H30.165Z" fill="white"/>
<path d="M38.792 10.9799V4.1333H43.1881V5.30365H40.0794V6.93483H42.9175V8.10519H40.0794V9.79488H43.2466V10.9652H38.792V10.9799Z" fill="white"/>
<path d="M44.21 10.9799V4.1333H45.4974V9.8022H48.628V10.9725H44.21V10.9799Z" fill="white"/>
<path d="M51.9353 11.1187C51.0722 11.1187 50.3919 10.8846 49.8799 10.4091C49.3678 9.93369 49.1191 9.26074 49.1191 8.38297V6.73716C49.1191 5.8594 49.3752 5.17913 49.8799 4.71099C50.3919 4.23554 51.0722 4.00146 51.9353 4.00146C52.7984 4.00146 53.4787 4.23554 53.9907 4.71099C54.5028 5.18645 54.7515 5.8594 54.7515 6.73716V8.38297C54.7515 9.26074 54.4954 9.94101 53.9907 10.4091C53.4787 10.8773 52.7911 11.1187 51.9353 11.1187ZM51.9353 9.96295C52.4181 9.96295 52.7911 9.82397 53.0618 9.54601C53.3324 9.26805 53.4641 8.88769 53.4641 8.41955V6.69328C53.4641 6.22513 53.3324 5.85209 53.0618 5.56681C52.7911 5.28885 52.4181 5.14987 51.9353 5.14987C51.4598 5.14987 51.0868 5.28885 50.8161 5.56681C50.5455 5.84477 50.4138 6.22513 50.4138 6.69328V8.41223C50.4138 8.88037 50.5455 9.25342 50.8161 9.5387C51.0795 9.82397 51.4598 9.96295 51.9353 9.96295Z" fill="white"/>
<path d="M57.1961 10.9799V5.31098H55.1992V4.14062H60.4804V5.31098H58.4835V10.9799H57.1961Z" fill="white"/>
<path d="M9.08537 14.8711V8.85842C10.5191 9.01203 11.4919 9.67036 11.4919 9.67036L12.4063 8.63898C10.9067 7.57104 8.68307 7.52715 8.68307 7.52715L8.31733 3.48943C8.55872 3.32851 8.71964 3.05786 8.71964 2.74333C8.71964 2.25324 8.31733 1.85093 7.82725 1.85093C7.33716 1.85093 6.93485 2.25324 6.93485 2.74333C6.93485 3.05786 7.09577 3.33582 7.33716 3.48943L6.97142 7.52715C6.97142 7.52715 4.74775 7.56372 3.24824 8.63898L4.16258 9.67036C4.16258 9.67036 5.13543 9.01203 6.56912 8.85842V14.8711C0.966051 10.7164 0.505224 4.68173 0.519854 2.6775C0.519854 2.26056 0.768554 1.88019 1.14892 1.71196C2.26807 1.21456 4.8209 0.241699 7.81993 0.241699C10.819 0.241699 13.3718 1.21456 14.4909 1.71196C14.8713 1.88019 15.12 2.26056 15.12 2.6775C15.1346 4.68173 14.6738 10.7164 9.08537 14.8711Z" fill="white"/>
</svg>
