<svg width="24" height="25" viewBox="0 0 24 25" fill="none" xmlns="http://www.w3.org/2000/svg">
<path d="M13.0006 11.4994L3.50062 20.9994M14.019 4.03789C15.2371 4.84609 16.4078 5.79892 17.5018 6.89291C18.6052 7.99634 19.565 9.17782 20.3777 10.4072M9.25558 8.39556L6.38071 7.43727C6.04963 7.32691 5.68496 7.39714 5.41854 7.62257L2.56138 10.0402C1.97646 10.5351 2.14263 11.477 2.86162 11.7419L5.56881 12.7393M11.6817 18.8519L12.6791 21.5591C12.9439 22.2781 13.8858 22.4443 14.3808 21.8594L16.7984 19.0022C17.0238 18.7358 17.094 18.3711 16.9837 18.0401L16.0254 15.1652M19.3492 2.77015L14.4427 3.58789C13.9129 3.67619 13.427 3.9366 13.06 4.32884L6.44698 11.398C4.73282 13.2304 4.7805 16.0919 6.55475 17.8662C8.329 19.6404 11.1906 19.6881 13.023 17.974L20.0921 11.3609C20.4843 10.994 20.7447 10.508 20.833 9.9782L21.6508 5.07173C21.8764 3.71809 20.7028 2.54454 19.3492 2.77015Z" stroke="#1D2939" stroke-width="2" stroke-linecap="round" stroke-linejoin="round"/>
</svg>
