<svg width="21" height="17" viewBox="0 0 21 17" fill="none" xmlns="http://www.w3.org/2000/svg">
<path d="M19.0293 8.5L7.0293 8.5M19.0293 2.5L7.0293 2.5M19.0293 14.5L7.0293 14.5M3.0293 8.5C3.0293 9.05228 2.58158 9.5 2.0293 9.5C1.47701 9.5 1.0293 9.05228 1.0293 8.5C1.0293 7.94772 1.47701 7.5 2.0293 7.5C2.58158 7.5 3.0293 7.94772 3.0293 8.5ZM3.0293 2.5C3.0293 3.05228 2.58158 3.5 2.0293 3.5C1.47701 3.5 1.0293 3.05228 1.0293 2.5C1.0293 1.94772 1.47701 1.5 2.0293 1.5C2.58158 1.5 3.0293 1.94772 3.0293 2.5ZM3.0293 14.5C3.0293 15.0523 2.58158 15.5 2.0293 15.5C1.47701 15.5 1.0293 15.0523 1.0293 14.5C1.0293 13.9477 1.47701 13.5 2.0293 13.5C2.58158 13.5 3.0293 13.9477 3.0293 14.5Z" stroke="white" stroke-width="2" stroke-linecap="round" stroke-linejoin="round"/>
</svg>
