<svg width="49" height="49" viewBox="0 0 49 49" fill="none" xmlns="http://www.w3.org/2000/svg">
<rect x="0.194336" y="0.873413" width="48" height="48" rx="10" fill="#EE8A00"/>
<path d="M16.6943 34.8734V29.8734M16.6943 19.8734V14.8734M14.1943 17.3734H19.1943M14.1943 32.3734H19.1943M25.1943 15.8734L23.4602 20.3823C23.1781 21.1155 23.0371 21.4821 22.8179 21.7905C22.6235 22.0638 22.3847 22.3026 22.1114 22.4969C21.803 22.7162 21.4364 22.8572 20.7032 23.1392L16.1943 24.8734L20.7032 26.6076C21.4364 26.8896 21.803 27.0306 22.1114 27.2499C22.3847 27.4442 22.6235 27.683 22.8179 27.9563C23.0371 28.2647 23.1781 28.6313 23.4602 29.3646L25.1943 33.8734L26.9285 29.3645C27.2105 28.6313 27.3515 28.2647 27.5708 27.9563C27.7651 27.683 28.0039 27.4442 28.2773 27.2499C28.5856 27.0306 28.9522 26.8896 29.6855 26.6076L34.1943 24.8734L29.6855 23.1392C28.9522 22.8572 28.5856 22.7162 28.2773 22.4969C28.0039 22.3026 27.7651 22.0638 27.5708 21.7905C27.3515 21.4821 27.2105 21.1155 26.9285 20.3823L25.1943 15.8734Z" stroke="white" stroke-width="2" stroke-linecap="round" stroke-linejoin="round"/>
</svg>
