<svg width="19" height="19" viewBox="0 0 19 19" fill="none" xmlns="http://www.w3.org/2000/svg">
<path d="M10.6915 18.2598V10.755C12.481 10.9468 13.6953 11.7685 13.6953 11.7685L14.8365 10.4811C12.9649 9.14818 10.1894 9.0934 10.1894 9.0934L9.73289 4.05368C10.0342 3.85283 10.235 3.51502 10.235 3.12243C10.235 2.51073 9.73289 2.00858 9.12119 2.00858C8.50949 2.00858 8.00734 2.51073 8.00734 3.12243C8.00734 3.51502 8.2082 3.86196 8.50949 4.05368L8.05299 9.0934C8.05299 9.0934 5.27749 9.13905 3.40586 10.4811L4.5471 11.7685C4.5471 11.7685 5.76138 10.9468 7.55084 10.755V18.2598C0.557327 13.074 -0.0178576 5.54186 0.000402263 3.04026C0.000402263 2.51986 0.31082 2.0451 0.785575 1.83511C2.18245 1.21428 5.36879 0 9.11206 0C12.8553 0 16.0417 1.21428 17.4385 1.83511C17.9133 2.0451 18.2237 2.51986 18.2237 3.04026C18.242 5.54186 17.6668 13.074 10.6915 18.2598Z" fill="#1F2937"/>
</svg>
