<svg width="57" height="56" viewBox="0 0 57 56" fill="none" xmlns="http://www.w3.org/2000/svg">
<rect x="4.70459" y="4" width="48" height="48" rx="24" fill="#D1FADF"/>
<rect x="4.70459" y="4" width="48" height="48" rx="24" stroke="#ECFDF3" stroke-width="8"/>
<path d="M28.7046 30V26.5M28.7046 23H28.7146M26.6046 35.2L28.0646 37.1467C28.2817 37.4362 28.3903 37.5809 28.5234 37.6327C28.6399 37.678 28.7693 37.678 28.8858 37.6327C29.0189 37.5809 29.1275 37.4362 29.3446 37.1467L30.8046 35.2C31.0977 34.8091 31.2443 34.6137 31.4231 34.4645C31.6615 34.2656 31.9429 34.1248 32.2451 34.0535C32.4717 34 32.716 34 33.2046 34C34.6024 34 35.3013 34 35.8526 33.7716C36.5877 33.4672 37.1717 32.8831 37.4762 32.1481C37.7046 31.5967 37.7046 30.8978 37.7046 29.5V23.8C37.7046 22.1198 37.7046 21.2798 37.3776 20.638C37.09 20.0735 36.631 19.6146 36.0666 19.327C35.4248 19 34.5847 19 32.9046 19H24.5046C22.8244 19 21.9844 19 21.3426 19.327C20.7781 19.6146 20.3192 20.0735 20.0316 20.638C19.7046 21.2798 19.7046 22.1198 19.7046 23.8V29.5C19.7046 30.8978 19.7046 31.5967 19.933 32.1481C20.2374 32.8831 20.8215 33.4672 21.5565 33.7716C22.1079 34 22.8068 34 24.2046 34C24.6932 34 24.9375 34 25.1641 34.0535C25.4663 34.1248 25.7477 34.2656 25.9861 34.4645C26.1649 34.6137 26.3114 34.8091 26.6046 35.2Z" stroke="#358126" stroke-width="2" stroke-linecap="round" stroke-linejoin="round"/>
</svg>
