<svg width="22" height="22" viewBox="0 0 22 22" fill="none" xmlns="http://www.w3.org/2000/svg">
<path d="M9 0V2.97656L13 1.97656V0H9ZM13 4.03906L9 5.03906V6.97656L13 5.97656V4.03906ZM0 6V14.7695V20.8965L0.589844 21.1621C0.589844 21.1621 2.36509 22 4.33203 22C5.94314 22 7.1838 21.5179 7.66797 21.3145C8.15347 21.5184 9.39105 22 11 22C11.9835 22 12.9194 21.7896 13.6094 21.5801C14.0487 21.4467 14.1432 21.3938 14.332 21.3145C14.8162 21.5179 16.0569 22 17.668 22C19.6341 22 21.4102 21.1621 21.4102 21.1621L22 20.8965V14.7695V6H16V9C16 11.7668 13.7668 14 11 14C8.23316 14 6 11.7668 6 9V6H0ZM13 8.03906L9 9.03906V9.86719L11 12L13 9.86719V8.03906Z" fill="#1F2937"/>
</svg>
