<svg width="20" height="18" viewBox="0 0 20 18" fill="none" xmlns="http://www.w3.org/2000/svg">
<path d="M11 0.199951C6.99999 0.199951 2.19999 2.59995 2.19999 7.39995C2.19999 10.8622 4.68141 12.2287 6.07342 12.7296C3.30254 15.1862 0.806235 15.8234 0.806235 15.8234C0.600278 15.8748 0.423169 16.0059 0.313871 16.1878C0.204572 16.3698 0.172037 16.5877 0.223423 16.7937C0.274809 16.9997 0.405906 17.1768 0.587875 17.2861C0.769844 17.3954 0.987778 17.4279 1.19374 17.3765C1.19374 17.3765 4.1443 16.626 7.23749 13.8531C7.23836 13.8556 7.23817 13.8568 7.23905 13.8593C7.74945 13.4529 8.22876 13.0407 8.63436 12.6343L15.2344 6.03433C15.2344 6.03433 15.564 7.96558 13.964 9.56558L9.76405 13.7656C9.23925 14.2904 8.61704 14.8184 7.95623 15.3312C8.74983 16.5536 10.1536 17.8 12.6 17.8C17.4 17.8 19.8 14.3336 19.8 8.19995V0.199951H11Z" fill="#1F2937"/>
</svg>
