<svg width="20" height="20" viewBox="0 0 20 20" fill="none" xmlns="http://www.w3.org/2000/svg">
<path d="M19.75 10C19.75 15.3846 15.3846 19.75 10 19.75C4.61538 19.75 0.25 15.3846 0.25 10C0.25 4.61538 4.61538 0.25 10 0.25C15.3846 0.25 19.75 4.61538 19.75 10ZM13.0997 12.1248C13.0997 10.6184 11.9834 9.79825 10.3566 8.92413C9.33475 8.37288 8.72913 8.077 8.72913 7.49875C8.72913 7.08175 9.26725 6.81287 10.0469 6.81287C10.9615 6.81287 11.5664 7.02812 12.1986 7.55237L12.6962 5.7775C12.1292 5.34963 11.4415 5.137 10.6698 5.06687V4H9.31637V5.10775C8.04737 5.34325 7.021 6.18738 7.021 7.56588C7.021 9.44875 8.74225 9.973 9.83125 10.5917C10.7054 11.089 11.2975 11.3853 11.2975 12.0306C11.2975 12.7566 10.8535 13.2272 9.88525 13.2272C9.03813 13.2272 8.23113 12.8643 7.57263 12.3666L6.89987 14.0477C7.55837 14.5386 8.4655 14.8409 9.31637 14.9309V16H10.6698V14.9005C12.1803 14.6733 13.0997 13.7856 13.0997 12.1248Z" fill="#1F2937"/>
</svg>
