<svg width="80" height="80" viewBox="0 0 80 80" fill="none" xmlns="http://www.w3.org/2000/svg">
<rect width="80" height="80" rx="40" fill="#27AE60"/>
<g clip-path="url(#clip0_557_82033)">
<path d="M39.9992 33.5229C44.2681 33.5229 47.7411 30.0499 47.7411 25.781C47.3519 15.5245 32.6449 15.5271 32.2573 25.7811C32.2573 30.0499 35.7303 33.5229 39.9992 33.5229ZM39.9992 20.6197C42.8452 20.6197 45.1605 22.935 45.1605 25.781C44.901 32.6186 35.0964 32.6169 34.838 25.7809C34.838 22.935 37.1532 20.6197 39.9992 20.6197Z" fill="white"/>
<path d="M60.6451 42.5554H56.774C56.774 38.998 53.8799 36.1038 50.3224 36.1038H18.0645V61.9102H61.9354V42.5554H60.6451ZM59.3547 45.136V47.7167H51.6127C50.5604 47.7167 49.5622 48.0301 48.721 48.6014C48.2073 47.9554 47.6926 47.3861 47.1225 46.8251C47.8328 45.7785 49.0162 45.136 50.3224 45.136H54.1934H59.3547ZM33.5483 51.5876H20.6451V49.007H33.5483C39.5155 49.007 44.4452 53.5313 45.0891 59.3296H42.488C41.8599 54.9583 38.0907 51.5876 33.5483 51.5876ZM33.5483 46.4264H20.6451V43.8457H33.5483C42.3635 43.8457 49.6123 50.6808 50.2733 59.3296H47.6825C47.0284 52.1058 40.9396 46.4264 33.5483 46.4264ZM50.1904 50.7237C50.6062 50.448 51.0966 50.2973 51.6127 50.2973H59.3547V52.878H54.1934C53.2633 52.878 52.3678 53.128 51.5892 53.5834C51.2038 52.5945 50.7365 51.6386 50.1904 50.7237ZM50.3224 38.6844C52.4569 38.6844 54.1934 40.4208 54.1934 42.5554H50.3224C48.2465 42.5554 46.3563 43.5287 45.1592 45.1315C41.8276 42.6229 37.7924 41.2651 33.5483 41.2651H20.6451V38.6844H50.3224ZM20.6451 54.1683H33.5483C36.6639 54.1683 39.2706 56.3884 39.87 59.3296H20.6451V54.1683ZM52.8598 59.3296C52.79 58.2635 52.6341 57.2143 52.3954 56.1899C52.8731 55.7257 53.5148 55.4586 54.1934 55.4586H59.3547V59.3296H52.8598Z" fill="white"/>
</g>
<defs>
<clipPath id="clip0_557_82033">
<rect width="43.871" height="43.871" fill="white" transform="translate(18.0645 18.0645)"/>
</clipPath>
</defs>
</svg>
