<svg width="9" height="8" viewBox="0 0 9 8" fill="none" xmlns="http://www.w3.org/2000/svg">
<g clip-path="url(#clip0_590_77838)">
<path d="M6.5605 1.10575L5.475 1.5865C5.26908 1.67782 5.03749 1.66693 4.83903 1.55728L4.00824 1.09769C3.75225 0.956188 3.44892 0.969088 3.2035 1.13196L1.931 1.97655C1.75422 2.09407 1.54264 2.12873 1.34292 2.0733L0.584412 1.86347C0.3388 1.79553 0.101562 2.00074 0.101562 2.28052V4.70584C0.101562 4.3297 0.542354 4.18176 0.730797 4.4948L1.18488 5.24867C1.42795 5.65283 1.94466 5.70927 2.25454 5.36599L3.18947 4.33092C3.44237 4.05093 3.80942 3.93825 4.15627 4.0342L4.80954 4.21481C5.02784 4.27549 5.25943 4.23719 5.45243 4.10899L6.42613 3.46234C6.71981 3.26802 7.10156 3.49463 7.10156 3.87358L7.09305 1.50487C7.09305 1.2009 6.8154 0.992672 6.5605 1.10575Z" fill="#FF9400"/>
<path d="M0.101562 3H7.10156V6.65054C7.10156 7.29487 6.57923 7.81721 5.9349 7.81721H1.26823C0.623897 7.81721 0.101562 7.29487 0.101562 6.65054V3Z" fill="#FF9400"/>
</g>
<defs>
<clipPath id="clip0_590_77838">
<rect width="7" height="7" fill="white" transform="translate(0.101562 1)"/>
</clipPath>
</defs>
</svg>
