<svg width="8" height="7" viewBox="0 0 8 7" fill="none" xmlns="http://www.w3.org/2000/svg">
<g clip-path="url(#clip0_590_77842)">
<path d="M1.55618 1.28735H0.720269C0.378567 1.28735 0.101562 1.56593 0.101562 1.90958V6.29732C0.101562 6.64096 0.378567 6.91954 0.720269 6.91954H1.55618C1.89788 6.91954 2.17489 6.64096 2.17489 6.29732V1.90958C2.17489 1.56593 1.89788 1.28735 1.55618 1.28735Z" fill="#FF9400"/>
<path d="M3.99954 2.57471H3.16363C2.82193 2.57471 2.54492 2.85329 2.54492 3.19693V6.29731C2.54492 6.64096 2.82193 6.91954 3.16363 6.91954H3.99954C4.34124 6.91954 4.61825 6.64096 4.61825 6.29731V3.19693C4.61825 2.85329 4.34124 2.57471 3.99954 2.57471Z" fill="#FF9400"/>
<path d="M6.44339 0H5.60748C5.26577 0 4.98877 0.278578 4.98877 0.622222V6.29732C4.98877 6.64096 5.26577 6.91954 5.60748 6.91954H6.44339C6.78509 6.91954 7.0621 6.64096 7.0621 6.29732V0.622222C7.0621 0.278578 6.78509 0 6.44339 0Z" fill="#FF9400"/>
</g>
<defs>
<clipPath id="clip0_590_77842">
<rect width="6.96045" height="7" fill="white" transform="translate(0.101562)"/>
</clipPath>
</defs>
</svg>
