<svg width="7" height="7" viewBox="0 0 7 7" fill="none" xmlns="http://www.w3.org/2000/svg">
<path d="M4.89842 0H2.06565C1.86533 0 1.7282 0.19448 1.80271 0.372912L2.06536 1.088H4.8987L5.16135 0.372912C5.23586 0.19448 5.09873 0 4.89842 0ZM4.8987 1.632H2.06536C2.06536 1.632 0.0820312 3.264 0.0820312 5.168C0.0820312 6.256 0.932031 6.8 1.4987 6.8C2.06536 6.8 3.48203 6.8 3.48203 6.8C3.48203 6.8 4.8987 6.8 5.46536 6.8C6.03203 6.8 6.88203 6.256 6.88203 5.168C6.88203 3.264 4.8987 1.632 4.8987 1.632ZM3.76536 5.41226V5.848H3.1987V5.41362C2.78192 5.33854 2.51983 5.09266 2.50453 4.73334H2.99526C3.01878 4.92211 3.21712 5.04315 3.503 5.04315C3.76679 5.04315 3.9535 4.92048 3.9535 4.7445C3.9535 4.59598 3.83252 4.51058 3.53502 4.4491L3.2191 4.38464C2.7771 4.29597 2.56006 4.07483 2.56006 3.71987C2.56006 3.36274 2.80629 3.10814 3.1987 3.02437V2.584H3.76536V3.02355C4.14786 3.1057 4.40343 3.35594 4.4159 3.69403H3.93849C3.91496 3.51016 3.73674 3.38749 3.49138 3.38749C3.23751 3.38749 3.0695 3.50037 3.0695 3.67798C3.0695 3.8216 3.18538 3.90402 3.46956 3.96195L3.76196 4.02179C4.24958 4.12026 4.45953 4.32208 4.45953 4.6833C4.45953 5.07226 4.19943 5.3331 3.76536 5.41226Z" fill="#FF9400"/>
</svg>
