<svg width="15" height="15" viewBox="0 0 15 15" fill="none" xmlns="http://www.w3.org/2000/svg">
<g id="wallet-02">
<path id="Icon" d="M9.44567 5.31854V3.28217C9.44567 2.79816 9.44567 2.55615 9.34372 2.40743C9.25464 2.27749 9.11668 2.18922 8.96137 2.16279C8.78361 2.13254 8.56387 2.23396 8.12441 2.43679L2.96243 4.81924C2.57049 5.00013 2.37453 5.09058 2.231 5.23085C2.10411 5.35486 2.00725 5.50624 1.94783 5.67342C1.88062 5.86252 1.88062 6.07835 1.88062 6.51001V9.39203M9.73664 9.10107H9.74246M1.88062 7.18071L1.88062 11.0214C1.88062 11.6732 1.88062 11.9992 2.00747 12.2481C2.11905 12.4671 2.2971 12.6452 2.51609 12.7567C2.76505 12.8836 3.09096 12.8836 3.74278 12.8836H10.4931C11.145 12.8836 11.4709 12.8836 11.7198 12.7567C11.9388 12.6452 12.1169 12.4671 12.2285 12.2481C12.3553 11.9992 12.3553 11.6732 12.3553 11.0214V7.18071C12.3553 6.52889 12.3553 6.20298 12.2285 5.95401C12.1169 5.73502 11.9388 5.55697 11.7198 5.44539C11.4709 5.31854 11.145 5.31854 10.4931 5.31854L3.74278 5.31854C3.09096 5.31854 2.76505 5.31854 2.51609 5.44539C2.2971 5.55697 2.11905 5.73502 2.00747 5.95401C1.88062 6.20298 1.88062 6.52889 1.88062 7.18071ZM10.0276 9.10107C10.0276 9.26176 9.89733 9.39203 9.73664 9.39203C9.57594 9.39203 9.44567 9.26176 9.44567 9.10107C9.44567 8.94037 9.57594 8.8101 9.73664 8.8101C9.89733 8.8101 10.0276 8.94037 10.0276 9.10107Z" stroke="#6ED459" stroke-width="1.16386" stroke-linecap="round" stroke-linejoin="round"/>
</g>
</svg>
