<svg width="15" height="15" viewBox="0 0 15 15" fill="none" xmlns="http://www.w3.org/2000/svg">
<g id="safe">
<path id="Icon" d="M3.6264 12.5397H5.37218M8.86375 12.5397H10.6095M10.3186 4.10175V8.75717M1.88062 3.92717L1.88062 8.93175C1.88062 9.58357 1.88062 9.90948 2.00747 10.1584C2.11905 10.3774 2.2971 10.5555 2.51609 10.6671C2.76505 10.7939 3.09096 10.7939 3.74278 10.7939L10.4931 10.7939C11.145 10.7939 11.4709 10.7939 11.7198 10.6671C11.9388 10.5555 12.1169 10.3774 12.2285 10.1584C12.3553 9.90948 12.3553 9.58357 12.3553 8.93175V3.92717C12.3553 3.27535 12.3553 2.94944 12.2285 2.70048C12.1169 2.48149 11.9388 2.30344 11.7198 2.19186C11.4709 2.065 11.145 2.065 10.4931 2.065L3.74278 2.065C3.09096 2.065 2.76505 2.065 2.51609 2.19185C2.2971 2.30344 2.11905 2.48148 2.00747 2.70048C1.88062 2.94944 1.88062 3.27535 1.88062 3.92717ZM6.827 6.42946C6.827 7.23293 6.17566 7.88428 5.37218 7.88428C4.56871 7.88428 3.91736 7.23293 3.91736 6.42946C3.91736 5.62599 4.56871 4.97464 5.37218 4.97464C6.17566 4.97464 6.827 5.62599 6.827 6.42946Z" stroke="#6ED459" stroke-width="1.16386" stroke-linecap="round" stroke-linejoin="round"/>
</g>
</svg>
