<svg width="15" height="15" viewBox="0 0 15 15" fill="none" xmlns="http://www.w3.org/2000/svg">
<g id="percent-03" clip-path="url(#clip0_11351_8618)">
<path id="Icon" d="M5.37208 6.21265H5.3779M8.86364 9.70422H8.86946M9.44557 5.63073L4.79015 10.2861M5.66304 6.21265C5.66304 6.37335 5.53277 6.50362 5.37208 6.50362C5.21138 6.50362 5.08111 6.37335 5.08111 6.21265C5.08111 6.05196 5.21138 5.92169 5.37208 5.92169C5.53277 5.92169 5.66304 6.05196 5.66304 6.21265ZM9.15461 9.70422C9.15461 9.86491 9.02434 9.99518 8.86364 9.99518C8.70295 9.99518 8.57268 9.86491 8.57268 9.70422C8.57268 9.54352 8.70295 9.41326 8.86364 9.41326C9.02434 9.41326 9.15461 9.54352 9.15461 9.70422ZM12.9371 7.95844C12.9371 11.1723 10.3318 13.7777 7.11786 13.7777C3.90396 13.7777 1.29858 11.1723 1.29858 7.95844C1.29858 4.74454 3.90396 2.13916 7.11786 2.13916C10.3318 2.13916 12.9371 4.74454 12.9371 7.95844Z" stroke="#6ED459" stroke-width="1.16386" stroke-linecap="round" stroke-linejoin="round"/>
</g>
<defs>
<clipPath id="clip0_11351_8618">
<rect width="13.9663" height="13.9663" fill="white" transform="translate(0.134766 0.975281)"/>
</clipPath>
</defs>
</svg>
