<svg width="12" height="12" viewBox="0 0 12 12" fill="none" xmlns="http://www.w3.org/2000/svg">
<path d="M4.24287 4.24287H4.24759M7.07144 7.07144H7.07616M7.54287 3.77144L3.77144 7.54287M4.47859 4.24287C4.47859 4.37305 4.37305 4.47859 4.24287 4.47859C4.11269 4.47859 4.00716 4.37305 4.00716 4.24287C4.00716 4.11269 4.11269 4.00716 4.24287 4.00716C4.37305 4.00716 4.47859 4.11269 4.47859 4.24287ZM7.30716 7.07144C7.30716 7.20162 7.20162 7.30716 7.07144 7.30716C6.94126 7.30716 6.83573 7.20162 6.83573 7.07144C6.83573 6.94126 6.94126 6.83573 7.07144 6.83573C7.20162 6.83573 7.30716 6.94126 7.30716 7.07144ZM10.3714 5.65716C10.3714 8.26079 8.26079 10.3714 5.65716 10.3714C3.05353 10.3714 0.942871 8.26079 0.942871 5.65716C0.942871 3.05353 3.05353 0.942871 5.65716 0.942871C8.26079 0.942871 10.3714 3.05353 10.3714 5.65716Z" stroke="#6988FF" stroke-width="0.942857" stroke-linecap="round" stroke-linejoin="round"/>
</svg>
