<svg width="11" height="11" viewBox="0 0 11 11" fill="none" xmlns="http://www.w3.org/2000/svg">
<path d="M7.54288 3.77147V2.12178C7.54288 1.72968 7.54288 1.53362 7.46028 1.41314C7.38812 1.30787 7.27635 1.23636 7.15053 1.21495C7.00653 1.19045 6.82852 1.27261 6.4725 1.43692L2.2907 3.36698C1.97319 3.51353 1.81443 3.5868 1.69816 3.70044C1.59536 3.8009 1.5169 3.92353 1.46876 4.05896C1.41431 4.21216 1.41431 4.38701 1.41431 4.73671V7.07147M7.77859 6.83576H7.78331M1.41431 5.28004L1.41431 8.39147C1.41431 8.91952 1.41431 9.18355 1.51707 9.38523C1.60747 9.56264 1.75171 9.70688 1.92912 9.79728C2.1308 9.90004 2.39483 9.90004 2.92288 9.90004H8.39145C8.9195 9.90004 9.18352 9.90005 9.38521 9.79728C9.56262 9.70688 9.70686 9.56265 9.79726 9.38524C9.90002 9.18355 9.90002 8.91952 9.90002 8.39147V5.28005C9.90002 4.752 9.90002 4.48797 9.79726 4.28628C9.70686 4.10887 9.56262 3.96463 9.38521 3.87424C9.18352 3.77147 8.9195 3.77147 8.39145 3.77147L2.92288 3.77147C2.39483 3.77147 2.1308 3.77147 1.92912 3.87424C1.75171 3.96463 1.60747 4.10887 1.51707 4.28628C1.41431 4.48797 1.41431 4.752 1.41431 5.28004ZM8.01431 6.83576C8.01431 6.96594 7.90877 7.07147 7.77859 7.07147C7.64841 7.07147 7.54288 6.96594 7.54288 6.83576C7.54288 6.70558 7.64841 6.60004 7.77859 6.60004C7.90877 6.60004 8.01431 6.70558 8.01431 6.83576Z" stroke="#6988FF" stroke-width="0.942857" stroke-linecap="round" stroke-linejoin="round"/>
</svg>
