<svg width="15" height="16" viewBox="0 0 15 16" fill="none" xmlns="http://www.w3.org/2000/svg">
<path d="M8.25375 6.23041H6.77917C6.29054 6.23041 5.89442 6.62653 5.89442 7.11516C5.89442 7.60379 6.29054 7.99991 6.77917 7.99991H7.369C7.85763 7.99991 8.25375 8.39602 8.25375 8.88465C8.25375 9.37328 7.85763 9.7694 7.369 9.7694H5.89442M7.07408 5.64058V6.23041M7.07408 9.7694V10.3592M10.6131 7.99991H10.619M3.5351 7.99991H3.541M1.17578 5.75855L1.17578 10.2413C1.17578 10.9019 1.17578 11.2323 1.30436 11.4846C1.41745 11.7066 1.59792 11.887 1.81989 12.0001C2.07223 12.1287 2.40257 12.1287 3.06324 12.1287L11.0849 12.1287C11.7456 12.1287 12.0759 12.1287 12.3283 12.0001C12.5503 11.887 12.7307 11.7066 12.8438 11.4846C12.9724 11.2323 12.9724 10.9019 12.9724 10.2413V5.75855C12.9724 5.09788 12.9724 4.76754 12.8438 4.5152C12.7307 4.29323 12.5503 4.11277 12.3283 3.99967C12.0759 3.87109 11.7456 3.87109 11.0849 3.87109L3.06324 3.87109C2.40257 3.87109 2.07223 3.87109 1.81989 3.99967C1.59792 4.11277 1.41745 4.29323 1.30436 4.5152C1.17578 4.76754 1.17578 5.09788 1.17578 5.75855ZM10.908 7.99991C10.908 8.16278 10.7759 8.29482 10.6131 8.29482C10.4502 8.29482 10.3182 8.16278 10.3182 7.99991C10.3182 7.83703 10.4502 7.70499 10.6131 7.70499C10.7759 7.70499 10.908 7.83703 10.908 7.99991ZM3.83002 7.99991C3.83002 8.16278 3.69798 8.29482 3.5351 8.29482C3.37223 8.29482 3.24019 8.16278 3.24019 7.99991C3.24019 7.83703 3.37223 7.70499 3.5351 7.70499C3.69798 7.70499 3.83002 7.83703 3.83002 7.99991Z" stroke="#1F2937" stroke-width="0.663888" stroke-linecap="round" stroke-linejoin="round"/>
</svg>
