<svg width="14" height="14" viewBox="0 0 14 14" fill="none" xmlns="http://www.w3.org/2000/svg">
<path d="M5.30459 5.22842H5.31049M8.84358 8.7674H8.84947M9.43341 4.63859L4.71476 9.35723M12.9724 6.99791C12.9724 10.2555 10.3316 12.8962 7.07408 12.8962C3.81654 12.8962 1.17578 10.2555 1.17578 6.99791C1.17578 3.74037 3.81654 1.09961 7.07408 1.09961C10.3316 1.09961 12.9724 3.74037 12.9724 6.99791ZM5.59951 5.22842C5.59951 5.3913 5.46747 5.52334 5.30459 5.52334C5.14172 5.52334 5.00968 5.3913 5.00968 5.22842C5.00968 5.06554 5.14172 4.93351 5.30459 4.93351C5.46747 4.93351 5.59951 5.06554 5.59951 5.22842ZM9.13849 8.7674C9.13849 8.93028 9.00645 9.06232 8.84358 9.06232C8.6807 9.06232 8.54866 8.93028 8.54866 8.7674C8.54866 8.60453 8.6807 8.47249 8.84358 8.47249C9.00645 8.47249 9.13849 8.60453 9.13849 8.7674Z" stroke="#1F2937" stroke-width="0.58983" stroke-linecap="round" stroke-linejoin="round"/>
</svg>
