<svg width="11" height="11" viewBox="0 0 11 11" fill="none" xmlns="http://www.w3.org/2000/svg">
<path d="M2.82859 9.90002H4.24288M7.07145 9.90002H8.48574M8.25002 3.06431V6.83574M1.41431 2.92288L1.41431 6.97716C1.41431 7.50521 1.41431 7.76924 1.51707 7.97093C1.60747 8.14834 1.75171 8.29257 1.92912 8.38297C2.1308 8.48573 2.39483 8.48573 2.92288 8.48573L8.39145 8.48574C8.9195 8.48574 9.18352 8.48574 9.38521 8.38297C9.56262 8.29258 9.70686 8.14834 9.79726 7.97093C9.90002 7.76924 9.90002 7.50521 9.90002 6.97716V2.92288C9.90002 2.39483 9.90002 2.1308 9.79726 1.92912C9.70686 1.75171 9.56262 1.60747 9.38521 1.51707C9.18352 1.41431 8.9195 1.41431 8.39145 1.41431L2.92288 1.41431C2.39483 1.41431 2.1308 1.41431 1.92912 1.51707C1.75171 1.60747 1.60747 1.75171 1.51707 1.92912C1.41431 2.1308 1.41431 2.39483 1.41431 2.92288ZM5.42145 4.95002C5.42145 5.60093 4.89379 6.12859 4.24288 6.12859C3.59197 6.12859 3.06431 5.60093 3.06431 4.95002C3.06431 4.29911 3.59197 3.77145 4.24288 3.77145C4.89379 3.77145 5.42145 4.29911 5.42145 4.95002Z" stroke="#6988FF" stroke-width="0.942857" stroke-linecap="round" stroke-linejoin="round"/>
</svg>
