<svg width="15" height="16" viewBox="0 0 15 16" fill="none" xmlns="http://www.w3.org/2000/svg">
<path d="M2.94919 6.23162V10.9503M5.60343 6.23162V10.9503M8.55258 6.23162V10.9503M11.2068 6.23162V10.9503M1.76953 11.894L1.76953 12.3659C1.76953 12.6962 1.76953 12.8614 1.83382 12.9875C1.89037 13.0985 1.9806 13.1888 2.09158 13.2453C2.21776 13.3096 2.38292 13.3096 2.71326 13.3096H11.4427C11.7731 13.3096 11.9383 13.3096 12.0644 13.2453C12.1754 13.1888 12.2656 13.0985 12.3222 12.9875C12.3865 12.8614 12.3865 12.6962 12.3865 12.3659V11.894C12.3865 11.5637 12.3865 11.3985 12.3222 11.2723C12.2656 11.1613 12.1754 11.0711 12.0644 11.0146C11.9383 10.9503 11.7731 10.9503 11.4427 10.9503H2.71326C2.38292 10.9503 2.21776 10.9503 2.09158 11.0146C1.9806 11.0711 1.89037 11.1613 1.83382 11.2723C1.76953 11.3985 1.76953 11.5637 1.76953 11.894ZM6.87328 2.73814L2.50854 3.70808C2.24485 3.76668 2.113 3.79598 2.01458 3.86688C1.92778 3.92942 1.85961 4.01439 1.8174 4.1127C1.76953 4.22415 1.76953 4.35921 1.76953 4.62934L1.76953 5.2879C1.76953 5.61823 1.76953 5.7834 1.83382 5.90957C1.89037 6.02056 1.9806 6.11079 2.09158 6.16734C2.21776 6.23162 2.38292 6.23162 2.71326 6.23162H11.4427C11.7731 6.23162 11.9383 6.23162 12.0644 6.16734C12.1754 6.11079 12.2656 6.02056 12.3222 5.90957C12.3865 5.7834 12.3865 5.61823 12.3865 5.2879V4.62934C12.3865 4.35921 12.3865 4.22415 12.3386 4.1127C12.2964 4.01439 12.2282 3.92942 12.1414 3.86688C12.043 3.79598 11.9112 3.76668 11.6475 3.70808L7.28273 2.73814C7.20633 2.72116 7.16813 2.71267 7.12953 2.70929C7.09524 2.70628 7.06076 2.70628 7.02648 2.70929C6.98788 2.71267 6.94968 2.72116 6.87328 2.73814Z" stroke="#1F2937" stroke-width="0.621758" stroke-linecap="round" stroke-linejoin="round"/>
</svg>
