<svg width="128" height="128" viewBox="0 0 128 128" fill="none" xmlns="http://www.w3.org/2000/svg">
<g clip-path="url(#clip0_467_67077)">
<path d="M126.719 63.9998C126.719 29.3605 98.6386 1.27979 63.9993 1.27979C29.36 1.27979 1.2793 29.3605 1.2793 63.9998C1.2793 98.6391 29.36 126.72 63.9993 126.72C98.6386 126.72 126.719 98.6391 126.719 63.9998Z" fill="white"/>
<path d="M96.2023 73.921C96.4548 74.1216 96.6203 74.2943 96.8691 74.4991C97.0192 74.6233 97.0204 74.6233 97.1677 74.4884C97.2705 74.3934 97.3702 74.2943 97.4758 74.2016C97.8998 73.8235 98.471 73.8421 98.8664 74.2535C99.0237 74.4185 99.1722 74.5929 99.3104 74.7753C99.6525 75.2238 99.6183 75.81 99.2322 76.2182C99.1238 76.3325 99.0088 76.4405 98.8922 76.545C98.7942 76.6315 98.791 76.716 98.8603 76.8252C99.0027 77.0495 99.1414 77.2762 99.275 77.5061C99.4452 77.797 99.5964 78.1005 99.74 78.4061C99.8764 78.6977 99.8764 78.6956 100.16 78.6018C100.297 78.5522 100.436 78.5108 100.578 78.4775C101.039 78.3845 101.477 78.6193 101.674 79.0719C101.793 79.351 101.882 79.6435 101.94 79.9433C102.024 80.3708 101.776 80.8455 101.38 81.0564C101.226 81.1369 101.057 81.1723 100.897 81.2328C100.703 81.3063 100.686 81.321 100.717 81.5209C100.82 82.1509 100.892 82.7839 100.897 83.4237C100.899 83.5636 100.949 83.6432 101.087 83.6553C101.206 83.6655 101.324 83.689 101.442 83.7016C101.915 83.7532 102.236 84.0011 102.376 84.4894C102.388 84.5312 102.419 85.4117 102.378 85.6504C102.287 86.1773 101.897 86.5527 101.385 86.5739C101.275 86.5792 101.164 86.5716 101.055 86.5515C100.853 86.5129 100.719 86.6023 100.67 86.8076C100.55 87.3126 100.388 87.8029 100.215 88.2896C100.164 88.4301 100.193 88.5537 100.304 88.6524C100.362 88.7043 100.586 88.9582 100.622 89.0424C100.705 89.2365 100.346 88.9347 100.263 88.8844C100.073 88.7694 97.7465 87.4161 96.88 86.9307C96.9417 86.4484 97.1656 85.8313 97.2557 85.3556C97.7151 82.9322 97.2398 80.7217 95.9103 78.7038C94.8046 77.0251 93.2902 75.9511 91.4303 75.4188C89.7933 74.9496 88.1709 75.045 86.5795 75.6576C85.2628 76.1635 83.821 76.9939 83.03 78.3016C82.9392 78.4084 82.8962 78.3959 82.7533 78.3288C82.258 78.0689 80.318 76.7384 79.5291 76.2545C79.1797 75.8852 78.9482 75.2806 79.2107 74.8342C79.3983 74.5161 79.6501 74.2577 79.9203 74.0257C80.2998 73.6999 80.8498 73.7092 81.2531 74.0152C81.7532 74.395 81.7525 74.3934 82.2382 73.9854C82.4919 73.7723 82.7626 73.5833 83.0288 73.3883C83.2769 73.2074 83.295 73.1344 83.1789 72.8504C82.8622 72.0757 83.0651 71.4873 83.7796 71.1043C83.9683 70.9986 84.1659 70.9104 84.3693 70.8411C84.9146 70.6663 85.4168 70.8711 85.7133 71.3826C86.0224 71.9167 86.0207 71.9156 86.6028 71.7745C86.9102 71.6998 87.2221 71.647 87.533 71.5877C87.8432 71.5276 87.8905 71.4759 87.9082 71.1527C87.9151 70.9909 87.9384 70.8301 87.9773 70.674C88.0594 70.3612 88.2079 70.0866 88.5158 69.9634C89.1023 69.7279 89.6948 69.6828 90.2708 69.9923C90.6101 70.1748 90.7686 70.4887 90.773 70.8955C90.7796 71.5048 90.7833 71.5102 91.3483 71.6065C91.7202 71.6698 92.0838 71.7645 92.4491 71.8551C92.7263 71.9242 92.7978 71.8969 92.9062 71.6158C93.179 70.9037 93.859 70.5404 94.6605 70.9551C94.8877 71.0726 95.1264 71.1587 95.325 71.3484C95.7255 71.7308 95.7534 72.2954 95.5889 72.7073C95.5654 72.765 95.5372 72.8204 95.5146 72.8788C95.4048 73.1648 95.3931 73.3322 95.3931 73.3322C95.3931 73.3322 95.9542 73.7239 96.2023 73.921Z" fill="#5F5F5F"/>
<path d="M96.7521 86.6974C96.9846 86.9323 100.098 88.7252 100.366 88.8946C100.446 88.9055 100.507 88.9612 100.58 88.9924C100.635 89.0445 100.684 89.098 100.735 89.1562C100.981 89.5197 100.977 89.9033 100.834 90.3047C100.743 90.5179 100.635 90.7222 100.509 90.914C100.216 91.3787 99.6751 91.5247 99.1999 91.2724C99.0551 91.1956 98.915 91.1106 98.7775 91.0185C98.6779 90.9531 98.609 90.9705 98.5392 91.068C98.158 91.5987 97.7344 92.0939 97.2734 92.5484C97.1805 92.6399 97.1696 92.7195 97.2476 92.8256C97.3379 92.945 97.4214 93.0704 97.5024 93.1968C97.8308 93.71 97.7421 94.3018 97.2778 94.6821C97.1161 94.8138 96.9511 94.9425 96.7795 95.06C96.318 95.3756 95.7772 95.2867 95.4258 94.8401C95.3285 94.7151 95.2375 94.5846 95.1528 94.4493C95.0781 94.3311 95.0034 94.3044 94.8779 94.3795C94.3503 94.6956 93.7932 94.9451 93.2244 95.1664C93.0175 95.2469 93.0196 95.2502 93.0599 95.478C93.0741 95.5569 93.0857 95.6377 93.0999 95.7165C93.2325 96.384 93.0813 96.7459 92.5267 97.088C92.3838 97.1718 92.2192 97.1588 92.0659 97.2013C91.7978 97.2688 91.5274 97.2635 91.2544 97.2493C91.1652 97.203 91.0761 97.1527 90.9893 97.1022C90.7268 96.8723 90.6097 96.5688 90.5415 96.2211C90.4496 95.7498 90.5057 95.8266 90.0938 95.8469C89.548 95.8736 89.0013 95.8713 88.4556 95.8392C88.2438 95.8266 88.2438 95.8262 88.1949 96.0326C88.1724 96.1292 88.1465 96.2244 88.1326 96.3219C88.0441 96.9393 87.5726 97.4024 86.8202 97.2514C86.6364 97.2144 86.4544 97.1643 86.2745 97.1083C85.7601 96.9491 85.4625 96.4271 85.566 95.872C85.5912 95.7314 85.6226 95.5909 85.6489 95.4496C85.6843 95.2578 85.6819 95.2476 85.4988 95.1757C85.1474 95.036 84.7969 94.8939 84.4587 94.7223C84.259 94.6209 84.061 94.5147 83.8639 94.4075C83.6588 94.2962 83.6605 94.2946 83.5169 94.4973C83.4398 94.6053 83.3684 94.7168 83.2886 94.821C82.9376 95.2841 82.3849 95.3809 81.9171 95.0575C81.7395 94.9336 81.5657 94.8019 81.3984 94.6623C80.9722 94.306 80.8803 93.7209 81.1735 93.2375C81.2604 93.0937 81.3572 92.9564 81.4551 92.8207C81.5233 92.7265 81.5278 92.6508 81.4403 92.5643C80.9727 92.1032 80.5443 91.601 80.1586 91.062C80.0853 90.9596 80.0134 90.9603 79.9187 91.0229C79.8033 91.0992 79.6834 91.1688 79.5633 91.2386C79.0248 91.5475 78.4644 91.395 78.1481 90.8404C78.0352 90.6415 77.8965 90.459 77.819 90.2361C77.6266 89.6836 77.7888 89.172 78.27 88.8641C78.3724 88.7987 78.4774 88.7385 78.5777 88.6731C78.7553 88.5586 78.7602 88.5553 78.6815 88.3547C78.5188 87.9397 78.379 87.5145 78.2624 87.0826C78.2107 86.8936 78.1623 86.7012 78.1199 86.5089C78.0892 86.3684 78.0192 86.3139 77.8823 86.3444C77.7729 86.3656 77.6629 86.3809 77.5523 86.39C76.9009 86.4626 76.4185 86.0518 76.3503 85.3679C76.3317 85.1789 76.3119 84.992 76.2991 84.804C76.2821 84.5317 76.364 84.2624 76.5297 84.0527C76.6952 83.8423 76.9307 83.7074 77.1881 83.6745C77.3317 83.6562 77.4764 83.644 77.6193 83.6208C77.8065 83.5884 77.8125 83.5842 77.8153 83.3787C77.8234 82.9298 77.8565 82.4813 77.9126 82.0357C77.9363 81.8402 77.9984 81.6493 77.9847 81.449C77.9708 81.3117 77.9154 81.2267 77.8109 81.1837C77.7392 81.1618 77.7222 81.1525 77.6156 81.1243C77.4048 81.0703 77.2135 80.9744 77.061 80.8115" fill="#414141"/>
<path d="M77.9951 81.5712C78.0193 81.4334 77.9632 81.2268 77.8289 81.187C77.7139 81.1532 77.5303 81.0808 77.4158 81.0443C76.9615 80.9 76.676 80.5223 76.6264 80.0145C76.5687 79.7988 76.7491 79.0999 76.8312 78.8732C77.0148 78.374 77.4647 78.0831 77.9714 78.1638C78.081 78.1806 78.1887 78.2102 78.292 78.2509C78.4836 78.3293 78.6309 78.2679 78.7156 78.0761C78.9241 77.6041 79.236 77.1368 79.4368 76.6616C79.6316 76.2024 79.4936 76.2403 79.5618 76.2562C79.728 76.4072 82.1516 77.6488 82.9156 78.2977C82.4183 78.865 81.3121 81.4327 81.2665 82.292" fill="#414141"/>
<path d="M82.9445 78.2572C84.4919 76.4953 85.5992 75.7389 87.1268 75.2818C88.0558 75.0014 89.0263 74.8995 89.99 74.9807C91.6117 75.1185 93.076 75.7149 94.366 76.7692C95.5029 77.6994 96.3314 78.8779 96.8964 80.2678C97.2418 81.1177 97.4245 82.0063 97.5097 82.9272C97.6319 84.246 97.364 85.7194 96.9344 86.9484C96.8473 87.0297 95.2648 85.8881 95.0954 85.6659C95.057 85.546 95.1047 85.4359 95.1338 85.3249C95.2895 84.7245 95.3902 84.1143 95.3721 83.4903C95.2867 80.4912 93.3471 78.0171 90.6645 77.4127C88.6847 76.9665 86.5855 77.4171 84.6634 79.4744C84.615 79.5028 84.6003 79.4411 84.274 79.2042C83.7262 78.8533 83.4567 78.6331 83.082 78.3941C82.8674 78.2621 82.8784 78.3336 82.9445 78.2572Z" fill="#414141"/>
<path d="M96.9655 86.8617C96.9139 86.9483 96.8675 87.0376 96.8264 87.1303C96.3544 88.3284 95.5985 89.3119 94.6776 90.1448C93.473 91.2356 92.0757 91.9156 90.4892 92.1341C90.1003 92.1881 89.7109 92.2468 89.3181 92.2337C88.1822 92.1956 87.0842 91.9757 86.0357 91.4944C85.3701 91.1872 84.7473 90.7866 84.1841 90.3035C83.3072 89.5565 82.5948 88.6586 82.0719 87.5946C81.5911 86.6143 81.3144 85.5775 81.1971 84.4851C81.0949 83.5446 81.1752 82.6219 81.3621 81.701C81.5757 80.6511 81.9744 79.6835 82.5311 78.7868C82.6104 78.6592 82.8408 78.3693 82.9155 78.2969C83.3205 78.518 84.4245 79.2862 84.6017 79.4531C84.7134 79.6067 84.5072 79.8087 84.4432 79.9074C84.1038 80.4298 83.8243 80.9818 83.6444 81.5881C83.0179 83.7001 83.3051 85.6657 84.5674 87.4326C85.6205 88.9069 87.0523 89.7149 88.8033 89.9002C91.2979 90.1646 93.8579 88.6721 94.9115 86.039C94.9697 85.8936 94.955 85.6641 95.1919 85.6527C95.3443 85.8368 96.7868 86.7581 96.9655 86.8617Z" fill="#5F5F5F"/>
<path d="M95.1914 85.6527C94.9926 86.1894 94.7706 86.7125 94.4592 87.1903C93.4729 88.7021 92.1268 89.6405 90.4128 89.964C88.6766 90.2909 87.0873 89.883 85.6742 88.7829C84.4317 87.8147 83.6383 86.5119 83.3325 84.9173C82.9706 83.0322 83.3507 81.2972 84.4101 79.7298C84.4499 79.6709 84.4871 79.612 84.5267 79.5534C84.5669 79.5026 85.0933 78.8901 85.3496 78.6641C86.4855 77.6615 87.7848 77.1479 89.2701 77.1183C92.0531 77.0623 94.563 79.0472 95.287 81.9304C95.577 83.0843 95.5693 84.2417 95.254 85.3923C95.2305 85.4779 95.2116 85.5661 95.1914 85.6527Z" fill="#ED5050"/>
<path d="M90.9969 83.5947C91.0437 84.5812 90.184 85.3453 89.3683 85.3348C88.4369 85.3234 87.6729 84.554 87.6817 83.5777C87.6894 82.6238 88.3974 81.8348 89.3797 81.832C90.1982 81.8299 91.0421 82.6014 90.9969 83.5947Z" fill="#414141"/>
<path d="M91.0906 80.3134C91.2803 80.2932 91.4383 80.3642 91.5695 80.5122C91.6857 80.6432 91.8102 80.7666 91.9238 80.9009C92.1872 81.2108 92.0264 81.7789 91.6857 81.8904C91.537 81.9395 91.4003 81.9421 91.2691 81.8515C90.9887 81.6577 90.7494 81.4121 90.5367 81.1426C90.3114 80.8566 90.4259 80.4898 90.7615 80.3653C90.8669 80.3248 90.9787 80.3069 91.0906 80.3134Z" fill="#ED5050"/>
<path d="M46.4199 97.1496C45.9586 96.8933 45.6849 96.4963 45.6025 95.9503C45.5744 95.7646 45.5257 95.5826 45.4894 95.3974C45.4638 95.2675 45.4019 95.224 45.2735 95.2349C44.4571 95.3073 43.6365 95.3166 42.8189 95.2621C42.7081 95.2552 42.5971 95.2486 42.4873 95.2349C42.3823 95.2224 42.3278 95.2682 42.3062 95.3743C42.2673 95.5677 42.215 95.7586 42.1847 95.9536C42.0912 96.5549 41.7784 96.9685 41.2461 97.2012C40.9054 97.2987 40.5649 97.2645 40.2247 97.198C39.9093 97.1363 39.5856 97.1074 39.2998 96.9331C39.19 96.8482 39.0722 96.7746 38.977 96.669C38.6375 96.2908 38.4969 95.8496 38.5847 95.3345C38.6177 95.1402 38.6615 94.9484 38.6987 94.7543C38.7615 94.4232 38.7611 94.4215 38.4681 94.3126C37.8008 94.0624 37.1501 93.7666 36.5199 93.4266C36.3682 93.3454 36.2143 93.2649 36.0693 93.1723C35.9586 93.1003 35.885 93.1155 35.8131 93.226C35.7026 93.3961 35.5799 93.5579 35.4703 93.7296C35.003 94.4606 34.086 94.6747 33.3653 94.0892C33.1765 93.9354 32.9771 93.796 32.7877 93.6435C32.1188 93.1052 31.9968 92.2469 32.4842 91.5197C32.6117 91.3291 32.7423 91.1398 32.8756 90.953C32.9389 90.8648 32.9378 90.7929 32.8577 90.7205C32.8186 90.6856 32.7837 90.6458 32.7467 90.6088C32.1223 89.9832 31.5456 89.3071 31.0217 88.5864C30.8732 88.3813 30.8718 88.3825 30.6535 88.5149C30.5055 88.6043 30.3584 88.6946 30.2107 88.7847C29.4329 89.2531 28.6602 89.0472 28.1797 88.2447C28.1138 88.1423 28.0889 88.1046 28.02 87.9815C27.9351 87.8077 27.8327 87.6452 27.7556 87.466C27.4279 86.701 27.6562 85.9181 28.3426 85.4862C28.5034 85.3847 28.667 85.2872 28.8294 85.1865C29.0459 85.0519 29.0482 85.0503 28.9551 84.8155C28.656 84.0603 28.4094 83.2839 28.2169 82.4917C28.185 82.3609 28.1501 82.2313 28.1245 82.0993C28.0989 81.9676 28.0261 81.9245 27.9039 81.9408C27.6756 81.9713 27.4468 82.0067 27.2171 82.0204C26.6276 82.0563 26.1726 81.8096 25.8647 81.2766C25.7367 81.0572 25.6885 80.8114 25.6669 80.5575C25.6511 80.3685 25.6157 80.1991 25.6036 79.9957C25.5538 79.2298 25.9701 78.2675 26.8852 78.1988C27.0807 78.1842 27.2753 78.1532 27.4705 78.1302C27.696 78.1036 27.704 78.1013 27.7091 77.8753C27.7237 77.2107 27.7752 76.5469 27.8629 75.8883C27.8988 75.6214 27.9397 75.3554 27.9844 75.09C28.0272 74.8368 28.0274 74.8313 27.7877 74.7484C27.6083 74.687 27.4289 74.6292 27.2522 74.5659C26.4849 74.293 26.0886 73.5231 26.3039 72.7041C26.3835 72.4013 26.481 72.1032 26.5859 71.8091C26.8547 71.0501 27.5909 70.6675 28.3288 70.897C28.5499 70.9657 28.7712 71.0343 28.9861 71.1209C29.1234 71.1749 29.1846 71.1297 29.2423 71.0022C29.3784 70.702 29.5264 70.4078 29.6698 70.1118C29.721 70.0101 29.768 69.9284 29.8146 69.8346C29.9684 69.5376 30.1315 69.2451 30.3273 68.9742C30.5032 68.8125 60.1326 87.1686 60.0496 87.3799C59.9923 87.4884 59.9467 87.5924 59.8922 87.6971C59.7877 87.8926 59.6886 88.0916 59.5776 88.2829C59.155 89.0074 58.3853 89.2275 57.6671 88.8326C57.4786 88.729 57.2973 88.6092 57.1121 88.4979C56.9194 88.3825 56.9171 88.3813 56.786 88.5596C56.4937 88.9578 56.1877 89.3441 55.8684 89.7184C55.5826 90.0523 55.2803 90.3691 54.9728 90.6807C54.8313 90.8238 54.8316 90.8282 54.9405 90.9907C55.0631 91.1743 55.193 91.353 55.3147 91.5371C55.7869 92.2525 55.6603 93.1138 55.0043 93.6403C54.7941 93.809 54.5805 93.9731 54.3636 94.1323C53.6819 94.6296 52.8723 94.4939 52.3682 93.7976C52.2402 93.6189 52.1182 93.4336 51.9902 93.2539C51.8743 93.092 51.8699 93.0894 51.7002 93.1869C51.0044 93.5884 50.282 93.9365 49.5387 94.2286C49.4346 94.2696 49.3297 94.3075 49.2263 94.3489C49.0388 94.4241 49.0353 94.4269 49.0725 94.6459C49.1056 94.8404 49.1333 95.0378 49.1863 95.2263C49.3841 95.9324 48.971 96.7849 48.0536 97.0846C47.6571 97.215 46.7981 97.3092 46.4199 97.1496Z" fill="#414141"/>
<path d="M59.992 87.4321C59.3699 87.0518 53.8312 83.4569 53.4433 83.2314C53.2329 83.1192 53.3013 83.1055 53.4291 82.8534C53.882 81.8338 54.1869 80.7482 54.3335 79.6334C54.4389 78.8209 54.4333 78.0052 54.3698 77.187C54.3102 76.4166 54.1727 75.6545 53.9597 74.9144C53.6881 73.9714 53.2955 73.0893 52.8105 72.2459C52.2694 71.305 51.5801 70.5019 50.8186 69.7613C50.233 69.1921 49.5714 68.7294 48.8725 68.328C47.8227 67.7198 46.6805 67.3103 45.4968 67.1162C44.7535 66.9947 44.0032 66.9349 43.2529 66.9865C41.6564 67.0971 40.1448 67.5395 38.7389 68.3536C37.6297 69.0129 36.6371 69.8682 35.8047 70.8833C35.5924 71.1426 35.2903 71.6581 35.0823 71.9194C34.9629 72.0693 32.9754 70.7111 30.2716 69.0259C30.3714 68.8411 30.4675 68.6896 30.5741 68.5283C30.6404 68.4276 30.6351 68.3508 30.5485 68.2712C30.3826 68.116 30.2173 67.9603 30.0544 67.8015C29.5368 67.2954 29.4158 66.6242 29.74 65.9649C29.814 65.814 29.9478 65.4594 30.1519 65.2017C30.2506 65.0768 30.3593 64.963 30.4659 64.8468C30.9879 64.278 32.0024 64.2683 32.5469 64.7924C33.2063 65.4261 33.1197 65.279 33.6747 64.8301C34.1493 64.4475 34.6294 64.0744 35.1314 63.7311C35.4013 63.5471 35.4188 63.4577 35.2822 63.1486C35.13 62.8042 34.9929 62.4577 35.0222 62.0639C35.0588 61.5779 35.2461 61.1621 35.6231 60.8921C36.1614 60.5069 36.733 60.19 37.4198 60.2095C37.9869 60.2263 38.3842 60.5235 38.6726 61.0101C38.775 61.1849 38.8548 61.3762 38.9376 61.5635C39.0147 61.739 39.1392 61.7962 39.3137 61.7481C40.0491 61.5451 40.7941 61.3915 41.5437 61.2638C41.8162 61.2175 41.8712 61.1332 41.8816 60.8481C41.8865 60.749 41.8865 60.6498 41.8816 60.5509C41.8234 59.6447 42.4897 58.8841 43.2775 58.8313C43.7118 58.8022 44.1468 58.7675 44.5778 58.8583C45.2117 58.9933 45.8357 59.6051 45.7728 60.4448C45.7642 60.5609 45.7705 60.6785 45.7728 60.7957C45.7784 61.1409 45.8401 61.2254 46.1638 61.2745C46.8653 61.3778 47.5599 61.5272 48.2439 61.7215C48.6058 61.8258 48.6619 61.7879 48.8127 61.4316C48.9307 61.1523 49.0492 60.8725 49.2579 60.6484C49.6799 60.1969 50.2049 60.1241 50.752 60.2514C51.1851 60.3524 51.5922 60.5595 51.9652 60.8155C52.5729 61.233 52.7944 61.9829 52.5471 62.7123C52.4956 62.8642 52.4337 63.0129 52.369 63.1598C52.241 63.4479 52.2627 63.5529 52.5175 63.723C53.0528 64.0765 53.568 64.4617 54.0612 64.878C54.6011 65.3372 54.5048 65.4065 55.1008 64.8387C55.6225 64.3409 56.4285 64.2813 56.9046 64.6225C57.3869 64.9674 57.8065 65.4021 58.0853 65.9458C58.3329 66.4303 58.2996 67.3205 57.806 67.7683C57.658 67.9035 57.5267 68.0582 57.3889 68.2058C57.2698 68.3345 57.2535 68.4746 57.348 68.6205C57.7892 69.3054 58.1842 70.0218 58.5298 70.7644C58.6147 70.9468 58.7604 70.9932 58.9398 70.9333C59.1509 70.8619 59.3667 70.8046 59.585 70.7632C60.1693 70.6555 60.8124 70.9257 61.1121 71.4656C61.403 71.9888 61.5825 72.5629 61.6006 73.1771C61.6204 73.852 61.3009 74.3191 60.7546 74.63C60.5731 74.7308 60.3816 74.8103 60.184 74.8681C59.975 74.9309 59.8854 75.0647 59.9278 75.2893C60.0751 76.0941 60.1242 76.9096 60.1726 77.7257C60.1852 77.9422 60.2843 78.0616 60.4905 78.0674C60.6446 78.0723 60.7958 78.1023 60.9476 78.1235C61.7314 78.2314 62.2674 78.8738 62.2699 79.709C62.2718 79.8708 62.2639 80.0321 62.2485 80.1933C62.2227 80.4468 62.1364 80.8108 62.0686 81.0481C61.8729 81.7396 61.2101 82.1182 60.5273 82.0726C60.3062 82.0579 60.0863 82.0207 59.8649 81.9974C59.662 81.9767 59.6515 81.9793 59.6015 82.1913C59.4497 82.8283 59.284 83.4608 59.0669 84.0771C58.9661 84.3636 58.8623 84.6484 58.7478 84.9296C58.6966 85.0538 58.7181 85.1306 58.8277 85.1956C59.0432 85.324 59.2605 85.4495 59.4684 85.5917C60.0234 85.9699 60.2524 86.6573 60.0504 87.3139C60.0339 87.3548 60.0146 87.3946 59.992 87.4321Z" fill="#666059"/>
<path d="M37.4002 73.2398C37.6565 72.916 37.8997 72.5793 38.1803 72.2758C39.5043 70.8424 41.1041 70.0011 42.9929 69.7773C44.6634 69.579 46.2483 69.8852 47.7122 70.7531C49.9657 72.0889 51.3099 74.1251 51.7339 76.8089C51.9801 78.3677 51.7935 79.89 51.2059 81.3512C51.1728 81.4334 51.1493 81.5202 51.1211 81.6052C51.1851 81.7457 51.123 81.8667 51.0672 81.9887C50.7821 82.6098 50.4071 83.1668 49.9731 83.6767C48.7252 85.1428 47.1976 86.1147 45.3439 86.451C42.8833 86.8971 40.6631 86.2972 38.7331 84.6213C37.1677 83.2615 36.2245 81.5011 35.9206 79.3903C35.6843 77.7477 35.881 76.147 36.5271 74.6182C36.6837 74.2477 36.8738 73.8972 37.0654 73.5458C37.1435 73.3994 37.2455 73.2903 37.4002 73.2398Z" fill="#ED5050"/>
<path d="M38.8311 78.0807C38.7887 75.053 41.2472 72.7457 43.8549 72.7315C46.4126 72.7178 48.9649 74.8635 48.9694 78.1073C48.9738 81.1188 46.6535 83.4076 43.9455 83.437C40.9952 83.4691 38.7768 80.9047 38.8311 78.0807Z" fill="#45423D"/>
<path d="M48.8817 73.1431C48.924 73.5906 48.392 73.9411 48.0222 73.683C47.7713 73.5071 47.5344 73.3288 47.3357 73.0952C47.0494 72.7593 47.1146 72.4107 47.4939 72.1912C47.7748 72.0286 48.0367 72.0172 48.2962 72.2501C48.4786 72.414 48.6555 72.5787 48.7865 72.7921C48.8528 72.8959 48.8863 73.0186 48.8817 73.1431Z" fill="#ED5050"/>
<path d="M39.8494 78.1165C39.7865 75.9296 41.4691 73.7959 43.9111 73.8057C46.1923 73.815 47.9732 75.7427 47.9501 78.153C47.928 80.5297 46.0576 82.3929 43.8348 82.364C41.5299 82.3342 39.787 80.2904 39.8494 78.1165Z" fill="#ED5050"/>
<path d="M43.8879 79.831C42.9793 79.831 42.2218 79.0349 42.2286 78.076C42.2344 77.1307 42.9295 76.3397 43.8986 76.3292C44.7823 76.3199 45.554 77.0893 45.5491 78.0907C45.5447 79.0665 44.8167 79.832 43.8879 79.831Z" fill="#414141"/>
<path d="M45.8068 75.186C45.9024 75.186 45.9958 75.197 46.077 75.2533C46.43 75.5 46.619 75.8433 46.6064 76.2941C46.5997 76.5261 46.2841 76.7695 46.0691 76.7181C45.7051 76.6313 45.4086 76.4414 45.2061 76.0997C45.0309 75.8044 45.0655 75.5572 45.3281 75.3482C45.47 75.2363 45.6322 75.1905 45.8068 75.186Z" fill="#ED5050"/>
<path d="M37.4007 73.2391C37.1361 73.6804 36.8801 74.1251 36.6755 74.6024C36.3318 75.407 36.1088 76.2636 36.0139 77.1408C35.8882 78.2462 35.975 79.3675 36.2692 80.4376C36.5636 81.5077 37.0593 82.5035 37.727 83.3676C38.7419 84.6802 40.021 85.5846 41.5535 86.0892C42.4416 86.3812 43.3562 86.5157 44.2825 86.451C46.7058 86.2826 48.6822 85.1957 50.1923 83.1836C50.5093 82.7591 50.7828 82.3008 51.0083 81.816C51.042 81.7441 51.0839 81.6759 51.1218 81.6057C51.3325 81.7097 52.9716 82.8252 53.2511 83.0309C53.3621 83.1121 53.3118 83.2201 53.259 83.3192C52.9711 83.8608 52.6669 84.3914 52.3006 84.8797C51.5 85.9465 50.5663 86.8562 49.4618 87.5695C48.3899 88.2626 47.212 88.7546 45.9809 89.0243C45.0283 89.2356 44.0635 89.2673 43.1016 89.204C41.8221 89.1211 40.5958 88.7795 39.4285 88.2091C38.6288 87.8227 37.8794 87.3303 37.1985 86.7436C35.8591 85.5809 34.8202 84.1761 34.1481 82.4803C33.7187 81.3911 33.4499 80.2393 33.3517 79.0645C33.1979 77.313 33.4616 75.6271 34.0469 73.9883C34.2615 73.3878 34.5445 72.8251 34.847 72.2714C34.8766 72.2177 34.9101 72.1637 34.9443 72.113C35.1281 71.8379 35.163 71.829 35.4363 71.9931C35.895 72.2689 36.7777 72.8458 37.2269 73.1346C37.2869 73.1656 37.3451 73.2005 37.4007 73.2391Z" fill="#666059"/>
<path d="M51.648 79.8634C51.8798 78.777 51.9014 77.6518 51.7118 76.5561C51.5221 75.4604 51.1248 74.416 50.5439 73.4855C49.573 72.1664 48.3533 71.0549 46.9995 70.3691C46.1545 69.9855 45.2492 69.7719 44.3297 69.7391C41.9026 69.6481 39.8217 70.495 38.1266 72.3363C37.8601 72.6312 37.6097 72.9416 37.3769 73.2665C37.1775 73.1411 35.3415 72.1539 35.0832 71.919C34.9808 71.8259 35.7814 70.8704 36.1926 70.424C37.0918 69.4477 38.1082 68.6413 39.276 68.0506C40.3689 67.457 41.6184 67.1174 42.8788 66.9764C43.8454 66.8663 44.8217 66.8935 45.7812 67.0576C47.0463 67.2766 48.2125 67.7951 49.3184 68.4882C50.0769 68.9585 50.7753 69.5282 51.3962 70.1847C52.6166 71.4848 53.5147 72.9931 54.0209 74.7523C54.3432 75.8817 54.4994 77.057 54.484 78.236C54.4673 79.9951 54.0481 81.6112 53.4393 82.9128C53.3188 83.1712 53.4281 83.1646 53.0783 82.9128C52.6485 82.5891 51.5759 81.9126 51.1232 81.6063C51.095 81.5835 51.4646 80.7301 51.648 79.8634Z" fill="#45423D"/>
<path d="M40.3783 34.0144C40.1916 33.3891 40.0485 32.7512 39.8912 32.1175C39.8497 31.9506 39.8963 31.9057 40.0652 31.8624C49.4123 29.4679 60.7784 31.2976 66.6164 33.1606C67.5417 33.5103 68.4421 33.9167 69.2751 34.4727C69.6365 34.714 69.9793 34.98 70.2493 35.3368C70.3242 35.4345 70.3917 35.5383 70.4513 35.6472C70.5925 35.9123 70.624 36.1793 70.4913 36.469C70.1839 37.1414 69.8494 37.7983 69.488 38.4404C69.2541 38.8584 69.0144 39.2722 68.7773 39.6886C68.6656 39.8903 68.5408 40.0835 68.4026 40.2667C68.2823 40.3851 68.1463 40.3281 68.0165 40.2974C67.4444 40.1624 66.8673 40.0567 66.2992 39.9094C66.2573 39.8985 66.2145 39.9169 66.1721 39.9185C65.5768 39.7153 64.9487 39.6923 64.344 39.5405C64.2649 39.5205 64.196 39.571 64.1202 39.5575C63.1274 39.3541 62.1206 39.2515 61.121 39.1067C60.7696 39.0558 60.4065 39.0828 60.0661 38.9503C59.9357 38.8054 59.912 38.6159 59.868 38.433C59.616 37.3545 59.2887 36.308 58.6892 35.3784C58.5978 35.2372 58.4986 35.1024 58.3946 34.9712C58.0828 34.5767 57.7102 34.3419 57.2044 34.2721C55.8853 34.0891 54.5644 33.9314 53.2395 33.8129C51.0351 33.6151 48.8281 33.5813 46.6195 33.6141C45.5297 33.6302 44.4407 33.7065 43.353 33.8054C42.4521 33.8864 41.5535 33.9826 40.6575 34.1075C40.5465 34.1189 40.4506 34.1119 40.3783 34.0144Z" fill="#ED5050"/>
<path d="M71.3719 52.8437C70.7514 52.8393 70.1303 52.8258 69.5098 52.8349C69.3118 52.8377 69.2678 52.7164 69.2247 52.5665C69.0565 52.5125 69.0614 52.3506 69.0355 52.2154C68.8349 51.176 68.6462 50.1338 68.4276 49.0982C67.8903 46.5519 67.2868 44.0238 66.553 41.5318C66.4267 41.1024 66.2907 40.6763 66.1669 40.2457C66.1295 40.1149 66.0573 39.972 66.179 39.8408C66.2242 39.7868 66.284 39.7868 66.3429 39.7977C67.0338 39.9327 67.7236 40.0677 68.4025 40.2627C68.848 41.5839 69.2226 42.9277 69.5687 44.281C70.0383 46.1198 70.4417 47.9758 70.8173 49.8383C70.9576 50.5339 71.3703 52.8265 71.3719 52.8437Z" fill="#45423D"/>
<path d="M40.3801 34.0144C41.1965 33.8676 42.0206 33.7822 42.8442 33.7044C43.4381 33.6483 44.0351 33.6123 44.6304 33.5694C46.2848 33.4484 47.9407 33.4507 49.5958 33.4803C50.7983 33.5017 51.9997 33.5687 53.2001 33.6693C53.9995 33.7363 54.7978 33.8133 55.5942 33.909C56.2632 33.9902 56.927 34.107 57.5963 34.1987C57.8127 34.2283 57.9757 34.34 58.1302 34.4889C58.6631 35.0019 59.0394 35.6295 59.3348 36.3142C59.6869 37.1283 59.9282 37.9794 60.0883 38.8568C60.0511 38.9799 59.9559 38.9815 59.8596 38.9752C59.4344 38.9482 59.008 38.9168 58.5845 38.8752C58.2107 38.8386 57.8356 38.8212 57.4623 38.7991C56.8674 38.7644 56.2716 38.6964 55.6737 38.7311C55.4429 38.7448 55.2155 38.6836 54.9853 38.6799C54.6737 38.675 54.5769 38.746 54.4687 39.0504C53.8315 40.8452 53.3067 42.6772 52.8456 44.5302C52.133 47.3925 51.5896 50.2925 51.1325 53.2107C51.0101 53.9908 50.9103 54.7744 50.8011 55.5566C50.7788 55.7158 50.7625 55.8787 50.6664 56.0158C50.5912 56.0951 50.4956 56.1005 50.4039 56.0753C49.9754 55.9587 49.5498 55.8286 49.1222 55.7086C49.0887 55.7006 49.0578 55.6843 49.0317 55.6606C49.0056 55.6371 48.9856 55.6073 48.9731 55.5736C48.9042 55.3783 48.9475 55.18 48.9752 54.9876C49.4108 51.8309 49.9442 48.6939 50.6459 45.5903C51.1421 43.3954 51.7076 41.2227 52.4319 39.0979C52.5417 38.7765 52.48 38.6832 52.1598 38.6794C50.8898 38.6645 49.6221 38.7109 48.3528 38.7749C47.7149 38.8072 47.0775 38.8349 46.4412 38.891C46.3989 38.891 46.356 38.8926 46.3132 38.8928C45.649 38.8975 45.6337 38.9129 45.4242 39.564C44.2054 43.3493 43.3534 47.2298 42.6952 51.1618C42.4984 52.3377 42.3257 53.5177 42.1504 54.6971C42.1346 54.8051 42.1232 54.9115 42.0587 55.002C41.9973 55.1065 41.8956 55.1204 41.7937 55.137C41.2642 55.218 40.7315 55.2745 40.2044 55.373C40.0857 55.3955 39.94 55.4221 39.916 55.2208C40.0045 54.5991 40.0929 53.9775 40.1816 53.3559C40.4113 51.7389 40.6714 50.1275 40.9619 48.5222C41.3429 46.4185 41.7785 44.3314 42.3168 42.2695C42.5731 41.2913 42.8379 40.3155 43.1602 39.3585C43.2729 39.0232 43.2724 39.0232 43.0287 38.7914C42.4406 38.2305 41.8546 37.6675 41.2635 37.1102C41.1548 37.0096 41.079 36.876 41.0459 36.7278C40.8458 35.9104 40.6358 35.0957 40.4292 34.28C40.3936 34.1966 40.3764 34.1059 40.3801 34.0144Z" fill="#45423D"/>
<path d="M40.3805 34.0127C40.4117 34.0979 40.4471 34.1821 40.4289 34.2773C40.378 34.1968 40.313 34.1179 40.3805 34.0127Z" fill="#A9A9A9"/>
<path d="M53.948 57.4842C52.9659 56.9285 51.9361 56.4905 50.883 56.1109C50.7871 56.0765 50.6864 56.0509 50.6133 55.9678C50.7217 55.1765 50.8218 54.3836 50.9398 53.5937C51.2132 51.765 51.5326 49.9455 51.8977 48.1349C52.4539 45.3908 53.1193 42.6781 53.9941 40.0257C54.1342 39.6012 54.2792 39.1786 54.4249 38.7564C54.4984 38.543 54.5017 38.5421 54.7188 38.5486C55.9302 38.5847 57.1413 38.6336 58.351 38.7136C58.9298 38.7516 59.5067 38.8079 60.0848 38.8558C61.0399 38.9526 61.9916 39.0764 62.9415 39.2184C63.3453 39.2787 63.7491 39.3345 64.1501 39.413C64.3805 39.51 64.5236 39.6957 64.6628 39.9091C65.192 40.7211 65.6133 41.5978 65.9642 42.5015C66.3312 43.4466 66.6668 44.4105 66.8933 45.4094C66.9824 45.8027 67.1095 46.1858 67.2009 46.5777C67.5011 47.867 67.8335 49.1482 68.076 50.4524C68.2002 51.1212 68.3324 51.7896 68.4958 52.4506C68.5398 52.6265 68.6119 52.8255 68.3967 52.9521C68.3736 52.9791 68.355 53.0128 68.3264 53.0289C67.9461 53.2409 67.6894 53.5858 67.4397 53.9377C67.0222 54.5251 66.6089 55.1155 66.1941 55.7053C66.0775 55.7593 65.9807 55.7143 65.8855 55.6422C65.3861 55.2652 64.8818 54.8949 64.3728 54.5309C64.1143 54.3454 64.0945 54.2526 64.2679 53.9789C64.5143 53.59 64.7789 53.2146 65.0331 52.8313C65.1308 52.684 65.2353 52.5406 65.3151 52.3812C65.4587 52.0924 65.4059 51.8043 65.1853 51.6316C64.9642 51.4592 64.6886 51.4941 64.4768 51.7445C64.2094 52.0605 63.9988 52.4227 63.7705 52.7706C63.0456 53.8711 62.3195 54.9708 61.5915 56.0697C61.5233 56.1728 61.4535 56.2759 61.4074 56.3937C61.3006 56.6611 61.3748 56.9364 61.5906 57.0846C61.8133 57.238 62.0702 57.208 62.259 56.9799C62.5229 56.6613 62.7326 56.2985 62.9625 55.9538C63.1086 55.7327 63.255 55.5112 63.4063 55.2938C63.5115 55.1428 63.6281 55.1202 63.7798 55.2228C64.3328 55.5973 64.8608 56.0097 65.4003 56.4046C65.4906 56.4707 65.5797 56.5489 65.5765 56.6846C65.4075 56.9743 65.2393 57.2645 65.0694 57.5534C64.984 57.6983 64.8927 57.8391 64.8085 57.9853C64.4575 58.5895 64.4466 59.2141 64.7491 59.8341C65.5637 61.5037 66.4099 63.1553 67.3652 64.7421C67.4841 64.9399 67.6117 65.1305 67.7311 65.3267C68.0678 65.8792 68.5705 66.1007 69.1626 66.1198C69.733 66.1373 70.3022 66.0714 70.8706 66.019C70.8573 68.5188 70.1784 70.8055 68.9073 72.9103C68.729 73.2045 68.5365 73.3304 68.1893 73.3199C67.2691 73.2906 66.3477 73.3146 65.4268 73.3171C65.2409 73.2899 65.2474 73.1168 65.2216 72.9864C65.1127 72.4505 64.9691 71.9247 64.8173 71.4004C64.2348 69.378 63.3905 67.4499 62.3078 65.6709C61.958 65.0956 61.5673 64.5524 61.201 63.9906C60.8605 63.5221 60.493 63.0764 60.1141 62.6438C59.4385 61.8732 58.7378 61.129 57.9707 60.4564C56.8615 59.4899 55.6732 58.6281 54.42 57.8817C54.2464 57.7717 54.0383 57.7035 53.948 57.4842Z" fill="#B9E1E1"/>
<path d="M68.344 53.0148C68.415 52.8529 68.4089 52.6294 68.3722 52.4768C68.0482 51.1467 65.7619 41.8749 64.4693 39.8343C64.3125 39.5872 64.2757 39.5215 64.1523 39.4131C64.7598 39.4629 65.3548 39.5979 65.9567 39.6865C66.003 39.6921 66.047 39.7089 66.0861 39.7361C66.1245 39.7629 66.1564 39.7992 66.1794 39.8418C66.987 42.4253 67.6796 45.0423 68.2577 47.6931C68.6121 49.3084 68.9756 51.0441 69.2644 52.6741L69.2689 52.6846C69.327 52.7984 69.3419 52.767 69.0035 52.8117C68.7941 52.8398 68.5118 52.9385 68.344 53.0148Z" fill="#DCF9FB"/>
<path d="M49.0312 55.541C48.5055 55.4331 47.9802 55.3151 47.4533 55.2199C46.8245 55.1077 46.1905 55.0304 45.554 54.9881C44.9517 54.9467 44.3546 54.9339 43.7511 54.9327C43.412 54.9327 43.0685 54.9674 42.7273 54.9411C42.5877 54.8282 42.6128 54.6751 42.6331 54.5212C42.9224 52.3227 43.2589 50.1334 43.6976 47.9595C44.0052 46.4284 44.3515 44.908 44.7777 43.4099C45.1847 41.9786 45.659 40.5725 46.394 39.2836C46.5045 39.0898 46.522 38.9294 46.4049 38.7477C46.4859 38.7135 46.572 38.7137 46.6569 38.7095C48.5911 38.6173 50.5251 38.517 52.4621 38.5357C52.5456 38.5357 52.6324 38.5149 52.7139 38.5587C52.7462 38.6555 52.692 38.7346 52.6641 38.8154C51.81 41.2728 51.1646 43.796 50.6089 46.3448C50.1374 48.5073 49.7462 50.6861 49.4087 52.8759C49.2728 53.763 49.1574 54.653 49.0312 55.541Z" fill="#B9E1E1"/>
<path d="M46.5726 38.7153C46.9189 38.6724 46.8861 38.6925 46.6785 39.0662C46.1178 40.0751 45.6456 41.1124 45.2851 42.2069C45.0759 42.8411 44.8732 43.4813 44.7166 44.1357C44.5455 44.8497 44.3437 45.5554 44.1853 46.2731C44.0244 46.9994 43.8888 47.7311 43.7403 48.4603C43.5879 49.2068 43.4326 49.9527 43.3167 50.7065C43.1373 51.8767 42.9641 53.0475 42.797 54.2193C42.7631 54.4579 42.72 54.6978 42.727 54.9419C42.6407 54.9827 42.0491 55.0471 42.0039 54.9419C42.0428 54.3676 42.1452 53.8018 42.2294 53.2344C42.4379 51.8325 42.6725 50.4352 42.9327 49.0423C43.5399 45.8235 44.2881 42.6423 45.2909 39.5335C45.3543 39.3383 45.4292 39.1465 45.4853 38.9487C45.5181 38.833 45.5835 38.79 45.6882 38.7867C45.9284 38.7741 46.53 38.7134 46.5726 38.7153Z" fill="#DCF9FB"/>
<path d="M78.5504 78.31C77.9535 78.2616 77.2891 77.7673 76.8143 79.0445C76.3423 80.31 77.0361 80.7978 76.9316 80.7553C76.8799 80.7483 76.828 80.7464 76.7759 80.7504C76.3854 80.7553 75.9816 80.6871 75.5916 80.6866C75.4535 80.6196 75.4859 80.5009 75.5089 80.3852C75.7054 79.3898 76.0063 78.4212 76.4061 77.4959C76.9353 76.2827 77.5828 75.1468 78.3943 74.1153C79.5225 72.6824 80.8437 71.4957 82.3807 70.5739C83.9797 69.6139 85.6966 69.0204 87.5158 68.7616C88.3943 68.6369 89.2806 68.5906 90.1689 68.656C90.5056 68.6811 90.7691 68.5361 90.9499 68.2436C91.0242 68.1242 91.1056 68.0339 91.2322 67.9864C91.3786 67.9848 91.5117 68.0502 91.6514 68.0828C91.9588 68.1559 91.9907 68.1438 92.1254 67.8508C92.3433 67.3774 92.5695 66.9082 92.8511 66.4707C92.92 66.4239 92.9777 66.3601 93.0193 66.2854C93.3842 65.6971 93.8506 65.2105 94.3989 64.8111C94.4145 64.8034 94.432 64.8002 94.4485 64.8025C94.6473 64.8025 94.6989 64.9619 94.7466 65.1178C94.9568 65.8028 95.1928 66.4756 95.4849 67.1277C95.9685 68.2075 96.5654 69.2069 97.3322 70.0884C97.446 70.2202 97.5906 70.3374 97.5235 70.5516C97.1246 71.2898 96.7253 72.028 96.3259 72.7657C96.2673 72.8742 96.2028 72.9794 96.1407 73.0862C96.0294 73.2719 95.904 73.4478 95.766 73.6124C95.7304 73.5847 95.6922 73.5607 95.6522 73.54C95.6291 73.5286 95.5856 73.4876 95.563 73.4746C95.1451 73.2354 95.2044 73.2195 95.4129 72.7727C95.5433 72.4911 95.6115 72.2056 95.5288 71.8881C95.496 71.7566 95.4381 71.6342 95.3585 71.5278C95.2786 71.4217 95.179 71.334 95.0657 71.2702C94.7985 71.1171 94.5207 70.9726 94.2153 70.9058C93.7869 70.812 93.3391 71.0212 93.1327 71.4292C93.0645 71.5644 93.0168 71.7094 92.9535 71.8467C92.8627 72.0475 92.8103 72.0755 92.6123 72.0161C92.0866 71.8581 91.5557 71.7289 91.0111 71.6652C90.9599 71.6586 90.9115 71.6379 90.8608 71.633C90.7156 71.6151 90.6541 71.5251 90.6558 71.3775C90.6558 71.2337 90.6464 71.0892 90.6558 70.9453C90.6893 70.4012 90.3602 70.0333 89.8829 69.9341C89.5384 69.8622 89.1831 69.8671 88.8409 69.9483C88.4032 70.0519 88.1439 70.3335 88.083 70.8124C88.0583 70.9895 88.0439 71.1688 88.0394 71.348C88.0373 71.5818 88.022 71.6014 87.7981 71.6477C87.5218 71.705 87.2435 71.748 86.9668 71.8029C86.6819 71.8606 86.4001 71.9321 86.1213 72.0177C85.9398 72.0734 85.8974 72.051 85.8215 71.8727C85.7522 71.7087 85.6868 71.5432 85.5972 71.3894C85.3605 70.9842 84.9325 70.7973 84.4948 70.916C84.1801 71.0026 83.8808 71.1415 83.6085 71.3284C83.2113 71.5986 83.0661 72.1087 83.2345 72.5893C83.2846 72.732 83.3577 72.8653 83.4165 73.0054C83.4903 73.1814 83.4836 73.2235 83.3374 73.3178C82.8196 73.6517 82.3406 74.0413 81.8643 74.4351C81.7251 74.5507 81.6864 74.5517 81.5566 74.4253C81.4407 74.3059 81.3173 74.1942 81.1886 74.0913C80.8223 73.8123 80.3217 73.809 79.9773 74.1153C79.7376 74.329 79.5104 74.5615 79.3394 74.847C79.0801 75.2792 79.1402 75.7923 79.4932 76.1433C79.6359 76.2855 79.6505 76.2962 79.8828 76.4635C79.5263 76.8389 78.8293 77.8541 78.6252 78.2534" fill="#414141"/>
<path d="M73.7793 80.636C72.3452 80.6344 70.9111 80.6328 69.4771 80.6311C67.1973 80.6311 64.9184 80.6311 62.6388 80.6311C62.1129 80.6311 62.104 80.6137 62.1773 80.0705C62.2285 79.6744 62.2378 79.2795 62.0265 78.9192C61.7994 78.5308 61.478 78.2818 61.0467 78.2122C60.8361 78.1761 60.6239 78.1533 60.4109 78.144C60.1547 78.1363 60.1079 78.0693 60.0984 77.797C60.0677 76.9166 59.9995 76.0415 59.8389 75.1742C59.7751 74.8309 59.7926 74.802 60.1193 74.7071C60.3835 74.6303 60.6409 74.5351 60.8764 74.3857C61.4626 74.0142 61.6344 73.3794 61.494 72.7273C61.4296 72.4298 61.3323 72.1399 61.2378 71.851C60.9918 71.1019 60.3404 70.7123 59.6022 70.858C59.3492 70.908 59.1067 70.993 58.8631 71.0742C58.6627 71.1417 58.6376 71.1347 58.5445 70.9299C58.1567 70.0684 57.6992 69.2436 57.177 68.4644C57.0787 68.3194 57.0841 68.2738 57.2335 68.1556C57.4385 67.9915 57.6045 67.7839 57.7948 67.604C58.2522 67.1721 58.244 66.2628 57.9703 65.8285C57.7125 65.4199 57.3857 65.0722 57.0301 64.7671C56.5828 64.3814 55.7985 64.3677 55.3012 64.8385C55.1301 65.001 54.9358 65.1359 54.7843 65.3207C54.6935 65.432 54.6097 65.4341 54.5022 65.3386C54.2488 65.112 53.9928 64.8881 53.7298 64.674C53.3176 64.3384 52.8838 64.0365 52.444 63.7417C52.0628 63.4861 52.0805 63.5434 52.2743 63.1205C52.3553 62.952 52.4263 62.7786 52.487 62.6008C52.7088 61.9094 52.5078 61.1516 51.8007 60.7737C51.4956 60.6115 51.1893 60.4444 50.8605 60.3501C50.399 60.2179 49.9487 60.2422 49.5433 60.5596C49.3787 60.6899 49.2468 60.8605 49.1586 61.0567C49.0494 61.2904 48.9535 61.531 48.849 61.767C48.7699 61.945 48.7525 61.9562 48.5737 61.8968C47.8883 61.6702 47.1876 61.5152 46.4787 61.3965C46.3105 61.3697 46.1415 61.3425 45.9728 61.3171C45.7284 61.2799 45.7096 61.2599 45.7051 60.9897C45.7019 60.7651 45.7026 60.54 45.7051 60.3145C45.7109 59.6904 45.3977 59.2884 44.8906 59.0278C44.7449 58.9503 44.5852 58.9058 44.4223 58.8975C44.0393 58.8837 43.6555 58.8579 43.2731 58.9244C42.544 59.0529 42.0911 59.5893 42.0685 60.366C42.0629 60.5635 42.0685 60.7614 42.0662 60.9599C42.0625 61.2631 42.0508 61.2724 41.7737 61.3187C40.9221 61.4609 40.0731 61.6159 39.2458 61.8796C39.0484 61.9422 39.0249 61.9287 38.9346 61.7237C38.8488 61.5277 38.765 61.3311 38.6784 61.1351C38.3375 60.3573 37.5469 60.1058 36.8184 60.3855C36.5454 60.4898 36.2792 60.612 36.0209 60.7516C35.5973 60.9822 35.3178 61.3388 35.2264 61.8463C35.1793 62.113 35.2031 62.3879 35.295 62.6411C35.3746 62.8696 35.48 63.0854 35.5794 63.3044C35.6636 63.4901 35.6541 63.5324 35.4931 63.6355C34.813 64.0703 34.1777 64.5704 33.5577 65.0936C33.4781 65.1611 33.4039 65.2367 33.3271 65.3061C33.1944 65.4231 33.1537 65.4231 33.0194 65.3012C32.8709 65.166 32.718 65.0359 32.5791 64.8902C32.0554 64.3416 31.075 64.3449 30.5667 64.9279C30.4168 65.0994 30.2739 65.2788 30.1201 65.4466C29.9341 65.6486 29.9218 65.6417 29.731 65.4564C29.569 65.2988 29.1871 64.9453 29.1599 64.9242C28.9055 64.6249 28.916 64.6228 29.1736 64.3165C31.3638 61.7121 34.1402 59.7295 37.2478 58.5509C38.8141 57.9568 40.4262 57.5695 42.0825 57.4192C43.0942 57.3307 44.1107 57.3205 45.1238 57.3889C46.4959 57.4757 47.8555 57.7129 49.1807 58.0969C50.268 58.4101 51.3255 58.8281 52.34 59.3459C53.033 59.6904 53.7054 60.0792 54.353 60.5109C55.2604 61.116 56.1192 61.7984 56.9212 62.551C57.6885 63.2769 58.4088 64.0561 59.0774 64.8832C59.1682 65.0019 59.2529 65.1257 59.3315 65.2537C59.9571 65.9975 60.4593 66.8337 60.9285 67.6885C61.8715 69.4016 62.5767 71.2474 63.0228 73.1701C63.179 73.843 63.2823 74.5258 63.398 75.2067C63.4981 75.8007 63.9116 76.0038 64.4194 75.7162C65.0559 75.3562 65.4602 74.4986 65.3678 73.7396C65.3473 73.5751 65.2396 73.3887 65.4074 73.2339C65.5405 73.155 65.6869 73.1615 65.8321 73.1608C66.6005 73.1587 67.3685 73.1506 68.1363 73.1648C68.4533 73.1708 68.6655 73.0459 68.8354 72.7692C69.4703 71.7324 69.9544 70.6013 70.2707 69.4135C70.5204 68.4863 70.6998 67.5454 70.7603 66.5809C70.768 66.4823 70.7664 66.3827 70.7559 66.284C70.7426 66.1669 70.7701 66.0703 70.873 66.0089C71.0398 66.0056 71.4045 65.9838 71.421 65.9821C72.0585 65.9423 72.0585 65.9428 72.0596 66.6179C72.0596 67.1311 72.0568 67.6438 72.0613 68.1556C72.0652 68.6245 72.1839 68.769 72.6191 68.8845C73.661 69.164 74.7155 69.2545 75.7898 69.1956C76.2864 69.1684 76.7717 69.0746 77.2646 69.0332C77.3663 69.0213 77.4659 68.9941 77.5606 68.9527C77.8597 68.8316 77.9479 68.7097 77.9521 68.3669C77.96 67.729 77.95 67.0904 77.9576 66.4518C77.9593 66.3128 77.9323 66.1597 78.0496 66.0471C78.2432 65.89 78.428 66.0098 78.6007 66.0862C79.0282 66.2754 79.3493 66.611 79.6447 66.9743C80.1916 67.6466 80.597 68.4148 80.9819 69.1968C81.0157 69.2594 81.0299 69.3318 81.0227 69.4037C81.0096 69.5787 80.8891 69.6657 80.7664 69.7498C79.7592 70.4351 78.8555 71.249 78.0237 72.1573C77.0702 73.1985 76.2794 74.3624 75.6094 75.6203C74.8309 77.0811 74.3024 78.6381 73.9899 80.2797C73.9629 80.4175 73.9894 80.6128 73.7793 80.636Z" fill="#45423D"/>
<path d="M73.7787 80.6363C73.843 80.3295 73.9051 80.0221 73.9733 79.7182C74.5307 77.2161 75.6012 74.9836 77.1468 73.0003C78.1733 71.6751 79.3907 70.5278 80.755 69.5999C80.8329 69.5459 80.9193 69.5031 80.9684 69.4109C81.0294 69.3029 85.6816 66.149 90.8842 67.1623C91.1935 67.3992 91.2303 67.8549 91.062 68.2677C90.8975 68.6711 90.591 68.7974 90.1004 68.7853C89.6477 68.7735 89.1955 68.7479 88.745 68.7739C87.9863 68.8142 87.2327 68.915 86.4891 69.0758C84.4521 69.5259 82.5972 70.3977 80.9325 71.7133C78.9881 73.2504 77.5203 75.1944 76.5131 77.5231C76.1044 78.4738 75.797 79.4696 75.5956 80.4917C75.5831 80.5527 75.4162 81.5406 75.3646 81.977C75.3185 82.3817 75.1341 82.6645 74.7627 82.7981C74.2177 82.9943 73.6352 82.5754 73.6235 81.9684C73.617 81.6626 73.6796 81.3624 73.7231 81.0612C73.7408 80.9414 73.7594 80.6558 73.7787 80.6363Z" fill="#A19D98"/>
<path d="M69.3398 78.5326C68.4098 78.5326 67.4796 78.5352 66.5499 78.531C66.1142 78.5286 65.7984 78.3048 65.6185 77.894C65.4386 77.4825 65.4942 77.0839 65.7551 76.7269C65.9625 76.4446 66.2589 76.3364 66.5878 76.3254C66.8096 76.3182 67.0318 76.3226 67.2546 76.3226C68.8245 76.3238 70.3945 76.3247 71.9645 76.3259C72.2619 76.3259 72.5393 76.3799 72.7753 76.5928C73.1009 76.887 73.2333 77.3643 73.0976 77.7893C73.0315 78.0045 72.9024 78.1926 72.729 78.3266C72.5551 78.46 72.3462 78.5331 72.1311 78.5342C71.2009 78.5391 70.27 78.5326 69.3398 78.5326Z" fill="#FC4F4F"/>
<path d="M39.9157 55.2179C39.9739 55.2668 40.0405 55.2682 40.1089 55.2538C40.6909 55.1339 41.2793 55.0648 41.8683 55.0006C41.9197 54.9945 41.8941 54.9954 42.0394 54.9808C44.1078 54.8188 46.8652 54.9382 49.0335 55.5414C49.5115 55.6808 49.9931 55.7844 50.4718 55.9226C50.5206 55.9256 52.863 56.8282 53.773 57.3434C53.8545 57.4046 53.8943 57.4374 53.9524 57.4842C53.9897 57.9264 53.8594 58.2585 53.6143 58.5601C53.2731 58.9807 52.8223 59.282 52.3178 59.4729C51.6689 59.1757 51.0231 58.8715 50.3531 58.6278C49.1673 58.1966 47.9458 57.8836 46.7046 57.6932C45.6229 57.531 44.5307 57.4616 43.4385 57.4854C42.1497 57.5082 40.8667 57.6706 39.6095 57.9702C35.7076 58.8934 32.1694 61.0584 29.4751 64.1719C29.389 64.2715 29.301 64.3697 29.2147 64.4688C29.0353 64.6764 28.9568 64.8109 28.8246 64.9755C28.6049 65.2501 28.3911 65.5301 28.1772 65.8096C27.6773 66.4619 26.7988 66.4966 26.2516 65.8128C25.8811 65.3497 25.9439 64.6518 26.2456 64.2121C26.5742 63.7413 26.9256 63.2887 27.2982 62.8558C27.6792 62.4069 28.0501 61.9484 28.4676 61.536C29.0529 60.9586 29.6357 60.3768 30.272 59.8618C32.4454 58.1033 34.8274 56.7623 37.4528 55.9154C38.1465 55.6911 38.851 55.5056 39.5636 55.3601C39.6893 55.3354 39.821 55.3259 39.9157 55.2179Z" fill="#ED5050"/>
<path d="M61.2738 63.9113C61.9098 64.704 62.4274 65.5819 62.9269 66.4716C63.515 67.5174 64.0035 68.6148 64.4177 69.7498C64.7971 70.7914 65.1257 71.8497 65.344 72.943C65.3698 73.0661 65.4005 73.186 65.4292 73.3098C65.4864 73.6454 65.5518 73.9777 65.482 74.3231C65.3396 75.0324 65.004 75.5877 64.3637 75.8966C63.8268 76.156 63.3614 75.8851 63.2734 75.2696C63.043 73.6491 62.6662 72.0675 62.0918 70.5415C61.412 68.7358 60.5219 67.0578 59.3892 65.5213C59.3375 65.4511 59.2898 65.3764 59.2402 65.304C59.3629 64.8751 59.6166 64.5285 59.8607 64.1722C59.9982 63.9723 60.21 64.0049 60.3871 63.9462C60.6731 63.8513 60.9736 63.774 61.2738 63.9113Z" fill="#ED5050"/>
<path d="M61.1276 63.8751C59.7254 63.7557 59.2849 65.2128 59.2397 65.3042C58.6342 64.5272 57.9953 63.7829 57.2997 63.0926C55.8866 61.6856 54.2826 60.5073 52.5409 59.5964C52.4641 59.5568 52.3899 59.5154 52.3145 59.473C52.3796 59.392 52.9568 59.2729 53.4378 58.5819C53.8449 57.9973 53.9408 57.6007 53.9489 57.4844C54.4081 57.6661 54.8088 57.9612 55.2252 58.2235C55.945 58.6729 56.6369 59.17 57.2967 59.7118C57.8929 60.2054 58.4715 60.7195 59.0224 61.272C59.3998 61.65 59.7536 62.0505 60.1106 62.4468C60.5258 62.9081 60.9444 63.3721 61.2728 63.9121" fill="#ED5050"/>
<path d="M97.5024 70.5461C97.3519 70.2812 97.1229 70.0871 96.9385 69.8502C95.9478 68.577 95.2378 67.1434 94.7372 65.589C94.6799 65.4103 94.6278 65.2299 94.5698 65.0514C94.5456 64.9755 94.5275 64.8889 94.4253 64.8917C93.1623 63.7523 91.6375 63.117 90.1445 62.4211C87.8892 61.3713 85.5337 60.6496 83.1513 60.0135C81.2825 59.5148 79.3897 59.145 77.4907 58.8029C77.318 58.7717 77.1332 58.7566 77.0138 58.5867C76.9824 58.4636 76.9824 58.3379 76.9824 58.2122C76.9798 56.7244 76.9803 55.2363 76.9847 53.7485C76.9847 53.5865 76.9375 53.4001 77.1034 53.2803C77.4776 53.3773 77.8642 53.3773 78.2445 53.4329C78.9617 53.5377 79.6839 53.6156 80.4007 53.7299C81.3288 53.8763 82.2595 54.0064 83.1804 54.2009C83.8157 54.3359 84.4548 54.4495 85.0892 54.5922C85.8328 54.7593 86.5761 54.9284 87.3099 55.1251C88.5338 55.4528 89.7573 55.7851 90.9498 56.2273C91.4245 56.403 91.8953 56.5929 92.3762 56.7488C92.8658 56.9078 93.2498 57.2248 93.615 57.5818C94.41 58.3582 95.2026 59.1366 95.9695 59.9435C96.4822 60.4834 96.9969 61.0199 97.4859 61.5847C97.6977 61.8293 97.9321 62.0532 98.1527 62.2912C98.5334 62.7032 98.8876 63.1409 99.2781 63.5442C99.5912 63.8684 99.7766 64.2764 99.7997 64.7435C99.832 65.4 99.8118 66.0509 99.6538 66.6968C99.3624 67.8844 98.8255 68.9328 98.097 69.8802C97.9146 70.116 97.7259 70.3483 97.5024 70.5461Z" fill="#ED5050"/>
<path d="M65.5775 56.6789L63.8127 55.3891C63.7836 55.3708 63.7555 55.3498 63.7296 55.3265C63.623 55.2185 63.5586 55.2681 63.4915 55.3805C63.3915 55.5474 63.2791 55.7066 63.1713 55.8683C62.916 56.2502 62.6663 56.6366 62.404 57.0129C62.2092 57.2924 61.9623 57.3785 61.6893 57.2887C61.2813 57.1537 61.097 56.6905 61.2995 56.2896C61.3626 56.1632 61.4468 56.048 61.525 55.9302C62.4226 54.5748 63.321 53.2194 64.2197 51.8645C64.2758 51.7744 64.3382 51.6888 64.4057 51.6078C64.6401 51.3422 64.9954 51.3006 65.2645 51.4998C65.3948 51.5961 65.4872 51.74 65.5242 51.9036C65.5605 52.0674 65.5379 52.2394 65.4613 52.387C65.3815 52.545 65.2794 52.6904 65.1818 52.8375C64.903 53.2574 64.6214 53.6746 64.3415 54.0931C64.2298 54.2599 64.227 54.2634 64.3871 54.381C64.9882 54.8227 65.5912 55.2632 66.1942 55.7024L65.5775 56.6789Z" fill="#45423E"/>
<path d="M72.8539 52.9463C72.9365 53.0077 72.9309 53.101 72.9309 53.1892C72.933 54.7662 72.933 56.3429 72.9309 57.9192C72.933 57.9732 72.9244 58.0267 72.9051 58.0767C72.7995 58.2117 72.6486 58.2064 72.5062 58.2068C71.9782 58.2096 71.4506 58.1798 70.9232 58.1691C69.4493 58.1356 67.9757 58.1559 66.4998 58.1589C66.3976 58.1589 66.2947 58.1647 66.1995 58.2129C66.1435 58.2399 66.0923 58.2787 66.1004 58.353C66.1083 58.4272 66.1677 58.45 66.227 58.4665C66.2682 58.4777 66.3106 58.4831 66.3536 58.4819C67.0769 58.4656 67.8002 58.497 68.5252 58.4493C69.221 58.4032 69.9204 58.4172 70.6195 58.4614C71.2225 58.4996 71.8276 58.5154 72.4315 58.5385C72.5856 58.544 72.7389 58.5331 72.876 58.6295C72.9442 58.9909 73.0515 59.3484 72.9782 59.7244C72.9766 59.7589 72.9677 59.7924 72.9512 59.8222C72.8386 59.9637 72.6631 59.9667 72.5167 60.0309C72.2395 60.1524 72.1015 60.3507 72.1101 60.673C72.1499 62.1455 72.0398 63.6166 72.0592 65.0888C72.0612 65.2594 72.0645 65.4293 72.0827 65.5999C72.1213 65.9676 72.0249 66.0886 71.6724 66.1261C71.5795 66.1358 71.4852 66.1386 71.3908 66.1414C71.2267 66.1435 71.0628 66.1447 70.8995 66.131C70.4203 66.2101 69.9353 66.2154 69.4521 66.2503C68.5566 66.3136 67.8994 65.9299 67.4328 65.116C66.7853 63.9871 66.1318 62.8621 65.5395 61.6989C65.2738 61.1774 65.0268 60.6458 64.7466 60.131C64.2968 59.3044 64.2923 58.4961 64.8176 57.7048C65.0471 57.3599 65.2144 56.9715 65.4883 56.659C65.6401 56.2829 65.8861 55.9696 66.1071 55.6394C66.6143 54.8514 67.1495 54.085 67.726 53.3517C67.9019 53.1278 68.1468 52.9898 68.3723 52.829C68.6716 52.7438 69.757 52.721 70.0321 52.7117C70.3444 52.7005 70.6579 52.7072 70.9705 52.7117C71.1194 52.7126 72.5667 52.7952 72.8539 52.9463Z" fill="#ED5050"/>
<path d="M91.2444 68.1073C91.1475 68.0505 91.0875 67.9721 91.094 67.8478C91.1138 67.4696 90.8818 67.2835 90.5974 67.1445C90.2194 66.9991 87.3369 66.7135 84.4715 67.7624C83.4638 68.1062 82.4917 68.5348 81.5776 69.1027C81.4093 69.2072 81.2227 69.2786 81.0649 69.4038C81.0428 69.4213 81.0004 69.4099 80.9676 69.412C80.7425 69.0738 80.5941 68.6908 80.3916 68.3389C80.0781 67.7945 79.7462 67.266 79.3222 66.8073C78.9894 66.4466 78.6119 66.1703 78.1351 66.0691C78.0043 66.0798 77.9843 65.9786 77.9684 65.8803C77.954 65.7645 77.9491 65.6472 77.9535 65.5308C77.9535 64.7139 77.9398 63.8968 77.9568 63.0802C77.9729 62.3073 77.8886 61.5386 77.8991 60.7664C77.903 60.4727 77.7709 60.2735 77.5146 60.1592C77.4122 60.1136 77.3133 60.0615 77.2177 60.0026C77.1443 59.9572 77.0652 59.9104 77.0971 59.7952L77.1069 59.2111C77.1916 59.087 77.3073 59.1047 77.4304 59.124C78.8486 59.3489 80.2573 59.6265 81.6562 59.9572C83.3379 60.358 85.0101 60.7978 86.6471 61.371C87.9597 61.8302 89.2585 62.3292 90.5159 62.9401C91.1122 63.2298 91.7205 63.4963 92.2653 63.8884C92.4704 64.0362 92.6349 64.2329 92.7911 64.4372C93.1625 64.9231 93.0682 65.4877 93.0338 66.0407C93.0233 66.2134 92.9451 66.3742 92.9314 66.5478C92.6102 67.0621 92.3361 67.607 92.1129 68.176C92.0673 68.2942 92.0061 68.3382 91.8781 68.2926C91.6716 68.2188 91.4566 68.1683 91.2444 68.1073Z" fill="#ED5050"/>
<path d="M92.9337 66.5488C92.8622 66.4045 92.8739 66.2482 92.9002 66.0999C92.9562 65.7871 92.9365 65.4734 92.9365 65.1595C92.9365 64.8516 92.7747 64.613 92.5983 64.394C92.3761 64.1199 92.1038 63.896 91.798 63.7354C90.3665 62.969 88.8847 62.3311 87.368 61.7772C86.2723 61.3765 85.1666 61.0109 84.0433 60.7078C82.6229 60.325 81.1977 59.9717 79.7552 59.6818C78.9263 59.5154 78.0912 59.3906 77.2618 59.2284C77.2118 59.2186 77.1594 59.2168 77.1094 59.2109C77.1094 59.0131 77.1094 58.8155 77.1094 58.6187C77.6188 58.6696 78.1203 58.7764 78.6233 58.8716C79.2772 58.9954 79.9303 59.1272 80.5821 59.2663C81.2659 59.4141 81.9508 59.5575 82.6273 59.7469C83.1454 59.8917 83.6697 60.0148 84.1896 60.1572C85.4608 60.5063 86.7166 60.9071 87.957 61.3597C88.965 61.7277 89.9396 62.1833 90.9194 62.6241C91.8517 63.0451 92.7561 63.5327 93.6258 64.0824C93.8811 64.243 94.1155 64.4403 94.3563 64.6256C94.4415 64.691 94.5185 64.7699 94.4261 64.8921C94.101 65.1955 93.7654 65.4864 93.4773 65.8323C93.2853 66.0629 93.1159 66.3096 92.9337 66.5488Z" fill="#ED5050"/>
<path d="M72.8539 58.0791L72.8555 58.6711C71.1491 58.5236 67.9675 58.5236 66.3617 58.6188C66.2395 58.6127 66.118 58.5994 65.997 58.5792C65.9074 58.5578 65.7694 58.4361 65.7715 58.36C65.7759 58.2201 65.8523 58.1524 65.9514 58.1007C66.0752 58.0353 66.2402 58.0232 66.3794 58.0232C67.9159 58.0232 69.4528 57.9988 70.9886 58.0376C71.6097 58.0535 72.2322 58.0632 72.8539 58.0791Z" fill="#ED5050"/>
<path d="M99.1907 65.2617C99.1991 65.8426 99.0885 66.3769 98.9305 66.9022C98.6517 67.8312 98.1979 68.6597 97.6198 69.4166C97.5025 69.5702 97.4964 69.5708 97.3745 69.4189C96.8122 68.723 96.3628 67.9515 95.9772 67.1354C95.6879 66.5224 95.4508 65.8872 95.2383 65.2414C95.1729 65.041 95.1806 65.0057 95.3709 64.9026C96.0361 64.543 96.7331 64.2875 97.4767 64.1758C97.8155 64.1246 98.1572 64.1257 98.496 64.0815C98.5302 64.0787 98.5642 64.0778 98.5984 64.0794C98.9207 64.0859 98.9712 64.129 99.0922 64.4385C99.1995 64.7136 99.1974 64.9996 99.1907 65.2617Z" fill="#FEFEFE"/>
<path d="M77.0738 53.4131C77.0738 55.1297 77.0926 58.8947 77.1327 59.9508C77.0375 60.0784 76.9137 60.0318 76.8027 59.9983C75.6006 59.6287 74.3912 59.6837 73.1775 59.9173C73.0753 59.9369 72.9757 59.9636 72.8894 59.8752L72.8826 59.8838C72.8265 59.8028 72.8826 51.4144 72.8756 50.8775C72.8724 50.6469 72.9091 50.4379 73.0181 50.2352C73.1517 49.9862 73.2682 49.7274 73.3928 49.4723C73.4097 49.4539 73.4328 49.4423 73.4575 49.4399C74.8564 50.0695 76.0121 50.7998 77.0657 51.9348C77.0503 52.3451 77.0657 52.8941 77.0738 53.4131Z" fill="#414141"/>
<path d="M73.4631 49.3417H73.4421L73.4219 49.3377C73.5226 49.0836 73.5285 48.8174 73.5275 48.5469C73.5243 47.7389 73.5368 46.9306 73.5296 46.1229C73.5268 45.8285 73.6111 45.5897 73.7861 45.3593C74.647 44.2226 75.5832 43.1509 76.5865 42.1518C77.2242 41.5167 77.9012 40.9267 78.645 40.4287C78.7862 40.4643 78.7257 40.5614 78.6938 40.6358C78.2379 41.6954 78.3022 42.8067 78.4458 43.9096C78.5086 44.3955 78.6366 44.8964 79.0201 45.2534C79.0476 45.276 79.0657 45.3085 79.0718 45.3446C79.0774 45.3805 79.0702 45.4175 79.0515 45.4482C78.1851 45.8724 77.5046 46.5313 76.9302 47.3221C76.8455 47.4389 76.7829 47.5623 76.8039 47.7161C76.7659 48.6789 76.7741 49.6408 76.806 51.2247C76.8043 51.2419 76.8022 51.2587 76.7994 51.2757C76.6712 51.3671 76.5877 51.2636 76.5083 51.193C76.1662 50.8861 75.8341 50.5677 75.465 50.2943C75.0617 49.9947 74.6486 49.7152 74.2013 49.4927C73.966 49.3761 73.7265 49.2972 73.4631 49.3417Z" fill="#A19D98"/>
<path d="M79.2009 40.3105C79.3735 40.4015 79.4622 40.5535 79.5057 40.7488C79.6174 41.2452 79.691 41.7502 79.7264 42.2589C79.7862 43.1291 79.6668 43.9711 79.4599 44.8064C79.4171 44.9802 79.3675 45.1517 79.2581 45.2953C79.1492 45.3149 79.1157 45.2316 79.0717 45.152C78.5623 44.2306 78.4699 43.2252 78.5332 42.1896C78.5413 42.0476 78.5634 41.9057 78.5723 41.7625C78.6007 41.2124 78.8257 40.6938 79.2009 40.3105Z" fill="#A19D98"/>
<path d="M77.6327 60.0556C77.8984 60.1785 78.0288 60.3588 78.0392 60.6937C78.0932 62.3814 78.0788 64.069 78.0828 65.7565C78.0828 65.8642 78.0937 66.3143 78.0925 66.4397C78.0888 67.1398 78.0772 67.8398 78.0865 68.5399C78.09 68.7863 77.9932 68.9269 77.7907 69.0156C76.1029 69.5022 73.9113 69.4778 72.3744 68.9616C72.0279 68.851 71.936 68.7149 71.9334 68.3379C71.9294 67.8443 71.9334 67.3506 71.9334 66.8563C71.9334 66.6506 71.9367 66.4439 71.9334 66.237C71.9294 66.0304 71.9844 62.8301 71.9844 62.7315C71.9844 61.9774 71.99 61.2229 71.9823 60.4687C71.9799 60.2315 72.063 60.0891 72.2732 59.9899C74.714 59.1775 75.9952 59.4139 77.6327 60.0556Z" fill="#A19D98"/>
<path d="M72.4382 64.4995V60.8592C72.4382 60.7963 72.4366 60.7333 72.4382 60.6702C72.4438 60.42 72.4643 60.3865 72.6924 60.2988C73.5507 59.952 76.0602 59.6239 77.3995 60.5548C77.6108 60.6721 77.645 60.7917 77.6536 61.0749C77.6883 61.7126 77.6285 66.4488 77.6306 68.2729C77.6306 68.3095 77.6306 68.3449 77.6306 68.3809C77.6241 68.6413 77.6076 68.6539 77.3567 68.7084C75.7944 69.0505 74.2409 69.0053 72.6942 68.6004C72.4648 68.5406 72.4527 68.5345 72.4527 68.2736C72.4503 67.4372 72.4503 66.6015 72.4527 65.7655C72.4527 65.3429 72.4527 64.9205 72.4527 64.4979L72.4382 64.4995Z" fill="#45423D"/>
<path d="M73.4047 49.393C73.4345 49.1622 73.5681 49.1382 73.8262 49.2017C74.1357 49.299 74.4322 49.4384 74.7078 49.6169C75.3212 50.0025 75.9086 50.427 76.4241 50.9535C76.5391 51.0712 76.6727 51.1697 76.7977 51.2758C76.8153 51.3533 76.8549 51.4233 76.9115 51.4764C77.0744 51.6305 77.0962 51.8087 77.0634 52.0338C76.7928 51.9933 76.6408 51.8232 76.4693 51.6237C76.0038 51.0838 75.4599 50.6465 74.8832 50.2485C74.5281 50.0032 73.984 49.7354 73.5895 49.5697C73.4543 49.5129 73.3887 49.5164 73.4047 49.393Z" fill="#DCF9FB"/>
<path d="M79.2036 40.3106C79.2948 40.363 79.3532 40.3872 79.1189 40.6057C78.8219 40.8861 78.6255 41.5927 78.6453 42.7517C78.6646 43.5201 78.6744 44.2041 79.2609 45.2956C79.2113 45.3766 79.1464 45.4362 79.0512 45.4483C78.0577 44.4199 78.154 41.2548 78.6446 40.4288C78.8478 40.2073 78.9664 40.1821 79.2036 40.3106Z" fill="#DCF9FB"/>
<path d="M126.719 63.9998C126.719 29.3605 98.6386 1.27979 63.9993 1.27979C29.36 1.27979 1.2793 29.3605 1.2793 63.9998C1.2793 98.6391 29.36 126.72 63.9993 126.72C98.6386 126.72 126.719 98.6391 126.719 63.9998Z" stroke="#CED3E6" stroke-width="1.1"/>
</g>
<defs>
<clipPath id="clip0_467_67077">
<rect width="128" height="128" fill="white"/>
</clipPath>
</defs>
</svg>
