<svg width="52" height="52" viewBox="0 0 52 52" fill="none" xmlns="http://www.w3.org/2000/svg">
<rect width="52" height="52" rx="15" fill="#F6F6F6"/>
<g clip-path="url(#clip0_772_99258)">
<path d="M39.4184 30.1743C39.5235 30.2584 39.5926 30.3311 39.6961 30.4175C39.7588 30.4697 39.7592 30.4697 39.8207 30.4127C39.8634 30.3729 39.905 30.3313 39.9489 30.2923C40.1257 30.1333 40.3637 30.141 40.5284 30.3141C40.5939 30.3835 40.6557 30.4568 40.7135 30.5337C40.8558 30.7223 40.8416 30.9688 40.6809 31.1404C40.6357 31.1886 40.5879 31.2341 40.5391 31.2781C40.4985 31.3146 40.4971 31.3501 40.5259 31.3959C40.5853 31.4902 40.6429 31.5857 40.6987 31.6824C40.7695 31.8049 40.8326 31.9323 40.8924 32.061C40.9492 32.1836 40.9492 32.1828 41.0673 32.1433C41.1244 32.1223 41.1826 32.1049 41.2416 32.0911C41.4339 32.0518 41.6161 32.1507 41.6981 32.3411C41.7478 32.4585 41.785 32.5814 41.8089 32.7076C41.8443 32.8876 41.7409 33.0872 41.5757 33.1758C41.5116 33.2099 41.4413 33.2247 41.3745 33.2502C41.2935 33.2811 41.2865 33.2872 41.2997 33.3713C41.3424 33.6363 41.3726 33.9026 41.3745 34.1718C41.375 34.2306 41.3958 34.2641 41.4537 34.2692C41.5033 34.2735 41.5524 34.2833 41.6019 34.2887C41.7986 34.3104 41.9324 34.4146 41.9907 34.62C41.9957 34.6378 42.0087 35.0081 41.9915 35.1084C41.9537 35.3301 41.7913 35.488 41.5778 35.497C41.5318 35.4992 41.4856 35.4961 41.4402 35.4876C41.356 35.4714 41.3002 35.509 41.28 35.5953C41.2299 35.8078 41.1625 36.0141 41.0902 36.2188C41.0688 36.278 41.0811 36.3299 41.1274 36.3714C41.1517 36.3933 41.2449 36.5 41.26 36.5356C41.2946 36.6172 41.145 36.4902 41.1105 36.469C41.0312 36.4206 40.0617 35.8514 39.7007 35.6471C39.7265 35.4442 39.8198 35.1847 39.8574 34.9845C40.0487 33.9651 39.8507 33.0351 39.2968 32.1861C38.8359 31.48 38.2049 31.0283 37.4301 30.8043C36.748 30.607 36.0721 30.6471 35.4088 30.9046C34.8602 31.1177 34.2594 31.467 33.9299 32.0171C33.892 32.0618 33.8742 32.0567 33.8145 32.0284C33.6083 31.919 32.7999 31.3593 32.4713 31.156C32.3256 31.0005 32.2292 30.7461 32.3386 30.5583C32.4167 30.4244 32.5216 30.3158 32.6341 30.2182C32.7923 30.0812 33.0216 30.0851 33.1895 30.2139C33.3979 30.3736 33.3977 30.3729 33.6002 30.2013C33.7058 30.1116 33.8185 30.032 33.9294 29.9501C34.0327 29.8739 34.0404 29.8432 33.9919 29.7237C33.8599 29.3979 33.9446 29.1503 34.2422 28.9892C34.3209 28.9447 34.4031 28.9077 34.4879 28.8785C34.7151 28.8049 34.9245 28.8912 35.048 29.1064C35.1768 29.3309 35.1761 29.3306 35.4186 29.2713C35.5467 29.2398 35.6767 29.2175 35.806 29.1924C35.9354 29.1673 35.955 29.1456 35.9624 29.0095C35.9654 28.9415 35.9751 28.874 35.9913 28.8081C36.0255 28.6766 36.0875 28.5612 36.2156 28.5094C36.4601 28.4103 36.7069 28.3913 36.9468 28.5215C37.0883 28.5983 37.1543 28.7303 37.1561 28.9014C37.1588 29.1578 37.1605 29.1599 37.396 29.2005C37.5508 29.2272 37.7024 29.2669 37.8546 29.3051C37.9701 29.3341 37.9999 29.3227 38.0449 29.2044C38.1588 28.9049 38.4419 28.7521 38.7759 28.9265C38.8706 28.976 38.9699 29.0121 39.0527 29.0919C39.2196 29.2527 39.2314 29.4903 39.1627 29.6635C39.153 29.6879 39.1414 29.7112 39.1318 29.7358C39.0861 29.8561 39.0812 29.9265 39.0812 29.9265C39.0812 29.9265 39.3149 30.0912 39.4184 30.1743Z" fill="#5F5F5F"/>
<path d="M39.6468 35.5487C39.7439 35.6475 41.041 36.4019 41.1527 36.4731C41.186 36.4777 41.2117 36.5011 41.2417 36.514L41.2401 36.5129C41.2632 36.5351 41.2854 36.5585 41.3063 36.5831L41.3051 36.5815C41.4079 36.7344 41.4072 36.8974 41.3478 37.0662C41.3101 37.1559 41.2648 37.2418 41.2123 37.3226C41.0902 37.5181 40.8649 37.5795 40.6668 37.4734C40.6065 37.4411 40.5481 37.4052 40.4909 37.3666C40.4493 37.339 40.4207 37.3464 40.3915 37.3874C40.2328 37.6106 40.0563 37.819 39.8641 38.0101C39.8254 38.0485 39.8208 38.0822 39.8535 38.1267C39.891 38.177 39.9259 38.2296 39.9595 38.2829C40.0964 38.4987 40.0596 38.7478 39.866 38.9077C39.7986 38.9632 39.7298 39.0172 39.6583 39.0667C39.4661 39.1994 39.2407 39.162 39.0943 38.9743C39.0538 38.9216 39.0159 38.8667 38.9807 38.8099C38.9495 38.7601 38.9182 38.7488 38.866 38.7805C38.6462 38.9135 38.4141 39.0185 38.1771 39.1114C38.0909 39.1455 38.0917 39.1467 38.1085 39.2425C38.1145 39.2759 38.1192 39.3096 38.1253 39.3429C38.1804 39.6237 38.1175 39.7758 37.8865 39.9199C37.8268 39.9551 37.7583 39.9496 37.6943 39.9676C37.5828 39.996 37.47 39.9937 37.3563 39.9877H37.3558C37.3186 39.9682 37.2821 39.9471 37.2457 39.9259C37.1364 39.829 37.0876 39.7014 37.0593 39.5551C37.0209 39.357 37.0443 39.3891 36.8726 39.3977C36.6452 39.409 36.4175 39.408 36.1902 39.3946C36.1019 39.3894 36.1017 39.389 36.0814 39.4759C36.072 39.5164 36.0614 39.5566 36.0556 39.5977C36.0187 39.8572 35.8221 40.0521 35.5088 39.9886C35.4321 39.9729 35.3561 39.9519 35.2812 39.9284C35.0669 39.8615 34.943 39.6418 34.986 39.4083C34.9967 39.349 35.0097 39.2901 35.0206 39.2307C35.0353 39.1499 35.0344 39.1457 34.9581 39.1152C34.8116 39.0567 34.6657 38.9969 34.5247 38.9246C34.4414 38.8819 34.359 38.8373 34.2769 38.7922C34.1915 38.7455 34.192 38.7448 34.1323 38.8299C34.1003 38.8753 34.0704 38.9224 34.0371 38.9662C33.891 39.1609 33.6606 39.2018 33.4659 39.0656C33.3916 39.0137 33.3193 38.9581 33.2497 38.8995C33.072 38.7496 33.0337 38.5034 33.1558 38.3001C33.1921 38.2396 33.2325 38.1818 33.2733 38.1247C33.3016 38.085 33.3034 38.0533 33.267 38.0168C33.0723 37.8229 32.8936 37.6115 32.733 37.3849C32.7026 37.3417 32.6725 37.342 32.633 37.3683C32.5849 37.4005 32.535 37.4299 32.485 37.4592C32.2607 37.589 32.027 37.525 31.8953 37.2915C31.8482 37.2079 31.7906 37.1312 31.7582 37.0374C31.6779 36.8051 31.7456 36.5898 31.9462 36.4603C31.9889 36.4328 32.0325 36.4074 32.0743 36.3798C32.1484 36.3316 32.1503 36.3302 32.1176 36.2461C32.0498 36.0713 31.9914 35.8925 31.9429 35.7107C31.9215 35.6311 31.9012 35.5503 31.8835 35.4694C31.8707 35.4103 31.8416 35.3875 31.7845 35.4002C31.739 35.4091 31.6931 35.4155 31.647 35.4195C31.3758 35.4499 31.1746 35.2772 31.1463 34.9894C31.1385 34.9099 31.1302 34.8314 31.125 34.7522C31.1177 34.6376 31.1521 34.5245 31.221 34.4361C31.2899 34.3477 31.3881 34.2908 31.4953 34.2771C31.5552 34.2693 31.6155 34.2643 31.6751 34.2544C31.7529 34.2408 31.7554 34.2391 31.7566 34.1527C31.7601 33.9637 31.7737 33.7751 31.7972 33.5877C31.807 33.5053 31.833 33.4253 31.8273 33.3409C31.8214 33.2831 31.7984 33.2474 31.7548 33.2293C31.7249 33.2201 31.7178 33.2161 31.6733 33.2043C31.5855 33.1816 31.5058 33.1411 31.4423 33.0728" fill="#414141"/>
<path d="M31.8314 33.3922C31.8415 33.3344 31.8181 33.2473 31.7622 33.2308C31.7143 33.2164 31.6376 33.1859 31.5899 33.1707C31.4006 33.1099 31.2818 32.951 31.261 32.7375C31.237 32.6466 31.3123 32.3526 31.3464 32.2573C31.4229 32.0473 31.6103 31.9248 31.8216 31.9588C31.8672 31.9659 31.912 31.9782 31.9551 31.9956C32.0349 32.0285 32.0963 32.0026 32.1315 31.922C32.2185 31.7234 32.3486 31.5267 32.4322 31.3268C32.5131 31.1337 32.4558 31.1497 32.4841 31.1564C32.5533 31.2198 33.5633 31.7422 33.8817 32.0152C33.6743 32.2538 33.2135 33.3341 33.1943 33.6955" fill="#414141"/>
<path d="M33.8935 31.9982C34.5383 31.2569 34.9997 30.9387 35.6361 30.7464C36.0234 30.6284 36.4275 30.5856 36.8291 30.6198C37.5048 30.6777 38.1151 30.9286 38.6524 31.3722C39.1263 31.7636 39.4713 32.2593 39.7067 32.8439C39.8508 33.2015 39.9268 33.5753 39.9624 33.9628C40.0133 34.5175 39.9016 35.1373 39.7226 35.6544C39.6864 35.6885 39.027 35.2084 38.9564 35.1149C38.9403 35.0644 38.9603 35.0182 38.9724 34.9714C39.0372 34.7188 39.0792 34.4621 39.0717 34.1996C39.0362 32.9379 38.2279 31.8972 37.1102 31.6429C36.2852 31.4553 35.4105 31.6446 34.6098 32.5102C34.5896 32.5222 34.5833 32.4962 34.4474 32.3966C34.2191 32.2489 34.1068 32.1563 33.9509 32.0558C33.8615 32.0003 33.866 32.0302 33.8935 31.9982Z" fill="#414141"/>
<path d="M39.7358 35.618C39.7143 35.6543 39.6949 35.692 39.6777 35.7309C39.4811 36.2349 39.1661 36.6486 38.7826 36.9991C38.2806 37.4579 37.6984 37.7441 37.0374 37.836C36.8754 37.8587 36.7131 37.8833 36.5494 37.8779C36.0761 37.8619 35.6187 37.7692 35.1817 37.5667C34.9045 37.4375 34.645 37.269 34.4103 37.0658C34.0449 36.7514 33.7481 36.3737 33.5301 35.9261C33.3298 35.5138 33.2146 35.0777 33.1657 34.6181C33.123 34.2225 33.1565 33.8342 33.2344 33.447C33.3234 33.0052 33.4896 32.598 33.7216 32.2208C33.7546 32.1672 33.8506 32.0454 33.8818 32.0148C34.0503 32.108 34.5104 32.4311 34.5842 32.5013C34.6307 32.5659 34.5448 32.651 34.5182 32.6924C34.3768 32.9123 34.2603 33.1443 34.1854 33.3994C33.9244 34.2878 34.044 35.1147 34.5699 35.8581C35.0087 36.4783 35.6054 36.8183 36.3349 36.8963C37.3743 37.0073 38.441 36.3796 38.88 35.2718C38.9042 35.2107 38.8982 35.1141 38.9968 35.1094C39.0603 35.1868 39.6613 35.5744 39.7358 35.618Z" fill="#5F5F5F"/>
<path d="M38.9967 35.1095C38.9139 35.3352 38.8214 35.5552 38.6917 35.7561C38.2807 36.3922 37.7198 36.787 37.0056 36.923C36.2822 37.0606 35.62 36.8889 35.0314 36.4261C34.5135 36.0188 34.1831 35.4709 34.0555 34.8C33.9048 34.007 34.0631 33.2772 34.5046 32.6177C34.5211 32.593 34.5366 32.5681 34.5532 32.5434C34.5699 32.5222 34.7893 32.2646 34.8961 32.1694C35.3694 31.7477 35.9108 31.5315 36.5297 31.519C37.6891 31.4956 38.735 32.3305 39.0366 33.5435C39.1573 34.029 39.1541 34.5157 39.0228 34.9998C39.013 35.0357 39.0053 35.0729 38.9967 35.1095Z" fill="#EDAE50"/>
<path d="M37.2487 34.2431C37.2683 34.6583 36.9099 34.9796 36.57 34.9753C36.1821 34.9704 35.8637 34.6468 35.8672 34.2361C35.8705 33.8348 36.1655 33.5028 36.5748 33.5017C36.9158 33.5007 37.2676 33.8252 37.2487 34.2431Z" fill="#414141"/>
<path d="M37.2878 32.8633C37.3666 32.8547 37.4323 32.8844 37.4869 32.9466C37.5352 33.0017 37.5871 33.0535 37.6343 33.1098C37.7439 33.2401 37.677 33.4785 37.5352 33.5254C37.4733 33.5459 37.4165 33.5472 37.3621 33.5092C37.2453 33.4276 37.1458 33.3245 37.0575 33.2113C36.9636 33.0911 37.0113 32.9372 37.1508 32.8851C37.1946 32.868 37.2412 32.8605 37.2878 32.8633Z" fill="#FCD38C"/>
<path d="M18.6751 39.9454C18.4829 39.8378 18.3688 39.6706 18.3345 39.441C18.3228 39.3627 18.3025 39.2862 18.2874 39.2083C18.2767 39.1537 18.2509 39.1355 18.1974 39.1401C17.8572 39.1706 17.5154 39.1744 17.1747 39.1515C17.1285 39.1485 17.0823 39.1458 17.0365 39.1401C16.9928 39.1349 16.97 39.1541 16.9611 39.1988C16.9448 39.2802 16.923 39.3604 16.9104 39.4424C16.8714 39.6954 16.7412 39.8693 16.5193 39.9672C16.3774 40.0082 16.2356 39.9939 16.0937 39.966C15.9624 39.9399 15.8275 39.9278 15.7084 39.8544C15.6627 39.8186 15.6135 39.7877 15.5739 39.7433C15.4324 39.5843 15.3739 39.3986 15.4104 39.182C15.4242 39.1002 15.4424 39.0194 15.4579 38.9379C15.4841 38.7986 15.4839 38.7978 15.3618 38.7519C15.0838 38.6468 14.8127 38.5224 14.5501 38.3793C14.4869 38.3452 14.4228 38.3112 14.3624 38.2722C14.3162 38.242 14.2856 38.2483 14.2556 38.2949C14.2095 38.3666 14.1585 38.4346 14.1128 38.5068C13.9181 38.8143 13.536 38.9044 13.2357 38.658C13.157 38.5933 13.0739 38.5347 12.995 38.4705C12.7163 38.244 12.6655 37.8831 12.8685 37.5772C12.9217 37.4968 12.9761 37.4173 13.0316 37.3386C13.058 37.3016 13.0576 37.2713 13.0241 37.2408C13.0079 37.2262 12.9934 37.2095 12.9779 37.1938C12.7177 36.9307 12.4774 36.6462 12.2592 36.343C12.1973 36.2569 12.1967 36.2573 12.1058 36.3129C12.0441 36.3507 11.9828 36.3887 11.9212 36.4265C11.5972 36.6235 11.2753 36.537 11.075 36.1993C11.0476 36.1562 11.0372 36.1405 11.0085 36.0886C10.9731 36.0157 10.9304 35.9473 10.8984 35.8718C10.7618 35.55 10.8569 35.2207 11.1428 35.0389C11.2099 34.9962 11.278 34.9553 11.3458 34.9129C11.4359 34.8561 11.4369 34.8555 11.3981 34.7567C11.2735 34.4392 11.1707 34.1125 11.0905 33.7791C11.0773 33.7242 11.0627 33.6696 11.052 33.6142C11.0414 33.5587 11.011 33.5407 10.9601 33.5476C10.8649 33.5604 10.7697 33.5752 10.674 33.581C10.4283 33.5961 10.2388 33.4922 10.1105 33.268C10.0571 33.1758 10.037 33.0724 10.028 32.9656C10.0214 32.8861 10.0067 32.8147 10.0017 32.7293C9.98094 32.4071 10.1544 32.0023 10.5357 31.9732C10.6172 31.9671 10.6982 31.954 10.7795 31.9445C10.8735 31.9331 10.8768 31.9323 10.8789 31.8372C10.885 31.5575 10.9064 31.2784 10.943 31.0013C10.958 30.889 10.975 30.777 10.9936 30.6655C11.0115 30.5589 11.0116 30.5566 10.9117 30.5219C10.837 30.496 10.7622 30.4716 10.6886 30.445C10.3688 30.3302 10.2037 30.0064 10.2934 29.6617C10.3265 29.5344 10.3672 29.4089 10.4109 29.2851C10.523 28.966 10.8297 28.8051 11.1372 28.9016C11.2292 28.9305 11.3215 28.9593 11.411 28.9957C11.4683 29.0184 11.4937 28.9994 11.5178 28.9457C11.5745 28.8195 11.6361 28.6958 11.6958 28.5714C11.7172 28.5284 11.7369 28.4941 11.7562 28.4547C11.8203 28.3298 11.8883 28.2065 11.9698 28.0927C12.0432 28.0245 24.3888 35.7467 24.354 35.8357C24.3303 35.8812 24.3112 35.9251 24.2885 35.969C24.2449 36.0512 24.2038 36.1349 24.1574 36.2154C23.9813 36.5202 23.6607 36.613 23.3615 36.4468C23.2828 36.403 23.2073 36.3528 23.1301 36.306C23.0498 36.2574 23.0488 36.2569 22.9943 36.3319C22.8724 36.4994 22.745 36.6618 22.6119 36.8193C22.4928 36.9599 22.3669 37.0931 22.2388 37.2241C22.1798 37.2843 22.1799 37.2861 22.2253 37.3546C22.2765 37.4319 22.3305 37.5069 22.3812 37.5845C22.578 37.8855 22.5252 38.2477 22.2519 38.4692C22.1643 38.5403 22.0753 38.6093 21.9849 38.6762C21.7009 38.8855 21.3635 38.8283 21.1535 38.5354C21.1001 38.4603 21.0494 38.3823 20.996 38.3067C20.9477 38.2386 20.9459 38.2375 20.8752 38.2784C20.5852 38.4473 20.2843 38.5938 19.9746 38.7168C19.9312 38.7339 19.8875 38.7499 19.8444 38.7674C19.7663 38.7991 19.7648 38.8002 19.7803 38.8923C19.7941 38.9741 19.8056 39.057 19.8277 39.1365C19.9102 39.4334 19.738 39.792 19.3558 39.9182C19.1905 39.9729 18.8326 40.0125 18.6751 39.9454Z" fill="#414141"/>
<path d="M24.3307 35.8579C24.0714 35.6978 21.7636 34.1855 21.602 34.0906C21.5144 34.0435 21.5429 34.0378 21.5961 33.9316C21.7848 33.5027 21.9118 33.046 21.9729 32.5769C22.0169 32.2352 22.0145 31.892 21.988 31.5479C21.9632 31.2237 21.9059 30.9032 21.8171 30.5919C21.704 30.1952 21.5404 29.8239 21.3384 29.4692C21.1129 29.0735 20.8257 28.7357 20.5084 28.4241C20.2645 28.1845 19.9887 27.99 19.6976 27.821C19.2601 27.5653 18.7841 27.3928 18.291 27.3112C17.9813 27.2601 17.6687 27.2349 17.356 27.2567C16.6908 27.3033 16.061 27.4894 15.4752 27.8319C15.013 28.109 14.5994 28.4691 14.2526 28.8961C14.1642 29.005 14.0383 29.2219 13.9516 29.3318C13.9019 29.395 13.0737 28.8236 11.9472 28.1147C11.9887 28.0369 12.0288 27.9733 12.0732 27.9054C12.1009 27.8629 12.0986 27.8307 12.0625 27.7971C11.9934 27.7319 11.9245 27.6663 11.8567 27.5995C11.641 27.3867 11.5906 27.1044 11.7257 26.8271C11.7565 26.7636 11.8123 26.6143 11.8973 26.5058C11.9384 26.4533 11.9837 26.4055 12.0281 26.3565C12.2456 26.1173 12.6683 26.1133 12.8953 26.3338C13.17 26.6003 13.1339 26.5383 13.3652 26.3496C13.5629 26.1886 13.7629 26.0315 13.972 25.8873C14.0846 25.8097 14.0919 25.7722 14.0349 25.6422C13.9715 25.4973 13.9144 25.3515 13.9266 25.1859C13.9418 24.9814 14.0199 24.8065 14.177 24.6929C14.4013 24.5309 14.6394 24.3975 14.9256 24.4058C15.1619 24.4129 15.3275 24.5378 15.4475 24.7425C15.4902 24.8161 15.5234 24.8966 15.558 24.9754C15.5901 25.0492 15.642 25.0733 15.7147 25.053C16.0211 24.9677 16.3315 24.903 16.6439 24.8493C16.7574 24.8298 16.7803 24.7943 16.7847 24.6744C16.7867 24.6327 16.7867 24.591 16.7847 24.5494C16.7604 24.1682 17.0381 23.8481 17.3663 23.826C17.5472 23.8137 17.7285 23.7992 17.9081 23.8374C18.1722 23.8942 18.4322 24.1515 18.406 24.5048C18.4024 24.5536 18.405 24.603 18.406 24.6524C18.4084 24.7976 18.434 24.8332 18.5689 24.8537C18.8612 24.8972 19.1506 24.9601 19.4356 25.0419C19.5864 25.0857 19.6098 25.0698 19.6726 24.9198C19.7218 24.8024 19.7711 24.6847 19.8581 24.5904C20.0339 24.4005 20.2527 24.3698 20.4806 24.4234C20.6611 24.4659 20.8307 24.553 20.9861 24.6607C21.2393 24.8364 21.3316 25.1518 21.2286 25.4586C21.2072 25.5226 21.1814 25.5851 21.1544 25.6469C21.101 25.7681 21.1101 25.8124 21.2163 25.8839C21.4393 26.0325 21.654 26.1947 21.8594 26.3697C22.0845 26.5628 22.0443 26.5921 22.2926 26.3531C22.5101 26.1438 22.8459 26.1188 23.0442 26.2623C23.2452 26.4073 23.42 26.5902 23.5361 26.8189C23.6394 27.0227 23.6255 27.3973 23.4198 27.5856C23.3581 27.6424 23.3034 27.7076 23.246 27.7697C23.1964 27.8237 23.1897 27.8826 23.229 27.9442C23.4128 28.2322 23.5774 28.5335 23.7214 28.8461C23.7568 28.9228 23.8175 28.9423 23.8923 28.9172C23.9803 28.887 24.0701 28.8631 24.1611 28.8456C24.4044 28.8002 24.6724 28.9138 24.7973 29.141C24.9187 29.361 24.9932 29.6025 25.0008 29.8609C25.009 30.1449 24.876 30.3414 24.6483 30.4721C24.5727 30.5145 24.493 30.5481 24.4106 30.5723C24.3236 30.5987 24.2863 30.655 24.3038 30.7495C24.3652 31.0882 24.3856 31.4311 24.4058 31.7746C24.4111 31.8654 24.4525 31.9156 24.5383 31.9183C24.6024 31.9203 24.6655 31.933 24.7289 31.9419C25.0554 31.9873 25.2787 32.2575 25.2799 32.6088C25.2804 32.6769 25.2774 32.7449 25.2708 32.8125C25.2601 32.9193 25.2242 33.0723 25.196 33.1722C25.1142 33.4631 24.8382 33.6224 24.5536 33.6032C24.4614 33.597 24.3698 33.5812 24.2777 33.5716C24.1932 33.5627 24.1889 33.5639 24.1678 33.6531C24.1046 33.921 24.0357 34.1871 23.9453 34.4463C23.9032 34.5668 23.8598 34.6869 23.8122 34.805C23.7908 34.8574 23.7998 34.8896 23.8455 34.9169C23.9353 34.9709 24.0259 35.0238 24.1125 35.0835C24.3436 35.2425 24.4391 35.5319 24.355 35.808C24.3481 35.8253 24.34 35.842 24.3307 35.8579Z" fill="#666059"/>
<path d="M14.9174 29.8873C15.0242 29.751 15.1255 29.6095 15.2425 29.4817C15.7941 28.8788 16.4607 28.5248 17.2477 28.4306C17.9437 28.3473 18.6041 28.4761 19.214 28.8411C20.153 29.4031 20.7131 30.2597 20.8897 31.3887C20.9924 32.0446 20.9146 32.6848 20.6697 33.2995C20.6559 33.3343 20.6461 33.3708 20.6345 33.4064C20.6611 33.4656 20.6352 33.5164 20.6119 33.5677C20.4932 33.829 20.3369 34.0634 20.1561 34.2778C19.6361 34.8947 18.9997 35.3035 18.2273 35.445C17.202 35.6326 16.277 35.3803 15.4727 34.6752C14.8205 34.1032 14.4275 33.3627 14.3009 32.4748C14.2024 31.7837 14.2844 31.1103 14.5536 30.4671C14.6189 30.3112 14.6981 30.1638 14.7779 30.016C14.8105 29.9545 14.853 29.9085 14.9174 29.8873Z" fill="#EDAE50"/>
<path d="M15.5126 31.9238C15.495 30.6501 16.5193 29.6795 17.6059 29.6736C18.6716 29.6678 19.7351 30.5704 19.7369 31.9352C19.7387 33.202 18.772 34.1649 17.6436 34.1773C16.4143 34.1908 15.4901 33.112 15.5126 31.9238Z" fill="#45423D"/>
<path d="M19.6993 29.846C19.7169 30.0339 19.4956 30.1812 19.3418 30.0726C19.2375 29.999 19.1389 29.924 19.0563 29.8259C18.9372 29.6848 18.9643 29.5385 19.122 29.4462C19.2389 29.3781 19.3478 29.3732 19.4557 29.471C19.5316 29.5397 19.6052 29.6091 19.6597 29.6988C19.6873 29.7421 19.7012 29.7937 19.6993 29.846Z" fill="#FCD38C"/>
<path d="M15.9377 31.9392C15.9116 31.019 16.6126 30.1216 17.6301 30.1256C18.5806 30.1297 19.3226 30.9404 19.3131 31.9545C19.3038 32.9542 18.5245 33.738 17.5983 33.7259C16.6379 33.7133 15.9118 32.8537 15.9377 31.9392Z" fill="#EDAE50"/>
<path d="M17.6197 32.6602C17.2411 32.6602 16.9255 32.3253 16.9282 31.9218C16.9307 31.5242 17.2203 31.1915 17.6241 31.187C17.9923 31.1831 18.3139 31.5068 18.3119 31.9281C18.3099 32.3385 18.0066 32.6607 17.6197 32.6602Z" fill="#414141"/>
<path d="M18.419 30.7061C18.4587 30.7061 18.4976 30.7107 18.5314 30.7345C18.6782 30.8381 18.7568 30.9821 18.7516 31.1715C18.7488 31.2688 18.6176 31.3712 18.5281 31.3496C18.3767 31.313 18.2534 31.2333 18.1691 31.0899C18.0963 30.9659 18.1107 30.862 18.2198 30.7743C18.2789 30.7273 18.3464 30.7081 18.419 30.7061Z" fill="#FCD38C"/>
<path d="M14.9174 29.8873C14.8072 30.0728 14.7005 30.2599 14.6153 30.4607C14.4721 30.7993 14.3791 31.1595 14.3396 31.5285C14.2872 31.9937 14.3234 32.4655 14.446 32.9155C14.5686 33.3656 14.7752 33.7848 15.0534 34.1481C15.4763 34.7003 16.0092 35.0808 16.6477 35.293C17.0178 35.416 17.3988 35.4725 17.7848 35.4453C18.7945 35.3743 19.618 34.9171 20.2472 34.0707C20.3793 33.8923 20.4933 33.6994 20.5872 33.4954C20.6013 33.465 20.6187 33.4364 20.6345 33.407C20.7223 33.4507 21.4053 33.9199 21.5217 34.0066C21.5679 34.0406 21.547 34.0861 21.525 34.1277C21.4051 34.3555 21.2783 34.5789 21.1257 34.7842C20.7921 35.2331 20.4031 35.6158 19.9429 35.9158C19.4962 36.2072 19.0055 36.4142 18.4925 36.5277C18.0956 36.6167 17.6936 36.6299 17.2928 36.6033C16.7596 36.5685 16.2487 36.4249 15.7623 36.1848C15.4291 36.0223 15.1169 35.8152 14.8331 35.5683C14.2751 35.0792 13.8422 34.4883 13.5622 33.7747C13.3832 33.3167 13.2713 32.8321 13.2304 32.338C13.1663 31.6011 13.2761 30.8918 13.52 30.2023C13.6094 29.9499 13.7273 29.7131 13.8533 29.4802C13.8657 29.4575 13.8796 29.4347 13.8939 29.4135C13.9705 29.2977 13.985 29.2941 14.0989 29.3632C14.2901 29.4792 14.6578 29.7217 14.845 29.8432C14.87 29.8562 14.8942 29.871 14.9174 29.8873Z" fill="#666059"/>
<path d="M20.8534 32.6739C20.95 32.2167 20.959 31.7435 20.88 31.2826C20.801 30.8216 20.6355 30.3823 20.3935 29.9908C19.9889 29.4358 19.4806 28.9684 18.9166 28.6797C18.5645 28.5184 18.1873 28.4285 17.8042 28.4147C16.7928 28.3764 15.9258 28.7328 15.2196 29.5073C15.1085 29.6313 15.0042 29.762 14.9072 29.8988C14.8241 29.8458 14.059 29.4307 13.9515 29.3319C13.9088 29.2926 14.2423 28.8906 14.4137 28.7028C14.7884 28.2922 15.2119 27.953 15.6985 27.7046C16.1539 27.4547 16.6744 27.3119 17.1997 27.2525C17.6024 27.2062 18.0091 27.2176 18.409 27.2865C18.936 27.3789 19.422 27.597 19.8828 27.8886C20.1989 28.0862 20.4898 28.3261 20.7486 28.6022C21.257 29.1491 21.6313 29.7837 21.8421 30.5238C21.9764 30.9989 22.0415 31.4931 22.0351 31.9892C22.0282 32.7292 21.8535 33.4092 21.5999 33.9568C21.5496 34.0654 21.5952 34.0626 21.4494 33.9568C21.2703 33.8204 20.8234 33.5358 20.6348 33.407C20.6231 33.3975 20.7771 33.0384 20.8534 32.6739Z" fill="#45423D"/>
<path d="M16.1581 13.3858C16.0803 13.1227 16.0206 12.8544 15.9552 12.5878C15.9379 12.5176 15.9573 12.4987 16.0277 12.4805C19.9222 11.4731 24.6582 12.2429 27.0906 13.0266C27.4761 13.1737 27.8513 13.3447 28.1984 13.5786C28.349 13.6801 28.4919 13.792 28.6042 13.9421C28.6355 13.9832 28.6637 14.0269 28.6885 14.0727C28.7473 14.1842 28.7605 14.2965 28.7051 14.4184C28.577 14.7012 28.4376 14.9776 28.287 15.2477C28.1897 15.4236 28.0896 15.5977 27.991 15.7728C27.9445 15.8577 27.8924 15.939 27.8349 16.016C27.7846 16.0659 27.7281 16.0419 27.6739 16.0289C27.4357 15.9721 27.1951 15.9277 26.9583 15.8657C26.9409 15.8611 26.9232 15.8689 26.9055 15.8696C26.6575 15.7841 26.3957 15.7744 26.1438 15.7105C26.1108 15.7021 26.0821 15.7233 26.0505 15.7177C25.6368 15.6321 25.2174 15.589 24.8009 15.5281C24.6544 15.5066 24.5032 15.518 24.3612 15.4623C24.3069 15.4013 24.2971 15.3215 24.2789 15.2446C24.1739 14.7909 24.0375 14.3506 23.7876 13.9596C23.7495 13.9002 23.7082 13.8435 23.6649 13.7883C23.5349 13.6223 23.3797 13.5236 23.169 13.4942C22.6194 13.4173 22.0689 13.3508 21.5169 13.3011C20.5984 13.2178 19.6788 13.2036 18.7586 13.2175C18.3045 13.2242 17.8508 13.2563 17.3975 13.2979C17.0222 13.332 16.6478 13.3724 16.2744 13.425C16.2281 13.4298 16.1882 13.4268 16.1581 13.3858Z" fill="#EDAE50"/>
<path d="M29.0723 21.3071C28.8136 21.3051 28.5549 21.2995 28.2963 21.3033C28.2139 21.3045 28.1956 21.2535 28.1777 21.1904C28.1076 21.1677 28.1095 21.0995 28.0988 21.0427C28.0151 20.6055 27.9364 20.167 27.8454 19.7313C27.6217 18.6602 27.3703 17.5967 27.0644 16.5483C27.0117 16.3677 26.955 16.1884 26.9035 16.0073C26.8878 15.9522 26.8579 15.8921 26.9086 15.8369C26.9273 15.8142 26.9522 15.8142 26.9768 15.8189C27.2646 15.8757 27.5523 15.9325 27.835 16.0145C28.0206 16.5702 28.1767 17.1356 28.3208 17.7048C28.5166 18.4784 28.6846 19.2592 28.8412 20.0427C28.8996 20.3353 29.0716 21.2998 29.0723 21.3071Z" fill="#45423D"/>
<path d="M16.1582 13.3858C16.4983 13.324 16.8417 13.2881 17.1848 13.2554C17.4323 13.2317 17.681 13.2166 17.9291 13.1986C18.6184 13.1477 19.3084 13.1487 19.9981 13.1611C20.4991 13.1701 20.9997 13.1983 21.4998 13.2406C21.833 13.2688 22.1655 13.3012 22.4974 13.3415C22.7761 13.3756 23.0527 13.4248 23.3316 13.4634C23.4217 13.4758 23.4897 13.5228 23.5541 13.5854C23.7761 13.8012 23.9329 14.0652 24.056 14.3533C24.2026 14.6957 24.3032 15.0538 24.3699 15.4229C24.3544 15.4747 24.3147 15.4753 24.2745 15.4727C24.0974 15.4614 23.9199 15.4481 23.7433 15.4306C23.5876 15.4152 23.4312 15.4079 23.2757 15.3985C23.0278 15.384 22.7796 15.3554 22.5305 15.37C22.4344 15.3758 22.3396 15.35 22.2437 15.3484C22.1138 15.3464 22.0735 15.3763 22.0284 15.5043C21.7629 16.2594 21.5443 17.0301 21.3521 17.8096C21.0552 19.0137 20.8288 20.2337 20.6384 21.4613C20.5873 21.7894 20.5458 22.1191 20.5003 22.4482C20.491 22.5151 20.4842 22.5837 20.4441 22.6413C20.4128 22.6747 20.373 22.677 20.3347 22.6664C20.1562 22.6173 19.9789 22.5626 19.8007 22.5121C19.7868 22.5088 19.7738 22.5019 19.763 22.492C19.7522 22.4821 19.7438 22.4695 19.7386 22.4553C19.7098 22.3732 19.7279 22.2897 19.7394 22.2088C19.921 20.8809 20.1432 19.5612 20.4356 18.2556C20.6423 17.3322 20.8779 16.4182 21.1798 15.5243C21.2255 15.3891 21.1998 15.3498 21.0663 15.3482C20.5372 15.342 20.009 15.3615 19.4801 15.3884C19.2144 15.4021 18.9488 15.4137 18.6837 15.4373C18.666 15.4373 18.6481 15.438 18.6303 15.4381C18.3536 15.44 18.3472 15.4465 18.2599 15.7204C17.7521 17.3128 17.3971 18.9452 17.1228 20.5994C17.0408 21.0941 16.9689 21.5904 16.8958 22.0866C16.8892 22.132 16.8845 22.1768 16.8576 22.2149C16.832 22.2588 16.7897 22.2647 16.7472 22.2717C16.5265 22.3057 16.3046 22.3295 16.085 22.3709C16.0355 22.3804 15.9748 22.3916 15.9648 22.3069C16.0017 22.0454 16.0385 21.7839 16.0755 21.5223C16.1712 20.8421 16.2796 20.1643 16.4006 19.4889C16.5593 18.604 16.7409 17.726 16.9651 16.8585C17.0719 16.4471 17.1823 16.0365 17.3165 15.6339C17.3635 15.4928 17.3633 15.4928 17.2617 15.3954C17.0167 15.1594 16.7726 14.9226 16.5263 14.6881C16.481 14.6459 16.4493 14.5896 16.4356 14.5272C16.3522 14.1834 16.2647 13.8406 16.1787 13.4975C16.1638 13.4624 16.1568 13.4241 16.1584 13.3857L16.1582 13.3858Z" fill="#45423D"/>
<path d="M16.1586 13.3853C16.1716 13.4213 16.1864 13.4568 16.1789 13.497C16.1575 13.4631 16.1304 13.4297 16.1586 13.3853Z" fill="#A9A9A9"/>
<path d="M21.8128 23.2594C21.4036 23.0256 20.9745 22.8414 20.5357 22.6817C20.4958 22.6672 20.4538 22.6564 20.4233 22.6215C20.4685 22.2886 20.5103 21.955 20.5594 21.6228C20.6733 20.8535 20.8064 20.088 20.9585 19.3264C21.1903 18.172 21.4675 17.0307 21.8321 15.915C21.8904 15.7364 21.9508 15.5586 22.0115 15.381C22.0421 15.2912 22.0435 15.2908 22.134 15.2936C22.6387 15.3088 23.1434 15.3294 23.6474 15.363C23.8884 15.379 24.129 15.4026 24.3699 15.4229C24.7678 15.4635 25.1644 15.5157 25.5602 15.5753C25.7284 15.6007 25.8966 15.6242 26.0636 15.6572C26.1598 15.698 26.2192 15.7761 26.2772 15.8659C26.4977 16.2075 26.6734 16.5763 26.8195 16.9564C26.9724 17.354 27.1123 17.7596 27.2067 18.1798C27.2439 18.3452 27.2967 18.5064 27.3349 18.6712C27.4599 19.2137 27.5984 19.7526 27.6994 20.3013C27.7512 20.5827 27.8062 20.8638 27.8745 21.1419C27.8926 21.2159 27.9227 21.2996 27.8331 21.3529C27.8235 21.3642 27.8156 21.3784 27.8039 21.3851C27.6454 21.4743 27.5382 21.6195 27.4342 21.7675C27.2603 22.0146 27.0882 22.263 26.9154 22.511C26.8667 22.5337 26.8265 22.5149 26.7867 22.4845C26.5786 22.326 26.3685 22.1701 26.1566 22.0171C26.0488 21.939 26.0405 21.9 26.1128 21.7848C26.2154 21.6212 26.3257 21.4633 26.4316 21.3021C26.4723 21.2401 26.5158 21.1797 26.5491 21.1127C26.609 20.9912 26.587 20.8699 26.4949 20.7974C26.4028 20.7248 26.2881 20.7395 26.1998 20.8448C26.0884 20.9778 26.0006 21.1301 25.9055 21.2765C25.6034 21.7395 25.3008 22.2021 24.9977 22.6644C24.9691 22.7078 24.9401 22.7512 24.9208 22.8007C24.8764 22.9131 24.9073 23.029 24.9971 23.0914C25.09 23.1559 25.1969 23.1432 25.2757 23.0473C25.3858 22.9133 25.4729 22.7606 25.5687 22.6156C25.6298 22.5226 25.6907 22.4294 25.7537 22.338C25.7976 22.2744 25.8461 22.2649 25.9093 22.3081C26.1398 22.4657 26.3598 22.6391 26.5846 22.8052C26.6223 22.8331 26.6594 22.866 26.6579 22.923C26.5876 23.0449 26.5175 23.167 26.4467 23.2885C26.4112 23.3495 26.373 23.4088 26.3379 23.4702C26.1917 23.7244 26.1872 23.9871 26.3132 24.2479C26.6526 24.9503 27.0053 25.6452 27.4033 26.3127C27.4528 26.3958 27.5061 26.476 27.5559 26.5586C27.6961 26.7911 27.9055 26.8844 28.152 26.8922C28.3898 26.8997 28.627 26.872 28.8638 26.8498C28.8584 27.9014 28.5754 28.8635 28.0458 29.7488C27.9715 29.8727 27.8913 29.9256 27.7467 29.9211C27.3633 29.9089 26.9794 29.9188 26.5956 29.92C26.5181 29.9086 26.5209 29.8357 26.5102 29.7809C26.4647 29.5553 26.4049 29.3341 26.3416 29.1136C26.099 28.2629 25.7472 27.4518 25.2961 26.7034C25.1503 26.4614 24.9875 26.2329 24.8349 25.9965C24.6929 25.7995 24.5399 25.6119 24.3819 25.4299C24.1006 25.1058 23.8086 24.7927 23.489 24.5098C23.0267 24.1031 22.5316 23.7406 22.0094 23.4266C21.9371 23.3804 21.8504 23.3516 21.8128 23.2594Z" fill="#B9E1E1"/>
<path d="M27.81 21.3792C27.8396 21.3111 27.837 21.217 27.8216 21.1528C27.6868 20.5934 26.7342 16.6928 26.1955 15.8344C26.1302 15.7304 26.1148 15.7028 26.0635 15.6572C26.3165 15.6781 26.5646 15.7349 26.8154 15.7722C26.8346 15.7745 26.853 15.7817 26.8691 15.793C26.8852 15.8044 26.8985 15.8196 26.9081 15.8375C27.2445 16.9244 27.5331 18.0253 27.774 19.1404C27.9216 19.82 28.0731 20.5502 28.1935 21.2359C28.1938 21.2374 28.1944 21.2389 28.1952 21.2403C28.2195 21.2881 28.2257 21.2749 28.0848 21.2937C27.9974 21.3056 27.88 21.3471 27.81 21.3792Z" fill="#DCF9FB"/>
<path d="M19.7633 22.4421C19.5443 22.3966 19.3254 22.347 19.1058 22.307C18.8439 22.2598 18.5797 22.2273 18.3145 22.2094C18.0636 22.1921 17.8147 22.1867 17.5633 22.1861C17.422 22.1861 17.2789 22.2008 17.1367 22.1897C17.0785 22.1422 17.089 22.0778 17.0974 22.0131C17.218 21.0882 17.3582 20.1673 17.541 19.2527C17.6691 18.6086 17.8134 17.969 17.991 17.3387C18.1606 16.7367 18.3582 16.1452 18.6644 15.6029C18.7106 15.5214 18.7178 15.4539 18.669 15.3774C18.7028 15.363 18.7387 15.3631 18.774 15.3614C19.5799 15.3226 20.3857 15.2804 21.1928 15.2883C21.2277 15.2883 21.2639 15.2795 21.2977 15.2979C21.3113 15.3387 21.2886 15.372 21.277 15.406C20.9211 16.4397 20.6522 17.5012 20.4207 18.5735C20.2243 19.4832 20.0612 20.3997 19.9206 21.3209C19.864 21.6941 19.8159 22.0685 19.7633 22.4421Z" fill="#B9E1E1"/>
<path d="M18.7396 15.3634C18.8839 15.3455 18.8702 15.3539 18.7837 15.5111C18.5501 15.9355 18.3534 16.3718 18.2031 16.8322C18.116 17.0991 18.0315 17.3684 17.9662 17.6437C17.895 17.944 17.8109 18.2409 17.7448 18.5428C17.6779 18.8484 17.6214 19.1563 17.5594 19.463C17.496 19.7771 17.4312 20.0909 17.383 20.4079C17.3082 20.9002 17.236 21.3928 17.1664 21.8857C17.1523 21.986 17.1343 22.087 17.1372 22.1897C17.1012 22.2069 16.8547 22.2339 16.8359 22.1897C16.8522 21.9481 16.8948 21.7101 16.9299 21.4714C17.0169 20.8816 17.1145 20.2937 17.223 19.7078C17.476 18.3537 17.7878 17.0155 18.2056 15.7077C18.2319 15.6255 18.2631 15.5448 18.2865 15.4617C18.3002 15.4129 18.3274 15.3949 18.3711 15.3935C18.4712 15.3882 18.7218 15.3626 18.7396 15.3634Z" fill="#DCF9FB"/>
<path d="M32.0629 32.0203C31.8144 32 31.5375 31.792 31.3397 32.3292C31.1431 32.8618 31.4321 33.0669 31.3885 33.049C31.367 33.0461 31.3453 33.0454 31.3237 33.0468C31.1609 33.0489 30.9926 33.0203 30.8301 33.02C30.7726 32.992 30.7861 32.9419 30.7958 32.8934C30.8776 32.4747 31.003 32.067 31.1696 31.6778C31.39 31.1676 31.6599 30.6895 31.998 30.2556C32.4679 29.6529 33.0186 29.1537 33.6589 28.7658C34.3253 28.3621 35.0407 28.1124 35.7985 28.0036C36.1647 27.9511 36.5339 27.9314 36.9039 27.959C37.0444 27.9695 37.1541 27.9086 37.2296 27.7855C37.2603 27.7354 37.2943 27.6972 37.347 27.6773C37.408 27.6766 37.4635 27.7041 37.5217 27.718C37.6498 27.7485 37.6632 27.7437 37.7194 27.6203C37.8101 27.421 37.9042 27.2237 38.0215 27.0398C38.0503 27.02 38.0744 26.9933 38.0918 26.9618C38.2438 26.7142 38.4381 26.5095 38.6666 26.3415C38.673 26.3383 38.6802 26.337 38.6873 26.3379C38.77 26.3379 38.7915 26.405 38.8115 26.4707C38.899 26.7586 38.9973 27.0417 39.119 27.3161C39.3204 27.7705 39.5693 28.1908 39.8886 28.5617C39.9362 28.617 39.9964 28.6663 39.9685 28.7565C39.8022 29.067 39.6358 29.3775 39.4695 29.688C39.4451 29.7335 39.418 29.7778 39.3922 29.8227C39.3459 29.9008 39.2937 29.9749 39.2362 30.0441C39.2212 30.0325 39.2053 30.0224 39.1887 30.0137C39.1791 30.0087 39.161 29.9917 39.1517 29.9862C38.9775 29.8855 39.0021 29.8788 39.0889 29.6909C39.1433 29.5724 39.1716 29.4523 39.1373 29.3187C39.1237 29.2636 39.0995 29.212 39.0663 29.1672C39.0331 29.1225 38.9915 29.0855 38.9443 29.0587C38.8329 28.9943 38.7173 28.9337 38.59 28.9053C38.4114 28.8659 38.2248 28.954 38.1389 29.1257C38.1105 29.1825 38.0906 29.2434 38.0641 29.3013C38.0263 29.3857 38.0045 29.3976 37.9222 29.3726C37.703 29.3061 37.4817 29.2518 37.255 29.2249C37.2336 29.2223 37.2134 29.2135 37.1923 29.2115C37.1317 29.2039 37.1062 29.166 37.1069 29.1039C37.1069 29.0434 37.103 28.9827 37.1069 28.9221C37.1208 28.6932 36.9837 28.5385 36.7847 28.4967C36.6412 28.4665 36.4933 28.4685 36.3506 28.5026C36.1682 28.5464 36.0602 28.6648 36.0348 28.8661C36.0245 28.9409 36.0186 29.0162 36.0168 29.0916C36.0158 29.1899 36.0095 29.1982 35.9161 29.2176C35.8011 29.2416 35.685 29.2598 35.5699 29.2831C35.4511 29.3071 35.3336 29.3372 35.2174 29.3731C35.1419 29.3967 35.1242 29.3872 35.0927 29.3122C35.0636 29.2433 35.0364 29.1735 34.999 29.1089C34.9004 28.9385 34.7222 28.8598 34.5398 28.9098C34.4087 28.9462 34.284 29.0048 34.1705 29.0833C34.005 29.1969 33.9446 29.4114 34.0146 29.6137C34.0355 29.6738 34.0661 29.73 34.0905 29.7888C34.1212 29.8629 34.1186 29.8805 34.0575 29.9202C33.8418 30.0606 33.6422 30.2246 33.4437 30.3902C33.3857 30.4387 33.3698 30.4393 33.3155 30.386C33.2672 30.3359 33.216 30.289 33.1621 30.2457C33.0095 30.1282 32.8011 30.1268 32.6576 30.2556C32.5575 30.3455 32.4629 30.4435 32.3917 30.5635C32.2837 30.7453 32.3086 30.9611 32.4558 31.1088C32.5153 31.1686 32.5214 31.1731 32.6182 31.2434C32.4695 31.4016 32.1793 31.8284 32.0942 31.9965" fill="#414141"/>
<path d="M30.0749 32.9988C29.4773 32.9981 28.8798 32.9975 28.2821 32.9969C27.3324 32.9969 26.3827 32.9969 25.4328 32.9969C25.2139 32.9969 25.2102 32.9895 25.2406 32.7609C25.262 32.5944 25.2658 32.4282 25.1779 32.2766C25.0832 32.1133 24.9494 32.0085 24.7696 31.9792C24.6819 31.9639 24.5934 31.9544 24.5046 31.9506C24.3978 31.9473 24.3785 31.919 24.3745 31.8044C24.3617 31.4341 24.3332 31.066 24.2663 30.701C24.2397 30.5567 24.247 30.5446 24.3831 30.5046C24.4932 30.4723 24.6004 30.4322 24.6987 30.3694C24.9428 30.2131 25.0145 29.9461 24.956 29.6717C24.9293 29.5467 24.8886 29.4246 24.8492 29.3032C24.7467 28.988 24.4754 28.8241 24.1677 28.8855C24.0623 28.9065 23.9613 28.9423 23.8597 28.9763C23.7762 29.0047 23.7658 29.0019 23.727 28.9157C23.5654 28.5532 23.3748 28.2062 23.1572 27.8785C23.1163 27.8174 23.1185 27.7982 23.1807 27.7485C23.2662 27.6796 23.3354 27.5923 23.4146 27.5166C23.6053 27.3348 23.6018 26.9522 23.4878 26.7696C23.3803 26.5977 23.2442 26.4515 23.096 26.323C22.9097 26.1609 22.5828 26.1551 22.3756 26.3532C22.3043 26.4214 22.2233 26.4782 22.1602 26.556C22.1224 26.6027 22.0875 26.6037 22.0427 26.5635C21.9371 26.4682 21.8304 26.374 21.7208 26.2839C21.5491 26.1428 21.3684 26.0157 21.1851 25.8917C21.0263 25.7842 21.0337 25.8084 21.1144 25.6304C21.1481 25.5595 21.1777 25.4865 21.2031 25.4118C21.2955 25.1209 21.2117 24.8021 20.9171 24.6431C20.79 24.5749 20.6623 24.5046 20.5253 24.465C20.3331 24.4093 20.1454 24.4195 19.9765 24.553C19.9079 24.6079 19.8529 24.6797 19.8163 24.7622C19.7708 24.8605 19.7308 24.9617 19.6872 25.061C19.6542 25.1359 19.647 25.1406 19.5725 25.1157C19.2869 25.0202 18.9949 24.955 18.6996 24.9052C18.6295 24.8938 18.5591 24.8825 18.4888 24.8718C18.387 24.8561 18.3791 24.8477 18.3773 24.734C18.3759 24.6395 18.3762 24.5448 18.3773 24.45C18.3797 24.1873 18.2492 24.0183 18.0379 23.9087C17.9772 23.8761 17.9107 23.8574 17.8428 23.8538C17.6832 23.848 17.5233 23.8372 17.364 23.8652C17.0601 23.9192 16.8714 24.1449 16.862 24.4716C16.8597 24.5547 16.862 24.638 16.8611 24.7215C16.8596 24.8491 16.8546 24.8529 16.7392 24.8725C16.3844 24.9322 16.0307 24.9974 15.6859 25.1084C15.6037 25.1348 15.5939 25.1291 15.5563 25.0427C15.5205 24.9604 15.4856 24.8776 15.4495 24.7952C15.3074 24.4679 14.978 24.3622 14.6745 24.4799C14.5608 24.5237 14.4498 24.5751 14.3422 24.6338C14.1657 24.7309 14.0493 24.8809 14.0112 25.0944C13.9915 25.2065 14.0014 25.3222 14.0398 25.4288C14.0729 25.5249 14.1168 25.6156 14.1582 25.7078C14.1934 25.7859 14.1894 25.8037 14.1222 25.847C13.8389 26.0299 13.5742 26.2403 13.3159 26.4605C13.2827 26.4887 13.2518 26.5208 13.2198 26.5499C13.1645 26.5992 13.1476 26.5991 13.0916 26.5477C13.0298 26.4909 12.966 26.4362 12.9081 26.3749C12.6899 26.1442 12.2814 26.1456 12.0696 26.3907C12.0071 26.463 11.9476 26.5384 11.8836 26.6088C11.806 26.694 11.8009 26.6911 11.7214 26.6131C11.6539 26.5468 11.4948 26.398 11.4835 26.3891C11.3774 26.2634 11.3818 26.2625 11.4891 26.1335C12.4017 25.0379 13.5586 24.2038 14.8534 23.7081C15.5061 23.4581 16.1777 23.2952 16.8679 23.232C17.2894 23.1947 17.713 23.1905 18.1351 23.2192C18.7067 23.2557 19.2733 23.3555 19.8254 23.5171C20.2785 23.6488 20.7191 23.8247 21.1418 24.0425C21.4306 24.1874 21.7107 24.351 21.9806 24.5326C22.3586 24.7872 22.7165 25.0742 23.0506 25.3908C23.3703 25.6962 23.6704 26.0239 23.949 26.3719C23.9868 26.4218 24.0222 26.4739 24.055 26.5277C24.3157 26.8407 24.5249 27.1924 24.7203 27.5522C25.1131 28.2726 25.407 29.0492 25.593 29.8582C25.658 30.1412 25.7012 30.4284 25.7492 30.7148C25.7909 30.9647 25.9633 31.0502 26.1748 30.9292C26.4401 30.7776 26.6085 30.417 26.57 30.0977C26.5616 30.0284 26.5166 29.95 26.5865 29.8849C26.6419 29.8517 26.703 29.8545 26.7634 29.8542C27.0838 29.8532 27.4035 29.8498 27.7235 29.8558C27.8556 29.8583 27.9441 29.8059 28.0149 29.6894C28.2795 29.2533 28.4811 28.7775 28.613 28.2777C28.7169 27.8877 28.7916 27.4917 28.817 27.0862C28.82 27.0445 28.8194 27.0027 28.815 26.9612C28.8095 26.9119 28.8211 26.8714 28.864 26.8456C28.9334 26.8442 29.0852 26.8349 29.0921 26.8342C29.3578 26.8175 29.3578 26.8176 29.3583 27.1017C29.3583 27.3176 29.3571 27.5334 29.359 27.7486C29.3607 27.9458 29.4101 28.0067 29.5914 28.0553C30.0255 28.1729 30.4648 28.2108 30.9126 28.186C31.1194 28.1747 31.3217 28.1351 31.5269 28.1179C31.5694 28.1128 31.611 28.1013 31.6504 28.0838C31.775 28.033 31.8117 27.9816 31.8135 27.8375C31.8167 27.569 31.8125 27.3004 31.8158 27.0319C31.8166 26.9732 31.8052 26.909 31.8541 26.8615C31.9347 26.7956 32.0117 26.8459 32.0838 26.8779C32.2618 26.9575 32.3958 27.0988 32.5188 27.2516C32.7465 27.5345 32.9156 27.8577 33.0759 28.1865C33.09 28.213 33.096 28.2435 33.093 28.2737C33.0873 28.3472 33.0371 28.3839 32.9862 28.4191C32.5666 28.7076 32.1899 29.05 31.8434 29.4321C31.446 29.87 31.1164 30.3596 30.8373 30.8888C30.5131 31.5034 30.2926 32.1585 30.1624 32.8491C30.1512 32.9069 30.1623 32.989 30.0749 32.9988Z" fill="#45423D"/>
<path d="M30.0746 32.9987C30.1016 32.8697 30.1273 32.7405 30.1557 32.6124C30.3879 31.56 30.834 30.6208 31.4782 29.7865C31.9058 29.229 32.4131 28.7463 32.9814 28.356C33.0141 28.3332 33.0501 28.3151 33.0703 28.2764C33.0959 28.231 35.0342 26.9043 37.2019 27.3306C37.3309 27.4302 37.3461 27.6219 37.276 27.7956C37.2075 27.9651 37.0799 28.0184 36.8754 28.0132C36.6867 28.0083 36.4984 27.9975 36.3105 28.0085C35.9946 28.0253 35.6804 28.0678 35.3707 28.1356C34.522 28.3247 33.749 28.6915 33.0555 29.245C32.2453 29.8916 31.6338 30.7094 31.2139 31.689C31.0438 32.0891 30.9156 32.5079 30.8317 32.9379C30.8266 32.9637 30.7569 33.3792 30.7356 33.5627C30.7161 33.7331 30.6394 33.8519 30.4848 33.9081C30.2576 33.9906 30.0149 33.8143 30.01 33.5592C30.0073 33.4306 30.0333 33.3041 30.0515 33.1774C30.0588 33.1271 30.0667 33.007 30.0746 32.9987Z" fill="#A19D98"/>
<path d="M28.2256 32.1138C27.8381 32.1138 27.4505 32.1151 27.063 32.1133C26.8814 32.1124 26.7499 32.0181 26.675 31.8452C26.6001 31.6723 26.6232 31.5044 26.7319 31.3543C26.8182 31.2356 26.9417 31.19 27.0789 31.1854C27.1713 31.1823 27.2638 31.1841 27.3566 31.1842C28.0108 31.1847 28.665 31.1851 29.3192 31.1856C29.4432 31.1856 29.5586 31.2083 29.6569 31.2978C29.7925 31.4217 29.8477 31.6224 29.7913 31.8012C29.7637 31.8918 29.7099 31.9709 29.6376 32.0272C29.5653 32.0834 29.4782 32.114 29.3886 32.1145C29.001 32.1167 28.6135 32.1152 28.226 32.1152L28.2256 32.1138Z" fill="#FCBE4F"/>
<path d="M15.9644 22.3059C15.9886 22.3264 16.0164 22.327 16.0449 22.321C16.2873 22.2705 16.5326 22.2415 16.778 22.2144C16.7993 22.2119 16.7887 22.2123 16.8492 22.2061C17.7111 22.138 18.86 22.1882 19.7634 22.442C19.9626 22.5006 20.1633 22.5442 20.3627 22.6024C20.3831 22.6036 21.359 22.9833 21.7382 23.2C21.7721 23.2258 21.7887 23.2395 21.8129 23.2593C21.8285 23.4453 21.7742 23.585 21.6721 23.7119C21.5299 23.8888 21.3421 24.0155 21.1319 24.0959C20.8616 23.9709 20.5924 23.8429 20.3132 23.7404C19.8192 23.5589 19.3102 23.4273 18.793 23.3472C18.3424 23.279 17.8872 23.2497 17.4321 23.2598C16.8952 23.2693 16.3606 23.3377 15.8367 23.4637C14.2109 23.8521 12.7368 24.7629 11.6141 26.0726C11.5782 26.1146 11.5416 26.1559 11.5056 26.1976C11.4309 26.2848 11.3982 26.3414 11.3431 26.4108C11.2515 26.5262 11.1625 26.644 11.0733 26.7616C10.865 27.0359 10.499 27.0507 10.271 26.7631C10.1167 26.5682 10.1428 26.2746 10.2684 26.0895C10.4054 25.8915 10.5518 25.7011 10.7071 25.519C10.8658 25.3301 11.0204 25.1372 11.1944 24.9638C11.4382 24.7209 11.681 24.4761 11.9462 24.2594C12.8517 23.5197 13.8443 22.9555 14.9381 22.5993C15.2272 22.5049 15.5208 22.4269 15.8176 22.3657C15.87 22.3553 15.9249 22.3513 15.9644 22.3059Z" fill="#EDAE50"/>
<path d="M24.8645 25.9632C25.1294 26.2966 25.3451 26.6659 25.5533 27.0401C25.7982 27.4803 26.0019 27.942 26.1744 28.4194C26.3326 28.8576 26.4694 29.3027 26.5604 29.7628C26.571 29.8146 26.584 29.865 26.5958 29.9171C26.6196 30.0581 26.647 30.1979 26.6179 30.3434C26.5584 30.6417 26.4187 30.8753 26.1518 31.0053C25.9283 31.1143 25.7342 31.0003 25.6977 30.7414C25.6016 30.0598 25.4446 29.3944 25.2053 28.7523C24.9221 27.9928 24.5511 27.2869 24.0791 26.6406C24.0578 26.611 24.0377 26.5796 24.0171 26.549C24.0681 26.3688 24.174 26.2229 24.2758 26.0731C24.3329 25.9889 24.4212 26.0026 24.4949 25.978C24.6141 25.9381 24.7393 25.9055 24.8645 25.9632Z" fill="#EDAE50"/>
<path d="M24.8041 25.9476C24.2198 25.8974 24.0362 26.5105 24.0175 26.5489C23.7651 26.222 23.4989 25.9089 23.2091 25.6185C22.6202 25.0266 21.952 24.531 21.2262 24.1478C21.1942 24.1311 21.1633 24.1137 21.1318 24.0959C21.1591 24.0618 21.3995 24.0117 21.5999 23.721C21.7695 23.475 21.8095 23.3083 21.8129 23.2593C22.0042 23.3358 22.1712 23.4599 22.3447 23.5702C22.6446 23.7593 22.9329 23.9684 23.2078 24.1963C23.4563 24.4039 23.6973 24.6202 23.9268 24.8527C24.0841 25.0117 24.2315 25.1802 24.3802 25.3469C24.5532 25.541 24.7276 25.7361 24.8645 25.9632" fill="#FCD38C"/>
<path d="M39.9595 28.7541C39.8967 28.6426 39.8013 28.561 39.7245 28.4613C39.3116 27.9257 39.0157 27.3226 38.8073 26.6687C38.7834 26.5936 38.7615 26.5177 38.7376 26.4425C38.7275 26.4107 38.7199 26.3744 38.6772 26.3755C38.151 25.8961 37.5157 25.6288 36.8936 25.3361C35.9538 24.8944 34.9725 24.5908 33.9798 24.3233C33.2012 24.1135 32.4123 23.9579 31.6212 23.8139C31.5492 23.8009 31.4722 23.7945 31.4225 23.7231C31.4095 23.6713 31.4095 23.6183 31.4094 23.5655C31.4083 22.9396 31.4086 22.3136 31.4103 21.6877C31.4103 21.6195 31.3906 21.5412 31.4598 21.4907C31.6158 21.5315 31.7769 21.5315 31.9351 21.5549C32.2342 21.599 32.5352 21.6318 32.8338 21.6799C33.2204 21.7414 33.6083 21.7962 33.9918 21.878C34.2567 21.9348 34.523 21.9826 34.7873 22.0426C35.097 22.1129 35.4067 22.184 35.7126 22.2668C36.2225 22.4046 36.7323 22.5445 37.2292 22.7304C37.427 22.8044 37.6232 22.8842 37.8234 22.9499C38.0275 23.0167 38.1875 23.1501 38.3397 23.3002C38.6708 23.6268 39.001 23.9544 39.3206 24.2938C39.5342 24.521 39.7489 24.7466 39.9525 24.9842C40.0408 25.0872 40.1384 25.1813 40.2302 25.2814C40.3889 25.4548 40.5366 25.6389 40.6992 25.8086C40.8297 25.945 40.9069 26.1166 40.9165 26.3131C40.93 26.5892 40.9217 26.8631 40.8558 27.1347C40.7344 27.6345 40.5106 28.0754 40.2072 28.474C40.1311 28.5732 40.0525 28.6708 39.9595 28.7541Z" fill="#EDAE50"/>
<path d="M26.6578 22.9205L25.9225 22.3779C25.9103 22.3701 25.8987 22.3613 25.8879 22.3516C25.8434 22.3061 25.8167 22.327 25.7886 22.3743C25.7469 22.4445 25.7001 22.5114 25.6553 22.5794C25.549 22.7402 25.4449 22.9026 25.3356 23.061C25.2545 23.1786 25.1515 23.2148 25.0379 23.177C24.8677 23.1202 24.7909 22.9253 24.8752 22.7567C24.9017 22.7035 24.9368 22.6551 24.9693 22.6056C25.3433 22.0353 25.7176 21.4651 26.0921 20.8951C26.1156 20.8573 26.1415 20.8212 26.1696 20.7872C26.2673 20.6754 26.4153 20.6579 26.5273 20.7417C26.5818 20.7823 26.6203 20.8428 26.6355 20.9116C26.6506 20.9805 26.6414 21.0529 26.6095 21.1149C26.5762 21.1814 26.5336 21.2426 26.4929 21.3045C26.3768 21.481 26.2596 21.6567 26.1427 21.8326C26.0962 21.9028 26.0952 21.9043 26.1617 21.9537C26.4124 22.1396 26.6635 22.3249 26.9148 22.5097L26.6578 22.9205Z" fill="#45423E"/>
<path d="M29.6891 21.3503C29.7234 21.3761 29.7211 21.4154 29.7211 21.4525C29.722 22.1159 29.722 22.7791 29.7211 23.4423C29.722 23.465 29.7184 23.4875 29.7104 23.5086C29.6664 23.5654 29.6036 23.5631 29.5443 23.5633C29.3243 23.5644 29.1043 23.5519 28.8847 23.5474C28.2705 23.5333 27.6564 23.5418 27.0416 23.5431C26.9989 23.5431 26.9561 23.5456 26.9165 23.5658C26.8931 23.5772 26.8718 23.5935 26.8751 23.6248C26.8784 23.656 26.9031 23.6657 26.9278 23.6726C26.9451 23.6773 26.9628 23.6795 26.9806 23.6791C27.2821 23.6721 27.5834 23.6854 27.8854 23.6653C28.1754 23.6459 28.4668 23.6518 28.7581 23.6704C29.0093 23.6864 29.2613 23.6932 29.5131 23.7028C29.5772 23.7052 29.6412 23.7005 29.6983 23.7411C29.7268 23.8931 29.7714 24.0435 29.741 24.2017C29.7403 24.2162 29.7364 24.2303 29.7297 24.2429C29.6827 24.3024 29.6096 24.3036 29.5486 24.3307C29.4331 24.3818 29.3756 24.4652 29.3793 24.6008C29.3958 25.2203 29.3499 25.839 29.3579 26.4584C29.3589 26.5302 29.3602 26.6018 29.3677 26.6733C29.3838 26.828 29.3437 26.879 29.1968 26.8948C29.158 26.8989 29.1189 26.9002 29.0794 26.9012C29.0111 26.9022 28.9429 26.9026 28.8748 26.8969C28.6751 26.9301 28.4729 26.9324 28.2717 26.947C27.8987 26.9737 27.6246 26.8122 27.4303 26.4699C27.1604 25.9949 26.8883 25.5216 26.6414 25.0324C26.5306 24.8129 26.4278 24.5893 26.3112 24.3728C26.1237 24.025 26.1217 23.685 26.3407 23.3521C26.4362 23.2071 26.5059 23.0436 26.62 22.9122C26.6834 22.7539 26.7859 22.6221 26.878 22.4832C27.0893 22.1517 27.3123 21.8293 27.5525 21.5208C27.6258 21.4266 27.7278 21.3686 27.8219 21.301C27.9465 21.2651 28.3986 21.2555 28.5133 21.2516C28.6435 21.2469 28.774 21.2497 28.9044 21.2516C28.9665 21.252 29.5695 21.2868 29.6891 21.3503Z" fill="#EDAE50"/>
<path d="M37.3517 27.728C37.3115 27.7043 37.2865 27.6712 37.2892 27.6191C37.2974 27.4601 37.2006 27.3817 37.0823 27.3231C36.9246 27.2619 35.7237 27.1419 34.5297 27.583C34.1098 27.7276 33.7049 27.9081 33.3239 28.1469C33.2538 28.191 33.1761 28.2208 33.1103 28.2737C33.101 28.281 33.0834 28.2763 33.0696 28.2772C32.9761 28.1348 32.914 27.9735 32.8297 27.8255C32.699 27.5965 32.5608 27.3743 32.3843 27.1812C32.2455 27.0296 32.0883 26.9134 31.8896 26.8708C31.8349 26.8752 31.8268 26.8328 31.8201 26.7913C31.8142 26.7426 31.8121 26.6934 31.8139 26.6443C31.8139 26.3007 31.8081 25.9569 31.8153 25.6134C31.8219 25.2883 31.787 24.9648 31.7912 24.6401C31.7928 24.5165 31.7378 24.4326 31.631 24.3846C31.5885 24.3654 31.5471 24.3434 31.5072 24.3187C31.4768 24.2996 31.4438 24.2799 31.4572 24.2314L31.4612 23.9857C31.4966 23.9336 31.5446 23.941 31.5959 23.9491C32.1869 24.0437 32.7738 24.1605 33.3566 24.2996C34.0574 24.4682 34.7541 24.6532 35.4364 24.8944C35.9831 25.0875 36.5242 25.2975 37.0482 25.5544C37.2966 25.6763 37.5502 25.7883 37.7771 25.9535C37.8626 26.0156 37.9312 26.0982 37.9962 26.1842C38.1508 26.3887 38.1117 26.6261 38.0973 26.8588C38.0929 26.9315 38.0604 26.999 38.0546 27.0721C37.9208 27.2885 37.8066 27.5178 37.7136 27.7571C37.6946 27.8069 37.669 27.8253 37.6159 27.8062C37.5299 27.7751 37.4403 27.7538 37.3517 27.728Z" fill="#EDAE50"/>
<path d="M38.0559 27.0724C38.0261 27.0116 38.0308 26.9459 38.0419 26.8836C38.0652 26.7521 38.0569 26.6199 38.0569 26.4879C38.0569 26.3585 37.9897 26.2581 37.916 26.1659C37.8234 26.0507 37.71 25.9565 37.5825 25.8888C36.9861 25.5664 36.3686 25.2981 35.7368 25.0651C35.2801 24.8965 34.8195 24.7427 34.3514 24.6152C33.7597 24.4542 33.1659 24.3056 32.5648 24.1836C32.2194 24.1136 31.8715 24.0611 31.5258 23.9928C31.505 23.9887 31.4831 23.988 31.4624 23.9856C31.4624 23.9023 31.4624 23.8192 31.4624 23.7363C31.6747 23.7578 31.8836 23.8027 32.0932 23.8428C32.3657 23.8949 32.6377 23.9502 32.9092 24.0089C33.1943 24.071 33.4796 24.1313 33.7614 24.2109C33.9774 24.2718 34.1959 24.3236 34.4124 24.3836C34.9421 24.5304 35.4654 24.699 35.9823 24.8895C36.4022 25.0442 36.8082 25.236 37.2165 25.4214C37.605 25.5985 37.9818 25.8035 38.3442 26.0348C38.4505 26.1024 38.5482 26.1854 38.6486 26.2632C38.6842 26.2908 38.7161 26.324 38.6776 26.3755C38.5421 26.5032 38.4024 26.6254 38.2824 26.771C38.2024 26.8679 38.1317 26.9719 38.0559 27.0724Z" fill="#FCD38C"/>
<path d="M29.6892 23.5096L29.6899 23.7587C28.9788 23.6966 27.6532 23.6966 26.984 23.7367C26.9332 23.734 26.8825 23.7285 26.8323 23.72C26.7949 23.711 26.7373 23.6598 26.7383 23.6277C26.74 23.5689 26.7718 23.5405 26.8131 23.5187C26.8646 23.4912 26.9335 23.4861 26.9915 23.4861C27.6317 23.4861 28.2721 23.4758 28.9119 23.4922C29.1708 23.4988 29.4301 23.5029 29.6892 23.5096Z" fill="#FCD38C"/>
<path d="M40.6633 26.5313C40.6668 26.7757 40.6206 27.0005 40.5549 27.2213C40.4388 27.6121 40.2495 27.9609 40.0088 28.2791C39.96 28.3437 39.9574 28.3439 39.9064 28.2801C39.6723 27.9873 39.4849 27.6628 39.3244 27.3195C39.2037 27.0616 39.1049 26.7944 39.0165 26.5227C38.9892 26.4385 38.9924 26.4234 39.0716 26.3802C39.3488 26.2289 39.6393 26.1215 39.9491 26.0744C40.0902 26.053 40.2327 26.0533 40.3738 26.0349C40.388 26.0336 40.4022 26.0333 40.4165 26.034C40.5507 26.0366 40.5718 26.0548 40.6222 26.1848C40.6669 26.3007 40.6661 26.4209 40.6633 26.5313Z" fill="#FEFEFE"/>
<path d="M31.4477 21.5469C31.4477 22.2691 31.4556 23.853 31.4722 24.2973C31.4325 24.3509 31.3811 24.3314 31.3346 24.3173C30.8339 24.1618 30.3298 24.1848 29.8242 24.2832C29.7815 24.2914 29.7401 24.3026 29.7041 24.2655L29.7014 24.2691C29.678 24.235 29.7014 20.7062 29.6984 20.4802C29.697 20.3832 29.7123 20.2953 29.7577 20.2101C29.8135 20.1054 29.8621 19.9964 29.9139 19.8892C29.9211 19.8814 29.9306 19.8766 29.9409 19.8755C30.5238 20.1403 31.0053 20.4476 31.4442 20.9251C31.4378 21.0977 31.4442 21.3286 31.4477 21.5469Z" fill="#414141"/>
<path d="M29.943 19.8341H29.9343L29.9258 19.8323C29.9679 19.7255 29.9703 19.6134 29.9699 19.4996C29.9686 19.1597 29.9738 18.8197 29.9707 18.4799C29.9697 18.356 30.0048 18.2556 30.0775 18.1587C30.4364 17.6805 30.8263 17.2296 31.2445 16.8094C31.5102 16.5422 31.7922 16.294 32.1022 16.0845C32.1611 16.0995 32.1359 16.1402 32.1226 16.1716C31.9325 16.6174 31.9594 17.0848 32.0191 17.5488C32.0454 17.7532 32.0987 17.964 32.2585 18.1142C32.2699 18.1236 32.2775 18.1373 32.2799 18.1524C32.2823 18.1676 32.2793 18.1832 32.2715 18.1961C31.9105 18.3745 31.6271 18.6517 31.3878 18.9844C31.3524 19.0335 31.3263 19.0854 31.335 19.1502C31.3191 19.5552 31.3226 19.9598 31.3359 20.6262C31.3353 20.6333 31.3344 20.6405 31.3331 20.6475C31.2797 20.686 31.2449 20.6425 31.212 20.6128C31.0694 20.4837 30.9309 20.3498 30.7772 20.2347C30.6092 20.1087 30.4369 19.9912 30.2507 19.8976C30.1526 19.8485 30.0528 19.8153 29.943 19.8341Z" fill="#A19D98"/>
<path d="M32.3349 16.0347C32.4069 16.073 32.4436 16.137 32.4619 16.2191C32.5084 16.4279 32.5391 16.6404 32.5536 16.8545C32.5787 17.2205 32.5289 17.5747 32.4429 17.926C32.4249 17.9992 32.4043 18.0713 32.3587 18.1318C32.3132 18.14 32.2992 18.105 32.2809 18.0715C32.0688 17.6839 32.0303 17.2609 32.0566 16.8253C32.0601 16.7655 32.0691 16.7058 32.0728 16.6456C32.0849 16.4141 32.1784 16.196 32.3349 16.0347Z" fill="#A19D98"/>
<path d="M31.6797 24.3411C31.7904 24.3928 31.8447 24.4687 31.8492 24.6096C31.8716 25.3195 31.8655 26.0295 31.8671 26.7394C31.8671 26.7849 31.8717 26.9741 31.8714 27.0267C31.8697 27.3213 31.865 27.616 31.8689 27.9104C31.8702 28.014 31.8298 28.0732 31.7456 28.1106C31.0424 28.3151 30.1292 28.3049 29.4888 28.0879C29.3445 28.0412 29.306 27.9839 29.3049 27.8254C29.3034 27.6178 29.3049 27.41 29.3049 27.2022C29.3049 27.1154 29.3064 27.0285 29.3049 26.9416C29.3034 26.8547 29.3262 25.5084 29.3262 25.4669C29.3262 25.1496 29.3285 24.8322 29.3255 24.5149C29.3245 24.4152 29.359 24.3552 29.4466 24.3135C30.4637 23.9718 30.9975 24.0712 31.6797 24.3411Z" fill="#A19D98"/>
<path d="M29.5164 26.2106V24.6791C29.5164 24.6527 29.5157 24.6262 29.5164 24.5996C29.5187 24.4944 29.5271 24.4803 29.6223 24.4434C29.9799 24.2974 31.0254 24.1594 31.5836 24.5511C31.6717 24.6004 31.6858 24.6507 31.6896 24.7699C31.7039 25.0381 31.679 27.0305 31.6798 27.798C31.6798 27.8132 31.6798 27.8283 31.6798 27.8434C31.6772 27.9528 31.6703 27.9581 31.5659 27.9811C30.9149 28.1251 30.2676 28.1061 29.623 27.9357C29.5276 27.9106 29.5225 27.9081 29.5223 27.7981C29.5215 27.4464 29.5215 27.0947 29.5223 26.7431C29.5223 26.5654 29.5223 26.3876 29.5223 26.2099L29.5164 26.2106Z" fill="#45423D"/>
<path d="M29.9189 19.8557C29.9313 19.7586 29.9872 19.7485 30.0946 19.7753C30.2237 19.8162 30.3472 19.8749 30.462 19.9499C30.7176 20.1121 30.9623 20.2907 31.177 20.5122C31.225 20.5618 31.2806 20.6031 31.3328 20.6478C31.3401 20.6804 31.3566 20.7099 31.3802 20.7322C31.448 20.797 31.4572 20.872 31.4434 20.9666C31.3307 20.9496 31.2674 20.878 31.1959 20.7942C31.002 20.567 30.7754 20.3831 30.5351 20.2156C30.387 20.1125 30.1604 19.9998 29.9959 19.93C29.9395 19.9062 29.9124 19.9077 29.9189 19.8557Z" fill="#DCF9FB"/>
<path d="M32.3349 16.0347C32.3728 16.0568 32.3973 16.0669 32.2994 16.1589C32.1759 16.2768 32.094 16.5741 32.1023 17.0617C32.1103 17.3849 32.1142 17.6726 32.3586 18.1318C32.338 18.1659 32.311 18.191 32.2712 18.1961C31.8575 17.7634 31.8974 16.4319 32.1019 16.0845C32.1865 15.9912 32.2361 15.9806 32.3349 16.0347Z" fill="#DCF9FB"/>
</g>
<defs>
<clipPath id="clip0_772_99258">
<rect width="32" height="28" fill="white" transform="translate(10 12)"/>
</clipPath>
</defs>
</svg>
