<svg width="17" height="17" viewBox="0 0 17 17" fill="none" xmlns="http://www.w3.org/2000/svg">
<path d="M11.0105 0C9.30713 0 7.76531 0.714519 6.67591 1.85937C6.41523 2.1333 5.73797 2.81262 5.15915 3.39653C5.01507 3.52154 4.87651 3.65241 4.74507 3.79044C4.71913 3.81756 4.69728 3.84832 4.68021 3.88175C4.06917 4.49523 3.7167 4.84266 3.16796 5.3857C3.04639 5.49417 2.92652 5.60434 2.81423 5.72226C2.79767 5.7397 2.78277 5.75864 2.76973 5.77885C2.47942 6.06447 2.02472 6.52066 1.86314 6.67458C1.74794 6.78431 1.64048 6.90159 1.53429 7.0202C1.44068 6.46539 1.18097 5.90518 0.622419 5.48606C0.550463 5.43059 0.461265 5.40226 0.370504 5.40607C0.290341 5.40934 0.213183 5.4375 0.149748 5.48664C0.0863135 5.53579 0.0397518 5.60348 0.0165305 5.68032C-0.00669086 5.75715 -0.00541897 5.83932 0.0201696 5.91539C0.0457582 5.99147 0.094393 6.05769 0.159318 6.10485C0.795724 6.58239 0.86679 7.26659 0.780054 7.91744C0.768767 8.00213 0.748789 8.0769 0.732537 8.15665C0.27074 9.00627 0.00470013 9.97802 0.00470013 11.0114C0.00470013 11.0409 0.00879682 11.0694 0.00922555 11.0989C0.00856323 11.1342 0.00470013 11.1693 0.00470013 11.2045C0.00419152 11.2434 0.00953111 11.282 0.0205391 11.3192C0.182262 14.4785 2.7931 17 5.99031 17C7.67834 17 9.20635 16.2969 10.294 15.1701C10.3037 15.1617 10.313 15.1529 10.3219 15.1436C10.3219 15.1436 10.3226 15.1429 10.3226 15.1429C10.3234 15.1421 10.3241 15.1414 10.3249 15.1406C11.1468 14.277 14.2745 11.1477 15.1377 10.3254C16.282 9.23547 16.9961 7.69287 16.9961 5.98864C16.9961 5.35379 16.8955 4.74231 16.7118 4.16775C16.5814 3.3491 16.6494 2.83514 16.7352 2.54079C16.7784 2.39229 16.8261 2.29841 16.8573 2.24649C16.8886 2.19457 16.883 2.20499 16.883 2.20499C16.9388 2.15072 16.9769 2.08085 16.9923 2.00454C17.0078 1.92822 16.9998 1.84902 16.9695 1.77732C16.9391 1.70561 16.8879 1.64475 16.8224 1.6027C16.7569 1.56066 16.6802 1.53939 16.6024 1.54168C16.5021 1.54467 16.4069 1.58662 16.3369 1.65865C16.3369 1.65865 16.2611 1.73963 16.1959 1.84806C16.1306 1.95648 16.0554 2.11264 15.9937 2.32422C15.9708 2.4029 15.9522 2.49721 15.9342 2.59135C14.8532 1.02794 13.0507 0 11.0105 0ZM11.0105 0.772727C13.3212 0.772727 15.2734 2.27047 15.959 4.34961C15.9595 4.35113 15.9601 4.35262 15.9606 4.35414C15.9674 4.38313 15.9775 4.41123 15.9907 4.4379C16.1424 4.92752 16.2238 5.44849 16.2238 5.98864C16.2238 7.31372 15.7298 8.51746 14.9182 9.43648C15.0182 8.9568 15.0653 8.45644 15.0653 7.92045C15.0653 4.61764 12.3808 1.93182 9.07966 1.93182C8.52667 1.93182 7.99351 2.01429 7.48445 2.15518C8.4127 1.29921 9.64632 0.772727 11.0105 0.772727ZM9.07966 2.70455C11.9634 2.70455 14.2929 5.03527 14.2929 7.92045C14.2929 9.03717 14.1061 9.89103 13.5892 10.7684C13.3901 10.9645 13.219 11.1323 12.9896 11.36C13.0883 10.8828 13.1344 10.3852 13.1344 9.85227C13.1344 6.54946 10.45 3.86364 7.14882 3.86364C6.60099 3.86364 6.07274 3.94486 5.56794 4.08323C5.61725 4.03355 5.6464 4.00363 5.69465 3.95494C6.60535 3.17552 7.78521 2.70455 9.07966 2.70455ZM7.14882 4.63636C10.0325 4.63636 12.3621 6.96709 12.3621 9.85227C12.3621 10.957 12.1784 11.8044 11.6742 12.6723C11.5886 12.7583 11.5441 12.8041 11.4608 12.8881C11.5491 12.4275 11.5898 11.9336 11.5898 11.3977C11.5905 11.346 11.5808 11.2947 11.5613 11.2468C11.5419 11.199 11.513 11.1555 11.4764 11.1189C11.4398 11.0824 11.3963 11.0536 11.3484 11.0342C11.3005 11.0148 11.2492 11.0053 11.1976 11.0061C11.0953 11.0077 10.9978 11.0498 10.9265 11.1232C10.8553 11.1967 10.816 11.2954 10.8174 11.3977C10.8174 12.848 10.5714 13.7809 9.76828 14.6048C9.76775 14.6054 9.76579 14.6073 9.76526 14.6079C8.81569 15.6058 7.47824 16.2273 5.99031 16.2273C3.13586 16.2273 0.828203 13.9427 0.781563 11.0981C0.794079 10.5344 0.906581 9.97612 1.11493 9.45987C1.11494 9.45962 1.11494 9.45937 1.11493 9.45912C1.11754 9.45464 1.12005 9.45011 1.12248 9.44553C1.12248 9.44553 1.16907 9.34346 1.22656 9.20255C1.38817 8.86671 1.59077 8.55216 1.83825 8.27361C2.53981 7.48396 3.57676 6.95455 5.02489 6.95455C6.28454 6.95455 7.13106 7.39131 7.68659 7.98988C8.24212 8.58845 8.50041 9.36932 8.50041 10.0455C8.50041 11.3977 7.52212 12.75 5.79723 12.75C5.30379 12.75 4.81554 12.5834 4.46072 12.2678C4.10591 11.9522 3.86639 11.4943 3.86639 10.8182C3.86639 10.3245 4.02435 9.9508 4.28423 9.69078C4.54411 9.43077 4.91762 9.27273 5.41106 9.27273C5.72734 9.27273 6.10134 9.38235 6.32067 9.56778C6.35905 9.6029 6.40413 9.6299 6.45319 9.64717C6.50226 9.66443 6.5543 9.6716 6.60621 9.66825C6.65811 9.66489 6.7088 9.65108 6.75524 9.62765C6.80168 9.60421 6.84291 9.57164 6.87646 9.53187C6.91 9.4921 6.93517 9.44596 6.95046 9.39622C6.96575 9.34649 6.97084 9.29417 6.96542 9.24241C6.96001 9.19066 6.9442 9.14053 6.91895 9.09504C6.89369 9.04955 6.85952 9.00963 6.81846 8.97767C6.40988 8.63224 5.88488 8.5 5.41106 8.5C4.74599 8.5 4.15408 8.72832 3.73817 9.14444C3.32225 9.56057 3.09405 10.1528 3.09405 10.8182C3.09405 11.6875 3.43378 12.3887 3.94784 12.8458C4.4619 13.303 5.13216 13.5227 5.79723 13.5227C7.93403 13.5227 9.27275 11.7841 9.27275 10.0455C9.27275 9.3634 9.07196 8.62823 8.64899 7.97856C9.17364 8.34354 9.67299 8.83127 10.1099 9.48704C10.1377 9.53012 10.1737 9.56726 10.216 9.59627C10.2582 9.62529 10.3058 9.64561 10.3559 9.65606C10.4061 9.6665 10.4578 9.66686 10.5081 9.65711C10.5584 9.64736 10.6062 9.6277 10.6488 9.59927C10.6915 9.57084 10.728 9.53421 10.7563 9.49152C10.7847 9.44882 10.8042 9.40091 10.8139 9.35057C10.8236 9.30024 10.8231 9.24849 10.8126 9.19833C10.802 9.14817 10.7816 9.10061 10.7526 9.05842C9.12 6.60835 6.63393 6.18182 5.02489 6.18182C5.01078 6.1818 4.99668 6.18256 4.98265 6.18408C4.30022 6.18871 3.68409 6.30576 3.13327 6.5063C3.31744 6.32582 3.52417 6.12034 3.74797 5.89884C4.6607 5.11165 5.84719 4.63636 7.14882 4.63636Z" fill="#FF9400"/>
</svg>
