<svg width="20" height="21" viewBox="0 0 20 21" fill="none" xmlns="http://www.w3.org/2000/svg">
<path d="M13.541 2.5H6.45905C5.95825 2.5 5.61542 2.9862 5.8017 3.43228L6.45833 5.22H13.5417L14.1983 3.43228C14.3846 2.9862 14.0418 2.5 13.541 2.5ZM13.5417 6.58H6.45833C6.45833 6.58 1.5 10.66 1.5 15.42C1.5 18.14 3.625 19.5 5.04167 19.5C6.45833 19.5 10 19.5 10 19.5C10 19.5 13.5417 19.5 14.9583 19.5C16.375 19.5 18.5 18.14 18.5 15.42C18.5 10.66 13.5417 6.58 13.5417 6.58ZM10.7083 16.0306V17.12H9.29167V16.034C8.24972 15.8464 7.5945 15.2316 7.55625 14.3334H8.78308C8.84187 14.8053 9.33772 15.1079 10.0524 15.1079C10.7119 15.1079 11.1787 14.8012 11.1787 14.3612C11.1787 13.99 10.8762 13.7764 10.1325 13.6228L9.34267 13.4616C8.23767 13.2399 7.69508 12.6871 7.69508 11.7997C7.69508 10.9068 8.31063 10.2704 9.29167 10.0609V8.96H10.7083V10.0589C11.6646 10.2642 12.3035 10.8898 12.3347 11.7351H11.1411C11.0823 11.2754 10.6368 10.9687 10.0234 10.9687C9.3887 10.9687 8.96867 11.2509 8.96867 11.695C8.96867 12.054 9.25838 12.26 9.96883 12.4049L10.6998 12.5545C11.9189 12.8006 12.4438 13.3052 12.4438 14.2082C12.4438 15.1806 11.7935 15.8328 10.7083 16.0306Z" fill="#FF9400"/>
</svg>
