<svg width="15" height="15" viewBox="0 0 15 15" fill="none" xmlns="http://www.w3.org/2000/svg">
<path d="M12.3169 0.45256C12.3169 0.45256 11.4669 1.58589 11.4669 2.43589C11.4669 2.90516 11.8476 3.28589 12.3169 3.28589C12.7861 3.28589 13.1669 2.90516 13.1669 2.43589C13.1669 1.58589 12.3169 0.45256 12.3169 0.45256ZM2.68353 1.01923C2.68353 1.01923 1.83353 2.15256 1.83353 3.00256C1.83353 3.47183 2.21426 3.85256 2.68353 3.85256C3.1528 3.85256 3.53353 3.47183 3.53353 3.00256C3.53353 2.15256 2.68353 1.01923 2.68353 1.01923ZM8.3502 1.01923C8.3502 1.01923 7.5002 2.15256 7.5002 3.00256C7.5002 3.47183 7.88092 3.85256 8.3502 3.85256C8.81947 3.85256 9.2002 3.47183 9.2002 3.00256C9.2002 2.15256 8.3502 1.01923 8.3502 1.01923ZM5.51686 2.15256C5.51686 2.15256 4.66686 3.28589 4.66686 4.13589C4.66686 4.60516 5.04759 4.98589 5.51686 4.98589C5.98613 4.98589 6.36686 4.60516 6.36686 4.13589C6.36686 3.28589 5.51686 2.15256 5.51686 2.15256ZM12.0335 4.98589C9.76686 4.98589 7.5002 6.11923 7.5002 8.95256C7.5002 9.60113 7.59538 10.1058 7.76803 10.502C7.65293 10.7721 7.55111 11.0377 7.45814 11.3011C7.24785 10.8518 6.99108 10.4334 6.69225 10.0438C6.58379 9.90217 6.46869 9.76272 6.35137 9.62769C6.36022 9.55907 6.36686 9.48824 6.36686 9.42404C6.36686 7.06441 4.47871 6.11923 2.58835 6.11923H0.700195V7.53589C0.700195 10.3692 2.58835 11.7859 4.00501 11.7859C4.29056 11.7859 4.54069 11.7372 4.7709 11.6686C4.38353 11.0997 3.72611 10.2585 2.8097 9.5148C2.56621 9.31779 2.52858 8.96141 2.72559 8.72014C2.92259 8.47665 3.27897 8.43681 3.52246 8.63381C4.3304 9.29123 5.1472 10.0704 5.56777 10.4755C5.64082 10.5618 5.72494 10.6459 5.79134 10.7322C6.51296 11.673 6.93574 12.7089 6.93353 14.0503C6.93353 14.0548 6.93353 14.057 6.93353 14.0592L7.5002 14.0526H8.06686C8.06686 14.0503 8.06686 14.0481 8.06686 14.0459C8.05801 13.2026 8.3679 11.7947 9.0696 10.3914C9.24225 10.0483 9.43704 9.70295 9.65618 9.36428C10.0546 8.7954 10.4774 8.21988 10.8692 7.82587C11.0906 7.60451 11.4492 7.60451 11.6705 7.82365C11.8919 8.04501 11.8941 8.4036 11.6727 8.62496C10.7364 9.56793 10.079 10.6061 9.67611 11.7505C9.88418 11.7748 10.1033 11.7859 10.3335 11.7859C12.0335 11.7859 14.3002 10.0859 14.3002 6.68589V4.98589H12.0335Z" fill="#2891F9"/>
</svg>
