<svg width="18" height="18" viewBox="0 0 18 18" fill="none" xmlns="http://www.w3.org/2000/svg">
<g clip-path="url(#clip0_350_32382)">
<path d="M16.5479 11.3544C16.6071 11.4055 16.6459 11.4496 16.7041 11.502C16.7394 11.5338 16.7396 11.5338 16.7742 11.4991C16.7983 11.475 16.8216 11.4497 16.8463 11.426C16.9458 11.3295 17.0797 11.3342 17.1723 11.4393C17.2092 11.4814 17.2439 11.5259 17.2764 11.5726C17.3565 11.6871 17.3485 11.8368 17.2581 11.941C17.2327 11.9702 17.2058 11.9979 17.1783 12.0246C17.1555 12.0467 17.1547 12.0683 17.1709 12.0961C17.2043 12.1533 17.2367 12.2113 17.2681 12.27C17.308 12.3444 17.3434 12.4218 17.3771 12.4999C17.409 12.5743 17.409 12.5738 17.4755 12.5498C17.5076 12.5371 17.5403 12.5266 17.5735 12.5182C17.6816 12.4943 17.7841 12.5543 17.8303 12.6699C17.8582 12.7412 17.8792 12.8159 17.8926 12.8925C17.9125 13.0017 17.8544 13.1229 17.7614 13.1767C17.7254 13.1974 17.6858 13.2064 17.6482 13.2219C17.6027 13.2407 17.5987 13.2444 17.6062 13.2954C17.6302 13.4563 17.6472 13.618 17.6482 13.7815C17.6485 13.8171 17.6602 13.8375 17.6928 13.8406C17.7207 13.8432 17.7483 13.8491 17.7761 13.8524C17.8868 13.8656 17.9621 13.9288 17.9949 14.0535C17.9977 14.0644 18.005 14.2892 17.9953 14.3501C17.974 14.4847 17.8827 14.5806 17.7626 14.586C17.7367 14.5874 17.7107 14.5855 17.6852 14.5803C17.6378 14.5705 17.6065 14.5933 17.5951 14.6457C17.5669 14.7747 17.529 14.9 17.4883 15.0242C17.4763 15.0602 17.4832 15.0917 17.5093 15.1169C17.5229 15.1302 17.5754 15.195 17.5838 15.2166C17.6033 15.2661 17.5191 15.189 17.4997 15.1762C17.4551 15.1468 16.9098 14.8012 16.7067 14.6772C16.7213 14.554 16.7737 14.3964 16.7949 14.2749C16.9025 13.6559 16.7911 13.0913 16.4795 12.5758C16.2203 12.1471 15.8654 11.8729 15.4295 11.7369C15.0459 11.6171 14.6656 11.6414 14.2926 11.7978C13.984 11.9272 13.646 12.1393 13.4606 12.4732C13.4394 12.5004 13.4293 12.4973 13.3958 12.4801C13.2797 12.4137 12.825 12.0739 12.6402 11.9504C12.5582 11.856 12.504 11.7016 12.5656 11.5876C12.6095 11.5062 12.6685 11.4403 12.7318 11.3811C12.8208 11.2979 12.9497 11.3002 13.0442 11.3784C13.1614 11.4754 13.1613 11.475 13.2752 11.3708C13.3346 11.3163 13.398 11.268 13.4604 11.2183C13.5185 11.172 13.5228 11.1534 13.4955 11.0808C13.4213 10.883 13.4689 10.7327 13.6364 10.6349C13.6806 10.6079 13.7268 10.5854 13.7745 10.5677C13.9023 10.523 14.0201 10.5753 14.0896 10.706C14.162 10.8423 14.1617 10.8421 14.298 10.8061C14.3701 10.787 14.4432 10.7735 14.516 10.7583C14.5887 10.743 14.5998 10.7298 14.6039 10.6472C14.6056 10.6059 14.6111 10.5649 14.6202 10.5249C14.6394 10.4451 14.6743 10.375 14.7464 10.3435C14.8839 10.2834 15.0227 10.2719 15.1577 10.3509C15.2373 10.3975 15.2744 10.4777 15.2754 10.5815C15.2769 10.7372 15.2779 10.7385 15.4103 10.7631C15.4974 10.7794 15.5827 10.8035 15.6683 10.8267C15.7332 10.8443 15.75 10.8374 15.7754 10.7655C15.8394 10.5837 15.9987 10.4909 16.1865 10.5968C16.2398 10.6269 16.2957 10.6488 16.3422 10.6972C16.4361 10.7949 16.4427 10.9391 16.4041 11.0443C16.3987 11.0591 16.3921 11.0732 16.3868 11.0881C16.361 11.1612 16.3583 11.2039 16.3583 11.2039C16.3583 11.2039 16.4897 11.304 16.5479 11.3544Z" fill="#5F5F5F"/>
<path d="M16.6764 14.6174C16.731 14.6774 17.4606 15.1354 17.5235 15.1787C17.5422 15.1814 17.5566 15.1957 17.5735 15.2035L17.5726 15.2028C17.5856 15.2163 17.5981 15.2305 17.6098 15.2454L17.6092 15.2445C17.667 15.3373 17.6666 15.4363 17.6332 15.5388C17.612 15.5932 17.5865 15.6453 17.557 15.6945C17.4883 15.8132 17.3616 15.8504 17.2501 15.786C17.2162 15.7664 17.1834 15.7446 17.1512 15.7211C17.1278 15.7044 17.1117 15.7089 17.0953 15.7338C17.006 15.8693 16.9067 15.9958 16.7986 16.1119C16.7768 16.1352 16.7743 16.1556 16.7926 16.1826C16.8137 16.2132 16.8334 16.2451 16.8523 16.2775C16.9293 16.4085 16.9086 16.5597 16.7997 16.6568C16.7618 16.6905 16.7231 16.7233 16.6829 16.7534C16.5747 16.8339 16.448 16.8112 16.3656 16.6972C16.3428 16.6652 16.3215 16.6319 16.3017 16.5974C16.2842 16.5672 16.2665 16.5603 16.2372 16.5796C16.1135 16.6603 15.983 16.7241 15.8497 16.7805C15.8012 16.8012 15.8016 16.8019 15.8111 16.8601C15.8145 16.8803 15.8171 16.9008 15.8205 16.921C15.8515 17.0915 15.8162 17.1839 15.6862 17.2713C15.6526 17.2927 15.6141 17.2894 15.5781 17.3003C15.5154 17.3176 15.4519 17.3162 15.388 17.3125H15.3877C15.3668 17.3007 15.3462 17.2879 15.3258 17.275C15.2643 17.2162 15.2368 17.1387 15.2209 17.0499C15.1993 16.9296 15.2125 16.9491 15.1159 16.9543C14.988 16.9612 14.8599 16.9606 14.732 16.9524C14.6824 16.9492 14.6823 16.949 14.6709 17.0018C14.6656 17.0264 14.6596 17.0508 14.6563 17.0757C14.6356 17.2333 14.525 17.3516 14.3487 17.3131C14.3056 17.3036 14.2629 17.2908 14.2207 17.2765C14.1002 17.2359 14.0305 17.1025 14.0547 16.9608C14.0607 16.9248 14.068 16.889 14.0741 16.8529C14.0824 16.8039 14.0819 16.8013 14.039 16.7828C13.9566 16.7473 13.8745 16.711 13.7952 16.6671C13.7483 16.6412 13.702 16.614 13.6558 16.5867C13.6078 16.5583 13.6081 16.5579 13.5745 16.6096C13.5565 16.6372 13.5396 16.6657 13.521 16.6923C13.4388 16.8105 13.3091 16.8354 13.1996 16.7527C13.1579 16.7212 13.1172 16.6874 13.078 16.6518C12.978 16.5608 12.9565 16.4113 13.0252 16.2879C13.0456 16.2512 13.0683 16.2161 13.0913 16.1814C13.1072 16.1573 13.1082 16.1381 13.0877 16.1159C12.9782 15.9982 12.8777 15.8698 12.7874 15.7322C12.7702 15.706 12.7534 15.7062 12.7311 15.7222C12.704 15.7417 12.676 15.7596 12.6479 15.7774C12.5217 15.8562 12.3903 15.8173 12.3162 15.6756C12.2897 15.6248 12.2573 15.5782 12.2391 15.5213C12.1939 15.3802 12.232 15.2495 12.3448 15.1709C12.3688 15.1542 12.3933 15.1388 12.4169 15.122C12.4585 15.0927 12.4596 15.0919 12.4412 15.0408C12.4031 14.9347 12.3702 14.8262 12.3429 14.7157C12.3309 14.6675 12.3195 14.6184 12.3095 14.5693C12.3023 14.5334 12.286 14.5195 12.2538 14.5273C12.2282 14.5326 12.2024 14.5366 12.1765 14.539C12.0239 14.5575 11.9108 14.4526 11.8949 14.2779C11.8905 14.2296 11.8858 14.1819 11.8829 14.1338C11.8788 14.0643 11.8981 13.9956 11.9369 13.9419C11.9756 13.8882 12.0308 13.8537 12.0911 13.8454C12.1248 13.8406 12.1588 13.8376 12.1923 13.8316C12.2361 13.8233 12.2375 13.8223 12.2382 13.7699C12.2401 13.6551 12.2478 13.5406 12.261 13.4268C12.2665 13.3768 12.2811 13.3282 12.2779 13.2769C12.2746 13.2419 12.2616 13.2202 12.2371 13.2092C12.2203 13.2036 12.2163 13.2012 12.1913 13.194C12.1419 13.1802 12.0971 13.1557 12.0613 13.1142" fill="#414141"/>
<path d="M12.28 13.3081C12.2857 13.273 12.2725 13.2202 12.2411 13.2101C12.2141 13.2014 12.171 13.1829 12.1442 13.1736C12.0377 13.1367 11.9709 13.0402 11.9592 12.9106C11.9456 12.8555 11.988 12.677 12.0072 12.6191C12.0502 12.4916 12.1557 12.4172 12.2745 12.4378C12.3002 12.4421 12.3253 12.4496 12.3496 12.4602C12.3945 12.4802 12.429 12.4645 12.4488 12.4155C12.4977 12.2949 12.5709 12.1755 12.6179 12.0542C12.6635 11.9369 12.6312 11.9466 12.6471 11.9507C12.6861 11.9892 13.2542 12.3063 13.4333 12.4721C13.3166 12.617 13.0575 13.2729 13.0467 13.4923" fill="#414141"/>
<path d="M13.44 12.4617C13.8027 12.0117 14.0622 11.8185 14.4202 11.7017C14.6381 11.6301 14.8654 11.6041 15.0913 11.6249C15.4714 11.66 15.8147 11.8124 16.1169 12.0817C16.3835 12.3193 16.5776 12.6203 16.71 12.9752C16.791 13.1923 16.8338 13.4193 16.8538 13.6545C16.8824 13.9913 16.8196 14.3676 16.7189 14.6816C16.6986 14.7023 16.3276 14.4108 16.2879 14.354C16.2789 14.3234 16.2901 14.2953 16.2969 14.2669C16.3334 14.1135 16.357 13.9577 16.3528 13.7983C16.3328 13.0323 15.8782 12.4004 15.2494 12.2461C14.7854 12.1321 14.2934 12.2471 13.843 12.7726C13.8316 12.7799 13.8281 12.7641 13.7516 12.7036C13.6232 12.614 13.56 12.5577 13.4723 12.4967C13.422 12.463 13.4245 12.4812 13.44 12.4617Z" fill="#414141"/>
<path d="M16.7267 14.6595C16.7146 14.6815 16.7037 14.7044 16.694 14.728C16.5834 15.034 16.4063 15.2852 16.1905 15.498C15.9082 15.7766 15.5807 15.9503 15.2088 16.0061C15.1178 16.0199 15.0265 16.0349 14.9344 16.0316C14.6682 16.0218 14.4109 15.9656 14.165 15.8427C14.0091 15.7642 13.8631 15.6619 13.7311 15.5385C13.5256 15.3477 13.3586 15.1183 13.236 14.8466C13.1234 14.5962 13.0586 14.3314 13.031 14.0524C13.007 13.8122 13.0259 13.5765 13.0697 13.3414C13.1198 13.0731 13.2132 12.8259 13.3437 12.5969C13.3623 12.5643 13.4163 12.4904 13.4338 12.4719C13.5286 12.5284 13.7875 12.7246 13.829 12.7672C13.8551 12.8064 13.8068 12.8581 13.7918 12.8833C13.7123 13.0167 13.6468 13.1576 13.6046 13.3125C13.4578 13.8519 13.5251 14.3539 13.8209 14.8053C14.0677 15.1818 14.4034 15.3883 14.8137 15.4356C15.3984 15.503 15.9984 15.1219 16.2453 14.4493C16.259 14.4122 16.2556 14.3536 16.3111 14.3507C16.3467 14.3977 16.6848 14.633 16.7267 14.6595Z" fill="#5F5F5F"/>
<path d="M16.3106 14.3507C16.2641 14.4878 16.212 14.6214 16.1391 14.7433C15.9079 15.1296 15.5924 15.3692 15.1906 15.4518C14.7837 15.5354 14.4113 15.4311 14.0801 15.1501C13.7888 14.9029 13.603 14.5702 13.5312 14.1629C13.4465 13.6814 13.5355 13.2383 13.7838 12.8379C13.7931 12.8229 13.8019 12.8078 13.8112 12.7928C13.8205 12.7799 13.944 12.6235 14.0041 12.5657C14.2703 12.3097 14.5748 12.1784 14.9229 12.1708C15.5751 12.1566 16.1634 12.6635 16.3331 13.4C16.401 13.6948 16.3992 13.9902 16.3254 14.2842C16.3198 14.306 16.3155 14.3285 16.3106 14.3507Z" fill="#EDAE50"/>
<path d="M15.3274 13.8247C15.3384 14.0768 15.1368 14.2719 14.9456 14.2693C14.7274 14.2663 14.5483 14.0698 14.5503 13.8205C14.5522 13.5768 14.7181 13.3753 14.9483 13.3746C15.1401 13.374 15.338 13.571 15.3274 13.8247Z" fill="#414141"/>
<path d="M15.3493 12.987C15.3937 12.9818 15.4306 12.9998 15.4613 13.0376C15.4885 13.071 15.5177 13.1025 15.5442 13.1366C15.6059 13.2157 15.5683 13.3605 15.4885 13.389C15.4537 13.4014 15.4217 13.4022 15.3911 13.3791C15.3254 13.3296 15.2694 13.267 15.2198 13.1983C15.167 13.1253 15.1938 13.0319 15.2723 13.0002C15.2969 12.9898 15.3231 12.9853 15.3493 12.987Z" fill="#FCD38C"/>
<path d="M4.87975 17.2868C4.77161 17.2215 4.70745 17.12 4.68817 16.9806C4.68156 16.9331 4.67015 16.8866 4.66168 16.8393C4.65567 16.8062 4.64113 16.7952 4.61103 16.7979C4.41968 16.8164 4.2274 16.8187 4.03575 16.8048C4.00979 16.803 3.98378 16.8014 3.95801 16.7979C3.93344 16.7947 3.92064 16.8064 3.91559 16.8336C3.90646 16.883 3.89421 16.9316 3.88712 16.9814C3.86519 17.135 3.7919 17.2406 3.66712 17.3001C3.58728 17.325 3.5075 17.3163 3.42772 17.2993C3.35383 17.2835 3.27795 17.2762 3.21096 17.2316C3.18525 17.2099 3.15762 17.1911 3.13533 17.1641C3.05573 17.0676 3.02281 16.9549 3.04335 16.8234C3.0511 16.7737 3.06138 16.7247 3.07009 16.6751C3.08481 16.5906 3.08468 16.5901 3.01602 16.5622C2.85966 16.4984 2.70714 16.4229 2.55944 16.336C2.52388 16.3153 2.48783 16.2946 2.45383 16.271C2.42788 16.2526 2.41063 16.2565 2.39375 16.2848C2.36786 16.3283 2.33914 16.3696 2.31343 16.4134C2.20391 16.6001 1.98902 16.6548 1.82009 16.5052C1.77581 16.466 1.72907 16.4304 1.68468 16.3914C1.52794 16.2539 1.49934 16.0347 1.61355 15.849C1.64347 15.8002 1.67404 15.7519 1.70528 15.7042C1.72012 15.6817 1.71988 15.6633 1.70108 15.6448C1.69195 15.6359 1.68378 15.6257 1.67507 15.6162C1.52872 15.4565 1.39355 15.2838 1.27081 15.0997C1.23597 15.0474 1.23567 15.0476 1.18449 15.0814C1.14982 15.1043 1.11534 15.1274 1.08067 15.1504C0.898405 15.27 0.717336 15.2174 0.604694 15.0125C0.589254 14.9862 0.583427 14.9767 0.567267 14.9452C0.547382 14.9009 0.523351 14.8594 0.505329 14.8136C0.428492 14.6182 0.482019 14.4183 0.642842 14.3079C0.68057 14.282 0.718898 14.2572 0.756986 14.2314C0.80769 14.1969 0.808231 14.1965 0.786423 14.1366C0.716332 13.9438 0.658508 13.7454 0.613405 13.543C0.605956 13.5097 0.597785 13.4765 0.591778 13.4429C0.58577 13.4092 0.568708 13.3983 0.540052 13.4025C0.486525 13.4103 0.432937 13.4192 0.379109 13.4227C0.240935 13.4319 0.1343 13.3688 0.0621489 13.2327C0.032111 13.1767 0.0208169 13.114 0.0157705 13.0491C0.0120458 13.0009 0.00375516 12.9575 0.000931597 12.9057C-0.0107231 12.71 0.0868401 12.4643 0.301311 12.4466C0.347149 12.4429 0.392746 12.4349 0.438464 12.4291C0.491331 12.4223 0.493193 12.4218 0.494395 12.364C0.497834 12.1942 0.509869 12.0247 0.53044 11.8565C0.538851 11.7883 0.548463 11.7203 0.558916 11.6526C0.568949 11.5879 0.569009 11.5865 0.512838 11.5654C0.470785 11.5497 0.428732 11.5349 0.387339 11.5187C0.207472 11.4491 0.114595 11.2524 0.165059 11.0432C0.183682 10.9659 0.206571 10.8897 0.231142 10.8145C0.294162 10.6208 0.4667 10.5231 0.639658 10.5817C0.691443 10.5992 0.743349 10.6167 0.793693 10.6388C0.825893 10.6526 0.840191 10.6411 0.853768 10.6085C0.885669 10.5318 0.920332 10.4567 0.953915 10.3812C0.96593 10.3551 0.976984 10.3343 0.987858 10.3104C1.0239 10.2345 1.06217 10.1597 1.10801 10.0906C1.14928 10.0492 8.09369 14.7376 8.0741 14.7917C8.06077 14.8193 8.05007 14.846 8.03728 14.8726C8.01277 14.9225 7.98964 14.9734 7.96356 15.0222C7.8645 15.2072 7.68415 15.2636 7.51582 15.1627C7.4716 15.1361 7.42913 15.1056 7.38569 15.0772C7.34052 15.0477 7.33998 15.0474 7.30928 15.0929C7.24075 15.1946 7.16906 15.2932 7.09421 15.3888C7.02722 15.4742 6.95639 15.5551 6.8843 15.6346C6.85114 15.6712 6.8512 15.6723 6.87673 15.7139C6.90551 15.7608 6.93591 15.8063 6.96444 15.8534C7.0751 16.0362 7.04543 16.2561 6.89169 16.3906C6.84243 16.4337 6.79237 16.4756 6.7415 16.5162C6.58176 16.6433 6.39198 16.6086 6.27387 16.4308C6.24383 16.3852 6.2153 16.3378 6.18526 16.2919C6.15811 16.2506 6.15708 16.2499 6.11731 16.2748C5.9542 16.3773 5.78489 16.4662 5.61069 16.5409C5.5863 16.5513 5.56173 16.561 5.53746 16.5716C5.49355 16.5909 5.4927 16.5916 5.50142 16.6475C5.50917 16.6971 5.51565 16.7475 5.52809 16.7957C5.57447 16.976 5.47763 17.1937 5.26261 17.2704C5.16968 17.3035 4.96836 17.3276 4.87975 17.2868Z" fill="#414141"/>
<path d="M8.06112 14.8051C7.91526 14.708 6.61714 13.7898 6.52624 13.7322C6.47692 13.7035 6.49296 13.7001 6.52288 13.6356C6.62906 13.3752 6.7005 13.0979 6.73483 12.8131C6.75958 12.6057 6.75826 12.3973 6.74336 12.1884C6.72941 11.9915 6.69718 11.7969 6.64724 11.6079C6.58362 11.3671 6.49158 11.1417 6.37792 10.9263C6.2511 10.686 6.08955 10.4809 5.91107 10.2917C5.77385 10.1463 5.61874 10.0282 5.45497 9.92557C5.20892 9.77038 4.94117 9.66565 4.66377 9.6161C4.48955 9.58506 4.31371 9.56975 4.13787 9.58299C3.76365 9.61127 3.40939 9.72425 3.07987 9.93219C2.81993 10.1005 2.58728 10.3191 2.39218 10.5783C2.34244 10.6445 2.27161 10.7761 2.22289 10.8429C2.19489 10.8812 1.72906 10.5343 1.09538 10.1039C1.11875 10.0567 1.14128 10.0181 1.16627 9.97682C1.18183 9.95102 1.18057 9.93151 1.16026 9.91109C1.12139 9.8715 1.08265 9.8317 1.0445 9.79115C0.923145 9.6619 0.894789 9.4905 0.970785 9.32215C0.988147 9.28359 1.01951 9.19296 1.06733 9.1271C1.09046 9.09523 1.11593 9.06619 1.14092 9.03647C1.26323 8.89121 1.50102 8.8888 1.62868 9.02267C1.78319 9.18448 1.76289 9.14682 1.89301 9.03226C2.00421 8.93453 2.11673 8.83914 2.23436 8.75155C2.29768 8.70444 2.30177 8.68168 2.26975 8.60278C2.23406 8.51477 2.20192 8.42628 2.20883 8.32572C2.21736 8.20157 2.26128 8.09536 2.34965 8.02639C2.47581 7.92803 2.60978 7.84706 2.77072 7.85209C2.90367 7.85637 2.99678 7.93224 3.06431 8.05653C3.08834 8.10122 3.10702 8.15005 3.12649 8.19792C3.14451 8.24275 3.17371 8.25737 3.21462 8.24502C3.38698 8.19323 3.56156 8.15398 3.73728 8.12136C3.80114 8.1095 3.814 8.08798 3.81646 8.01514C3.81764 7.98987 3.81764 7.96455 3.81646 7.93927C3.80282 7.70781 3.95902 7.51352 4.14363 7.50007C4.2454 7.49262 4.34735 7.48379 4.4484 7.50696C4.59697 7.54145 4.74319 7.69767 4.72847 7.91217C4.72643 7.94183 4.72793 7.97183 4.72847 8.00183C4.72979 8.08998 4.74421 8.11156 4.82009 8.12405C4.9845 8.15047 5.14732 8.18861 5.3076 8.23826C5.39243 8.26489 5.40559 8.25523 5.44091 8.16419C5.46861 8.09287 5.49636 8.02142 5.54526 7.96417C5.64415 7.84885 5.76724 7.83023 5.89545 7.86279C5.99697 7.88858 6.09237 7.94148 6.17979 8.00687C6.32223 8.1135 6.37413 8.30503 6.31616 8.49132C6.30414 8.53015 6.2896 8.56808 6.27446 8.6056C6.24443 8.6792 6.24953 8.7061 6.30925 8.74948C6.43469 8.83972 6.55549 8.93822 6.67103 9.04447C6.79761 9.16172 6.77502 9.17951 6.91469 9.0344C7.03701 8.90728 7.22589 8.89211 7.33745 8.97922C7.45051 9.0673 7.54885 9.17834 7.61416 9.31718C7.67225 9.44091 7.66444 9.66838 7.54874 9.78267C7.51401 9.81715 7.48325 9.85674 7.45099 9.89447C7.42306 9.92723 7.41927 9.96302 7.44138 10.0004C7.5448 10.1752 7.63736 10.3582 7.71839 10.548C7.73827 10.5945 7.77246 10.6064 7.81451 10.5911C7.86401 10.5728 7.91453 10.5583 7.96572 10.5477C8.10257 10.5201 8.2533 10.5891 8.32359 10.727C8.39184 10.8606 8.43377 11.0072 8.43804 11.1641C8.44266 11.3365 8.36787 11.4558 8.23979 11.5352C8.19725 11.561 8.15241 11.5814 8.10606 11.5961C8.0571 11.6121 8.03613 11.6463 8.04598 11.7036C8.08053 11.9093 8.092 12.1175 8.10335 12.326C8.10636 12.3812 8.12961 12.4116 8.17791 12.4132C8.21396 12.4145 8.24946 12.4222 8.28508 12.4276C8.46874 12.4552 8.59436 12.6192 8.59502 12.8325C8.59532 12.8738 8.59362 12.9151 8.58991 12.9562C8.5839 13.021 8.56372 13.1139 8.54786 13.1745C8.50184 13.3512 8.3466 13.4479 8.1865 13.4362C8.13465 13.4325 8.08311 13.4229 8.03132 13.417C7.98374 13.4117 7.98134 13.4123 7.96951 13.4666C7.93394 13.6292 7.89519 13.7907 7.84431 13.9481C7.82064 14.0213 7.79625 14.0942 7.76945 14.1659C7.75744 14.1977 7.76248 14.2172 7.7882 14.2339C7.83872 14.2666 7.88967 14.2988 7.93839 14.335C8.06839 14.4315 8.1221 14.6072 8.07476 14.7749C8.07092 14.7854 8.06636 14.7955 8.06112 14.8051Z" fill="#666059"/>
<path d="M2.76584 11.1802C2.82592 11.0974 2.88293 11.0115 2.94871 10.9339C3.259 10.5678 3.63394 10.3529 4.07664 10.2957C4.46815 10.2451 4.8396 10.3233 5.1827 10.5449C5.71089 10.8861 6.02592 11.4062 6.12529 12.0917C6.18302 12.4899 6.13929 12.8786 6.00153 13.2518C5.99378 13.273 5.98826 13.2951 5.98171 13.3167C5.99667 13.3527 5.98213 13.3835 5.96903 13.4147C5.90223 13.5733 5.81434 13.7156 5.71263 13.8458C5.42012 14.2203 5.06213 14.4686 4.62766 14.5544C4.05093 14.6684 3.53061 14.5152 3.07824 14.0871C2.71135 13.7398 2.49027 13.2902 2.41908 12.7511C2.36369 12.3315 2.40977 11.9227 2.56122 11.5322C2.59793 11.4375 2.64251 11.348 2.68738 11.2583C2.70571 11.2209 2.72962 11.193 2.76584 11.1802Z" fill="#EDAE50"/>
<path d="M3.10081 12.4166C3.0909 11.6433 3.66709 11.054 4.2783 11.0504C4.87774 11.0469 5.47597 11.5949 5.47699 12.4235C5.47801 13.1927 4.93421 13.7773 4.29951 13.7848C3.60803 13.793 3.08814 13.138 3.10081 12.4166Z" fill="#45423D"/>
<path d="M5.4555 11.155C5.46541 11.2691 5.34093 11.3586 5.25442 11.2926C5.19573 11.248 5.14028 11.2024 5.09378 11.1428C5.02679 11.0572 5.04205 10.9683 5.13078 10.9123C5.19651 10.871 5.25779 10.868 5.31846 10.9274C5.36118 10.9691 5.40257 11.0112 5.43321 11.0657C5.44874 11.092 5.45655 11.1233 5.4555 11.155Z" fill="#FCD38C"/>
<path d="M3.33975 12.4259C3.32504 11.8673 3.71937 11.3224 4.29172 11.3248C4.82639 11.3273 5.24374 11.8195 5.23839 12.4352C5.23317 13.0422 4.79479 13.5181 4.27382 13.5107C3.73361 13.503 3.32516 12.9811 3.33975 12.4259Z" fill="#EDAE50"/>
<path d="M4.28591 12.8637C4.07294 12.8637 3.89542 12.6604 3.89698 12.4154C3.89836 12.174 4.06129 11.972 4.28838 11.9693C4.49552 11.9669 4.67641 12.1634 4.67526 12.4192C4.67418 12.6684 4.50357 12.864 4.28591 12.8637Z" fill="#414141"/>
<path d="M4.73527 11.6772C4.75762 11.6772 4.77949 11.6801 4.79847 11.6945C4.88108 11.7574 4.92529 11.8448 4.92235 11.9598C4.92079 12.0189 4.84695 12.0811 4.79661 12.068C4.71148 12.0458 4.64209 11.9973 4.59469 11.9103C4.55372 11.835 4.56183 11.7719 4.62323 11.7187C4.65645 11.6901 4.69442 11.6785 4.73527 11.6772Z" fill="#FCD38C"/>
<path d="M2.7662 11.1802C2.7042 11.2928 2.64418 11.4064 2.59624 11.5283C2.51571 11.7339 2.4634 11.9526 2.44119 12.1766C2.4117 12.4591 2.43206 12.7455 2.50103 13.0187C2.57001 13.292 2.6862 13.5465 2.84267 13.7671C3.08057 14.1023 3.38035 14.3333 3.73949 14.4622C3.94765 14.5368 4.162 14.5711 4.37911 14.5546C4.94707 14.5115 5.41026 14.2339 5.76423 13.7201C5.83853 13.6117 5.90262 13.4946 5.95545 13.3708C5.96338 13.3523 5.97317 13.335 5.98206 13.3171C6.03144 13.3436 6.41563 13.6285 6.48111 13.6811C6.50712 13.7018 6.49535 13.7294 6.48297 13.7546C6.41551 13.893 6.3442 14.0286 6.25835 14.1532C6.07073 14.4258 5.85188 14.6582 5.59301 14.8403C5.34176 15.0172 5.06575 15.1429 4.77718 15.2118C4.55394 15.2659 4.32781 15.2739 4.10234 15.2577C3.80245 15.2366 3.51504 15.1494 3.24146 15.0036C3.05404 14.905 2.87839 14.7792 2.7188 14.6293C2.4049 14.3323 2.16141 13.9736 2.00389 13.5404C1.90322 13.2622 1.84027 12.9681 1.81724 12.6681C1.78119 12.2207 1.84295 11.79 1.98016 11.3714C2.03045 11.2182 2.09677 11.0744 2.16766 10.933C2.17463 10.9192 2.18244 10.9054 2.19049 10.8925C2.23356 10.8222 2.24173 10.82 2.30577 10.8619C2.41331 10.9323 2.62015 11.0796 2.72546 11.1534C2.73953 11.1613 2.75314 11.1702 2.7662 11.1802Z" fill="#666059"/>
<path d="M6.10515 12.872C6.15947 12.5944 6.16455 12.3071 6.1201 12.0273C6.07564 11.7474 5.98256 11.4807 5.84641 11.243C5.61884 10.906 5.33294 10.6222 5.01568 10.447C4.81765 10.349 4.60542 10.2945 4.38993 10.2861C3.82107 10.2628 3.33337 10.4792 2.93609 10.9494C2.87362 11.0247 2.81495 11.1041 2.76037 11.1871C2.71363 11.155 2.2833 10.9029 2.22281 10.8429C2.19878 10.8191 2.3864 10.575 2.48282 10.461C2.69356 10.2117 2.93176 10.0058 3.20547 9.85492C3.46163 9.70318 3.75444 9.61649 4.0499 9.58041C4.27643 9.55231 4.50522 9.55927 4.73014 9.6011C5.02661 9.65718 5.29996 9.7896 5.55918 9.96665C5.73695 10.0866 5.9006 10.2322 6.04616 10.3999C6.33218 10.732 6.54269 11.1172 6.66128 11.5666C6.73685 11.855 6.77346 12.1551 6.76983 12.4563C6.76593 12.9056 6.66771 13.3184 6.52503 13.6509C6.49673 13.7168 6.52238 13.7152 6.44038 13.6509C6.33963 13.5681 6.08827 13.3953 5.98218 13.3171C5.97557 13.3113 6.0622 13.0933 6.10515 12.872Z" fill="#45423D"/>
<path d="M3.46368 1.16137C3.41994 1.00163 3.38636 0.838723 3.34953 0.676848C3.3398 0.634224 3.35073 0.622775 3.39032 0.611739C5.58099 0.000103235 8.245 0.467452 9.61323 0.943284C9.83005 1.0326 10.0411 1.1364 10.2363 1.27841C10.321 1.34007 10.4014 1.40801 10.4646 1.49912C10.4822 1.52407 10.4981 1.55059 10.512 1.57844C10.5451 1.6461 10.5525 1.71431 10.5214 1.78832C10.4493 1.96001 10.3709 2.12784 10.2862 2.29181C10.2315 2.39857 10.1752 2.50431 10.1197 2.61059C10.0935 2.66217 10.0642 2.71152 10.0319 2.75826C10.0036 2.78854 9.97183 2.77398 9.94131 2.76612C9.80734 2.73164 9.67199 2.70467 9.5388 2.66701C9.52901 2.66425 9.51903 2.66894 9.50912 2.66936C9.36962 2.61749 9.22232 2.61156 9.08066 2.5728C9.0621 2.56769 9.04593 2.58059 9.02815 2.57714C8.79548 2.52521 8.55956 2.499 8.32526 2.46203C8.24284 2.44899 8.15783 2.45589 8.07793 2.42209C8.04741 2.38506 8.04189 2.33664 8.03161 2.28995C7.97256 2.01447 7.89584 1.74714 7.75526 1.50974C7.73388 1.47367 7.71063 1.43925 7.68624 1.40574C7.61312 1.30497 7.52583 1.24503 7.4073 1.22717C7.09815 1.18048 6.78852 1.14013 6.47799 1.10992C5.96133 1.05936 5.44408 1.05074 4.92647 1.05916C4.67102 1.06322 4.41582 1.08274 4.16086 1.10799C3.94975 1.12868 3.73912 1.15323 3.5291 1.18517C3.50309 1.18806 3.48062 1.18627 3.46368 1.16137Z" fill="#EDAE50"/>
<path d="M10.7281 5.97071C10.5826 5.96954 10.437 5.96609 10.2916 5.96844C10.2452 5.96913 10.235 5.93816 10.2249 5.89988C10.1854 5.88609 10.1865 5.8447 10.1805 5.81022C10.1334 5.54475 10.0891 5.27852 10.038 5.01401C9.9121 4.36369 9.77068 3.71798 9.59863 3.08144C9.56901 2.97178 9.53711 2.86294 9.50815 2.753C9.49932 2.71955 9.4825 2.68307 9.51097 2.64955C9.52149 2.63575 9.53555 2.63575 9.54936 2.63858C9.71127 2.67307 9.87305 2.70755 10.0321 2.75735C10.1365 3.09476 10.2243 3.43802 10.3054 3.78364C10.4155 4.25333 10.51 4.72737 10.5981 5.20306C10.6309 5.38073 10.7277 5.9663 10.7281 5.97071Z" fill="#45423D"/>
<path d="M3.46372 1.16138C3.65506 1.12386 3.8482 1.10206 4.04123 1.0822C4.18042 1.06785 4.32034 1.05868 4.4599 1.04771C4.84763 1.01682 5.23572 1.01744 5.62369 1.02495C5.9055 1.0304 6.18708 1.04758 6.46841 1.07323C6.65579 1.09034 6.84287 1.10999 7.02952 1.13448C7.18632 1.15517 7.34192 1.18504 7.49878 1.20849C7.54948 1.216 7.58769 1.24456 7.62391 1.28256C7.74881 1.41361 7.837 1.57389 7.90627 1.74881C7.9887 1.95668 8.04529 2.17408 8.08283 2.39817C8.07412 2.42962 8.05177 2.43003 8.02919 2.42845C7.92952 2.42155 7.82967 2.41348 7.73037 2.40286C7.64278 2.39355 7.55483 2.38906 7.46736 2.38341C7.32792 2.37458 7.1883 2.3572 7.04815 2.3661C6.99408 2.36961 6.94079 2.35396 6.88684 2.35299C6.81379 2.35175 6.79108 2.36989 6.76573 2.44762C6.61638 2.90607 6.49341 3.37397 6.38533 3.84725C6.21832 4.57834 6.09096 5.31902 5.98384 6.0644C5.95513 6.26358 5.93176 6.46374 5.90616 6.66355C5.90094 6.70417 5.89709 6.74583 5.87456 6.7808C5.85696 6.80108 5.83455 6.80246 5.81305 6.79604C5.7126 6.76625 5.61287 6.733 5.51267 6.70238C5.50483 6.70034 5.49754 6.69614 5.49145 6.69013C5.48535 6.68412 5.48064 6.67648 5.4777 6.66789C5.46154 6.61803 5.4717 6.56733 5.47818 6.51823C5.58031 5.71195 5.70533 4.91072 5.86976 4.11803C5.98606 3.55743 6.11859 3.00249 6.28837 2.45976C6.31408 2.37768 6.29966 2.35382 6.22457 2.35285C5.92695 2.34906 5.62981 2.36092 5.33232 2.37727C5.18285 2.38555 5.03344 2.39258 4.88433 2.40693C4.87436 2.40693 4.86433 2.40734 4.8543 2.40741C4.69864 2.40858 4.69503 2.41251 4.64595 2.5788C4.36029 3.54564 4.1606 4.53675 4.00632 5.54104C3.96019 5.84141 3.91975 6.14275 3.87866 6.44401C3.87494 6.4716 3.87229 6.49878 3.85716 6.52188C3.84274 6.54857 3.81895 6.55216 3.79504 6.55637C3.67092 6.57706 3.54608 6.59147 3.42257 6.61665C3.39475 6.62237 3.36057 6.6292 3.35498 6.57775C3.37569 6.41898 3.39643 6.2602 3.41722 6.10143C3.47105 5.68843 3.532 5.27691 3.60009 4.86685C3.68936 4.32957 3.79149 3.79649 3.91765 3.26982C3.97773 3.02001 4.03979 2.77075 4.1153 2.52632C4.14173 2.44065 4.14161 2.44065 4.08448 2.38148C3.94667 2.23822 3.80933 2.09442 3.6708 1.95206C3.64533 1.92642 3.6275 1.89227 3.6198 1.8544C3.57288 1.64562 3.52367 1.43754 3.47525 1.22918C3.46687 1.20789 3.46296 1.18465 3.46384 1.16131L3.46372 1.16138Z" fill="#45423D"/>
<path d="M3.46383 1.16103C3.47116 1.1829 3.47951 1.20448 3.47525 1.2289C3.46323 1.20828 3.44797 1.188 3.46383 1.16103Z" fill="#A9A9A9"/>
<path d="M6.64438 7.15607C6.41417 7.01413 6.17284 6.90226 5.92599 6.80535C5.90352 6.79652 5.87991 6.78997 5.86279 6.7688C5.88821 6.56664 5.91169 6.36414 5.93933 6.1624C6.00341 5.69533 6.07825 5.23058 6.16383 4.76815C6.2942 4.06727 6.45015 3.37439 6.65519 2.69695C6.68799 2.58853 6.722 2.48059 6.75612 2.37279C6.77336 2.31823 6.77414 2.31802 6.82503 2.31968C7.10895 2.32892 7.39281 2.34141 7.6763 2.36182C7.81189 2.37155 7.94725 2.38589 8.08272 2.39817C8.30656 2.42286 8.52962 2.45452 8.75226 2.49073C8.84688 2.50618 8.9415 2.52039 9.03546 2.54046C9.08953 2.56522 9.12299 2.61267 9.15561 2.66716C9.27961 2.87455 9.37843 3.0985 9.46062 3.32928C9.54665 3.57068 9.62535 3.8169 9.67845 4.07203C9.69936 4.17245 9.72904 4.27032 9.75054 4.3704C9.82083 4.69973 9.89875 5.02693 9.95558 5.36006C9.98472 5.5309 10.0157 5.70161 10.054 5.87045C10.0643 5.91535 10.0812 5.96618 10.0308 5.99853C10.0254 6.00543 10.0209 6.01405 10.0143 6.01812C9.92519 6.07226 9.86493 6.1604 9.80641 6.25027C9.70861 6.40029 9.61177 6.55113 9.51457 6.70169C9.48717 6.71548 9.46458 6.70403 9.44218 6.68562C9.32511 6.58934 9.20696 6.49473 9.08773 6.4018C9.02711 6.35442 9.02242 6.33069 9.0631 6.26076C9.12083 6.16144 9.18289 6.06557 9.24242 5.9677C9.26531 5.93004 9.28982 5.89342 9.30851 5.85272C9.34221 5.77892 9.32983 5.70533 9.27805 5.66126C9.22626 5.61719 9.16174 5.62615 9.11206 5.69009C9.0494 5.77079 9.00002 5.86328 8.94649 5.95218C8.77659 6.23326 8.60638 6.51413 8.43584 6.7948C8.4198 6.82115 8.40346 6.84749 8.39259 6.87756C8.36766 6.94585 8.38502 7.0162 8.43554 7.05406C8.48781 7.09324 8.54794 7.08551 8.59222 7.0273C8.65416 6.94592 8.70318 6.85322 8.75707 6.76521C8.79143 6.70872 8.82568 6.65217 8.86112 6.59665C8.88581 6.55802 8.91309 6.5523 8.94865 6.57851C9.07829 6.67417 9.20205 6.77949 9.32851 6.88032C9.34972 6.89722 9.37056 6.91722 9.36972 6.95185C9.33019 7.02585 9.29078 7.1 9.25095 7.17373C9.23095 7.21076 9.2095 7.24677 9.18974 7.28408C9.10749 7.43837 9.10497 7.5979 9.17586 7.75626C9.36678 8.18271 9.56515 8.6046 9.78899 9.00988C9.81687 9.06029 9.84685 9.10899 9.87484 9.15913C9.95372 9.30031 10.0715 9.35694 10.2102 9.3617C10.3439 9.36625 10.4773 9.34942 10.6105 9.33597C10.6075 9.97444 10.4483 10.5586 10.1504 11.096C10.1087 11.1713 10.0635 11.2034 9.9822 11.2007C9.76652 11.1933 9.55055 11.1993 9.3347 11.2C9.29108 11.1931 9.29265 11.1488 9.28664 11.1156C9.26105 10.9786 9.2274 10.8443 9.19184 10.7104C9.05535 10.1939 8.85744 9.70147 8.6037 9.24707C8.52169 9.10016 8.43014 8.96139 8.34429 8.81786C8.26445 8.69826 8.17836 8.58439 8.08951 8.4739C7.93127 8.27713 7.76702 8.08697 7.58721 7.91524C7.3272 7.66833 7.04871 7.44826 6.75498 7.2576C6.71431 7.22952 6.66553 7.21208 6.64438 7.15607Z" fill="#B9E1E1"/>
<path d="M10.0181 6.01453C10.0347 5.97314 10.0333 5.91603 10.0246 5.87707C9.94874 5.53738 9.41292 3.16919 9.1099 2.64805C9.07319 2.58487 9.06454 2.56811 9.03564 2.54045C9.17796 2.55314 9.31752 2.58763 9.45858 2.61025C9.46938 2.61168 9.47973 2.61602 9.48879 2.62291C9.49785 2.6298 9.50537 2.63905 9.51072 2.64991C9.69996 3.30978 9.86233 3.97822 9.99782 4.65524C10.0808 5.06783 10.166 5.51117 10.2338 5.92748C10.234 5.92844 10.2343 5.92935 10.2348 5.93017C10.2484 5.95921 10.2519 5.95121 10.1726 5.96259C10.1235 5.96983 10.0574 5.99501 10.0181 6.01453Z" fill="#DCF9FB"/>
<path d="M5.49156 6.65983C5.36834 6.63224 5.24525 6.6021 5.12173 6.57782C4.97436 6.54917 4.82579 6.5294 4.67663 6.51857C4.53545 6.50802 4.39547 6.50478 4.25406 6.50444C4.17458 6.50444 4.09407 6.51333 4.01411 6.50657C3.98137 6.47774 3.98726 6.43864 3.992 6.39939C4.05983 5.83783 4.13871 5.27868 4.2415 4.72339C4.31359 4.33233 4.39475 3.94402 4.49466 3.56137C4.59006 3.19582 4.7012 2.83669 4.87344 2.50749C4.89939 2.45797 4.90347 2.417 4.87602 2.37058C4.895 2.36182 4.91519 2.36189 4.93507 2.36086C5.38841 2.33727 5.84168 2.31168 6.29567 2.31644C6.31526 2.31644 6.33562 2.31113 6.35467 2.3223C6.3623 2.34706 6.34956 2.36727 6.34301 2.38789C6.14284 3.01553 5.99157 3.66 5.86132 4.31102C5.75084 4.86334 5.65911 5.4198 5.58005 5.97908C5.54821 6.20572 5.52111 6.43298 5.49156 6.65983Z" fill="#B9E1E1"/>
<path d="M4.91552 2.36206C4.99668 2.35116 4.98899 2.35626 4.94033 2.45172C4.80894 2.7094 4.69829 2.97431 4.61376 3.25385C4.56474 3.41587 4.51722 3.5794 4.48051 3.74652C4.44044 3.92887 4.39316 4.1091 4.35597 4.29242C4.3183 4.47795 4.28652 4.66487 4.25168 4.85109C4.216 5.04179 4.17959 5.23229 4.15244 5.42479C4.11038 5.72366 4.06977 6.02275 4.0306 6.32204C4.02267 6.38294 4.01258 6.44425 4.0142 6.5066C3.99395 6.51702 3.8553 6.53343 3.84473 6.5066C3.85386 6.3599 3.87783 6.21541 3.89759 6.0705C3.94649 5.7124 4.00144 5.35547 4.06244 4.99972C4.20476 4.17758 4.38012 3.3651 4.61514 2.57111C4.62998 2.52117 4.64752 2.4722 4.66068 2.42172C4.66837 2.39213 4.68369 2.38116 4.70826 2.38033C4.76455 2.37709 4.90555 2.36157 4.91552 2.36206Z" fill="#DCF9FB"/>
<path d="M12.4105 12.4752C12.2707 12.4629 12.115 12.3366 12.0037 12.6627C11.8931 12.9861 12.0557 13.1106 12.0312 13.0997C12.0191 13.098 12.0069 13.0975 11.9947 13.0984C11.9031 13.0997 11.8085 13.0823 11.7171 13.0822C11.6847 13.0651 11.6923 13.0347 11.6977 13.0053C11.7438 12.7511 11.8143 12.5035 11.908 12.2673C12.032 11.9574 12.1838 11.6672 12.374 11.4037C12.6383 11.0378 12.9481 10.7347 13.3082 10.4993C13.6831 10.2541 14.0855 10.1025 14.5118 10.0365C14.7177 10.0046 14.9254 9.99266 15.1336 10.0094C15.2126 10.0158 15.2743 9.9788 15.3168 9.90403C15.3341 9.87362 15.3532 9.85044 15.3828 9.83837C15.4171 9.83796 15.4483 9.85465 15.4811 9.86306C15.5532 9.88162 15.5607 9.87865 15.5923 9.80375C15.6433 9.68277 15.6963 9.56297 15.7622 9.45131C15.7784 9.43928 15.792 9.42305 15.8017 9.40392C15.8872 9.25363 15.9966 9.12935 16.1251 9.02734C16.1287 9.02539 16.1327 9.02462 16.1367 9.02513C16.1832 9.02513 16.1954 9.06589 16.2066 9.10576C16.2558 9.2806 16.3111 9.45248 16.3796 9.61904C16.4929 9.89493 16.6328 10.1501 16.8125 10.3753C16.8393 10.4089 16.8731 10.4388 16.8574 10.4936C16.7638 10.6821 16.6703 10.8706 16.5767 11.0592C16.563 11.0868 16.5478 11.1136 16.5332 11.1409C16.5072 11.1884 16.4778 11.2333 16.4455 11.2753C16.437 11.2683 16.4281 11.2622 16.4188 11.2569C16.4134 11.2539 16.4032 11.2435 16.3979 11.2402C16.3 11.179 16.3138 11.175 16.3626 11.0609C16.3933 10.9889 16.4092 10.916 16.3898 10.8349C16.3822 10.8014 16.3686 10.7701 16.3499 10.743C16.3312 10.7158 16.3079 10.6934 16.2813 10.6771C16.2186 10.638 16.1536 10.6012 16.082 10.584C15.9816 10.56 15.8766 10.6135 15.8282 10.7178C15.8123 10.7522 15.8011 10.7892 15.7862 10.8244C15.7649 10.8756 15.7527 10.8828 15.7063 10.8676C15.5831 10.8273 15.4586 10.7943 15.3311 10.778C15.319 10.7764 15.3077 10.7711 15.2958 10.7698C15.2617 10.7652 15.2474 10.7422 15.2477 10.7045C15.2477 10.6678 15.2456 10.6309 15.2477 10.5942C15.2556 10.4552 15.1785 10.3612 15.0665 10.3359C14.9858 10.3175 14.9026 10.3187 14.8223 10.3394C14.7197 10.366 14.659 10.4379 14.6447 10.5602C14.6389 10.6055 14.6356 10.6512 14.6346 10.6971C14.634 10.7567 14.6304 10.7618 14.5779 10.7736C14.5132 10.7881 14.4479 10.7991 14.3832 10.8133C14.3164 10.8279 14.2503 10.8461 14.1849 10.868C14.1425 10.8823 14.1325 10.8765 14.1148 10.831C14.0984 10.7891 14.0831 10.7468 14.0621 10.7075C14.0066 10.6041 13.9064 10.5563 13.8037 10.5866C13.73 10.6088 13.6599 10.6443 13.596 10.692C13.5029 10.761 13.4689 10.8912 13.5084 11.0141C13.5201 11.0505 13.5373 11.0846 13.551 11.1203C13.5683 11.1653 13.5668 11.176 13.5324 11.2001C13.4112 11.2854 13.2989 11.3849 13.1872 11.4855C13.1546 11.5149 13.1456 11.5153 13.1151 11.4829C13.0879 11.4525 13.0591 11.424 13.0288 11.3977C12.943 11.3264 12.8257 11.3255 12.745 11.4037C12.6887 11.4584 12.6355 11.5178 12.5954 11.5907C12.5347 11.7011 12.5487 11.8321 12.6315 11.9218C12.665 11.9581 12.6684 11.9608 12.7229 12.0035C12.6392 12.0995 12.476 12.3586 12.4281 12.4607" fill="#414141"/>
<path d="M11.2921 13.0693C10.956 13.0689 10.6199 13.0685 10.2837 13.0681C9.74948 13.0681 9.21525 13.0681 8.68097 13.0681C8.55782 13.0681 8.55572 13.0636 8.57284 12.9248C8.58485 12.8237 8.58702 12.7228 8.53757 12.6308C8.48429 12.5316 8.40901 12.468 8.3079 12.4503C8.25858 12.441 8.2088 12.4352 8.15885 12.4329C8.09878 12.4309 8.0879 12.4137 8.08568 12.3441C8.07847 12.1193 8.06243 11.8958 8.02477 11.6742C8.00981 11.5866 8.01395 11.5792 8.09049 11.5549C8.15243 11.5353 8.21274 11.511 8.26801 11.4729C8.40535 11.378 8.44566 11.2159 8.41273 11.0492C8.39772 10.9734 8.37483 10.8992 8.35266 10.8255C8.29505 10.6342 8.14239 10.5347 7.96931 10.5719C7.91002 10.5847 7.85325 10.6064 7.79606 10.6271C7.74914 10.6443 7.74325 10.6426 7.72144 10.5902C7.63054 10.3702 7.52331 10.1595 7.40094 9.96053C7.37793 9.92343 7.37913 9.91177 7.41415 9.88156C7.46221 9.83977 7.50114 9.78673 7.54572 9.74079C7.65296 9.63044 7.65103 9.39814 7.58687 9.28724C7.52643 9.18289 7.44984 9.09412 7.36651 9.01611C7.26168 8.91769 7.07785 8.91417 6.9613 9.03446C6.92117 9.07584 6.87563 9.11033 6.84013 9.15757C6.81886 9.18592 6.79922 9.18654 6.77404 9.16213C6.71463 9.10426 6.65461 9.04708 6.59298 8.99239C6.49637 8.90673 6.39472 8.82955 6.29163 8.75423C6.2023 8.68898 6.20645 8.70368 6.25186 8.5956C6.27082 8.55257 6.28748 8.50825 6.30173 8.4629C6.35369 8.28626 6.30659 8.09273 6.14084 7.99617C6.06935 7.95479 5.99756 7.91209 5.92049 7.88802C5.81235 7.85423 5.7068 7.86043 5.61176 7.94148C5.57319 7.97479 5.54227 8.01836 5.52164 8.06845C5.49605 8.12818 5.47358 8.18963 5.44907 8.24991C5.43051 8.29537 5.42642 8.29819 5.38455 8.28309C5.22391 8.22515 5.05966 8.18556 4.89355 8.15529C4.85408 8.14839 4.81449 8.14149 4.77496 8.13501C4.71771 8.12549 4.71326 8.12039 4.71224 8.05135C4.71146 7.99396 4.71164 7.93651 4.71224 7.87892C4.71356 7.71946 4.64015 7.61683 4.52132 7.55027C4.48716 7.53048 4.44977 7.51913 4.41156 7.51696C4.32181 7.51344 4.23187 7.50689 4.14224 7.52386C3.97132 7.55669 3.86517 7.69366 3.85988 7.89202C3.85856 7.94251 3.85988 7.99307 3.85934 8.04376C3.8585 8.12121 3.85574 8.12356 3.7908 8.13542C3.59122 8.1717 3.39225 8.21129 3.19833 8.27868C3.15207 8.29468 3.14654 8.29123 3.12539 8.23881C3.10527 8.18881 3.08562 8.13853 3.06532 8.08852C2.98542 7.88982 2.80014 7.8256 2.62941 7.89706C2.56545 7.92365 2.50303 7.95486 2.44251 7.99051C2.34321 8.04948 2.27772 8.14053 2.25628 8.27019C2.24524 8.33826 2.25081 8.40851 2.27238 8.47317C2.291 8.53152 2.31569 8.58663 2.339 8.64257C2.35877 8.69002 2.35654 8.70085 2.31876 8.72713C2.15937 8.83817 2.01051 8.9659 1.86518 9.09957C1.8465 9.11674 1.82914 9.13619 1.81111 9.15385C1.78006 9.18378 1.7705 9.18371 1.73902 9.15254C1.70424 9.11805 1.66837 9.08481 1.63581 9.04763C1.51308 8.90755 1.28329 8.90838 1.16416 9.05722C1.12901 9.10109 1.09555 9.14688 1.0595 9.18964C1.01589 9.24137 1.01301 9.23958 0.96831 9.19227C0.930342 9.15199 0.840828 9.06163 0.83446 9.05625C0.774805 8.9799 0.777268 8.97935 0.837644 8.90107C1.35096 8.23586 2.0017 7.72948 2.73004 7.42847C3.09716 7.27673 3.47498 7.17783 3.86319 7.13941C4.1003 7.1168 4.33854 7.11422 4.57599 7.13169C4.89754 7.15383 5.21621 7.21444 5.52681 7.31253C5.78163 7.39251 6.0295 7.49929 6.26724 7.63152C6.4297 7.71947 6.58728 7.81884 6.73908 7.92906C6.95173 8.08365 7.15304 8.25792 7.34098 8.45014C7.5208 8.63554 7.68962 8.83453 7.84634 9.04577C7.8676 9.07612 7.88749 9.10771 7.90594 9.1404C8.05258 9.33042 8.17027 9.54395 8.28015 9.76238C8.50113 10.1998 8.66645 10.6713 8.77109 11.1625C8.80761 11.3343 8.83194 11.5087 8.85892 11.6825C8.88241 11.8343 8.97937 11.8862 9.09832 11.8128C9.24755 11.7207 9.34229 11.5018 9.3206 11.3079C9.31592 11.2658 9.29056 11.2182 9.32991 11.1787C9.36109 11.1586 9.39546 11.1602 9.4294 11.1601C9.60963 11.1595 9.78949 11.1574 9.96948 11.161C10.0438 11.1626 10.0935 11.1307 10.1334 11.06C10.2822 10.7952 10.3956 10.5063 10.4698 10.2029C10.5282 9.96612 10.5703 9.72569 10.5845 9.47946C10.5863 9.45419 10.5859 9.42879 10.5835 9.40359C10.5803 9.37366 10.5869 9.34904 10.611 9.33338C10.65 9.33255 10.7354 9.3269 10.7393 9.32648C10.8888 9.31635 10.8888 9.31641 10.8891 9.48891C10.8891 9.61996 10.8883 9.751 10.8894 9.88163C10.8904 10.0014 10.9182 10.0383 11.0201 10.0679C11.2644 10.1392 11.5114 10.1623 11.7633 10.1472C11.8797 10.1403 11.9934 10.1163 12.1089 10.1059C12.1328 10.1028 12.1562 10.0958 12.1784 10.0852C12.2485 10.0543 12.2691 10.0231 12.2701 9.93564C12.2719 9.77259 12.2695 9.60954 12.2714 9.44649C12.2718 9.4109 12.2654 9.37187 12.2929 9.34304C12.3383 9.30303 12.3816 9.33359 12.4221 9.35304C12.5223 9.40132 12.5976 9.48712 12.6668 9.57988C12.7949 9.75169 12.89 9.94791 12.9802 10.1475C12.9881 10.1636 12.9915 10.1821 12.9898 10.2005C12.9866 10.2451 12.9584 10.2674 12.9297 10.2888C12.6937 10.4639 12.4818 10.6718 12.2869 10.9038C12.0634 11.1697 11.878 11.4669 11.721 11.7882C11.5386 12.1613 11.4146 12.5591 11.3414 12.9784C11.3351 13.0135 11.3413 13.0633 11.2921 13.0693Z" fill="#45423D"/>
<path d="M11.2923 13.0692C11.3075 12.9909 11.322 12.9124 11.338 12.8347C11.4686 12.1957 11.7195 11.6255 12.0818 11.1189C12.3224 10.7805 12.6077 10.4874 12.9274 10.2504C12.9458 10.2366 12.966 10.2256 12.9774 10.2021C12.9918 10.1745 14.0821 9.36901 15.3014 9.62786C15.374 9.68834 15.3825 9.8047 15.3431 9.91016C15.3046 10.0131 15.2328 10.0455 15.1178 10.0423C15.0116 10.0393 14.9057 10.0328 14.8 10.0394C14.6224 10.0497 14.4456 10.0755 14.2714 10.1166C13.794 10.2314 13.3592 10.4541 12.9691 10.7902C12.5134 11.1827 12.1694 11.6793 11.9332 12.274C11.8375 12.5169 11.7654 12.7712 11.7182 13.0323C11.7153 13.0479 11.6761 13.3002 11.6641 13.4116C11.6532 13.5151 11.6101 13.5872 11.5231 13.6214C11.3953 13.6714 11.2587 13.5644 11.256 13.4095C11.2545 13.3314 11.2691 13.2546 11.2793 13.1777C11.2834 13.1472 11.2879 13.0742 11.2923 13.0692Z" fill="#A19D98"/>
<path d="M10.2523 12.532C10.0342 12.532 9.81623 12.5327 9.59827 12.5316C9.49614 12.5311 9.42213 12.4738 9.38001 12.3689C9.3379 12.2639 9.35088 12.1619 9.41204 12.0708C9.46058 11.9987 9.53002 11.9711 9.60722 11.9683C9.65919 11.9664 9.71121 11.9675 9.76342 11.9676C10.1314 11.9678 10.4994 11.9681 10.8674 11.9684C10.9371 11.9684 11.0021 11.9822 11.0573 12.0365C11.1336 12.1117 11.1647 12.2336 11.1329 12.3422C11.1174 12.3972 11.0871 12.4452 11.0465 12.4794C11.0058 12.5135 10.9568 12.5321 10.9064 12.5324C10.6884 12.5337 10.4705 12.5328 10.2524 12.5328L10.2523 12.532Z" fill="#FCBE4F"/>
<path d="M3.35517 6.57714C3.36881 6.58962 3.38443 6.58997 3.40047 6.58631C3.53684 6.55569 3.67478 6.53803 3.81283 6.52162C3.82485 6.5201 3.81884 6.52031 3.8529 6.51658C4.33772 6.4752 4.98395 6.50569 5.49214 6.65977C5.60418 6.69536 5.71706 6.72184 5.82922 6.75715C5.8407 6.75791 6.38967 6.98841 6.60294 7.12001C6.62204 7.13567 6.63136 7.14401 6.64499 7.15601C6.65376 7.26892 6.62319 7.35375 6.56575 7.43079C6.48579 7.53818 6.38012 7.61515 6.26189 7.66392C6.10984 7.58805 5.95844 7.51032 5.80141 7.44811C5.52352 7.33793 5.23722 7.258 4.94629 7.2094C4.69279 7.16797 4.43679 7.15021 4.1808 7.15629C3.87875 7.1621 3.57803 7.20358 3.28338 7.28009C2.36887 7.51589 1.53964 8.06889 0.908161 8.86408C0.887975 8.8896 0.86737 8.91464 0.847124 8.93995C0.805071 8.99292 0.786687 9.02727 0.755688 9.06941C0.704203 9.13949 0.6541 9.21101 0.603936 9.28239C0.486788 9.44896 0.280908 9.45793 0.152646 9.28329C0.0658363 9.165 0.0805549 8.98671 0.151204 8.87436C0.228242 8.75414 0.310594 8.63853 0.397936 8.52799C0.487209 8.41329 0.574199 8.29618 0.672063 8.19086C0.809216 8.0434 0.945768 7.89476 1.09494 7.76324C1.60432 7.3141 2.16261 6.97159 2.7779 6.75529C2.9405 6.69798 3.10565 6.65064 3.27263 6.61349C3.30207 6.60714 3.33295 6.60473 3.35517 6.57714Z" fill="#EDAE50"/>
<path d="M8.36141 8.79767C8.51046 9.0001 8.63175 9.22432 8.7489 9.45151C8.88665 9.71878 9.00122 9.99908 9.09824 10.2889C9.18721 10.555 9.26417 10.8252 9.31535 11.1045C9.32136 11.136 9.32863 11.1666 9.3353 11.1982C9.3487 11.2839 9.36408 11.3687 9.34774 11.4571C9.31427 11.6382 9.23569 11.78 9.08556 11.859C8.95982 11.9251 8.85067 11.8559 8.83012 11.6987C8.77605 11.2849 8.68774 10.8809 8.55311 10.491C8.39385 10.0299 8.18515 9.60132 7.91967 9.20894C7.90765 9.19094 7.89636 9.1719 7.88477 9.15335C7.91348 9.04389 7.97302 8.95533 8.03027 8.86436C8.06241 8.81325 8.11209 8.8216 8.15355 8.80663C8.22059 8.78242 8.291 8.76263 8.36141 8.79767Z" fill="#EDAE50"/>
<path d="M8.32736 8.78822C7.99869 8.75773 7.89542 9.12997 7.8849 9.15328C7.74294 8.95478 7.59318 8.7647 7.43019 8.58841C7.09894 8.22903 6.72305 7.92809 6.31483 7.69544C6.2968 7.6853 6.27944 7.67475 6.26172 7.66392C6.27704 7.64323 6.41227 7.61281 6.52503 7.43631C6.62043 7.28699 6.6429 7.18574 6.64482 7.15601C6.75242 7.20243 6.84637 7.27782 6.94394 7.34479C7.11263 7.45956 7.2748 7.58652 7.42947 7.72489C7.56921 7.85097 7.7048 7.98229 7.8339 8.1234C7.92239 8.21996 8.0053 8.32225 8.08892 8.4235C8.18624 8.5413 8.28435 8.65979 8.36136 8.79767" fill="#FCD38C"/>
<path d="M16.8524 10.4922C16.817 10.4244 16.7634 10.3749 16.7202 10.3144C16.4879 9.98915 16.3215 9.62299 16.2043 9.22599C16.1908 9.1804 16.1785 9.13433 16.165 9.08867C16.1594 9.06936 16.1551 9.04729 16.1311 9.04798C15.8351 8.75692 15.4778 8.59463 15.1278 8.41689C14.5992 8.14873 14.0472 7.96444 13.4888 7.80201C13.0508 7.67462 12.6071 7.58013 12.1621 7.49275C12.1216 7.48482 12.0782 7.48095 12.0503 7.43757C12.043 7.40612 12.043 7.37398 12.0429 7.34191C12.0423 6.96188 12.0425 6.58185 12.0435 6.20182C12.0435 6.16043 12.0323 6.11285 12.0713 6.08222C12.159 6.10698 12.2496 6.10698 12.3387 6.12119C12.5069 6.14795 12.6762 6.16788 12.8442 6.19706C13.0616 6.23444 13.2798 6.26768 13.4956 6.31734C13.6445 6.35183 13.7943 6.38087 13.943 6.41728C14.1172 6.45998 14.2914 6.50315 14.4635 6.55343C14.7503 6.63709 15.037 6.722 15.3166 6.8349C15.4278 6.8798 15.5382 6.92829 15.6508 6.96815C15.7656 7.00871 15.8556 7.08968 15.9412 7.18086C16.1275 7.37915 16.3132 7.578 16.493 7.78408C16.6131 7.92202 16.7339 8.059 16.8485 8.20329C16.8981 8.26577 16.953 8.32295 17.0047 8.38372C17.0939 8.48896 17.177 8.60077 17.2684 8.70381C17.3419 8.78658 17.3853 8.89079 17.3907 9.01011C17.3983 9.17771 17.3936 9.344 17.3565 9.50891C17.2883 9.81238 17.1624 10.0801 16.9917 10.3221C16.9489 10.3823 16.9047 10.4415 16.8524 10.4922Z" fill="#EDAE50"/>
<path d="M9.37022 6.95028L8.95659 6.62087C8.94974 6.61616 8.94323 6.6108 8.93713 6.60487C8.91208 6.57728 8.89706 6.58997 8.88126 6.61866C8.85783 6.66129 8.83152 6.70191 8.80628 6.74323C8.74651 6.84082 8.68793 6.93945 8.62648 7.03559C8.58082 7.10698 8.52291 7.12898 8.45899 7.10601C8.36328 7.07153 8.32009 6.95324 8.36749 6.85082C8.38239 6.81854 8.40215 6.78916 8.42042 6.75909C8.6308 6.41286 8.84133 6.06669 9.05199 5.72059C9.0652 5.69762 9.07977 5.67573 9.09561 5.65507C9.15052 5.5872 9.23378 5.57658 9.2968 5.62748C9.32745 5.65209 9.34911 5.68882 9.35764 5.73063C9.36616 5.77243 9.36095 5.81638 9.343 5.85405C9.32432 5.8944 9.30035 5.93158 9.27746 5.96917C9.21216 6.07635 9.14619 6.18298 9.08047 6.28981C9.05428 6.33244 9.05374 6.33333 9.09116 6.36333C9.23218 6.47617 9.37338 6.58869 9.51476 6.70088L9.37022 6.95028Z" fill="#45423E"/>
<path d="M11.0753 5.99695C11.0945 6.01261 11.0933 6.03647 11.0933 6.05903C11.0938 6.46177 11.0938 6.86447 11.0933 7.26712C11.0938 7.28087 11.0918 7.29458 11.0873 7.30734C11.0625 7.34182 11.0272 7.34044 10.9938 7.34058C10.87 7.34127 10.7463 7.33368 10.6228 7.33092C10.2773 7.32237 9.9319 7.32754 9.58604 7.3283C9.56201 7.3283 9.53798 7.32982 9.51569 7.3421C9.50253 7.34899 9.49052 7.35893 9.49238 7.37789C9.49424 7.39686 9.50812 7.40272 9.52206 7.40693C9.53175 7.40978 9.54173 7.41111 9.55173 7.41086C9.72133 7.40665 9.8908 7.41472 10.0607 7.40251C10.2238 7.39072 10.3878 7.39431 10.5516 7.40562C10.6929 7.41534 10.8347 7.41941 10.9763 7.42528C11.0123 7.42672 11.0484 7.4239 11.0804 7.44852C11.0965 7.5408 11.1216 7.63212 11.1045 7.7282C11.1041 7.73698 11.1019 7.74553 11.0981 7.75316C11.0717 7.7893 11.0306 7.79006 10.9963 7.80648C10.9313 7.83752 10.8989 7.88814 10.901 7.97049C10.9103 8.34659 10.8845 8.72228 10.889 9.09831C10.8895 9.1419 10.8903 9.18535 10.8945 9.2288C10.9036 9.32274 10.881 9.35371 10.7984 9.36329C10.7765 9.36578 10.7545 9.36653 10.7323 9.36716C10.6939 9.36778 10.6555 9.36798 10.6172 9.36453C10.5049 9.38467 10.3912 9.38612 10.278 9.39495C10.0681 9.41116 9.91399 9.31315 9.80471 9.10527C9.6529 8.8169 9.49983 8.52957 9.36093 8.23251C9.29863 8.09926 9.24078 7.96353 9.17518 7.83207C9.06974 7.62088 9.0686 7.41445 9.19182 7.21236C9.24553 7.12429 9.2847 7.02504 9.34892 6.94524C9.38454 6.84916 9.44222 6.76915 9.494 6.6848C9.61289 6.48354 9.73833 6.2878 9.87344 6.10048C9.91465 6.0433 9.97203 6.00806 10.025 5.96702C10.0951 5.94523 10.3494 5.93943 10.4139 5.93702C10.4871 5.93419 10.5605 5.93591 10.6339 5.93702C10.6688 5.93729 11.008 5.9584 11.0753 5.99695Z" fill="#EDAE50"/>
<path d="M15.3858 9.86916C15.3631 9.85475 15.3491 9.83468 15.3506 9.80302C15.3552 9.70646 15.3008 9.65887 15.2342 9.62328C15.1455 9.58617 14.47 9.51327 13.7984 9.78108C13.5622 9.86888 13.3344 9.97848 13.1201 10.1235C13.0807 10.1502 13.037 10.1684 13 10.2004C12.9948 10.2049 12.9848 10.202 12.9771 10.2026C12.9245 10.1161 12.8896 10.0182 12.8421 9.92834C12.7686 9.78929 12.6909 9.65438 12.5916 9.53713C12.5135 9.44513 12.4251 9.37457 12.3133 9.3487C12.2826 9.35139 12.278 9.3256 12.2742 9.30042C12.2709 9.27084 12.2697 9.24098 12.2707 9.21117C12.2707 9.00254 12.2675 8.79383 12.2715 8.58526C12.2752 8.38786 12.2556 8.1915 12.258 7.99431C12.2589 7.91927 12.228 7.86837 12.1679 7.8392C12.144 7.82757 12.1207 7.81421 12.0983 7.79919C12.0811 7.78761 12.0626 7.77568 12.0701 7.74623L12.0724 7.59704C12.0922 7.56538 12.1193 7.56987 12.1481 7.57483C12.4805 7.63222 12.8107 7.70314 13.1385 7.78761C13.5327 7.88996 13.9246 8.00232 14.3084 8.14874C14.6159 8.26599 14.9203 8.39345 15.215 8.54946C15.3548 8.62347 15.4974 8.69148 15.6251 8.79176C15.6731 8.82949 15.7118 8.87963 15.7483 8.93184C15.8353 9.05599 15.8133 9.20014 15.8052 9.34139C15.8027 9.38553 15.7844 9.4265 15.7811 9.47092C15.7059 9.60228 15.6417 9.74154 15.5893 9.88682C15.5786 9.91703 15.5643 9.9282 15.5343 9.91661C15.486 9.89771 15.4356 9.88482 15.3858 9.86916Z" fill="#EDAE50"/>
<path d="M15.7816 9.4711C15.7648 9.4342 15.7675 9.39427 15.7737 9.35647C15.7868 9.2766 15.7822 9.19639 15.7822 9.11624C15.7822 9.03769 15.7443 8.97672 15.7029 8.92071C15.6508 8.85077 15.587 8.79356 15.5153 8.75249C15.1798 8.55675 14.8325 8.39384 14.4771 8.25238C14.2202 8.15003 13.9611 8.05664 13.6978 7.97925C13.365 7.88145 13.031 7.79124 12.6929 7.71716C12.4986 7.67468 12.3028 7.64281 12.1084 7.60136C12.0967 7.59888 12.0844 7.5984 12.0728 7.59695C12.0728 7.54637 12.0728 7.49593 12.0728 7.44563C12.1922 7.45866 12.3097 7.4859 12.4276 7.51025C12.5809 7.54189 12.7339 7.5755 12.8866 7.61109C13.0469 7.64881 13.2074 7.68544 13.3659 7.73379C13.4874 7.77076 13.6103 7.80221 13.7321 7.83862C14.0301 7.92773 14.3245 8.03011 14.6152 8.14575C14.8514 8.23969 15.0798 8.35611 15.3095 8.46867C15.528 8.57623 15.7399 8.70066 15.9438 8.84112C16.0036 8.88216 16.0585 8.93257 16.115 8.97982C16.135 8.99658 16.153 9.01672 16.1313 9.04796C16.0551 9.12549 15.9765 9.1997 15.909 9.28812C15.864 9.34695 15.8242 9.41006 15.7816 9.4711Z" fill="#FCD38C"/>
<path d="M11.0754 7.30796L11.0758 7.45921C10.6758 7.42148 9.93015 7.42148 9.55377 7.44583C9.52517 7.44424 9.49667 7.44085 9.4684 7.43569C9.44737 7.43024 9.41499 7.39914 9.41553 7.37969C9.4165 7.34396 9.4344 7.32672 9.45759 7.31347C9.4866 7.29678 9.52535 7.29368 9.55797 7.29368C9.91807 7.29368 10.2783 7.28747 10.6382 7.2974C10.7838 7.3014 10.9297 7.30389 11.0754 7.30796Z" fill="#FCD38C"/>
<path d="M17.2485 9.14259C17.2505 9.29095 17.2245 9.42744 17.1876 9.56152C17.1222 9.79878 17.0158 10.0105 16.8804 10.2037C16.8529 10.243 16.8515 10.2431 16.8228 10.2043C16.6911 10.0266 16.5857 9.82955 16.4954 9.62111C16.4275 9.46455 16.372 9.30233 16.3222 9.13735C16.3068 9.08624 16.3086 9.07707 16.3532 9.05086C16.5091 8.95899 16.6725 8.89374 16.8468 8.86519C16.9262 8.85215 17.0063 8.85236 17.0857 8.84119C17.0937 8.84038 17.1017 8.84019 17.1097 8.84063C17.1852 8.84222 17.197 8.85326 17.2254 8.93223C17.2506 9.00258 17.2501 9.07555 17.2485 9.14259Z" fill="#FEFEFE"/>
<path d="M12.0644 6.11635C12.0644 6.5548 12.0688 7.51646 12.0781 7.78621C12.0558 7.81876 12.0269 7.8069 12.0007 7.79835C11.7191 7.70393 11.4356 7.71793 11.1512 7.77766C11.1271 7.78262 11.1038 7.78945 11.0836 7.7669L11.0821 7.7691C11.0689 7.74841 11.0821 5.60589 11.0804 5.46871C11.0796 5.40981 11.0882 5.35643 11.1137 5.3047C11.1451 5.24111 11.1724 5.17496 11.2016 5.10985C11.2056 5.10512 11.211 5.10219 11.2168 5.10158C11.5447 5.26235 11.8155 5.44892 12.0624 5.7388C12.0588 5.84357 12.0624 5.98379 12.0644 6.11635Z" fill="#414141"/>
<path d="M11.2182 5.07639H11.2133L11.2085 5.07535C11.2322 5.01045 11.2335 4.94245 11.2333 4.87334C11.2326 4.66698 11.2355 4.46054 11.2338 4.25425C11.2332 4.179 11.253 4.11803 11.2939 4.0592C11.4957 3.76886 11.7151 3.49511 11.9503 3.23996C12.0997 3.07774 12.2584 2.92704 12.4327 2.79986C12.4659 2.80896 12.4517 2.83372 12.4442 2.85276C12.3373 3.1234 12.3524 3.40722 12.386 3.6889C12.4008 3.81304 12.4307 3.94099 12.5207 4.03217C12.5271 4.03792 12.5314 4.04621 12.5327 4.05541C12.5341 4.06461 12.5323 4.07406 12.5279 4.08189C12.3249 4.19025 12.1655 4.35854 12.0309 4.56055C12.011 4.59035 11.9963 4.62187 12.0012 4.66118C11.9922 4.90706 11.9942 5.15274 12.0017 5.55732C12.0014 5.56168 12.0008 5.56601 12.0001 5.57029C11.9701 5.59367 11.9505 5.56726 11.932 5.54919C11.8518 5.47083 11.7739 5.38952 11.6874 5.31965C11.5929 5.24316 11.496 5.17178 11.3912 5.11494C11.3361 5.08515 11.2799 5.06501 11.2182 5.07639Z" fill="#A19D98"/>
<path d="M12.5635 2.76965C12.604 2.79289 12.6246 2.83172 12.6349 2.88159C12.6611 3.00838 12.6783 3.13738 12.6865 3.26734C12.7006 3.48957 12.6726 3.70462 12.6242 3.91795C12.6141 3.96236 12.6025 4.00616 12.5769 4.04285C12.5513 4.04782 12.5434 4.02658 12.5331 4.00623C12.4138 3.7709 12.3921 3.51412 12.4069 3.24962C12.4089 3.21334 12.4139 3.17706 12.4161 3.1405C12.4228 3 12.4755 2.86758 12.5635 2.76965Z" fill="#A19D98"/>
<path d="M12.1951 7.81281C12.2573 7.84419 12.2879 7.89026 12.2904 7.97579C12.3031 8.40686 12.2996 8.83792 12.3005 9.26893C12.3005 9.29651 12.3031 9.41142 12.3029 9.44335C12.302 9.6222 12.2993 9.80111 12.3015 9.97988C12.3023 10.0428 12.2795 10.0787 12.2322 10.1014C11.8366 10.2256 11.3229 10.2194 10.9627 10.0876C10.8815 10.0593 10.8599 10.0245 10.8593 9.92829C10.8584 9.80221 10.8593 9.67606 10.8593 9.54991C10.8593 9.49722 10.8601 9.44446 10.8593 9.39169C10.8584 9.33893 10.8713 8.52149 10.8713 8.49631C10.8713 8.30368 10.8725 8.11097 10.8709 7.91833C10.8703 7.85778 10.8897 7.82136 10.939 7.79605C11.5111 7.58858 11.8113 7.64893 12.1951 7.81281Z" fill="#A19D98"/>
<path d="M10.9782 8.94784V8.01804C10.9782 8.00197 10.9778 7.9859 10.9782 7.96976C10.9795 7.90589 10.9842 7.89734 11.0378 7.87492C11.2389 7.78629 11.827 7.70249 12.141 7.94031C12.1905 7.97024 12.1985 8.00079 12.2006 8.07315C12.2087 8.23599 12.1946 9.44567 12.1951 9.91164C12.1951 9.92088 12.1951 9.93006 12.1951 9.93923C12.1937 10.0056 12.1898 10.0088 12.131 10.0228C11.7648 10.1102 11.4007 10.0987 11.0382 9.99523C10.9845 9.97999 10.9816 9.97847 10.9815 9.91171C10.981 9.69818 10.981 9.48466 10.9815 9.27117C10.9815 9.16326 10.9815 9.05534 10.9815 8.94742L10.9782 8.94784Z" fill="#45423D"/>
<path d="M11.2046 5.08955C11.2116 5.03058 11.243 5.02444 11.3035 5.04072C11.3761 5.06553 11.4456 5.10117 11.5101 5.14673C11.6539 5.24522 11.7915 5.35364 11.9123 5.48814C11.9393 5.51821 11.9706 5.54331 11.9999 5.57042C12.004 5.59023 12.0133 5.60812 12.0266 5.62167C12.0647 5.66105 12.0699 5.70657 12.0622 5.76402C11.9988 5.75368 11.9632 5.71022 11.923 5.65932C11.8139 5.52138 11.6864 5.40972 11.5512 5.30805C11.4679 5.24543 11.3405 5.17701 11.248 5.13466C11.2162 5.12017 11.201 5.12107 11.2046 5.08955Z" fill="#DCF9FB"/>
<path d="M12.5634 2.76965C12.5848 2.78303 12.5985 2.78916 12.5435 2.84503C12.474 2.91662 12.4279 3.09712 12.4326 3.39314C12.4371 3.58937 12.4393 3.76407 12.5768 4.04285C12.5652 4.06354 12.55 4.07879 12.5276 4.08189C12.2949 3.81918 12.3174 3.01077 12.4324 2.79985C12.48 2.74323 12.5079 2.73681 12.5634 2.76965Z" fill="#DCF9FB"/>
</g>
<defs>
<clipPath id="clip0_350_32382">
<rect width="18" height="17" fill="white" transform="translate(0 0.32)"/>
</clipPath>
</defs>
</svg>
