<svg width="15" height="16" viewBox="0 0 15 16" fill="none" xmlns="http://www.w3.org/2000/svg">
<path d="M4.86829 0.453339C4.4942 0.453339 4.12676 0.632635 3.90319 0.964667L0.330533 6.26167C-0.0280606 6.79514 0.113606 7.51675 0.644856 7.87534L7.03978 12.1873C7.05306 11.9881 7.11061 11.7911 7.23014 11.6162C7.51348 11.1957 8.02259 11.023 8.48743 11.1447C8.48743 10.9212 8.55163 10.6954 8.68665 10.4962C9.04525 9.96271 9.76686 9.82105 10.2981 10.1819C10.6589 9.64839 11.3805 9.50672 11.9118 9.86753L13.5365 7.4592C13.8929 6.92795 13.7535 6.20633 13.2222 5.84774L5.51686 0.652557C5.31543 0.517531 5.09186 0.453339 4.86829 0.453339ZM6.5041 3.79579C7.03535 3.79579 7.56439 4.07248 7.83665 4.62365C9.05631 4.80073 9.54108 6.29709 8.66009 7.15594C8.86816 8.36896 7.59538 9.29422 6.5041 8.72092C5.41504 9.29422 4.14447 8.36896 4.35032 7.15594C3.46934 6.29709 3.95631 4.80073 5.17376 4.62365C5.44603 4.07248 5.97506 3.79579 6.5041 3.79579ZM6.5041 5.57547C6.00605 5.57547 5.60098 5.98055 5.60098 6.4786C5.60098 6.97886 6.00605 7.38172 6.5041 7.38172C7.00436 7.38172 7.40944 6.97886 7.40944 6.4786C7.40944 5.98055 7.00436 5.57547 6.5041 5.57547ZM12.1752 11.3373C12.1132 11.3373 12.0557 11.3506 12.007 11.3816C11.8786 11.4591 11.8166 11.6362 11.8365 11.873C11.8564 12.1098 11.9561 12.3865 12.1132 12.6433C12.4386 13.1768 12.9189 13.4778 13.1868 13.3162C13.3152 13.2388 13.3771 13.0617 13.3572 12.8248C13.3373 12.588 13.2377 12.3091 13.0805 12.0545C12.8215 11.6295 12.4563 11.3395 12.1752 11.3373ZM9.86204 12.7518C9.56986 12.7628 9.36621 12.8669 9.31087 13.0307C9.20684 13.3251 9.60306 13.7324 10.1941 13.9382C10.7851 14.1419 11.3473 14.071 11.4514 13.7766C11.5001 13.6328 11.4359 13.4579 11.2699 13.2875C11.1038 13.117 10.8515 12.9665 10.5682 12.8669C10.3247 12.7828 10.0768 12.7407 9.86204 12.7518ZM13.6538 14.0489C13.0606 14.0644 12.598 14.3079 12.5958 14.6045C12.5958 14.755 12.7131 14.9011 12.9256 15.0096C13.1381 15.1181 13.4258 15.18 13.7247 15.1822C14.3511 15.1867 14.8602 14.9388 14.8624 14.6244C14.8646 14.4761 14.7473 14.33 14.5348 14.2216C14.3223 14.1131 14.0346 14.0511 13.7335 14.0489C13.707 14.0489 13.6804 14.0489 13.6538 14.0489Z" fill="#AB6AC2"/>
</svg>
