<svg width="17" height="18" viewBox="0 0 17 18" fill="none" xmlns="http://www.w3.org/2000/svg">
<path d="M16 9C16 13.4182 12.4182 17 8 17C3.58185 17 0 13.4182 0 9C0 4.58185 3.58185 1 8 1C12.4182 1 16 4.58185 16 9ZM10.5434 10.7434C10.5434 9.50739 9.62738 8.83446 8.29261 8.11723C7.45415 7.66492 6.95723 7.42215 6.95723 6.94769C6.95723 6.60554 7.39877 6.38492 8.03846 6.38492C8.78892 6.38492 9.28523 6.56154 9.804 6.99169L10.2123 5.53538C9.74708 5.18431 9.18277 5.00985 8.54954 4.95231V4.07692H7.43908V4.98585C6.39785 5.17908 5.55569 5.87169 5.55569 7.00277C5.55569 8.54769 6.968 8.97785 7.86154 9.48554C8.57877 9.89354 9.06462 10.1366 9.06462 10.6662C9.06462 11.2618 8.70031 11.648 7.90585 11.648C7.21077 11.648 6.54862 11.3502 6.00831 10.9418L5.45631 12.3212C5.99662 12.724 6.74092 12.972 7.43908 13.0458V13.9231H8.54954V13.0209C9.78892 12.8345 10.5434 12.1062 10.5434 10.7434Z" fill="#1F2937"/>
</svg>
