<svg width="15" height="16" viewBox="0 0 15 16" fill="none" xmlns="http://www.w3.org/2000/svg">
<path d="M7.00859 0.3825C6.10325 0.3825 5.26875 0.741093 4.7043 1.35646C3.32083 1.10633 2.07904 2.15776 2.06575 3.47039C1.16927 3.87547 0.59375 4.68784 0.59375 5.60203C0.59375 6.89253 1.74258 7.94838 3.18138 8.00372C3.84766 8.70984 4.89245 9.01531 5.80664 8.93341C5.83763 8.95112 5.87747 8.96661 5.91068 8.98432C5.9306 9.5532 5.93281 10.0778 5.91732 10.5582C5.55208 10.3169 5.25104 10.1154 5.18242 10.0645C4.97435 9.89409 4.66445 9.90516 4.46966 10.0977C4.26159 10.3058 4.25938 10.6423 4.46745 10.8503C4.51172 10.8946 4.55156 10.9345 5.81771 11.7667C5.68932 12.7562 5.44362 13.542 5.06953 14.195H0.59375C0.299349 14.195 0.0625 14.4318 0.0625 14.7262C0.0625 15.0184 0.299349 15.2575 0.59375 15.2575H14.4062C14.7007 15.2575 14.9375 15.0184 14.9375 14.7262C14.9375 14.4318 14.7007 14.195 14.4062 14.195H9.94375C9.44128 13.2011 9.28854 12.2427 9.11589 9.18797C9.3306 9.11492 9.53424 9.02859 9.7069 8.92013C11.6792 9.12156 13.3216 8.16088 13.4212 6.89474C14.0122 6.61805 14.4062 6.03367 14.4062 5.3674C14.4062 4.5019 13.7355 3.7825 12.8701 3.67625C12.6 2.59825 11.5043 1.7881 10.1961 1.7881C10.0168 1.7881 9.83971 1.80359 9.66263 1.83458C9.16458 0.960234 8.13971 0.3825 7.00859 0.3825ZM7.00859 1.445C7.87187 1.445 8.63333 1.92977 8.8569 2.62482C8.90117 2.75984 8.99857 2.87273 9.12695 2.93693C9.25313 3.00112 9.40143 3.00997 9.53867 2.96349C9.75117 2.88823 9.97253 2.8506 10.1961 2.8506C11.1103 2.8506 11.8562 3.44161 11.8717 4.16987C11.8607 4.36687 11.9337 4.52404 12.0643 4.63029C12.3034 4.82729 12.4052 4.72768 12.6487 4.72768C13.0316 4.72768 13.3438 5.01323 13.3438 5.3674C13.3438 5.67508 13.1025 5.9407 12.7727 5.99383C12.6243 6.01818 12.4937 6.10451 12.4141 6.22846C12.2414 6.49187 12.3632 6.54721 12.3632 6.77299C12.3632 7.37286 11.1346 8.05906 9.64935 7.84213C9.50547 7.82 9.35938 7.85984 9.24427 7.9506C8.99635 8.14318 8.47174 8.35125 7.7457 8.35125C7.15247 8.35125 6.58359 8.20073 6.26263 7.95945C6.14531 7.87091 6.00365 7.83771 5.87305 7.85542C4.95443 7.97273 4.19961 7.62078 3.84544 7.14708C3.7082 6.96779 3.52227 6.9213 3.30312 6.94565C2.39557 6.94565 1.65625 6.34135 1.65625 5.60203C1.65625 5.03315 2.1056 4.52625 2.7763 4.3381C3.04635 4.26284 3.21016 3.98836 3.15039 3.71388C2.97331 2.8993 3.78568 2.12456 4.72865 2.4588C4.95443 2.53849 5.20677 2.45659 5.3418 2.25958C5.68711 1.75711 6.32461 1.445 7.00859 1.445ZM6.96875 3.03875C6.67656 3.03875 6.4375 3.27781 6.4375 3.57C6.4375 3.86219 6.67656 4.10125 6.96875 4.10125C7.26094 4.10125 7.5 3.86219 7.5 3.57C7.5 3.27781 7.26094 3.03875 6.96875 3.03875ZM4.84375 3.57C4.55156 3.57 4.3125 3.80906 4.3125 4.10125C4.3125 4.39344 4.55156 4.6325 4.84375 4.6325C5.13594 4.6325 5.375 4.39344 5.375 4.10125C5.375 3.80906 5.13594 3.57 4.84375 3.57ZM10.1562 4.10125C9.86406 4.10125 9.625 4.34031 9.625 4.6325C9.625 4.92469 9.86406 5.16375 10.1562 5.16375C10.4484 5.16375 10.6875 4.92469 10.6875 4.6325C10.6875 4.34031 10.4484 4.10125 10.1562 4.10125ZM8.03125 4.6325C7.73906 4.6325 7.5 4.87156 7.5 5.16375C7.5 5.45594 7.73906 5.695 8.03125 5.695C8.32344 5.695 8.5625 5.45594 8.5625 5.16375C8.5625 4.87156 8.32344 4.6325 8.03125 4.6325ZM3.25 5.16375C2.95781 5.16375 2.71875 5.40281 2.71875 5.695C2.71875 5.98719 2.95781 6.22625 3.25 6.22625C3.54219 6.22625 3.78125 5.98719 3.78125 5.695C3.78125 5.40281 3.54219 5.16375 3.25 5.16375ZM5.90625 5.695C5.61406 5.695 5.375 5.93406 5.375 6.22625C5.375 6.51844 5.61406 6.7575 5.90625 6.7575C6.19844 6.7575 6.4375 6.51844 6.4375 6.22625C6.4375 5.93406 6.19844 5.695 5.90625 5.695ZM10.6875 6.22625C10.3953 6.22625 10.1562 6.46531 10.1562 6.7575C10.1562 7.04969 10.3953 7.28875 10.6875 7.28875C10.9797 7.28875 11.2188 7.04969 11.2188 6.7575C11.2188 6.46531 10.9797 6.22625 10.6875 6.22625ZM6.98203 9.34292C7.51328 9.43367 7.71693 9.41818 8.06445 9.39604C8.21719 12.0545 8.37214 13.2122 8.775 14.195H6.26042C6.80273 12.9908 7.0263 11.4613 6.98203 9.34292Z" fill="#3B9683"/>
</svg>
