<svg width="31" height="31" viewBox="0 0 31 31" fill="none" xmlns="http://www.w3.org/2000/svg">
<path id="Vector" d="M29.8738 0.565651C29.7453 0.547135 26.7039 0.127141 24.9929 1.83811C23.61 3.22108 23.6199 5.44809 23.6844 6.32903L23.0069 7.00654C23.0294 6.84055 23.0664 6.67907 23.0664 6.50704C23.0664 4.08709 20.6184 2.23362 20.5144 2.15557C20.248 1.95759 19.8844 1.95759 19.618 2.15557C19.5145 2.23356 17.0665 4.08703 17.0665 6.50704C17.0665 8.51004 18.7269 10.108 19.364 10.649L17.757 12.2559C17.78 12.09 17.817 11.9285 17.817 11.7564C17.817 9.33649 15.369 7.48302 15.265 7.40498C14.9985 7.20699 14.635 7.20699 14.3686 7.40498C14.2646 7.48296 11.8166 9.33696 11.8166 11.7569C11.8166 13.7599 13.4771 15.3579 14.1141 15.8988L12.5066 17.5063C12.5296 17.3404 12.5666 17.1789 12.5666 17.0064C12.5666 14.5864 10.1186 12.733 10.0146 12.6549C9.74815 12.4569 9.38464 12.4569 9.11816 12.6549C9.01468 12.7329 6.56667 14.5864 6.56667 17.0064C6.56667 19.0094 8.22766 20.6073 8.86415 21.1483L0.786174 29.2263C0.49315 29.5193 0.49315 29.9938 0.786174 30.2868C0.932656 30.4338 1.12467 30.5068 1.31667 30.5068C1.50868 30.5068 1.70069 30.4338 1.84718 30.2873L8.42512 23.7094C8.96663 24.3463 10.5641 26.0068 12.5671 26.0068C14.987 26.0068 16.8405 23.5589 16.9185 23.4549C17.1165 23.1884 17.1165 22.8249 16.9185 22.5584C16.841 22.4544 14.9871 20.0065 12.5671 20.0065C12.3951 20.0065 12.2335 20.0434 12.0681 20.0665L13.675 18.4595C14.216 19.0964 15.814 20.757 17.817 20.757C20.2369 20.757 22.0904 18.309 22.1685 18.205C22.3664 17.9385 22.3664 17.575 22.1685 17.3085C22.0905 17.2045 20.2365 14.757 17.8165 14.757C17.6446 14.757 17.483 14.794 17.317 14.817L18.924 13.2101C19.4655 13.8466 21.0634 15.507 23.0665 15.507C25.4864 15.507 27.3399 13.0591 27.4179 12.9551C27.6159 12.6886 27.6159 12.3251 27.4179 12.0586C27.3399 11.9551 25.4865 9.50712 23.0665 9.50712C22.8945 9.50712 22.7329 9.54409 22.5669 9.56711L24.7444 7.38962C25.6254 7.45361 27.8524 7.46363 29.2354 6.08113C30.9463 4.37015 30.5263 1.32818 30.5078 1.19969C30.4588 0.871155 30.2023 0.614634 29.8738 0.565651ZM9.56809 19.7634C8.99259 19.2134 8.06659 18.1489 8.06659 17.0064C8.06659 15.8564 8.9896 14.7979 9.56504 14.2495C10.1405 14.7995 11.0665 15.8639 11.0665 17.0064C11.0665 18.1564 10.1436 19.2149 9.56809 19.7634ZM12.5665 21.5064C13.7165 21.5064 14.775 22.4294 15.3235 23.0048C14.7735 23.5803 13.709 24.5063 12.5665 24.5063C11.4165 24.5063 10.358 23.5833 9.80955 23.0079C10.3596 22.4324 11.4241 21.5064 12.5665 21.5064ZM14.818 14.5135C14.2425 13.9635 13.3165 12.899 13.3165 11.7565C13.3165 10.6065 14.2395 9.54801 14.815 8.99953C15.3905 9.54954 16.3165 10.614 16.3165 11.7565C16.3165 12.9065 15.394 13.965 14.818 14.5135ZM17.8165 16.2569C18.9665 16.2569 20.0249 17.1799 20.5734 17.7554C20.0234 18.3309 18.959 19.2569 17.8165 19.2569C16.6665 19.2569 15.608 18.3339 15.0595 17.7584C15.61 17.1824 16.674 16.2569 17.8165 16.2569ZM20.068 9.26401C19.4925 8.714 18.5665 7.64954 18.5665 6.50704C18.5665 5.35703 19.4895 4.29855 20.0649 3.75006C20.6404 4.30007 21.5664 5.36453 21.5664 6.50704C21.5664 7.65704 20.6435 8.71552 20.068 9.26401ZM23.0664 11.007C24.2164 11.007 25.2749 11.93 25.8234 12.5054C25.2734 13.0809 24.2089 14.0069 23.0664 14.0069C21.9164 14.0069 20.8579 13.0839 20.3094 12.5085C20.8594 11.933 21.9239 11.007 23.0664 11.007ZM28.1744 5.02007C27.3614 5.83304 25.9604 5.92908 25.1654 5.91003C25.1474 5.11405 25.2449 3.70706 26.0529 2.89906C26.8659 2.08608 28.2669 1.99005 29.0619 2.00909C29.0803 2.80513 28.9824 4.21207 28.1744 5.02007Z" fill="#5DCF46"/>
</svg>
