<svg width="32" height="32" viewBox="0 0 32 32" fill="none" xmlns="http://www.w3.org/2000/svg">
<path d="M23.8193 11.1985L15.2461 19.7717C14.9337 20.0841 14.7775 20.2403 14.5974 20.2988C14.439 20.3503 14.2684 20.3503 14.1099 20.2988C13.9298 20.2403 13.7736 20.0841 13.4613 19.7717L10.5133 16.8237C10.2009 16.5113 10.0447 16.3552 9.86461 16.2966C9.70619 16.2452 9.53553 16.2452 9.37711 16.2966C9.197 16.3552 9.04081 16.5113 8.72843 16.8237L1.73282 23.8193M23.8193 11.1985H17.5089M23.8193 11.1985V17.5089M9.30534 30.1298H22.5572C25.2079 30.1298 26.5332 30.1298 27.5456 29.6139C28.4361 29.1602 29.1602 28.4361 29.6139 27.5456C30.1298 26.5332 30.1298 25.2079 30.1298 22.5572V9.30534C30.1298 6.65471 30.1298 5.32939 29.6139 4.31699C29.1602 3.42645 28.4361 2.70242 27.5456 2.24867C26.5332 1.73282 25.2079 1.73282 22.5572 1.73282H9.30534C6.65471 1.73282 5.32939 1.73282 4.31699 2.24867C3.42645 2.70242 2.70242 3.42645 2.24867 4.31699C1.73282 5.32939 1.73282 6.65471 1.73282 9.30534V22.5572C1.73282 25.2079 1.73282 26.5332 2.24867 27.5456C2.70242 28.4361 3.42645 29.1602 4.31699 29.6139C5.32939 30.1298 6.65471 30.1298 9.30534 30.1298Z" stroke="black" stroke-width="2" stroke-linecap="round" stroke-linejoin="round"/>
</svg>
