<svg width="45" height="46" viewBox="0 0 45 46" fill="none" xmlns="http://www.w3.org/2000/svg">
<g id="line-chart-up-03">
<path id="Icon" d="M31.8315 17.2875L21.6689 27.4501C21.2986 27.8204 21.1134 28.0055 20.8999 28.0749C20.7121 28.1359 20.5098 28.1359 20.3221 28.0749C20.1086 28.0055 19.9234 27.8204 19.5531 27.4501L16.0586 23.9556C15.6884 23.5853 15.5032 23.4002 15.2897 23.3308C15.1019 23.2698 14.8996 23.2698 14.7118 23.3308C14.4983 23.4002 14.3132 23.5853 13.9429 23.9556L5.65039 32.2481M31.8315 17.2875H24.3511M31.8315 17.2875V24.7678M14.6268 39.7284H30.3354C33.4774 39.7284 35.0484 39.7284 36.2485 39.1169C37.3041 38.5791 38.1624 37.7208 38.7003 36.6652C39.3118 35.4651 39.3118 33.8941 39.3118 30.7521V15.0434C39.3118 11.9014 39.3118 10.3304 38.7003 9.1303C38.1624 8.07467 37.3041 7.21641 36.2485 6.67854C35.0484 6.06706 33.4774 6.06706 30.3354 6.06706H14.6268C11.4847 6.06706 9.91372 6.06706 8.71363 6.67854C7.658 7.21641 6.79974 8.07467 6.26187 9.1303C5.65039 10.3304 5.65039 11.9014 5.65039 15.0434V30.7521C5.65039 33.8941 5.65039 35.4651 6.26187 36.6652C6.79974 37.7208 7.658 38.5791 8.71363 39.1169C9.91372 39.7284 11.4847 39.7284 14.6268 39.7284Z" stroke="#6ED459" stroke-width="2.37077" stroke-linecap="round" stroke-linejoin="round"/>
</g>
</svg>
