<svg width="25" height="24" viewBox="0 0 25 24" fill="none" xmlns="http://www.w3.org/2000/svg">
<path d="M3.30032 9H22.3003M10.8003 3L8.80032 9L12.8003 20.5L16.8003 9L14.8003 3M13.4149 20.2625L22.3735 9.51215C22.5254 9.32995 22.6013 9.23885 22.6303 9.13717C22.6559 9.04751 22.6559 8.95249 22.6303 8.86283C22.6013 8.76114 22.5254 8.67005 22.3735 8.48785L18.0402 3.28785C17.952 3.18204 17.9079 3.12914 17.8539 3.09111C17.806 3.05741 17.7526 3.03238 17.696 3.01717C17.6322 3 17.5633 3 17.4256 3H8.17502C8.03729 3 7.96842 3 7.9046 3.01717C7.84806 3.03238 7.79463 3.05741 7.74674 3.09111C7.6927 3.12914 7.64861 3.18204 7.56044 3.28785L3.22711 8.48785C3.07528 8.67004 2.99936 8.76114 2.97035 8.86283C2.94478 8.95249 2.94478 9.04751 2.97035 9.13716C2.99936 9.23885 3.07528 9.32995 3.22711 9.51215L12.1857 20.2625C12.3968 20.5158 12.5023 20.6424 12.6287 20.6886C12.7395 20.7291 12.8611 20.7291 12.972 20.6886C13.0983 20.6424 13.2038 20.5158 13.4149 20.2625Z" stroke="black" stroke-width="1.5" stroke-linecap="round" stroke-linejoin="round"/>
</svg>
