<svg width="22" height="22" viewBox="0 0 22 22" fill="none" xmlns="http://www.w3.org/2000/svg">
<path d="M11.8999 4.87046C11.8999 5.83769 9.7436 6.62179 7.08372 6.62179C4.42384 6.62179 2.26758 5.83769 2.26758 4.87046M11.8999 4.87046C11.8999 3.90323 9.7436 3.11914 7.08372 3.11914C4.42384 3.11914 2.26758 3.90323 2.26758 4.87046M11.8999 4.87046V8.77342C10.8302 9.09464 10.1485 9.58059 10.1485 10.1244M2.26758 4.87046V15.3784C2.26758 16.3456 4.42384 17.1297 7.08372 17.1297C8.24802 17.1297 9.31583 16.9795 10.1485 16.7294V10.1244M2.26758 8.37311C2.26758 9.34034 4.42384 10.1244 7.08372 10.1244C8.24802 10.1244 9.31583 9.97419 10.1485 9.72412M2.26758 11.8758C2.26758 12.843 4.42384 13.6271 7.08372 13.6271C8.24802 13.6271 9.31583 13.4768 10.1485 13.2268M19.7808 10.1244C19.7808 11.0917 17.6245 11.8758 14.9647 11.8758C12.3048 11.8758 10.1485 11.0917 10.1485 10.1244M19.7808 10.1244C19.7808 9.1572 17.6245 8.37311 14.9647 8.37311C12.3048 8.37311 10.1485 9.1572 10.1485 10.1244M19.7808 10.1244V17.1297C19.7808 18.097 17.6245 18.881 14.9647 18.881C12.3048 18.881 10.1485 18.097 10.1485 17.1297V10.1244M19.7808 13.6271C19.7808 14.5943 17.6245 15.3784 14.9647 15.3784C12.3048 15.3784 10.1485 14.5943 10.1485 13.6271" stroke="#15202B" stroke-width="0.875661" stroke-linecap="round" stroke-linejoin="round"/>
</svg>
