<svg width="27" height="27" viewBox="0 0 27 27" fill="none" xmlns="http://www.w3.org/2000/svg">
<g id="safe">
<path id="Icon" d="M6.76387 23.1194H10.058M16.6463 23.1194H19.9405M19.3914 7.19766V15.9821M3.46973 6.86825L3.46973 16.3115C3.46973 17.5414 3.46973 18.1564 3.70909 18.6261C3.91963 19.0393 4.25559 19.3753 4.66882 19.5859C5.13859 19.8252 5.75355 19.8252 6.98348 19.8252L19.7208 19.8252C20.9508 19.8252 21.5657 19.8252 22.0355 19.5859C22.4487 19.3753 22.7847 19.0394 22.9952 18.6261C23.2346 18.1564 23.2346 17.5414 23.2346 16.3115V6.86825C23.2346 5.63832 23.2346 5.02335 22.9952 4.55358C22.7847 4.14036 22.4487 3.8044 22.0355 3.59385C21.5657 3.35449 20.9508 3.35449 19.7208 3.35449L6.98348 3.35449C5.75355 3.35449 5.13859 3.35449 4.66882 3.59385C4.25559 3.8044 3.91963 4.14036 3.70909 4.55358C3.46973 5.02335 3.46973 5.63832 3.46973 6.86825ZM12.8031 11.5899C12.8031 13.1059 11.5741 14.335 10.058 14.335C8.54193 14.335 7.3129 13.1059 7.3129 11.5899C7.3129 10.0738 8.54193 8.84473 10.058 8.84473C11.5741 8.84473 12.8031 10.0738 12.8031 11.5899Z" stroke="black" stroke-width="1.3303" stroke-linecap="round" stroke-linejoin="round"/>
</g>
</svg>
