<svg width="25" height="24" viewBox="0 0 25 24" fill="none" xmlns="http://www.w3.org/2000/svg">
<path d="M14 5C14 6.10457 11.5376 7 8.5 7C5.46243 7 3 6.10457 3 5M14 5C14 3.89543 11.5376 3 8.5 3C5.46243 3 3 3.89543 3 5M14 5V9.45715C12.7785 9.82398 12 10.3789 12 11M3 5V17C3 18.1046 5.46243 19 8.5 19C9.82963 19 11.0491 18.8284 12 18.5429V11M3 9C3 10.1046 5.46243 11 8.5 11C9.82963 11 11.0491 10.8284 12 10.5429M3 13C3 14.1046 5.46243 15 8.5 15C9.82963 15 11.0491 14.8284 12 14.5429M23 11C23 12.1046 20.5376 13 17.5 13C14.4624 13 12 12.1046 12 11M23 11C23 9.89543 20.5376 9 17.5 9C14.4624 9 12 9.89543 12 11M23 11V19C23 20.1046 20.5376 21 17.5 21C14.4624 21 12 20.1046 12 19V11M23 15C23 16.1046 20.5376 17 17.5 17C14.4624 17 12 16.1046 12 15" stroke="#15202B" stroke-width="1.5" stroke-linecap="round" stroke-linejoin="round"/>
</svg>
