<svg width="29" height="29" viewBox="0 0 29 29" fill="none" xmlns="http://www.w3.org/2000/svg">
<path d="M10.7357 24.7269V16.0426C10.7357 15.3853 10.7357 15.0567 10.8636 14.8057C10.9761 14.5849 11.1556 14.4053 11.3764 14.2928C11.6275 14.1649 11.9561 14.1649 12.6133 14.1649H15.8993C16.5565 14.1649 16.8852 14.1649 17.1362 14.2928C17.357 14.4053 17.5366 14.5849 17.6491 14.8057C17.777 15.0567 17.777 15.3853 17.777 16.0426V24.7269M13.1035 3.32599L5.14413 9.51663C4.61208 9.93045 4.34605 10.1374 4.1544 10.3965C3.98463 10.626 3.85817 10.8846 3.78121 11.1595C3.69434 11.4699 3.69434 11.8069 3.69434 12.4809V20.9715C3.69434 22.286 3.69434 22.9433 3.95016 23.4454C4.17518 23.887 4.53424 24.2461 4.97588 24.4711C5.47795 24.7269 6.1352 24.7269 7.44971 24.7269H21.0629C22.3774 24.7269 23.0347 24.7269 23.5368 24.4711C23.9784 24.2461 24.3375 23.887 24.5625 23.4454C24.8183 22.9433 24.8183 22.286 24.8183 20.9715V12.4809C24.8183 11.8069 24.8183 11.4699 24.7314 11.1595C24.6545 10.8846 24.528 10.626 24.3582 10.3965C24.1666 10.1374 23.9006 9.93045 23.3685 9.51663L15.4091 3.32599C14.9968 3.00531 14.7907 2.84497 14.563 2.78334C14.3622 2.72896 14.1505 2.72896 13.9496 2.78334C13.722 2.84497 13.5158 3.00531 13.1035 3.32599Z" stroke="#475467" stroke-width="2.34711" stroke-linecap="round" stroke-linejoin="round"/>
</svg>
