<svg width="27" height="28" viewBox="0 0 27 28" fill="none" xmlns="http://www.w3.org/2000/svg">
<path d="M13.5714 2.83899C15.0347 2.83899 16.4837 3.12721 17.8356 3.68719C19.1875 4.24717 20.4159 5.06795 21.4506 6.10266C22.4853 7.13737 23.3061 8.36575 23.8661 9.71766C24.426 11.0696 24.7143 12.5186 24.7143 13.9819M13.5714 2.83899V13.9818M13.5714 2.83899C7.41737 2.83899 2.42854 7.82782 2.42854 13.9818C2.42854 20.1359 7.41737 25.1247 13.5714 25.1247C19.7254 25.1247 24.7143 20.1359 24.7143 13.9819M13.5714 2.83899C19.7254 2.83899 24.7143 7.82782 24.7143 13.9819M24.7143 13.9819L13.5714 13.9818M24.7143 13.9819C24.7143 15.7403 24.2981 17.4738 23.4998 19.0406C22.7014 20.6074 21.5436 21.963 20.121 22.9966L13.5714 13.9818" stroke="#667085" stroke-width="2.22857" stroke-linecap="round" stroke-linejoin="round"/>
</svg>
