<svg width="22" height="22" viewBox="0 0 22 22" fill="none" xmlns="http://www.w3.org/2000/svg">
<path d="M19.3528 4.90971C19.3528 6.36514 15.8132 7.545 11.4469 7.545C7.0806 7.545 3.54102 6.36514 3.54102 4.90971M19.3528 4.90971C19.3528 3.45428 15.8132 2.27441 11.4469 2.27441C7.0806 2.27441 3.54102 3.45428 3.54102 4.90971M19.3528 4.90971V17.2077C19.3528 18.6659 15.8391 19.843 11.4469 19.843C7.05474 19.843 3.54102 18.6659 3.54102 17.2077V4.90971M19.3528 11.0587C19.3528 12.5169 15.8391 13.694 11.4469 13.694C7.05474 13.694 3.54102 12.5169 3.54102 11.0587" stroke="black" stroke-linecap="round" stroke-linejoin="round"/>
</svg>
