<svg width="24" height="25" viewBox="0 0 24 25" fill="none" xmlns="http://www.w3.org/2000/svg">
<g id="database-01">
<path id="Icon" d="M21 5.19043C21 6.84728 16.9706 8.19043 12 8.19043C7.02944 8.19043 3 6.84728 3 5.19043M21 5.19043C21 3.53358 16.9706 2.19043 12 2.19043C7.02944 2.19043 3 3.53358 3 5.19043M21 5.19043V19.1904C21 20.8504 17 22.1904 12 22.1904C7 22.1904 3 20.8504 3 19.1904V5.19043M21 12.1904C21 13.8504 17 15.1904 12 15.1904C7 15.1904 3 13.8504 3 12.1904" stroke="#475467" stroke-width="2" stroke-linecap="round" stroke-linejoin="round"/>
</g>
</svg>
