<svg width="28" height="28" viewBox="0 0 28 28" fill="none" xmlns="http://www.w3.org/2000/svg">
<g id="bar-chart-square-01">
<path id="Icon" d="M9.52833 15.063V19.4552M18.3127 12.8669V19.4552M13.9205 8.47471V19.4552M9.30872 23.8474H18.5323C20.3772 23.8474 21.2997 23.8474 22.0043 23.4884C22.6242 23.1725 23.1281 22.6686 23.4439 22.0488C23.803 21.3441 23.803 20.4217 23.803 18.5768V9.35315C23.803 7.50826 23.803 6.58581 23.4439 5.88115C23.1281 5.26132 22.6242 4.75738 22.0043 4.44156C21.2997 4.08252 20.3772 4.08252 18.5323 4.08252H9.30872C7.46382 4.08252 6.54138 4.08252 5.83672 4.44156C5.21689 4.75738 4.71295 5.26132 4.39713 5.88115C4.03809 6.58581 4.03809 7.50826 4.03809 9.35315V18.5768C4.03809 20.4217 4.03809 21.3441 4.39713 22.0488C4.71295 22.6686 5.21689 23.1725 5.83672 23.4884C6.54138 23.8474 7.46382 23.8474 9.30872 23.8474Z" stroke="black" stroke-width="1.3303" stroke-linecap="round" stroke-linejoin="round"/>
</g>
</svg>
