<svg width="26" height="23" viewBox="0 0 26 23" fill="none" xmlns="http://www.w3.org/2000/svg">
<path d="M4.87605 12.485C4.87605 8.59623 8.02856 5.44373 11.9174 5.44373M4.87605 12.485C4.87605 14.4195 5.65614 16.1718 6.9189 17.4444C7.04069 17.5672 7.10158 17.6285 7.13752 17.6876C7.17182 17.7439 7.19179 17.7923 7.2071 17.8565C7.22316 17.9237 7.22316 18.0002 7.22316 18.1531V20.9346C7.22316 21.2633 7.22316 21.4276 7.28711 21.5531C7.34337 21.6635 7.43313 21.7533 7.54354 21.8095C7.66906 21.8735 7.83337 21.8735 8.162 21.8735H10.3918C10.7204 21.8735 10.8847 21.8735 11.0102 21.8095C11.1206 21.7533 11.2104 21.6635 11.2666 21.5531C11.3306 21.4276 11.3306 21.2633 11.3306 20.9346V20.4652C11.3306 20.1366 11.3306 19.9723 11.3945 19.8468C11.4508 19.7363 11.5406 19.6466 11.651 19.5903C11.7765 19.5264 11.9408 19.5264 12.2694 19.5264H13.9124C14.241 19.5264 14.4054 19.5264 14.5309 19.5903C14.6413 19.6466 14.731 19.7363 14.7873 19.8468C14.8513 19.9723 14.8513 20.1366 14.8513 20.4652V20.9346C14.8513 21.2633 14.8513 21.4276 14.9152 21.5531C14.9715 21.6635 15.0612 21.7533 15.1716 21.8095C15.2972 21.8735 15.4615 21.8735 15.7901 21.8735H18.0199C18.3486 21.8735 18.5129 21.8735 18.6384 21.8095C18.7488 21.7533 18.8386 21.6635 18.8948 21.5531C18.9588 21.4276 18.9588 21.2633 18.9588 20.9346V19.7896C18.9588 19.5525 18.9588 19.4339 18.9925 19.3388C19.0249 19.2475 19.0656 19.1837 19.1348 19.1159C19.2069 19.0452 19.329 18.9885 19.5733 18.8751C20.726 18.3399 21.7096 17.5021 22.4221 16.4636C22.5474 16.281 22.61 16.1897 22.6769 16.1357C22.7408 16.0841 22.7983 16.0539 22.877 16.0304C22.9593 16.0057 23.057 16.0057 23.2525 16.0057H23.8877C24.2163 16.0057 24.3806 16.0057 24.5062 15.9418C24.6166 15.8855 24.7063 15.7957 24.7626 15.6853C24.8265 15.5598 24.8265 15.3955 24.8265 15.0669V11.0601C24.8265 10.7472 24.8265 10.5908 24.7684 10.4701C24.7107 10.3504 24.6141 10.2537 24.4944 10.1961C24.3737 10.1379 24.2173 10.1379 23.9044 10.1379C23.678 10.1379 23.5647 10.1379 23.4735 10.1072C23.3752 10.074 23.3062 10.03 23.2349 9.9546C23.1687 9.88471 23.1147 9.76785 23.0067 9.53412C22.6599 8.78392 22.1851 8.10508 21.6101 7.52565C21.4883 7.40292 21.4275 7.34155 21.3915 7.28254C21.3572 7.22623 21.3373 7.17775 21.3219 7.11363C21.3059 7.04641 21.3059 6.96994 21.3059 6.81699V5.51482C21.3059 5.09229 21.3059 4.88102 21.2179 4.73901C21.1408 4.61462 21.02 4.52352 20.8793 4.48358C20.7185 4.43798 20.5154 4.49602 20.1091 4.6121L17.3248 5.40761C17.2775 5.42112 17.2538 5.42788 17.2298 5.43263C17.2084 5.43684 17.1868 5.43987 17.1651 5.44168C17.1407 5.44373 17.1159 5.44373 17.0663 5.44373H11.9174M4.87605 12.485H3.70258C2.4063 12.485 1.35547 11.4342 1.35547 10.1379C1.35547 9.26918 1.82747 8.51066 2.52902 8.10484M11.9174 5.44373H16.5701C16.5975 5.25208 16.6117 5.05617 16.6117 4.85695C16.6117 2.58847 14.7727 0.749512 12.5042 0.749512C10.2358 0.749512 8.39679 2.58847 8.39679 4.85695C8.39679 5.34656 8.48246 5.81616 8.63962 6.25159C9.61863 5.73572 10.7339 5.44373 11.9174 5.44373Z" stroke="black" stroke-linecap="round" stroke-linejoin="round"/>
</svg>
