<svg width="29" height="29" viewBox="0 0 29 29" fill="none" xmlns="http://www.w3.org/2000/svg">
<path d="M6.04158 15.8928C6.04158 12.0039 9.19408 8.85144 13.0829 8.85144M6.04158 15.8928C6.04158 17.8272 6.82167 19.5795 8.08443 20.8522C8.20621 20.9749 8.26711 21.0363 8.30305 21.0953C8.33735 21.1516 8.35731 21.2001 8.37263 21.2642C8.38868 21.3314 8.38868 21.4079 8.38868 21.5608V24.3424C8.38868 24.671 8.38868 24.8353 8.45264 24.9608C8.50889 25.0712 8.59866 25.161 8.70907 25.2172C8.83459 25.2812 8.9989 25.2812 9.32753 25.2812H11.5573C11.8859 25.2812 12.0502 25.2812 12.1757 25.2172C12.2861 25.161 12.3759 25.0712 12.4322 24.9608C12.4961 24.8353 12.4961 24.671 12.4961 24.3424V23.8729C12.4961 23.5443 12.4961 23.38 12.5601 23.2545C12.6163 23.1441 12.7061 23.0543 12.8165 22.998C12.942 22.9341 13.1063 22.9341 13.435 22.9341H15.0779C15.4066 22.9341 15.5709 22.9341 15.6964 22.998C15.8068 23.0543 15.8966 23.1441 15.9528 23.2545C16.0168 23.38 16.0168 23.5443 16.0168 23.8729V24.3424C16.0168 24.671 16.0168 24.8353 16.0807 24.9608C16.137 25.0712 16.2268 25.161 16.3372 25.2172C16.4627 25.2812 16.627 25.2812 16.9556 25.2812H19.1855C19.5141 25.2812 19.6784 25.2812 19.8039 25.2172C19.9143 25.161 20.0041 25.0712 20.0603 24.9608C20.1243 24.8353 20.1243 24.671 20.1243 24.3424V23.1974C20.1243 22.9602 20.1243 22.8416 20.1581 22.7465C20.1904 22.6552 20.2312 22.5914 20.3003 22.5236C20.3724 22.4529 20.4946 22.3962 20.7389 22.2828C21.8916 21.7476 22.8752 20.9098 23.5876 19.8713C23.7129 19.6887 23.7755 19.5974 23.8424 19.5434C23.9064 19.4919 23.9638 19.4616 24.0425 19.4381C24.1248 19.4134 24.2226 19.4134 24.418 19.4134H25.0532C25.3819 19.4134 25.5462 19.4134 25.6717 19.3495C25.7821 19.2932 25.8719 19.2034 25.9281 19.093C25.9921 18.9675 25.9921 18.8032 25.9921 18.4746V14.4678C25.9921 14.1549 25.9921 13.9985 25.9339 13.8778C25.8763 13.7581 25.7797 13.6615 25.6599 13.6038C25.5392 13.5457 25.3828 13.5457 25.07 13.5457C24.8435 13.5457 24.7303 13.5457 24.6391 13.5149C24.5407 13.4818 24.4718 13.4377 24.4004 13.3623C24.3343 13.2924 24.2802 13.1756 24.1722 12.9418C23.8255 12.1916 23.3506 11.5128 22.7757 10.9334C22.6539 10.8106 22.593 10.7493 22.557 10.6903C22.5227 10.6339 22.5028 10.5855 22.4875 10.5213C22.4714 10.4541 22.4714 10.3777 22.4714 10.2247V8.92253C22.4714 8.5 22.4714 8.28873 22.3834 8.14673C22.3063 8.02233 22.1856 7.93123 22.0448 7.89129C21.8841 7.8457 21.6809 7.90374 21.2747 8.01981L18.4903 8.81532C18.443 8.82884 18.4193 8.8356 18.3953 8.84034C18.3739 8.84456 18.3523 8.84758 18.3306 8.8494C18.3062 8.85144 18.2814 8.85144 18.2318 8.85144H13.0829M6.04158 15.8928H4.8681C3.57183 15.8928 2.521 14.8419 2.521 13.5457C2.521 12.6769 2.993 11.9184 3.69455 11.5126M13.0829 8.85144H17.7356C17.763 8.6598 17.7772 8.46389 17.7772 8.26466C17.7772 5.99619 15.9382 4.15723 13.6698 4.15723C11.4013 4.15723 9.56232 5.99619 9.56232 8.26466C9.56232 8.75428 9.64798 9.22388 9.80514 9.6593C10.7842 9.14343 11.8994 8.85144 13.0829 8.85144Z" stroke="black" stroke-width="2.34711" stroke-linecap="round" stroke-linejoin="round"/>
</svg>
