<svg width="22" height="22" viewBox="0 0 22 22" fill="none" xmlns="http://www.w3.org/2000/svg">
<path d="M4.55075 11.8758C4.55075 8.97407 6.90303 6.62179 9.80472 6.62179M4.55075 11.8758C4.55075 13.3192 5.13283 14.6267 6.07505 15.5763C6.16592 15.6678 6.21136 15.7136 6.23818 15.7577C6.26377 15.7997 6.27867 15.8359 6.2901 15.8837C6.30207 15.9339 6.30207 15.9909 6.30207 16.105V18.1805C6.30207 18.4257 6.30207 18.5483 6.34979 18.642C6.39177 18.7244 6.45875 18.7913 6.54113 18.8333C6.63479 18.881 6.7574 18.881 7.0026 18.881H8.66636C8.91157 18.881 9.03417 18.881 9.12783 18.8333C9.21021 18.7913 9.27719 18.7244 9.31917 18.642C9.36689 18.5483 9.36689 18.4257 9.36689 18.1805V17.8303C9.36689 17.585 9.36689 17.4624 9.41461 17.3688C9.45659 17.2864 9.52357 17.2194 9.60595 17.1774C9.69961 17.1297 9.82221 17.1297 10.0674 17.1297H11.2933C11.5386 17.1297 11.6612 17.1297 11.7548 17.1774C11.8372 17.2194 11.9042 17.2864 11.9462 17.3688C11.9939 17.4624 11.9939 17.585 11.9939 17.8303V18.1805C11.9939 18.4257 11.9939 18.5483 12.0416 18.642C12.0836 18.7244 12.1505 18.7913 12.2329 18.8333C12.3266 18.881 12.4492 18.881 12.6944 18.881H14.3582C14.6034 18.881 14.726 18.881 14.8197 18.8333C14.9021 18.7913 14.9691 18.7244 15.011 18.642C15.0587 18.5483 15.0587 18.4257 15.0587 18.1805V17.3262C15.0587 17.1492 15.0587 17.0608 15.0839 16.9897C15.1081 16.9217 15.1385 16.874 15.1901 16.8235C15.2439 16.7707 15.335 16.7284 15.5173 16.6438C16.3774 16.2444 17.1113 15.6193 17.6429 14.8444C17.7364 14.7081 17.7831 14.64 17.8331 14.5998C17.8808 14.5613 17.9236 14.5387 17.9824 14.5211C18.0438 14.5027 18.1167 14.5027 18.2626 14.5027H18.7365C18.9817 14.5027 19.1043 14.5027 19.198 14.455C19.2804 14.413 19.3474 14.3461 19.3893 14.2637C19.4371 14.17 19.4371 14.0474 19.4371 13.8022V10.8125C19.4371 10.579 19.4371 10.4623 19.3937 10.3723C19.3507 10.2829 19.2786 10.2108 19.1892 10.1678C19.0992 10.1244 18.9824 10.1244 18.749 10.1244C18.58 10.1244 18.4955 10.1244 18.4275 10.1015C18.3541 10.0768 18.3027 10.0439 18.2494 9.98763C18.2001 9.93548 18.1597 9.84828 18.0791 9.67388C17.8204 9.11411 17.4661 8.60759 17.0371 8.17524C16.9462 8.08366 16.9008 8.03787 16.874 7.99384C16.8484 7.95182 16.8335 7.91565 16.8221 7.8678C16.8101 7.81765 16.8101 7.76059 16.8101 7.64646V6.67483C16.8101 6.35955 16.8101 6.20192 16.7444 6.09596C16.6869 6.00314 16.5968 5.93516 16.4917 5.90536C16.3718 5.87134 16.2202 5.91464 15.9171 6.00126L13.8395 6.59483C13.8042 6.60492 13.7866 6.60996 13.7686 6.6135C13.7527 6.61665 13.7366 6.61891 13.7204 6.62026C13.7022 6.62179 13.6837 6.62179 13.6467 6.62179H9.80472M4.55075 11.8758H3.67515C2.70792 11.8758 1.92383 11.0917 1.92383 10.1244C1.92383 9.47619 2.27602 8.91022 2.79949 8.60741M9.80472 6.62179H13.2764C13.2968 6.47879 13.3074 6.33261 13.3074 6.18396C13.3074 4.4913 11.9353 3.11914 10.2426 3.11914C8.54996 3.11914 7.1778 4.4913 7.1778 6.18396C7.1778 6.54928 7.24172 6.89968 7.35898 7.22458C8.08948 6.83966 8.92163 6.62179 9.80472 6.62179Z" stroke="#15202B" stroke-width="0.875661" stroke-linecap="round" stroke-linejoin="round"/>
</svg>
