<svg width="29" height="29" viewBox="0 0 29 29" fill="none" xmlns="http://www.w3.org/2000/svg">
<path d="M6.04158 15.8931C6.04158 12.0043 9.19408 8.85181 13.0829 8.85181M6.04158 15.8931C6.04158 17.8276 6.82167 19.5799 8.08443 20.8525C8.20621 20.9753 8.26711 21.0366 8.30305 21.0956C8.33735 21.152 8.35731 21.2004 8.37263 21.2646C8.38868 21.3318 8.38868 21.4082 8.38868 21.5612V24.3427C8.38868 24.6713 8.38868 24.8357 8.45264 24.9612C8.50889 25.0716 8.59866 25.1613 8.70907 25.2176C8.83459 25.2816 8.9989 25.2816 9.32753 25.2816H11.5573C11.8859 25.2816 12.0502 25.2816 12.1757 25.2176C12.2861 25.1613 12.3759 25.0716 12.4322 24.9612C12.4961 24.8357 12.4961 24.6713 12.4961 24.3427V23.8733C12.4961 23.5447 12.4961 23.3804 12.5601 23.2548C12.6163 23.1444 12.7061 23.0547 12.8165 22.9984C12.942 22.9345 13.1063 22.9345 13.435 22.9345H15.0779C15.4066 22.9345 15.5709 22.9345 15.6964 22.9984C15.8068 23.0547 15.8966 23.1444 15.9528 23.2548C16.0168 23.3804 16.0168 23.5447 16.0168 23.8733V24.3427C16.0168 24.6713 16.0168 24.8357 16.0807 24.9612C16.137 25.0716 16.2268 25.1613 16.3372 25.2176C16.4627 25.2816 16.627 25.2816 16.9556 25.2816H19.1855C19.5141 25.2816 19.6784 25.2816 19.8039 25.2176C19.9143 25.1613 20.0041 25.0716 20.0603 24.9612C20.1243 24.8357 20.1243 24.6713 20.1243 24.3427V23.1977C20.1243 22.9606 20.1243 22.842 20.1581 22.7468C20.1904 22.6556 20.2312 22.5918 20.3003 22.524C20.3724 22.4533 20.4946 22.3966 20.7389 22.2832C21.8916 21.748 22.8752 20.9101 23.5876 19.8717C23.7129 19.6891 23.7755 19.5978 23.8424 19.5438C23.9064 19.4922 23.9638 19.462 24.0425 19.4384C24.1248 19.4138 24.2226 19.4138 24.418 19.4138H25.0532C25.3819 19.4138 25.5462 19.4138 25.6717 19.3498C25.7821 19.2936 25.8719 19.2038 25.9281 19.0934C25.9921 18.9679 25.9921 18.8036 25.9921 18.4749V14.4681C25.9921 14.1553 25.9921 13.9989 25.9339 13.8782C25.8763 13.7584 25.7797 13.6618 25.6599 13.6041C25.5392 13.546 25.3828 13.546 25.07 13.546C24.8435 13.546 24.7303 13.546 24.6391 13.5153C24.5407 13.4821 24.4718 13.438 24.4004 13.3627C24.3343 13.2928 24.2802 13.1759 24.1722 12.9422C23.8255 12.192 23.3506 11.5132 22.7757 10.9337C22.6539 10.811 22.593 10.7496 22.557 10.6906C22.5227 10.6343 22.5028 10.5858 22.4875 10.5217C22.4714 10.4545 22.4714 10.378 22.4714 10.2251V8.9229C22.4714 8.50037 22.4714 8.2891 22.3834 8.1471C22.3063 8.0227 22.1856 7.9316 22.0448 7.89166C21.8841 7.84606 21.6809 7.9041 21.2747 8.02018L18.4903 8.81569C18.443 8.82921 18.4193 8.83596 18.3953 8.84071C18.3739 8.84492 18.3523 8.84795 18.3306 8.84976C18.3062 8.85181 18.2814 8.85181 18.2318 8.85181H13.0829M6.04158 15.8931H4.8681C3.57183 15.8931 2.521 14.8423 2.521 13.546C2.521 12.6773 2.993 11.9187 3.69455 11.5129M13.0829 8.85181H17.7356C17.763 8.66016 17.7772 8.46425 17.7772 8.26503C17.7772 5.99656 15.9382 4.15759 13.6698 4.15759C11.4013 4.15759 9.56232 5.99656 9.56232 8.26503C9.56232 8.75464 9.64798 9.22424 9.80514 9.65967C10.7842 9.1438 11.8994 8.85181 13.0829 8.85181Z" stroke="#475467" stroke-width="2.34711" stroke-linecap="round" stroke-linejoin="round"/>
</svg>
