<svg width="23" height="20" viewBox="0 0 23 20" fill="none" xmlns="http://www.w3.org/2000/svg">
<path d="M4.00188 11C4.00188 7.68629 6.68818 5 10.0019 5M4.00188 11C4.00188 12.6484 4.66661 14.1415 5.74263 15.226C5.8464 15.3305 5.89829 15.3828 5.92892 15.4331C5.95814 15.4811 5.97515 15.5224 5.9882 15.5771C6.00188 15.6343 6.00188 15.6995 6.00188 15.8298V18.2C6.00188 18.48 6.00188 18.62 6.05638 18.727C6.10432 18.8211 6.18081 18.8976 6.27489 18.9455C6.38184 19 6.52186 19 6.80188 19H8.70188C8.98191 19 9.12192 19 9.22888 18.9455C9.32296 18.8976 9.39945 18.8211 9.44739 18.727C9.50188 18.62 9.50188 18.48 9.50188 18.2V17.8C9.50188 17.52 9.50188 17.38 9.55638 17.273C9.60432 17.1789 9.68081 17.1024 9.77489 17.0545C9.88184 17 10.0219 17 10.3019 17H11.7019C11.9819 17 12.1219 17 12.2289 17.0545C12.323 17.1024 12.3995 17.1789 12.4474 17.273C12.5019 17.38 12.5019 17.52 12.5019 17.8V18.2C12.5019 18.48 12.5019 18.62 12.5564 18.727C12.6043 18.8211 12.6808 18.8976 12.7749 18.9455C12.8818 19 13.0219 19 13.3019 19H15.202C15.482 19 15.622 19 15.7289 18.9455C15.823 18.8976 15.8995 18.8211 15.9475 18.727C16.002 18.62 16.002 18.48 16.002 18.2V17.2243C16.002 17.0223 16.002 16.9212 16.0307 16.8401C16.0583 16.7624 16.093 16.708 16.1519 16.6502C16.2134 16.59 16.3175 16.5417 16.5256 16.445C17.5079 15.989 18.346 15.2751 18.9531 14.3902C19.0598 14.2346 19.1132 14.1568 19.1702 14.1108C19.2247 14.0668 19.2736 14.0411 19.3407 14.021C19.4108 14 19.4941 14 19.6607 14H20.202C20.482 14 20.622 14 20.729 13.9455C20.823 13.8976 20.8995 13.8211 20.9475 13.727C21.002 13.62 21.002 13.48 21.002 13.2V9.78575C21.002 9.51916 21.002 9.38586 20.9524 9.28303C20.9033 9.181 20.821 9.09867 20.7189 9.04953C20.6161 9 20.4828 9 20.2162 9C20.0232 9 19.9268 9 19.849 8.9738C19.7652 8.94556 19.7065 8.90798 19.6457 8.84377C19.5893 8.78422 19.5433 8.68464 19.4512 8.48547C19.1558 7.84622 18.7511 7.26777 18.2612 6.77404C18.1574 6.66945 18.1055 6.61716 18.0749 6.56687C18.0457 6.51889 18.0287 6.47759 18.0156 6.42294C18.002 6.36567 18.002 6.30051 18.002 6.17018V5.06058C18.002 4.70053 18.002 4.52051 17.927 4.39951C17.8613 4.29351 17.7584 4.21588 17.6384 4.18184C17.5015 4.14299 17.3284 4.19245 16.9822 4.29136L14.6096 4.96922C14.5693 4.98074 14.5491 4.9865 14.5286 4.99054C14.5104 4.99414 14.492 4.99671 14.4736 4.99826C14.4527 5 14.4316 5 14.3894 5H10.0019M4.00188 11H3.00195C1.89738 11 1.00195 10.1046 1.00195 9C1.00195 8.25972 1.40415 7.61337 2.00195 7.26756M10.0019 5H13.9665C13.9899 4.8367 14.002 4.66976 14.002 4.5C14.002 2.567 12.4349 1 10.502 1C8.56896 1 7.00195 2.567 7.00195 4.5C7.00195 4.9172 7.07495 5.31736 7.20887 5.68839C8.04309 5.24881 8.9934 5 10.0019 5Z" stroke="black" stroke-width="2" stroke-linecap="round" stroke-linejoin="round"/>
</svg>
