<svg width="29" height="29" viewBox="0 0 29 29" fill="none" xmlns="http://www.w3.org/2000/svg">
<g id="piggy-bank-02">
<path id="Icon" d="M6.04158 15.8931C6.04158 12.0043 9.19408 8.85178 13.0829 8.85178M6.04158 15.8931C6.04158 17.8276 6.82167 19.5798 8.08443 20.8525C8.20621 20.9752 8.26711 21.0366 8.30305 21.0956C8.33735 21.1519 8.35731 21.2004 8.37263 21.2645C8.38868 21.3317 8.38868 21.4082 8.38868 21.5612V24.3427C8.38868 24.6713 8.38868 24.8356 8.45264 24.9611C8.50889 25.0716 8.59866 25.1613 8.70907 25.2176C8.83459 25.2815 8.9989 25.2815 9.32753 25.2815H11.5573C11.8859 25.2815 12.0502 25.2815 12.1757 25.2176C12.2861 25.1613 12.3759 25.0716 12.4322 24.9611C12.4961 24.8356 12.4961 24.6713 12.4961 24.3427V23.8733C12.4961 23.5446 12.4961 23.3803 12.5601 23.2548C12.6163 23.1444 12.7061 23.0546 12.8165 22.9984C12.942 22.9344 13.1063 22.9344 13.435 22.9344H15.0779C15.4066 22.9344 15.5709 22.9344 15.6964 22.9984C15.8068 23.0546 15.8966 23.1444 15.9528 23.2548C16.0168 23.3803 16.0168 23.5446 16.0168 23.8733V24.3427C16.0168 24.6713 16.0168 24.8356 16.0807 24.9611C16.137 25.0716 16.2268 25.1613 16.3372 25.2176C16.4627 25.2815 16.627 25.2815 16.9556 25.2815H19.1855C19.5141 25.2815 19.6784 25.2815 19.8039 25.2176C19.9143 25.1613 20.0041 25.0716 20.0603 24.9611C20.1243 24.8356 20.1243 24.6713 20.1243 24.3427V23.1977C20.1243 22.9606 20.1243 22.842 20.1581 22.7468C20.1904 22.6556 20.2312 22.5917 20.3003 22.524C20.3724 22.4533 20.4946 22.3966 20.7389 22.2831C21.8916 21.748 22.8752 20.9101 23.5876 19.8716C23.7129 19.689 23.7755 19.5977 23.8424 19.5438C23.9064 19.4922 23.9638 19.462 24.0425 19.4384C24.1248 19.4138 24.2226 19.4138 24.418 19.4138H25.0532C25.3819 19.4138 25.5462 19.4138 25.6717 19.3498C25.7821 19.2935 25.8719 19.2038 25.9281 19.0934C25.9921 18.9679 25.9921 18.8035 25.9921 18.4749V14.4681C25.9921 14.1553 25.9921 13.9988 25.9339 13.8781C25.8763 13.7584 25.7797 13.6618 25.6599 13.6041C25.5392 13.546 25.3828 13.546 25.07 13.546C24.8435 13.546 24.7303 13.546 24.6391 13.5152C24.5407 13.4821 24.4718 13.438 24.4004 13.3626C24.3343 13.2928 24.2802 13.1759 24.1722 12.9422C23.8255 12.192 23.3506 11.5131 22.7757 10.9337C22.6539 10.811 22.593 10.7496 22.557 10.6906C22.5227 10.6343 22.5028 10.5858 22.4875 10.5217C22.4714 10.4545 22.4714 10.378 22.4714 10.225V8.92287C22.4714 8.50034 22.4714 8.28907 22.3834 8.14706C22.3063 8.02267 22.1856 7.93157 22.0448 7.89163C21.8841 7.84603 21.6809 7.90407 21.2747 8.02015L18.4903 8.81566C18.443 8.82917 18.4193 8.83593 18.3953 8.84068C18.3739 8.84489 18.3523 8.84792 18.3306 8.84973C18.3062 8.85178 18.2814 8.85178 18.2318 8.85178H13.0829M6.04158 15.8931H4.8681C3.57183 15.8931 2.521 14.8423 2.521 13.546C2.521 12.6772 2.993 11.9187 3.69455 11.5129M13.0829 8.85178H17.7356C17.763 8.66013 17.7772 8.46422 17.7772 8.265C17.7772 5.99652 15.9382 4.15756 13.6698 4.15756C11.4013 4.15756 9.56232 5.99652 9.56232 8.265C9.56232 8.75461 9.64798 9.22421 9.80514 9.65964C10.7842 9.14377 11.8994 8.85178 13.0829 8.85178Z" stroke="#475467" stroke-width="2.34711" stroke-linecap="round" stroke-linejoin="round"/>
</g>
</svg>
