<svg width="25" height="24" viewBox="0 0 25 24" fill="none" xmlns="http://www.w3.org/2000/svg">
<path d="M5.49993 13C5.49993 9.68629 8.18622 7 11.4999 7M5.49993 13C5.49993 14.6484 6.16466 16.1415 7.24067 17.226C7.34445 17.3305 7.39633 17.3828 7.42696 17.4331C7.45619 17.4811 7.4732 17.5224 7.48625 17.5771C7.49993 17.6343 7.49993 17.6995 7.49993 17.8298V20.2C7.49993 20.48 7.49993 20.62 7.55443 20.727C7.60236 20.8211 7.67885 20.8976 7.77293 20.9455C7.87989 21 8.0199 21 8.29993 21H10.1999C10.48 21 10.62 21 10.7269 20.9455C10.821 20.8976 10.8975 20.8211 10.9454 20.727C10.9999 20.62 10.9999 20.48 10.9999 20.2V19.8C10.9999 19.52 10.9999 19.38 11.0544 19.273C11.1024 19.1789 11.1789 19.1024 11.2729 19.0545C11.3799 19 11.5199 19 11.7999 19H13.1999C13.48 19 13.62 19 13.7269 19.0545C13.821 19.1024 13.8975 19.1789 13.9454 19.273C13.9999 19.38 13.9999 19.52 13.9999 19.8V20.2C13.9999 20.48 13.9999 20.62 14.0544 20.727C14.1024 20.8211 14.1789 20.8976 14.2729 20.9455C14.3799 21 14.5199 21 14.7999 21H16.7C16.98 21 17.12 21 17.227 20.9455C17.3211 20.8976 17.3976 20.8211 17.4455 20.727C17.5 20.62 17.5 20.48 17.5 20.2V19.2243C17.5 19.0223 17.5 18.9212 17.5288 18.8401C17.5563 18.7624 17.5911 18.708 17.65 18.6502C17.7114 18.59 17.8155 18.5417 18.0237 18.445C19.0059 17.989 19.844 17.2751 20.4511 16.3902C20.5579 16.2346 20.6112 16.1568 20.6683 16.1108C20.7228 16.0668 20.7717 16.0411 20.8387 16.021C20.9089 16 20.9922 16 21.1587 16H21.7C21.98 16 22.12 16 22.227 15.9455C22.3211 15.8976 22.3976 15.8211 22.4455 15.727C22.5 15.62 22.5 15.48 22.5 15.2V11.7857C22.5 11.5192 22.5 11.3859 22.4505 11.283C22.4013 11.181 22.319 11.0987 22.217 11.0495C22.1141 11 21.9808 11 21.7143 11C21.5213 11 21.4248 11 21.3471 10.9738C21.2633 10.9456 21.2045 10.908 21.1437 10.8438C21.0874 10.7842 21.0413 10.6846 20.9493 10.4855C20.6538 9.84622 20.2492 9.26777 19.7593 8.77404C19.6555 8.66945 19.6036 8.61716 19.573 8.56687C19.5437 8.51889 19.5267 8.47759 19.5137 8.42294C19.5 8.36567 19.5 8.30051 19.5 8.17018V7.06058C19.5 6.70053 19.5 6.52051 19.425 6.39951C19.3593 6.29351 19.2564 6.21588 19.1365 6.18184C18.9995 6.14299 18.8264 6.19245 18.4802 6.29136L16.1077 6.96922C16.0673 6.98074 16.0472 6.9865 16.0267 6.99054C16.0085 6.99414 15.9901 6.99671 15.9716 6.99826C15.9508 7 15.9297 7 15.8874 7H11.4999M5.49993 13H4.5C3.39543 13 2.5 12.1046 2.5 11C2.5 10.2597 2.9022 9.61337 3.5 9.26756M11.4999 7H15.4646C15.4879 6.8367 15.5 6.66976 15.5 6.5C15.5 4.567 13.933 3 12 3C10.067 3 8.5 4.567 8.5 6.5C8.5 6.9172 8.573 7.31736 8.70692 7.68839C9.54114 7.24881 10.4914 7 11.4999 7Z" stroke="black" stroke-width="1.5" stroke-linecap="round" stroke-linejoin="round"/>
</svg>
