<svg width="15" height="15" viewBox="0 0 15 15" fill="none" xmlns="http://www.w3.org/2000/svg">
<g clip-path="url(#clip0_1390_299653)">
<path d="M7.5 15C11.6421 15 15 11.6421 15 7.5C15 3.35786 11.6421 0 7.5 0C3.35786 0 0 3.35786 0 7.5C0 11.6421 3.35786 15 7.5 15Z" fill="#F0B90B"/>
<path d="M4.82811 4.04782L7.47014 2.51001L10.112 4.04782L9.14077 4.61595L7.47014 3.6461L5.79952 4.61595L4.82827 4.04782H4.82811ZM10.112 5.9872L9.14061 5.41907L7.46999 6.38876L5.79936 5.41907L4.82811 5.9872V7.12345L6.49874 8.09314V10.0325L7.46999 10.6006L8.44124 10.0325V8.09314L10.1119 7.12345V5.9872H10.112ZM10.112 9.06282V7.92657L9.14061 8.4947V9.63095L10.1119 9.06282H10.112ZM10.8015 9.46438L9.13124 10.4341V11.5703L11.7731 10.0325V6.95688L10.8015 7.52501V9.46438ZM9.8303 5.01751L10.8015 5.58564V6.72188L11.773 6.15376V5.01751L10.8017 4.44938L9.8303 5.01751V5.01751ZM6.49889 10.8453V11.9816L7.47014 12.5497L8.44139 11.9816V10.8453L7.47014 11.4134L6.49889 10.8453ZM4.82811 9.06267L5.79936 9.63095V8.4947L4.82811 7.92657V9.06282V9.06267ZM6.49874 5.01735L7.46999 5.58564L8.44124 5.01751L7.46999 4.44938L6.49874 5.01751V5.01735ZM4.13843 5.58564L5.10968 5.01751L4.13843 4.44938L3.16718 5.01751V6.15376L4.13843 6.72188V5.58564ZM4.13843 7.52501L3.16718 6.95688V10.0325L5.80905 11.5703V10.4341L4.13843 9.46438V7.52501Z" fill="white"/>
</g>
<defs>
<clipPath id="clip0_1390_299653">
<rect width="15" height="15" fill="white"/>
</clipPath>
</defs>
</svg>
