<svg width="22" height="26" viewBox="0 0 22 26" fill="none" xmlns="http://www.w3.org/2000/svg">
<path d="M18.875 9.875V18.625C18.875 19.3154 18.3154 19.875 17.625 19.875H6.375C5.68458 19.875 5.125 19.3154 5.125 18.625V8.625H17.625C18.3154 8.625 18.875 9.18458 18.875 9.875Z" stroke="#15202B" stroke-width="0.8" stroke-miterlimit="10" stroke-linejoin="round"/>
<path d="M8.45825 8.625V6.54167C8.45825 5.62125 9.2045 4.875 10.1249 4.875H15.5416C16.462 4.875 17.2083 5.62125 17.2083 6.54167V8.625" stroke="#15202B" stroke-width="0.8" stroke-miterlimit="10" stroke-linecap="round" stroke-linejoin="round"/>
<path d="M11.375 8.625V4.875" stroke="#15202B" stroke-width="0.8" stroke-miterlimit="10" stroke-linejoin="round"/>
<path d="M15.9584 15.0833C16.5337 15.0833 17.0001 14.617 17.0001 14.0417C17.0001 13.4664 16.5337 13 15.9584 13C15.3831 13 14.9167 13.4664 14.9167 14.0417C14.9167 14.617 15.3831 15.0833 15.9584 15.0833Z" fill="#15202B"/>
</svg>
