<svg width="22" height="22" viewBox="0 0 22 22" fill="none" xmlns="http://www.w3.org/2000/svg">
<path d="M12.0006 9.99942L2.50062 19.4994M13.019 2.53789C14.2371 3.34609 15.4078 4.29892 16.5018 5.39291C17.6052 6.49634 18.565 7.67782 19.3777 8.90717M8.25558 6.89556L5.38071 5.93727C5.04963 5.82691 4.68496 5.89714 4.41854 6.12257L1.56138 8.54016C0.976455 9.0351 1.14263 9.977 1.86162 10.2419L4.56881 11.2393M10.6817 17.3519L11.6791 20.0591C11.9439 20.7781 12.8858 20.9443 13.3808 20.3594L15.7984 17.5022C16.0238 17.2358 16.094 16.8711 15.9837 16.5401L15.0254 13.6652M18.3492 1.27015L13.4427 2.08789C12.9129 2.17619 12.427 2.4366 12.06 2.82884L5.44698 9.89798C3.73282 11.7304 3.7805 14.5919 5.55475 16.3662C7.329 18.1404 10.1906 18.1881 12.023 16.474L19.0921 9.86088C19.4843 9.49395 19.7447 9.00801 19.833 8.4782L20.6508 3.57173C20.8764 2.21809 19.7028 1.04454 18.3492 1.27015Z" stroke="black" stroke-width="2" stroke-linecap="round" stroke-linejoin="round"/>
</svg>
