<svg width="22" height="22" viewBox="0 0 22 22" fill="none" xmlns="http://www.w3.org/2000/svg">
<path d="M12.3271 10.3586L3.98203 18.7037M13.2217 3.8042C14.2917 4.51415 15.3201 5.35114 16.2811 6.31214C17.2504 7.28143 18.0935 8.31928 18.8074 9.39918M9.03737 7.63212L6.51199 6.79032C6.22116 6.69338 5.90082 6.75507 5.66679 6.95309L3.15698 9.07679C2.64316 9.51156 2.78913 10.339 3.42071 10.5716L5.7988 11.4478M11.1685 16.8173L12.0447 19.1954C12.2773 19.827 13.1047 19.973 13.5395 19.4592L15.6632 16.9493C15.8612 16.7153 15.9229 16.395 15.826 16.1041L14.9842 13.5788M17.9039 2.69058L13.5939 3.40891C13.1285 3.48647 12.7017 3.71522 12.3793 4.05978L6.57021 10.2695C5.06444 11.8791 5.10632 14.3928 6.66488 15.9514C8.22344 17.51 10.7371 17.5518 12.3467 16.0461L18.5565 10.2369C18.9011 9.91463 19.1298 9.48775 19.2074 9.02236L19.9257 4.71236C20.1239 3.52328 19.093 2.49239 17.9039 2.69058Z" stroke="black" stroke-linecap="round" stroke-linejoin="round"/>
</svg>
