<svg width="46" height="45" viewBox="0 0 46 45" fill="none" xmlns="http://www.w3.org/2000/svg">
<g clip-path="url(#clip0_685_214155)">
<mask id="mask0_685_214155" style="mask-type:luminance" maskUnits="userSpaceOnUse" x="0" y="0" width="46" height="45">
<path d="M45.3142 22.3714C45.3142 10.0633 35.3366 0.0856934 23.0285 0.0856934C10.7205 0.0856934 0.742813 10.0633 0.742813 22.3714C0.742813 34.6795 10.7205 44.6571 23.0285 44.6571C35.3366 44.6571 45.3142 34.6795 45.3142 22.3714Z" fill="white"/>
</mask>
<g mask="url(#mask0_685_214155)">
<path d="M45.3144 0.0856934H0.742935V44.6571H45.3144V0.0856934Z" fill="#EDB92E"/>
<path d="M51.099 -1.22608L15.7076 3.11943C10.8211 3.71942 7.34619 8.16712 7.94618 13.0537L12.2917 48.445C12.8917 53.3315 17.3394 56.8065 22.2259 56.2065L57.6173 51.861C62.5038 51.261 65.9787 46.8133 65.3787 41.9267L61.0332 6.53538C60.4332 1.64885 55.9855 -1.82607 51.099 -1.22608Z" fill="#15202B"/>
<path d="M23.8473 25.0369C26.3849 26.1437 28.8577 26.0141 31.2657 24.6481" stroke="#EDB92E" stroke-width="1.2381" stroke-linecap="round"/>
<path d="M20.3674 17.7806C20.3316 17.0977 19.8874 16.5659 19.3753 16.5928C18.8632 16.6196 18.477 17.1949 18.5128 17.8778C18.5486 18.5606 18.9928 19.0924 19.5049 19.0656C20.017 19.0387 20.4032 18.4634 20.3674 17.7806Z" fill="#EDB92E"/>
<path d="M35.2042 17.003C35.1684 16.3201 34.7243 15.7883 34.2121 15.8152C33.7 15.842 33.3138 16.4173 33.3496 17.1002C33.3854 17.783 33.8296 18.3148 34.3417 18.288C34.8539 18.2611 35.24 17.6858 35.2042 17.003Z" fill="#EDB92E"/>
</g>
</g>
<defs>
<clipPath id="clip0_685_214155">
<rect width="44.5714" height="44.5714" fill="white" transform="translate(0.742813 0.0856934)"/>
</clipPath>
</defs>
</svg>
