<svg width="43" height="44" viewBox="0 0 43 44" fill="none" xmlns="http://www.w3.org/2000/svg">
<g clip-path="url(#clip0_8949_30391)">
<mask id="mask0_8949_30391" style="mask-type:alpha" maskUnits="userSpaceOnUse" x="0" y="0" width="43" height="44">
<path d="M43 21.7004C43 9.82632 33.3741 0.200439 21.5 0.200439C9.62588 0.200439 0 9.82632 0 21.7004C0 33.5746 9.62588 43.2004 21.5 43.2004C33.3741 43.2004 43 33.5746 43 21.7004Z" fill="white"/>
</mask>
<g mask="url(#mask0_8949_30391)">
<path d="M5.375 0.200439H0V5.57544H5.375V0.200439Z" fill="#C6CDFF"/>
<path d="M16.125 0.200439H10.75V5.57544H16.125V0.200439Z" fill="#C6CDFF"/>
<path d="M26.875 0.200439H21.5V5.57544H26.875V0.200439Z" fill="#7F9BFF"/>
<path d="M37.625 0.200439H32.25V5.57544H37.625V0.200439Z" fill="#C6CDFF"/>
<path d="M10.75 0.200439H5.375V5.57544H10.75V0.200439Z" fill="#95ACFA"/>
<path d="M21.5 0.200439H16.125V5.57544H21.5V0.200439Z" fill="#7F9BFF"/>
<path d="M32.25 0.200439H26.875V5.57544H32.25V0.200439Z" fill="#FF7D10"/>
<path d="M43 0.200439H37.625V5.57544H43V0.200439Z" fill="#C6CDFF"/>
<path d="M5.375 5.57544H0V10.9504H5.375V5.57544Z" fill="#FFBC10"/>
<path d="M5.375 10.9504H0V16.3254H5.375V10.9504Z" fill="#95ACFA"/>
<path d="M5.375 16.3254H0V21.7004H5.375V16.3254Z" fill="#FF7D10"/>
<path d="M5.375 21.7004H0V27.0754H5.375V21.7004Z" fill="#FFBC10"/>
<path d="M5.375 27.0754H0V32.4504H5.375V27.0754Z" fill="#C6CDFF"/>
<path d="M5.375 32.4504H0V37.8254H5.375V32.4504Z" fill="#FF7D10"/>
<path d="M5.375 37.8254H0V43.2004H5.375V37.8254Z" fill="#95ACFA"/>
<path d="M16.125 5.57544H10.75V10.9504H16.125V5.57544Z" fill="#FFBC10"/>
<path d="M16.125 10.9504H10.75V16.3254H16.125V10.9504Z" fill="#7F9BFF"/>
<path d="M16.125 16.3254H10.75V21.7004H16.125V16.3254Z" fill="#FFBC10"/>
<path d="M16.125 21.7004H10.75V27.0754H16.125V21.7004Z" fill="#FFBC10"/>
<path d="M16.125 27.0754H10.75V32.4504H16.125V27.0754Z" fill="#95ACFA"/>
<path d="M16.125 32.4504H10.75V37.8254H16.125V32.4504Z" fill="#95ACFA"/>
<path d="M16.125 37.8254H10.75V43.2004H16.125V37.8254Z" fill="#C6CDFF"/>
<path d="M26.875 5.57544H21.5V10.9504H26.875V5.57544Z" fill="#95ACFA"/>
<path d="M26.875 10.9504H21.5V16.3254H26.875V10.9504Z" fill="#FFBC10"/>
<path d="M26.875 16.3254H21.5V21.7004H26.875V16.3254Z" fill="#95ACFA"/>
<path d="M26.875 21.7004H21.5V27.0754H26.875V21.7004Z" fill="#FFBC10"/>
<path d="M26.875 27.0754H21.5V32.4504H26.875V27.0754Z" fill="#FFBC10"/>
<path d="M26.875 32.4504H21.5V37.8254H26.875V32.4504Z" fill="#FF7D10"/>
<path d="M26.875 37.8254H21.5V43.2004H26.875V37.8254Z" fill="#95ACFA"/>
<path d="M37.625 5.57544H32.25V10.9504H37.625V5.57544Z" fill="#95ACFA"/>
<path d="M37.625 10.9504H32.25V16.3254H37.625V10.9504Z" fill="#7F9BFF"/>
<path d="M37.625 16.3254H32.25V21.7004H37.625V16.3254Z" fill="#FFBC10"/>
<path d="M37.625 21.7004H32.25V27.0754H37.625V21.7004Z" fill="#C6CDFF"/>
<path d="M37.625 27.0754H32.25V32.4504H37.625V27.0754Z" fill="#FF7D10"/>
<path d="M37.625 32.4504H32.25V37.8254H37.625V32.4504Z" fill="#95ACFA"/>
<path d="M37.625 37.8254H32.25V43.2004H37.625V37.8254Z" fill="#FFBC10"/>
<path d="M10.75 5.57544H5.375V10.9504H10.75V5.57544Z" fill="#FFBC10"/>
<path d="M10.75 10.9504H5.375V16.3254H10.75V10.9504Z" fill="#7F9BFF"/>
<path d="M10.75 16.3254H5.375V21.7004H10.75V16.3254Z" fill="#C6CDFF"/>
<path d="M10.75 21.7004H5.375V27.0754H10.75V21.7004Z" fill="#95ACFA"/>
<path d="M10.75 27.0754H5.375V32.4504H10.75V27.0754Z" fill="#7F9BFF"/>
<path d="M10.75 32.4504H5.375V37.8254H10.75V32.4504Z" fill="#7F9BFF"/>
<path d="M10.75 37.8254H5.375V43.2004H10.75V37.8254Z" fill="#FF7D10"/>
<path d="M21.5 5.57544H16.125V10.9504H21.5V5.57544Z" fill="#C6CDFF"/>
<path d="M21.5 10.9504H16.125V16.3254H21.5V10.9504Z" fill="#95ACFA"/>
<path d="M21.5 16.3254H16.125V21.7004H21.5V16.3254Z" fill="#FF7D10"/>
<path d="M21.5 21.7004H16.125V27.0754H21.5V21.7004Z" fill="#95ACFA"/>
<path d="M21.5 27.0754H16.125V32.4504H21.5V27.0754Z" fill="#FFBC10"/>
<path d="M21.5 32.4504H16.125V37.8254H21.5V32.4504Z" fill="#FF7D10"/>
<path d="M21.5 37.8254H16.125V43.2004H21.5V37.8254Z" fill="#95ACFA"/>
<path d="M32.25 5.57544H26.875V10.9504H32.25V5.57544Z" fill="#95ACFA"/>
<path d="M32.25 10.9504H26.875V16.3254H32.25V10.9504Z" fill="#FF7D10"/>
<path d="M32.25 16.3254H26.875V21.7004H32.25V16.3254Z" fill="#FFBC10"/>
<path d="M32.25 21.7004H26.875V27.0754H32.25V21.7004Z" fill="#FFBC10"/>
<path d="M32.25 27.0754H26.875V32.4504H32.25V27.0754Z" fill="#95ACFA"/>
<path d="M32.25 32.4504H26.875V37.8254H32.25V32.4504Z" fill="#7F9BFF"/>
<path d="M32.25 37.8254H26.875V43.2004H32.25V37.8254Z" fill="#7F9BFF"/>
<path d="M43 5.57544H37.625V10.9504H43V5.57544Z" fill="#95ACFA"/>
<path d="M43 10.9504H37.625V16.3254H43V10.9504Z" fill="#FF7D10"/>
<path d="M43 16.3254H37.625V21.7004H43V16.3254Z" fill="#95ACFA"/>
<path d="M43 21.7004H37.625V27.0754H43V21.7004Z" fill="#95ACFA"/>
<path d="M43 27.0754H37.625V32.4504H43V27.0754Z" fill="#7F9BFF"/>
<path d="M43 32.4504H37.625V37.8254H43V32.4504Z" fill="#FFBC10"/>
<path d="M43 37.8254H37.625V43.2004H43V37.8254Z" fill="#C6CDFF"/>
</g>
</g>
<defs>
<clipPath id="clip0_8949_30391">
<rect width="43" height="43" fill="white" transform="translate(0 0.200439)"/>
</clipPath>
</defs>
</svg>
