<svg width="23" height="23" viewBox="0 0 23 23" fill="none" xmlns="http://www.w3.org/2000/svg">
<path d="M7.27344 7.36363V4.56363C7.27344 3.44353 7.27344 2.88347 7.49142 2.45565C7.68317 2.07933 7.98913 1.77337 8.36546 1.58162C8.79328 1.36363 9.35333 1.36363 10.4734 1.36363H18.0734C19.1935 1.36363 19.7536 1.36363 20.1814 1.58162C20.5577 1.77337 20.8637 2.07933 21.0555 2.45565C21.2734 2.88347 21.2734 3.44353 21.2734 4.56363V12.1636C21.2734 13.2837 21.2734 13.8438 21.0555 14.2716C20.8637 14.6479 20.5577 14.9539 20.1814 15.1456C19.7536 15.3636 19.1935 15.3636 18.0734 15.3636H15.2734M4.47344 21.3636H12.0734C13.1935 21.3636 13.7536 21.3636 14.1814 21.1456C14.5577 20.9539 14.8637 20.6479 15.0555 20.2716C15.2734 19.8438 15.2734 19.2837 15.2734 18.1636V10.5636C15.2734 9.44353 15.2734 8.88347 15.0555 8.45565C14.8637 8.07933 14.5577 7.77337 14.1814 7.58162C13.7536 7.36363 13.1935 7.36363 12.0734 7.36363H4.47344C3.35333 7.36363 2.79328 7.36363 2.36546 7.58162C1.98913 7.77337 1.68317 8.07933 1.49142 8.45565C1.27344 8.88347 1.27344 9.44353 1.27344 10.5636V18.1636C1.27344 19.2837 1.27344 19.8438 1.49142 20.2716C1.68317 20.6479 1.98913 20.9539 2.36546 21.1456C2.79328 21.3636 3.35333 21.3636 4.47344 21.3636Z" stroke="#565656" stroke-width="2" stroke-linecap="round" stroke-linejoin="round"/>
</svg>
