<svg width="27" height="28" viewBox="0 0 27 28" fill="none" xmlns="http://www.w3.org/2000/svg">
<path d="M9.11421 17.1858V19.4143M13.5714 12.7286V19.4143M18.0285 8.27147V19.4143M8.89136 23.8715H18.2514C20.1235 23.8715 21.0596 23.8715 21.7747 23.5071C22.4037 23.1866 22.9151 22.6752 23.2356 22.0462C23.5999 21.3312 23.5999 20.3951 23.5999 18.5229V9.1629C23.5999 7.29073 23.5999 6.35464 23.2356 5.63956C22.9151 5.01056 22.4037 4.49917 21.7747 4.17868C21.0596 3.81433 20.1235 3.81433 18.2514 3.81433H8.89136C7.01918 3.81433 6.08309 3.81433 5.36802 4.17868C4.73902 4.49917 4.22763 5.01056 3.90714 5.63956C3.54279 6.35464 3.54279 7.29073 3.54279 9.1629V18.5229C3.54279 20.3951 3.54279 21.3312 3.90714 22.0462C4.22763 22.6752 4.73902 23.1866 5.36802 23.5071C6.08309 23.8715 7.01918 23.8715 8.89136 23.8715Z" stroke="#667085" stroke-width="2.22857" stroke-linecap="round" stroke-linejoin="round"/>
</svg>
