<svg width="22" height="20" viewBox="0 0 22 20" fill="none" xmlns="http://www.w3.org/2000/svg">
<path d="M1.49954 7.20044H20.4995M8.99954 1.20044L6.99954 7.20044L10.9995 18.7004L14.9995 7.20044L12.9995 1.20044M11.6141 18.4629L20.5727 7.71259C20.7246 7.53039 20.8005 7.43929 20.8295 7.3376C20.8551 7.24795 20.8551 7.15293 20.8295 7.06327C20.8005 6.96158 20.7246 6.87049 20.5727 6.68829L16.2394 1.48829C16.1512 1.38248 16.1072 1.32958 16.0531 1.29155C16.0052 1.25785 15.9518 1.23282 15.8953 1.21761C15.8314 1.20044 15.7626 1.20044 15.6248 1.20044H6.37424C6.2365 1.20044 6.16764 1.20044 6.10382 1.21761C6.04728 1.23282 5.99385 1.25785 5.94596 1.29155C5.89192 1.32958 5.84783 1.38248 5.75966 1.48829L1.42633 6.68829C1.2745 6.87048 1.19858 6.96158 1.16957 7.06327C1.144 7.15293 1.144 7.24795 1.16957 7.3376C1.19858 7.43929 1.2745 7.53039 1.42633 7.71258L10.385 18.4629C10.596 18.7162 10.7015 18.8428 10.8279 18.889C10.9387 18.9295 11.0603 18.9295 11.1712 18.889C11.2975 18.8428 11.4031 18.7162 11.6141 18.4629Z" stroke="black" stroke-linecap="round" stroke-linejoin="round"/>
</svg>
