<svg width="21" height="17" viewBox="0 0 21 17" fill="none" xmlns="http://www.w3.org/2000/svg">
<path d="M18.1364 2.68994C18.1364 2.68994 15.9481 0.895941 13.3636 0.689941L13.1307 1.17794C15.4675 1.77694 16.5394 2.63544 17.6591 3.68994C15.7285 2.65744 13.8223 1.68994 10.5 1.68994C7.1777 1.68994 5.27148 2.65744 3.34091 3.68994C4.46059 2.63544 5.73586 1.68244 7.86927 1.17794L7.63636 0.689941C4.92498 0.958441 2.86364 2.68994 2.86364 2.68994C2.86364 2.68994 0.419523 6.40244 0 13.6899C2.46368 16.6664 6.20455 16.6899 6.20455 16.6899L6.9868 15.5974C5.65902 15.1139 4.15943 14.2504 2.86364 12.6899C4.40905 13.9149 6.74148 15.1899 10.5 15.1899C14.2585 15.1899 16.591 13.9149 18.1364 12.6899C16.8406 14.2504 15.341 15.1139 14.0132 15.5974L14.7955 16.6899C14.7955 16.6899 18.5363 16.6664 21 13.6899C20.5805 6.40244 18.1364 2.68994 18.1364 2.68994ZM7.39773 11.6899C6.47516 11.6899 5.72727 10.7944 5.72727 9.68994C5.72727 8.58544 6.47516 7.68994 7.39773 7.68994C8.3203 7.68994 9.06818 8.58544 9.06818 9.68994C9.06818 10.7944 8.3203 11.6899 7.39773 11.6899ZM13.6023 11.6899C12.6797 11.6899 11.9318 10.7944 11.9318 9.68994C11.9318 8.58544 12.6797 7.68994 13.6023 7.68994C14.5248 7.68994 15.2727 8.58544 15.2727 9.68994C15.2727 10.7944 14.5248 11.6899 13.6023 11.6899Z" fill="#15202B"/>
</svg>
