<svg width="25" height="25" viewBox="0 0 25 25" fill="none" xmlns="http://www.w3.org/2000/svg">
<g id="Social icon">
<g id="Group 1">
<path id="Vector" d="M10.0248 10.6479C9.34078 10.6479 8.80078 11.2479 8.80078 11.9799C8.80078 12.7119 9.35278 13.3119 10.0248 13.3119C10.7088 13.3119 11.2488 12.7119 11.2488 11.9799C11.2608 11.2479 10.7088 10.6479 10.0248 10.6479ZM14.4048 10.6479C13.7208 10.6479 13.1808 11.2479 13.1808 11.9799C13.1808 12.7119 13.7328 13.3119 14.4048 13.3119C15.0888 13.3119 15.6288 12.7119 15.6288 11.9799C15.6288 11.2479 15.0888 10.6479 14.4048 10.6479Z" fill="black"/>
<path id="Vector_2" d="M20.2373 0.580078H4.15727C2.80127 0.580078 1.69727 1.68408 1.69727 3.05208V19.2761C1.69727 20.6441 2.80127 21.7481 4.15727 21.7481H17.7653L17.1293 19.5281L18.6653 20.9561L20.1173 22.3001L22.6973 24.5801V3.05208C22.6973 1.68408 21.5933 0.580078 20.2373 0.580078ZM15.6053 16.2521C15.6053 16.2521 15.1733 15.7361 14.8133 15.2801C16.3853 14.8361 16.9853 13.8521 16.9853 13.8521C16.4933 14.1761 16.0253 14.4041 15.6053 14.5601C15.0053 14.8121 14.4293 14.9801 13.8653 15.0761C12.7133 15.2921 11.6573 15.2321 10.7573 15.0641C10.0733 14.9321 9.48527 14.7401 8.99327 14.5481C8.71727 14.4401 8.41727 14.3081 8.11727 14.1401C8.08127 14.1161 8.04527 14.1041 8.00927 14.0801C7.98527 14.0681 7.97327 14.0561 7.96127 14.0441C7.74527 13.9241 7.62527 13.8401 7.62527 13.8401C7.62527 13.8401 8.20127 14.8001 9.72527 15.2561C9.36527 15.7121 8.92127 16.2521 8.92127 16.2521C6.26927 16.1681 5.26127 14.4281 5.26127 14.4281C5.26127 10.5641 6.98927 7.43208 6.98927 7.43208C8.71727 6.13608 10.3613 6.17208 10.3613 6.17208L10.4813 6.31608C8.32127 6.94008 7.32527 7.88808 7.32527 7.88808C7.32527 7.88808 7.58927 7.74408 8.03327 7.54008C9.31727 6.97608 10.3373 6.82008 10.7573 6.78408C10.8293 6.77208 10.8893 6.76008 10.9613 6.76008C11.6933 6.66408 12.5213 6.64008 13.3853 6.73608C14.5253 6.86808 15.7493 7.20408 16.9973 7.88808C16.9973 7.88808 16.0493 6.98808 14.0093 6.36408L14.1773 6.17208C14.1773 6.17208 15.8213 6.13608 17.5493 7.43208C17.5493 7.43208 19.2773 10.5641 19.2773 14.4281C19.2773 14.4281 18.2573 16.1681 15.6053 16.2521Z" fill="black"/>
</g>
</g>
</svg>
