<svg width="20" height="20" viewBox="0 0 20 20" fill="none" xmlns="http://www.w3.org/2000/svg">
<path d="M8.2579 8.46228C7.71349 8.46228 7.28369 8.93983 7.28369 9.52244C7.28369 10.1051 7.72304 10.5826 8.2579 10.5826C8.8023 10.5826 9.2321 10.1051 9.2321 9.52244C9.24165 8.93983 8.8023 8.46228 8.2579 8.46228ZM11.744 8.46228C11.1996 8.46228 10.7698 8.93983 10.7698 9.52244C10.7698 10.1051 11.2092 10.5826 11.744 10.5826C12.2884 10.5826 12.7182 10.1051 12.7182 9.52244C12.7182 8.93983 12.2884 8.46228 11.744 8.46228Z" fill="#2E2E2E"/>
<path d="M16.3857 0.448975H3.58735C2.50809 0.448975 1.62939 1.32767 1.62939 2.41648V15.3295C1.62939 16.4183 2.50809 17.297 3.58735 17.297H14.4182L13.912 15.53L15.1345 16.6666L16.2902 17.7363L18.3437 19.551V2.41648C18.3437 1.32767 17.465 0.448975 16.3857 0.448975ZM12.699 12.9226C12.699 12.9226 12.3552 12.5119 12.0687 12.149C13.3198 11.7956 13.7974 11.0124 13.7974 11.0124C13.4058 11.2703 13.0333 11.4517 12.699 11.5759C12.2215 11.7765 11.763 11.9102 11.3141 11.9866C10.3972 12.1585 9.55674 12.1108 8.84041 11.9771C8.29601 11.872 7.82801 11.7192 7.43642 11.5664C7.21674 11.4804 6.97797 11.3753 6.73919 11.2416C6.71054 11.2225 6.68188 11.213 6.65323 11.1939C6.63413 11.1843 6.62458 11.1748 6.61503 11.1652C6.44311 11.0697 6.3476 11.0029 6.3476 11.0029C6.3476 11.0029 6.80605 11.7669 8.01903 12.1299C7.7325 12.4928 7.37911 12.9226 7.37911 12.9226C5.26833 12.8558 4.46605 11.4709 4.46605 11.4709C4.46605 8.39542 5.84139 5.90261 5.84139 5.90261C7.21674 4.8711 8.52523 4.89975 8.52523 4.89975L8.62074 5.01436C6.90156 5.51102 6.10882 6.26555 6.10882 6.26555C6.10882 6.26555 6.31895 6.15093 6.67233 5.98857C7.69429 5.53967 8.50613 5.4155 8.84041 5.38685C8.89772 5.3773 8.94548 5.36775 9.00278 5.36775C9.58539 5.29134 10.2444 5.27224 10.9321 5.34865C11.8394 5.45371 12.8136 5.72114 13.8069 6.26555C13.8069 6.26555 13.0524 5.54922 11.4287 5.05257L11.5625 4.89975C11.5625 4.89975 12.8709 4.8711 14.2463 5.90261C14.2463 5.90261 15.6216 8.39542 15.6216 11.4709C15.6216 11.4709 14.8098 12.8558 12.699 12.9226Z" fill="#2E2E2E"/>
</svg>
