<svg width="25" height="25" viewBox="0 0 25 25" fill="none" xmlns="http://www.w3.org/2000/svg">
<path d="M14.2 11.2676H8.2M10.2 15.2676H8.2M16.2 7.26758H8.2M20.2 10.7676V7.06758C20.2 5.38742 20.2 4.54734 19.873 3.90561C19.5854 3.34112 19.1265 2.88218 18.562 2.59456C17.9202 2.26758 17.0802 2.26758 15.4 2.26758H9C7.31984 2.26758 6.47976 2.26758 5.83803 2.59456C5.27354 2.88218 4.8146 3.34112 4.52698 3.90561C4.2 4.54734 4.2 5.38742 4.2 7.06758V17.4676C4.2 19.1477 4.2 19.9878 4.52698 20.6295C4.8146 21.194 5.27354 21.653 5.83803 21.9406C6.47976 22.2676 7.31984 22.2676 9 22.2676H11.7M22.2 22.2676L20.7 20.7676M21.7 18.2676C21.7 20.2006 20.133 21.7676 18.2 21.7676C16.267 21.7676 14.7 20.2006 14.7 18.2676C14.7 16.3346 16.267 14.7676 18.2 14.7676C20.133 14.7676 21.7 16.3346 21.7 18.2676Z" stroke="#667085" stroke-width="2" stroke-linecap="round" stroke-linejoin="round"/>
</svg>
