<svg width="24" height="25" viewBox="0 0 24 25" fill="none" xmlns="http://www.w3.org/2000/svg">
<g id="file-05">
<path id="Icon" d="M14 2.66699V6.79753C14 7.35758 14 7.63761 14.109 7.85152C14.2049 8.03968 14.3578 8.19267 14.546 8.28854C14.7599 8.39753 15.0399 8.39753 15.6 8.39753H19.7305M14 17.3975H8M16 13.3975H8M20 10.3857V17.5975C20 19.2776 20 20.1177 19.673 20.7594C19.3854 21.3239 18.9265 21.7829 18.362 22.0705C17.7202 22.3975 16.8802 22.3975 15.2 22.3975H8.8C7.11984 22.3975 6.27976 22.3975 5.63803 22.0705C5.07354 21.7829 4.6146 21.3239 4.32698 20.7594C4 20.1177 4 19.2776 4 17.5975V7.19746C4 5.5173 4 4.67722 4.32698 4.03549C4.6146 3.471 5.07354 3.01206 5.63803 2.72444C6.27976 2.39746 7.11984 2.39746 8.8 2.39746H12.0118C12.7455 2.39746 13.1124 2.39746 13.4577 2.48035C13.7638 2.55384 14.0564 2.67505 14.3249 2.83954C14.6276 3.02507 14.887 3.28449 15.4059 3.80335L18.5941 6.99157C19.113 7.51043 19.3724 7.76986 19.5579 8.07261C19.7224 8.34102 19.8436 8.63366 19.9171 8.93977C20 9.28503 20 9.65191 20 10.3857Z" stroke="#475467" stroke-width="2" stroke-linecap="round" stroke-linejoin="round"/>
</g>
</svg>
