<svg width="22" height="22" viewBox="0 0 22 22" fill="none" xmlns="http://www.w3.org/2000/svg">
<g id="file-05">
<path id="Icon" d="M13.2042 2.16596V5.79436C13.2042 6.28633 13.2042 6.53231 13.3 6.72022C13.3842 6.88551 13.5186 7.01989 13.6839 7.10411C13.8718 7.19985 14.1178 7.19985 14.6097 7.19985H18.2381M13.2042 15.1057H7.93365M14.9611 11.5919H7.93365M18.4748 8.94631V15.2814C18.4748 16.7573 18.4748 17.4952 18.1876 18.0589C17.9349 18.5548 17.5318 18.9579 17.0359 19.2106C16.4722 19.4978 15.7343 19.4978 14.2584 19.4978H8.63639C7.16049 19.4978 6.42254 19.4978 5.85882 19.2106C5.36296 18.9579 4.95981 18.5548 4.70715 18.0589C4.41992 17.4952 4.41992 16.7573 4.41992 15.2814V6.14567C4.41992 4.66977 4.41992 3.93182 4.70715 3.36809C4.95981 2.87223 5.36296 2.46908 5.85882 2.21643C6.42254 1.9292 7.16049 1.9292 8.63639 1.9292H11.4577C12.1023 1.9292 12.4246 1.9292 12.7279 2.00201C12.9968 2.06657 13.2538 2.17305 13.4896 2.31754C13.7555 2.48051 13.9834 2.7084 14.4392 3.16417L17.2398 5.96481C17.6956 6.42059 17.9235 6.64848 18.0865 6.91443C18.231 7.15021 18.3375 7.40727 18.402 7.67617C18.4748 7.97945 18.4748 8.30174 18.4748 8.94631Z" stroke="black" stroke-linecap="round" stroke-linejoin="round"/>
</g>
</svg>
