<svg width="35" height="35" viewBox="0 0 35 35" fill="none" xmlns="http://www.w3.org/2000/svg">
<path d="M17.5544 9.24743C18.3177 9.24743 18.9364 8.62868 18.9364 7.86541C18.9364 7.10215 18.3177 6.4834 17.5544 6.4834C16.7912 6.4834 16.1724 7.10215 16.1724 7.86541C16.1724 8.62868 16.7912 9.24743 17.5544 9.24743Z" stroke="black" stroke-width="2.76403" stroke-linecap="round" stroke-linejoin="round"/>
<path d="M17.5544 18.9215C18.3177 18.9215 18.9364 18.3028 18.9364 17.5395C18.9364 16.7763 18.3177 16.1575 17.5544 16.1575C16.7912 16.1575 16.1724 16.7763 16.1724 17.5395C16.1724 18.3028 16.7912 18.9215 17.5544 18.9215Z" stroke="black" stroke-width="2.76403" stroke-linecap="round" stroke-linejoin="round"/>
<path d="M17.5544 28.5957C18.3177 28.5957 18.9364 27.9769 18.9364 27.2136C18.9364 26.4504 18.3177 25.8316 17.5544 25.8316C16.7912 25.8316 16.1724 26.4504 16.1724 27.2136C16.1724 27.9769 16.7912 28.5957 17.5544 28.5957Z" stroke="black" stroke-width="2.76403" stroke-linecap="round" stroke-linejoin="round"/>
<path d="M27.2285 9.24743C27.9918 9.24743 28.6106 8.62868 28.6106 7.86541C28.6106 7.10215 27.9918 6.4834 27.2285 6.4834C26.4653 6.4834 25.8465 7.10215 25.8465 7.86541C25.8465 8.62868 26.4653 9.24743 27.2285 9.24743Z" stroke="black" stroke-width="2.76403" stroke-linecap="round" stroke-linejoin="round"/>
<path d="M27.2285 18.9215C27.9918 18.9215 28.6106 18.3028 28.6106 17.5395C28.6106 16.7763 27.9918 16.1575 27.2285 16.1575C26.4653 16.1575 25.8465 16.7763 25.8465 17.5395C25.8465 18.3028 26.4653 18.9215 27.2285 18.9215Z" stroke="black" stroke-width="2.76403" stroke-linecap="round" stroke-linejoin="round"/>
<path d="M27.2285 28.5957C27.9918 28.5957 28.6106 27.9769 28.6106 27.2136C28.6106 26.4504 27.9918 25.8316 27.2285 25.8316C26.4653 25.8316 25.8465 26.4504 25.8465 27.2136C25.8465 27.9769 26.4653 28.5957 27.2285 28.5957Z" stroke="black" stroke-width="2.76403" stroke-linecap="round" stroke-linejoin="round"/>
<path d="M7.88031 9.24743C8.64357 9.24743 9.26232 8.62868 9.26232 7.86541C9.26232 7.10215 8.64357 6.4834 7.88031 6.4834C7.11704 6.4834 6.49829 7.10215 6.49829 7.86541C6.49829 8.62868 7.11704 9.24743 7.88031 9.24743Z" stroke="black" stroke-width="2.76403" stroke-linecap="round" stroke-linejoin="round"/>
<path d="M7.88031 18.9215C8.64357 18.9215 9.26232 18.3028 9.26232 17.5395C9.26232 16.7763 8.64357 16.1575 7.88031 16.1575C7.11704 16.1575 6.49829 16.7763 6.49829 17.5395C6.49829 18.3028 7.11704 18.9215 7.88031 18.9215Z" stroke="black" stroke-width="2.76403" stroke-linecap="round" stroke-linejoin="round"/>
<path d="M7.88031 28.5957C8.64357 28.5957 9.26232 27.9769 9.26232 27.2136C9.26232 26.4504 8.64357 25.8316 7.88031 25.8316C7.11704 25.8316 6.49829 26.4504 6.49829 27.2136C6.49829 27.9769 7.11704 28.5957 7.88031 28.5957Z" stroke="black" stroke-width="2.76403" stroke-linecap="round" stroke-linejoin="round"/>
</svg>
