<svg width="15" height="15" viewBox="0 0 15 15" fill="none" xmlns="http://www.w3.org/2000/svg">
<path d="M7.5 15C11.6563 15 15 11.6563 15 7.5C15 3.34373 11.6563 0 7.5 0C3.34373 0 0 3.34373 0 7.5C0 11.6563 3.34373 15 7.5 15Z" fill="#CCCFFF"/>
<path d="M7.43732 2V6.06626L10.8742 7.602L7.43732 2Z" fill="#313131"/>
<path d="M7.4373 2L4 7.602L7.4373 6.06626V2Z" fill="#8D8D8D"/>
<path d="M7.43732 10.237V13L10.8765 8.24194L7.43732 10.237Z" fill="#313131"/>
<path d="M7.4373 13V10.2366L4 8.24194L7.4373 13Z" fill="#8D8D8D"/>
<path d="M7.43732 9.59738L10.8742 7.60184L7.43732 6.06702V9.59738Z" fill="#0C0C0C"/>
<path d="M4 7.60184L7.4373 9.59738V6.06702L4 7.60184Z" fill="#363636"/>
</svg>
