<svg width="22" height="22" viewBox="0 0 22 22" fill="none" xmlns="http://www.w3.org/2000/svg">
<path d="M15.8405 13.0826V10.4424C15.8405 10.2847 15.8405 10.2059 15.8165 10.1363C15.7953 10.0748 15.7607 10.0187 15.7151 9.9722C15.6636 9.9196 15.5931 9.88435 15.4521 9.81384L11.4484 7.81199M4.42093 8.69043V14.6696C4.42093 14.9963 4.42093 15.1596 4.47189 15.3026C4.51695 15.4291 4.59038 15.5435 4.68654 15.6372C4.79533 15.7431 4.94383 15.8111 5.24081 15.9473L10.8628 18.524C11.0782 18.6227 11.1859 18.6721 11.2981 18.6916C11.3975 18.7088 11.4992 18.7088 11.5986 18.6916C11.7108 18.6721 11.8186 18.6227 12.034 18.524L17.6559 15.9473C17.9529 15.8111 18.1014 15.7431 18.2102 15.6372C18.3064 15.5435 18.3798 15.4291 18.4249 15.3026C18.4758 15.1596 18.4758 14.9963 18.4758 14.6696V8.69043M2.66406 7.81199L11.1341 3.57698C11.2493 3.51936 11.307 3.49055 11.3674 3.47921C11.4209 3.46917 11.4758 3.46917 11.5294 3.47921C11.5898 3.49055 11.6474 3.51936 11.7627 3.57698L20.2327 7.81199L11.7627 12.047C11.6474 12.1046 11.5898 12.1334 11.5294 12.1448C11.4758 12.1548 11.4209 12.1548 11.3674 12.1448C11.307 12.1334 11.2493 12.1046 11.1341 12.047L2.66406 7.81199Z" stroke="black" stroke-linecap="round" stroke-linejoin="round"/>
</svg>
