<svg width="25" height="24" viewBox="0 0 25 24" fill="none" xmlns="http://www.w3.org/2000/svg">
<path d="M17.5 14.4996V11.494C17.5 11.3145 17.5 11.2248 17.4727 11.1456C17.4485 11.0755 17.4091 11.0117 17.3572 10.9587C17.2986 10.8989 17.2183 10.8587 17.0578 10.7785L12.5 8.49958M4.5 9.49958V16.3062C4.5 16.6781 4.5 16.8641 4.55802 17.0269C4.60931 17.1708 4.6929 17.3011 4.80238 17.4077C4.92622 17.5283 5.09527 17.6057 5.43335 17.7607L11.8334 20.694C12.0786 20.8064 12.2012 20.8626 12.3289 20.8848C12.4421 20.9045 12.5579 20.9045 12.6711 20.8848C12.7988 20.8626 12.9214 20.8064 13.1666 20.694L19.5666 17.7607C19.9047 17.6057 20.0738 17.5283 20.1976 17.4077C20.3071 17.3011 20.3907 17.1708 20.442 17.0269C20.5 16.8641 20.5 16.6781 20.5 16.3062V9.49958M2.5 8.49958L12.1422 3.67846C12.2734 3.61287 12.339 3.58008 12.4078 3.56717C12.4687 3.55574 12.5313 3.55574 12.5922 3.56717C12.661 3.58008 12.7266 3.61287 12.8578 3.67846L22.5 8.49958L12.8578 13.3207C12.7266 13.3863 12.661 13.4191 12.5922 13.432C12.5313 13.4434 12.4687 13.4434 12.4078 13.432C12.339 13.4191 12.2734 13.3863 12.1422 13.3207L2.5 8.49958Z" stroke="#15202B" stroke-width="2" stroke-linecap="round" stroke-linejoin="round"/>
</svg>
