<svg width="29" height="29" viewBox="0 0 29 29" fill="none" xmlns="http://www.w3.org/2000/svg">
<path d="M6.04158 15.6287C6.04158 11.7399 9.19408 8.5874 13.0829 8.5874M6.04158 15.6287C6.04158 17.5632 6.82167 19.3155 8.08443 20.5881C8.20621 20.7109 8.26711 20.7722 8.30305 20.8312C8.33735 20.8875 8.35731 20.936 8.37263 21.0001C8.38868 21.0674 8.38868 21.1438 8.38868 21.2968V24.0783C8.38868 24.4069 8.38868 24.5713 8.45264 24.6968C8.50889 24.8072 8.59866 24.8969 8.70907 24.9532C8.83459 25.0172 8.9989 25.0172 9.32753 25.0172H11.5573C11.8859 25.0172 12.0502 25.0172 12.1757 24.9532C12.2861 24.8969 12.3759 24.8072 12.4322 24.6968C12.4961 24.5713 12.4961 24.4069 12.4961 24.0783V23.6089C12.4961 23.2803 12.4961 23.116 12.5601 22.9904C12.6163 22.88 12.7061 22.7903 12.8165 22.734C12.942 22.67 13.1063 22.67 13.435 22.67H15.0779C15.4066 22.67 15.5709 22.67 15.6964 22.734C15.8068 22.7903 15.8966 22.88 15.9528 22.9904C16.0168 23.116 16.0168 23.2803 16.0168 23.6089V24.0783C16.0168 24.4069 16.0168 24.5713 16.0807 24.6968C16.137 24.8072 16.2268 24.8969 16.3372 24.9532C16.4627 25.0172 16.627 25.0172 16.9556 25.0172H19.1855C19.5141 25.0172 19.6784 25.0172 19.8039 24.9532C19.9143 24.8969 20.0041 24.8072 20.0603 24.6968C20.1243 24.5713 20.1243 24.4069 20.1243 24.0783V22.9333C20.1243 22.6962 20.1243 22.5776 20.1581 22.4824C20.1904 22.3912 20.2312 22.3274 20.3003 22.2596C20.3724 22.1889 20.4946 22.1322 20.7389 22.0188C21.8916 21.4836 22.8752 20.6457 23.5876 19.6073C23.7129 19.4247 23.7755 19.3334 23.8424 19.2794C23.9064 19.2278 23.9638 19.1976 24.0425 19.174C24.1248 19.1494 24.2226 19.1494 24.418 19.1494H25.0532C25.3819 19.1494 25.5462 19.1494 25.6717 19.0854C25.7821 19.0292 25.8719 18.9394 25.9281 18.829C25.9921 18.7035 25.9921 18.5392 25.9921 18.2105V14.2037C25.9921 13.8909 25.9921 13.7344 25.9339 13.6138C25.8763 13.494 25.7797 13.3974 25.6599 13.3397C25.5392 13.2816 25.3828 13.2816 25.07 13.2816C24.8435 13.2816 24.7303 13.2816 24.6391 13.2509C24.5407 13.2177 24.4718 13.1736 24.4004 13.0983C24.3343 13.0284 24.2802 12.9115 24.1722 12.6778C23.8255 11.9276 23.3506 11.2488 22.7757 10.6693C22.6539 10.5466 22.593 10.4852 22.557 10.4262C22.5227 10.3699 22.5028 10.3214 22.4875 10.2573C22.4714 10.1901 22.4714 10.1136 22.4714 9.96067V8.6585C22.4714 8.23596 22.4714 8.0247 22.3834 7.88269C22.3063 7.7583 22.1856 7.66719 22.0448 7.62725C21.8841 7.58166 21.6809 7.6397 21.2747 7.75577L18.4903 8.55128C18.443 8.5648 18.4193 8.57156 18.3953 8.5763C18.3739 8.58052 18.3523 8.58354 18.3306 8.58536C18.3062 8.5874 18.2814 8.5874 18.2318 8.5874H13.0829M6.04158 15.6287H4.8681C3.57183 15.6287 2.521 14.5779 2.521 13.2816C2.521 12.4129 2.993 11.6543 3.69455 11.2485M13.0829 8.5874H17.7356C17.763 8.39576 17.7772 8.19985 17.7772 8.00063C17.7772 5.73215 15.9382 3.89319 13.6698 3.89319C11.4013 3.89319 9.56232 5.73215 9.56232 8.00063C9.56232 8.49024 9.64798 8.95984 9.80514 9.39526C10.7842 8.87939 11.8994 8.5874 13.0829 8.5874Z" stroke="#475467" stroke-width="2.34711" stroke-linecap="round" stroke-linejoin="round"/>
</svg>
