<svg width="27" height="28" viewBox="0 0 27 28" fill="none" xmlns="http://www.w3.org/2000/svg">
<path d="M10.3804 10.5051L5.69221 5.81692M5.69221 21.5753L10.4157 16.8518M16.7594 16.8871L21.4476 21.5753M21.4476 5.81692L16.7234 10.5411M24.7143 13.6961C24.7143 19.8501 19.7254 24.8389 13.5714 24.8389C7.41737 24.8389 2.42854 19.8501 2.42854 13.6961C2.42854 7.54205 7.41737 2.55322 13.5714 2.55322C19.7254 2.55322 24.7143 7.54205 24.7143 13.6961ZM18.0285 13.6961C18.0285 16.1577 16.033 18.1532 13.5714 18.1532C11.1098 18.1532 9.11426 16.1577 9.11426 13.6961C9.11426 11.2345 11.1098 9.23894 13.5714 9.23894C16.033 9.23894 18.0285 11.2345 18.0285 13.6961Z" stroke="#667085" stroke-width="2.22857" stroke-linecap="round" stroke-linejoin="round"/>
</svg>
