<svg width="24" height="25" viewBox="0 0 24 25" fill="none" xmlns="http://www.w3.org/2000/svg">
<g id="graduation-hat-02">
<path id="Icon" d="M17 15.2935V12.2879C17 12.1085 17 12.0187 16.9727 11.9395C16.9485 11.8694 16.9091 11.8056 16.8572 11.7527C16.7986 11.6928 16.7183 11.6527 16.5578 11.5724L12 9.29352M4 10.2935V17.1001C4 17.472 4 17.658 4.05802 17.8208C4.10931 17.9648 4.1929 18.095 4.30238 18.2016C4.42622 18.3222 4.59527 18.3997 4.93335 18.5546L11.3334 21.488C11.5786 21.6004 11.7012 21.6566 11.8289 21.6788C11.9421 21.6984 12.0579 21.6984 12.1711 21.6788C12.2988 21.6566 12.4214 21.6004 12.6666 21.488L19.0666 18.5546C19.4047 18.3997 19.5738 18.3222 19.6976 18.2016C19.8071 18.095 19.8907 17.9648 19.942 17.8208C20 17.658 20 17.472 20 17.1001V10.2935M2 9.29352L11.6422 4.47241C11.7734 4.40682 11.839 4.37402 11.9078 4.36111C11.9687 4.34968 12.0313 4.34968 12.0922 4.36111C12.161 4.37402 12.2266 4.40682 12.3578 4.47241L22 9.29352L12.3578 14.1146C12.2266 14.1802 12.161 14.213 12.0922 14.2259C12.0313 14.2374 11.9687 14.2374 11.9078 14.2259C11.839 14.213 11.7734 14.1802 11.6422 14.1146L2 9.29352Z" stroke="#475467" stroke-width="2" stroke-linecap="round" stroke-linejoin="round"/>
</g>
</svg>
