<svg width="27" height="27" viewBox="0 0 27 27" fill="none" xmlns="http://www.w3.org/2000/svg">
<path d="M11.8228 3.88538C11.7914 3.889 11.7566 3.89263 11.7252 3.89988H6.52151C5.54495 3.89988 4.73581 4.7414 4.73581 5.75703V12.0394C3.10704 13.4032 2.05724 15.4925 2.05724 17.8285C2.05376 18.0896 2.15839 18.3399 2.33975 18.5213C2.5246 18.699 2.77222 18.786 3.02334 18.7679C3.46279 21.9018 6.06462 24.3285 9.20008 24.3285C12.3355 24.3285 14.9374 21.9018 15.3768 18.7679C15.4501 18.7715 15.5198 18.7679 15.5896 18.757H18.6274C18.3204 19.3047 18.1286 19.9359 18.1286 20.6142C18.1286 22.6563 19.7365 24.3285 21.7 24.3285C23.6636 24.3285 25.2714 22.6563 25.2714 20.6142C25.2714 19.3918 24.6855 18.3073 23.7996 17.629L25.2331 12.5254L25.2366 12.5037C25.2401 12.4964 25.2435 12.4892 25.2435 12.4783C25.261 12.4057 25.2714 12.3332 25.2714 12.257C25.2714 11.7456 24.8704 11.3285 24.3786 11.3285H19.9143V6.6856H20.8072V4.82846H19.0215C18.5297 4.82846 18.1286 5.24559 18.1286 5.75703V11.3285H14.3619L13.0226 5.75703H13.6643C13.9852 5.76065 14.2852 5.58655 14.4491 5.29637C14.6095 5.00619 14.6095 4.65072 14.4491 4.36054C14.2852 4.07037 13.9852 3.89626 13.6643 3.89988H12.0181C11.9833 3.89263 11.9484 3.889 11.91 3.88538C11.8821 3.88538 11.8507 3.88538 11.8228 3.88538ZM6.52151 5.75703H11.1811L12.5029 11.2523C11.5124 10.7118 10.3894 10.3999 9.20008 10.3999C8.25491 10.3999 7.3481 10.5958 6.52151 10.9476V5.75703ZM9.20008 13.1856C11.6763 13.1856 13.6643 15.2531 13.6643 17.8285C13.6643 20.4038 11.6763 22.4713 9.20008 22.4713C6.7238 22.4713 4.73581 20.4038 4.73581 17.8285C4.73581 15.2531 6.7238 13.1856 9.20008 13.1856ZM9.20008 15.9713C8.21305 15.9713 7.41437 16.8019 7.41437 17.8285C7.41437 18.855 8.21305 19.6856 9.20008 19.6856C10.1871 19.6856 10.9858 18.855 10.9858 17.8285C10.9858 16.8019 10.1871 15.9713 9.20008 15.9713ZM21.7 18.757C22.6975 18.757 23.4857 19.5768 23.4857 20.6142C23.4857 21.6516 22.6975 22.4713 21.7 22.4713C20.7025 22.4713 19.9143 21.6516 19.9143 20.6142C19.9143 19.5768 20.7025 18.757 21.7 18.757Z" fill="#667085"/>
</svg>
