<svg width="25" height="25" viewBox="0 0 25 25" fill="none" xmlns="http://www.w3.org/2000/svg">
<g id="file-search-02">
<path id="Icon" d="M14.1367 11.6201H8.13672M10.1367 15.6201H8.13672M16.1367 7.62012H8.13672M20.1367 11.1201V7.42012C20.1367 5.73996 20.1367 4.89988 19.8097 4.25815C19.5221 3.69366 19.0632 3.23472 18.4987 2.9471C17.857 2.62012 17.0169 2.62012 15.3367 2.62012H8.93672C7.25656 2.62012 6.41648 2.62012 5.77475 2.9471C5.21026 3.23472 4.75132 3.69366 4.4637 4.25815C4.13672 4.89988 4.13672 5.73996 4.13672 7.42012V17.8201C4.13672 19.5003 4.13672 20.3404 4.4637 20.9821C4.75132 21.5466 5.21026 22.0055 5.77475 22.2931C6.41648 22.6201 7.25656 22.6201 8.93672 22.6201H11.6367M22.1367 22.6201L20.6367 21.1201M21.6367 18.6201C21.6367 20.5531 20.0697 22.1201 18.1367 22.1201C16.2037 22.1201 14.6367 20.5531 14.6367 18.6201C14.6367 16.6871 16.2037 15.1201 18.1367 15.1201C20.0697 15.1201 21.6367 16.6871 21.6367 18.6201Z" stroke="black" stroke-width="1.5" stroke-linecap="round" stroke-linejoin="round"/>
</g>
</svg>
