<svg width="24" height="24" viewBox="0 0 24 24" fill="none" xmlns="http://www.w3.org/2000/svg">
<g clip-path="url(#clip0_205_13063)">
<path d="M18.3529 0H0V12.7059H18.3529V0ZM14.1176 1.41176V11.2941H4.23529V1.41176H14.1176ZM1.41176 1.41176H2.82353V11.2941H1.41176V1.41176ZM16.9412 11.2941H15.5294V1.41176H16.9412V11.2941Z" fill="#888E8F"/>
<path d="M7.76468 7.05903C7.76468 8.61593 9.03131 9.88256 10.5882 9.88256H12.7058V8.4708C12.7058 7.62811 12.3342 6.87098 11.7469 6.35315C12.3342 5.8354 12.7058 5.07823 12.7058 4.2355V2.82373H10.5882C9.03131 2.82373 7.76468 4.09037 7.76468 5.64726H5.64703V7.05903H7.76468ZM11.2941 8.4708H10.5882C9.80975 8.4708 9.17644 7.83752 9.17644 7.05903H9.88232C10.6608 7.05903 11.2941 7.69239 11.2941 8.4708ZM10.5882 4.2355H11.2941C11.2941 5.01399 10.6608 5.64726 9.88232 5.64726H9.17644C9.17644 4.86886 9.80975 4.2355 10.5882 4.2355Z" fill="#888E8F"/>
<path d="M0 24.0002H24V16.9414H0V24.0002ZM1.41176 18.3532H22.5882V22.5885H1.41176V18.3532Z" fill="#888E8F"/>
<path d="M2.82373 19.7646H4.23549V21.1764H2.82373V19.7646Z" fill="#888E8F"/>
<path d="M5.64703 19.7646H7.0588V21.1764H5.64703V19.7646Z" fill="#888E8F"/>
<path d="M8.4707 19.7646H9.88247V21.1764H8.4707V19.7646Z" fill="#888E8F"/>
<path d="M11.2939 19.7646H12.7057V21.1764H11.2939V19.7646Z" fill="#888E8F"/>
<path d="M14.1177 19.7646H15.5294V21.1764H14.1177V19.7646Z" fill="#888E8F"/>
<path d="M16.9414 19.7646H18.3532V21.1764H16.9414V19.7646Z" fill="#888E8F"/>
<path d="M19.7647 19.7646H21.1765V21.1764H19.7647V19.7646Z" fill="#888E8F"/>
<path d="M19.7647 7.76465H21.1765V9.17642H19.7647V7.76465Z" fill="#888E8F"/>
<path d="M22.5884 9.88232H24.0001V11.2941H22.5884V9.88232Z" fill="#888E8F"/>
<path d="M22.5884 13.4116H24.0001V14.8234H22.5884V13.4116Z" fill="#888E8F"/>
<path d="M19.7647 11.2939H21.1765V12.7057H19.7647V11.2939Z" fill="#888E8F"/>
<path d="M18.353 14.1177H19.7647V15.5294H18.353V14.1177Z" fill="#888E8F"/>
</g>
<defs>
<clipPath id="clip0_205_13063">
<rect width="24" height="24" fill="white"/>
</clipPath>
</defs>
</svg>
