<svg width="29" height="29" viewBox="0 0 29 29" fill="none" xmlns="http://www.w3.org/2000/svg">
<g id="home-02">
<path id="Icon" d="M10.7357 24.9913V16.307C10.7357 15.6498 10.7357 15.3212 10.8636 15.0701C10.9761 14.8493 11.1556 14.6698 11.3764 14.5573C11.6275 14.4293 11.9561 14.4293 12.6133 14.4293H15.8993C16.5565 14.4293 16.8852 14.4293 17.1362 14.5573C17.357 14.6698 17.5366 14.8493 17.6491 15.0701C17.777 15.3212 17.777 15.6498 17.777 16.307V24.9913M13.1035 3.59042L5.14413 9.78107C4.61208 10.1949 4.34605 10.4018 4.1544 10.6609C3.98463 10.8905 3.85817 11.149 3.78121 11.424C3.69434 11.7343 3.69434 12.0713 3.69434 12.7454V21.236C3.69434 22.5505 3.69434 23.2077 3.95016 23.7098C4.17518 24.1514 4.53424 24.5105 4.97588 24.7355C5.47795 24.9913 6.1352 24.9913 7.44971 24.9913H21.0629C22.3774 24.9913 23.0347 24.9913 23.5368 24.7355C23.9784 24.5105 24.3375 24.1514 24.5625 23.7098C24.8183 23.2077 24.8183 22.5505 24.8183 21.236V12.7454C24.8183 12.0713 24.8183 11.7343 24.7314 11.424C24.6545 11.149 24.528 10.8905 24.3582 10.6609C24.1666 10.4018 23.9006 10.1949 23.3685 9.78107L15.4091 3.59042C14.9968 3.26975 14.7907 3.10941 14.563 3.04778C14.3622 2.99339 14.1505 2.99339 13.9496 3.04778C13.722 3.10941 13.5158 3.26975 13.1035 3.59042Z" stroke="#475467" stroke-width="2.34711" stroke-linecap="round" stroke-linejoin="round"/>
</g>
</svg>
