<svg width="22" height="22" viewBox="0 0 22 22" fill="none" xmlns="http://www.w3.org/2000/svg">
<path d="M7.00526 16.0204H14.0106M9.64774 3.55448L3.70874 8.1737C3.31174 8.48248 3.11324 8.63687 2.97024 8.83021C2.84356 9.00148 2.7492 9.19442 2.69178 9.39956C2.62695 9.63115 2.62695 9.88262 2.62695 10.3856V16.7209C2.62695 17.7017 2.62695 18.1922 2.81784 18.5668C2.98574 18.8963 3.25366 19.1642 3.58319 19.3321C3.95782 19.523 4.44824 19.523 5.42907 19.523H15.5867C16.5676 19.523 17.058 19.523 17.4326 19.3321C17.7622 19.1642 18.0301 18.8963 18.198 18.5668C18.3889 18.1922 18.3889 17.7017 18.3889 16.7209V10.3856C18.3889 9.88262 18.3889 9.63115 18.324 9.39956C18.2666 9.19442 18.1722 9.00148 18.0456 8.83021C17.9026 8.63687 17.7041 8.48248 17.3071 8.1737L11.3681 3.55448C11.0604 3.3152 10.9066 3.19556 10.7368 3.14957C10.5869 3.109 10.4289 3.109 10.2791 3.14957C10.1092 3.19556 9.95538 3.3152 9.64774 3.55448Z" stroke="#15202B" stroke-width="0.875661" stroke-linecap="round" stroke-linejoin="round"/>
</svg>
