<svg width="27" height="28" viewBox="0 0 27 28" fill="none" xmlns="http://www.w3.org/2000/svg">
<path d="M9.11423 19.8428H18.0285M12.4768 3.97987L4.91938 9.85787C4.4142 10.2508 4.1616 10.4473 3.97963 10.6933C3.81844 10.9112 3.69836 11.1567 3.62529 11.4178C3.5428 11.7125 3.5428 12.0325 3.5428 12.6725V20.7343C3.5428 21.9824 3.5428 22.6064 3.7857 23.0832C3.99936 23.5025 4.34029 23.8434 4.75962 24.0571C5.23634 24.3 5.8604 24.3 7.10851 24.3H20.0342C21.2823 24.3 21.9064 24.3 22.3831 24.0571C22.8025 23.8434 23.1434 23.5025 23.357 23.0832C23.5999 22.6064 23.5999 21.9824 23.5999 20.7343V12.6725C23.5999 12.0325 23.5999 11.7125 23.5175 11.4178C23.4444 11.1567 23.3243 10.9112 23.1631 10.6933C22.9811 10.4473 22.7285 10.2508 22.2234 9.85787L14.6659 3.97987C14.2745 3.67539 14.0787 3.52315 13.8626 3.46463C13.6719 3.41299 13.4709 3.41299 13.2802 3.46463C13.064 3.52315 12.8683 3.67539 12.4768 3.97987Z" stroke="#667085" stroke-width="2.22857" stroke-linecap="round" stroke-linejoin="round"/>
</svg>
