<svg width="29" height="29" viewBox="0 0 29 29" fill="none" xmlns="http://www.w3.org/2000/svg">
<path d="M10.7359 24.9912V16.3069C10.7359 15.6496 10.7359 15.321 10.8638 15.07C10.9763 14.8491 11.1559 14.6696 11.3767 14.5571C11.6277 14.4292 11.9563 14.4292 12.6136 14.4292H15.8995C16.5568 14.4292 16.8854 14.4292 17.1365 14.5571C17.3573 14.6696 17.5368 14.8491 17.6493 15.07C17.7772 15.321 17.7772 15.6496 17.7772 16.3069V24.9912M13.1038 3.59027L5.14438 9.78092C4.61232 10.1947 4.3463 10.4016 4.15464 10.6608C3.98488 10.8903 3.85841 11.1489 3.78146 11.4238C3.69458 11.7342 3.69458 12.0712 3.69458 12.7452V21.2358C3.69458 22.5503 3.69458 23.2076 3.9504 23.7096C4.17542 24.1513 4.53449 24.5103 4.97612 24.7354C5.4782 24.9912 6.13545 24.9912 7.44995 24.9912H21.0632C22.3777 24.9912 23.0349 24.9912 23.537 24.7354C23.9786 24.5103 24.3377 24.1513 24.5627 23.7096C24.8185 23.2076 24.8185 22.5503 24.8185 21.2358V12.7452C24.8185 12.0712 24.8185 11.7342 24.7317 11.4238C24.6547 11.1489 24.5282 10.8903 24.3585 10.6608C24.1668 10.4016 23.9008 10.1947 23.3688 9.78092L15.4094 3.59027C14.9971 3.2696 14.7909 3.10926 14.5633 3.04762C14.3624 2.99324 14.1507 2.99324 13.9499 3.04762C13.7222 3.10926 13.5161 3.26959 13.1038 3.59027Z" stroke="black" stroke-width="2.34711" stroke-linecap="round" stroke-linejoin="round"/>
</svg>
