<svg width="29" height="29" viewBox="0 0 29 29" fill="none" xmlns="http://www.w3.org/2000/svg">
<path d="M10.7357 24.9913V16.307C10.7357 15.6498 10.7357 15.3211 10.8636 15.0701C10.9761 14.8493 11.1556 14.6697 11.3764 14.5572C11.6275 14.4293 11.9561 14.4293 12.6133 14.4293H15.8993C16.5565 14.4293 16.8852 14.4293 17.1362 14.5572C17.357 14.6697 17.5366 14.8493 17.6491 15.0701C17.777 15.3211 17.777 15.6498 17.777 16.307V24.9913M13.1035 3.59039L5.14413 9.78104C4.61208 10.1949 4.34605 10.4018 4.1544 10.6609C3.98463 10.8904 3.85817 11.149 3.78121 11.4239C3.69434 11.7343 3.69434 12.0713 3.69434 12.7453V21.2359C3.69434 22.5504 3.69434 23.2077 3.95016 23.7098C4.17518 24.1514 4.53424 24.5105 4.97588 24.7355C5.47795 24.9913 6.1352 24.9913 7.44971 24.9913H21.0629C22.3774 24.9913 23.0347 24.9913 23.5368 24.7355C23.9784 24.5105 24.3375 24.1514 24.5625 23.7098C24.8183 23.2077 24.8183 22.5504 24.8183 21.2359V12.7453C24.8183 12.0713 24.8183 11.7343 24.7314 11.4239C24.6545 11.149 24.528 10.8904 24.3582 10.6609C24.1666 10.4018 23.9006 10.1949 23.3685 9.78104L15.4091 3.59039C14.9968 3.26972 14.7907 3.10938 14.563 3.04774C14.3622 2.99336 14.1505 2.99336 13.9496 3.04774C13.722 3.10938 13.5158 3.26972 13.1035 3.59039Z" stroke="#475467" stroke-width="2.34711" stroke-linecap="round" stroke-linejoin="round"/>
</svg>
