<svg width="23" height="24" viewBox="0 0 23 24" fill="none" xmlns="http://www.w3.org/2000/svg">
<path d="M7.66242 22.874V14.1897C7.66242 13.5324 7.66242 13.2038 7.79033 12.9528C7.90284 12.732 8.08237 12.5524 8.30319 12.4399C8.55422 12.312 8.88285 12.312 9.5401 12.312H12.8261C13.4833 12.312 13.8119 12.312 14.063 12.4399C14.2838 12.5524 14.4633 12.732 14.5758 12.9528C14.7037 13.2038 14.7037 13.5324 14.7037 14.1897V22.874M10.0303 1.47308L2.07089 7.66373C1.53884 8.07755 1.27281 8.28446 1.08116 8.54358C0.911391 8.77311 0.784924 9.03169 0.707969 9.30662C0.621094 9.61698 0.621094 9.954 0.621094 10.628V19.1186C0.621094 20.4331 0.621094 21.0904 0.876913 21.5924C1.10194 22.0341 1.461 22.3931 1.90264 22.6182C2.40471 22.874 3.06196 22.874 4.37647 22.874H17.9897C19.3042 22.874 19.9614 22.874 20.4635 22.6182C20.9052 22.3931 21.2642 22.0341 21.4892 21.5924C21.7451 21.0904 21.7451 20.4331 21.7451 19.1186V10.628C21.7451 9.954 21.7451 9.61698 21.6582 9.30662C21.5812 9.03169 21.4548 8.77311 21.285 8.54358C21.0933 8.28446 20.8273 8.07755 20.2953 7.66373L12.3359 1.47308C11.9236 1.15241 11.7174 0.992069 11.4898 0.930435C11.2889 0.876053 11.0772 0.876053 10.8764 0.930435C10.6487 0.992069 10.4426 1.15241 10.0303 1.47308Z" stroke="black" stroke-linecap="round" stroke-linejoin="round"/>
</svg>
