<svg width="52" height="52" viewBox="0 0 52 52" fill="none" xmlns="http://www.w3.org/2000/svg">
<rect width="52" height="52" rx="15" fill="#F6F6F6"/>
<g clip-path="url(#clip0_327_480140)">
<path d="M39.4183 30.1743C39.5234 30.2584 39.5925 30.3311 39.696 30.4175C39.7587 30.4697 39.7591 30.4697 39.8207 30.4127C39.8634 30.3729 39.9049 30.3313 39.9488 30.2923C40.1257 30.1333 40.3636 30.141 40.5283 30.3141C40.5939 30.3835 40.6557 30.4568 40.7134 30.5337C40.8558 30.7223 40.8416 30.9688 40.6808 31.1404C40.6357 31.1886 40.5878 31.2341 40.539 31.2781C40.4984 31.3146 40.497 31.3501 40.5259 31.3959C40.5853 31.4902 40.6429 31.5857 40.6987 31.6824C40.7695 31.8049 40.8325 31.9323 40.8923 32.061C40.9491 32.1836 40.9491 32.1828 41.0673 32.1433C41.1244 32.1223 41.1826 32.1049 41.2416 32.0911C41.4338 32.0518 41.616 32.1507 41.698 32.3411C41.7478 32.4585 41.7849 32.5814 41.8089 32.7076C41.8442 32.8876 41.7409 33.0872 41.5756 33.1758C41.5115 33.2099 41.4413 33.2247 41.3744 33.2502C41.2935 33.2811 41.2864 33.2872 41.2997 33.3713C41.3424 33.6363 41.3725 33.9026 41.3744 34.1718C41.3749 34.2306 41.3958 34.2641 41.4537 34.2692C41.5032 34.2735 41.5523 34.2833 41.6018 34.2887C41.7985 34.3104 41.9323 34.4146 41.9907 34.62C41.9957 34.6378 42.0086 35.0081 41.9914 35.1084C41.9536 35.3301 41.7913 35.488 41.5778 35.497C41.5317 35.4992 41.4855 35.4961 41.4401 35.4876C41.3559 35.4714 41.3002 35.509 41.2799 35.5953C41.2298 35.8078 41.1624 36.0141 41.0901 36.2188C41.0687 36.278 41.081 36.3299 41.1274 36.3714C41.1516 36.3933 41.2449 36.5 41.2599 36.5356C41.2945 36.6172 41.1449 36.4902 41.1104 36.469C41.0312 36.4206 40.0616 35.8514 39.7006 35.6471C39.7265 35.4442 39.8197 35.1847 39.8573 34.9845C40.0487 33.9651 39.8507 33.0351 39.2967 32.1861C38.8358 31.48 38.2049 31.0283 37.43 30.8043C36.748 30.607 36.072 30.6471 35.4088 30.9046C34.8601 31.1177 34.2594 31.467 33.9298 32.0171C33.892 32.0618 33.8742 32.0567 33.8144 32.0284C33.6082 31.919 32.7998 31.3593 32.4712 31.156C32.3255 31.0005 32.2292 30.7461 32.3386 30.5583C32.4166 30.4244 32.5215 30.3158 32.6341 30.2182C32.7922 30.0812 33.0216 30.0851 33.1894 30.2139C33.3978 30.3736 33.3976 30.3729 33.6001 30.2013C33.7057 30.1116 33.8184 30.032 33.9294 29.9501C34.0326 29.8739 34.0403 29.8432 33.9918 29.7237C33.8598 29.3979 33.9445 29.1503 34.2422 28.9892C34.3209 28.9447 34.4031 28.9077 34.4878 28.8785C34.715 28.8049 34.9244 28.8912 35.0479 29.1064C35.1767 29.3309 35.1761 29.3306 35.4185 29.2713C35.5467 29.2398 35.6766 29.2175 35.806 29.1924C35.9353 29.1673 35.955 29.1456 35.9623 29.0095C35.9653 28.9415 35.975 28.874 35.9913 28.8081C36.0255 28.6766 36.0874 28.5612 36.2156 28.5094C36.46 28.4103 36.7069 28.3913 36.9467 28.5215C37.0882 28.5983 37.1542 28.7303 37.1561 28.9014C37.1587 29.1578 37.1604 29.1599 37.3959 29.2005C37.5507 29.2272 37.7024 29.2669 37.8545 29.3051C37.97 29.3341 37.9998 29.3227 38.0449 29.2044C38.1587 28.9049 38.4418 28.7521 38.7758 28.9265C38.8706 28.976 38.9699 29.0121 39.0526 29.0919C39.2196 29.2527 39.2313 29.4903 39.1627 29.6635C39.1529 29.6879 39.1413 29.7112 39.1318 29.7358C39.0861 29.8561 39.0812 29.9265 39.0812 29.9265C39.0812 29.9265 39.3148 30.0912 39.4183 30.1743Z" fill="#5F5F5F"/>
<path d="M39.6468 35.5487C39.7439 35.6475 41.041 36.4019 41.1527 36.4731C41.186 36.4777 41.2117 36.5011 41.2417 36.514L41.2401 36.5129C41.2632 36.5351 41.2854 36.5585 41.3063 36.5831L41.3051 36.5815C41.4079 36.7344 41.4072 36.8974 41.3478 37.0662C41.3101 37.1559 41.2648 37.2418 41.2123 37.3226C41.0902 37.5181 40.8649 37.5795 40.6668 37.4734C40.6065 37.4411 40.5481 37.4052 40.4909 37.3666C40.4493 37.339 40.4207 37.3464 40.3915 37.3874C40.2328 37.6106 40.0563 37.819 39.8641 38.0101C39.8254 38.0485 39.8208 38.0822 39.8535 38.1267C39.891 38.177 39.9259 38.2296 39.9595 38.2829C40.0964 38.4987 40.0596 38.7478 39.866 38.9077C39.7986 38.9632 39.7298 39.0172 39.6583 39.0667C39.4661 39.1994 39.2407 39.162 39.0943 38.9743C39.0538 38.9216 39.0159 38.8667 38.9807 38.8099C38.9495 38.7601 38.9182 38.7488 38.866 38.7805C38.6462 38.9135 38.4141 39.0185 38.1771 39.1114C38.0909 39.1455 38.0917 39.1467 38.1085 39.2425C38.1145 39.2759 38.1192 39.3096 38.1253 39.3429C38.1804 39.6237 38.1175 39.7758 37.8865 39.9199C37.8268 39.9551 37.7583 39.9496 37.6943 39.9676C37.5828 39.996 37.47 39.9937 37.3563 39.9877H37.3558C37.3186 39.9682 37.2821 39.9471 37.2457 39.9259C37.1364 39.829 37.0876 39.7014 37.0593 39.5551C37.0209 39.357 37.0443 39.3891 36.8726 39.3977C36.6452 39.409 36.4175 39.408 36.1902 39.3946C36.1019 39.3894 36.1017 39.389 36.0814 39.4759C36.072 39.5164 36.0614 39.5566 36.0556 39.5977C36.0187 39.8572 35.8221 40.0521 35.5088 39.9886C35.4321 39.9729 35.3561 39.9519 35.2812 39.9284C35.0669 39.8615 34.943 39.6418 34.986 39.4083C34.9967 39.349 35.0097 39.2901 35.0206 39.2307C35.0353 39.1499 35.0344 39.1457 34.9581 39.1152C34.8116 39.0567 34.6657 38.9969 34.5247 38.9246C34.4414 38.8819 34.359 38.8373 34.2769 38.7922C34.1915 38.7455 34.192 38.7448 34.1323 38.8299C34.1003 38.8753 34.0704 38.9224 34.0371 38.9662C33.891 39.1609 33.6606 39.2018 33.4659 39.0656C33.3916 39.0137 33.3193 38.9581 33.2497 38.8995C33.072 38.7496 33.0337 38.5034 33.1558 38.3001C33.1921 38.2396 33.2325 38.1818 33.2733 38.1247C33.3016 38.085 33.3034 38.0533 33.267 38.0168C33.0723 37.8229 32.8936 37.6115 32.733 37.3849C32.7026 37.3417 32.6725 37.342 32.633 37.3683C32.5849 37.4005 32.535 37.4299 32.485 37.4592C32.2607 37.589 32.027 37.525 31.8953 37.2915C31.8482 37.2079 31.7906 37.1312 31.7582 37.0374C31.6779 36.8051 31.7456 36.5898 31.9462 36.4603C31.9889 36.4328 32.0325 36.4074 32.0743 36.3798C32.1484 36.3316 32.1503 36.3302 32.1176 36.2461C32.0498 36.0713 31.9914 35.8925 31.9429 35.7107C31.9215 35.6311 31.9012 35.5503 31.8835 35.4694C31.8707 35.4103 31.8416 35.3875 31.7845 35.4002C31.739 35.4091 31.6931 35.4155 31.647 35.4195C31.3758 35.4499 31.1746 35.2772 31.1463 34.9894C31.1385 34.9099 31.1302 34.8314 31.125 34.7522C31.1177 34.6376 31.1521 34.5245 31.221 34.4361C31.2899 34.3477 31.3881 34.2908 31.4953 34.2771C31.5552 34.2693 31.6155 34.2643 31.6751 34.2544C31.7529 34.2408 31.7554 34.2391 31.7566 34.1527C31.7601 33.9637 31.7737 33.7751 31.7972 33.5877C31.807 33.5053 31.833 33.4253 31.8273 33.3409C31.8214 33.2831 31.7984 33.2474 31.7548 33.2293C31.7249 33.2201 31.7178 33.2161 31.6733 33.2043C31.5855 33.1816 31.5058 33.1411 31.4423 33.0728" fill="#414141"/>
<path d="M31.8314 33.3922C31.8414 33.3343 31.818 33.2473 31.7622 33.2307C31.7142 33.2164 31.6375 33.1859 31.5899 33.1706C31.4005 33.1099 31.2818 32.9509 31.2609 32.7375C31.2369 32.6466 31.3122 32.3526 31.3464 32.2573C31.4228 32.0472 31.6103 31.9248 31.8215 31.9588C31.8672 31.9658 31.9119 31.9782 31.955 31.9956C32.0348 32.0285 32.0962 32.0026 32.1315 31.9219C32.2184 31.7234 32.3485 31.5266 32.4321 31.3268C32.5131 31.1337 32.4557 31.1497 32.484 31.1564C32.5532 31.2198 33.5633 31.7421 33.8816 32.0152C33.6742 32.2538 33.2135 33.3341 33.1943 33.6955" fill="#414141"/>
<path d="M33.8935 31.9982C34.5383 31.2569 34.9997 30.9387 35.6361 30.7464C36.0234 30.6284 36.4275 30.5856 36.8291 30.6198C37.5048 30.6777 38.1151 30.9286 38.6524 31.3722C39.1263 31.7636 39.4713 32.2593 39.7067 32.8439C39.8508 33.2015 39.9268 33.5753 39.9624 33.9628C40.0133 34.5175 39.9016 35.1373 39.7226 35.6544C39.6864 35.6885 39.027 35.2084 38.9564 35.1149C38.9403 35.0644 38.9603 35.0182 38.9724 34.9714C39.0372 34.7188 39.0792 34.4621 39.0717 34.1996C39.0362 32.9379 38.2279 31.8972 37.1102 31.6429C36.2852 31.4553 35.4105 31.6446 34.6098 32.5102C34.5896 32.5222 34.5833 32.4962 34.4474 32.3966C34.2191 32.2489 34.1068 32.1563 33.9509 32.0558C33.8615 32.0003 33.866 32.0302 33.8935 31.9982Z" fill="#414141"/>
<path d="M39.7359 35.6179C39.7144 35.6543 39.695 35.692 39.6778 35.7308C39.4811 36.2348 39.1662 36.6486 38.7827 36.999C38.2807 37.4578 37.6984 37.744 37.0374 37.8359C36.8755 37.8586 36.7132 37.8833 36.5494 37.8778C36.0762 37.8618 35.6188 37.7691 35.1817 37.5667C34.9045 37.4375 34.645 37.2689 34.4103 37.0657C34.0449 36.7514 33.7481 36.3737 33.5302 35.9261C33.3299 35.5137 33.2147 35.0776 33.1658 34.618C33.123 34.2224 33.1566 33.8342 33.2344 33.4469C33.3235 33.0051 33.4897 32.598 33.7217 32.2207C33.7547 32.1671 33.8507 32.0453 33.8819 32.0148C34.0504 32.1079 34.5105 32.431 34.5843 32.5012C34.6308 32.5658 34.5449 32.6509 34.5183 32.6924C34.3769 32.9122 34.2604 33.1443 34.1855 33.3993C33.9245 34.2878 34.0441 35.1146 34.57 35.858C35.0087 36.4783 35.6054 36.8183 36.335 36.8962C37.3744 37.0072 38.4411 36.3796 38.8801 35.2718C38.9043 35.2106 38.8982 35.1141 38.9969 35.1093C39.0603 35.1868 39.6613 35.5744 39.7359 35.6179Z" fill="#5F5F5F"/>
<path d="M38.9967 35.1095C38.9139 35.3352 38.8214 35.5552 38.6917 35.7561C38.2807 36.3922 37.7198 36.787 37.0056 36.923C36.2822 37.0606 35.62 36.8889 35.0314 36.4261C34.5135 36.0188 34.1831 35.4709 34.0555 34.8C33.9048 34.007 34.0631 33.2772 34.5046 32.6177C34.5211 32.593 34.5366 32.5681 34.5532 32.5434C34.5699 32.5222 34.7893 32.2646 34.8961 32.1694C35.3694 31.7477 35.9108 31.5315 36.5297 31.519C37.6891 31.4956 38.735 32.3305 39.0366 33.5435C39.1573 34.029 39.1541 34.5157 39.0228 34.9998C39.013 35.0357 39.0053 35.0729 38.9967 35.1095Z" fill="#EDAE50"/>
<path d="M37.2487 34.2431C37.2683 34.6583 36.9099 34.9796 36.57 34.9753C36.1821 34.9704 35.8637 34.6468 35.8672 34.2361C35.8705 33.8348 36.1655 33.5028 36.5748 33.5017C36.9158 33.5007 37.2676 33.8252 37.2487 34.2431Z" fill="#414141"/>
<path d="M37.2878 32.8633C37.3666 32.8547 37.4323 32.8844 37.4869 32.9466C37.5352 33.0017 37.5871 33.0535 37.6343 33.1098C37.7439 33.2401 37.677 33.4785 37.5352 33.5254C37.4733 33.5459 37.4165 33.5472 37.3621 33.5092C37.2453 33.4276 37.1458 33.3245 37.0575 33.2113C36.9636 33.0911 37.0113 32.9372 37.1508 32.8851C37.1946 32.868 37.2412 32.8605 37.2878 32.8633V32.8633Z" fill="#FCD38C"/>
<path d="M18.6751 39.9455C18.4829 39.8379 18.3688 39.6707 18.3345 39.4411C18.3228 39.3628 18.3025 39.2862 18.2874 39.2083C18.2767 39.1538 18.2509 39.1356 18.1974 39.1402C17.8572 39.1706 17.5154 39.1744 17.1747 39.1515C17.1285 39.1486 17.0823 39.1458 17.0365 39.1402C16.9928 39.1349 16.97 39.1541 16.9611 39.1989C16.9448 39.2802 16.923 39.3604 16.9104 39.4424C16.8714 39.6954 16.7412 39.8693 16.5193 39.9673C16.3774 40.0083 16.2356 39.994 16.0937 39.966C15.9624 39.94 15.8275 39.9278 15.7084 39.8545C15.6627 39.8187 15.6135 39.7878 15.5739 39.7434C15.4324 39.5843 15.3739 39.3987 15.4104 39.1821C15.4242 39.1003 15.4424 39.0195 15.4579 38.9379C15.4841 38.7987 15.4839 38.7979 15.3618 38.752C15.0838 38.6469 14.8127 38.5224 14.5501 38.3794C14.4869 38.3453 14.4228 38.3112 14.3624 38.2723C14.3162 38.242 14.2856 38.2484 14.2556 38.295C14.2095 38.3667 14.1585 38.4347 14.1128 38.5068C13.9181 38.8143 13.536 38.9044 13.2357 38.658C13.157 38.5934 13.0739 38.5348 12.995 38.4706C12.7163 38.2441 12.6655 37.8832 12.8685 37.5773C12.9217 37.4969 12.9761 37.4174 13.0316 37.3387C13.058 37.3017 13.0576 37.2713 13.0241 37.2409C13.0079 37.2262 12.9934 37.2095 12.9779 37.1939C12.7177 36.9308 12.4774 36.6463 12.2592 36.3431C12.1973 36.257 12.1967 36.2573 12.1058 36.313C12.0441 36.3507 11.9828 36.3888 11.9212 36.4266C11.5972 36.6236 11.2753 36.537 11.075 36.1994C11.0476 36.1562 11.0372 36.1406 11.0085 36.0886C10.9731 36.0157 10.9304 35.9473 10.8984 35.8719C10.7618 35.5501 10.8569 35.2207 11.1428 35.039C11.2099 34.9963 11.278 34.9554 11.3458 34.913C11.4359 34.8562 11.4369 34.8555 11.3981 34.7568C11.2735 34.4393 11.1707 34.1125 11.0905 33.7792C11.0773 33.7243 11.0627 33.6697 11.052 33.6142C11.0414 33.5588 11.011 33.5407 10.9601 33.5477C10.8649 33.5605 10.7697 33.5753 10.674 33.5811C10.4283 33.5962 10.2388 33.4922 10.1105 33.2681C10.0571 33.1758 10.037 33.0725 10.028 32.9657C10.0214 32.8862 10.0067 32.8147 10.0017 32.7294C9.98094 32.4071 10.1544 32.0024 10.5357 31.9733C10.6172 31.9671 10.6982 31.9541 10.7795 31.9445C10.8735 31.9332 10.8768 31.9324 10.8789 31.8373C10.885 31.5576 10.9064 31.2784 10.943 31.0013C10.958 30.8891 10.975 30.7771 10.9936 30.6655C11.0115 30.559 11.0116 30.5567 10.9117 30.5219C10.837 30.496 10.7622 30.4716 10.6886 30.445C10.3688 30.3303 10.2037 30.0064 10.2934 29.6618C10.3265 29.5344 10.3672 29.409 10.4109 29.2852C10.523 28.9661 10.8297 28.8051 11.1372 28.9017C11.2292 28.9305 11.3215 28.9594 11.411 28.9957C11.4683 29.0185 11.4937 28.9995 11.5178 28.9457C11.5745 28.8195 11.6361 28.6958 11.6958 28.5714C11.7172 28.5285 11.7369 28.4942 11.7562 28.4548C11.8203 28.3298 11.8883 28.2066 11.9698 28.0927C12.0432 28.0246 24.3888 35.7467 24.354 35.8358C24.3303 35.8812 24.3112 35.9252 24.2885 35.969C24.2449 36.0513 24.2038 36.135 24.1574 36.2154C23.9813 36.5202 23.6607 36.613 23.3615 36.4468C23.2828 36.4031 23.2073 36.3529 23.1301 36.3061C23.0498 36.2575 23.0488 36.257 22.9943 36.332C22.8724 36.4994 22.745 36.6619 22.6119 36.8193C22.4928 36.96 22.3669 37.0932 22.2388 37.2242C22.1798 37.2844 22.1799 37.2862 22.2253 37.3547C22.2765 37.432 22.3305 37.5069 22.3812 37.5845C22.578 37.8856 22.5252 38.2477 22.2519 38.4692C22.1643 38.5403 22.0753 38.6093 21.9849 38.6762C21.7009 38.8856 21.3635 38.8283 21.1535 38.5355C21.1001 38.4604 21.0494 38.3823 20.996 38.3068C20.9477 38.2386 20.9459 38.2376 20.8752 38.2785C20.5852 38.4473 20.2843 38.5938 19.9746 38.7169C19.9312 38.7339 19.8875 38.7499 19.8444 38.7674C19.7663 38.7991 19.7648 38.8003 19.7803 38.8924C19.7941 38.9742 19.8056 39.0571 19.8277 39.1365C19.9102 39.4335 19.738 39.7921 19.3558 39.9183C19.1905 39.9729 18.8326 40.0126 18.6751 39.9455Z" fill="#414141"/>
<path d="M24.3307 35.8579C24.0714 35.6978 21.7636 34.1855 21.602 34.0906C21.5144 34.0435 21.5429 34.0378 21.5961 33.9316C21.7848 33.5027 21.9118 33.046 21.9729 32.5769C22.0169 32.2352 22.0145 31.892 21.988 31.5479C21.9632 31.2237 21.9059 30.9032 21.8171 30.5919C21.704 30.1952 21.5404 29.8239 21.3384 29.4692C21.1129 29.0735 20.8257 28.7357 20.5084 28.4241C20.2645 28.1845 19.9887 27.99 19.6976 27.821C19.2601 27.5653 18.7841 27.3928 18.291 27.3112C17.9813 27.2601 17.6687 27.2349 17.356 27.2567C16.6908 27.3033 16.061 27.4894 15.4752 27.8319C15.013 28.109 14.5994 28.4691 14.2526 28.8961C14.1642 29.005 14.0383 29.2219 13.9516 29.3318C13.9019 29.395 13.0737 28.8236 11.9472 28.1147C11.9887 28.0369 12.0288 27.9733 12.0732 27.9054C12.1009 27.8629 12.0986 27.8307 12.0625 27.7971C11.9934 27.7319 11.9245 27.6663 11.8567 27.5995C11.641 27.3867 11.5906 27.1044 11.7257 26.8271C11.7565 26.7636 11.8123 26.6143 11.8973 26.5058C11.9384 26.4533 11.9837 26.4055 12.0281 26.3565C12.2456 26.1173 12.6683 26.1133 12.8953 26.3338C13.17 26.6003 13.1339 26.5383 13.3652 26.3496C13.5629 26.1886 13.7629 26.0315 13.972 25.8873C14.0846 25.8097 14.0919 25.7722 14.0349 25.6422C13.9715 25.4973 13.9144 25.3515 13.9266 25.1859C13.9418 24.9814 14.0199 24.8065 14.177 24.6929C14.4013 24.5309 14.6394 24.3975 14.9256 24.4058C15.1619 24.4129 15.3275 24.5378 15.4475 24.7425C15.4902 24.8161 15.5234 24.8966 15.558 24.9754C15.5901 25.0492 15.642 25.0733 15.7147 25.053C16.0211 24.9677 16.3315 24.903 16.6439 24.8493C16.7574 24.8298 16.7803 24.7943 16.7847 24.6744C16.7867 24.6327 16.7867 24.591 16.7847 24.5494C16.7604 24.1682 17.0381 23.8481 17.3663 23.826C17.5472 23.8137 17.7285 23.7992 17.9081 23.8374C18.1722 23.8942 18.4322 24.1515 18.406 24.5048C18.4024 24.5536 18.405 24.603 18.406 24.6524C18.4084 24.7976 18.434 24.8332 18.5689 24.8537C18.8612 24.8972 19.1506 24.9601 19.4356 25.0419C19.5864 25.0857 19.6098 25.0698 19.6726 24.9198C19.7218 24.8024 19.7711 24.6847 19.8581 24.5904C20.0339 24.4005 20.2527 24.3698 20.4806 24.4234C20.6611 24.4659 20.8307 24.553 20.9861 24.6607C21.2393 24.8364 21.3316 25.1518 21.2286 25.4586C21.2072 25.5226 21.1814 25.5851 21.1544 25.6469C21.101 25.7681 21.1101 25.8124 21.2163 25.8839C21.4393 26.0325 21.654 26.1947 21.8594 26.3697C22.0845 26.5628 22.0443 26.5921 22.2926 26.3531C22.5101 26.1438 22.8459 26.1188 23.0442 26.2623C23.2452 26.4073 23.42 26.5902 23.5361 26.8189C23.6394 27.0227 23.6255 27.3973 23.4198 27.5856C23.3581 27.6424 23.3034 27.7076 23.246 27.7697C23.1964 27.8237 23.1897 27.8826 23.229 27.9442C23.4128 28.2322 23.5774 28.5335 23.7214 28.8461C23.7568 28.9228 23.8175 28.9423 23.8923 28.9172C23.9803 28.887 24.0701 28.8631 24.1611 28.8456C24.4044 28.8002 24.6724 28.9138 24.7973 29.141C24.9187 29.361 24.9932 29.6025 25.0008 29.8609C25.009 30.1449 24.8761 30.3414 24.6483 30.4721C24.5727 30.5145 24.493 30.5481 24.4106 30.5723C24.3236 30.5987 24.2863 30.655 24.3038 30.7495C24.3652 31.0882 24.3856 31.4311 24.4058 31.7746C24.4111 31.8654 24.4525 31.9156 24.5383 31.9183C24.6024 31.9203 24.6655 31.933 24.7289 31.9419C25.0554 31.9873 25.2787 32.2575 25.2799 32.6088C25.2804 32.6769 25.2774 32.7449 25.2708 32.8125C25.2601 32.9193 25.2242 33.0723 25.196 33.1722C25.1142 33.4631 24.8382 33.6224 24.5536 33.6032C24.4614 33.597 24.3698 33.5812 24.2777 33.5716C24.1932 33.5627 24.1889 33.5639 24.1678 33.6531C24.1046 33.921 24.0357 34.1871 23.9453 34.4463C23.9032 34.5668 23.8598 34.6869 23.8122 34.805C23.7908 34.8574 23.7998 34.8896 23.8455 34.9169C23.9353 34.9709 24.0259 35.0238 24.1125 35.0835C24.3436 35.2425 24.4391 35.5319 24.355 35.808C24.3481 35.8253 24.34 35.842 24.3307 35.8579V35.8579Z" fill="#666059"/>
<path d="M14.9174 29.8873C15.0242 29.751 15.1256 29.6095 15.2425 29.4817C15.7942 28.8788 16.4607 28.5248 17.2477 28.4306C17.9438 28.3473 18.6041 28.4761 19.2141 28.8411C20.1531 29.4031 20.7131 30.2597 20.8898 31.3887C20.9924 32.0446 20.9147 32.6848 20.6698 33.2995C20.656 33.3343 20.6462 33.3708 20.6345 33.4064C20.6611 33.4656 20.6353 33.5164 20.612 33.5677C20.4932 33.829 20.337 34.0634 20.1562 34.2778C19.6362 34.8947 18.9997 35.3035 18.2273 35.445C17.202 35.6326 16.277 35.3803 15.4728 34.6752C14.8206 34.1032 14.4275 33.3627 14.301 32.4748C14.2025 31.7837 14.2844 31.1103 14.5537 30.4671C14.6189 30.3112 14.6982 30.1638 14.778 30.016C14.8105 29.9545 14.853 29.9085 14.9174 29.8873Z" fill="#EDAE50"/>
<path d="M15.5127 31.9238C15.4951 30.6501 16.5194 29.6795 17.606 29.6736C18.6717 29.6678 19.7352 30.5704 19.7371 31.9351C19.7389 33.202 18.7721 34.1649 17.6437 34.1773C16.4145 34.1908 15.4902 33.1119 15.5127 31.9238Z" fill="#45423D"/>
<path d="M19.6994 29.846C19.717 30.0338 19.4957 30.1812 19.3419 30.0726C19.2376 29.999 19.139 29.924 19.0563 29.8258C18.9372 29.6848 18.9644 29.5384 19.1221 29.4462C19.2389 29.378 19.3479 29.3732 19.4558 29.471C19.5317 29.5397 19.6053 29.6091 19.6598 29.6987C19.6874 29.7421 19.7012 29.7936 19.6994 29.846Z" fill="#FCD38C"/>
<path d="M15.9377 31.9391C15.9116 31.019 16.6126 30.1215 17.6301 30.1255C18.5806 30.1296 19.3226 30.9404 19.3131 31.9545C19.3038 32.9541 18.5245 33.738 17.5983 33.7258C16.6379 33.7132 15.9118 32.8536 15.9377 31.9391Z" fill="#EDAE50"/>
<path d="M17.6197 32.6602C17.2411 32.6602 16.9255 32.3253 16.9283 31.9218C16.9308 31.5242 17.2204 31.1915 17.6241 31.187C17.9924 31.1831 18.3139 31.5068 18.3119 31.9281C18.31 32.3385 18.0067 32.6607 17.6197 32.6602Z" fill="#414141"/>
<path d="M18.4191 30.7061C18.4588 30.7061 18.4977 30.7107 18.5314 30.7345C18.6783 30.8381 18.7569 30.9821 18.7517 31.1715C18.7489 31.2688 18.6176 31.3712 18.5281 31.3496C18.3768 31.313 18.2534 31.2333 18.1692 31.0899C18.0963 30.9659 18.1107 30.862 18.2199 30.7743C18.279 30.7273 18.3465 30.7081 18.4191 30.7061Z" fill="#FCD38C"/>
<path d="M14.9174 29.8873C14.8072 30.0728 14.7005 30.2599 14.6153 30.4606C14.4721 30.7993 14.3791 31.1595 14.3396 31.5285C14.2872 31.9937 14.3234 32.4654 14.446 32.9155C14.5686 33.3655 14.7752 33.7847 15.0534 34.1481C15.4763 34.7003 16.0092 35.0807 16.6477 35.2929C17.0178 35.416 17.3988 35.4724 17.7848 35.4453C18.7945 35.3743 19.618 34.917 20.2472 34.0707C20.3793 33.8922 20.4933 33.6994 20.5872 33.4953C20.6013 33.465 20.6187 33.4364 20.6345 33.407C20.7223 33.4507 21.4053 33.9199 21.5217 34.0065C21.5679 34.0406 21.547 34.0861 21.525 34.1276C21.4051 34.3555 21.2783 34.5788 21.1257 34.7841C20.7921 35.2331 20.4031 35.6158 19.9429 35.9158C19.4962 36.2072 19.0055 36.4142 18.4925 36.5277C18.0956 36.6167 17.6936 36.6299 17.2928 36.6033C16.7596 36.5684 16.2487 36.4248 15.7623 36.1848C15.4291 36.0223 15.1169 35.8151 14.8331 35.5683C14.2751 35.0791 13.8422 34.4883 13.5622 33.7747C13.3832 33.3166 13.2713 32.8321 13.2304 32.338C13.1663 31.6011 13.2761 30.8917 13.52 30.2023C13.6094 29.9499 13.7273 29.713 13.8533 29.4802C13.8657 29.4574 13.8796 29.4347 13.8939 29.4135C13.9705 29.2977 13.985 29.2941 14.0989 29.3631C14.2901 29.4791 14.6578 29.7217 14.845 29.8432C14.87 29.8562 14.8942 29.8709 14.9174 29.8873V29.8873Z" fill="#666059"/>
<path d="M20.8534 32.6739C20.95 32.2167 20.959 31.7435 20.88 31.2826C20.801 30.8216 20.6355 30.3823 20.3935 29.9908C19.9889 29.4358 19.4806 28.9684 18.9166 28.6797C18.5645 28.5184 18.1873 28.4285 17.8042 28.4147C16.7928 28.3764 15.9258 28.7328 15.2196 29.5073C15.1085 29.6313 15.0042 29.762 14.9072 29.8988C14.8241 29.8458 14.059 29.4307 13.9515 29.3319C13.9088 29.2926 14.2423 28.8906 14.4137 28.7028C14.7884 28.2922 15.2119 27.953 15.6985 27.7046C16.1539 27.4547 16.6744 27.3119 17.1997 27.2525C17.6024 27.2062 18.0091 27.2176 18.409 27.2865C18.936 27.3789 19.422 27.597 19.8828 27.8886C20.1989 28.0862 20.4898 28.3261 20.7486 28.6022C21.257 29.1491 21.6313 29.7837 21.8421 30.5238C21.9765 30.9989 22.0415 31.4931 22.0351 31.9892C22.0282 32.7292 21.8535 33.4092 21.5999 33.9568C21.5496 34.0654 21.5952 34.0626 21.4494 33.9568C21.2703 33.8204 20.8234 33.5358 20.6348 33.407C20.6231 33.3975 20.7771 33.0384 20.8534 32.6739Z" fill="#45423D"/>
<path d="M16.1581 13.3858C16.0803 13.1227 16.0206 12.8544 15.9552 12.5878C15.9379 12.5176 15.9573 12.4987 16.0277 12.4805C19.9222 11.4731 24.6582 12.2429 27.0906 13.0266C27.4761 13.1737 27.8513 13.3447 28.1984 13.5786C28.349 13.6801 28.4919 13.792 28.6042 13.9421C28.6355 13.9832 28.6637 14.0269 28.6885 14.0727C28.7473 14.1842 28.7605 14.2965 28.7051 14.4184C28.577 14.7012 28.4376 14.9776 28.287 15.2477C28.1897 15.4236 28.0896 15.5977 27.991 15.7728C27.9445 15.8577 27.8924 15.939 27.8349 16.016C27.7846 16.0659 27.7281 16.0419 27.6739 16.0289C27.4357 15.9721 27.1951 15.9277 26.9583 15.8657C26.9409 15.8611 26.9232 15.8689 26.9055 15.8696C26.6575 15.7841 26.3957 15.7744 26.1438 15.7105C26.1108 15.7021 26.0821 15.7233 26.0505 15.7177C25.6368 15.6321 25.2174 15.589 24.8009 15.5281C24.6544 15.5066 24.5032 15.518 24.3612 15.4623C24.3069 15.4013 24.2971 15.3215 24.2789 15.2446C24.1739 14.7909 24.0375 14.3506 23.7876 13.9596C23.7495 13.9002 23.7082 13.8435 23.6649 13.7883C23.5349 13.6223 23.3797 13.5236 23.169 13.4942C22.6194 13.4173 22.0689 13.3508 21.5169 13.3011C20.5984 13.2178 19.6788 13.2036 18.7586 13.2175C18.3045 13.2242 17.8508 13.2563 17.3975 13.2979C17.0222 13.332 16.6478 13.3724 16.2744 13.425C16.2281 13.4298 16.1882 13.4268 16.1581 13.3858Z" fill="#EDAE50"/>
<path d="M29.0723 21.3071C28.8136 21.3051 28.5549 21.2995 28.2963 21.3033C28.2139 21.3045 28.1956 21.2535 28.1777 21.1904C28.1076 21.1677 28.1095 21.0995 28.0988 21.0427C28.0151 20.6055 27.9364 20.167 27.8454 19.7313C27.6217 18.6602 27.3703 17.5967 27.0644 16.5483C27.0117 16.3677 26.955 16.1884 26.9035 16.0073C26.8878 15.9522 26.8579 15.8921 26.9086 15.8369C26.9273 15.8142 26.9522 15.8142 26.9768 15.8189C27.2646 15.8757 27.5523 15.9325 27.835 16.0145C28.0206 16.5702 28.1767 17.1356 28.3208 17.7048C28.5166 18.4784 28.6846 19.2592 28.8412 20.0427C28.8996 20.3353 29.0716 21.2998 29.0723 21.3071Z" fill="#45423D"/>
<path d="M16.1581 13.3858C16.4983 13.3241 16.8416 13.2882 17.1848 13.2554C17.4322 13.2318 17.681 13.2167 17.9291 13.1986C18.6184 13.1477 19.3083 13.1488 19.998 13.1611C20.499 13.1701 20.9996 13.1984 21.4998 13.2407C21.8329 13.2688 22.1655 13.3012 22.4973 13.3415C22.7761 13.3756 23.0527 13.4248 23.3315 13.4634C23.4217 13.4758 23.4896 13.5229 23.554 13.5854C23.776 13.8013 23.9328 14.0653 24.056 14.3534C24.2025 14.6958 24.3031 15.0538 24.3699 15.4229C24.3544 15.4747 24.3146 15.4754 24.2745 15.4728C24.0973 15.4614 23.9198 15.4481 23.7432 15.4306C23.5875 15.4153 23.4312 15.4079 23.2757 15.3986C23.0278 15.3841 22.7796 15.3554 22.5304 15.3701C22.4343 15.3759 22.3396 15.3501 22.2436 15.3485C22.1138 15.3465 22.0734 15.3763 22.0283 15.5044C21.7628 16.2595 21.5442 17.0301 21.3521 17.8096C21.0552 19.0138 20.8287 20.2337 20.6383 21.4614C20.5873 21.7895 20.5457 22.1191 20.5002 22.4482C20.4909 22.5152 20.4841 22.5838 20.444 22.6414C20.4127 22.6748 20.3729 22.677 20.3347 22.6665C20.1561 22.6174 19.9788 22.5626 19.8007 22.5122C19.7867 22.5089 19.7738 22.5019 19.7629 22.492C19.7521 22.4821 19.7437 22.4695 19.7385 22.4554C19.7098 22.3733 19.7278 22.2898 19.7394 22.2089C19.9209 20.8809 20.1432 19.5612 20.4355 18.2556C20.6423 17.3323 20.8779 16.4183 21.1797 15.5244C21.2254 15.3892 21.1998 15.3499 21.0663 15.3483C20.5372 15.342 20.0089 15.3616 19.4801 15.3885C19.2143 15.4021 18.9487 15.4137 18.6836 15.4373C18.6659 15.4373 18.6481 15.438 18.6302 15.4381C18.3535 15.4401 18.3471 15.4465 18.2598 15.7204C17.752 17.3129 17.397 18.9453 17.1227 20.5994C17.0407 21.0941 16.9688 21.5905 16.8958 22.0867C16.8892 22.1321 16.8845 22.1769 16.8575 22.2149C16.8319 22.2589 16.7896 22.2648 16.7471 22.2717C16.5265 22.3058 16.3045 22.3295 16.0849 22.371C16.0355 22.3804 15.9747 22.3917 15.9648 22.3069C16.0016 22.0454 16.0385 21.7839 16.0754 21.5224C16.1711 20.8422 16.2795 20.1644 16.4005 19.489C16.5592 18.604 16.7408 17.726 16.9651 16.8586C17.0719 16.4471 17.1822 16.0366 17.3165 15.634C17.3635 15.4929 17.3632 15.4929 17.2617 15.3954C17.0167 15.1595 16.7725 14.9226 16.5262 14.6882C16.481 14.6459 16.4493 14.5897 16.4356 14.5273C16.3522 14.1834 16.2647 13.8407 16.1786 13.4975C16.1637 13.4625 16.1568 13.4242 16.1583 13.3857L16.1581 13.3858Z" fill="#45423D"/>
<path d="M16.1586 13.3853C16.1716 13.4213 16.1864 13.4568 16.1789 13.497C16.1575 13.4631 16.1304 13.4297 16.1586 13.3853Z" fill="#A9A9A9"/>
<path d="M21.8129 23.2594C21.4036 23.0256 20.9746 22.8414 20.5358 22.6817C20.4958 22.6672 20.4538 22.6564 20.4234 22.6215C20.4686 22.2886 20.5103 21.955 20.5595 21.6228C20.6734 20.8535 20.8064 20.088 20.9586 19.3264C21.1903 18.172 21.4676 17.0307 21.8321 15.915C21.8904 15.7364 21.9509 15.5586 22.0115 15.381C22.0422 15.2912 22.0436 15.2908 22.134 15.2936C22.6388 15.3088 23.1434 15.3294 23.6474 15.363C23.8885 15.379 24.1291 15.4026 24.3699 15.4229C24.7679 15.4635 25.1644 15.5157 25.5602 15.5753C25.7284 15.6007 25.8967 15.6242 26.0637 15.6572C26.1598 15.698 26.2193 15.7761 26.2773 15.8659C26.4977 16.2075 26.6734 16.5763 26.8195 16.9564C26.9725 17.354 27.1124 17.7596 27.2068 18.1798C27.244 18.3452 27.2967 18.5064 27.335 18.6712C27.4599 19.2137 27.5984 19.7526 27.6995 20.3013C27.7513 20.5827 27.8063 20.8638 27.8745 21.1419C27.8927 21.2159 27.9228 21.2996 27.8332 21.3529C27.8236 21.3642 27.8157 21.3784 27.8039 21.3851C27.6454 21.4743 27.5383 21.6195 27.4343 21.7675C27.2604 22.0146 27.0882 22.263 26.9154 22.511C26.8667 22.5337 26.8266 22.5149 26.7867 22.4845C26.5786 22.326 26.3686 22.1701 26.1566 22.0171C26.0489 21.939 26.0405 21.9 26.1128 21.7848C26.2155 21.6212 26.3258 21.4633 26.4316 21.3021C26.4723 21.2401 26.5159 21.1797 26.5491 21.1127C26.609 20.9912 26.587 20.8699 26.495 20.7974C26.4029 20.7248 26.2882 20.7395 26.1999 20.8448C26.0885 20.9778 26.0007 21.1301 25.9055 21.2765C25.6035 21.7395 25.3009 22.2021 24.9977 22.6644C24.9692 22.7078 24.9401 22.7512 24.9208 22.8007C24.8765 22.9131 24.9074 23.029 24.9972 23.0914C25.0901 23.1559 25.197 23.1432 25.2757 23.0473C25.3858 22.9133 25.473 22.7606 25.5688 22.6156C25.6299 22.5226 25.6907 22.4294 25.7538 22.338C25.7977 22.2744 25.8461 22.2649 25.9094 22.3081C26.1398 22.4657 26.3599 22.6391 26.5847 22.8052C26.6224 22.8331 26.6594 22.866 26.6579 22.923C26.5877 23.0449 26.5176 23.167 26.4468 23.2885C26.4112 23.3495 26.3731 23.4088 26.338 23.4702C26.1918 23.7244 26.1873 23.9871 26.3133 24.2479C26.6527 24.9503 27.0054 25.6452 27.4033 26.3127C27.4529 26.3958 27.5062 26.476 27.5559 26.5586C27.6962 26.7911 27.9056 26.8844 28.1521 26.8922C28.3898 26.8997 28.627 26.872 28.8638 26.8498C28.8585 27.9014 28.5755 28.8635 28.0458 29.7488C27.9716 29.8727 27.8914 29.9256 27.7468 29.9211C27.3634 29.9089 26.9794 29.9188 26.5957 29.92C26.5181 29.9086 26.5209 29.8357 26.5102 29.7809C26.4647 29.5553 26.4049 29.3341 26.3417 29.1136C26.0991 28.2629 25.7472 27.4518 25.2961 26.7034C25.1503 26.4614 24.9876 26.2329 24.8349 25.9965C24.693 25.7995 24.54 25.6119 24.382 25.4299C24.1007 25.1058 23.8087 24.7927 23.489 24.5098C23.0268 24.1031 22.5317 23.7406 22.0095 23.4266C21.9372 23.3804 21.8505 23.3516 21.8129 23.2594Z" fill="#B9E1E1"/>
<path d="M27.81 21.3792C27.8396 21.3111 27.837 21.217 27.8216 21.1528C27.6868 20.5934 26.7342 16.6928 26.1955 15.8344C26.1302 15.7304 26.1148 15.7028 26.0635 15.6572C26.3165 15.6781 26.5646 15.7349 26.8154 15.7722C26.8346 15.7745 26.853 15.7817 26.8691 15.793C26.8852 15.8044 26.8985 15.8196 26.9081 15.8375C27.2445 16.9244 27.5331 18.0253 27.774 19.1404C27.9216 19.82 28.0731 20.5502 28.1935 21.2359C28.1938 21.2374 28.1944 21.2389 28.1952 21.2403C28.2195 21.2881 28.2257 21.2749 28.0848 21.2937C27.9974 21.3056 27.88 21.3471 27.81 21.3792Z" fill="#DCF9FB"/>
<path d="M19.7632 22.442C19.5442 22.3966 19.3254 22.3469 19.1058 22.307C18.8438 22.2598 18.5797 22.2272 18.3145 22.2094C18.0635 22.192 17.8147 22.1867 17.5632 22.1861C17.4219 22.1861 17.2788 22.2007 17.1367 22.1896C17.0785 22.1421 17.0889 22.0777 17.0974 22.0131C17.218 21.0881 17.3582 20.1672 17.5409 19.2526C17.6691 18.6085 17.8134 17.9689 17.991 17.3387C18.1606 16.7366 18.3582 16.1451 18.6644 15.6029C18.7105 15.5213 18.7178 15.4538 18.669 15.3774C18.7027 15.363 18.7386 15.3631 18.7739 15.3614C19.5799 15.3225 20.3857 15.2804 21.1928 15.2882C21.2276 15.2882 21.2638 15.2795 21.2977 15.2979C21.3112 15.3386 21.2886 15.3719 21.2769 15.4059C20.9211 16.4397 20.6522 17.5011 20.4206 18.5734C20.2242 19.4831 20.0611 20.3996 19.9206 21.3208C19.864 21.6941 19.8158 22.0684 19.7632 22.442Z" fill="#B9E1E1"/>
<path d="M18.7396 15.3634C18.8839 15.3455 18.8702 15.3539 18.7837 15.5111C18.5501 15.9355 18.3534 16.3718 18.2031 16.8322C18.116 17.0991 18.0315 17.3684 17.9662 17.6437C17.895 17.944 17.8109 18.2409 17.7448 18.5428C17.6779 18.8484 17.6214 19.1563 17.5594 19.463C17.496 19.7771 17.4312 20.0909 17.383 20.4079C17.3082 20.9002 17.236 21.3928 17.1664 21.8857C17.1523 21.986 17.1343 22.087 17.1372 22.1897C17.1012 22.2069 16.8547 22.2339 16.8359 22.1897C16.8522 21.9481 16.8948 21.7101 16.9299 21.4714C17.0169 20.8816 17.1145 20.2937 17.223 19.7078C17.476 18.3537 17.7878 17.0155 18.2056 15.7077C18.2319 15.6255 18.2631 15.5448 18.2865 15.4617C18.3002 15.4129 18.3274 15.3949 18.3711 15.3935C18.4712 15.3882 18.7218 15.3626 18.7396 15.3634Z" fill="#DCF9FB"/>
<path d="M32.0629 32.0204C31.8144 32 31.5374 31.792 31.3396 32.3293C31.143 32.8618 31.432 33.067 31.3884 33.049C31.3669 33.0461 31.3452 33.0454 31.3236 33.0469C31.1608 33.0489 30.9925 33.0203 30.8301 33.0201C30.7725 32.992 30.7861 32.9419 30.7957 32.8934C30.8775 32.4747 31.0029 32.0671 31.1695 31.6779C31.3899 31.1676 31.6598 30.6896 31.998 30.2556C32.4679 29.653 33.0185 29.1537 33.6588 28.7659C34.3253 28.3621 35.0406 28.1124 35.7985 28.0036C36.1646 27.9511 36.5338 27.9315 36.9039 27.9591C37.0443 27.9695 37.154 27.9086 37.2295 27.7855C37.2603 27.7354 37.2942 27.6972 37.347 27.6774C37.408 27.6767 37.4634 27.7042 37.5216 27.718C37.6498 27.7486 37.6631 27.7437 37.7193 27.6203C37.8101 27.4211 37.9042 27.2237 38.0214 27.0398C38.0503 27.02 38.0743 26.9933 38.0917 26.9618C38.2437 26.7143 38.4381 26.5095 38.6665 26.3415C38.673 26.3383 38.6801 26.3371 38.6872 26.3379C38.7699 26.3379 38.7915 26.405 38.8114 26.4707C38.8989 26.7587 38.9973 27.0418 39.1189 27.3161C39.3204 27.7705 39.5692 28.1908 39.8885 28.5617C39.9362 28.617 39.9963 28.6664 39.9684 28.7565C39.8021 29.0671 39.6358 29.3776 39.4694 29.6881C39.445 29.7335 39.418 29.7778 39.3921 29.8227C39.3459 29.9009 39.2937 29.9749 39.2361 30.0441C39.2211 30.0326 39.2053 30.0224 39.1887 30.0138C39.1791 30.0088 39.1609 29.9917 39.1516 29.9863C38.9774 29.8855 39.0021 29.8788 39.0888 29.6909C39.1433 29.5724 39.1716 29.4523 39.1372 29.3188C39.1236 29.2636 39.0995 29.212 39.0663 29.1673C39.033 29.1225 38.9915 29.0856 38.9442 29.0587C38.8328 28.9943 38.7172 28.9338 38.5899 28.9054C38.4114 28.8659 38.2248 28.954 38.1388 29.1257C38.1104 29.1825 38.0905 29.2434 38.0641 29.3014C38.0262 29.3858 38.0045 29.3976 37.9221 29.3726C37.703 29.3061 37.4817 29.2518 37.2549 29.2249C37.2336 29.2223 37.2134 29.2136 37.1922 29.2115C37.1317 29.2039 37.1062 29.1661 37.1068 29.1039C37.1068 29.0434 37.1029 28.9827 37.1068 28.9222C37.1208 28.6933 36.9837 28.5386 36.7847 28.4967C36.6412 28.4665 36.4933 28.4685 36.3505 28.5027C36.1681 28.5464 36.0601 28.6649 36.0347 28.8662C36.0245 28.9409 36.0185 29.0162 36.0168 29.0917C36.0157 29.1899 36.0094 29.1982 35.9161 29.2177C35.801 29.2416 35.6849 29.2598 35.5698 29.2831C35.4511 29.3072 35.3336 29.3372 35.2174 29.3732C35.1419 29.3967 35.1241 29.3873 35.0926 29.3123C35.0636 29.2433 35.0363 29.1736 34.999 29.1089C34.9004 28.9385 34.7221 28.8598 34.5397 28.9098C34.4087 28.9462 34.284 29.0048 34.1704 29.0834C34.005 29.197 33.9445 29.4115 34.0146 29.6138C34.0354 29.6739 34.0661 29.73 34.0904 29.7888C34.1212 29.8629 34.1185 29.8805 34.0574 29.9203C33.8418 30.0607 33.6422 30.2246 33.4436 30.3902C33.3856 30.4387 33.3697 30.4393 33.3155 30.386C33.2671 30.3359 33.2159 30.289 33.1621 30.2457C33.0095 30.1283 32.801 30.1268 32.6576 30.2556C32.5575 30.3456 32.4629 30.4435 32.3916 30.5636C32.2836 30.7453 32.3085 30.9612 32.4557 31.1089C32.5152 31.1686 32.5214 31.1732 32.6181 31.2435C32.4695 31.4016 32.1792 31.8284 32.0942 31.9965" fill="#414141"/>
<path d="M30.0749 32.9988C29.4773 32.9981 28.8798 32.9975 28.2821 32.9969C27.3324 32.9969 26.3827 32.9969 25.4328 32.9969C25.2139 32.9969 25.2102 32.9895 25.2406 32.7609C25.262 32.5944 25.2658 32.4282 25.1779 32.2766C25.0832 32.1133 24.9494 32.0085 24.7696 31.9792C24.6819 31.9639 24.5934 31.9544 24.5046 31.9506C24.3978 31.9473 24.3785 31.919 24.3745 31.8044C24.3617 31.4341 24.3332 31.066 24.2663 30.701C24.2397 30.5567 24.247 30.5446 24.3831 30.5046C24.4932 30.4723 24.6004 30.4322 24.6987 30.3694C24.9428 30.2131 25.0145 29.9461 24.956 29.6717C24.9293 29.5467 24.8886 29.4246 24.8492 29.3032C24.7467 28.988 24.4754 28.8241 24.1677 28.8855C24.0623 28.9065 23.9613 28.9423 23.8597 28.9763C23.7762 29.0047 23.7658 29.0019 23.727 28.9157C23.5654 28.5532 23.3748 28.2062 23.1572 27.8785C23.1163 27.8174 23.1185 27.7982 23.1807 27.7485C23.2662 27.6796 23.3354 27.5923 23.4146 27.5166C23.6053 27.3348 23.6018 26.9522 23.4878 26.7696C23.3803 26.5977 23.2442 26.4515 23.096 26.323C22.9097 26.1609 22.5828 26.1551 22.3756 26.3532C22.3043 26.4214 22.2233 26.4782 22.1602 26.556C22.1224 26.6027 22.0875 26.6037 22.0427 26.5635C21.9371 26.4682 21.8304 26.374 21.7208 26.2839C21.5491 26.1428 21.3684 26.0157 21.1851 25.8917C21.0263 25.7842 21.0337 25.8084 21.1144 25.6304C21.1481 25.5595 21.1777 25.4865 21.2031 25.4118C21.2955 25.1209 21.2117 24.8021 20.9171 24.6431C20.79 24.5749 20.6623 24.5046 20.5253 24.465C20.3331 24.4093 20.1454 24.4195 19.9765 24.553C19.9079 24.6079 19.8529 24.6797 19.8163 24.7622C19.7708 24.8605 19.7308 24.9617 19.6872 25.061C19.6542 25.1359 19.647 25.1406 19.5725 25.1157C19.2869 25.0202 18.9949 24.955 18.6996 24.9052C18.6295 24.8938 18.5591 24.8825 18.4888 24.8718C18.387 24.8561 18.3791 24.8477 18.3773 24.734C18.3759 24.6395 18.3762 24.5448 18.3773 24.45C18.3797 24.1873 18.2492 24.0183 18.0379 23.9087C17.9772 23.8761 17.9107 23.8574 17.8428 23.8538C17.6832 23.848 17.5233 23.8372 17.364 23.8652C17.0601 23.9192 16.8714 24.1449 16.862 24.4716C16.8597 24.5547 16.862 24.638 16.8611 24.7215C16.8596 24.8491 16.8546 24.8529 16.7392 24.8725C16.3844 24.9322 16.0307 24.9974 15.6859 25.1084C15.6037 25.1348 15.5939 25.1291 15.5563 25.0427C15.5205 24.9604 15.4856 24.8776 15.4495 24.7952C15.3074 24.4679 14.978 24.3622 14.6745 24.4799C14.5608 24.5237 14.4498 24.5751 14.3422 24.6338C14.1657 24.7309 14.0493 24.8809 14.0112 25.0944C13.9915 25.2065 14.0014 25.3222 14.0398 25.4288C14.0729 25.5249 14.1168 25.6156 14.1582 25.7078C14.1934 25.7859 14.1894 25.8037 14.1222 25.847C13.8389 26.0299 13.5742 26.2403 13.3159 26.4605C13.2827 26.4887 13.2518 26.5208 13.2198 26.5499C13.1645 26.5992 13.1476 26.5991 13.0916 26.5477C13.0298 26.4909 12.966 26.4362 12.9081 26.3749C12.6899 26.1442 12.2814 26.1456 12.0696 26.3907C12.0071 26.463 11.9476 26.5384 11.8836 26.6088C11.806 26.694 11.8009 26.6911 11.7214 26.6131C11.6539 26.5468 11.4948 26.398 11.4835 26.3891C11.3774 26.2634 11.3818 26.2625 11.4891 26.1335C12.4017 25.0379 13.5586 24.2038 14.8534 23.7081C15.5061 23.4581 16.1777 23.2952 16.8679 23.232C17.2894 23.1947 17.713 23.1905 18.1351 23.2192C18.7067 23.2557 19.2733 23.3555 19.8254 23.5171C20.2785 23.6488 20.7191 23.8247 21.1418 24.0425C21.4306 24.1874 21.7107 24.351 21.9806 24.5326C22.3586 24.7872 22.7165 25.0742 23.0506 25.3908C23.3703 25.6962 23.6704 26.0239 23.949 26.3719C23.9868 26.4218 24.0222 26.4739 24.055 26.5277C24.3157 26.8407 24.5249 27.1924 24.7203 27.5522C25.1131 28.2726 25.407 29.0492 25.593 29.8582C25.658 30.1412 25.7012 30.4284 25.7492 30.7148C25.7909 30.9647 25.9633 31.0502 26.1748 30.9292C26.4401 30.7776 26.6085 30.417 26.57 30.0977C26.5616 30.0284 26.5166 29.95 26.5865 29.8849C26.6419 29.8517 26.703 29.8545 26.7634 29.8542C27.0838 29.8532 27.4035 29.8498 27.7235 29.8558C27.8556 29.8583 27.9441 29.8059 28.0149 29.6894C28.2795 29.2533 28.4811 28.7775 28.613 28.2777C28.7169 27.8877 28.7916 27.4917 28.817 27.0862C28.82 27.0445 28.8194 27.0027 28.815 26.9612C28.8095 26.9119 28.8211 26.8714 28.864 26.8456C28.9334 26.8442 29.0852 26.8349 29.0921 26.8342C29.3578 26.8175 29.3578 26.8176 29.3583 27.1017C29.3583 27.3176 29.3571 27.5334 29.359 27.7486C29.3607 27.9458 29.4101 28.0067 29.5914 28.0553C30.0255 28.1729 30.4648 28.2108 30.9126 28.186C31.1194 28.1747 31.3217 28.1351 31.5269 28.1179C31.5694 28.1128 31.611 28.1013 31.6504 28.0838C31.775 28.033 31.8117 27.9816 31.8135 27.8375C31.8167 27.569 31.8125 27.3004 31.8158 27.0319C31.8166 26.9732 31.8052 26.909 31.8541 26.8615C31.9347 26.7956 32.0117 26.8459 32.0838 26.8779C32.2618 26.9575 32.3958 27.0988 32.5188 27.2516C32.7465 27.5345 32.9156 27.8577 33.0759 28.1865C33.09 28.213 33.096 28.2435 33.093 28.2737C33.0873 28.3472 33.0371 28.3839 32.9862 28.4191C32.5666 28.7076 32.1899 29.05 31.8434 29.4321C31.446 29.87 31.1164 30.3596 30.8373 30.8888C30.5131 31.5034 30.2926 32.1585 30.1624 32.8491C30.1512 32.9069 30.1623 32.989 30.0749 32.9988Z" fill="#45423D"/>
<path d="M30.0746 32.9986C30.1016 32.8697 30.1273 32.7404 30.1557 32.6124C30.3879 31.56 30.834 30.6207 31.4782 29.7865C31.9058 29.2289 32.4131 28.7462 32.9814 28.3559C33.0141 28.3332 33.0501 28.315 33.0703 28.2764C33.0959 28.2309 35.0342 26.9042 37.2019 27.3305C37.3309 27.4302 37.3461 27.6218 37.276 27.7955C37.2075 27.965 37.0799 28.0184 36.8754 28.0132C36.6867 28.0083 36.4984 27.9975 36.3105 28.0084C35.9946 28.0253 35.6804 28.0678 35.3707 28.1355C34.522 28.3247 33.749 28.6915 33.0555 29.2449C32.2453 29.8915 31.6338 30.7093 31.2139 31.6889C31.0438 32.089 30.9156 32.5079 30.8317 32.9378C30.8266 32.9636 30.7569 33.3792 30.7356 33.5626C30.7161 33.733 30.6394 33.8519 30.4848 33.9081C30.2576 33.9906 30.0149 33.8143 30.01 33.5591C30.0073 33.4305 30.0333 33.3041 30.0515 33.1773C30.0588 33.1271 30.0667 33.0069 30.0746 32.9986Z" fill="#A19D98"/>
<path d="M28.2256 32.1138C27.8381 32.1138 27.4505 32.1151 27.063 32.1133C26.8814 32.1124 26.7499 32.0181 26.675 31.8452C26.6001 31.6723 26.6232 31.5044 26.7319 31.3543C26.8182 31.2356 26.9417 31.19 27.0789 31.1854C27.1713 31.1823 27.2638 31.1841 27.3566 31.1842C28.0108 31.1847 28.665 31.1851 29.3192 31.1856C29.4432 31.1856 29.5586 31.2083 29.6569 31.2978C29.7925 31.4217 29.8477 31.6224 29.7913 31.8012C29.7637 31.8918 29.7099 31.9709 29.6376 32.0272C29.5653 32.0834 29.4782 32.114 29.3886 32.1145C29.001 32.1167 28.6135 32.1152 28.226 32.1152L28.2256 32.1138Z" fill="#FCBE4F"/>
<path d="M15.9644 22.3059C15.9886 22.3264 16.0164 22.327 16.0449 22.321C16.2873 22.2705 16.5326 22.2415 16.778 22.2144C16.7993 22.2119 16.7887 22.2123 16.8492 22.2061C17.7111 22.138 18.86 22.1882 19.7634 22.442C19.9626 22.5006 20.1633 22.5442 20.3627 22.6024C20.3831 22.6036 21.359 22.9833 21.7382 23.2C21.7721 23.2258 21.7887 23.2395 21.8129 23.2593C21.8285 23.4453 21.7742 23.585 21.6721 23.7119C21.5299 23.8888 21.3421 24.0155 21.1319 24.0959C20.8616 23.9709 20.5924 23.8429 20.3132 23.7404C19.8192 23.5589 19.3102 23.4273 18.793 23.3472C18.3424 23.279 17.8872 23.2497 17.4321 23.2598C16.8952 23.2693 16.3606 23.3377 15.8367 23.4637C14.2109 23.8521 12.7368 24.7629 11.6141 26.0726C11.5782 26.1146 11.5416 26.1559 11.5056 26.1976C11.4309 26.2848 11.3982 26.3414 11.3431 26.4108C11.2515 26.5262 11.1625 26.644 11.0733 26.7616C10.865 27.0359 10.499 27.0507 10.271 26.7631C10.1167 26.5682 10.1428 26.2746 10.2684 26.0895C10.4054 25.8915 10.5518 25.7011 10.7071 25.519C10.8658 25.3301 11.0204 25.1372 11.1944 24.9638C11.4382 24.7209 11.681 24.4761 11.9462 24.2594C12.8517 23.5197 13.8443 22.9555 14.9381 22.5993C15.2272 22.5049 15.5208 22.4269 15.8176 22.3657C15.87 22.3553 15.9249 22.3513 15.9644 22.3059Z" fill="#EDAE50"/>
<path d="M24.8644 25.9632C25.1294 26.2967 25.345 26.666 25.5533 27.0402C25.7982 27.4804 26.0018 27.942 26.1743 28.4194C26.3325 28.8577 26.4693 29.3027 26.5603 29.7628C26.571 29.8146 26.5839 29.8651 26.5958 29.9171C26.6196 30.0582 26.6469 30.1979 26.6179 30.3434C26.5584 30.6417 26.4187 30.8753 26.1518 31.0054C25.9282 31.1143 25.7342 31.0004 25.6977 30.7415C25.6015 30.0599 25.4445 29.3944 25.2052 28.7523C24.9221 27.9928 24.551 27.2869 24.0791 26.6406C24.0577 26.611 24.0376 26.5796 24.017 26.5491C24.0681 26.3688 24.1739 26.2229 24.2757 26.0731C24.3328 25.9889 24.4212 26.0027 24.4949 25.978C24.6141 25.9381 24.7392 25.9055 24.8644 25.9632Z" fill="#EDAE50"/>
<path d="M24.8041 25.9476C24.2198 25.8974 24.0362 26.5105 24.0175 26.5489C23.7651 26.222 23.4989 25.9089 23.2091 25.6185C22.6202 25.0266 21.952 24.5309 21.2262 24.1477C21.1942 24.131 21.1633 24.1137 21.1318 24.0958C21.1591 24.0617 21.3995 24.0116 21.5999 23.7209C21.7695 23.475 21.8095 23.3082 21.8129 23.2593C22.0042 23.3357 22.1712 23.4599 22.3447 23.5702C22.6446 23.7592 22.9329 23.9683 23.2078 24.1962C23.4563 24.4039 23.6973 24.6202 23.9268 24.8526C24.0841 25.0117 24.2315 25.1801 24.3802 25.3469C24.5532 25.5409 24.7276 25.7361 24.8645 25.9632" fill="#FCD38C"/>
<path d="M39.9595 28.7541C39.8967 28.6426 39.8013 28.561 39.7245 28.4613C39.3116 27.9257 39.0157 27.3226 38.8073 26.6687C38.7834 26.5936 38.7615 26.5177 38.7376 26.4425C38.7275 26.4107 38.7199 26.3744 38.6772 26.3755C38.151 25.8961 37.5157 25.6288 36.8936 25.3361C35.9538 24.8944 34.9725 24.5908 33.9798 24.3233C33.2012 24.1135 32.4123 23.9579 31.6212 23.8139C31.5492 23.8009 31.4722 23.7945 31.4225 23.7231C31.4095 23.6713 31.4095 23.6183 31.4094 23.5655C31.4083 22.9396 31.4086 22.3136 31.4103 21.6877C31.4103 21.6195 31.3906 21.5412 31.4598 21.4907C31.6158 21.5315 31.7769 21.5315 31.9351 21.5549C32.2342 21.599 32.5352 21.6318 32.8338 21.6799C33.2204 21.7414 33.6083 21.7962 33.9918 21.878C34.2567 21.9348 34.523 21.9826 34.7873 22.0426C35.097 22.1129 35.4067 22.184 35.7126 22.2668C36.2225 22.4046 36.7323 22.5445 37.2292 22.7304C37.427 22.8044 37.6232 22.8842 37.8234 22.9499C38.0275 23.0167 38.1875 23.1501 38.3397 23.3002C38.6708 23.6268 39.001 23.9544 39.3206 24.2938C39.5342 24.521 39.7489 24.7466 39.9525 24.9842C40.0408 25.0872 40.1384 25.1813 40.2302 25.2814C40.3889 25.4548 40.5366 25.6389 40.6992 25.8086C40.8297 25.945 40.9069 26.1166 40.9165 26.3131C40.93 26.5892 40.9217 26.8631 40.8558 27.1347C40.7344 27.6345 40.5106 28.0754 40.2072 28.474C40.1311 28.5732 40.0525 28.6708 39.9595 28.7541Z" fill="#EDAE50"/>
<path d="M26.6578 22.9205L25.9225 22.3779C25.9103 22.3701 25.8987 22.3613 25.8879 22.3516C25.8434 22.3061 25.8167 22.327 25.7886 22.3743C25.7469 22.4445 25.7001 22.5114 25.6553 22.5794C25.549 22.7402 25.4449 22.9026 25.3356 23.061C25.2545 23.1786 25.1515 23.2148 25.0379 23.177C24.8677 23.1202 24.7909 22.9253 24.8752 22.7567C24.9017 22.7035 24.9368 22.6551 24.9693 22.6056C25.3433 22.0353 25.7176 21.4651 26.0921 20.8951C26.1156 20.8573 26.1415 20.8212 26.1696 20.7872C26.2673 20.6754 26.4153 20.6579 26.5273 20.7417C26.5818 20.7823 26.6203 20.8428 26.6355 20.9116C26.6506 20.9805 26.6414 21.0529 26.6095 21.1149C26.5762 21.1814 26.5336 21.2426 26.4929 21.3045C26.3768 21.481 26.2596 21.6567 26.1427 21.8326C26.0962 21.9028 26.0952 21.9043 26.1617 21.9537C26.4124 22.1396 26.6635 22.3249 26.9148 22.5097L26.6578 22.9205Z" fill="#45423E"/>
<path d="M29.6891 21.3503C29.7234 21.3761 29.7211 21.4154 29.7211 21.4525C29.722 22.1159 29.722 22.7791 29.7211 23.4423C29.722 23.465 29.7184 23.4875 29.7104 23.5086C29.6664 23.5654 29.6036 23.5631 29.5443 23.5633C29.3243 23.5644 29.1043 23.5519 28.8847 23.5474C28.2705 23.5333 27.6564 23.5418 27.0416 23.5431C26.9989 23.5431 26.9561 23.5456 26.9165 23.5658C26.8931 23.5772 26.8718 23.5935 26.8751 23.6248C26.8784 23.656 26.9031 23.6657 26.9278 23.6726C26.9451 23.6773 26.9628 23.6795 26.9806 23.6791C27.2821 23.6721 27.5834 23.6854 27.8854 23.6653C28.1754 23.6459 28.4668 23.6518 28.7581 23.6704C29.0093 23.6864 29.2613 23.6932 29.5131 23.7028C29.5772 23.7052 29.6412 23.7005 29.6983 23.7411C29.7268 23.8931 29.7714 24.0435 29.741 24.2017C29.7403 24.2162 29.7364 24.2303 29.7297 24.2429C29.6827 24.3024 29.6096 24.3036 29.5486 24.3307C29.4331 24.3818 29.3756 24.4652 29.3793 24.6008C29.3958 25.2203 29.3499 25.839 29.3579 26.4584C29.3589 26.5302 29.3602 26.6018 29.3677 26.6733C29.3838 26.828 29.3437 26.879 29.1968 26.8948C29.158 26.8989 29.1189 26.9002 29.0794 26.9012C29.0111 26.9022 28.9429 26.9026 28.8748 26.8969C28.6751 26.9301 28.4729 26.9324 28.2717 26.947C27.8987 26.9737 27.6246 26.8122 27.4303 26.4699C27.1604 25.9949 26.8883 25.5216 26.6414 25.0324C26.5306 24.8129 26.4278 24.5893 26.3112 24.3728C26.1237 24.025 26.1217 23.685 26.3407 23.3521C26.4362 23.2071 26.5059 23.0436 26.62 22.9122C26.6834 22.7539 26.7859 22.6221 26.878 22.4832C27.0893 22.1517 27.3123 21.8293 27.5525 21.5208C27.6258 21.4266 27.7278 21.3686 27.8219 21.301C27.9465 21.2651 28.3986 21.2555 28.5133 21.2516C28.6435 21.2469 28.774 21.2497 28.9044 21.2516C28.9665 21.252 29.5695 21.2868 29.6891 21.3503Z" fill="#EDAE50"/>
<path d="M37.3517 27.728C37.3115 27.7043 37.2865 27.6712 37.2892 27.6191C37.2974 27.4601 37.2006 27.3817 37.0823 27.3231C36.9246 27.2619 35.7237 27.1419 34.5297 27.583C34.1098 27.7276 33.7049 27.9081 33.3239 28.1469C33.2538 28.191 33.1761 28.2208 33.1103 28.2737C33.101 28.281 33.0834 28.2763 33.0696 28.2772C32.9761 28.1348 32.914 27.9735 32.8297 27.8255C32.699 27.5965 32.5608 27.3743 32.3843 27.1812C32.2455 27.0296 32.0883 26.9134 31.8896 26.8708C31.8349 26.8752 31.8268 26.8328 31.8201 26.7913C31.8142 26.7426 31.8121 26.6934 31.8139 26.6443C31.8139 26.3007 31.8081 25.9569 31.8153 25.6134C31.8219 25.2883 31.787 24.9648 31.7912 24.6401C31.7928 24.5165 31.7378 24.4326 31.631 24.3846C31.5885 24.3654 31.5471 24.3434 31.5072 24.3187C31.4768 24.2996 31.4438 24.2799 31.4572 24.2314L31.4612 23.9857C31.4966 23.9336 31.5446 23.941 31.5959 23.9491C32.1869 24.0437 32.7738 24.1605 33.3566 24.2996C34.0574 24.4682 34.7541 24.6532 35.4364 24.8944C35.9831 25.0875 36.5242 25.2975 37.0482 25.5544C37.2966 25.6763 37.5502 25.7883 37.7771 25.9535C37.8626 26.0156 37.9312 26.0982 37.9962 26.1842C38.1508 26.3887 38.1117 26.6261 38.0973 26.8588C38.0929 26.9315 38.0604 26.999 38.0546 27.0721C37.9208 27.2885 37.8066 27.5178 37.7136 27.7571C37.6946 27.8069 37.669 27.8253 37.6159 27.8062C37.5299 27.7751 37.4403 27.7538 37.3517 27.728Z" fill="#EDAE50"/>
<path d="M38.0559 27.0724C38.0261 27.0116 38.0308 26.9459 38.0419 26.8836C38.0652 26.7521 38.0569 26.6199 38.0569 26.4879C38.0569 26.3585 37.9897 26.2581 37.916 26.1659C37.8234 26.0507 37.71 25.9565 37.5825 25.8888C36.9861 25.5664 36.3686 25.2981 35.7368 25.0651C35.2801 24.8965 34.8195 24.7427 34.3514 24.6152C33.7597 24.4542 33.1659 24.3056 32.5648 24.1836C32.2194 24.1136 31.8715 24.0611 31.5258 23.9928C31.505 23.9887 31.4831 23.988 31.4624 23.9856C31.4624 23.9023 31.4624 23.8192 31.4624 23.7363C31.6747 23.7578 31.8836 23.8027 32.0932 23.8428C32.3657 23.8949 32.6377 23.9502 32.9092 24.0089C33.1943 24.071 33.4796 24.1313 33.7614 24.2109C33.9774 24.2718 34.1959 24.3236 34.4124 24.3836C34.9421 24.5304 35.4654 24.699 35.9823 24.8895C36.4022 25.0442 36.8082 25.236 37.2165 25.4214C37.605 25.5985 37.9818 25.8035 38.3442 26.0348C38.4505 26.1024 38.5482 26.1854 38.6486 26.2632C38.6842 26.2908 38.7161 26.324 38.6776 26.3755C38.5421 26.5032 38.4024 26.6254 38.2824 26.771C38.2024 26.8679 38.1317 26.9719 38.0559 27.0724Z" fill="#FCD38C"/>
<path d="M29.6892 23.5096L29.6899 23.7587C28.9788 23.6966 27.6532 23.6966 26.984 23.7367C26.9332 23.734 26.8825 23.7285 26.8323 23.72C26.7949 23.711 26.7373 23.6598 26.7383 23.6277C26.74 23.5689 26.7718 23.5405 26.8131 23.5187C26.8646 23.4912 26.9335 23.4861 26.9915 23.4861C27.6317 23.4861 28.2721 23.4758 28.9119 23.4922C29.1708 23.4988 29.4301 23.5029 29.6892 23.5096Z" fill="#FCD38C"/>
<path d="M40.6634 26.5313C40.6669 26.7756 40.6206 27.0005 40.5549 27.2213C40.4389 27.6121 40.2496 27.9608 40.0089 28.279C39.9601 28.3437 39.9575 28.3439 39.9064 28.28C39.6723 27.9873 39.485 27.6627 39.3245 27.3195C39.2038 27.0616 39.105 26.7944 39.0166 26.5227C38.9892 26.4385 38.9924 26.4234 39.0717 26.3802C39.3488 26.2289 39.6393 26.1214 39.9492 26.0744C40.0903 26.0529 40.2327 26.0533 40.3738 26.0349C40.388 26.0335 40.4023 26.0332 40.4165 26.034C40.5508 26.0366 40.5718 26.0547 40.6222 26.1848C40.667 26.3007 40.6661 26.4209 40.6634 26.5313Z" fill="#FEFEFE"/>
<path d="M31.4478 21.5469C31.4478 22.269 31.4557 23.8529 31.4722 24.2972C31.4326 24.3509 31.3811 24.3313 31.3347 24.3172C30.834 24.1617 30.3299 24.1848 29.8243 24.2831C29.7816 24.2913 29.7402 24.3026 29.7042 24.2654L29.7015 24.2691C29.6781 24.235 29.7015 20.7061 29.6985 20.4802C29.6971 20.3832 29.7124 20.2952 29.7578 20.21C29.8135 20.1053 29.8621 19.9964 29.9139 19.8891C29.9211 19.8813 29.9307 19.8765 29.9409 19.8755C30.5238 20.1403 31.0054 20.4476 31.4442 20.925C31.4378 21.0976 31.4442 21.3285 31.4478 21.5469Z" fill="#414141"/>
<path d="M29.943 19.8341H29.9343L29.9258 19.8323C29.9679 19.7255 29.9703 19.6134 29.9699 19.4996C29.9686 19.1597 29.9738 18.8197 29.9707 18.4799C29.9697 18.356 30.0048 18.2556 30.0775 18.1587C30.4364 17.6805 30.8263 17.2296 31.2445 16.8094C31.5102 16.5422 31.7922 16.294 32.1022 16.0845C32.1611 16.0995 32.1359 16.1402 32.1226 16.1716C31.9325 16.6174 31.9594 17.0848 32.0191 17.5488C32.0454 17.7532 32.0987 17.964 32.2585 18.1142C32.2699 18.1236 32.2775 18.1373 32.2799 18.1524C32.2823 18.1676 32.2793 18.1832 32.2715 18.1961C31.9105 18.3745 31.6271 18.6517 31.3878 18.9844C31.3524 19.0335 31.3263 19.0854 31.335 19.1502C31.3191 19.5552 31.3226 19.9598 31.3359 20.6262C31.3353 20.6333 31.3344 20.6405 31.3331 20.6475C31.2797 20.686 31.2449 20.6425 31.212 20.6128C31.0694 20.4837 30.9309 20.3498 30.7772 20.2347C30.6092 20.1087 30.4369 19.9912 30.2507 19.8976C30.1526 19.8485 30.0528 19.8153 29.943 19.8341Z" fill="#A19D98"/>
<path d="M32.3349 16.0347C32.4069 16.073 32.4436 16.1369 32.4619 16.219C32.5084 16.4279 32.5391 16.6403 32.5536 16.8544C32.5787 17.2204 32.5289 17.5746 32.4429 17.926C32.4249 17.9991 32.4043 18.0713 32.3587 18.1317C32.3132 18.1399 32.2992 18.1049 32.2809 18.0714C32.0688 17.6838 32.0303 17.2609 32.0566 16.8252C32.0601 16.7655 32.0691 16.7057 32.0728 16.6455C32.0849 16.4141 32.1784 16.196 32.3349 16.0347V16.0347Z" fill="#A19D98"/>
<path d="M31.6798 24.3411C31.7904 24.3927 31.8448 24.4686 31.8493 24.6095C31.8717 25.3195 31.8656 26.0295 31.8672 26.7394C31.8672 26.7848 31.8718 26.9741 31.8715 27.0267C31.8698 27.3212 31.8651 27.6159 31.8689 27.9103C31.8703 28.014 31.8298 28.0731 31.7457 28.1105C31.0425 28.315 30.1292 28.3049 29.4888 28.0878C29.3446 28.0411 29.3061 27.9838 29.3049 27.8254C29.3034 27.6177 29.3049 27.4099 29.3049 27.2022C29.3049 27.1154 29.3064 27.0285 29.3049 26.9416C29.3034 26.8547 29.3263 25.5083 29.3263 25.4668C29.3263 25.1495 29.3285 24.8321 29.3255 24.5149C29.3246 24.4151 29.3591 24.3551 29.4467 24.3135C30.4637 23.9717 30.9975 24.0711 31.6798 24.3411Z" fill="#A19D98"/>
<path d="M29.5165 26.2105V24.6791C29.5165 24.6526 29.5158 24.6261 29.5165 24.5995C29.5187 24.4944 29.5272 24.4803 29.6223 24.4433C29.9799 24.2974 31.0255 24.1593 31.5836 24.551C31.6718 24.6003 31.6859 24.6507 31.6897 24.7698C31.704 25.038 31.679 27.0305 31.6799 27.7979C31.6799 27.8132 31.6799 27.8283 31.6799 27.8434C31.6773 27.9528 31.6704 27.958 31.5659 27.9811C30.915 28.125 30.2676 28.106 29.6231 27.9356C29.5276 27.9105 29.5226 27.908 29.5224 27.7981C29.5215 27.4464 29.5215 27.0947 29.5224 26.7431C29.5224 26.5653 29.5224 26.3876 29.5224 26.2098L29.5165 26.2105Z" fill="#45423D"/>
<path d="M29.919 19.8557C29.9314 19.7586 29.9872 19.7484 30.0947 19.7753C30.2238 19.8161 30.3473 19.8748 30.4621 19.9499C30.7176 20.1121 30.9623 20.2907 31.1771 20.5122C31.2251 20.5617 31.2807 20.6031 31.3328 20.6477C31.3401 20.6803 31.3567 20.7098 31.3802 20.7321C31.4481 20.797 31.4572 20.872 31.4435 20.9666C31.3308 20.9495 31.2675 20.878 31.196 20.7941C31.0021 20.5669 30.7754 20.383 30.5351 20.2156C30.3871 20.1124 30.1605 19.9997 29.996 19.93C29.9396 19.9061 29.9125 19.9076 29.919 19.8557Z" fill="#DCF9FB"/>
<path d="M32.335 16.0347C32.3729 16.0567 32.3973 16.0668 32.2995 16.1588C32.1759 16.2767 32.094 16.574 32.1023 17.0616C32.1104 17.3848 32.1143 17.6725 32.3587 18.1317C32.3381 18.1658 32.311 18.1909 32.2713 18.196C31.8575 17.7633 31.8975 16.4318 32.1019 16.0844C32.1866 15.9912 32.2362 15.9806 32.335 16.0347Z" fill="#DCF9FB"/>
</g>
<defs>
<clipPath id="clip0_327_480140">
<rect width="32" height="28" fill="white" transform="translate(10 12)"/>
</clipPath>
</defs>
</svg>
