<svg width="25" height="25" viewBox="0 0 25 25" fill="none" xmlns="http://www.w3.org/2000/svg">
<g id="layout-alt-02">
<path id="Icon" d="M18.2441 11.5488H13.2441M18.2441 15.5488H13.2441M18.2441 7.54883H13.2441M9.74414 3.54883L9.74414 21.5488M8.54414 3.54883H16.9441C18.6243 3.54883 19.4644 3.54883 20.1061 3.87581C20.6706 4.16343 21.1295 4.62237 21.4172 5.18686C21.7441 5.82859 21.7441 6.66867 21.7441 8.34883V16.7488C21.7441 18.429 21.7441 19.2691 21.4172 19.9108C21.1295 20.4753 20.6706 20.9342 20.1061 21.2218C19.4644 21.5488 18.6243 21.5488 16.9441 21.5488H8.54414C6.86398 21.5488 6.0239 21.5488 5.38217 21.2218C4.81768 20.9342 4.35874 20.4753 4.07112 19.9108C3.74414 19.2691 3.74414 18.429 3.74414 16.7488V8.34883C3.74414 6.66867 3.74414 5.82859 4.07112 5.18686C4.35874 4.62237 4.81768 4.16343 5.38217 3.87581C6.0239 3.54883 6.86398 3.54883 8.54414 3.54883Z" stroke="black" stroke-width="1.5" stroke-linecap="round" stroke-linejoin="round"/>
</g>
</svg>
