<svg width="20" height="20" viewBox="0 0 20 20" fill="none" xmlns="http://www.w3.org/2000/svg">
<path d="M14.7995 1.60156C13.8776 1.60156 12.9557 1.95313 12.2552 2.65365L10.2552 4.65365C9.25779 5.65104 8.97133 7.09115 9.39061 8.34635L10.8281 6.90885C10.888 6.4974 11.0703 6.10156 11.3854 5.78646L13.3854 3.78646C13.776 3.39583 14.289 3.20052 14.7995 3.20052C15.3125 3.20052 15.8255 3.39583 16.2135 3.78646C16.9948 4.5651 16.9948 5.83333 16.2135 6.61458L14.2135 8.61458C13.8984 8.92969 13.5026 9.11198 13.0911 9.17187L11.6536 10.6094C12.026 10.7318 12.4114 10.7995 12.7995 10.7995C13.7213 10.7995 14.6432 10.4479 15.3463 9.74479L17.3463 7.74479C18.75 6.34115 18.75 4.05729 17.3463 2.65365C16.6432 1.95313 15.7213 1.60156 14.7995 1.60156ZM12.3854 6.79167C12.1771 6.79948 11.9791 6.88542 11.8333 7.03385L7.03383 11.8333C6.8255 12.0339 6.74217 12.3333 6.81508 12.6146C6.888 12.8932 7.10675 13.112 7.3854 13.1849C7.66665 13.2578 7.96613 13.1745 8.16665 12.9661L12.9661 8.16667C13.2031 7.9349 13.2734 7.58333 13.1458 7.28125C13.0156 6.97656 12.7135 6.78125 12.3854 6.79167ZM7.38019 9.20833C6.39842 9.15885 5.40363 9.50521 4.65363 10.2552L2.65363 12.2552C1.24998 13.6563 1.24998 15.9427 2.65363 17.3464C3.35675 18.0469 4.27863 18.3984 5.2005 18.3984C6.12238 18.3984 7.04425 18.0469 7.74477 17.3438L9.74477 15.3438C10.7422 14.349 11.0286 12.9089 10.6094 11.6536L9.17185 13.0911C9.11196 13.5026 8.92967 13.8984 8.61456 14.2135L6.61456 16.2135C5.83331 16.9948 4.56508 16.9948 3.78644 16.2135C3.00519 15.4349 3.00519 14.1667 3.78644 13.3854L5.78644 11.3854C6.10154 11.0703 6.49738 10.888 6.90883 10.8281L8.34633 9.39063C8.03123 9.28646 7.70571 9.22656 7.38019 9.20833Z" fill="white"/>
</svg>
