<svg width="19" height="18" viewBox="0 0 19 18" fill="none" xmlns="http://www.w3.org/2000/svg">
<path d="M5.54167 0.689941C4.81392 0.689941 4.09331 0.9098 3.42096 1.33697C2.74862 1.76413 2.13771 2.39024 1.62312 3.17953C1.10853 3.96883 0.700329 4.90586 0.421834 5.93713C0.143339 6.9684 0 8.07371 0 9.18994C0 10.3062 0.143339 11.4115 0.421834 12.4428C0.700329 13.474 1.10853 14.4111 1.62312 15.2003C2.13771 15.9896 2.74862 16.6158 3.42096 17.0429C4.09331 17.4701 4.81392 17.6899 5.54167 17.6899C6.26941 17.6899 6.99003 17.4701 7.66237 17.0429C8.33472 16.6158 8.94563 15.9896 9.46022 15.2003C9.97481 14.4111 10.383 13.474 10.6615 12.4428C10.94 11.4115 11.0833 10.3062 11.0833 9.18994C11.0833 8.07371 10.94 6.9684 10.6615 5.93713C10.383 4.90586 9.97481 3.96883 9.46022 3.17953C8.94563 2.39024 8.33472 1.76413 7.66237 1.33697C6.99003 0.9098 6.26941 0.689941 5.54167 0.689941ZM14.25 1.29708C13.6201 1.29708 13.016 2.12865 12.5706 3.60885C12.1252 5.08905 11.875 7.09663 11.875 9.18994C11.875 11.2833 12.1252 13.2908 12.5706 14.771C13.016 16.2512 13.6201 17.0828 14.25 17.0828C14.8799 17.0828 15.484 16.2512 15.9294 14.771C16.3748 13.2908 16.625 11.2833 16.625 9.18994C16.625 7.09663 16.3748 5.08905 15.9294 3.60885C15.484 2.12865 14.8799 1.29708 14.25 1.29708ZM18.2083 3.11851C17.9984 3.11851 17.797 3.75818 17.6485 4.89679C17.5001 6.03541 17.4167 7.5797 17.4167 9.18994C17.4167 10.8002 17.5001 12.3445 17.6485 13.4831C17.797 14.6217 17.9984 15.2614 18.2083 15.2614C18.4183 15.2614 18.6197 14.6217 18.7681 13.4831C18.9166 12.3445 19 10.8002 19 9.18994C19 7.5797 18.9166 6.03541 18.7681 4.89679C18.6197 3.75818 18.4183 3.11851 18.2083 3.11851Z" fill="#15202B"/>
</svg>
