<svg width="23" height="24" viewBox="0 0 23 24" fill="none" xmlns="http://www.w3.org/2000/svg">
<g clip-path="url(#clip0_8819_1171)">
<path d="M6.28535 5.64514C9.75666 5.64514 12.5705 8.47861 12.5705 11.9736C12.5705 15.4686 9.75645 18.3019 6.28535 18.3019C2.81425 18.3019 0 15.4686 0 11.9736C0 8.47861 2.81404 5.64514 6.28535 5.64514ZM16.3226 6.01585C18.0583 6.01585 19.4653 8.68297 19.4653 11.9736H19.4655C19.4655 15.2634 18.0585 17.9314 16.3228 17.9314C14.5872 17.9314 13.1801 15.2634 13.1801 11.9736C13.1801 8.68382 14.5869 6.01585 16.3226 6.01585ZM21.1804 6.6364C21.7907 6.6364 22.2857 9.02591 22.2857 11.9736C22.2857 14.9205 21.7909 17.3109 21.1804 17.3109C20.5699 17.3109 20.0754 14.9211 20.0754 11.9736C20.0754 9.02613 20.5701 6.6364 21.1804 6.6364Z" fill="#2E2E2E"/>
</g>
<defs>
<clipPath id="clip0_8819_1171">
<rect width="22.2857" height="22.2857" fill="white" transform="translate(0 0.857178)"/>
</clipPath>
</defs>
</svg>
