<svg width="25" height="25" viewBox="0 0 25 25" fill="none" xmlns="http://www.w3.org/2000/svg">
<path d="M10.9272 15.5313L7.85199 18.645C7.42303 19.0793 7.20855 19.2965 7.0242 19.3118C6.86426 19.3251 6.70766 19.2608 6.6032 19.139C6.4828 18.9985 6.4828 18.6933 6.4828 18.0828V16.5229C6.4828 15.9753 6.03432 15.579 5.49245 15.4996V15.4996C4.18099 15.3075 3.15102 14.2776 2.95892 12.9661C2.92725 12.7499 2.92725 12.4918 2.92725 11.9758V7.33131C2.92725 5.65115 2.92725 4.81107 3.25423 4.16934C3.54185 3.60485 4.00079 3.14591 4.56527 2.85829C5.20701 2.53131 6.04709 2.53131 7.72725 2.53131H15.1272C16.8074 2.53131 17.6475 2.53131 18.2892 2.85829C18.8537 3.14591 19.3126 3.60485 19.6003 4.16934C19.9272 4.81107 19.9272 5.65115 19.9272 7.33131V11.5313M19.9272 22.5313L17.7508 21.0182C17.4449 20.8055 17.2919 20.6991 17.1254 20.6237C16.9777 20.5568 16.8223 20.5081 16.6628 20.4787C16.4831 20.4456 16.2968 20.4456 15.9242 20.4456H14.1272C13.0071 20.4456 12.4471 20.4456 12.0193 20.2276C11.6429 20.0359 11.337 19.7299 11.1452 19.3536C10.9272 18.9258 10.9272 18.3657 10.9272 17.2456V14.7313C10.9272 13.6112 10.9272 13.0512 11.1452 12.6233C11.337 12.247 11.6429 11.941 12.0193 11.7493C12.4471 11.5313 13.0071 11.5313 14.1272 11.5313H19.7272C20.8474 11.5313 21.4074 11.5313 21.8352 11.7493C22.2116 11.941 22.5175 12.247 22.7093 12.6233C22.9272 13.0512 22.9272 13.6112 22.9272 14.7313V17.4456C22.9272 18.3775 22.9272 18.8434 22.775 19.211C22.572 19.701 22.1827 20.0904 21.6926 20.2934C21.3251 20.4456 20.8591 20.4456 19.9272 20.4456V22.5313Z" stroke="black" stroke-width="2" stroke-linecap="round" stroke-linejoin="round"/>
</svg>
