<svg width="40" height="41" viewBox="0 0 40 41" fill="none" xmlns="http://www.w3.org/2000/svg">
<rect y="0.5" width="40" height="40" rx="20" fill="#FF9400"/>
<path d="M25.7143 10.4109C24.6167 10.4109 23.5191 10.8402 22.6851 11.6956L20.3039 14.1379C19.1163 15.3558 18.7753 17.1143 19.2745 18.647L20.986 16.8917C21.0573 16.3893 21.2743 15.9059 21.6495 15.5211L24.0307 13.0789C24.4958 12.6019 25.1066 12.3634 25.7143 12.3634C26.3251 12.3634 26.9359 12.6019 27.3979 13.0789C28.328 14.0297 28.328 15.5784 27.3979 16.5324L25.0167 18.9746C24.6415 19.3593 24.1702 19.5819 23.6803 19.6551L21.9688 21.4104C22.4122 21.5599 22.8711 21.6425 23.3331 21.6425C24.4307 21.6425 25.5283 21.2132 26.3654 20.3547L28.7466 17.9125C30.4178 16.1985 30.4178 13.4096 28.7466 11.6956C27.9095 10.8402 26.8119 10.4109 25.7143 10.4109ZM22.8401 16.7486C22.592 16.7581 22.3564 16.8631 22.1828 17.0443L16.4685 22.905C16.2204 23.1498 16.1212 23.5155 16.208 23.859C16.2949 24.1992 16.5553 24.4663 16.8871 24.5554C17.2219 24.6444 17.5785 24.5427 17.8172 24.2883L23.5315 18.4276C23.8137 18.1446 23.8974 17.7153 23.7454 17.3464C23.5904 16.9744 23.2308 16.7359 22.8401 16.7486ZM16.8809 19.6996C15.712 19.6392 14.5276 20.0621 13.6346 20.9779L11.2534 23.4201C9.5822 25.1309 9.5822 27.9229 11.2534 29.6369C12.0905 30.4923 13.1881 30.9216 14.2857 30.9216C15.3833 30.9216 16.4809 30.4923 17.3149 29.6338L19.6961 27.1915C20.8837 25.9768 21.2247 24.2183 20.7255 22.6856L19.014 24.4409C18.9427 24.9433 18.7257 25.4267 18.3505 25.8115L15.9693 28.2537C15.0391 29.2076 13.5292 29.2076 12.6021 28.2537C11.672 27.3028 11.672 25.7542 12.6021 24.8002L14.9833 22.358C15.3585 21.9733 15.8298 21.7507 16.3197 21.6775L18.0312 19.9222C17.656 19.795 17.2684 19.7218 16.8809 19.6996Z" fill="white"/>
</svg>
