<svg width="20" height="20" viewBox="0 0 20 20" fill="none" xmlns="http://www.w3.org/2000/svg">
<path d="M12.7582 7.1096V4.35526C12.7582 3.7006 12.7582 3.37327 12.6203 3.17211C12.4998 2.99636 12.3132 2.87697 12.1031 2.84122C11.8627 2.80031 11.5655 2.93748 10.9711 3.21182L3.98911 6.43426C3.45899 6.67893 3.19393 6.80126 2.9998 6.99099C2.82817 7.15872 2.69716 7.36347 2.61679 7.58959C2.52588 7.84537 2.52588 8.1373 2.52588 8.72115V12.6193M13.1517 12.2257H13.1596M2.52588 9.62831L2.52588 14.8232C2.52588 15.7048 2.52588 16.1456 2.69746 16.4824C2.84838 16.7786 3.0892 17.0194 3.38541 17.1703C3.72215 17.3419 4.16296 17.3419 5.0446 17.3419H14.1749C15.0566 17.3419 15.4974 17.3419 15.8341 17.1703C16.1303 17.0194 16.3712 16.7786 16.5221 16.4824C16.6937 16.1456 16.6937 15.7048 16.6937 14.8232V9.62831C16.6937 8.74668 16.6937 8.30586 16.5221 7.96912C16.3712 7.67292 16.1303 7.4321 15.8341 7.28117C15.4974 7.1096 15.0566 7.1096 14.1749 7.1096L5.0446 7.1096C4.16296 7.1096 3.72215 7.1096 3.38541 7.28117C3.0892 7.4321 2.84838 7.67292 2.69746 7.96912C2.52588 8.30586 2.52588 8.74668 2.52588 9.62831ZM13.5453 12.2257C13.5453 12.4431 13.3691 12.6193 13.1517 12.6193C12.9344 12.6193 12.7582 12.4431 12.7582 12.2257C12.7582 12.0084 12.9344 11.8322 13.1517 11.8322C13.3691 11.8322 13.5453 12.0084 13.5453 12.2257Z" stroke="black" stroke-width="1.5742" stroke-linecap="round" stroke-linejoin="round"/>
</svg>
