<svg width="30" height="30" viewBox="0 0 30 30" fill="none" xmlns="http://www.w3.org/2000/svg">
<path d="M14.9313 5.46564C15.8026 5.46564 16.5089 4.75932 16.5089 3.88803C16.5089 3.01674 15.8026 2.31042 14.9313 2.31042C14.06 2.31042 13.3537 3.01674 13.3537 3.88803C13.3537 4.75932 14.06 5.46564 14.9313 5.46564Z" stroke="#7A7A7A" stroke-width="3.15522" stroke-linecap="round" stroke-linejoin="round"/>
<path d="M14.9313 16.5089C15.8026 16.5089 16.5089 15.8026 16.5089 14.9313C16.5089 14.06 15.8026 13.3537 14.9313 13.3537C14.06 13.3537 13.3537 14.06 13.3537 14.9313C13.3537 15.8026 14.06 16.5089 14.9313 16.5089Z" stroke="#7A7A7A" stroke-width="3.15522" stroke-linecap="round" stroke-linejoin="round"/>
<path d="M14.9313 27.5522C15.8026 27.5522 16.5089 26.8458 16.5089 25.9745C16.5089 25.1033 15.8026 24.3969 14.9313 24.3969C14.06 24.3969 13.3537 25.1033 13.3537 25.9745C13.3537 26.8458 14.06 27.5522 14.9313 27.5522Z" stroke="#7A7A7A" stroke-width="3.15522" stroke-linecap="round" stroke-linejoin="round"/>
<path d="M25.9745 5.46564C26.8458 5.46564 27.5522 4.75932 27.5522 3.88803C27.5522 3.01674 26.8458 2.31042 25.9745 2.31042C25.1033 2.31042 24.3969 3.01674 24.3969 3.88803C24.3969 4.75932 25.1033 5.46564 25.9745 5.46564Z" stroke="#7A7A7A" stroke-width="3.15522" stroke-linecap="round" stroke-linejoin="round"/>
<path d="M25.9745 16.5089C26.8458 16.5089 27.5522 15.8026 27.5522 14.9313C27.5522 14.06 26.8458 13.3537 25.9745 13.3537C25.1033 13.3537 24.3969 14.06 24.3969 14.9313C24.3969 15.8026 25.1033 16.5089 25.9745 16.5089Z" stroke="#7A7A7A" stroke-width="3.15522" stroke-linecap="round" stroke-linejoin="round"/>
<path d="M25.9745 27.5522C26.8458 27.5522 27.5522 26.8458 27.5522 25.9745C27.5522 25.1033 26.8458 24.3969 25.9745 24.3969C25.1033 24.3969 24.3969 25.1033 24.3969 25.9745C24.3969 26.8458 25.1033 27.5522 25.9745 27.5522Z" stroke="#7A7A7A" stroke-width="3.15522" stroke-linecap="round" stroke-linejoin="round"/>
<path d="M3.88803 5.46564C4.75932 5.46564 5.46564 4.75932 5.46564 3.88803C5.46564 3.01674 4.75932 2.31042 3.88803 2.31042C3.01674 2.31042 2.31042 3.01674 2.31042 3.88803C2.31042 4.75932 3.01674 5.46564 3.88803 5.46564Z" stroke="#7A7A7A" stroke-width="3.15522" stroke-linecap="round" stroke-linejoin="round"/>
<path d="M3.88803 16.5089C4.75932 16.5089 5.46564 15.8026 5.46564 14.9313C5.46564 14.06 4.75932 13.3537 3.88803 13.3537C3.01674 13.3537 2.31042 14.06 2.31042 14.9313C2.31042 15.8026 3.01674 16.5089 3.88803 16.5089Z" stroke="#7A7A7A" stroke-width="3.15522" stroke-linecap="round" stroke-linejoin="round"/>
<path d="M3.88803 27.5522C4.75932 27.5522 5.46564 26.8458 5.46564 25.9745C5.46564 25.1033 4.75932 24.3969 3.88803 24.3969C3.01674 24.3969 2.31042 25.1033 2.31042 25.9745C2.31042 26.8458 3.01674 27.5522 3.88803 27.5522Z" stroke="#7A7A7A" stroke-width="3.15522" stroke-linecap="round" stroke-linejoin="round"/>
</svg>
