<svg width="37" height="37" viewBox="0 0 37 37" fill="none" xmlns="http://www.w3.org/2000/svg">
<rect width="37" height="37" rx="5" fill="black"/>
<path d="M13.2917 8C12.3341 8 11.3859 8.25866 10.5013 8.7612C9.6166 9.26375 8.81277 10.0003 8.13568 10.9289C7.45859 11.8575 6.92149 12.9599 6.55505 14.1732C6.1886 15.3864 6 16.6868 6 18C6 19.3132 6.1886 20.6136 6.55505 21.8268C6.92149 23.0401 7.45859 24.1425 8.13568 25.0711C8.81277 25.9997 9.6166 26.7362 10.5013 27.2388C11.3859 27.7413 12.3341 28 13.2917 28C14.2492 28 15.1974 27.7413 16.0821 27.2388C16.9667 26.7362 17.7706 25.9997 18.4477 25.0711C19.1247 24.1425 19.6618 23.0401 20.0283 21.8268C20.3947 20.6136 20.5833 19.3132 20.5833 18C20.5833 16.6868 20.3947 15.3864 20.0283 14.1732C19.6618 12.9599 19.1247 11.8575 18.4477 10.9289C17.7706 10.0003 16.9667 9.26375 16.0821 8.7612C15.1974 8.25866 14.2492 8 13.2917 8ZM24.75 8.71429C23.9212 8.71429 23.1263 9.6926 22.5403 11.434C21.9542 13.1754 21.625 15.5373 21.625 18C21.625 20.4627 21.9542 22.8246 22.5403 24.566C23.1263 26.3074 23.9212 27.2857 24.75 27.2857C25.5788 27.2857 26.3737 26.3074 26.9597 24.566C27.5458 22.8246 27.875 20.4627 27.875 18C27.875 15.5373 27.5458 13.1754 26.9597 11.434C26.3737 9.6926 25.5788 8.71429 24.75 8.71429ZM29.9583 10.8571C29.6821 10.8571 29.4171 11.6097 29.2218 12.9492C29.0264 14.2888 28.9167 16.1056 28.9167 18C28.9167 19.8944 29.0264 21.7112 29.2218 23.0508C29.4171 24.3903 29.6821 25.1429 29.9583 25.1429C30.2346 25.1429 30.4996 24.3903 30.6949 23.0508C30.8903 21.7112 31 19.8944 31 18C31 16.1056 30.8903 14.2888 30.6949 12.9492C30.4996 11.6097 30.2346 10.8571 29.9583 10.8571Z" fill="white"/>
</svg>
