<svg width="25" height="25" viewBox="0 0 25 25" fill="none" xmlns="http://www.w3.org/2000/svg">
<g id="pie-chart-01">
<path id="Icon" d="M21.3471 16.2382C20.7109 17.7427 19.7159 19.0684 18.449 20.0995C17.1821 21.1306 15.6819 21.8356 14.0796 22.153C12.4772 22.4703 10.8215 22.3904 9.25727 21.92C7.69299 21.4497 6.26775 20.6033 5.10614 19.4549C3.94454 18.3065 3.08194 16.891 2.59376 15.3322C2.10558 13.7734 2.00668 12.1187 2.30572 10.5128C2.60476 8.90699 3.29262 7.39884 4.30917 6.12024C5.32572 4.84165 6.64 3.83153 8.13712 3.17821M21.3759 8.52138C21.7762 9.48784 22.0218 10.5096 22.1051 11.5491C22.1257 11.8059 22.136 11.9343 22.085 12.0499C22.0424 12.1465 21.958 12.238 21.8651 12.2881C21.7539 12.3482 21.615 12.3482 21.3371 12.3482H12.9371C12.6571 12.3482 12.5171 12.3482 12.4101 12.2937C12.316 12.2458 12.2396 12.1693 12.1916 12.0752C12.1371 11.9683 12.1371 11.8282 12.1371 11.5482V3.14821C12.1371 2.87035 12.1371 2.73141 12.1972 2.6202C12.2474 2.52729 12.3388 2.4429 12.4354 2.40031C12.5511 2.34931 12.6795 2.35961 12.9363 2.3802C13.9758 2.46353 14.9975 2.7091 15.964 3.10942C17.1772 3.61197 18.2796 4.34856 19.2082 5.27715C20.1368 6.20573 20.8734 7.30812 21.3759 8.52138Z" stroke="black" stroke-width="2" stroke-linecap="round" stroke-linejoin="round"/>
</g>
</svg>
