<svg width="15" height="15" viewBox="0 0 15 15" fill="none" xmlns="http://www.w3.org/2000/svg">
<path d="M7.5 15C11.6563 15 15 11.6563 15 7.5C15 3.34372 11.6563 0 7.5 0C3.34372 0 0 3.34372 0 7.5C0 11.6563 3.34372 15 7.5 15Z" fill="#CCCFFF"/>
<path d="M9.62167 6.33038C9.46792 6.24079 9.26834 6.24079 9.09917 6.33038L7.89959 7.01954L7.085 7.46871L5.88542 8.15746C5.73167 8.24746 5.53209 8.24746 5.36292 8.15746L4.40959 7.61829C4.25584 7.52871 4.14834 7.36413 4.14834 7.18413V6.12079C4.14834 5.94121 4.24042 5.77663 4.40959 5.68663L5.34709 5.16246C5.50125 5.07246 5.70125 5.07246 5.87042 5.16246L6.80792 5.68663C6.96209 5.77663 7.06959 5.94121 7.06959 6.12079V6.80996L7.88417 6.34538V5.65663C7.88507 5.56717 7.86113 5.47922 7.815 5.40256C7.76888 5.32591 7.70238 5.26356 7.62292 5.22246L5.88542 4.23413C5.73167 4.14413 5.53209 4.14413 5.36292 4.23413L3.59459 5.22246C3.51513 5.26356 3.44863 5.32591 3.40251 5.40256C3.35638 5.47922 3.33244 5.56717 3.33334 5.65663V7.64829C3.33334 7.82829 3.42542 7.99288 3.59459 8.08288L5.36292 9.07121C5.51667 9.16079 5.71667 9.16079 5.88542 9.07121L7.085 8.39704L7.89959 7.93288L9.09917 7.25913C9.25292 7.16913 9.4525 7.16913 9.62167 7.25913L10.5596 7.78329C10.7138 7.87288 10.8208 8.03746 10.8208 8.21746V9.28079C10.8208 9.46038 10.7292 9.62496 10.5596 9.71496L9.62209 10.2541C9.46792 10.3441 9.26792 10.3441 9.09917 10.2541L8.16125 9.72996C8.00709 9.63996 7.89959 9.47538 7.89959 9.29579V8.60663L7.085 9.07121V9.75996C7.085 9.93954 7.17709 10.1045 7.34625 10.1941L9.11459 11.1825C9.26834 11.2725 9.46792 11.2725 9.63709 11.1825L11.4054 10.1941C11.5592 10.1045 11.6667 9.93996 11.6667 9.75996V7.76829C11.6676 7.67884 11.6436 7.59088 11.5975 7.51423C11.5514 7.43758 11.4849 7.37523 11.4054 7.33413L9.62209 6.33038H9.62167Z" fill="#A68AF2"/>
</svg>
