<svg width="29" height="29" viewBox="0 0 29 29" fill="none" xmlns="http://www.w3.org/2000/svg">
<g id="wallet-03">
<path id="Icon" d="M19.5368 16.6442H19.5486M3.69385 6.08225V22.512C3.69385 23.8083 4.74468 24.8591 6.04095 24.8591H22.4707C23.767 24.8591 24.8178 23.8083 24.8178 22.512V10.7765C24.8178 9.48019 23.767 8.42935 22.4707 8.42935L6.04095 8.42935C4.74468 8.42935 3.69385 7.37852 3.69385 6.08225ZM3.69385 6.08225C3.69385 4.78597 4.74468 3.73514 6.04096 3.73514H20.1236M20.1236 16.6442C20.1236 16.9683 19.8609 17.231 19.5368 17.231C19.2128 17.231 18.95 16.9683 18.95 16.6442C18.95 16.3202 19.2128 16.0575 19.5368 16.0575C19.8609 16.0575 20.1236 16.3202 20.1236 16.6442Z" stroke="#475467" stroke-width="2.34711" stroke-linecap="round" stroke-linejoin="round"/>
</g>
</svg>
