<svg width="29" height="29" viewBox="0 0 29 29" fill="none" xmlns="http://www.w3.org/2000/svg">
<path d="M19.5368 16.6443H19.5486M3.69385 6.08234V22.5121C3.69385 23.8084 4.74468 24.8592 6.04095 24.8592H22.4707C23.767 24.8592 24.8178 23.8084 24.8178 22.5121V10.7766C24.8178 9.48028 23.767 8.42945 22.4707 8.42945L6.04095 8.42944C4.74468 8.42944 3.69385 7.37861 3.69385 6.08234ZM3.69385 6.08234C3.69385 4.78607 4.74468 3.73523 6.04096 3.73523H20.1236M20.1236 16.6443C20.1236 16.9684 19.8609 17.2311 19.5368 17.2311C19.2128 17.2311 18.95 16.9684 18.95 16.6443C18.95 16.3203 19.2128 16.0575 19.5368 16.0575C19.8609 16.0575 20.1236 16.3203 20.1236 16.6443Z" stroke="#475467" stroke-width="2.34711" stroke-linecap="round" stroke-linejoin="round"/>
</svg>
