<svg width="24" height="23" viewBox="0 0 24 23" fill="none" xmlns="http://www.w3.org/2000/svg">
<path d="M17.2805 13.6586H17.2922M1.4375 3.09662V19.5264C1.4375 20.8226 2.48834 21.8735 3.78461 21.8735H20.2144C21.5106 21.8735 22.5615 20.8226 22.5615 19.5264V7.79084C22.5615 6.49456 21.5106 5.44373 20.2144 5.44373L3.78461 5.44373C2.48834 5.44373 1.4375 4.39289 1.4375 3.09662ZM1.4375 3.09662C1.4375 1.80035 2.48834 0.749512 3.78461 0.749512H17.8673M17.8673 13.6586C17.8673 13.9827 17.6045 14.2454 17.2805 14.2454C16.9564 14.2454 16.6937 13.9827 16.6937 13.6586C16.6937 13.3345 16.9564 13.0718 17.2805 13.0718C17.6045 13.0718 17.8673 13.3345 17.8673 13.6586Z" stroke="black" stroke-linecap="round" stroke-linejoin="round"/>
</svg>
