<svg width="25" height="24" viewBox="0 0 25 24" fill="none" xmlns="http://www.w3.org/2000/svg">
<path d="M21.7104 15.8896C21.0742 17.3941 20.0792 18.7198 18.8123 19.7509C17.5454 20.782 16.0452 21.487 14.4428 21.8044C12.8405 22.1217 11.1848 22.0417 9.62055 21.5714C8.05627 21.101 6.63103 20.2547 5.46942 19.1062C4.30782 17.9578 3.44522 16.5423 2.95704 14.9835C2.46886 13.4247 2.36996 11.7701 2.669 10.1642C2.96804 8.55836 3.6559 7.05021 4.67245 5.77161C5.689 4.49301 7.00329 3.4829 8.5004 2.82958M21.7392 8.17275C22.1395 9.13921 22.3851 10.1609 22.4684 11.2004C22.489 11.4572 22.4993 11.5856 22.4483 11.7013C22.4057 11.7979 22.3213 11.8893 22.2284 11.9395C22.1172 11.9996 21.9783 11.9996 21.7004 11.9996H13.3004C13.0204 11.9996 12.8804 11.9996 12.7734 11.9451C12.6793 11.8971 12.6028 11.8207 12.5549 11.7266C12.5004 11.6196 12.5004 11.4796 12.5004 11.1996V2.79958C12.5004 2.52171 12.5004 2.38278 12.5605 2.27156C12.6107 2.17866 12.7021 2.09427 12.7987 2.05167C12.9144 2.00068 13.0428 2.01098 13.2996 2.03156C14.339 2.1149 15.3608 2.36046 16.3272 2.76079C17.5405 3.26333 18.6429 3.99993 19.5715 4.92851C20.5001 5.8571 21.2367 6.95949 21.7392 8.17275Z" stroke="black" stroke-width="1.5" stroke-linecap="round" stroke-linejoin="round"/>
</svg>
