<svg width="29" height="29" viewBox="0 0 29 29" fill="none" xmlns="http://www.w3.org/2000/svg">
<path d="M19.5373 16.9335H19.549M3.69434 6.37152V22.8013C3.69434 24.0975 4.74517 25.1484 6.04144 25.1484H22.4712C23.7675 25.1484 24.8183 24.0975 24.8183 22.8013V11.0657C24.8183 9.76947 23.7675 8.71863 22.4712 8.71863L6.04144 8.71863C4.74517 8.71863 3.69434 7.66779 3.69434 6.37152ZM3.69434 6.37152C3.69434 5.07525 4.74517 4.02441 6.04144 4.02441H20.1241M20.1241 16.9335C20.1241 17.2576 19.8614 17.5203 19.5373 17.5203C19.2132 17.5203 18.9505 17.2576 18.9505 16.9335C18.9505 16.6094 19.2132 16.3467 19.5373 16.3467C19.8614 16.3467 20.1241 16.6094 20.1241 16.9335Z" stroke="black" stroke-width="2.34711" stroke-linecap="round" stroke-linejoin="round"/>
</svg>
