<svg width="22" height="22" viewBox="0 0 22 22" fill="none" xmlns="http://www.w3.org/2000/svg">
<path d="M19.0835 14.4056C18.5264 15.723 17.6551 16.8839 16.5458 17.7868C15.4364 18.6897 14.1227 19.3071 12.7196 19.5849C11.3165 19.8628 9.86669 19.7928 8.49691 19.3809C7.12713 18.9691 5.8791 18.2279 4.86193 17.2223C3.84475 16.2167 3.08941 14.9772 2.66193 13.6122C2.23445 12.2472 2.14785 10.7983 2.40971 9.39212C2.67156 7.98594 3.27389 6.66531 4.16405 5.54569C5.0542 4.42607 6.20507 3.54155 7.51604 2.96946M19.1087 7.64827C19.4593 8.49456 19.6743 9.38926 19.7473 10.2995C19.7653 10.5244 19.7743 10.6368 19.7297 10.7381C19.6924 10.8227 19.6185 10.9027 19.5371 10.9467C19.4397 10.9993 19.3181 10.9993 19.0748 10.9993H11.7192C11.474 10.9993 11.3514 10.9993 11.2577 10.9516C11.1754 10.9096 11.1084 10.8426 11.0664 10.7602C11.0187 10.6666 11.0187 10.544 11.0187 10.2988V2.94319C11.0187 2.69988 11.0187 2.57822 11.0713 2.48083C11.1152 2.39948 11.1953 2.32558 11.2799 2.28828C11.3812 2.24363 11.4936 2.25264 11.7185 2.27067C12.6287 2.34365 13.5234 2.55868 14.3697 2.90922C15.4321 3.34928 16.3974 3.99429 17.2105 4.80742C18.0237 5.62055 18.6687 6.58587 19.1087 7.64827Z" stroke="#15202B" stroke-linecap="round" stroke-linejoin="round"/>
</svg>
