<svg width="37" height="37" viewBox="0 0 37 37" fill="none" xmlns="http://www.w3.org/2000/svg">
<path d="M36.7321 18.6962C36.7321 8.73735 28.6588 0.664062 18.6999 0.664062C8.74104 0.664062 0.667755 8.73735 0.667755 18.6962C0.667755 28.6551 8.74104 36.7284 18.6999 36.7284C28.6588 36.7284 36.7321 28.6551 36.7321 18.6962Z" fill="url(#paint0_linear_685_214227)"/>
<mask id="mask0_685_214227" style="mask-type:luminance" maskUnits="userSpaceOnUse" x="7" y="9" width="24" height="20">
<path d="M30.0815 9.06555H7.31819V28.9834H30.0815V9.06555Z" fill="white"/>
</mask>
<g mask="url(#mask0_685_214227)">
<path d="M28.2453 21.9936C28.3201 22.0537 28.3691 22.1053 28.4428 22.1666C28.4873 22.2037 28.4877 22.2037 28.5314 22.1633C28.5619 22.1349 28.5913 22.1053 28.6227 22.0775C28.7484 21.9644 28.9177 21.97 29.0348 22.0931C29.0814 22.1425 29.1256 22.1946 29.1664 22.2493C29.2679 22.3834 29.2578 22.5589 29.1432 22.6811C29.1112 22.7152 29.077 22.7474 29.0426 22.7788C29.0135 22.8047 29.0124 22.8301 29.0331 22.8627C29.0753 22.9297 29.1164 22.9977 29.156 23.0665C29.2065 23.1535 29.2513 23.2444 29.2938 23.3358C29.3343 23.423 29.3343 23.4223 29.4181 23.3943C29.4588 23.3796 29.5003 23.3671 29.5423 23.3571C29.6789 23.3293 29.8085 23.3995 29.8669 23.535C29.9023 23.6186 29.9287 23.7061 29.9457 23.7958C29.9709 23.9238 29.8974 24.0658 29.7797 24.1288C29.7344 24.153 29.6843 24.1635 29.6367 24.1817C29.5791 24.2036 29.574 24.2081 29.5834 24.2678C29.6139 24.4564 29.6353 24.6459 29.6367 24.8373C29.6372 24.8791 29.6519 24.9029 29.6931 24.9066C29.7283 24.9096 29.7633 24.9166 29.7985 24.9205C29.9384 24.9359 30.0336 25.0101 30.0751 25.1561C30.0786 25.1687 30.0877 25.4323 30.0757 25.5035C30.0487 25.6613 29.9333 25.7735 29.7815 25.78C29.7487 25.7816 29.7156 25.7793 29.6834 25.7734C29.6235 25.7616 29.584 25.7884 29.5694 25.8499C29.5337 26.001 29.4859 26.1477 29.4344 26.2934C29.4194 26.3355 29.428 26.3724 29.461 26.402C29.4782 26.4174 29.5446 26.4934 29.5553 26.5188C29.5799 26.5767 29.4735 26.4864 29.4488 26.4715C29.3926 26.437 28.7029 26.032 28.4462 25.8868C28.4644 25.7426 28.5307 25.5578 28.5575 25.4155C28.6936 24.6902 28.5528 24.0287 28.1586 23.4247C27.831 22.9225 27.3821 22.6011 26.8308 22.4419C26.3456 22.3015 25.8648 22.33 25.3931 22.5131C25.0028 22.6646 24.5754 22.9131 24.3409 23.3044C24.3141 23.3365 24.3013 23.3326 24.2589 23.3127C24.1122 23.2349 23.5372 22.8367 23.3034 22.6919C23.1997 22.5814 23.1311 22.4004 23.209 22.2668C23.2645 22.1717 23.3393 22.0943 23.4193 22.025C23.5317 21.9274 23.6948 21.9302 23.8144 22.0218C23.9625 22.1355 23.9623 22.1349 24.1064 22.0129C24.1815 21.9491 24.2617 21.8926 24.3407 21.8341C24.4143 21.78 24.4195 21.7581 24.3852 21.6732C24.2912 21.4413 24.3514 21.2652 24.5633 21.1507C24.6191 21.119 24.6776 21.0925 24.738 21.0719C24.8996 21.0195 25.0485 21.0808 25.1364 21.234C25.228 21.3937 25.2274 21.3934 25.3999 21.3512C25.4911 21.3289 25.5836 21.313 25.6757 21.2953C25.7676 21.2773 25.7816 21.2619 25.7869 21.1652C25.789 21.1167 25.7958 21.0687 25.8074 21.0218C25.8317 20.9283 25.8757 20.8462 25.9671 20.8092C26.1408 20.7388 26.3164 20.7254 26.4871 20.8178C26.5878 20.8724 26.6347 20.9665 26.636 21.0882C26.6379 21.2705 26.6391 21.2722 26.8065 21.3009C26.9168 21.3198 27.0245 21.3482 27.1327 21.3753C27.215 21.396 27.2362 21.3879 27.2682 21.3037C27.3491 21.0906 27.5507 20.9819 27.7883 21.106C27.8555 21.1412 27.9263 21.167 27.9851 21.2237C28.1038 21.3382 28.1122 21.507 28.0634 21.6303C28.0564 21.6476 28.0481 21.6643 28.0415 21.6818C28.0088 21.7672 28.0054 21.8173 28.0054 21.8173C28.0054 21.8173 28.1718 21.9346 28.2453 21.9936Z" fill="#5F5F5F"/>
<path d="M28.4076 25.8168C28.4766 25.887 29.3992 26.4237 29.4789 26.4743C29.5026 26.4776 29.5208 26.4942 29.5421 26.5035C29.5586 26.5191 29.5731 26.5352 29.588 26.5525C29.6612 26.6613 29.6598 26.7762 29.6176 26.8963C29.5906 26.96 29.5586 27.0211 29.5213 27.0786C29.4343 27.2176 29.2741 27.2614 29.1333 27.1859C29.0904 27.163 29.0487 27.1374 29.0079 27.1099C28.9785 27.0903 28.9582 27.0955 28.9373 27.1248C28.8244 27.2836 28.6988 27.4317 28.5623 27.5678C28.5346 27.5951 28.5314 27.6189 28.5546 27.6508C28.5814 27.6863 28.606 27.724 28.63 27.7618C28.7274 27.9154 28.7011 28.0924 28.5635 28.2062C28.5155 28.2456 28.4667 28.2841 28.4159 28.3193C28.2789 28.4137 28.1187 28.3873 28.0145 28.2535C27.9857 28.2162 27.9589 28.177 27.9336 28.1365C27.9116 28.1012 27.8893 28.0933 27.8522 28.1157C27.6959 28.2102 27.5306 28.285 27.3621 28.3512C27.3007 28.3754 27.3014 28.3762 27.3133 28.4444C27.3175 28.468 27.321 28.4922 27.3252 28.5158C27.3646 28.7156 27.3197 28.8238 27.1553 28.9262C27.1129 28.9513 27.0641 28.9474 27.0187 28.9602C26.9392 28.9803 26.859 28.9788 26.7781 28.9744C26.7517 28.9606 26.7254 28.9457 26.6995 28.9304C26.6218 28.8616 26.5871 28.7707 26.5668 28.6667C26.5397 28.5258 26.5563 28.5487 26.4341 28.5548C26.2725 28.5627 26.1103 28.5622 25.9487 28.5526C25.8858 28.5487 25.8858 28.5485 25.8713 28.6103C25.8646 28.6392 25.8569 28.6678 25.8529 28.697C25.8266 28.8818 25.6869 29.0203 25.4638 28.9751C25.4094 28.9641 25.3554 28.949 25.3022 28.9322C25.1497 28.8846 25.0614 28.7284 25.0921 28.5624C25.0996 28.5202 25.1089 28.4781 25.1168 28.4359C25.1271 28.3785 25.1266 28.3754 25.0723 28.354C24.9681 28.3122 24.8643 28.2696 24.7639 28.2183C24.7048 28.188 24.6461 28.1561 24.5876 28.1241C24.5269 28.0908 24.5274 28.0903 24.4848 28.1509C24.4619 28.1833 24.4407 28.2167 24.4171 28.2477C24.3131 28.3864 24.1493 28.4155 24.0107 28.3186C23.958 28.2815 23.9065 28.2421 23.8569 28.2003C23.7305 28.0936 23.7034 27.9185 23.7902 27.7741C23.8159 27.731 23.8447 27.6898 23.8737 27.6492C23.8939 27.621 23.8953 27.5984 23.8694 27.5725C23.7307 27.4345 23.6037 27.2841 23.4894 27.1229C23.4677 27.0922 23.4463 27.0924 23.4183 27.1111C23.3841 27.1341 23.3486 27.1549 23.3131 27.1757C23.1534 27.2682 22.9872 27.2225 22.8935 27.0567C22.8601 26.9971 22.8189 26.9425 22.796 26.8758C22.7389 26.7105 22.787 26.5573 22.9298 26.4652C22.96 26.4457 22.9912 26.4275 23.0208 26.4079C23.0735 26.3738 23.0749 26.3727 23.0516 26.3128C23.0033 26.1885 22.962 26.0614 22.9275 25.932C22.9121 25.8754 22.8977 25.818 22.8851 25.7604C22.876 25.7184 22.8553 25.7021 22.8147 25.7112C22.7823 25.7175 22.7498 25.722 22.7168 25.7248C22.5239 25.7466 22.3808 25.6236 22.3607 25.4189C22.3551 25.3624 22.3493 25.3065 22.3454 25.2501C22.3404 25.1687 22.3647 25.0882 22.4137 25.0253C22.4629 24.9624 22.5326 24.922 22.609 24.9122C22.6515 24.9068 22.6944 24.9031 22.7368 24.8961C22.7923 24.8865 22.7941 24.8852 22.7949 24.8238C22.7974 24.6893 22.807 24.5552 22.8236 24.4217C22.8306 24.3632 22.8492 24.3062 22.845 24.2461C22.841 24.2051 22.8245 24.1797 22.7935 24.1668C22.7723 24.1603 22.7673 24.1575 22.7357 24.1491C22.6732 24.1328 22.6165 24.1041 22.5713 24.0554" fill="#414141"/>
<path d="M22.8478 24.2829C22.8549 24.2416 22.8383 24.1798 22.7985 24.1681C22.7644 24.1579 22.7099 24.1362 22.6762 24.1254C22.5413 24.0821 22.4568 23.9692 22.442 23.8172C22.4251 23.7526 22.4785 23.5433 22.5028 23.4756C22.5573 23.3262 22.6905 23.2392 22.8407 23.2633C22.8731 23.2682 22.9052 23.2772 22.9358 23.2894C22.9926 23.3129 23.0362 23.2943 23.0614 23.2371C23.1232 23.0958 23.2156 22.9558 23.2752 22.8137C23.3328 22.6764 23.292 22.6878 23.3121 22.6925C23.3613 22.7377 24.0798 23.1092 24.3062 23.3034C24.1587 23.4731 23.831 24.2414 23.8175 24.4987" fill="#414141"/>
<path d="M24.3148 23.2911C24.7734 22.7638 25.1015 22.5374 25.5543 22.4007C25.8298 22.3166 26.1173 22.2861 26.403 22.3105C26.8837 22.3518 27.3178 22.5302 27.7 22.8458C28.0371 23.124 28.2826 23.4767 28.45 23.8927C28.5524 24.147 28.6065 24.4129 28.6317 24.6885C28.668 25.0832 28.5887 25.5241 28.4614 25.8918C28.4355 25.9162 27.9665 25.5746 27.9163 25.508C27.9049 25.4723 27.9191 25.4394 27.9277 25.4061C27.9737 25.2263 28.0037 25.0438 27.9982 24.857C27.973 23.9596 27.3981 23.2191 26.6028 23.0384C26.0161 22.9048 25.3939 23.0396 24.8243 23.6553C24.81 23.6637 24.8056 23.6453 24.7088 23.5744C24.5464 23.4693 24.4666 23.4035 24.3556 23.332C24.2918 23.2925 24.2952 23.3138 24.3148 23.2911Z" fill="#414141"/>
<path d="M28.4707 25.8661C28.4554 25.892 28.4418 25.9188 28.4295 25.9464C28.2896 26.3051 28.0655 26.5994 27.7927 26.8486C27.4355 27.1751 27.0213 27.3786 26.5512 27.4439C26.436 27.46 26.3204 27.4777 26.2041 27.4737C25.8674 27.4623 25.5419 27.3965 25.2311 27.2525C25.0339 27.1606 24.8494 27.0407 24.6823 26.896C24.4225 26.6726 24.2113 26.4038 24.0563 26.0855C23.9138 25.7922 23.8317 25.4819 23.797 25.155C23.7667 24.8736 23.7905 24.5973 23.846 24.3218C23.9092 24.0075 24.0274 23.7181 24.1924 23.4497C24.2158 23.4115 24.2841 23.3248 24.3064 23.3031C24.4263 23.3693 24.7536 23.5992 24.8061 23.6491C24.8392 23.695 24.7781 23.7556 24.7592 23.785C24.6585 23.9413 24.5757 24.1065 24.5225 24.288C24.3367 24.92 24.4218 25.5082 24.796 26.037C25.108 26.4782 25.5324 26.72 26.0514 26.7754C26.7909 26.8545 27.5496 26.4078 27.8618 25.6199C27.8792 25.5765 27.8748 25.5078 27.945 25.5043C27.9902 25.5595 28.4178 25.8351 28.4707 25.8661Z" fill="#5F5F5F"/>
<path d="M27.9453 25.5042C27.8863 25.6647 27.8205 25.8213 27.7282 25.9643C27.436 26.4168 27.0369 26.6975 26.5289 26.7943C26.0143 26.8922 25.5433 26.77 25.1244 26.441C24.756 26.1512 24.521 25.7614 24.4303 25.2841C24.323 24.7199 24.4358 24.2009 24.7497 23.7318C24.7615 23.7141 24.7727 23.6966 24.7844 23.6789C24.7963 23.6637 24.9523 23.4805 25.0283 23.4127C25.3649 23.1128 25.7501 22.9591 26.1903 22.9503C27.015 22.9335 27.759 23.5274 27.9737 24.3903C28.0595 24.7356 28.0572 25.0818 27.9639 25.4262C27.9569 25.4518 27.9513 25.4782 27.9453 25.5042Z" fill="#EDAE50"/>
<path d="M26.7018 24.8882C26.7156 25.1836 26.4608 25.4122 26.219 25.409C25.943 25.4057 25.7165 25.1754 25.7191 24.8832C25.7214 24.5978 25.9313 24.3617 26.2225 24.3608C26.465 24.3601 26.7152 24.5911 26.7018 24.8882Z" fill="#414141"/>
<path d="M26.7296 23.9064C26.7858 23.9003 26.8326 23.9217 26.8715 23.966C26.906 24.005 26.9429 24.042 26.9765 24.0822C27.0546 24.1749 27.007 24.3451 26.906 24.3783C26.8618 24.393 26.8214 24.3937 26.7825 24.3668C26.6993 24.3086 26.6284 24.2353 26.5654 24.1545C26.4987 24.0689 26.5326 23.9591 26.6321 23.922C26.6633 23.9099 26.6964 23.9045 26.7296 23.9064Z" fill="#FCD38C"/>
<path d="M13.4894 28.9446C13.3527 28.868 13.2716 28.7492 13.2472 28.5859C13.2388 28.5302 13.2244 28.4757 13.2137 28.4204C13.2061 28.3815 13.1877 28.3684 13.1496 28.3717C12.9076 28.3934 12.6645 28.3962 12.4221 28.3799C12.3893 28.3777 12.3564 28.3757 12.3238 28.3717C12.2927 28.368 12.2765 28.3817 12.2701 28.4134C12.2586 28.4713 12.2431 28.5284 12.2341 28.5867C12.2064 28.7667 12.1137 28.8905 11.9559 28.9602C11.855 28.9893 11.7541 28.9791 11.6532 28.9592C11.5597 28.9408 11.4638 28.932 11.3791 28.8799C11.3465 28.8545 11.3116 28.8324 11.2834 28.8009C11.1827 28.6878 11.1411 28.5556 11.1671 28.4015C11.1769 28.3433 11.1899 28.2859 11.2009 28.228C11.2195 28.1288 11.2194 28.1283 11.1325 28.0958C10.9348 28.0208 10.7419 27.9324 10.5551 27.8306C10.5101 27.8063 10.4646 27.7821 10.4216 27.7545C10.3887 27.7329 10.3669 27.7375 10.3456 27.7706C10.3128 27.8214 10.2765 27.8699 10.244 27.9212C10.1055 28.1401 9.83374 28.2041 9.62011 28.0289C9.56412 27.9828 9.50502 27.9411 9.44886 27.8954C9.25065 27.7343 9.21449 27.4776 9.35891 27.26C9.39675 27.2029 9.43543 27.1463 9.47494 27.0903C9.49369 27.0639 9.49339 27.0423 9.46961 27.0208C9.45806 27.0103 9.44774 26.9984 9.43671 26.9874C9.25165 26.8002 9.08071 26.5978 8.92548 26.382C8.88141 26.3207 8.88104 26.3211 8.81631 26.3607C8.77248 26.3875 8.72888 26.4146 8.68503 26.4414C8.45451 26.5816 8.22553 26.52 8.08309 26.2799C8.06358 26.2491 8.05621 26.2379 8.03576 26.2011C8.01061 26.1491 7.98023 26.1005 7.95743 26.0469C7.86025 25.818 7.92795 25.5837 8.13133 25.4543C8.17904 25.424 8.22751 25.3948 8.27568 25.3647C8.3398 25.3244 8.34049 25.3239 8.31291 25.2537C8.22427 25.0276 8.15115 24.7954 8.09412 24.5583C8.08468 24.5191 8.07435 24.4804 8.06675 24.4408C8.05915 24.4015 8.03758 24.3885 8.00133 24.3934C7.93365 24.4025 7.86589 24.4132 7.79781 24.4172C7.62308 24.4281 7.48823 24.3542 7.39697 24.1947C7.35899 24.129 7.34472 24.0554 7.33832 23.9795C7.33361 23.9229 7.32313 23.8721 7.31955 23.8114C7.30481 23.5821 7.4282 23.2943 7.69942 23.2736C7.7574 23.2692 7.81506 23.26 7.87288 23.2531C7.93973 23.2451 7.94209 23.2446 7.9436 23.1768C7.94796 22.9779 7.96318 22.7793 7.9892 22.5821C7.99982 22.5023 8.01198 22.4228 8.0252 22.3433C8.03789 22.2675 8.03796 22.2659 7.96692 22.241C7.91374 22.2227 7.86057 22.2053 7.80821 22.1864C7.58075 22.1048 7.46329 21.8744 7.52712 21.6294C7.55067 21.5387 7.57962 21.4496 7.61068 21.3615C7.69038 21.1344 7.90858 21.0199 8.1273 21.0885C8.1928 21.109 8.25845 21.1297 8.32212 21.1556C8.36283 21.1717 8.3809 21.1582 8.39808 21.12C8.43842 21.0302 8.48225 20.9421 8.52473 20.8535C8.53993 20.8231 8.5539 20.7987 8.56766 20.7705C8.61322 20.6818 8.66164 20.5942 8.7196 20.5131C8.77178 20.4648 17.5538 25.9579 17.5292 26.0211C17.5122 26.0535 17.4987 26.0847 17.4826 26.116C17.4516 26.1745 17.4222 26.2341 17.3893 26.2913C17.2641 26.5081 17.036 26.5739 16.8231 26.4557C16.7672 26.4248 16.7135 26.3889 16.6585 26.3558C16.6014 26.3211 16.6007 26.3207 16.5619 26.3742C16.4752 26.4932 16.3846 26.609 16.2899 26.7209C16.2052 26.8208 16.1156 26.9156 16.0245 27.0089C15.9825 27.0518 15.9826 27.053 16.0149 27.1015C16.0513 27.1565 16.0897 27.2101 16.1258 27.2651C16.2658 27.4792 16.2282 27.737 16.0338 27.8946C15.9715 27.945 15.9082 27.9942 15.8439 28.0416C15.6419 28.1907 15.4019 28.15 15.2525 27.9417C15.2145 27.8881 15.1784 27.8328 15.1404 27.7788C15.1061 27.7305 15.1048 27.7296 15.0545 27.7589C14.8482 27.879 14.6341 27.9832 14.4138 28.0705C14.383 28.0828 14.3519 28.0942 14.3212 28.1066C14.2657 28.1292 14.2646 28.1299 14.2756 28.1954C14.2854 28.2537 14.2936 28.3127 14.3094 28.3691C14.368 28.5804 14.2455 28.8356 13.9736 28.9252C13.8561 28.9643 13.6015 28.9925 13.4894 28.9446Z" fill="#414141"/>
<path d="M17.5121 26.0368C17.3277 25.9229 15.686 24.8473 15.571 24.7797C15.5087 24.7461 15.529 24.7421 15.5668 24.6666C15.7011 24.3616 15.7914 24.0366 15.8348 23.703C15.8661 23.46 15.8645 23.2159 15.8456 22.9709C15.828 22.7403 15.7872 22.5123 15.7241 22.2908C15.6436 22.0087 15.5272 21.7447 15.3835 21.4923C15.2231 21.2108 15.0188 20.9704 14.7931 20.7489C14.6196 20.5785 14.4234 20.44 14.2163 20.3199C13.9051 20.1379 13.5665 20.0152 13.2157 19.9572C12.9954 19.9208 12.773 19.9029 12.5506 19.9183C12.0774 19.9514 11.6294 20.0838 11.2127 20.3276C10.884 20.5247 10.5897 20.7807 10.343 21.0845C10.2801 21.1621 10.1905 21.3164 10.1289 21.3946C10.0935 21.4395 9.50439 21.033 8.70304 20.5287C8.73258 20.4734 8.76109 20.4281 8.79267 20.3797C8.81236 20.3496 8.81076 20.3267 8.78507 20.3029C8.73592 20.2565 8.68693 20.2097 8.63869 20.1623C8.48521 20.0108 8.44935 19.81 8.54545 19.6126C8.56742 19.5676 8.60707 19.4613 8.66756 19.3843C8.69681 19.347 8.72901 19.3128 8.76063 19.2782C8.9153 19.108 9.216 19.105 9.37745 19.2619C9.57286 19.4515 9.54719 19.4074 9.71173 19.2731C9.85237 19.1586 9.99466 19.0469 10.1434 18.9443C10.2235 18.8891 10.2287 18.8623 10.1881 18.7698C10.143 18.6669 10.1024 18.5631 10.1111 18.4454C10.1219 18.2999 10.1775 18.1754 10.2892 18.0947C10.4488 17.9794 10.6182 17.8845 10.8217 17.8903C10.9899 17.8954 11.1076 17.9843 11.193 18.1299C11.2234 18.1822 11.247 18.2395 11.2716 18.2955C11.2944 18.348 11.3313 18.3652 11.3831 18.3508C11.601 18.2901 11.8218 18.244 12.044 18.2058C12.1248 18.192 12.1411 18.1668 12.1442 18.0813C12.1457 18.0518 12.1457 18.0222 12.1442 17.9926C12.1269 17.7213 12.3245 17.4937 12.5579 17.4779C12.6866 17.4692 12.8156 17.4589 12.9433 17.486C13.1312 17.5264 13.3162 17.7095 13.2975 17.9607C13.295 17.9955 13.2969 18.0307 13.2975 18.0658C13.2992 18.1691 13.3175 18.1945 13.4134 18.209C13.6213 18.24 13.8272 18.2846 14.0299 18.3428C14.1372 18.3739 14.1538 18.3627 14.1985 18.2561C14.2335 18.1726 14.2686 18.0887 14.3305 18.0216C14.4555 17.8866 14.6112 17.8647 14.7733 17.9029C14.9017 17.9332 15.0224 17.9952 15.1329 18.0717C15.3131 18.1966 15.3787 18.421 15.3054 18.6394C15.2902 18.6847 15.2718 18.7292 15.2526 18.7732C15.2146 18.8595 15.2211 18.8908 15.2966 18.9418C15.4553 19.0476 15.608 19.1628 15.7542 19.2875C15.9142 19.4249 15.8857 19.4456 16.0623 19.2757C16.217 19.1267 16.4558 19.1088 16.5969 19.2109C16.7399 19.3142 16.8643 19.4443 16.9469 19.607C17.0203 19.752 17.0105 20.0183 16.8641 20.1525C16.8202 20.1927 16.7813 20.2391 16.7405 20.2833C16.7052 20.3218 16.7004 20.3636 16.7284 20.4074C16.8592 20.6123 16.9762 20.8268 17.0787 21.049C17.1038 21.1036 17.147 21.1174 17.2002 21.0994C17.2628 21.0782 17.3267 21.0611 17.3914 21.0486C17.5646 21.0164 17.7552 21.0971 17.844 21.2587C17.9303 21.4153 17.9835 21.5872 17.9888 21.7709C17.9947 21.973 17.9 22.1127 17.7381 22.2057C17.6843 22.236 17.6275 22.2596 17.569 22.277C17.507 22.2957 17.4804 22.3358 17.493 22.403C17.5367 22.6438 17.5512 22.8879 17.5655 23.1322C17.5693 23.197 17.5987 23.2327 17.6598 23.2344C17.7054 23.2358 17.7503 23.2448 17.7953 23.2512C18.0276 23.2835 18.1865 23.4757 18.1872 23.7256C18.1877 23.7741 18.1854 23.8224 18.1809 23.8706C18.1732 23.9464 18.1476 24.0553 18.1276 24.1264C18.0695 24.3334 17.873 24.4467 17.6707 24.433C17.6052 24.4284 17.5399 24.4174 17.4744 24.4104C17.4142 24.4043 17.4111 24.405 17.3963 24.4685C17.3513 24.6591 17.3022 24.8483 17.2378 25.0327C17.208 25.1185 17.1772 25.2038 17.1433 25.288C17.1281 25.3251 17.1345 25.3481 17.1669 25.3675C17.2308 25.406 17.2952 25.4435 17.3569 25.4861C17.5214 25.5992 17.5892 25.8049 17.5294 26.0014C17.5245 26.0136 17.5188 26.0256 17.5121 26.0368Z" fill="#666059"/>
<path d="M10.8159 21.7895C10.8919 21.6927 10.964 21.5919 11.0472 21.5011C11.4396 21.0721 11.9137 20.8204 12.4736 20.7535C12.9687 20.6941 13.4384 20.7857 13.8723 21.0454C14.5403 21.4451 14.9387 22.0545 15.0643 22.8577C15.1374 23.3241 15.0821 23.7796 14.9078 24.217C14.898 24.2415 14.8911 24.2674 14.8828 24.293C14.9017 24.335 14.8833 24.3712 14.8667 24.4077C14.7823 24.5936 14.6711 24.7601 14.5425 24.9128C14.1726 25.3516 13.7198 25.6425 13.1704 25.743C12.4411 25.8766 11.783 25.6971 11.211 25.1955C10.747 24.7885 10.4674 24.2618 10.3774 23.6302C10.3073 23.1385 10.3656 22.6596 10.5571 22.2021C10.6036 22.0912 10.6599 21.9864 10.7167 21.8811C10.7398 21.8373 10.7701 21.8048 10.8159 21.7895Z" fill="#EDAE50"/>
<path d="M11.24 23.2383C11.2275 22.3323 11.9562 21.6417 12.7291 21.6375C13.4872 21.6334 14.2437 22.2755 14.245 23.2463C14.2463 24.1474 13.5586 24.8324 12.7559 24.8411C11.8815 24.8508 11.224 24.0833 11.24 23.2383Z" fill="#45423D"/>
<path d="M14.219 21.7607C14.2315 21.8947 14.0738 21.9994 13.9642 21.9222C13.8899 21.8696 13.8196 21.8162 13.7607 21.7464C13.6759 21.6459 13.6952 21.5415 13.8076 21.4758C13.8909 21.4272 13.9685 21.4237 14.0454 21.4935C14.0995 21.5425 14.1519 21.5918 14.1907 21.6557C14.2104 21.6867 14.2203 21.7234 14.219 21.7607Z" fill="#FCD38C"/>
<path d="M11.5421 23.2491C11.5234 22.5946 12.0221 21.9562 12.7459 21.959C13.4221 21.9618 13.9499 22.5388 13.9431 23.26C13.9365 23.9713 13.3821 24.5288 12.7233 24.5202C12.0401 24.5113 11.5236 23.8996 11.5421 23.2491Z" fill="#EDAE50"/>
<path d="M12.7383 23.7619C12.469 23.7619 12.2445 23.5238 12.2464 23.2368C12.2482 22.9539 12.4542 22.7171 12.7414 22.7141C13.0034 22.7113 13.2321 22.9414 13.2307 23.2412C13.2293 23.5333 13.0135 23.7623 12.7383 23.7619Z" fill="#414141"/>
<path d="M13.3075 22.3721C13.3358 22.3721 13.3635 22.3754 13.3875 22.3922C13.4922 22.4659 13.5482 22.5687 13.5445 22.7037C13.5425 22.7731 13.449 22.8459 13.3852 22.8305C13.2773 22.8046 13.1894 22.7477 13.1294 22.6454C13.0775 22.5572 13.0877 22.4831 13.1655 22.4206C13.2076 22.3871 13.2557 22.3733 13.3075 22.3721Z" fill="#FCD38C"/>
<path d="M10.8161 21.7895C10.7377 21.9215 10.6618 22.0546 10.6012 22.1974C10.4994 22.4382 10.4332 22.6946 10.4051 22.957C10.3678 23.2878 10.3936 23.6235 10.4808 23.9436C10.568 24.2638 10.715 24.5618 10.9128 24.8205C11.2137 25.2132 11.5928 25.4839 12.047 25.6349C12.3102 25.7223 12.5813 25.7625 12.8559 25.7431C13.5741 25.6928 14.1599 25.3675 14.6075 24.7653C14.7015 24.6384 14.7826 24.5013 14.8494 24.3561C14.8594 24.3346 14.8718 24.3143 14.883 24.2932C14.9455 24.3242 15.4313 24.6582 15.5141 24.7196C15.547 24.744 15.5321 24.7763 15.5165 24.8059C15.4312 24.9681 15.341 25.1269 15.2324 25.2729C14.9952 25.5921 14.7184 25.8644 14.391 26.0779C14.0733 26.2852 13.7242 26.4325 13.3593 26.5132C13.077 26.5764 12.791 26.5859 12.5059 26.5669C12.1266 26.5423 11.7631 26.44 11.4172 26.2693C11.1801 26.1537 10.958 26.0063 10.7562 25.8306C10.3592 25.4827 10.0513 25.0625 9.85209 24.5548C9.72479 24.229 9.64517 23.8842 9.61605 23.5328C9.57047 23.0085 9.64857 22.5041 9.82209 22.0136C9.88569 21.8339 9.96955 21.6655 10.0592 21.4998C10.068 21.4837 10.0779 21.4676 10.0881 21.4524C10.1425 21.3701 10.1529 21.3675 10.2339 21.4167C10.3699 21.4991 10.6315 21.6718 10.7646 21.7581C10.7824 21.7674 10.7996 21.7779 10.8161 21.7895Z" fill="#666059"/>
<path d="M15.0389 23.7718C15.1076 23.4466 15.114 23.1099 15.0578 22.7821C15.0016 22.4541 14.8839 22.1416 14.7117 21.8632C14.4239 21.4685 14.0624 21.1358 13.6611 20.9306C13.4107 20.8157 13.1423 20.7518 12.8698 20.742C12.1504 20.7149 11.5336 20.9682 11.0312 21.5193C10.9522 21.6075 10.878 21.7005 10.809 21.7977C10.7499 21.76 10.2057 21.4646 10.1292 21.3944C10.0988 21.3666 10.3361 21.0805 10.458 20.947C10.7245 20.6548 11.0258 20.4135 11.3719 20.2368C11.6958 20.0591 12.0662 19.9575 12.4398 19.9153C12.7263 19.8824 13.0156 19.8905 13.3 19.9395C13.675 20.0052 14.0207 20.1603 14.3485 20.3678C14.5733 20.5084 14.7802 20.679 14.9643 20.8754C15.326 21.2645 15.5922 21.7157 15.7422 22.2423C15.8378 22.5802 15.8841 22.932 15.8795 23.2848C15.8746 23.8112 15.7503 24.2948 15.5699 24.6842C15.5341 24.7616 15.5666 24.7597 15.4629 24.6842C15.3355 24.5874 15.0176 24.385 14.8834 24.2934C14.875 24.2864 14.9846 24.0311 15.0389 23.7718Z" fill="#45423D"/>
<path d="M11.6987 10.0513C11.6434 9.86419 11.6009 9.67333 11.5544 9.48366C11.542 9.43372 11.5559 9.42031 11.6059 9.40739C14.3763 8.69077 17.7452 9.23833 19.4756 9.79583C19.7498 9.90047 20.0168 10.0221 20.2635 10.1885C20.3707 10.2607 20.4723 10.3403 20.5523 10.4471C20.5745 10.4763 20.5946 10.5074 20.6122 10.54C20.6542 10.6193 20.6635 10.6992 20.6241 10.7859C20.533 10.9871 20.4339 11.1837 20.3267 11.3758C20.2574 11.5009 20.1863 11.6248 20.1161 11.7493C20.083 11.8098 20.0459 11.8676 20.0051 11.9223C19.9694 11.9578 19.9291 11.9407 19.8906 11.9315C19.7211 11.8911 19.55 11.8595 19.3815 11.8154C19.3691 11.8122 19.3565 11.8177 19.3439 11.8182C19.1674 11.7574 18.9813 11.7504 18.8021 11.705C18.7787 11.6991 18.7582 11.7142 18.7358 11.7101C18.4414 11.6493 18.143 11.6186 17.8468 11.5753C17.7426 11.56 17.635 11.5681 17.5341 11.5285C17.4954 11.4851 17.4884 11.4283 17.4754 11.3736C17.4007 11.0509 17.3037 10.7377 17.126 10.4595C17.0989 10.4173 17.0695 10.3769 17.0387 10.3377C16.9462 10.2196 16.8358 10.1494 16.6859 10.1285C16.295 10.0737 15.9034 10.0265 15.5107 9.99107C14.8573 9.93184 14.2032 9.92173 13.5486 9.93159C13.2255 9.93635 12.9028 9.95922 12.5804 9.9888C12.3134 10.013 12.047 10.0418 11.7814 10.0792C11.7485 10.0826 11.7201 10.0805 11.6987 10.0513Z" fill="#EDAE50"/>
<path d="M20.885 15.6859C20.7011 15.6846 20.5169 15.6805 20.3331 15.6833C20.2744 15.6841 20.2613 15.6478 20.2487 15.603C20.1988 15.5868 20.2002 15.5383 20.1925 15.4979C20.1331 15.1869 20.0771 14.8749 20.0125 14.565C19.8531 13.8031 19.6742 13.0465 19.4567 12.3008C19.4192 12.1723 19.3789 12.0448 19.3424 11.916C19.3311 11.8768 19.3098 11.834 19.3459 11.7947C19.3592 11.7786 19.377 11.7786 19.3945 11.7819C19.5992 11.8223 19.8037 11.8627 20.0049 11.921C20.137 12.3164 20.248 12.7185 20.3506 13.1235C20.4898 13.6738 20.6092 14.2292 20.7206 14.7865C20.7623 14.9947 20.8845 15.6808 20.885 15.6859Z" fill="#45423D"/>
<path d="M11.6987 10.0514C11.9407 10.0074 12.1849 9.98188 12.429 9.9586C12.605 9.94179 12.782 9.93104 12.9585 9.9182C13.4488 9.88199 13.9396 9.88271 14.4302 9.89153C14.7866 9.89791 15.1427 9.91802 15.4985 9.94809C15.7355 9.96814 15.972 9.99117 16.2081 10.0198C16.4064 10.0441 16.6031 10.0791 16.8015 10.1066C16.8656 10.1154 16.914 10.1488 16.9598 10.1933C17.1177 10.3469 17.2292 10.5347 17.3168 10.7396C17.4211 10.9832 17.4927 11.2379 17.5402 11.5004C17.5291 11.5373 17.5009 11.5378 17.4723 11.5359C17.3463 11.5278 17.2199 11.5184 17.0944 11.5059C16.9836 11.495 16.8724 11.4898 16.7618 11.4832C16.5855 11.4728 16.4089 11.4524 16.2316 11.4629C16.1633 11.467 16.0959 11.4486 16.0276 11.4475C15.9353 11.4461 15.9065 11.4673 15.8745 11.5584C15.6856 12.0955 15.5301 12.6437 15.3934 13.1982C15.1822 14.0548 15.0211 14.9226 14.8857 15.7959C14.8494 16.0293 14.8198 16.2638 14.7874 16.4979C14.7808 16.5455 14.776 16.5943 14.7475 16.6353C14.7252 16.6591 14.6969 16.6607 14.6697 16.6532C14.5427 16.6183 14.4166 16.5793 14.2898 16.5434C14.2799 16.5411 14.2707 16.5361 14.263 16.5291C14.2553 16.522 14.2493 16.5131 14.2456 16.503C14.2252 16.4446 14.238 16.3852 14.2462 16.3277C14.3754 15.383 14.5335 14.4443 14.7414 13.5155C14.8885 12.8587 15.0561 12.2085 15.2708 11.5726C15.3033 11.4764 15.2851 11.4485 15.1901 11.4473C14.8137 11.4429 14.438 11.4568 14.0618 11.4759C13.8727 11.4856 13.6838 11.4939 13.4952 11.5107C13.4826 11.5107 13.4699 11.5112 13.4572 11.5113C13.2604 11.5126 13.2558 11.5172 13.1938 11.7121C12.8325 12.8449 12.58 14.0061 12.3849 15.1828C12.3265 15.5347 12.2754 15.8877 12.2234 16.2407C12.2187 16.273 12.2154 16.3049 12.1962 16.3319C12.178 16.3632 12.1479 16.3674 12.1177 16.3724C11.9607 16.3966 11.8028 16.4135 11.6466 16.443C11.6114 16.4497 11.5682 16.4577 11.5612 16.3974C11.5874 16.2114 11.6136 16.0254 11.6399 15.8393C11.7079 15.3555 11.785 14.8733 11.8711 14.3928C11.984 13.7634 12.1132 13.1388 12.2727 12.5217C12.3487 12.229 12.4272 11.937 12.5227 11.6506C12.5561 11.5502 12.556 11.5502 12.4837 11.4809C12.3094 11.313 12.1358 11.1446 11.9606 10.9778C11.9283 10.9477 11.9058 10.9077 11.896 10.8633C11.8367 10.6187 11.7745 10.3749 11.7133 10.1308C11.7027 10.1059 11.6976 10.0787 11.6987 10.0514Z" fill="#45423D"/>
<path d="M11.6993 10.0508C11.7086 10.0763 11.7191 10.1015 11.7137 10.13C11.6986 10.1059 11.6794 10.0822 11.6993 10.0508Z" fill="#A9A9A9"/>
<path d="M15.7208 17.0746C15.4296 16.9083 15.1245 16.7772 14.8123 16.6637C14.7839 16.6534 14.754 16.6457 14.7324 16.6209C14.7645 16.384 14.7942 16.1468 14.8292 15.9104C14.9102 15.3632 15.0048 14.8186 15.1131 14.2768C15.2779 13.4557 15.4752 12.6439 15.7345 11.8501C15.7759 11.7231 15.8189 11.5966 15.8621 11.4703C15.8839 11.4064 15.8849 11.4062 15.9492 11.4081C16.3083 11.4189 16.6672 11.4336 17.0258 11.4575C17.1973 11.4689 17.3684 11.4857 17.5397 11.5001C17.8228 11.529 18.1048 11.5661 18.3863 11.6085C18.5061 11.6266 18.6257 11.6433 18.7446 11.6668C18.8129 11.6958 18.8553 11.7514 18.8966 11.8152C19.0535 12.0582 19.1783 12.3206 19.2823 12.591C19.3911 12.8738 19.4905 13.1623 19.5578 13.4612C19.584 13.5789 19.6219 13.6936 19.6488 13.8108C19.738 14.1967 19.8364 14.58 19.9083 14.9704C19.9451 15.1705 19.9843 15.3705 20.0327 15.5683C20.0458 15.6209 20.0672 15.6805 20.0032 15.7184C19.9964 15.7265 19.991 15.7366 19.9824 15.7413C19.8698 15.8048 19.7936 15.9081 19.7196 16.0134C19.596 16.1891 19.4734 16.3658 19.3505 16.5423C19.316 16.5584 19.2872 16.545 19.2591 16.5234C19.1109 16.4106 18.9614 16.2998 18.8106 16.1909C18.7341 16.1354 18.7281 16.1076 18.7795 16.0256C18.8525 15.9093 18.9309 15.797 19.0064 15.6823C19.0353 15.6382 19.0663 15.5952 19.0899 15.5476C19.1325 15.4611 19.1169 15.3749 19.0514 15.3232C18.9859 15.2716 18.9043 15.2821 18.8414 15.357C18.7623 15.4516 18.6998 15.5599 18.6322 15.6641C18.4172 15.9934 18.202 16.3225 17.9862 16.6514C17.9661 16.6822 17.9454 16.7131 17.9316 16.7483C17.9001 16.8283 17.922 16.9107 17.9859 16.9551C18.0521 17.001 18.1281 16.9919 18.1841 16.9238C18.2624 16.8284 18.3245 16.7198 18.3927 16.6167C18.4359 16.5505 18.4793 16.4842 18.5242 16.4192C18.5553 16.3739 18.5898 16.3672 18.6348 16.3979C18.7987 16.51 18.9553 16.6334 19.1153 16.7515C19.1419 16.7713 19.1684 16.7948 19.1673 16.8353C19.1174 16.9221 19.0675 17.0089 19.0171 17.0953C18.9919 17.1387 18.9647 17.1809 18.9398 17.2246C18.8358 17.4054 18.8325 17.5923 18.9222 17.7778C19.1636 18.2775 19.4144 18.7719 19.6977 19.2466C19.7329 19.3057 19.7707 19.3628 19.8061 19.4215C19.9059 19.5868 20.0549 19.6531 20.2303 19.6589C20.3993 19.6642 20.5681 19.6444 20.7366 19.6288C20.7325 20.3768 20.5313 21.0611 20.1547 21.691C20.1018 21.7789 20.0447 21.8167 19.9418 21.8136C19.6691 21.8048 19.396 21.812 19.123 21.8127C19.068 21.8046 19.0699 21.7528 19.0622 21.7137C19.03 21.5534 18.9875 21.3959 18.9425 21.239C18.7696 20.6339 18.5194 20.0569 18.1986 19.5246C18.0948 19.3523 17.9791 19.1898 17.8705 19.0217C17.7696 18.8815 17.6607 18.748 17.5484 18.6186C17.3482 18.388 17.1404 18.1653 16.9131 17.9641C16.5843 17.6748 16.2321 17.417 15.8606 17.1936C15.8092 17.1607 15.7475 17.1402 15.7208 17.0746Z" fill="#B9E1E1"/>
<path d="M19.9872 15.7372C20.0082 15.6888 20.0065 15.6219 19.9956 15.5762C19.8995 15.1782 19.2218 12.4035 18.8387 11.7929C18.7923 11.7189 18.7814 11.6993 18.7448 11.6669C18.9248 11.6818 19.1012 11.7221 19.2796 11.7487C19.2933 11.7503 19.3064 11.7554 19.318 11.7635C19.3293 11.7716 19.3388 11.7824 19.3456 11.7951C19.585 12.5683 19.7902 13.3514 19.9616 14.1447C20.0667 14.6281 20.1744 15.1475 20.26 15.6353L20.2612 15.6384C20.2786 15.6724 20.2829 15.6631 20.1828 15.6764C20.1206 15.6849 20.0369 15.7144 19.9872 15.7372Z" fill="#DCF9FB"/>
<path d="M14.263 16.4932C14.1072 16.4609 13.9515 16.4256 13.7953 16.3971C13.6089 16.3636 13.4211 16.3404 13.2324 16.3277C13.0539 16.3153 12.8769 16.3115 12.698 16.3111C12.5975 16.3111 12.4957 16.3216 12.3946 16.3136C12.3532 16.2799 12.3606 16.234 12.3666 16.1881C12.4524 15.5301 12.5521 14.875 12.6821 14.2244C12.7733 13.7662 12.8759 13.3112 13.0023 12.8629C13.1229 12.4346 13.2635 12.0138 13.4813 11.6281C13.5141 11.5701 13.5193 11.5221 13.4846 11.4678C13.5086 11.4575 13.5341 11.4576 13.5592 11.4564C14.1325 11.4287 14.7058 11.3987 15.2799 11.4043C15.3047 11.4043 15.3304 11.3981 15.3545 11.4112C15.3641 11.4402 15.3481 11.4639 15.3398 11.488C15.0866 12.2234 14.8953 12.9785 14.7306 13.7412C14.5909 14.3884 14.4749 15.0403 14.3749 15.6956C14.3346 15.9612 14.3004 16.2274 14.263 16.4932Z" fill="#B9E1E1"/>
<path d="M13.5347 11.458C13.6374 11.4453 13.6277 11.4512 13.5661 11.5631C13.4 11.865 13.26 12.1754 13.1531 12.5029C13.0911 12.6927 13.031 12.8843 12.9846 13.0801C12.9339 13.2938 12.8742 13.5049 12.8271 13.7197C12.7795 13.9371 12.7393 14.1561 12.6953 14.3743C12.6501 14.5977 12.6041 14.8209 12.5697 15.0465C12.5165 15.3966 12.4652 15.747 12.4157 16.0977C12.4056 16.169 12.3929 16.2409 12.3949 16.3139C12.3693 16.3261 12.194 16.3454 12.1806 16.3139C12.1921 16.1421 12.2224 15.9728 12.2474 15.803C12.3093 15.3834 12.3788 14.9652 12.4559 14.5484C12.6359 13.5852 12.8577 12.6332 13.1549 11.703C13.1737 11.6445 13.1958 11.5871 13.2125 11.5279C13.2222 11.4933 13.2416 11.4804 13.2726 11.4794C13.3438 11.4756 13.5221 11.4575 13.5347 11.458Z" fill="#DCF9FB"/>
<path d="M23.0129 23.3069C22.8361 23.2924 22.6391 23.1446 22.4985 23.5267C22.3586 23.9054 22.5641 24.0514 22.5332 24.0387C22.5177 24.0366 22.5025 24.036 22.4869 24.0373C22.3712 24.0387 22.2516 24.0183 22.136 24.0182C22.0951 23.998 22.1047 23.9625 22.1115 23.928C22.1696 23.6301 22.2589 23.3402 22.3775 23.0633C22.5342 22.7002 22.7261 22.3603 22.9667 22.0516C23.3012 21.6228 23.6927 21.2677 24.1483 20.9919C24.6223 20.7045 25.1311 20.527 25.6703 20.4496C25.9307 20.4123 26.1933 20.3985 26.4567 20.4179C26.5565 20.4254 26.6346 20.382 26.6882 20.2944C26.7102 20.2589 26.7344 20.2318 26.7719 20.2176C26.8151 20.2171 26.8547 20.2367 26.896 20.2465C26.9872 20.2684 26.9967 20.2647 27.0366 20.177C27.1012 20.0353 27.1681 19.8949 27.2516 19.7639C27.2721 19.7499 27.2891 19.7308 27.3015 19.7086C27.4096 19.5324 27.5479 19.3869 27.7104 19.2673C27.7149 19.265 27.7202 19.2641 27.7251 19.2647C27.7839 19.2647 27.7993 19.3125 27.8135 19.3591C27.8759 19.5641 27.9457 19.7655 28.0322 19.9605C28.1756 20.2838 28.3525 20.5828 28.5798 20.8465C28.6136 20.8861 28.6565 20.9211 28.6365 20.9852C28.5183 21.206 28.3999 21.427 28.2816 21.6478C28.2641 21.6802 28.2452 21.7117 28.2266 21.7436C28.1937 21.7993 28.1566 21.852 28.1156 21.9012C28.1051 21.8928 28.0937 21.8856 28.0818 21.8795C28.075 21.876 28.0622 21.8639 28.0555 21.8599C27.9316 21.7884 27.9492 21.7837 28.0109 21.6499C28.0496 21.5657 28.0699 21.4802 28.0454 21.3852C28.0356 21.3458 28.0184 21.3092 27.9948 21.2773C27.9711 21.2456 27.9417 21.2193 27.9081 21.2003C27.8288 21.1544 27.7465 21.1111 27.6559 21.0912C27.529 21.0631 27.3963 21.1257 27.3352 21.2479C27.3148 21.2883 27.3007 21.3316 27.2819 21.3727C27.2551 21.433 27.2395 21.4412 27.1809 21.4235C27.025 21.3762 26.8676 21.3375 26.7062 21.3184C26.6911 21.3165 26.6768 21.3102 26.6617 21.3088C26.6186 21.3034 26.6004 21.2766 26.601 21.2323C26.601 21.1894 26.5981 21.1461 26.601 21.1031C26.6109 20.9402 26.5134 20.8301 26.3719 20.8005C26.2698 20.779 26.1644 20.7804 26.063 20.8047C25.9333 20.8357 25.8564 20.9199 25.8384 21.0633C25.831 21.1162 25.8268 21.17 25.8254 21.2235C25.8249 21.2936 25.8203 21.2994 25.754 21.3132C25.672 21.3304 25.5896 21.3431 25.5076 21.3598C25.423 21.3769 25.3397 21.3983 25.257 21.4239C25.2031 21.4405 25.1907 21.4338 25.1681 21.3806C25.1476 21.3314 25.1282 21.2818 25.1016 21.236C25.0315 21.1146 24.9046 21.0588 24.7748 21.0943C24.6817 21.1202 24.5929 21.1617 24.5122 21.2178C24.3945 21.2985 24.3514 21.4512 24.4013 21.5949C24.4162 21.6377 24.4379 21.6776 24.4553 21.7196C24.4771 21.7721 24.4752 21.7847 24.4318 21.8129C24.2784 21.9129 24.1364 22.0295 23.9951 22.1474C23.9539 22.1819 23.9426 22.1822 23.904 22.1444C23.8697 22.1087 23.8331 22.0752 23.7949 22.0444C23.6864 21.9611 23.5381 21.96 23.436 22.0516C23.3649 22.1155 23.2975 22.1852 23.2469 22.2707C23.17 22.3999 23.1877 22.5534 23.2924 22.6585C23.3346 22.7011 23.3391 22.7044 23.408 22.7545C23.3022 22.8667 23.0956 23.1705 23.0352 23.2899" fill="#414141"/>
<path d="M21.5986 24.003C21.1735 24.0024 20.7485 24.0021 20.3233 24.0016C19.6478 24.0016 18.9723 24.0016 18.2967 24.0016C18.1407 24.0016 18.1381 23.9963 18.1598 23.8338C18.175 23.7153 18.1778 23.5971 18.1151 23.4892C18.0479 23.3729 17.9526 23.2985 17.8248 23.2777C17.7623 23.2668 17.6994 23.26 17.6363 23.2572C17.5603 23.2549 17.5465 23.235 17.5437 23.1534C17.5346 22.8898 17.5143 22.6281 17.4667 22.3686C17.4478 22.2658 17.453 22.2572 17.5499 22.2288C17.6281 22.2057 17.7044 22.1772 17.7742 22.1325C17.9481 22.0213 17.9989 21.8313 17.9574 21.6363C17.9383 21.5471 17.9094 21.4605 17.8814 21.374C17.8085 21.1498 17.6154 21.0332 17.3966 21.0768C17.3216 21.0919 17.2497 21.1173 17.1775 21.1416C17.1181 21.1617 17.1106 21.1596 17.0831 21.0984C16.9681 20.8406 16.8325 20.5937 16.6778 20.3607C16.6487 20.3172 16.6502 20.3036 16.6945 20.2682C16.7553 20.219 16.8045 20.157 16.8609 20.1031C16.9965 19.9739 16.994 19.7017 16.9129 19.5718C16.8365 19.4494 16.7396 19.3454 16.6342 19.2542C16.5017 19.1388 16.2692 19.1346 16.1218 19.2755C16.0711 19.3241 16.0135 19.3645 15.9686 19.4198C15.9417 19.4531 15.9168 19.4538 15.885 19.4253C15.8099 19.3573 15.734 19.2904 15.656 19.2263C15.5338 19.1258 15.4053 19.0355 15.2749 18.9472C15.1619 18.8709 15.1672 18.8879 15.2246 18.7614C15.2486 18.711 15.2697 18.659 15.2877 18.606C15.3534 18.399 15.2938 18.1722 15.0842 18.0591C14.9938 18.0106 14.903 17.9605 14.8055 17.9323C14.6688 17.8928 14.5353 17.9001 14.4151 17.995C14.3664 18.0341 14.3273 18.085 14.3012 18.1437C14.2688 18.2137 14.2404 18.2857 14.2094 18.3564C14.1859 18.4097 14.1807 18.413 14.1278 18.3953C13.9246 18.3274 13.7169 18.281 13.5068 18.2454C13.4569 18.2374 13.4069 18.2293 13.3569 18.2218C13.2845 18.2106 13.2788 18.2046 13.2776 18.1237C13.2766 18.0565 13.2768 17.9892 13.2776 17.9217C13.2793 17.7349 13.1864 17.6146 13.0361 17.5366C12.9929 17.5134 12.9456 17.5002 12.8973 17.4976C12.7838 17.4935 12.6701 17.4858 12.5567 17.5057C12.3406 17.5442 12.2063 17.7047 12.1997 17.9371C12.198 17.9963 12.1997 18.0554 12.199 18.1148C12.1979 18.2055 12.1944 18.2083 12.1123 18.2223C11.8599 18.2647 11.6083 18.3111 11.363 18.3901C11.3045 18.4088 11.2975 18.4048 11.2708 18.3433C11.2454 18.2848 11.2205 18.2258 11.1948 18.1673C11.0938 17.9344 10.8595 17.8591 10.6436 17.943C10.5627 17.9742 10.4837 18.0106 10.4072 18.0525C10.2816 18.1215 10.1988 18.2283 10.1717 18.3801C10.1577 18.4599 10.1648 18.5422 10.192 18.618C10.2156 18.6863 10.2468 18.7509 10.2763 18.8164C10.3013 18.8719 10.2985 18.8847 10.2507 18.9155C10.0491 19.0456 9.86087 19.1954 9.67711 19.3519C9.65348 19.372 9.63153 19.3946 9.60873 19.4155C9.56945 19.4505 9.55737 19.4505 9.51755 19.4139C9.47357 19.3734 9.42821 19.3346 9.38703 19.291C9.23182 19.1269 8.94122 19.1278 8.79058 19.3023C8.74612 19.3536 8.7038 19.4072 8.65822 19.4575C8.60306 19.5179 8.59942 19.5158 8.5429 19.4605C8.49487 19.4134 8.38168 19.3074 8.37363 19.3011C8.29818 19.2116 8.30129 19.2109 8.37765 19.1194C9.02681 18.34 9.84974 17.7466 10.7708 17.3939C11.2351 17.2162 11.7129 17.1003 12.2038 17.0553C12.5037 17.0288 12.805 17.0258 13.1053 17.0462C13.5119 17.0722 13.9149 17.1432 14.3077 17.2581C14.63 17.3518 14.9434 17.4769 15.2441 17.6318C15.4495 17.7349 15.6488 17.8513 15.8408 17.9805C16.1097 18.1615 16.3643 18.3657 16.602 18.5909C16.8294 18.8082 17.0429 19.0414 17.2411 19.2889C17.268 19.3244 17.2931 19.3615 17.3164 19.3997C17.5018 19.6223 17.6506 19.8726 17.7897 20.1285C18.0693 20.641 18.2782 21.1934 18.4104 21.7688C18.4568 21.9702 18.4874 22.1744 18.5215 22.3782C18.5513 22.5559 18.6739 22.6168 18.8245 22.5307C19.0131 22.423 19.1328 22.1663 19.1055 21.9392C19.0994 21.89 19.0675 21.8341 19.1172 21.7879C19.1566 21.7643 19.2001 21.7662 19.2431 21.766C19.4709 21.7653 19.6984 21.7629 19.926 21.7671C20.0201 21.769 20.0829 21.7315 20.1334 21.6487C20.3214 21.3386 20.465 21 20.5587 20.6447C20.6327 20.3671 20.6858 20.0856 20.7038 19.797C20.7061 19.7674 20.7056 19.7376 20.7024 19.7081C20.6986 19.673 20.7068 19.6441 20.7373 19.6258C20.7867 19.6247 20.8947 19.6182 20.8996 19.6177C21.0885 19.6058 21.0885 19.606 21.0889 19.808C21.0889 19.9616 21.0882 20.115 21.0894 20.2682C21.0905 20.4085 21.1258 20.4517 21.2547 20.4862C21.5636 20.5699 21.8761 20.597 22.1945 20.5794C22.3417 20.5713 22.4855 20.5431 22.6317 20.5309C22.6618 20.5272 22.6912 20.5191 22.7194 20.5067C22.808 20.4704 22.8341 20.434 22.8355 20.3314C22.8378 20.1406 22.8348 19.9493 22.8371 19.7583C22.8376 19.7166 22.8296 19.6709 22.8642 19.6371C22.9217 19.5902 22.9765 19.6261 23.0276 19.6489C23.1544 19.7054 23.2496 19.8059 23.3372 19.9147C23.4992 20.1159 23.6193 20.3458 23.7335 20.5797C23.7434 20.5984 23.7476 20.6202 23.7455 20.6417C23.7417 20.6941 23.706 20.7201 23.6695 20.7452C23.371 20.9502 23.1031 21.194 22.8567 21.4657C22.5741 21.7772 22.3396 22.1255 22.1411 22.502C21.9103 22.9392 21.7536 23.4052 21.6611 23.8963C21.6531 23.9376 21.6609 23.9959 21.5986 24.003Z" fill="#45423D"/>
<path d="M21.5982 24.0029C21.6173 23.9112 21.6357 23.8193 21.656 23.7282C21.8211 22.9795 22.1384 22.3115 22.5967 21.7179C22.9008 21.3214 23.2617 20.978 23.666 20.7003C23.6891 20.6842 23.7147 20.6713 23.7292 20.6438C23.7473 20.6116 25.1262 19.6676 26.6683 19.9709C26.7599 20.0418 26.7709 20.1782 26.721 20.3016C26.6722 20.4223 26.5815 20.4601 26.4359 20.4566C26.3018 20.4531 26.1677 20.4454 26.0343 20.4531C25.8094 20.4652 25.586 20.4955 25.3655 20.5434C24.7618 20.6781 24.212 20.939 23.7187 21.3328C23.1423 21.7928 22.7073 22.3745 22.4088 23.0714C22.2876 23.3559 22.1965 23.654 22.1368 23.9597C22.133 23.9781 22.0836 24.2736 22.0684 24.4043C22.0545 24.5254 21.9999 24.61 21.8899 24.6499C21.7283 24.7086 21.5557 24.5832 21.5523 24.4016C21.5502 24.3101 21.569 24.2202 21.5818 24.1301C21.587 24.0943 21.5926 24.0089 21.5982 24.0029Z" fill="#A19D98"/>
<path d="M20.2825 23.3734C20.0067 23.3734 19.7311 23.3743 19.4555 23.3729C19.3265 23.3723 19.2328 23.3053 19.1796 23.1824C19.1261 23.0593 19.1426 22.9398 19.22 22.833C19.2815 22.7486 19.3694 22.7162 19.4667 22.7129C19.5326 22.7108 19.5984 22.712 19.6644 22.712C20.1297 22.7124 20.5951 22.7127 21.0603 22.7131C21.1486 22.7131 21.2307 22.7292 21.3007 22.7929C21.3972 22.881 21.4364 23.0239 21.3962 23.151C21.3767 23.2154 21.3384 23.2717 21.2871 23.3117C21.2354 23.3517 21.1734 23.3736 21.1097 23.3739C20.8341 23.3753 20.5581 23.3734 20.2825 23.3734Z" fill="#FCBE4F"/>
<path d="M11.5612 16.3966C11.5785 16.4113 11.5982 16.4117 11.6185 16.4074C11.791 16.3715 11.9654 16.3508 12.14 16.3316C12.1552 16.3298 12.1476 16.3301 12.1906 16.3257C12.8038 16.2772 13.621 16.3129 14.2637 16.4935C14.4054 16.5351 14.5481 16.5662 14.69 16.6076C14.7045 16.6085 15.3987 16.8785 15.6684 17.0327C15.6926 17.0511 15.7044 17.0608 15.7216 17.0749C15.7327 17.2072 15.694 17.3066 15.6214 17.3968C15.5203 17.5227 15.3866 17.6128 15.2371 17.67C15.0448 17.5811 14.8534 17.49 14.6548 17.4171C14.3034 17.288 13.9413 17.1944 13.5734 17.1374C13.2528 17.0889 12.9291 17.0681 12.6053 17.0752C12.2233 17.082 11.8431 17.1306 11.4704 17.2203C10.3139 17.4965 9.26525 18.1444 8.46667 19.0761C8.44112 19.1059 8.41508 19.1353 8.38948 19.1651C8.33629 19.2271 8.31303 19.2674 8.27384 19.3166C8.20872 19.3989 8.14537 19.4826 8.08193 19.5663C7.93378 19.7615 7.67342 19.7718 7.51122 19.5673C7.40143 19.4286 7.42005 19.2197 7.5094 19.0882C7.60681 18.9473 7.71096 18.8119 7.82142 18.6823C7.93432 18.548 8.04432 18.4108 8.16808 18.2873C8.34154 18.1147 8.51422 17.9404 8.70286 17.7863C9.34705 17.2601 10.0531 16.8588 10.8312 16.6054C11.0368 16.5382 11.2457 16.4828 11.4568 16.4392C11.4941 16.4318 11.5331 16.429 11.5612 16.3966Z" fill="#EDAE50"/>
<path d="M17.892 18.9981C18.0806 19.2354 18.234 19.498 18.3819 19.7642C18.5563 20.0772 18.7011 20.4056 18.8239 20.7453C18.9363 21.0569 19.0336 21.3737 19.0984 21.7008C19.1061 21.7377 19.1152 21.7736 19.1236 21.8106C19.1406 21.9111 19.1601 22.0105 19.1394 22.1139C19.097 22.3261 18.9976 22.4923 18.8079 22.5847C18.6488 22.6623 18.5108 22.5814 18.4847 22.397C18.4164 21.9121 18.3047 21.4388 18.1345 20.9822C17.933 20.4418 17.6692 19.9396 17.3335 19.4798C17.3181 19.4588 17.3039 19.4365 17.2893 19.4148C17.3256 19.2865 17.4008 19.1828 17.4732 19.0762C17.5139 19.0163 17.5767 19.0261 17.6292 19.0086C17.714 18.9802 17.803 18.9569 17.892 18.9981Z" fill="#EDAE50"/>
<path d="M17.8486 18.9873C17.4331 18.9516 17.3025 19.3876 17.2891 19.4149C17.1096 19.1824 16.9202 18.9597 16.7141 18.753C16.2952 18.3321 15.8199 17.9794 15.3036 17.7069C15.2808 17.695 15.2588 17.6826 15.2365 17.6699C15.2558 17.6457 15.4268 17.61 15.5694 17.4032C15.6901 17.2283 15.7185 17.1097 15.7209 17.0748C15.857 17.1292 15.9758 17.2175 16.0992 17.296C16.3125 17.4305 16.5176 17.5792 16.7132 17.7414C16.8899 17.8891 17.0614 18.043 17.2247 18.2083C17.3365 18.3214 17.4414 18.4412 17.5472 18.5599C17.6703 18.6979 17.7944 18.8367 17.8917 18.9984" fill="#FCD38C"/>
<path d="M28.6296 20.9835C28.585 20.9043 28.5172 20.8462 28.4626 20.7753C28.1689 20.3943 27.9585 19.9653 27.81 19.5002C27.7932 19.4468 27.7776 19.3927 27.7604 19.3393C27.7533 19.3165 27.748 19.2906 27.7175 19.2915C27.3433 18.9506 26.8912 18.7604 26.4487 18.5522C25.7804 18.2381 25.0822 18.022 24.3761 17.8317C23.8222 17.6825 23.2612 17.5718 22.6982 17.4694C22.6471 17.4601 22.5923 17.4556 22.5569 17.4047C22.5476 17.3679 22.5476 17.3302 22.5476 17.2927C22.5468 16.8474 22.5469 16.4022 22.5483 15.9569C22.5483 15.9084 22.5343 15.8527 22.5835 15.8168C22.6944 15.8458 22.8091 15.8458 22.9217 15.8624C23.1342 15.8938 23.3484 15.9171 23.5608 15.9513C23.8359 15.9951 24.1117 16.0341 24.3846 16.0923C24.5731 16.1327 24.7625 16.1667 24.9504 16.2093C25.1708 16.2594 25.3911 16.3099 25.6086 16.3689C25.9714 16.4669 26.3341 16.5663 26.6876 16.6987C26.8282 16.7512 26.9677 16.8081 27.1103 16.8548C27.2554 16.9023 27.3693 16.9972 27.4775 17.104C27.713 17.3363 27.948 17.5693 28.1752 17.8107C28.3272 17.9724 28.4799 18.1328 28.6247 18.302C28.6876 18.3752 28.7569 18.4421 28.8224 18.5133C28.9352 18.6366 29.0403 18.7676 29.156 18.8882C29.2488 18.9852 29.3038 19.1074 29.3106 19.2472C29.3202 19.4436 29.3141 19.6385 29.2674 19.8317C29.1809 20.1871 29.0219 20.5007 28.806 20.7844C28.7519 20.855 28.6958 20.9243 28.6296 20.9835Z" fill="#EDAE50"/>
<path d="M19.1677 16.8338L18.6447 16.4478C18.6361 16.4423 18.6277 16.436 18.6202 16.4291C18.5885 16.3968 18.5694 16.4116 18.5494 16.4453C18.5198 16.4952 18.4866 16.5428 18.4545 16.5912C18.3789 16.7055 18.305 16.8211 18.2272 16.9338C18.1695 17.0174 18.0963 17.0432 18.0154 17.0162C17.8944 16.9758 17.8397 16.8373 17.8998 16.7173C17.9185 16.6794 17.9434 16.645 17.9667 16.6098C18.2327 16.2041 18.499 15.7985 18.7653 15.393C18.782 15.3661 18.8003 15.3405 18.8205 15.3163C18.89 15.2368 18.9952 15.2243 19.0749 15.2839C19.1136 15.3128 19.1411 15.3558 19.1519 15.4048C19.1626 15.4538 19.156 15.5053 19.1334 15.5494C19.1098 15.5967 19.0795 15.6402 19.0506 15.6843C18.9679 15.8099 18.8844 15.9348 18.8014 16.06C18.7683 16.1099 18.7674 16.1109 18.8149 16.1461C18.9931 16.2783 19.1719 16.4101 19.3505 16.5416L19.1677 16.8338Z" fill="#45423E"/>
<path d="M21.3244 15.7167C21.3488 15.735 21.3472 15.763 21.3472 15.7894C21.3479 16.2613 21.3479 16.7331 21.3472 17.2049C21.3479 17.221 21.3453 17.237 21.3395 17.252C21.3083 17.2924 21.2635 17.2908 21.2213 17.2909C21.0647 17.2917 20.9084 17.2829 20.752 17.2796C20.3153 17.2696 19.8784 17.2757 19.441 17.2766C19.4107 17.2766 19.3803 17.2783 19.3521 17.2927C19.3354 17.3008 19.3202 17.3124 19.3227 17.3347C19.3249 17.3569 19.3426 17.3637 19.3601 17.3687C19.3724 17.372 19.385 17.3736 19.3976 17.3733C19.6121 17.3684 19.8264 17.3778 20.0414 17.3635C20.2477 17.3497 20.4549 17.3539 20.662 17.3671C20.8408 17.3785 21.0201 17.3833 21.1992 17.3902C21.2447 17.3919 21.2903 17.3885 21.3309 17.4174C21.351 17.5255 21.3829 17.6325 21.3612 17.7451C21.3607 17.7554 21.3582 17.7654 21.3533 17.7743C21.3199 17.8167 21.2679 17.8176 21.2244 17.8368C21.1423 17.8732 21.1013 17.9325 21.104 18.029C21.1157 18.4696 21.0831 18.9098 21.0887 19.3503C21.0894 19.4015 21.0905 19.4522 21.0957 19.5034C21.1071 19.6133 21.0788 19.6496 20.9742 19.6608C20.9466 19.6638 20.9187 19.6645 20.8907 19.6653C20.842 19.666 20.7935 19.6664 20.745 19.6622C20.603 19.6858 20.4592 19.6876 20.3162 19.6979C20.0507 19.7168 19.8558 19.6021 19.7175 19.3586C19.5256 19.0206 19.3319 18.6841 19.1563 18.336C19.0777 18.1798 19.0045 18.0208 18.9215 17.8667C18.7881 17.6193 18.7868 17.3775 18.9425 17.1407C19.0104 17.0375 19.06 16.9212 19.1412 16.8277C19.1862 16.7152 19.2591 16.6214 19.3246 16.5226C19.475 16.2868 19.6336 16.0575 19.8045 15.838C19.8567 15.771 19.9292 15.7297 19.9961 15.6816C20.0847 15.6561 20.4064 15.6493 20.488 15.6465C20.5806 15.6431 20.6736 15.6452 20.7662 15.6465C20.8103 15.6468 21.2393 15.6715 21.3244 15.7167Z" fill="#EDAE50"/>
<path d="M26.7747 20.2538C26.7462 20.2368 26.7283 20.2133 26.7303 20.176C26.7362 20.0629 26.6674 20.0072 26.583 19.9656C26.4711 19.9221 25.6168 19.8367 24.7674 20.1505C24.4686 20.2534 24.1806 20.3818 23.9097 20.5516C23.8598 20.583 23.8045 20.6043 23.7577 20.6418C23.7511 20.6471 23.7386 20.6436 23.7288 20.6443C23.6621 20.5429 23.6182 20.4284 23.5581 20.323C23.4651 20.1601 23.3669 20.002 23.2412 19.8647C23.1426 19.7568 23.0307 19.674 22.8892 19.6437C22.8505 19.6471 22.8446 19.6168 22.8398 19.5873C22.8356 19.5527 22.8342 19.5177 22.8355 19.4826C22.8355 19.2384 22.8314 18.9938 22.8365 18.7493C22.8412 18.5182 22.8162 18.2881 22.8194 18.057C22.8206 17.9691 22.7814 17.9095 22.7054 17.8752C22.6751 17.8617 22.6457 17.846 22.6173 17.8284C22.5956 17.8148 22.5721 17.8008 22.5816 17.7663L22.5845 17.5915C22.6098 17.5544 22.6439 17.5597 22.6805 17.5655C23.1007 17.6328 23.5184 17.7158 23.933 17.8148C24.4313 17.9347 24.9271 18.0664 25.4123 18.238C25.8013 18.3753 26.1862 18.5247 26.559 18.7075C26.7357 18.7941 26.916 18.8738 27.0775 18.9913C27.1382 19.0354 27.1869 19.0943 27.2333 19.1554C27.3433 19.3009 27.3155 19.4699 27.3051 19.6353C27.3021 19.687 27.279 19.7351 27.2748 19.7871C27.1796 19.9411 27.0985 20.1041 27.0323 20.2743C27.0187 20.3096 27.0006 20.3228 26.9626 20.3091C26.9015 20.2872 26.8378 20.272 26.7747 20.2538Z" fill="#EDAE50"/>
<path d="M27.2762 19.7874C27.255 19.7441 27.2585 19.6974 27.2662 19.6529C27.2829 19.5594 27.2771 19.4655 27.2771 19.3715C27.2771 19.2794 27.2291 19.208 27.1768 19.1425C27.1109 19.0605 27.0302 18.9935 26.9395 18.9453C26.5152 18.7161 26.0761 18.5251 25.6266 18.3594C25.3018 18.2395 24.974 18.13 24.6411 18.0393C24.2202 17.9248 23.7977 17.8191 23.3702 17.7323C23.1246 17.6825 22.877 17.6452 22.6311 17.5967C22.6162 17.5937 22.6008 17.5932 22.5859 17.5915C22.5859 17.5322 22.5859 17.4731 22.5859 17.4142C22.7369 17.4295 22.8855 17.4614 23.0347 17.4899C23.2286 17.527 23.4221 17.5663 23.6152 17.608C23.818 17.6523 24.0209 17.6952 24.2214 17.7518C24.375 17.7951 24.5305 17.832 24.6845 17.8746C25.0614 17.9791 25.4335 18.099 25.8012 18.2346C26.0999 18.3445 26.3888 18.4809 26.6791 18.6128C26.9556 18.7389 27.2235 18.8847 27.4813 19.0491C27.5571 19.0973 27.6264 19.1563 27.6979 19.2118C27.7231 19.2314 27.746 19.2551 27.7185 19.2915C27.6222 19.3824 27.5228 19.4694 27.4373 19.5729C27.3804 19.6419 27.3302 19.7158 27.2762 19.7874Z" fill="#FCD38C"/>
<path d="M21.324 17.2529L21.3245 17.4301C20.8188 17.3859 19.8757 17.3859 19.3998 17.4144C19.3636 17.4125 19.3277 17.4086 19.2918 17.4025C19.2651 17.3961 19.2242 17.3597 19.2249 17.3369C19.2263 17.2951 19.2489 17.2748 19.2783 17.2593C19.3149 17.2398 19.3637 17.2361 19.4051 17.2361C19.8605 17.2361 20.3159 17.2289 20.7712 17.2405C20.9552 17.2452 21.1398 17.2481 21.324 17.2529Z" fill="#FCD38C"/>
<path d="M29.1304 19.4021C29.1328 19.5759 29.1001 19.7358 29.0533 19.893C28.9705 20.1711 28.836 20.419 28.6648 20.6455C28.6299 20.6915 28.6282 20.6917 28.5919 20.6462C28.4254 20.438 28.2922 20.207 28.1778 19.9627C28.092 19.7794 28.0218 19.5892 27.9589 19.3961C27.9395 19.336 27.9418 19.3255 27.9982 19.2947C28.1953 19.187 28.4019 19.1105 28.6224 19.0772C28.7227 19.0618 28.8239 19.0622 28.9245 19.0489C28.9346 19.0482 28.9446 19.0478 28.9547 19.0483C29.0504 19.0503 29.0652 19.0631 29.1011 19.1557C29.133 19.2382 29.1323 19.3236 29.1304 19.4021Z" fill="#FEFEFE"/>
<path d="M22.5748 15.8564C22.5748 16.3701 22.5804 17.4969 22.5923 17.8129C22.5641 17.851 22.5274 17.8372 22.4944 17.8272C22.1383 17.7165 21.7797 17.7329 21.42 17.8029C21.3897 17.8087 21.3601 17.8167 21.3346 17.7903L21.3326 17.7929C21.316 17.7686 21.3326 15.2584 21.3305 15.0976C21.3295 15.0286 21.3405 14.9661 21.3727 14.9055C21.4123 14.831 21.447 14.7535 21.4838 14.6772C21.4888 14.6716 21.4957 14.6682 21.503 14.6675C21.9177 14.8558 22.2602 15.0744 22.5724 15.4141C22.5678 15.5368 22.5724 15.7011 22.5748 15.8564Z" fill="#414141"/>
<path d="M21.5044 14.6382H21.4983L21.4923 14.637C21.5221 14.561 21.5239 14.4813 21.5235 14.4003C21.5226 14.1585 21.5263 13.9167 21.5242 13.675C21.5233 13.5868 21.5484 13.5154 21.6002 13.4464C21.8553 13.1063 22.1329 12.7855 22.4302 12.4866C22.6193 12.2965 22.82 12.12 23.0404 11.9709C23.0823 11.9816 23.0644 12.0106 23.0549 12.0329C22.9198 12.35 22.9389 12.6825 22.9814 13.0126C23 13.158 23.038 13.3079 23.1516 13.4148C23.1597 13.4215 23.1651 13.4312 23.1668 13.442C23.1686 13.4528 23.1663 13.4639 23.1609 13.473C22.904 13.6 22.7023 13.7972 22.5321 14.0338C22.507 14.0688 22.4885 14.1057 22.4946 14.1517C22.4834 14.4399 22.4859 14.7277 22.4953 15.2017C22.4948 15.2068 22.4941 15.2119 22.4934 15.2169C22.4554 15.2443 22.4305 15.2133 22.4071 15.1922C22.3057 15.1004 22.2073 15.0051 22.0978 14.9232C21.9782 14.8336 21.8558 14.75 21.7233 14.6834C21.6534 14.6485 21.5825 14.6249 21.5044 14.6382Z" fill="#A19D98"/>
<path d="M23.2058 11.9355C23.2571 11.9628 23.2832 12.0083 23.2961 12.0667C23.3292 12.2153 23.3511 12.3664 23.3614 12.5187C23.3793 12.779 23.3439 13.031 23.2826 13.281C23.2699 13.333 23.2552 13.3843 23.2228 13.4273C23.1905 13.4331 23.1806 13.4082 23.1674 13.3844C23.0165 13.1087 22.9892 12.8078 23.0079 12.4979C23.0104 12.4554 23.0168 12.4129 23.0195 12.3701C23.0279 12.2054 23.0946 12.0503 23.2058 11.9355Z" fill="#A19D98"/>
<path d="M22.74 17.8443C22.8188 17.8811 22.8575 17.935 22.8607 18.0351C22.8766 18.5403 22.8724 19.0453 22.8734 19.5503C22.8734 19.5825 22.8768 19.7172 22.8764 19.7546C22.8752 19.9642 22.8719 20.1737 22.8747 20.3833C22.8755 20.457 22.8468 20.499 22.7869 20.5256C22.2867 20.6711 21.637 20.6638 21.1816 20.5095C21.0788 20.4764 21.0517 20.4356 21.0508 20.3228C21.0496 20.1751 21.0508 20.0273 21.0508 19.8795C21.0508 19.8179 21.0519 19.756 21.0508 19.6941C21.0496 19.6322 21.066 18.6746 21.066 18.645C21.066 18.4193 21.0676 18.1936 21.0653 17.9679C21.0646 17.897 21.0893 17.8543 21.1515 17.8247C21.875 17.5815 22.2546 17.6522 22.74 17.8443Z" fill="#A19D98"/>
<path d="M21.2015 19.1741V18.0846C21.2015 18.0659 21.201 18.047 21.2015 18.0281C21.2031 17.9533 21.2092 17.9433 21.2768 17.917C21.5312 17.8132 22.275 17.715 22.672 17.9936C22.7345 18.0288 22.7447 18.0645 22.7473 18.1492C22.7576 18.3401 22.7398 19.7574 22.7405 20.3033C22.7405 20.3142 22.7405 20.3249 22.7405 20.3355C22.7385 20.4135 22.7336 20.4173 22.6592 20.4336C22.1962 20.5359 21.7357 20.5224 21.2773 20.4012C21.2094 20.3833 21.2057 20.3816 21.2057 20.3035C21.205 20.0531 21.205 19.8031 21.2057 19.553C21.2057 19.4264 21.2057 19.3 21.2057 19.1736L21.2015 19.1741Z" fill="#45423D"/>
<path d="M21.4875 14.6535C21.4962 14.5844 21.5358 14.5772 21.6123 14.5963C21.7041 14.6253 21.792 14.6671 21.8737 14.7205C22.0555 14.8359 22.2295 14.9629 22.3824 15.1205C22.4164 15.1557 22.4561 15.1851 22.4931 15.2169C22.4983 15.2401 22.51 15.2611 22.5269 15.2769C22.575 15.3231 22.5817 15.3764 22.5719 15.4437C22.4917 15.4316 22.4467 15.3807 22.3957 15.321C22.2577 15.1594 22.0965 15.0286 21.9257 14.9095C21.8203 14.8361 21.6591 14.7559 21.5423 14.7063C21.5022 14.6894 21.4827 14.6904 21.4875 14.6535Z" fill="#DCF9FB"/>
<path d="M23.2065 11.9354C23.2337 11.9511 23.2509 11.9582 23.1815 12.0237C23.0934 12.1076 23.0351 12.3191 23.0411 12.6659C23.0469 12.8958 23.0497 13.1005 23.2235 13.4271C23.2088 13.4514 23.1896 13.4692 23.1614 13.4729C22.8669 13.1651 22.8954 12.2179 23.0409 11.9708C23.1011 11.9044 23.1363 11.8969 23.2065 11.9354Z" fill="#DCF9FB"/>
</g>
<defs>
<linearGradient id="paint0_linear_685_214227" x1="18.6999" y1="0.664062" x2="18.6999" y2="36.7284" gradientUnits="userSpaceOnUse">
<stop stop-color="white"/>
<stop offset="1" stop-color="white"/>
</linearGradient>
</defs>
</svg>
