<svg width="146" height="33" viewBox="0 0 146 33" fill="none" xmlns="http://www.w3.org/2000/svg">
<circle cx="16.1714" cy="16.6961" r="3.34286" fill="white"/>
<path d="M28.7763 22.196V10.8506H32.8204C33.703 10.8506 34.4343 11.0112 35.0141 11.3325C35.594 11.6539 36.0279 12.0933 36.316 12.651C36.604 13.205 36.7481 13.8291 36.7481 14.5235C36.7481 15.2215 36.6022 15.8493 36.3104 16.407C36.0224 16.961 35.5866 17.4004 35.003 17.7254C34.4232 18.0468 33.6938 18.2074 32.8148 18.2074H30.0339V16.756H32.6597C33.2174 16.756 33.6698 16.66 34.017 16.4679C34.3641 16.2722 34.619 16.0063 34.7815 15.6702C34.944 15.3341 35.0252 14.9519 35.0252 14.5235C35.0252 14.0951 34.944 13.7147 34.7815 13.3823C34.619 13.0499 34.3623 12.7895 34.0114 12.6012C33.6643 12.4128 33.2063 12.3186 32.6376 12.3186H30.4881V22.196H28.7763ZM38.6219 22.196V13.687H40.2229V15.0387H40.3115C40.4666 14.5807 40.7399 14.2206 41.1314 13.9584C41.5266 13.6925 41.9735 13.5595 42.472 13.5595C42.5755 13.5595 42.6973 13.5632 42.8377 13.5706C42.9817 13.578 43.0943 13.5872 43.1756 13.5983V15.1827C43.1091 15.1642 42.9909 15.1439 42.8211 15.1218C42.6512 15.0959 42.4813 15.083 42.3114 15.083C41.9199 15.083 41.5709 15.1661 41.2644 15.3323C40.9615 15.4948 40.7215 15.7219 40.5442 16.0137C40.3669 16.3017 40.2783 16.6304 40.2783 16.9997V22.196H38.6219ZM47.8886 22.3678C47.0908 22.3678 46.3947 22.185 45.8001 21.8193C45.2055 21.4537 44.7438 20.9422 44.4151 20.2848C44.0864 19.6274 43.9221 18.8593 43.9221 17.9803C43.9221 17.0976 44.0864 16.3257 44.4151 15.6647C44.7438 15.0036 45.2055 14.4902 45.8001 14.1246C46.3947 13.759 47.0908 13.5762 47.8886 13.5762C48.6863 13.5762 49.3824 13.759 49.9771 14.1246C50.5717 14.4902 51.0333 15.0036 51.362 15.6647C51.6907 16.3257 51.855 17.0976 51.855 17.9803C51.855 18.8593 51.6907 19.6274 51.362 20.2848C51.0333 20.9422 50.5717 21.4537 49.9771 21.8193C49.3824 22.185 48.6863 22.3678 47.8886 22.3678ZM47.8941 20.9773C48.4111 20.9773 48.8396 20.8406 49.1793 20.5674C49.5191 20.2941 49.7702 19.9303 49.9327 19.476C50.0989 19.0218 50.182 18.5213 50.182 17.9747C50.182 17.4318 50.0989 16.9333 49.9327 16.479C49.7702 16.021 49.5191 15.6536 49.1793 15.3766C48.8396 15.0996 48.4111 14.9611 47.8941 14.9611C47.3734 14.9611 46.9413 15.0996 46.5978 15.3766C46.258 15.6536 46.005 16.021 45.8388 16.479C45.6763 16.9333 45.5951 17.4318 45.5951 17.9747C45.5951 18.5213 45.6763 19.0218 45.8388 19.476C46.005 19.9303 46.258 20.2941 46.5978 20.5674C46.9413 20.8406 47.3734 20.9773 47.8941 20.9773ZM57.7535 13.687V15.0165H52.945V13.687H57.7535ZM54.2635 22.196V12.7009C54.2635 12.1691 54.3798 11.7277 54.6125 11.3769C54.8451 11.0223 55.1535 10.7583 55.5376 10.5847C55.9217 10.4074 56.339 10.3188 56.7896 10.3188C57.122 10.3188 57.4063 10.3465 57.6427 10.4019C57.8791 10.4536 58.0545 10.5016 58.169 10.5459L57.7812 11.8865C57.7036 11.8644 57.6039 11.8385 57.4821 11.809C57.3602 11.7757 57.2125 11.7591 57.0389 11.7591C56.6363 11.7591 56.3483 11.8588 56.1747 12.0583C56.0048 12.2577 55.9198 12.5458 55.9198 12.9225V22.196H54.2635ZM59.4625 22.196V13.687H61.1189V22.196H59.4625ZM60.299 12.374C60.011 12.374 59.7635 12.278 59.5567 12.086C59.3536 11.8902 59.252 11.6575 59.252 11.3879C59.252 11.1147 59.3536 10.882 59.5567 10.6899C59.7635 10.4942 60.011 10.3963 60.299 10.3963C60.5871 10.3963 60.8327 10.4942 61.0358 10.6899C61.2426 10.882 61.3461 11.1147 61.3461 11.3879C61.3461 11.6575 61.2426 11.8902 61.0358 12.086C60.8327 12.278 60.5871 12.374 60.299 12.374ZM67.3193 13.687V15.0165H62.6714V13.687H67.3193ZM63.9179 11.6483H65.5743V19.6976C65.5743 20.0189 65.6223 20.2608 65.7183 20.4233C65.8143 20.5821 65.9381 20.6911 66.0895 20.7502C66.2446 20.8056 66.4126 20.8333 66.5936 20.8333C66.7266 20.8333 66.8429 20.824 66.9426 20.8056C67.0423 20.7871 67.1199 20.7723 67.1753 20.7612L67.4744 22.1296C67.3784 22.1665 67.2418 22.2034 67.0645 22.2404C66.8872 22.281 66.6656 22.3031 66.3997 22.3068C65.9639 22.3142 65.5577 22.2367 65.181 22.0742C64.8043 21.9117 64.4996 21.6605 64.2669 21.3208C64.0342 20.981 63.9179 20.5544 63.9179 20.0411V11.6483ZM73.8756 16.684V18.1188H68.8455V16.684H73.8756ZM82.4041 13.831C82.345 13.3066 82.1013 12.9003 81.6729 12.6122C81.2445 12.3205 80.7052 12.1746 80.0552 12.1746C79.5899 12.1746 79.1874 12.2485 78.8476 12.3962C78.5078 12.5402 78.2437 12.7397 78.0554 12.9945C77.8707 13.2456 77.7784 13.5318 77.7784 13.8531C77.7784 14.1227 77.8412 14.3554 77.9668 14.5512C78.096 14.7469 78.2641 14.9112 78.4709 15.0442C78.6814 15.1735 78.9067 15.2824 79.1467 15.371C79.3868 15.456 79.6176 15.5262 79.8392 15.5816L80.9472 15.8696C81.3091 15.9583 81.6802 16.0783 82.0606 16.2297C82.441 16.3811 82.7937 16.5806 83.1187 16.828C83.4437 17.0754 83.706 17.382 83.9054 17.7476C84.1085 18.1132 84.2101 18.5509 84.2101 19.0605C84.2101 19.7031 84.0439 20.2737 83.7115 20.7723C83.3828 21.2709 82.9045 21.6642 82.2767 21.9523C81.6526 22.2404 80.8973 22.3844 80.0109 22.3844C79.1615 22.3844 78.4266 22.2496 77.8061 21.98C77.1856 21.7104 76.7 21.3281 76.3491 20.8333C75.9983 20.3347 75.8044 19.7438 75.7675 19.0605H77.4848C77.518 19.4705 77.651 19.8121 77.8837 20.0854C78.12 20.355 78.421 20.5563 78.7866 20.6892C79.156 20.8185 79.5604 20.8831 79.9999 20.8831C80.4837 20.8831 80.9139 20.8074 81.2906 20.656C81.671 20.5009 81.9702 20.2867 82.1881 20.0134C82.406 19.7364 82.5149 19.4132 82.5149 19.0439C82.5149 18.7078 82.4189 18.4327 82.2268 18.2185C82.0385 18.0043 81.7818 17.827 81.4568 17.6867C81.1355 17.5463 80.7717 17.4226 80.3655 17.3155L79.0249 16.9499C78.1163 16.7024 77.3962 16.3387 76.8643 15.8585C76.3362 15.3784 76.0722 14.7432 76.0722 13.9529C76.0722 13.2992 76.2494 12.7286 76.604 12.2411C76.9585 11.7536 77.4386 11.375 78.0443 11.1054C78.65 10.8321 79.3332 10.6955 80.094 10.6955C80.8622 10.6955 81.5399 10.8303 82.1271 11.0999C82.718 11.3695 83.1834 11.7406 83.5231 12.2134C83.8629 12.6824 84.0402 13.2216 84.055 13.831H82.4041ZM87.7791 17.1438V22.196H86.1227V10.8506H87.7569V15.0719H87.8622C88.0616 14.6139 88.3663 14.2502 88.7762 13.9806C89.1862 13.711 89.7217 13.5762 90.3828 13.5762C90.9663 13.5762 91.476 13.6962 91.9117 13.9362C92.3512 14.1763 92.691 14.5345 92.9311 15.011C93.1748 15.4837 93.2967 16.0746 93.2967 16.7837V22.196H91.6403V16.9831C91.6403 16.359 91.4796 15.8752 91.1583 15.5317C90.837 15.1845 90.3902 15.011 89.8177 15.011C89.4262 15.011 89.0754 15.0941 88.7652 15.2602C88.4586 15.4264 88.2167 15.6702 88.0394 15.9915C87.8659 16.3091 87.7791 16.6932 87.7791 17.1438ZM97.9833 22.3844C97.4441 22.3844 96.9566 22.2847 96.5208 22.0852C96.085 21.8821 95.7397 21.5885 95.4849 21.2044C95.2338 20.8203 95.1082 20.3495 95.1082 19.7918C95.1082 19.3117 95.2005 18.9165 95.3852 18.6063C95.5698 18.296 95.8191 18.0504 96.1331 17.8695C96.447 17.6885 96.7978 17.5519 97.1856 17.4595C97.5734 17.3672 97.9686 17.297 98.3711 17.249C98.8808 17.1899 99.2944 17.1419 99.612 17.105C99.9296 17.0644 100.16 16.9997 100.305 16.9111C100.449 16.8225 100.521 16.6784 100.521 16.479V16.4402C100.521 15.9564 100.384 15.5816 100.111 15.3156C99.841 15.0497 99.4385 14.9168 98.9029 14.9168C98.3453 14.9168 97.9058 15.0405 97.5845 15.2879C97.2669 15.5317 97.0471 15.8031 96.9252 16.1023L95.3686 15.7477C95.5532 15.2307 95.8228 14.8134 96.1774 14.4958C96.5356 14.1745 96.9474 13.9418 97.4127 13.7977C97.8781 13.65 98.3674 13.5762 98.8808 13.5762C99.2206 13.5762 99.5806 13.6168 99.961 13.698C100.345 13.7756 100.703 13.9196 101.036 14.1301C101.372 14.3406 101.647 14.6416 101.861 15.0331C102.075 15.4209 102.182 15.925 102.182 16.5455V22.196H100.565V21.0327H100.498C100.391 21.2469 100.231 21.4574 100.016 21.6642C99.8022 21.871 99.5271 22.0428 99.191 22.1794C98.8549 22.3161 98.4524 22.3844 97.9833 22.3844ZM98.3434 21.0549C98.8014 21.0549 99.1929 20.9644 99.5179 20.7834C99.8466 20.6024 100.096 20.3661 100.266 20.0743C100.439 19.7789 100.526 19.4631 100.526 19.127V18.0301C100.467 18.0892 100.353 18.1446 100.183 18.1963C100.016 18.2443 99.8262 18.2868 99.612 18.3237C99.3978 18.357 99.1892 18.3884 98.986 18.4179C98.7829 18.4438 98.613 18.4659 98.4764 18.4844C98.1551 18.525 97.8615 18.5933 97.5956 18.6894C97.3333 18.7854 97.1228 18.9239 96.964 19.1049C96.8089 19.2821 96.7314 19.5185 96.7314 19.8139C96.7314 20.2239 96.8828 20.5341 97.1856 20.7446C97.4885 20.9514 97.8744 21.0549 98.3434 21.0549ZM104.389 22.196V13.687H105.99V15.0387H106.078C106.233 14.5807 106.507 14.2206 106.898 13.9584C107.293 13.6925 107.74 13.5595 108.239 13.5595C108.342 13.5595 108.464 13.5632 108.604 13.5706C108.749 13.578 108.861 13.5872 108.942 13.5983V15.1827C108.876 15.1642 108.758 15.1439 108.588 15.1218C108.418 15.0959 108.248 15.083 108.078 15.083C107.687 15.083 107.338 15.1661 107.031 15.3323C106.728 15.4948 106.488 15.7219 106.311 16.0137C106.134 16.3017 106.045 16.6304 106.045 16.9997V22.196H104.389ZM110.376 22.196V13.687H112.032V22.196H110.376ZM111.212 12.374C110.924 12.374 110.677 12.278 110.47 12.086C110.267 11.8902 110.165 11.6575 110.165 11.3879C110.165 11.1147 110.267 10.882 110.47 10.6899C110.677 10.4942 110.924 10.3963 111.212 10.3963C111.5 10.3963 111.746 10.4942 111.949 10.6899C112.156 10.882 112.259 11.1147 112.259 11.3879C112.259 11.6575 112.156 11.8902 111.949 12.086C111.746 12.278 111.5 12.374 111.212 12.374ZM115.917 17.1438V22.196H114.261V13.687H115.85V15.0719H115.956C116.151 14.6213 116.458 14.2594 116.875 13.9861C117.296 13.7128 117.826 13.5762 118.465 13.5762C119.045 13.5762 119.553 13.698 119.989 13.9418C120.424 14.1818 120.762 14.5401 121.002 15.0165C121.243 15.4929 121.363 16.082 121.363 16.7837V22.196H119.706V16.9831C119.706 16.3664 119.546 15.8844 119.224 15.5372C118.903 15.1864 118.462 15.011 117.9 15.011C117.516 15.011 117.174 15.0941 116.875 15.2602C116.58 15.4264 116.345 15.6702 116.172 15.9915C116.002 16.3091 115.917 16.6932 115.917 17.1438ZM127.152 25.5642C126.476 25.5642 125.894 25.4756 125.407 25.2983C124.923 25.121 124.528 24.8865 124.221 24.5948C123.915 24.303 123.686 23.9835 123.534 23.6364L124.958 23.0492C125.058 23.2117 125.191 23.3834 125.357 23.5644C125.527 23.749 125.756 23.906 126.044 24.0352C126.335 24.1645 126.71 24.2291 127.168 24.2291C127.796 24.2291 128.315 24.0759 128.725 23.7693C129.135 23.4665 129.34 22.9827 129.34 22.3179V20.6449H129.235C129.135 20.8259 128.991 21.0272 128.802 21.2487C128.618 21.4703 128.363 21.6624 128.038 21.8249C127.713 21.9874 127.29 22.0686 126.769 22.0686C126.097 22.0686 125.492 21.9117 124.952 21.5977C124.417 21.2801 123.992 20.8129 123.678 20.1962C123.368 19.5757 123.213 18.8131 123.213 17.9083C123.213 17.0034 123.366 16.2279 123.673 15.5816C123.983 14.9352 124.408 14.4404 124.947 14.0969C125.486 13.7497 126.097 13.5762 126.78 13.5762C127.309 13.5762 127.735 13.6648 128.06 13.8421C128.385 14.0156 128.638 14.2188 128.819 14.4514C129.004 14.6841 129.146 14.8891 129.246 15.0664H129.368V13.687H130.991V22.3844C130.991 23.1156 130.821 23.7158 130.481 24.1848C130.141 24.6539 129.681 25.001 129.102 25.2263C128.525 25.4516 127.875 25.5642 127.152 25.5642ZM127.135 20.6948C127.611 20.6948 128.014 20.584 128.343 20.3624C128.675 20.1371 128.926 19.8158 129.096 19.3985C129.27 18.9774 129.356 18.4733 129.356 17.8861C129.356 17.3137 129.272 16.8095 129.102 16.3737C128.932 15.9379 128.682 15.5982 128.354 15.3544C128.025 15.107 127.619 14.9833 127.135 14.9833C126.636 14.9833 126.221 15.1125 125.889 15.371C125.556 15.6259 125.305 15.973 125.135 16.4125C124.969 16.852 124.886 17.3432 124.886 17.8861C124.886 18.4438 124.971 18.9331 125.141 19.3541C125.311 19.7752 125.562 20.1039 125.894 20.3402C126.23 20.5766 126.644 20.6948 127.135 20.6948Z" fill="white"/>
<rect x="1.40713" y="1.57461" width="143.443" height="30.2429" rx="15.1214" stroke="white" stroke-width="1.67143"/>
</svg>
