<svg width="22" height="23" viewBox="0 0 22 23" fill="none" xmlns="http://www.w3.org/2000/svg">
<path id="Icon" d="M14.2701 8.21476H3.78321C2.26712 8.21476 1.03809 6.98572 1.03809 5.46963C1.03809 3.95355 2.26712 2.72451 3.78321 2.72451H14.2701M7.57092 20.2933H18.0578C19.5739 20.2933 20.803 19.0643 20.803 17.5482C20.803 16.0321 19.5739 14.803 18.0578 14.803H7.57092M1.03809 17.5482C1.03809 19.6707 2.75873 21.3913 4.88126 21.3913C7.00378 21.3913 8.72443 19.6707 8.72443 17.5482C8.72443 15.4256 7.00378 13.705 4.88126 13.705C2.75873 13.705 1.03809 15.4256 1.03809 17.5482ZM20.803 5.46963C20.803 7.59216 19.0823 9.3128 16.9598 9.3128C14.8373 9.3128 13.1166 7.59216 13.1166 5.46963C13.1166 3.34711 14.8373 1.62646 16.9598 1.62646C19.0823 1.62646 20.803 3.34711 20.803 5.46963Z" stroke="black" stroke-width="1.3303" stroke-linecap="round" stroke-linejoin="round"/>
</svg>
