<svg width="30" height="23" viewBox="0 0 30 23" fill="none" xmlns="http://www.w3.org/2000/svg">
<path d="M2.20012 0.620042C1.73762 0.612542 1.31012 0.855043 1.07762 1.25504C0.842617 1.65254 0.842617 2.14754 1.07762 2.54504C1.31012 2.94504 1.73762 3.18754 2.20012 3.18004H27.8001C28.2626 3.18754 28.6901 2.94504 28.9226 2.54504C29.1576 2.14754 29.1576 1.65254 28.9226 1.25504C28.6901 0.855043 28.2626 0.612542 27.8001 0.620042H2.20012ZM2.20012 10.22C1.73762 10.2125 1.31012 10.455 1.07762 10.855C0.842617 11.2525 0.842617 11.7475 1.07762 12.145C1.31012 12.545 1.73762 12.7875 2.20012 12.78H27.8001C28.2626 12.7875 28.6901 12.545 28.9226 12.145C29.1576 11.7475 29.1576 11.2525 28.9226 10.855C28.6901 10.455 28.2626 10.2125 27.8001 10.22H2.20012ZM2.20012 19.82C1.73762 19.8125 1.31012 20.055 1.07762 20.455C0.842617 20.8525 0.842617 21.3475 1.07762 21.745C1.31012 22.145 1.73762 22.3875 2.20012 22.38H27.8001C28.2626 22.3875 28.6901 22.145 28.9226 21.745C29.1576 21.3475 29.1576 20.8525 28.9226 20.455C28.6901 20.055 28.2626 19.8125 27.8001 19.82H2.20012Z" fill="#15202B"/>
</svg>
