<svg width="20" height="20" viewBox="0 0 20 20" fill="none" xmlns="http://www.w3.org/2000/svg">
<g clip-path="url(#clip0_8819_1174)">
<path d="M6.29495 17.7602C13.5015 17.7602 17.4443 11.7882 17.4443 6.61091C17.4443 6.44302 17.4405 6.2714 17.4331 6.10352C18.2001 5.54884 18.862 4.8618 19.3877 4.07467C18.6734 4.39248 17.9149 4.60004 17.1383 4.69026C17.956 4.20011 18.5683 3.43011 18.8616 2.523C18.0924 2.9789 17.2511 3.30049 16.3739 3.474C15.7828 2.84598 15.0014 2.43016 14.1503 2.29082C13.2992 2.15148 12.4259 2.29639 11.6655 2.70314C10.905 3.10989 10.2997 3.75583 9.9432 4.54109C9.58666 5.32635 9.49874 6.20719 9.69302 7.04743C8.13538 6.96926 6.61155 6.56463 5.22032 5.85976C3.82909 5.15489 2.60152 4.16551 1.61719 2.95578C1.1169 3.81834 0.963812 4.83903 1.18904 5.8104C1.41426 6.78178 2.0009 7.63095 2.82972 8.18534C2.20749 8.16558 1.59889 7.99806 1.0542 7.6966V7.7451C1.05365 8.65029 1.36658 9.52774 1.93981 10.2283C2.51304 10.9288 3.31119 11.4093 4.19858 11.5879C3.62218 11.7456 3.01722 11.7686 2.43052 11.655C2.68092 12.4335 3.16812 13.1144 3.82411 13.6026C4.48011 14.0909 5.27217 14.3622 6.08975 14.3786C4.70174 15.4689 2.98713 16.0603 1.22209 16.0575C0.909077 16.057 0.59637 16.0378 0.285645 16C2.07873 17.1504 4.16458 17.7614 6.29495 17.7602Z" fill="#2E2E2E"/>
</g>
<defs>
<clipPath id="clip0_8819_1174">
<rect width="19.102" height="19.102" fill="white" transform="translate(0.285645 0.448975)"/>
</clipPath>
</defs>
</svg>
