<svg width="19" height="17" viewBox="0 0 19 17" fill="none" xmlns="http://www.w3.org/2000/svg">
<path d="M19 2.5818C18.3018 2.90511 17.5508 3.12084 16.7587 3.22291C17.564 2.72304 18.1836 1.9258 18.4744 0.98401C17.7208 1.4458 16.8859 1.78511 15.9977 1.96387C15.2884 1.17767 14.2768 0.689941 13.1559 0.689941C11.0027 0.689941 9.25751 2.49849 9.25751 4.72856C9.25751 5.04415 9.29286 5.35146 9.35936 5.64994C6.12013 5.48001 3.24715 3.87008 1.32514 1.42705C0.98739 2.02401 0.797406 2.72305 0.797406 3.4607C0.797406 4.86263 1.48399 6.09684 2.53101 6.82401C1.89193 6.8036 1.29031 6.61767 0.763631 6.31973C0.763631 6.33187 0.763631 6.35008 0.763631 6.36718C0.763631 8.32636 2.10777 9.9578 3.8894 10.3291C3.56379 10.4224 3.2197 10.4742 2.86507 10.4742C2.61334 10.4742 2.36794 10.4444 2.13046 10.3997C2.62653 12.0008 4.06566 13.171 5.77077 13.2058C4.43666 14.2872 2.75635 14.9349 0.929339 14.9349C0.613754 14.9349 0.30503 14.9161 0 14.8775C1.72622 16.0201 3.77593 16.6899 5.97606 16.6899C13.1453 16.6899 17.0674 10.5349 17.0674 5.19532C17.0674 5.02042 17.0622 4.84608 17.0542 4.67394C17.8195 4.10898 18.4791 3.39615 19 2.5818Z" fill="#15202B"/>
</svg>
