<svg width="32" height="24" viewBox="0 0 32 24" fill="none" xmlns="http://www.w3.org/2000/svg">
<path d="M17.0996 14H17.1096M3.59961 5V19C3.59961 20.1046 4.49504 21 5.59961 21H19.5996C20.7042 21 21.5996 20.1046 21.5996 19V9C21.5996 7.89543 20.7042 7 19.5996 7L5.59961 7C4.49504 7 3.59961 6.10457 3.59961 5ZM3.59961 5C3.59961 3.89543 4.49504 3 5.59961 3H17.5996M17.5996 14C17.5996 14.2761 17.3758 14.5 17.0996 14.5C16.8235 14.5 16.5996 14.2761 16.5996 14C16.5996 13.7239 16.8235 13.5 17.0996 13.5C17.3758 13.5 17.5996 13.7239 17.5996 14Z" stroke="black" stroke-width="2" stroke-linecap="round" stroke-linejoin="round"/>
<circle cx="28.5996" cy="4" r="3" fill="#ED5050"/>
</svg>
