<svg width="28" height="22" viewBox="0 0 28 22" fill="none" xmlns="http://www.w3.org/2000/svg">
<path d="M15.132 12.7514H15.1407M3.31055 4.87046V17.1297C3.31055 18.097 4.09464 18.881 5.06187 18.881H17.3211C18.2884 18.881 19.0725 18.097 19.0725 17.1297V8.37311C19.0725 7.40588 18.2884 6.62179 17.3211 6.62179L5.06187 6.62179C4.09464 6.62179 3.31055 5.83769 3.31055 4.87046ZM3.31055 4.87046C3.31055 3.90323 4.09464 3.11914 5.06187 3.11914H15.5698M15.5698 12.7514C15.5698 12.9932 15.3738 13.1892 15.132 13.1892C14.8902 13.1892 14.6941 12.9932 14.6941 12.7514C14.6941 12.5096 14.8902 12.3136 15.132 12.3136C15.3738 12.3136 15.5698 12.5096 15.5698 12.7514Z" stroke="#26C785" stroke-width="0.875661" stroke-linecap="round" stroke-linejoin="round"/>
<circle cx="25.2012" cy="3.99515" r="2.62698" fill="#26C785"/>
</svg>
