<svg width="23" height="24" viewBox="0 0 23 24" fill="none" xmlns="http://www.w3.org/2000/svg">
<path d="M17.955 0.525024C17.3175 0.525024 16.9163 0.879399 16.695 1.23002C16.4269 1.20002 16.1175 1.23565 15.885 1.36502C15.1425 1.77377 14.8256 2.61752 15.15 3.33002C15.2513 3.55127 15.3994 3.74065 15.585 3.88502C14.8856 4.6594 14.5031 5.7619 14.145 6.79502C13.4813 8.71127 12.9038 10.365 10.8 10.365C5.74313 10.365 2.96063 8.01002 2.49001 7.38002C2.21063 7.00315 1.97063 6.72002 1.62001 6.72002C1.19063 6.72002 0.975006 7.06315 0.975006 7.75502C0.975006 8.8369 1.87688 10.3463 2.91001 11.25C2.44313 11.3756 2.00063 11.5594 1.74001 11.82C1.51501 12.045 1.41563 12.2794 1.47001 12.51C1.54876 12.84 1.85626 12.9394 2.01001 12.99C2.11876 13.0257 2.27438 13.0894 2.44501 13.17C2.30626 13.2544 2.19563 13.3594 2.08501 13.5C1.94626 13.6782 1.90313 13.8582 1.95001 14.04C2.02501 14.3269 2.29126 14.4413 2.44501 14.505C2.74313 14.6307 2.99626 14.8838 3.19501 15.255C3.51938 15.855 4.59563 17.3194 6.27001 18.57C8.69063 19.1138 10.6163 18.8644 11.985 17.82C13.4156 16.7307 13.92 14.9569 13.92 13.77C13.92 13.5038 14.1338 13.29 14.4 13.29C14.6663 13.29 14.88 13.5038 14.88 13.77C14.88 15.2438 14.2763 17.2819 12.57 18.585C11.4956 19.4025 10.1569 19.815 8.58001 19.815C8.50688 19.815 8.43001 19.8019 8.35501 19.8C9.30376 20.2294 10.3631 20.5463 11.52 20.625V21.78C10.6669 22.0932 10.1963 22.7194 10.17 22.755C10.0144 22.9707 10.0594 23.2744 10.275 23.43C10.3594 23.4919 10.4625 23.52 10.56 23.52C10.7081 23.52 10.8563 23.4544 10.95 23.325C10.9556 23.3175 11.5256 22.56 12.48 22.56C13.4344 22.56 13.9875 23.2969 14.01 23.325C14.1638 23.5407 14.4694 23.5838 14.685 23.43C14.9006 23.2744 14.9456 22.9707 14.79 22.755C14.7563 22.7082 13.935 21.6 12.48 21.6V20.625C15.2119 20.4825 20.16 18.7744 20.16 13.95C20.16 12.6619 19.9313 11.7788 19.725 10.995C19.5656 10.3838 19.425 9.85502 19.425 9.24002C19.425 8.39815 19.8206 7.86752 20.01 7.66502C20.04 7.66315 20.085 7.66502 20.13 7.66502C20.4788 7.66502 20.9681 7.75502 21.285 8.02502C21.4275 8.14502 21.6263 8.17877 21.795 8.10002C21.9656 8.02127 22.065 7.85252 22.065 7.66502C22.065 6.08065 21.4294 5.55377 21.105 5.32502C21.0563 4.72877 20.79 4.20752 20.37 3.79502C20.4825 3.69002 20.5781 3.57377 20.655 3.43502C20.8444 3.09002 20.9006 2.6869 20.79 2.31002C20.6813 1.93877 20.4225 1.63877 20.085 1.45502C19.8413 1.32377 19.5169 1.28815 19.23 1.32002C19.005 0.924399 18.6056 0.525024 17.955 0.525024ZM18.375 4.80002C18.7725 4.80002 19.095 5.12252 19.095 5.52002C19.095 5.91752 18.7725 6.24002 18.375 6.24002C17.9775 6.24002 17.655 5.91752 17.655 5.52002C17.655 5.12252 17.9775 4.80002 18.375 4.80002Z" fill="#1F2937"/>
</svg>
