<svg width="22" height="22" viewBox="0 0 22 22" fill="none" xmlns="http://www.w3.org/2000/svg">
<path d="M2.98281 0.581299C2.88417 0.585858 2.78722 0.608637 2.69687 0.648487C2.69687 0.648487 0.599998 1.48706 0.599998 3.55161C0.599998 3.59735 0.610411 3.64067 0.612498 3.68599C0.609649 3.7248 0.599998 3.75937 0.599998 3.80005C0.599998 5.26046 2.45902 6.98288 5.07031 7.5813C4.07784 8.09157 2.66659 8.79775 1.2 9.40005C1.2 10.6663 2.28427 10.9219 3.98281 10.9766C3.86607 11.5365 3.8 12.0833 3.8 12.6C3.8 15.8504 7 15.8 7 19C7 19.4544 7.29424 20.2022 8.17344 20.7422C8.29904 20.6606 8.4392 20.6 8.6 20.6C8.976 20.6 9.2785 20.8692 9.3625 21.2204C9.8233 21.3324 10.3624 21.4 11 21.4C11.6376 21.4 12.1767 21.3324 12.6375 21.2204C12.7215 20.8692 13.024 20.6 13.4 20.6C13.5608 20.6 13.701 20.6606 13.8266 20.7422C14.7058 20.2022 15 19.4544 15 19C15 15.8 18.2 15.7664 18.2 12.6C18.2 12.0841 18.1376 11.5412 18.025 10.9875C20.0647 10.9676 21.4 10.8061 21.4 9.40005C19.7976 8.74199 18.2542 7.95861 17.325 7.47661C19.7253 6.80248 21.4 5.18515 21.4 3.80005C21.4 3.75937 21.3903 3.7248 21.3875 3.68599C21.3896 3.64067 21.4 3.59735 21.4 3.55161C21.4 1.48706 19.3031 0.648487 19.3031 0.648487C19.205 0.605504 19.0993 0.582657 18.9922 0.581299C18.8147 0.579426 18.6416 0.636648 18.5001 0.743956C18.3587 0.851264 18.257 1.00256 18.211 1.17403C18.165 1.3455 18.1773 1.52739 18.2461 1.69108C18.3148 1.85477 18.436 1.99094 18.5906 2.07817C18.7093 2.15499 19.3984 2.63109 19.3984 3.41411C19.3984 4.39171 18.5762 4.60005 17.8578 4.60005C17.0394 4.60005 15.9184 4.08911 15 4.08911C14.7011 4.08911 14.3493 4.14898 14.0016 4.22192C13.0545 3.47039 12.0271 3.00005 11 3.00005C9.97729 3.00005 8.95469 3.47277 8.01094 4.22505C7.65917 4.15074 7.30262 4.08911 7 4.08911C6.0816 4.08911 4.96059 4.60005 4.14219 4.60005C3.42379 4.60005 2.60156 4.39171 2.60156 3.41411C2.60156 2.66066 3.23472 2.19494 3.39062 2.09067C3.55274 2.00661 3.68122 1.86962 3.75473 1.70246C3.82823 1.53529 3.84234 1.34801 3.79471 1.17172C3.74708 0.995423 3.64057 0.840729 3.49288 0.733328C3.34519 0.625926 3.1652 0.57228 2.98281 0.581299ZM6.23906 11.8L9.4 13.4079C9.4 13.4079 8.20682 14.4874 7.31562 14.125C5.88042 13.5442 6.23906 11.8 6.23906 11.8ZM15.7594 11.8C15.7594 11.8 16.1188 13.5442 14.6844 14.125C13.7932 14.4874 12.6 13.4079 12.6 13.4079L15.7594 11.8Z" fill="#1F2937"/>
</svg>
