<?xml version="1.0" encoding="UTF-8"?>
<svg xmlns="http://www.w3.org/2000/svg" xmlns:xlink="http://www.w3.org/1999/xlink" viewBox="0 0 100 100" width="100px" height="100px">
<g id="surface94050796">
<path style=" stroke:none;fill-rule:nonzero;fill:rgb(12.156863%,16.078432%,21.568628%);fill-opacity:1;" d="M 62.5 28.125 L 53.125 28.125 C 51.398438 28.125 50 26.726562 50 25 C 50 23.273438 51.398438 21.875 53.125 21.875 L 62.5 21.875 C 64.226562 21.875 65.625 23.273438 65.625 25 C 65.625 26.726562 64.226562 28.125 62.5 28.125 Z M 62.5 28.125 "/>
<path style=" stroke:none;fill-rule:nonzero;fill:rgb(12.156863%,16.078432%,21.568628%);fill-opacity:1;" d="M 62.5 40.625 L 53.125 40.625 C 51.398438 40.625 50 39.226562 50 37.5 C 50 35.773438 51.398438 34.375 53.125 34.375 L 62.5 34.375 C 64.226562 34.375 65.625 35.773438 65.625 37.5 C 65.625 39.226562 64.226562 40.625 62.5 40.625 Z M 62.5 40.625 "/>
<path style=" stroke:none;fill-rule:nonzero;fill:rgb(12.156863%,16.078432%,21.568628%);fill-opacity:1;" d="M 68.75 15.625 L 31.25 15.625 C 29.523438 15.625 28.125 14.226562 28.125 12.5 C 28.125 10.773438 29.523438 9.375 31.25 9.375 L 68.75 9.375 C 70.476562 9.375 71.875 10.773438 71.875 12.5 C 71.875 14.226562 70.476562 15.625 68.75 15.625 Z M 68.75 15.625 "/>
<path style=" stroke:none;fill-rule:nonzero;fill:rgb(12.156863%,16.078432%,21.568628%);fill-opacity:1;" d="M 65.132812 90.625 L 34.867188 90.625 C 29.207031 90.625 23.992188 87.5625 21.230469 82.621094 C 18.46875 77.679688 18.597656 71.632812 21.5625 66.8125 L 34.375 45.992188 L 34.375 12.5 C 34.375 10.773438 35.773438 9.375 37.5 9.375 L 62.5 9.375 C 64.226562 9.375 65.625 10.773438 65.625 12.5 L 65.625 45.992188 L 78.4375 66.8125 C 81.402344 71.632812 81.53125 77.679688 78.769531 82.621094 C 76.007812 87.5625 70.792969 90.625 65.132812 90.625 Z M 40.625 15.625 L 40.625 46.875 C 40.625 47.453125 40.464844 48.019531 40.164062 48.511719 L 26.875 70.085938 C 25.09375 72.980469 25.019531 76.613281 26.679688 79.578125 C 28.335938 82.542969 31.472656 84.378906 34.867188 84.375 L 65.132812 84.375 C 68.527344 84.378906 71.664062 82.542969 73.320312 79.578125 C 74.980469 76.613281 74.90625 72.980469 73.125 70.085938 L 59.847656 48.523438 C 59.539062 48.03125 59.375 47.457031 59.375 46.875 L 59.375 15.625 Z M 40.625 15.625 "/>
</g>
</svg>
