<svg width="311" height="52" viewBox="0 0 311 52" fill="none" xmlns="http://www.w3.org/2000/svg">
<path d="M154.308 0C145.71 0 117.196 19.5847 105.613 19.5847C94.0297 19.5847 79.7362 22.1743 64.3448 22.1743C48.9535 22.1743 30.148 12.7711 19.8342 12.7711C13.167 12.7711 6.83136 16.7005 3.18468 19.4791C1.05803 21.0995 0 23.6791 0 26.3527V42C0 47.5228 4.47715 52 9.99999 52H301C306.523 52 311 47.5229 311 42V18.0695C311 12.5467 306.444 7.8695 301.34 5.76042C296.973 3.95593 292.788 1.75174 287.834 1.75174C279.445 1.75174 252.996 22.1743 241.889 22.1743C230.782 22.1743 218.404 8.14862 205.52 13.9465C192.636 19.7444 162.907 0 154.308 0Z" fill="url(#paint0_linear_772_99972)"/>
<defs>
<linearGradient id="paint0_linear_772_99972" x1="155.5" y1="0.562762" x2="155.5" y2="52" gradientUnits="userSpaceOnUse">
<stop stop-color="white"/>
<stop offset="1" stop-color="white" stop-opacity="0"/>
</linearGradient>
</defs>
</svg>
