<svg width="29" height="27" viewBox="0 0 29 27" fill="none" xmlns="http://www.w3.org/2000/svg">
<g clip-path="url(#clip0_772_99664)">
<path d="M26.6604 17.3524C26.7557 17.4286 26.8183 17.4945 26.9121 17.5728C26.9689 17.6201 26.9693 17.6201 27.025 17.5685C27.0637 17.5324 27.1014 17.4946 27.1412 17.4593C27.3014 17.3152 27.5171 17.3222 27.6663 17.4791C27.7257 17.542 27.7818 17.6084 27.8341 17.6781C27.9631 17.849 27.9502 18.0724 27.8046 18.2279C27.7636 18.2716 27.7202 18.3129 27.676 18.3527C27.6392 18.3858 27.638 18.418 27.6641 18.4595C27.7179 18.5449 27.7701 18.6315 27.8207 18.7191C27.8849 18.8301 27.942 18.9456 27.9962 19.0622C28.0477 19.1733 28.0477 19.1726 28.1547 19.1368C28.2065 19.1178 28.2592 19.102 28.3127 19.0895C28.4869 19.0539 28.652 19.1435 28.7264 19.316C28.7714 19.4224 28.8051 19.5338 28.8268 19.6482C28.8589 19.8113 28.7652 19.9922 28.6155 20.0725C28.5574 20.1034 28.4937 20.1169 28.4331 20.1399C28.3597 20.1679 28.3533 20.1735 28.3653 20.2497C28.4041 20.4898 28.4314 20.7312 28.4331 20.9751C28.4336 21.0284 28.4525 21.0587 28.5049 21.0634C28.5498 21.0673 28.5944 21.0761 28.6392 21.0811C28.8175 21.1007 28.9387 21.1952 28.9916 21.3813C28.9961 21.3974 29.0078 21.7331 28.9923 21.824C28.958 22.0248 28.8109 22.1679 28.6174 22.1761C28.5756 22.1781 28.5338 22.1753 28.4926 22.1676C28.4164 22.1529 28.3658 22.187 28.3474 22.2652C28.302 22.4577 28.241 22.6447 28.1754 22.8302C28.1561 22.8838 28.1672 22.9309 28.2092 22.9686C28.2312 22.9883 28.3157 23.0851 28.3293 23.1173C28.3607 23.1912 28.2251 23.0761 28.1938 23.057C28.122 23.0131 27.2434 22.4973 26.9162 22.3122C26.9396 22.1283 27.0241 21.893 27.0582 21.7116C27.2317 20.7878 27.0522 19.945 26.5502 19.1756C26.1325 18.5357 25.5607 18.1263 24.8585 17.9233C24.2404 17.7445 23.6278 17.7808 23.0268 18.0142C22.5295 18.2074 21.9851 18.5239 21.6864 19.0224C21.6522 19.063 21.636 19.0583 21.5819 19.0327C21.395 18.9336 20.6624 18.4263 20.3646 18.242C20.2325 18.1011 20.1452 17.8706 20.2444 17.7004C20.3151 17.5791 20.4102 17.4806 20.5122 17.3922C20.6555 17.268 20.8633 17.2715 21.0155 17.3883C21.2043 17.533 21.2041 17.5324 21.3876 17.3769C21.4834 17.2955 21.5855 17.2235 21.686 17.1492C21.7796 17.0802 21.7866 17.0524 21.7427 16.9441C21.623 16.6488 21.6998 16.4244 21.9695 16.2784C22.0408 16.2381 22.1153 16.2045 22.1921 16.1781C22.398 16.1114 22.5878 16.1895 22.6997 16.3846C22.8164 16.5881 22.8158 16.5878 23.0356 16.534C23.1517 16.5055 23.2695 16.4853 23.3867 16.4626C23.5039 16.4398 23.5217 16.4202 23.5284 16.2968C23.5311 16.2352 23.5399 16.174 23.5546 16.1143C23.5856 15.9951 23.6417 15.8905 23.7579 15.8435C23.9794 15.7538 24.2031 15.7366 24.4205 15.8545C24.5488 15.9241 24.6086 16.0438 24.6102 16.1988C24.6126 16.4312 24.6142 16.4331 24.8276 16.4699C24.9679 16.4941 25.1053 16.5301 25.2432 16.5647C25.3479 16.5909 25.3749 16.5807 25.4157 16.4734C25.5189 16.202 25.7755 16.0635 26.0781 16.2216C26.164 16.2665 26.254 16.2992 26.329 16.3715C26.4803 16.5172 26.4909 16.7325 26.4287 16.8895C26.4199 16.9116 26.4093 16.9327 26.4007 16.955C26.3593 17.064 26.3548 17.1278 26.3548 17.1278C26.3548 17.1278 26.5666 17.2771 26.6604 17.3524Z" fill="#5F5F5F"/>
<path d="M26.8673 22.2229C26.9553 22.3125 28.1308 22.9962 28.232 23.0607C28.2622 23.0648 28.2855 23.086 28.3127 23.0978L28.3112 23.0967C28.3322 23.1169 28.3523 23.1381 28.3712 23.1604L28.3702 23.1589C28.4633 23.2975 28.4627 23.4452 28.4089 23.5982C28.3747 23.6795 28.3336 23.7573 28.2861 23.8306C28.1754 24.0077 27.9712 24.0633 27.7917 23.9672C27.7371 23.9379 27.6841 23.9054 27.6322 23.8704C27.5946 23.8454 27.5687 23.8521 27.5422 23.8893C27.3984 24.0915 27.2385 24.2804 27.0643 24.4536C27.0292 24.4884 27.025 24.5189 27.0546 24.5592C27.0886 24.6049 27.1202 24.6525 27.1507 24.7008C27.2748 24.8964 27.2414 25.1221 27.0659 25.267C27.0049 25.3174 26.9425 25.3663 26.8778 25.4112C26.7036 25.5314 26.4993 25.4975 26.3666 25.3274C26.3299 25.2796 26.2956 25.2299 26.2637 25.1784C26.2354 25.1333 26.207 25.123 26.1597 25.1517C25.9605 25.2723 25.7502 25.3674 25.5354 25.4516C25.4573 25.4825 25.458 25.4836 25.4733 25.5704C25.4787 25.6007 25.4829 25.6313 25.4885 25.6614C25.5384 25.9159 25.4814 26.0538 25.272 26.1843C25.2179 26.2162 25.1559 26.2113 25.0978 26.2276C24.9968 26.2533 24.8946 26.2512 24.7916 26.2458H24.7911C24.7574 26.2281 24.7243 26.209 24.6913 26.1898C24.5923 26.102 24.5481 25.9863 24.5224 25.8537C24.4876 25.6742 24.5088 25.7033 24.3532 25.7111C24.1472 25.7213 23.9407 25.7204 23.7347 25.7083C23.6548 25.7035 23.6546 25.7032 23.6362 25.782C23.6277 25.8186 23.618 25.8551 23.6128 25.8923C23.5794 26.1275 23.4012 26.3041 23.1172 26.2466C23.0477 26.2324 22.9789 26.2133 22.911 26.192C22.7168 26.1314 22.6045 25.9323 22.6434 25.7207C22.6531 25.667 22.6649 25.6136 22.6748 25.5597C22.6882 25.4865 22.6873 25.4827 22.6182 25.4551C22.4854 25.4021 22.3532 25.3478 22.2254 25.2824C22.1499 25.2437 22.0753 25.2032 22.0009 25.1623C21.9234 25.12 21.9239 25.1194 21.8698 25.1965C21.8408 25.2377 21.8137 25.2803 21.7836 25.32C21.6512 25.4965 21.4423 25.5336 21.2658 25.4101C21.1986 25.3631 21.1331 25.3127 21.0699 25.2596C20.9089 25.1237 20.8742 24.9006 20.9849 24.7164C21.0178 24.6616 21.0544 24.6092 21.0913 24.5574C21.117 24.5215 21.1186 24.4927 21.0856 24.4597C20.9091 24.2839 20.7472 24.0923 20.6017 23.887C20.5741 23.8479 20.5469 23.8481 20.5111 23.872C20.4674 23.9011 20.4222 23.9278 20.3769 23.9543C20.1737 24.072 19.9619 24.0139 19.8426 23.8024C19.7999 23.7266 19.7476 23.6571 19.7183 23.5721C19.6455 23.3615 19.7069 23.1664 19.8886 23.0491C19.9273 23.0242 19.9668 23.0011 20.0048 22.9761C20.0719 22.9324 20.0736 22.9312 20.044 22.8549C19.9825 22.6965 19.9296 22.5345 19.8856 22.3697C19.8663 22.2976 19.8479 22.2243 19.8318 22.151C19.8202 22.0975 19.7939 22.0768 19.7421 22.0883C19.7009 22.0964 19.6593 22.1022 19.6175 22.1059C19.3717 22.1334 19.1894 21.9769 19.1638 21.7161C19.1567 21.644 19.1492 21.5729 19.1444 21.5011C19.1378 21.3973 19.169 21.2947 19.2314 21.2146C19.2939 21.1345 19.3828 21.0829 19.48 21.0706C19.5343 21.0635 19.589 21.059 19.643 21.05C19.7134 21.0376 19.7158 21.0361 19.7168 20.9579C19.72 20.7866 19.7323 20.6156 19.7536 20.4458C19.7625 20.3711 19.786 20.2986 19.7809 20.2221C19.7756 20.1698 19.7547 20.1373 19.7152 20.121C19.6881 20.1126 19.6817 20.109 19.6413 20.0983C19.5618 20.0777 19.4896 20.0411 19.432 19.9791" fill="#414141"/>
<path d="M19.7853 20.2685C19.7944 20.2161 19.7732 20.1372 19.7226 20.1222C19.6791 20.1092 19.6097 20.0815 19.5665 20.0677C19.3949 20.0127 19.2872 19.8686 19.2684 19.6752C19.2466 19.5928 19.3148 19.3264 19.3458 19.24C19.4151 19.0497 19.585 18.9387 19.7764 18.9695C19.8178 18.9759 19.8583 18.9871 19.8974 19.0028C19.9697 19.0327 20.0254 19.0092 20.0573 18.9361C20.1361 18.7562 20.254 18.5779 20.3298 18.3968C20.4031 18.2217 20.3512 18.2363 20.3768 18.2423C20.4395 18.2998 21.3548 18.7731 21.6434 19.0206C21.4554 19.2368 21.0379 20.2159 21.0204 20.5434" fill="#414141"/>
<path d="M21.6536 19.0049C22.2379 18.3332 22.656 18.0448 23.2328 17.8705C23.5838 17.7636 23.95 17.7248 24.3139 17.7558C24.9263 17.8082 25.4794 18.0357 25.9663 18.4377C26.3958 18.7923 26.7085 19.2416 26.9218 19.7714C27.0524 20.0955 27.1213 20.4342 27.1535 20.7854C27.1997 21.2881 27.0984 21.8498 26.9362 22.3184C26.9034 22.3493 26.3058 21.9142 26.2419 21.8295C26.2272 21.7838 26.2453 21.7419 26.2563 21.6994C26.315 21.4705 26.3531 21.2379 26.3463 21C26.3142 19.8565 25.5817 18.9134 24.5687 18.683C23.8211 18.5129 23.0284 18.6846 22.3027 19.4689C22.2845 19.4798 22.2787 19.4563 22.1555 19.366C21.9487 19.2321 21.8469 19.1482 21.7056 19.0571C21.6245 19.0069 21.6286 19.034 21.6536 19.0049Z" fill="#414141"/>
<path d="M26.9482 22.2855C26.9287 22.3185 26.9111 22.3526 26.8955 22.3878C26.7173 22.8446 26.4319 23.2196 26.0843 23.5372C25.6294 23.953 25.1017 24.2123 24.5027 24.2956C24.356 24.3162 24.2089 24.3385 24.0605 24.3336C23.6316 24.3191 23.2171 24.2351 22.821 24.0516C22.5698 23.9345 22.3346 23.7818 22.1219 23.5976C21.7908 23.3127 21.5218 22.9704 21.3243 22.5648C21.1428 22.1911 21.0383 21.7959 20.994 21.3794C20.9553 21.0209 20.9857 20.669 21.0563 20.3181C21.137 19.9177 21.2876 19.5487 21.4978 19.2068C21.5277 19.1582 21.6147 19.0479 21.643 19.0202C21.7957 19.1046 22.2127 19.3974 22.2796 19.461C22.3217 19.5196 22.2439 19.5967 22.2198 19.6343C22.0916 19.8335 21.986 20.0438 21.9182 20.2749C21.6816 21.0801 21.79 21.8295 22.2666 22.5031C22.6642 23.0652 23.205 23.3734 23.8661 23.444C24.8081 23.5446 25.7748 22.9758 26.1726 21.9718C26.1946 21.9164 26.1891 21.8289 26.2785 21.8246C26.336 21.8948 26.8806 22.2461 26.9482 22.2855Z" fill="#5F5F5F"/>
<path d="M26.2778 21.8248C26.2027 22.0294 26.1189 22.2288 26.0013 22.4108C25.6289 22.9873 25.1205 23.3451 24.4733 23.4683C23.8178 23.5931 23.2177 23.4374 22.6842 23.018C22.2148 22.6489 21.9155 22.1524 21.7998 21.5444C21.6632 20.8257 21.8067 20.1643 22.2068 19.5666C22.2217 19.5443 22.2358 19.5217 22.2508 19.4993C22.2659 19.4801 22.4648 19.2466 22.5616 19.1604C22.9905 18.7782 23.4811 18.5823 24.042 18.571C25.0928 18.5498 26.0406 19.3063 26.314 20.4056C26.4233 20.8456 26.4204 21.2867 26.3015 21.7255C26.2926 21.758 26.2856 21.7916 26.2778 21.8248Z" fill="#EDAE50"/>
<path d="M24.6944 21.0394C24.7121 21.4157 24.3874 21.707 24.0793 21.703C23.7277 21.6986 23.4392 21.4053 23.4424 21.0332C23.4454 20.6694 23.7127 20.3686 24.0836 20.3676C24.3927 20.3667 24.7115 20.6608 24.6944 21.0394Z" fill="#414141"/>
<path d="M24.7299 19.7891C24.8014 19.7814 24.8609 19.8083 24.9103 19.8647C24.9541 19.9146 25.0011 19.9615 25.0439 20.0125C25.1432 20.1306 25.0826 20.3467 24.9541 20.3892C24.8981 20.4077 24.8466 20.409 24.7972 20.3745C24.6914 20.3006 24.6012 20.2071 24.5212 20.1045C24.4361 19.9956 24.4793 19.8561 24.6058 19.8089C24.6455 19.7934 24.6877 19.7867 24.7299 19.7891Z" fill="#FCD38C"/>
<path d="M7.86182 26.2075C7.6876 26.11 7.58423 25.9585 7.55316 25.7504C7.54252 25.6795 7.52413 25.6101 7.51048 25.5395C7.5008 25.49 7.47738 25.4736 7.42889 25.4777C7.12059 25.5053 6.8108 25.5088 6.50204 25.488C6.46022 25.4853 6.41831 25.4828 6.37679 25.4777C6.3372 25.473 6.31659 25.4904 6.30846 25.5309C6.29375 25.6046 6.274 25.6773 6.26258 25.7516C6.22725 25.9809 6.10917 26.1385 5.90814 26.2273C5.77951 26.2644 5.65097 26.2515 5.52244 26.2261C5.40339 26.2026 5.28114 26.1915 5.17322 26.125C5.13179 26.0926 5.08727 26.0646 5.05136 26.0244C4.92312 25.8802 4.87008 25.712 4.90318 25.5157C4.91567 25.4416 4.93222 25.3684 4.94625 25.2944C4.96996 25.1682 4.96977 25.1675 4.85914 25.1259C4.60723 25.0307 4.3615 24.9179 4.12355 24.7882C4.06625 24.7574 4.00817 24.7265 3.95339 24.6912C3.91158 24.6638 3.8838 24.6695 3.8566 24.7117C3.81489 24.7767 3.76862 24.8384 3.7272 24.9037C3.55075 25.1824 3.20454 25.2641 2.93237 25.0408C2.86103 24.9822 2.78573 24.9291 2.7142 24.8709C2.46168 24.6656 2.41561 24.3386 2.59961 24.0613C2.64781 23.9885 2.69707 23.9164 2.7474 23.8451C2.77131 23.8116 2.77092 23.7841 2.74063 23.7565C2.72591 23.7432 2.71275 23.7281 2.69872 23.7139C2.46294 23.4754 2.24517 23.2176 2.04742 22.9429C1.99129 22.8648 1.9908 22.8651 1.90834 22.9156C1.85249 22.9498 1.79693 22.9843 1.74109 23.0185C1.44743 23.1971 1.15571 23.1186 0.974229 22.8126C0.949354 22.7735 0.939966 22.7593 0.91393 22.7123C0.881893 22.6462 0.843177 22.5842 0.81414 22.5158C0.690347 22.2242 0.776587 21.9257 1.03569 21.761C1.09647 21.7223 1.15823 21.6852 1.21959 21.6468C1.30128 21.5954 1.30215 21.5947 1.26702 21.5053C1.15409 21.2175 1.06093 20.9214 0.988264 20.6193C0.976262 20.5696 0.963099 20.5201 0.95342 20.4698C0.943741 20.4196 0.916252 20.4032 0.870084 20.4095C0.783845 20.4211 0.69751 20.4345 0.610787 20.4398C0.388173 20.4535 0.216372 20.3593 0.100129 20.1561C0.0517344 20.0725 0.0335383 19.9789 0.0254081 19.8821C0.0194072 19.81 0.00604998 19.7453 0.00150091 19.6679C-0.0172761 19.3759 0.139909 19.0091 0.485445 18.9827C0.559295 18.9772 0.632758 18.9653 0.706414 18.9567C0.791589 18.9464 0.794589 18.9457 0.796525 18.8595C0.802065 18.606 0.821456 18.353 0.854598 18.1019C0.868149 18.0002 0.883635 17.8987 0.900476 17.7976C0.91664 17.701 0.916737 17.6989 0.826239 17.6674C0.758487 17.644 0.690735 17.6218 0.624047 17.5977C0.334261 17.4938 0.184626 17.2003 0.265928 16.8879C0.295933 16.7725 0.332809 16.6588 0.372396 16.5466C0.473927 16.2574 0.751905 16.1116 1.03056 16.1991C1.11399 16.2252 1.19762 16.2514 1.27873 16.2843C1.33061 16.3049 1.35364 16.2877 1.37552 16.239C1.42691 16.1246 1.48276 16.0125 1.53686 15.8998C1.55622 15.8609 1.57403 15.8298 1.59155 15.7941C1.64962 15.6808 1.71128 15.5691 1.78513 15.466C1.85162 15.4042 13.0398 22.4024 13.0083 22.4831C12.9868 22.5243 12.9696 22.5641 12.9489 22.6039C12.9095 22.6784 12.8722 22.7543 12.8302 22.8272C12.6706 23.1034 12.38 23.1875 12.1088 23.0369C12.0376 22.9972 11.9692 22.9517 11.8992 22.9093C11.8264 22.8652 11.8255 22.8648 11.7761 22.9328C11.6657 23.0845 11.5502 23.2317 11.4296 23.3744C11.3216 23.5019 11.2075 23.6226 11.0914 23.7413C11.0379 23.7959 11.038 23.7976 11.0792 23.8596C11.1255 23.9296 11.1745 23.9976 11.2205 24.0679C11.3988 24.3407 11.351 24.6689 11.1033 24.8697C11.0239 24.9341 10.9433 24.9966 10.8613 25.0572C10.6039 25.247 10.2982 25.1951 10.1079 24.9297C10.0595 24.8616 10.0135 24.7909 9.96514 24.7225C9.92139 24.6607 9.91975 24.6598 9.85567 24.6968C9.59288 24.8498 9.32011 24.9826 9.03945 25.0941C9.00016 25.1095 8.96057 25.1241 8.92147 25.1399C8.85071 25.1686 8.84936 25.1697 8.86339 25.2532C8.87588 25.3273 8.88633 25.4024 8.90637 25.4744C8.98109 25.7435 8.82506 26.0685 8.47866 26.1829C8.32893 26.2324 8.00459 26.2683 7.86182 26.2075Z" fill="#414141"/>
<path d="M12.9867 22.5029C12.7517 22.3579 10.6603 20.9873 10.5139 20.9014C10.4344 20.8586 10.4602 20.8535 10.5084 20.7572C10.6795 20.3685 10.7946 19.9547 10.8499 19.5296C10.8898 19.2199 10.8877 18.9089 10.8636 18.597C10.8412 18.3032 10.7893 18.0127 10.7088 17.7306C10.6063 17.3711 10.458 17.0347 10.2749 16.7132C10.0706 16.3546 9.81029 16.0484 9.52273 15.766C9.30167 15.5489 9.05176 15.3727 8.78791 15.2195C8.39149 14.9878 7.96013 14.8315 7.5132 14.7575C7.23251 14.7112 6.94921 14.6884 6.66591 14.7081C6.06301 14.7503 5.49225 14.919 4.96136 15.2294C4.54257 15.4805 4.16774 15.8068 3.85342 16.1938C3.77328 16.2925 3.65916 16.489 3.58067 16.5887C3.53556 16.6459 2.78506 16.1281 1.76413 15.4857C1.80178 15.4152 1.83808 15.3575 1.87834 15.296C1.90341 15.2575 1.90138 15.2283 1.86866 15.1979C1.80604 15.1388 1.74361 15.0794 1.68215 15.0188C1.48664 14.8259 1.44095 14.5701 1.56339 14.3188C1.59136 14.2612 1.64189 14.1259 1.71893 14.0276C1.75619 13.9801 1.79723 13.9367 1.8375 13.8924C2.03456 13.6755 2.41765 13.6719 2.62333 13.8718C2.87227 14.1133 2.83955 14.0571 3.0492 13.8861C3.22836 13.7402 3.40964 13.5978 3.59915 13.4671C3.70117 13.3968 3.70775 13.3628 3.65616 13.245C3.59867 13.1136 3.54689 12.9816 3.55802 12.8315C3.57176 12.6461 3.64251 12.4876 3.78489 12.3847C3.98815 12.2378 4.20399 12.117 4.46328 12.1245C4.67748 12.1309 4.8275 12.2441 4.93629 12.4296C4.97501 12.4964 5.00511 12.5692 5.03647 12.6407C5.06551 12.7076 5.11254 12.7294 5.17846 12.711C5.45615 12.6337 5.73741 12.5751 6.02052 12.5264C6.12341 12.5087 6.14412 12.4766 6.14809 12.3679C6.14998 12.3302 6.14998 12.2924 6.14809 12.2546C6.12612 11.9091 6.37777 11.6191 6.6752 11.599C6.83916 11.5879 7.00341 11.5748 7.16621 11.6093C7.40557 11.6608 7.64116 11.894 7.61744 12.2142C7.61415 12.2584 7.61657 12.3032 7.61744 12.348C7.61957 12.4796 7.6428 12.5118 7.76505 12.5304C8.02993 12.5699 8.29225 12.6268 8.55049 12.7009C8.68715 12.7407 8.70835 12.7262 8.76526 12.5903C8.80988 12.4839 8.8546 12.3772 8.93338 12.2918C9.0927 12.1197 9.29102 12.0919 9.49757 12.1405C9.66114 12.179 9.81484 12.2579 9.95567 12.3555C10.1852 12.5147 10.2688 12.8006 10.1754 13.0786C10.156 13.1366 10.1326 13.1932 10.1082 13.2492C10.0598 13.3591 10.068 13.3992 10.1642 13.464C10.3664 13.5987 10.561 13.7457 10.7471 13.9043C10.951 14.0793 10.9147 14.1059 11.1397 13.8893C11.3368 13.6995 11.6411 13.6769 11.8208 13.8069C12.0029 13.9384 12.1614 14.1041 12.2666 14.3114C12.3602 14.496 12.3476 14.8356 12.1612 15.0062C12.1053 15.0576 12.0557 15.1167 12.0037 15.173C11.9587 15.2219 11.9526 15.2754 11.9882 15.3312C12.1549 15.5921 12.304 15.8652 12.4345 16.1485C12.4666 16.218 12.5216 16.2357 12.5894 16.2129C12.6691 16.1856 12.7505 16.1639 12.833 16.1481C13.0535 16.1069 13.2963 16.2098 13.4096 16.4157C13.5195 16.6152 13.5871 16.834 13.594 17.0681C13.6014 17.3255 13.4809 17.5036 13.2746 17.6221C13.206 17.6605 13.1338 17.691 13.0591 17.7129C12.9802 17.7368 12.9464 17.7879 12.9623 17.8735C13.018 18.1804 13.0365 18.4912 13.0548 18.8024C13.0596 18.8848 13.0971 18.9303 13.1749 18.9327C13.2329 18.9345 13.2901 18.946 13.3475 18.9541C13.6434 18.9952 13.8458 19.2401 13.8469 19.5585C13.8474 19.6201 13.8446 19.6818 13.8386 19.7431C13.829 19.8398 13.7964 19.9785 13.7709 20.069C13.6968 20.3327 13.4467 20.477 13.1887 20.4596C13.1052 20.454 13.0221 20.4397 12.9387 20.431C12.862 20.423 12.8582 20.424 12.8391 20.5049C12.7818 20.7477 12.7194 20.9888 12.6374 21.2237C12.5993 21.3329 12.56 21.4417 12.5168 21.5488C12.4974 21.5963 12.5056 21.6254 12.547 21.6502C12.6284 21.6991 12.7105 21.7471 12.789 21.8011C12.9984 21.9453 13.085 22.2075 13.0087 22.4578C13.0025 22.4734 12.9952 22.4885 12.9867 22.5029Z" fill="#666059"/>
<path d="M4.45543 17.0922C4.55222 16.9687 4.64407 16.8404 4.75005 16.7246C5.24997 16.1782 5.85403 15.8575 6.56727 15.7721C7.19804 15.6965 7.79649 15.8133 8.34925 16.1441C9.20022 16.6534 9.70778 17.4297 9.86787 18.4528C9.96088 19.0472 9.89042 19.6275 9.66849 20.1845C9.656 20.216 9.6471 20.2491 9.63655 20.2814C9.66065 20.335 9.63722 20.3811 9.61612 20.4276C9.50849 20.6644 9.36689 20.8768 9.20303 21.0711C8.73176 21.6302 8.15499 22.0007 7.45502 22.1288C6.52584 22.2989 5.68755 22.0703 4.95873 21.4313C4.36764 20.9129 4.01146 20.2418 3.89676 19.4371C3.80752 18.8108 3.88176 18.2006 4.12576 17.6177C4.1849 17.4763 4.25672 17.3428 4.32902 17.2089C4.35854 17.1531 4.39706 17.1114 4.45543 17.0922Z" fill="#EDAE50"/>
<path d="M4.99499 18.9376C4.97902 17.7833 5.90733 16.9037 6.89206 16.8984C7.85782 16.8931 8.82164 17.7111 8.82329 18.9479C8.82493 20.096 7.9488 20.9686 6.92622 20.9798C5.81218 20.9921 4.97457 20.0143 4.99499 18.9376Z" fill="#45423D"/>
<path d="M8.78933 17.0545C8.8053 17.2247 8.60475 17.3583 8.46538 17.2599C8.37081 17.1931 8.28147 17.1252 8.20656 17.0362C8.09864 16.9084 8.12322 16.7758 8.26618 16.6922C8.37207 16.6304 8.47079 16.626 8.56855 16.7146C8.63737 16.7769 8.70406 16.8398 8.75342 16.921C8.77845 16.9603 8.79103 17.0071 8.78933 17.0545Z" fill="#FCD38C"/>
<path d="M5.38004 18.9515C5.35632 18.1176 5.99165 17.3043 6.91376 17.3079C7.77518 17.3116 8.44757 18.0464 8.43896 18.9654C8.43054 19.8714 7.72427 20.5817 6.88491 20.5707C6.01459 20.5593 5.35652 19.7803 5.38004 18.9515Z" fill="#EDAE50"/>
<path d="M6.90446 19.605C6.56134 19.605 6.27533 19.3015 6.27785 18.9358C6.28007 18.5755 6.54256 18.274 6.90843 18.27C7.24215 18.2664 7.53358 18.5598 7.53175 18.9415C7.53 19.3135 7.25512 19.6054 6.90446 19.605Z" fill="#414141"/>
<path d="M7.62915 17.834C7.66516 17.834 7.70039 17.8382 7.73098 17.8597C7.86406 17.9536 7.9353 18.0841 7.93056 18.2558C7.92804 18.344 7.80909 18.4367 7.72798 18.4172C7.59082 18.384 7.47903 18.3118 7.40266 18.1818C7.33665 18.0694 7.34972 17.9753 7.44864 17.8958C7.50216 17.8532 7.56334 17.8358 7.62915 17.834Z" fill="#FCD38C"/>
<path d="M4.45678 17.0921C4.3569 17.2602 4.26021 17.4297 4.18297 17.6117C4.05322 17.9186 3.96895 18.245 3.93316 18.5794C3.88566 19.001 3.91845 19.4285 4.02958 19.8364C4.14071 20.2442 4.3279 20.6241 4.58 20.9534C4.96328 21.4538 5.44626 21.7986 6.02486 21.9909C6.36024 22.1024 6.70558 22.1536 7.05538 22.129C7.97042 22.0646 8.71666 21.6503 9.28694 20.8833C9.40665 20.7215 9.50992 20.5467 9.59502 20.3619C9.6078 20.3344 9.62358 20.3084 9.6379 20.2818C9.71746 20.3214 10.3364 20.7466 10.4419 20.8251C10.4838 20.856 10.4649 20.8972 10.4449 20.9349C10.3362 21.1414 10.2213 21.3438 10.083 21.5298C9.78076 21.9367 9.42816 22.2835 9.01109 22.5554C8.60631 22.8195 8.16162 23.0071 7.6967 23.1099C7.33703 23.1906 6.97272 23.2025 6.60947 23.1785C6.1263 23.1469 5.66326 23.0167 5.22248 22.7992C4.92053 22.6519 4.63754 22.4642 4.38042 22.2405C3.8747 21.7972 3.48241 21.2617 3.22863 20.615C3.06643 20.1999 2.96501 19.7608 2.92791 19.313C2.86983 18.6452 2.96933 18.0024 3.1904 17.3776C3.27141 17.1488 3.37826 16.9341 3.49248 16.7231C3.5037 16.7025 3.51629 16.6819 3.52926 16.6627C3.59865 16.5578 3.61182 16.5545 3.71499 16.6171C3.88825 16.7222 4.22149 16.942 4.39116 17.0521C4.41383 17.0639 4.43575 17.0772 4.45678 17.0921Z" fill="#666059"/>
<path d="M9.83543 19.6174C9.92294 19.2031 9.93112 18.7743 9.8595 18.3565C9.78788 17.9388 9.63792 17.5406 9.41856 17.1858C9.05193 16.6829 8.59131 16.2593 8.08016 15.9977C7.76112 15.8515 7.4192 15.77 7.07201 15.7575C6.15552 15.7228 5.36978 16.0458 4.72972 16.7477C4.62907 16.8601 4.53454 16.9785 4.44661 17.1024C4.37131 17.0545 3.67801 16.6783 3.58054 16.5887C3.54182 16.5531 3.8441 16.1888 3.99944 16.0186C4.33898 15.6465 4.72275 15.3391 5.16372 15.114C5.57643 14.8875 6.04818 14.7581 6.52418 14.7042C6.88915 14.6623 7.25776 14.6727 7.62013 14.7351C8.09778 14.8188 8.53817 15.0165 8.95581 15.2807C9.24221 15.4598 9.50588 15.6772 9.74039 15.9275C10.2012 16.4231 10.5403 16.9981 10.7314 17.6689C10.8532 18.0994 10.9121 18.5473 10.9063 18.9969C10.9 19.6675 10.7418 20.2838 10.5119 20.78C10.4663 20.8784 10.5076 20.8759 10.3755 20.78C10.2132 20.6565 9.80823 20.3985 9.6373 20.2818C9.62666 20.2732 9.76623 19.9477 9.83543 19.6174Z" fill="#45423D"/>
<path d="M5.5799 2.13773C5.50944 1.8993 5.45534 1.65613 5.39601 1.41451C5.38033 1.35088 5.39794 1.33379 5.46173 1.31732C8.99114 0.404366 13.2832 1.10195 15.4875 1.8122C15.8368 1.94552 16.1769 2.10046 16.4914 2.31243C16.6279 2.40447 16.7574 2.50588 16.8592 2.64187C16.8876 2.67911 16.9131 2.7187 16.9356 2.76026C16.9889 2.86126 17.0008 2.96307 16.9507 3.07354C16.8345 3.32982 16.7082 3.58033 16.5718 3.82507C16.4836 3.98444 16.3929 4.14226 16.3035 4.3009C16.2614 4.37789 16.2141 4.45156 16.162 4.52132C16.1165 4.56651 16.0653 4.54479 16.0161 4.53306C15.8002 4.48158 15.5822 4.44133 15.3676 4.38512C15.3518 4.381 15.3358 4.388 15.3198 4.38862C15.095 4.3112 14.8577 4.30235 14.6295 4.24449C14.5996 4.23687 14.5735 4.25612 14.5449 4.25097C14.17 4.17345 13.7899 4.13433 13.4125 4.07915C13.2797 4.05969 13.1427 4.06999 13.014 4.01954C12.9648 3.96426 12.9559 3.89199 12.9394 3.82229C12.8442 3.41111 12.7206 3.01208 12.4941 2.65773C12.4597 2.60388 12.4222 2.55251 12.3829 2.50248C12.2651 2.35207 12.1245 2.26261 11.9335 2.23594C11.4354 2.16624 10.9366 2.10602 10.4363 2.06093C9.60391 1.98547 8.77056 1.9726 7.93662 1.98516C7.52508 1.99123 7.11392 2.02037 6.70314 2.05805C6.36303 2.08893 6.02368 2.12558 5.68531 2.17325C5.6434 2.17757 5.6072 2.17489 5.5799 2.13773Z" fill="#EDAE50"/>
<path d="M17.2833 9.31643C17.0489 9.31468 16.8144 9.30954 16.5801 9.31304C16.5054 9.31407 16.4888 9.26784 16.4726 9.2107C16.4091 9.19011 16.4108 9.12834 16.401 9.07687C16.3253 8.68062 16.2539 8.28323 16.1715 7.88842C15.9687 6.91771 15.7408 5.9539 15.4636 5.00378C15.4159 4.84009 15.3645 4.67763 15.3179 4.51353C15.3036 4.4636 15.2765 4.40914 15.3224 4.35911C15.3394 4.33852 15.362 4.33852 15.3843 4.34274C15.6451 4.39421 15.9058 4.44569 16.162 4.52002C16.3302 5.02364 16.4717 5.53602 16.6023 6.0519C16.7797 6.75299 16.9319 7.46056 17.0739 8.17061C17.1268 8.4358 17.2827 9.30984 17.2833 9.31643Z" fill="#45423D"/>
<path d="M5.57948 2.13777C5.88776 2.08176 6.19893 2.04923 6.50992 2.01958C6.73418 1.99817 6.9596 1.98448 7.18444 1.96811C7.80912 1.92199 8.43437 1.92291 9.05944 1.93413C9.51347 1.94227 9.96712 1.9679 10.4204 2.0062C10.7223 2.03173 11.0237 2.06107 11.3244 2.09762C11.577 2.1285 11.8277 2.17308 12.0804 2.20808C12.1621 2.21931 12.2237 2.26193 12.282 2.31865C12.4832 2.51426 12.6253 2.75351 12.7369 3.01459C12.8697 3.32488 12.9609 3.64938 13.0214 3.98386C13.0074 4.03081 12.9714 4.03142 12.935 4.02906C12.7744 4.01876 12.6135 4.00671 12.4535 3.99086C12.3124 3.97696 12.1707 3.97027 12.0298 3.96183C11.8051 3.94865 11.5802 3.92271 11.3544 3.93599C11.2673 3.94124 11.1814 3.91787 11.0945 3.91643C10.9768 3.91458 10.9402 3.94165 10.8994 4.05767C10.6588 4.74198 10.4606 5.44039 10.2865 6.14683C10.0175 7.23809 9.81226 8.34367 9.63969 9.45624C9.59342 9.75356 9.55577 10.0523 9.51454 10.3506C9.50612 10.4112 9.49992 10.4734 9.46363 10.5256C9.43527 10.5558 9.39916 10.5579 9.36451 10.5483C9.20268 10.5039 9.04201 10.4542 8.88057 10.4085C8.86794 10.4055 8.85621 10.3992 8.84639 10.3902C8.83657 10.3813 8.82896 10.3699 8.82424 10.3571C8.7982 10.2826 8.81456 10.207 8.82501 10.1337C8.98955 8.93017 9.19097 7.73421 9.45588 6.55101C9.64327 5.71424 9.85678 4.8859 10.1303 4.07579C10.1717 3.95328 10.1485 3.91766 10.0275 3.91622C9.54803 3.91056 9.06931 3.92827 8.59001 3.95267C8.3492 3.96502 8.10848 3.97552 7.86825 3.99693C7.85219 3.99693 7.83602 3.99755 7.81986 3.99765C7.56908 3.99941 7.56327 4.00527 7.48419 4.25348C7.02396 5.69663 6.70224 7.17602 6.45368 8.67506C6.37935 9.12341 6.31421 9.57319 6.24801 10.0229C6.24201 10.0641 6.23775 10.1046 6.21336 10.1391C6.19013 10.179 6.1518 10.1843 6.11328 10.1906C5.91331 10.2215 5.71218 10.243 5.51318 10.2806C5.46837 10.2891 5.4133 10.2993 5.4043 10.2225C5.43766 9.98551 5.47108 9.74852 5.50457 9.51153C5.59129 8.89507 5.6895 8.2808 5.7992 7.66873C5.94302 6.86676 6.10757 6.07106 6.31082 5.28494C6.40761 4.91205 6.50759 4.53999 6.62926 4.17514C6.67185 4.04728 6.67165 4.04728 6.57961 3.95895C6.35757 3.74512 6.13631 3.53047 5.91312 3.31798C5.87209 3.27971 5.84335 3.22873 5.83094 3.17221C5.75535 2.86058 5.67608 2.54998 5.59807 2.23897C5.58457 2.2072 5.57827 2.1725 5.57968 2.13767L5.57948 2.13777Z" fill="#45423D"/>
<path d="M5.58078 2.13731C5.59259 2.16995 5.60604 2.20217 5.59917 2.23861C5.57982 2.20783 5.55523 2.17757 5.58078 2.13731Z" fill="#A9A9A9"/>
<path d="M10.7045 11.0857C10.3336 10.8738 9.94484 10.7069 9.54713 10.5622C9.51093 10.549 9.4729 10.5393 9.44531 10.5077C9.48625 10.2059 9.5241 9.90365 9.56862 9.60252C9.67186 8.90535 9.79243 8.21164 9.93032 7.5214C10.1404 6.47522 10.3916 5.44099 10.722 4.42982C10.7748 4.26799 10.8296 4.10687 10.8846 3.94596C10.9123 3.86453 10.9136 3.86422 10.9956 3.86669C11.453 3.88048 11.9103 3.89912 12.3671 3.92959C12.5855 3.94411 12.8036 3.96552 13.0219 3.98385C13.3825 4.0207 13.7419 4.06795 14.1006 4.122C14.253 4.14506 14.4055 4.16627 14.5568 4.19623C14.6439 4.23319 14.6979 4.30402 14.7504 4.38535C14.9502 4.69492 15.1094 5.02919 15.2418 5.37366C15.3804 5.73399 15.5072 6.10152 15.5928 6.48233C15.6264 6.63222 15.6743 6.77831 15.7089 6.92769C15.8222 7.41927 15.9477 7.90766 16.0393 8.40491C16.0862 8.65992 16.136 8.91472 16.1979 9.16674C16.2143 9.23376 16.2416 9.30963 16.1604 9.35791C16.1517 9.36821 16.1446 9.38108 16.1339 9.38715C15.9903 9.46797 15.8932 9.59954 15.7989 9.73368C15.6414 9.95759 15.4853 10.1827 15.3287 10.4075C15.2846 10.4281 15.2482 10.411 15.2121 10.3835C15.0235 10.2398 14.8331 10.0986 14.641 9.95986C14.5434 9.88913 14.5358 9.85372 14.6014 9.74933C14.6944 9.60108 14.7944 9.45798 14.8903 9.3119C14.9271 9.25568 14.9666 9.20102 14.9967 9.14028C15.051 9.03012 15.0311 8.92028 14.9477 8.85449C14.8642 8.78871 14.7603 8.80209 14.6802 8.89752C14.5793 9.01797 14.4997 9.15603 14.4135 9.28873C14.1398 9.70829 13.8655 10.1275 13.5908 10.5465C13.5649 10.5858 13.5386 10.6251 13.5211 10.67C13.4809 10.7719 13.5089 10.8769 13.5903 10.9335C13.6745 10.9919 13.7714 10.9804 13.8427 10.8935C13.9425 10.772 14.0215 10.6337 14.1083 10.5023C14.1637 10.418 14.2188 10.3336 14.276 10.2507C14.3157 10.193 14.3597 10.1845 14.417 10.2236C14.6258 10.3664 14.8252 10.5236 15.029 10.6741C15.0631 10.6993 15.0967 10.7292 15.0954 10.7809C15.0317 10.8913 14.9682 11.002 14.904 11.1121C14.8718 11.1674 14.8372 11.2211 14.8054 11.2768C14.6729 11.5071 14.6688 11.7452 14.783 11.9816C15.0906 12.6181 15.4102 13.2479 15.7709 13.8528C15.8158 13.928 15.8641 14.0007 15.9092 14.0756C16.0363 14.2863 16.2261 14.3708 16.4494 14.3779C16.6649 14.3847 16.8799 14.3596 17.0944 14.3395C17.0896 15.2925 16.8331 16.1644 16.3531 16.9667C16.2859 17.079 16.2132 17.127 16.0821 17.1229C15.7347 17.1119 15.3867 17.1208 15.0389 17.1219C14.9687 17.1116 14.9712 17.0455 14.9615 16.9958C14.9203 16.7914 14.8661 16.5909 14.8088 16.3911C14.5889 15.6201 14.27 14.8851 13.8612 14.2068C13.7291 13.9876 13.5816 13.7804 13.4433 13.5662C13.3146 13.3877 13.1759 13.2177 13.0328 13.0528C12.7779 12.7591 12.5132 12.4752 12.2235 12.2189C11.8046 11.8503 11.356 11.5218 10.8827 11.2373C10.8172 11.1954 10.7386 11.1693 10.7045 11.0857Z" fill="#B9E1E1"/>
<path d="M16.1389 9.38169C16.1657 9.31992 16.1634 9.23468 16.1495 9.17651C16.0272 8.66948 15.164 5.13461 14.6758 4.35672C14.6166 4.26242 14.6027 4.2374 14.5562 4.19612C14.7854 4.21506 15.0103 4.26654 15.2375 4.30031C15.2549 4.30244 15.2716 4.30891 15.2862 4.3192C15.3008 4.32949 15.3129 4.3433 15.3216 4.3595C15.6264 5.34445 15.888 6.34221 16.1063 7.35276C16.2401 7.9686 16.3773 8.63036 16.4865 9.25177C16.4868 9.25319 16.4873 9.25455 16.4881 9.25578C16.51 9.29912 16.5156 9.28718 16.388 9.30417C16.3088 9.31498 16.2023 9.35255 16.1389 9.38169Z" fill="#DCF9FB"/>
<path d="M8.84724 10.3448C8.64872 10.3037 8.4504 10.2587 8.2514 10.2224C8.01398 10.1797 7.77462 10.1502 7.5343 10.134C7.30684 10.1183 7.08133 10.1134 6.85348 10.1129C6.72543 10.1129 6.59574 10.1262 6.46691 10.1161C6.41416 10.0731 6.42365 10.0147 6.43129 9.95611C6.54057 9.11789 6.66765 8.28328 6.83326 7.45443C6.9494 6.87071 7.08016 6.2911 7.24112 5.71994C7.39482 5.17431 7.57388 4.63825 7.85138 4.14687C7.89319 4.07295 7.89977 4.0118 7.85554 3.94252C7.88612 3.92944 7.91865 3.92954 7.95068 3.928C8.68105 3.89279 9.41132 3.8546 10.1428 3.8617C10.1743 3.8617 10.2071 3.85377 10.2378 3.87045C10.2501 3.90741 10.2296 3.93757 10.219 3.96836C9.89652 4.9052 9.65281 5.86716 9.44297 6.8389C9.26498 7.66332 9.11718 8.49392 8.98981 9.32873C8.93851 9.66703 8.89486 10.0062 8.84724 10.3448Z" fill="#B9E1E1"/>
<path d="M7.9195 3.92987C8.05026 3.9136 8.03788 3.92122 7.95948 4.0637C7.7478 4.44832 7.56951 4.84375 7.43333 5.26101C7.35435 5.50284 7.27779 5.74693 7.21865 5.99638C7.15409 6.26858 7.07792 6.53758 7.01801 6.81122C6.95732 7.08816 6.90612 7.36715 6.84998 7.64511C6.79249 7.92977 6.73384 8.21412 6.69009 8.50145C6.62234 8.94756 6.55691 9.39399 6.4938 9.84072C6.48102 9.93162 6.46476 10.0231 6.46738 10.1162C6.43476 10.1318 6.21137 10.1563 6.19434 10.1162C6.20905 9.89724 6.24767 9.68156 6.27951 9.46526C6.3583 8.93075 6.44683 8.39798 6.5451 7.86697C6.77439 6.63981 7.05692 5.42707 7.43556 4.24191C7.45946 4.16738 7.48773 4.09428 7.50892 4.01892C7.52131 3.97476 7.54599 3.95839 7.58558 3.95715C7.67627 3.95231 7.90344 3.92915 7.9195 3.92987Z" fill="#DCF9FB"/>
<path d="M19.9941 19.0254C19.7689 19.0069 19.5179 18.8184 19.3387 19.3053C19.1605 19.7879 19.4224 19.9738 19.3829 19.9576C19.3634 19.9549 19.3437 19.9543 19.3241 19.9556C19.1766 19.9575 19.0241 19.9315 18.8769 19.9313C18.8247 19.9059 18.837 19.8605 18.8457 19.8165C18.9199 19.4371 19.0335 19.0677 19.1845 18.715C19.3843 18.2525 19.6288 17.8193 19.9353 17.426C20.3611 16.8799 20.8602 16.4274 21.4404 16.076C22.0444 15.7101 22.6927 15.4838 23.3795 15.3852C23.7113 15.3376 24.0459 15.3198 24.3813 15.3448C24.5085 15.3543 24.6079 15.2991 24.6764 15.1875C24.7042 15.1421 24.735 15.1075 24.7828 15.0895C24.8381 15.0889 24.8883 15.1138 24.9411 15.1263C25.0572 15.154 25.0693 15.1496 25.1202 15.0378C25.2025 14.8572 25.2878 14.6784 25.3941 14.5117C25.4202 14.4938 25.442 14.4696 25.4577 14.441C25.5955 14.2167 25.7716 14.0312 25.9787 13.8789C25.9845 13.876 25.991 13.8749 25.9974 13.8756C26.0724 13.8756 26.0919 13.9365 26.11 13.996C26.1893 14.2569 26.2784 14.5135 26.3887 14.7621C26.5712 15.1739 26.7967 15.5548 27.0861 15.891C27.1293 15.9411 27.1838 15.9858 27.1585 16.0675C27.0078 16.3489 26.857 16.6303 26.7063 16.9117C26.6842 16.9529 26.6597 16.993 26.6362 17.0337C26.5943 17.1046 26.547 17.1717 26.4948 17.2343C26.4813 17.2239 26.4669 17.2147 26.4519 17.2069C26.4432 17.2023 26.4267 17.1869 26.4183 17.1819C26.2604 17.0906 26.2828 17.0846 26.3614 16.9143C26.4107 16.8069 26.4364 16.6981 26.4052 16.577C26.3929 16.527 26.371 16.4803 26.3409 16.4397C26.3108 16.3992 26.2732 16.3657 26.2303 16.3414C26.1294 16.283 26.0246 16.2281 25.9093 16.2024C25.7474 16.1667 25.5783 16.2464 25.5004 16.4021C25.4747 16.4536 25.4567 16.5088 25.4327 16.5613C25.3984 16.6377 25.3787 16.6485 25.304 16.6258C25.1054 16.5656 24.9049 16.5164 24.6994 16.492C24.68 16.4896 24.6618 16.4817 24.6426 16.4798C24.5877 16.4729 24.5646 16.4386 24.5652 16.3823C24.5652 16.3275 24.5617 16.2725 24.5652 16.2176C24.5778 16.0102 24.4536 15.87 24.2732 15.8321C24.1432 15.8047 24.0092 15.8065 23.8798 15.8374C23.7145 15.8771 23.6166 15.9844 23.5936 16.1669C23.5843 16.2346 23.5789 16.3028 23.5773 16.3712C23.5764 16.4603 23.5707 16.4678 23.4861 16.4854C23.3818 16.5071 23.2766 16.5236 23.1723 16.5447C23.0646 16.5665 22.9582 16.5937 22.8529 16.6263C22.7844 16.6476 22.7684 16.6391 22.7398 16.5711C22.7135 16.5087 22.6888 16.4454 22.6549 16.3869C22.5656 16.2324 22.4041 16.1611 22.2387 16.2064C22.12 16.2394 22.007 16.2925 21.9041 16.3637C21.7541 16.4666 21.6993 16.661 21.7628 16.8444C21.7817 16.8988 21.8095 16.9497 21.8316 17.003C21.8594 17.0701 21.857 17.0861 21.8016 17.1221C21.6062 17.2494 21.4253 17.3979 21.2454 17.548C21.1928 17.592 21.1784 17.5925 21.1293 17.5442C21.0855 17.4988 21.0391 17.4563 20.9903 17.4171C20.852 17.3106 20.663 17.3093 20.533 17.426C20.4423 17.5076 20.3566 17.5963 20.292 17.7051C20.1942 17.8699 20.2167 18.0655 20.3501 18.1993C20.404 18.2534 20.4096 18.2576 20.4973 18.3213C20.3626 18.4646 20.0995 18.8514 20.0225 19.0037" fill="#414141"/>
<path d="M18.1929 19.9119C17.6513 19.9113 17.1098 19.9107 16.5682 19.9102C15.7075 19.9102 14.8468 19.9102 13.986 19.9102C13.7876 19.9102 13.7842 19.9035 13.8118 19.6963C13.8312 19.5454 13.8346 19.3948 13.755 19.2575C13.6691 19.1094 13.5479 19.0145 13.385 18.9879C13.3055 18.9741 13.2253 18.9654 13.1448 18.962C13.048 18.959 13.0305 18.9334 13.0269 18.8295C13.0153 18.4939 12.9895 18.1603 12.9288 17.8296C12.9047 17.6988 12.9114 17.6878 13.0347 17.6516C13.1345 17.6223 13.2316 17.586 13.3207 17.5291C13.5419 17.3874 13.6069 17.1455 13.5539 16.8967C13.5297 16.7835 13.4928 16.6728 13.4571 16.5628C13.3642 16.2772 13.1183 16.1286 12.8395 16.1842C12.7439 16.2033 12.6525 16.2357 12.5603 16.2666C12.4847 16.2923 12.4752 16.2897 12.4401 16.2116C12.2937 15.8831 12.1209 15.5686 11.9237 15.2717C11.8867 15.2163 11.8886 15.1989 11.945 15.1538C12.0225 15.0914 12.0852 15.0122 12.157 14.9437C12.3298 14.779 12.3267 14.4322 12.2233 14.2667C12.1259 14.1109 12.0025 13.9784 11.8683 13.862C11.6994 13.7151 11.4032 13.7098 11.2154 13.8894C11.1508 13.9511 11.0774 14.0026 11.0202 14.0731C10.9859 14.1155 10.9543 14.1164 10.9137 14.0799C10.818 13.9936 10.7213 13.9082 10.622 13.8266C10.4664 13.6987 10.3026 13.5835 10.1365 13.4711C9.9926 13.3737 9.99928 13.3956 10.0724 13.2343C10.103 13.1701 10.1298 13.1039 10.1528 13.0362C10.2365 12.7726 10.1606 12.4837 9.89358 12.3396C9.7784 12.2778 9.66274 12.2141 9.53856 12.1782C9.36434 12.1277 9.19428 12.137 9.04116 12.2579C8.97903 12.3077 8.92921 12.3727 8.89598 12.4475C8.85475 12.5366 8.81855 12.6283 8.77906 12.7183C8.74915 12.7862 8.74257 12.7904 8.67511 12.7678C8.41629 12.6814 8.15167 12.6223 7.88405 12.5771C7.82046 12.5668 7.75668 12.5565 7.69299 12.5468C7.60075 12.5326 7.59359 12.525 7.59194 12.4219C7.59068 12.3363 7.59097 12.2505 7.59194 12.1646C7.59407 11.9265 7.47579 11.7734 7.28435 11.674C7.22932 11.6445 7.16908 11.6275 7.10751 11.6243C6.96291 11.619 6.81802 11.6093 6.67361 11.6346C6.39824 11.6836 6.22722 11.888 6.2187 12.1841C6.21657 12.2595 6.2187 12.3349 6.21783 12.4106C6.21647 12.5262 6.21202 12.5297 6.10739 12.5474C5.78586 12.6016 5.46529 12.6607 5.15286 12.7613C5.07833 12.7851 5.06943 12.78 5.03536 12.7018C5.00293 12.6271 4.97128 12.5521 4.93857 12.4774C4.80984 12.1808 4.51134 12.085 4.23627 12.1916C4.13323 12.2313 4.03266 12.2779 3.93516 12.3311C3.77517 12.4192 3.66967 12.555 3.63511 12.7486C3.61734 12.8502 3.62631 12.9551 3.66105 13.0516C3.69106 13.1387 3.73084 13.2209 3.76839 13.3044C3.80024 13.3752 3.79665 13.3914 3.73577 13.4306C3.47899 13.5964 3.23915 13.787 3.00502 13.9866C2.97492 14.0122 2.94694 14.0412 2.91791 14.0676C2.86787 14.1123 2.85248 14.1122 2.80176 14.0656C2.74572 14.0142 2.68794 13.9645 2.63548 13.909C2.43774 13.6999 2.06752 13.7012 1.87559 13.9233C1.81896 13.9888 1.76505 14.0572 1.70698 14.121C1.63671 14.1982 1.63207 14.1955 1.56005 14.1249C1.49888 14.0648 1.35467 13.9299 1.34441 13.9219C1.2483 13.8079 1.25227 13.8071 1.34954 13.6903C2.17655 12.6974 3.22496 11.9415 4.39839 11.4922C4.98987 11.2657 5.59857 11.1181 6.22402 11.0607C6.60604 11.027 6.98988 11.0231 7.37243 11.0492C7.89049 11.0823 8.4039 11.1727 8.9043 11.3191C9.31486 11.4385 9.71419 11.5979 10.0972 11.7953C10.359 11.9266 10.6128 12.0749 10.8574 12.2394C11.2 12.4702 11.5243 12.7303 11.8271 13.0172C12.1168 13.2939 12.3888 13.591 12.6413 13.9063C12.6756 13.9516 12.7076 13.9987 12.7373 14.0475C12.9736 14.3311 13.1632 14.6499 13.3402 14.9759C13.6963 15.6288 13.9626 16.3326 14.1312 17.0658C14.19 17.3222 14.2292 17.5825 14.2727 17.842C14.3105 18.0685 14.4668 18.146 14.6584 18.0364C14.8988 17.8989 15.0515 17.5722 15.0165 17.2828C15.009 17.22 14.9681 17.149 15.0315 17.09C15.0818 17.0599 15.1371 17.0624 15.1918 17.0622C15.4822 17.0612 15.772 17.0582 16.0619 17.0636C16.1817 17.0659 16.2618 17.0183 16.326 16.9128C16.5658 16.5176 16.7485 16.0863 16.868 15.6334C16.9622 15.28 17.0299 14.9211 17.0529 14.5536C17.0557 14.5159 17.0551 14.478 17.0511 14.4404C17.0461 14.3957 17.0566 14.3589 17.0955 14.3356C17.1584 14.3343 17.296 14.3259 17.3022 14.3253C17.543 14.3101 17.543 14.3102 17.5435 14.5677C17.5435 14.7633 17.5423 14.9589 17.5441 15.1539C17.5456 15.3326 17.5904 15.3878 17.7547 15.4319C18.1481 15.5384 18.5462 15.5728 18.9521 15.5504C19.1394 15.5401 19.3228 15.5042 19.5088 15.4886C19.5473 15.484 19.585 15.4736 19.6207 15.4577C19.7336 15.4117 19.7668 15.3651 19.7685 15.2345C19.7714 14.9911 19.7676 14.7478 19.7706 14.5044C19.7713 14.4513 19.7609 14.393 19.8053 14.35C19.8783 14.2903 19.9481 14.3359 20.0135 14.3649C20.1748 14.437 20.2962 14.565 20.4077 14.7035C20.614 14.9599 20.7672 15.2528 20.9125 15.5508C20.9253 15.5748 20.9307 15.6024 20.928 15.6298C20.9229 15.6964 20.8774 15.7297 20.8312 15.7616C20.4509 16.023 20.1096 16.3333 19.7956 16.6796C19.4354 17.0765 19.1367 17.5202 18.8838 17.9997C18.59 18.5567 18.3902 19.1504 18.2722 19.7762C18.2621 19.8286 18.2721 19.9031 18.1929 19.9119Z" fill="#45423D"/>
<path d="M18.1925 19.9117C18.217 19.7948 18.2403 19.6777 18.2661 19.5617C18.4765 18.6079 18.8808 17.7567 19.4645 17.0007C19.8521 16.4954 20.3118 16.058 20.8268 15.7042C20.8564 15.6836 20.8891 15.6672 20.9074 15.6322C20.9306 15.591 22.6872 14.3886 24.6516 14.775C24.7686 14.8653 24.7823 15.039 24.7188 15.1964C24.6568 15.35 24.5411 15.3984 24.3558 15.3936C24.1847 15.3892 24.0141 15.3794 23.8438 15.3893C23.5576 15.4046 23.2728 15.4431 22.9921 15.5045C22.223 15.6759 21.5225 16.0084 20.894 16.5099C20.1598 17.0959 19.6055 17.837 19.2251 18.7248C19.0708 19.0874 18.9547 19.4669 18.8787 19.8566C18.874 19.88 18.8109 20.2566 18.7915 20.4228C18.7739 20.5773 18.7044 20.685 18.5643 20.7359C18.3584 20.8107 18.1384 20.6509 18.134 20.4197C18.1315 20.3031 18.1552 20.1885 18.1716 20.0736C18.1782 20.0281 18.1854 19.9192 18.1925 19.9117Z" fill="#A19D98"/>
<path d="M16.5166 19.1099C16.1654 19.1099 15.8141 19.1111 15.463 19.1094C15.2984 19.1086 15.1792 19.0231 15.1113 18.8664C15.0435 18.7097 15.0644 18.5576 15.1629 18.4216C15.2411 18.314 15.353 18.2727 15.4774 18.2685C15.5611 18.2657 15.6449 18.2674 15.729 18.2675C16.3219 18.2679 16.9148 18.2683 17.5076 18.2687C17.62 18.2687 17.7246 18.2893 17.8137 18.3704C17.9366 18.4826 17.9866 18.6646 17.9354 18.8266C17.9104 18.9087 17.8617 18.9804 17.7962 19.0314C17.7307 19.0824 17.6517 19.1101 17.5705 19.1105C17.2193 19.1125 16.8681 19.1112 16.5169 19.1112L16.5166 19.1099Z" fill="#FCBE4F"/>
<path d="M5.40501 10.2216C5.42699 10.2402 5.45215 10.2407 5.47799 10.2353C5.6977 10.1896 5.91993 10.1632 6.14235 10.1387C6.16171 10.1364 6.15203 10.1368 6.20691 10.1312C6.988 10.0694 8.02916 10.1149 8.8479 10.3449C9.02841 10.398 9.21027 10.4376 9.39098 10.4903C9.40947 10.4914 10.2939 10.8355 10.6375 11.0319C10.6683 11.0553 10.6833 11.0677 10.7053 11.0856C10.7194 11.2542 10.6701 11.3808 10.5776 11.4958C10.4488 11.6561 10.2785 11.771 10.0881 11.8438C9.84308 11.7305 9.59917 11.6145 9.34617 11.5216C8.89846 11.3572 8.43719 11.2379 7.96847 11.1653C7.56007 11.1035 7.14762 11.077 6.73519 11.0861C6.24856 11.0947 5.76406 11.1566 5.28935 11.2708C3.81597 11.6228 2.48 12.4482 1.46261 13.6352C1.43008 13.6733 1.39689 13.7106 1.36427 13.7484C1.29652 13.8275 1.2669 13.8788 1.21696 13.9417C1.13401 14.0463 1.05328 14.153 0.972466 14.2596C0.783728 14.5082 0.452032 14.5216 0.245387 14.2609C0.105527 14.0844 0.12924 13.8182 0.243064 13.6505C0.367181 13.4711 0.499859 13.2985 0.640577 13.1335C0.784405 12.9623 0.924556 12.7875 1.08223 12.6303C1.30319 12.4102 1.5232 12.1883 1.76352 11.992C2.5842 11.3216 3.48366 10.8104 4.47497 10.4875C4.73694 10.402 5.003 10.3313 5.27203 10.2758C5.31945 10.2664 5.3692 10.2628 5.40501 10.2216Z" fill="#EDAE50"/>
<path d="M13.471 13.536C13.7112 13.8382 13.9066 14.1729 14.0953 14.512C14.3173 14.9109 14.5019 15.3293 14.6582 15.7619C14.8015 16.1591 14.9255 16.5624 15.008 16.9794C15.0176 17.0263 15.0294 17.072 15.0401 17.1192C15.0617 17.247 15.0865 17.3737 15.0601 17.5056C15.0062 17.7759 14.8796 17.9876 14.6377 18.1054C14.4352 18.2042 14.2593 18.1009 14.2262 17.8663C14.1391 17.2486 13.9968 16.6455 13.7799 16.0636C13.5233 15.3753 13.1871 14.7356 12.7594 14.1499C12.74 14.123 12.7218 14.0946 12.7031 14.0669C12.7494 13.9035 12.8453 13.7714 12.9375 13.6356C12.9893 13.5593 13.0694 13.5717 13.1362 13.5494C13.2442 13.5133 13.3576 13.4837 13.471 13.536Z" fill="#EDAE50"/>
<path d="M13.4164 13.5219C12.8868 13.4764 12.7204 14.032 12.7035 14.0668C12.4748 13.7705 12.2335 13.4868 11.9709 13.2236C11.4372 12.6872 10.8316 12.238 10.1739 11.8907C10.1449 11.8756 10.1169 11.8599 10.0884 11.8437C10.1131 11.8128 10.3309 11.7674 10.5126 11.504C10.6663 11.2811 10.7025 11.1299 10.7056 11.0856C10.8789 11.1549 11.0303 11.2674 11.1875 11.3673C11.4593 11.5387 11.7206 11.7282 11.9698 11.9347C12.1949 12.1229 12.4133 12.3189 12.6213 12.5295C12.7639 12.6737 12.8975 12.8263 13.0322 12.9775C13.189 13.1533 13.3471 13.3302 13.4711 13.536" fill="#FCD38C"/>
<path d="M27.1509 16.0651C27.094 15.964 27.0076 15.8901 26.938 15.7997C26.5638 15.3143 26.2956 14.7677 26.1068 14.1751C26.0851 14.1071 26.0652 14.0383 26.0436 13.9702C26.0345 13.9413 26.0276 13.9084 25.9889 13.9094C25.512 13.475 24.9363 13.2327 24.3725 12.9674C23.5207 12.5672 22.6314 12.2921 21.7318 12.0496C21.0262 11.8595 20.3113 11.7185 19.5943 11.588C19.5291 11.5762 19.4593 11.5704 19.4143 11.5057C19.4025 11.4587 19.4025 11.4107 19.4024 11.3629C19.4014 10.7956 19.4017 10.2284 19.4032 9.66112C19.4032 9.59935 19.3853 9.52831 19.4481 9.4826C19.5895 9.51956 19.7354 9.51956 19.8789 9.54077C20.1499 9.58072 20.4226 9.61047 20.6932 9.65402C21.0436 9.70981 21.3952 9.75944 21.7427 9.83356C21.9828 9.88503 22.2241 9.92838 22.4636 9.98273C22.7443 10.0465 23.025 10.1109 23.3022 10.186C23.7643 10.3108 24.2262 10.4376 24.6766 10.6061C24.8559 10.6731 25.0337 10.7455 25.2151 10.805C25.4001 10.8655 25.5451 10.9864 25.683 11.1225C25.9831 11.4185 26.2823 11.7153 26.5719 12.0229C26.7655 12.2288 26.96 12.4332 27.1446 12.6486C27.2246 12.7419 27.313 12.8272 27.3963 12.9179C27.5401 13.075 27.674 13.2419 27.8213 13.3957C27.9396 13.5192 28.0095 13.6748 28.0182 13.8529C28.0304 14.1031 28.0229 14.3513 27.9632 14.5974C27.8532 15.0504 27.6503 15.45 27.3754 15.8112C27.3065 15.9011 27.2352 15.9895 27.1509 16.0651Z" fill="#EDAE50"/>
<path d="M15.0964 10.7783L14.43 10.2866C14.4189 10.2796 14.4084 10.2716 14.3986 10.2628C14.3583 10.2216 14.3341 10.2405 14.3086 10.2833C14.2709 10.347 14.2285 10.4076 14.1878 10.4693C14.0915 10.6149 13.9971 10.7622 13.8981 10.9057C13.8246 11.0122 13.7313 11.0451 13.6283 11.0108C13.4741 10.9593 13.4045 10.7828 13.4809 10.6299C13.5049 10.5817 13.5367 10.5378 13.5661 10.493C13.9051 9.97615 14.2443 9.45944 14.5837 8.94284C14.605 8.90856 14.6284 8.87588 14.654 8.84504C14.7424 8.74374 14.8766 8.72789 14.9781 8.80386C15.0275 8.84059 15.0624 8.89541 15.0761 8.95782C15.0898 9.02022 15.0815 9.08582 15.0525 9.14205C15.0224 9.20228 14.9838 9.25777 14.9469 9.31387C14.8417 9.47386 14.7355 9.63302 14.6296 9.79249C14.5874 9.85611 14.5865 9.85745 14.6468 9.90223C14.874 10.0707 15.1015 10.2386 15.3292 10.4061L15.0964 10.7783Z" fill="#45423E"/>
<path d="M17.8434 9.35514C17.8744 9.37851 17.8724 9.41413 17.8724 9.4478C17.8732 10.049 17.8732 10.65 17.8724 11.2511C17.8732 11.2716 17.8699 11.292 17.8627 11.3111C17.8229 11.3626 17.7659 11.3605 17.7121 11.3607C17.5127 11.3617 17.3135 11.3504 17.1144 11.3463C16.5578 11.3335 16.0013 11.3412 15.4441 11.3424C15.4053 11.3424 15.3666 11.3446 15.3307 11.363C15.3095 11.3733 15.2902 11.3881 15.2932 11.4164C15.2962 11.4447 15.3185 11.4535 15.341 11.4597C15.3566 11.464 15.3727 11.466 15.3888 11.4656C15.662 11.4593 15.9351 11.4714 16.2088 11.4531C16.4716 11.4355 16.7357 11.4409 16.9997 11.4578C17.2273 11.4723 17.4557 11.4784 17.6839 11.4871C17.7419 11.4893 17.8 11.4851 17.8517 11.5218C17.8775 11.6596 17.918 11.7959 17.8904 11.9393C17.8898 11.9524 17.8863 11.9652 17.8802 11.9765C17.8376 12.0305 17.7714 12.0316 17.7161 12.0561C17.6114 12.1025 17.5593 12.178 17.5626 12.3009C17.5776 12.8623 17.536 13.4231 17.5432 13.9844C17.5441 14.0494 17.5454 14.1143 17.5521 14.1791C17.5668 14.3194 17.5304 14.3656 17.3973 14.3799C17.362 14.3836 17.3266 14.3847 17.2908 14.3857C17.229 14.3866 17.1671 14.3869 17.1055 14.3818C16.9245 14.4118 16.7412 14.414 16.5589 14.4272C16.2208 14.4513 15.9724 14.3051 15.7964 13.9948C15.5518 13.5643 15.3052 13.1354 15.0814 12.692C14.981 12.4931 14.8878 12.2905 14.7821 12.0943C14.6123 11.7791 14.6104 11.471 14.8089 11.1693C14.8955 11.0379 14.9586 10.8897 15.062 10.7706C15.1194 10.6272 15.2123 10.5078 15.2958 10.3819C15.4873 10.0815 15.6894 9.78928 15.9071 9.50967C15.9735 9.42432 16.0659 9.37172 16.1512 9.31046C16.2642 9.27793 16.6739 9.26928 16.7778 9.26568C16.8958 9.26146 17.0141 9.26403 17.1323 9.26568C17.1885 9.26609 17.735 9.29759 17.8434 9.35514Z" fill="#EDAE50"/>
<path d="M24.7876 15.1349C24.7511 15.1134 24.7285 15.0835 24.7309 15.0362C24.7383 14.8921 24.6506 14.821 24.5434 14.7679C24.4005 14.7125 23.3122 14.6037 22.2302 15.0035C21.8496 15.1345 21.4827 15.2981 21.1374 15.5145C21.0738 15.5545 21.0035 15.5815 20.9438 15.6294C20.9354 15.6361 20.9194 15.6318 20.907 15.6326C20.8222 15.5036 20.7659 15.3574 20.6895 15.2233C20.5711 15.0157 20.4459 14.8144 20.2859 14.6393C20.16 14.502 20.0177 14.3967 19.8375 14.3581C19.788 14.3621 19.7806 14.3236 19.7745 14.286C19.7692 14.2419 19.7673 14.1973 19.7689 14.1528C19.7689 13.8414 19.7637 13.5299 19.7702 13.2185C19.7762 12.9239 19.7445 12.6308 19.7484 12.3365C19.7498 12.2245 19.7 12.1485 19.6032 12.1049C19.5647 12.0876 19.5272 12.0676 19.491 12.0452C19.4634 12.0279 19.4335 12.0101 19.4456 11.9662L19.4493 11.7435C19.4814 11.6962 19.5249 11.7029 19.5714 11.7103C20.1069 11.796 20.6388 11.9018 21.167 12.0279C21.8022 12.1807 22.4335 12.3484 23.0518 12.567C23.5473 12.742 24.0377 12.9322 24.5125 13.1651C24.7377 13.2756 24.9674 13.3771 25.1731 13.5268C25.2505 13.5831 25.3128 13.6579 25.3716 13.7359C25.5118 13.9212 25.4764 14.1363 25.4633 14.3472C25.4593 14.4131 25.4298 14.4742 25.4246 14.5405C25.3033 14.7366 25.1999 14.9444 25.1155 15.1613C25.0983 15.2064 25.0752 15.2231 25.027 15.2058C24.949 15.1776 24.8678 15.1583 24.7876 15.1349Z" fill="#EDAE50"/>
<path d="M25.4255 14.5408C25.3985 14.4858 25.4028 14.4262 25.4129 14.3697C25.434 14.2505 25.4265 14.1308 25.4265 14.0112C25.4265 13.8939 25.3655 13.8029 25.2987 13.7193C25.2149 13.6149 25.1121 13.5295 24.9966 13.4682C24.456 13.176 23.8965 12.9329 23.3239 12.7217C22.91 12.5689 22.4925 12.4295 22.0683 12.314C21.5321 12.1681 20.994 12.0334 20.4492 11.9228C20.1362 11.8594 19.8209 11.8119 19.5077 11.75C19.4888 11.7463 19.469 11.7456 19.4502 11.7434C19.4502 11.6679 19.4502 11.5926 19.4502 11.5175C19.6426 11.537 19.8319 11.5776 20.0218 11.614C20.2688 11.6612 20.5154 11.7114 20.7614 11.7645C21.0197 11.8208 21.2782 11.8755 21.5337 11.9476C21.7294 12.0028 21.9274 12.0498 22.1236 12.1041C22.6037 12.2371 23.0779 12.3899 23.5464 12.5626C23.9269 12.7028 24.2948 12.8766 24.6649 13.0446C25.0169 13.2051 25.3584 13.3908 25.6869 13.6005C25.7832 13.6618 25.8717 13.737 25.9627 13.8075C25.9949 13.8325 26.0239 13.8626 25.9889 13.9092C25.8662 14.025 25.7396 14.1357 25.6308 14.2677C25.5583 14.3555 25.4943 14.4497 25.4255 14.5408Z" fill="#FCD38C"/>
<path d="M17.8432 11.3122L17.8438 11.538C17.1994 11.4816 15.9981 11.4816 15.3917 11.518C15.3456 11.5156 15.2997 11.5106 15.2541 11.5029C15.2203 11.4947 15.1681 11.4483 15.169 11.4193C15.1705 11.3659 15.1993 11.3402 15.2367 11.3204C15.2835 11.2955 15.3459 11.2909 15.3984 11.2909C15.9786 11.2909 16.5589 11.2816 17.1388 11.2964C17.3734 11.3024 17.6084 11.3061 17.8432 11.3122Z" fill="#FCD38C"/>
<path d="M27.7887 14.0504C27.7919 14.2718 27.75 14.4756 27.6905 14.6757C27.5852 15.0298 27.4137 15.3459 27.1956 15.6343C27.1513 15.6928 27.149 15.693 27.1028 15.6352C26.8906 15.3699 26.7208 15.0757 26.5753 14.7646C26.466 14.5309 26.3764 14.2888 26.2963 14.0425C26.2715 13.9663 26.2744 13.9526 26.3462 13.9134C26.5974 13.7763 26.8607 13.6789 27.1415 13.6363C27.2693 13.6168 27.3984 13.6172 27.5263 13.6005C27.5392 13.5993 27.5521 13.599 27.565 13.5997C27.6867 13.602 27.7058 13.6185 27.7514 13.7364C27.792 13.8414 27.7912 13.9503 27.7887 14.0504Z" fill="#FEFEFE"/>
<path d="M19.4363 9.53372C19.4363 10.1882 19.4435 11.6236 19.4585 12.0262C19.4226 12.0748 19.3759 12.0571 19.3338 12.0444C18.8801 11.9034 18.4233 11.9243 17.9651 12.0135C17.9264 12.0209 17.8888 12.0311 17.8562 11.9974L17.8538 12.0007C17.8326 11.9698 17.8538 8.77179 17.8511 8.56703C17.8498 8.47911 17.8636 8.39943 17.9048 8.32221C17.9553 8.2273 17.9993 8.12857 18.0463 8.03138C18.0528 8.02431 18.0615 8.01994 18.0708 8.01903C18.599 8.259 19.0354 8.53748 19.4331 8.97018C19.4273 9.12656 19.4331 9.33585 19.4363 9.53372Z" fill="#414141"/>
<path d="M18.0722 7.98137H18.0644L18.0566 7.97982C18.0948 7.88295 18.097 7.78144 18.0966 7.67829C18.0955 7.37026 18.1002 7.06213 18.0974 6.75421C18.0964 6.64189 18.1283 6.55088 18.1942 6.46307C18.5194 6.0297 18.8728 5.62109 19.2517 5.24023C19.4925 4.9981 19.7481 4.77315 20.029 4.58331C20.0824 4.5969 20.0596 4.63386 20.0475 4.66228C19.8752 5.06625 19.8996 5.48989 19.9537 5.91033C19.9775 6.09564 20.0258 6.28661 20.1707 6.42271C20.181 6.4313 20.1879 6.44367 20.1901 6.45741C20.1923 6.47114 20.1895 6.48524 20.1824 6.49694C19.8553 6.65867 19.5985 6.90987 19.3816 7.21141C19.3495 7.25588 19.3258 7.30293 19.3338 7.36161C19.3193 7.72863 19.3225 8.09533 19.3345 8.69924C19.334 8.70573 19.3332 8.71219 19.332 8.71859C19.2836 8.75349 19.2521 8.71406 19.2223 8.68709C19.0931 8.57014 18.9675 8.44876 18.8282 8.34447C18.676 8.2303 18.5199 8.12375 18.3511 8.03892C18.2622 7.99444 18.1717 7.96438 18.0722 7.98137Z" fill="#A19D98"/>
<path d="M20.2408 4.53798C20.306 4.57267 20.3393 4.63063 20.3558 4.70507C20.398 4.89432 20.4258 5.08687 20.439 5.28086C20.4617 5.61257 20.4165 5.93356 20.3386 6.25199C20.3223 6.31828 20.3037 6.38366 20.2623 6.43843C20.2211 6.44584 20.2084 6.41413 20.1918 6.38376C19.9996 6.0325 19.9647 5.64922 19.9885 5.25441C19.9917 5.20025 19.9998 5.1461 20.0032 5.09154C20.0141 4.88181 20.0989 4.68416 20.2408 4.53798Z" fill="#A19D98"/>
<path d="M19.6469 12.0658C19.7472 12.1126 19.7965 12.1814 19.8005 12.309C19.8209 12.9525 19.8154 13.5959 19.8168 14.2392C19.8168 14.2804 19.821 14.4519 19.8207 14.4996C19.8191 14.7665 19.8149 15.0336 19.8184 15.3004C19.8196 15.3943 19.7829 15.448 19.7067 15.4818C19.0694 15.6672 18.2418 15.658 17.6614 15.4613C17.5307 15.4189 17.4958 15.3671 17.4947 15.2234C17.4934 15.0352 17.4947 14.847 17.4947 14.6587C17.4947 14.58 17.4961 14.5012 17.4947 14.4225C17.4934 14.3437 17.5141 13.1236 17.5141 13.086C17.5141 12.7985 17.5161 12.5108 17.5134 12.2233C17.5126 12.1329 17.5438 12.0785 17.6232 12.0408C18.5449 11.7311 19.0287 11.8212 19.6469 12.0658Z" fill="#A19D98"/>
<path d="M17.6854 13.7601V12.3722C17.6854 12.3483 17.6847 12.3243 17.6854 12.3002C17.6874 12.2048 17.695 12.1921 17.7813 12.1586C18.1053 12.0263 19.0529 11.9012 19.5587 12.2562C19.6386 12.3009 19.6513 12.3465 19.6548 12.4545C19.6678 12.6976 19.6451 14.5032 19.6459 15.1987C19.6459 15.2125 19.6459 15.2262 19.6459 15.2399C19.6436 15.339 19.6373 15.3438 19.5426 15.3647C18.9527 15.4951 18.3661 15.4779 17.782 15.3235C17.6954 15.3007 17.6909 15.2985 17.6907 15.1988C17.6899 14.8801 17.6899 14.5614 17.6907 14.2427C17.6907 14.0817 17.6907 13.9206 17.6907 13.7595L17.6854 13.7601Z" fill="#45423D"/>
<path d="M18.0512 8.00104C18.0624 7.91302 18.113 7.90386 18.2104 7.92816C18.3274 7.96518 18.4393 8.01838 18.5433 8.08639C18.7749 8.2334 18.9967 8.39524 19.1913 8.59599C19.2348 8.64088 19.2852 8.67835 19.3324 8.71881C19.3391 8.74839 19.3541 8.77509 19.3754 8.7953C19.4369 8.85409 19.4452 8.92203 19.4327 9.00779C19.3306 8.99235 19.2732 8.92749 19.2085 8.85151C19.0327 8.64561 18.8273 8.47894 18.6095 8.32719C18.4754 8.23371 18.27 8.13159 18.1209 8.06837C18.0698 8.04676 18.0452 8.04809 18.0512 8.00104Z" fill="#DCF9FB"/>
<path d="M20.2404 4.53813C20.2748 4.5581 20.2969 4.56726 20.2083 4.65065C20.0963 4.75751 20.0221 5.02693 20.0296 5.46879C20.0369 5.76168 20.0405 6.02245 20.2619 6.43858C20.2432 6.46946 20.2187 6.49221 20.1827 6.49685C19.8078 6.10471 19.844 4.89804 20.0292 4.58322C20.106 4.4987 20.1509 4.48912 20.2404 4.53813Z" fill="#DCF9FB"/>
</g>
<defs>
<clipPath id="clip0_772_99664">
<rect width="29" height="25.375" fill="white" transform="translate(0 0.881836)"/>
</clipPath>
</defs>
</svg>
