<svg width="21" height="21" viewBox="0 0 21 21" fill="none" xmlns="http://www.w3.org/2000/svg">
<rect x="0.15" y="0.15" width="20.7" height="20.7" rx="10.35" fill="white" stroke="#E9E9E9" stroke-width="0.3"/>
<g clip-path="url(#clip0_1002_137830)">
<path d="M15.2802 11.8746C15.3176 11.9045 15.3422 11.9304 15.3791 11.9612C15.4014 11.9798 15.4016 11.9798 15.4235 11.9595C15.4387 11.9453 15.4535 11.9305 15.4692 11.9166C15.5322 11.8599 15.6169 11.8627 15.6756 11.9244C15.699 11.9491 15.721 11.9752 15.7415 12.0026C15.7923 12.0698 15.7872 12.1576 15.7299 12.2187C15.7138 12.2359 15.6968 12.2521 15.6794 12.2678C15.6649 12.2808 15.6645 12.2935 15.6747 12.3098C15.6959 12.3434 15.7164 12.3774 15.7363 12.4118C15.7615 12.4555 15.784 12.5009 15.8053 12.5467C15.8255 12.5904 15.8255 12.5901 15.8676 12.576C15.8879 12.5686 15.9087 12.5624 15.9297 12.5574C15.9982 12.5434 16.0631 12.5786 16.0923 12.6465C16.11 12.6883 16.1233 12.7321 16.1318 12.7771C16.1444 12.8412 16.1076 12.9123 16.0487 12.9438C16.0259 12.956 16.0008 12.9613 15.977 12.9704C15.9482 12.9814 15.9457 12.9835 15.9504 13.0135C15.9656 13.1079 15.9763 13.2028 15.977 13.2987C15.9772 13.3196 15.9846 13.3315 16.0053 13.3334C16.0229 13.3349 16.0404 13.3384 16.058 13.3403C16.1281 13.3481 16.1758 13.3852 16.1966 13.4583C16.1983 13.4647 16.2029 13.5966 16.1968 13.6324C16.1834 13.7113 16.1255 13.7676 16.0495 13.7708C16.033 13.7716 16.0166 13.7704 16.0004 13.7674C15.9704 13.7617 15.9506 13.7751 15.9433 13.8058C15.9255 13.8815 15.9015 13.955 15.8757 14.0279C15.8681 14.049 15.8725 14.0675 15.889 14.0823C15.8977 14.0901 15.9309 14.1281 15.9362 14.1408C15.9486 14.1698 15.8953 14.1246 15.883 14.1171C15.8547 14.0998 15.5093 13.897 15.3807 13.8243C15.3899 13.752 15.4232 13.6595 15.4365 13.5882C15.5047 13.225 15.4342 12.8937 15.2368 12.5913C15.0727 12.3397 14.8479 12.1788 14.5718 12.099C14.3288 12.0287 14.088 12.043 13.8518 12.1347C13.6563 12.2107 13.4423 12.3351 13.3249 12.5311C13.3114 12.547 13.3051 12.5452 13.2838 12.5351C13.2103 12.4961 12.9223 12.2967 12.8053 12.2243C12.7534 12.1689 12.719 12.0783 12.758 12.0114C12.7858 11.9637 12.8232 11.925 12.8633 11.8902C12.9196 11.8414 13.0013 11.8428 13.0611 11.8887C13.1354 11.9456 13.1353 11.9453 13.2074 11.8842C13.245 11.8522 13.2852 11.8239 13.3247 11.7947C13.3615 11.7676 13.3643 11.7566 13.347 11.714C13.3 11.598 13.3301 11.5098 13.4362 11.4524C13.4642 11.4365 13.4935 11.4233 13.5237 11.413C13.6046 11.3867 13.6792 11.4174 13.7232 11.4941C13.7691 11.5741 13.7689 11.574 13.8552 11.5529C13.9009 11.5416 13.9472 11.5337 13.9933 11.5248C14.0393 11.5158 14.0463 11.5081 14.049 11.4596C14.05 11.4354 14.0535 11.4113 14.0593 11.3879C14.0715 11.341 14.0935 11.2999 14.1392 11.2814C14.2263 11.2461 14.3142 11.2394 14.3997 11.2858C14.4501 11.3131 14.4736 11.3601 14.4742 11.4211C14.4752 11.5124 14.4758 11.5132 14.5597 11.5276C14.6148 11.5372 14.6688 11.5513 14.7231 11.5649C14.7642 11.5752 14.7748 11.5712 14.7909 11.529C14.8314 11.4223 14.9323 11.3679 15.0513 11.43C15.085 11.4477 15.1204 11.4605 15.1499 11.489C15.2094 11.5463 15.2135 11.6309 15.1891 11.6926C15.1856 11.7013 15.1815 11.7096 15.1781 11.7183C15.1618 11.7612 15.16 11.7863 15.16 11.7863C15.16 11.7863 15.2433 11.845 15.2802 11.8746Z" fill="#5F5F5F"/>
<path d="M15.3614 13.7892C15.396 13.8244 15.8581 14.0931 15.8979 14.1185C15.9098 14.1201 15.9189 14.1285 15.9296 14.1331L15.929 14.1327C15.9373 14.1406 15.9452 14.1489 15.9526 14.1577L15.9522 14.1571C15.9888 14.2116 15.9886 14.2697 15.9674 14.3298C15.954 14.3618 15.9378 14.3923 15.9191 14.4212C15.8757 14.4908 15.7954 14.5127 15.7248 14.4749C15.7033 14.4634 15.6825 14.4506 15.6621 14.4368C15.6473 14.427 15.6371 14.4296 15.6267 14.4442C15.5702 14.5237 15.5073 14.598 15.4389 14.6661C15.4251 14.6798 15.4234 14.6917 15.4351 14.7076C15.4484 14.7255 15.4609 14.7443 15.4728 14.7632C15.5216 14.8401 15.5085 14.9289 15.4395 14.9858C15.4155 15.0056 15.391 15.0248 15.3655 15.0425C15.2971 15.0898 15.2168 15.0764 15.1646 15.0095C15.1502 14.9908 15.1367 14.9712 15.1241 14.951C15.113 14.9333 15.1019 14.9292 15.0833 14.9405C15.005 14.9879 14.9223 15.0253 14.8379 15.0584C14.8072 15.0705 14.8074 15.071 14.8134 15.1051C14.8156 15.117 14.8172 15.129 14.8194 15.1409C14.839 15.2409 14.8166 15.2951 14.7343 15.3464C14.7131 15.359 14.6887 15.357 14.6658 15.3634C14.6261 15.3735 14.5859 15.3727 14.5455 15.3706H14.5453C14.532 15.3636 14.519 15.3561 14.506 15.3486C14.4671 15.314 14.4497 15.2686 14.4396 15.2165C14.4259 15.1459 14.4343 15.1573 14.3731 15.1604C14.2921 15.1644 14.211 15.1641 14.13 15.1593C14.0986 15.1574 14.0985 15.1573 14.0913 15.1883C14.0879 15.2027 14.0841 15.217 14.0821 15.2316C14.0689 15.3241 13.9989 15.3935 13.8873 15.3709C13.8599 15.3653 13.8329 15.3578 13.8062 15.3495C13.7299 15.3256 13.6857 15.2474 13.701 15.1642C13.7048 15.1431 13.7095 15.1221 13.7133 15.1009C13.7186 15.0721 13.7183 15.0706 13.6911 15.0598C13.6389 15.0389 13.5869 15.0176 13.5367 14.9919C13.507 14.9766 13.4777 14.9607 13.4484 14.9447C13.418 14.928 13.4182 14.9278 13.3969 14.9581C13.3855 14.9743 13.3748 14.9911 13.363 15.0067C13.3109 15.076 13.2288 15.0906 13.1595 15.0421C13.133 15.0236 13.1073 15.0038 13.0825 14.9829C13.0192 14.9295 13.0055 14.8418 13.049 14.7694C13.062 14.7478 13.0763 14.7272 13.0909 14.7069C13.101 14.6928 13.1016 14.6815 13.0886 14.6685C13.0193 14.5994 12.9556 14.5241 12.8984 14.4433C12.8875 14.428 12.8769 14.428 12.8628 14.4374C12.8456 14.4489 12.8278 14.4594 12.81 14.4698C12.7301 14.5161 12.6469 14.4932 12.6 14.4101C12.5832 14.3803 12.5627 14.353 12.5511 14.3195C12.5225 14.2368 12.5466 14.1601 12.6181 14.1139C12.6333 14.1042 12.6488 14.0951 12.6637 14.0853C12.6901 14.0681 12.6908 14.0676 12.6792 14.0376C12.655 13.9754 12.6342 13.9117 12.6169 13.8469C12.6093 13.8186 12.6021 13.7897 12.5958 13.7609C12.5912 13.7399 12.5808 13.7318 12.5605 13.7363C12.5443 13.7394 12.5279 13.7417 12.5115 13.7432C12.4149 13.754 12.3432 13.6925 12.3331 13.5899C12.3304 13.5616 12.3274 13.5337 12.3255 13.5054C12.3229 13.4646 12.3352 13.4243 12.3597 13.3928C12.3843 13.3613 12.4193 13.3411 12.4574 13.3362C12.4788 13.3334 12.5003 13.3316 12.5215 13.3281C12.5492 13.3232 12.5501 13.3226 12.5506 13.2919C12.5518 13.2245 12.5566 13.1573 12.565 13.0906C12.5685 13.0612 12.5778 13.0327 12.5757 13.0026C12.5736 12.9821 12.5654 12.9693 12.5499 12.9629C12.5393 12.9596 12.5367 12.9582 12.5209 12.954C12.4896 12.9459 12.4612 12.9315 12.4386 12.9071" fill="#414141"/>
<path d="M12.5774 13.0209C12.581 13.0003 12.5727 12.9693 12.5528 12.9634C12.5357 12.9583 12.5084 12.9474 12.4914 12.942C12.4239 12.9203 12.3816 12.8637 12.3742 12.7877C12.3657 12.7553 12.3925 12.6506 12.4047 12.6166C12.4319 12.5418 12.4987 12.4982 12.5739 12.5103C12.5902 12.5128 12.6061 12.5172 12.6215 12.5234C12.6499 12.5351 12.6718 12.5259 12.6843 12.4971C12.7153 12.4264 12.7617 12.3563 12.7914 12.2851C12.8203 12.2163 12.7999 12.222 12.8099 12.2244C12.8346 12.247 13.1944 12.4331 13.3078 12.5304C13.2339 12.6154 13.0698 13.0002 13.063 13.129" fill="#414141"/>
<path d="M13.3119 12.5243C13.5416 12.2602 13.706 12.1469 13.9327 12.0783C14.0707 12.0363 14.2146 12.021 14.3577 12.0333C14.5984 12.0539 14.8158 12.1433 15.0073 12.3013C15.1761 12.4407 15.299 12.6173 15.3829 12.8256C15.4342 12.953 15.4613 13.0861 15.474 13.2242C15.4921 13.4218 15.4523 13.6426 15.3885 13.8268C15.3756 13.8389 15.1407 13.6679 15.1156 13.6346C15.1098 13.6166 15.1169 13.6002 15.1212 13.5835C15.1443 13.4935 15.1593 13.4021 15.1566 13.3085C15.144 12.859 14.8561 12.4883 14.4578 12.3977C14.164 12.3309 13.8523 12.3983 13.5671 12.7067C13.5599 12.711 13.5577 12.7017 13.5092 12.6662C13.4279 12.6136 13.3879 12.5806 13.3323 12.5448C13.3005 12.525 13.3021 12.5357 13.3119 12.5243Z" fill="#414141"/>
<path d="M15.3932 13.8138C15.3855 13.8268 15.3786 13.8402 15.3725 13.8541C15.3024 14.0336 15.1902 14.181 15.0536 14.3059C14.8748 14.4693 14.6673 14.5713 14.4318 14.604C14.3742 14.6121 14.3163 14.6209 14.258 14.6189C14.0894 14.6132 13.9265 14.5802 13.7708 14.5081C13.672 14.4621 13.5796 14.402 13.4959 14.3296C13.3658 14.2176 13.26 14.0831 13.1824 13.9236C13.111 13.7767 13.07 13.6214 13.0526 13.4576C13.0373 13.3167 13.0493 13.1784 13.077 13.0404C13.1088 12.883 13.168 12.738 13.2506 12.6036C13.2624 12.5845 13.2966 12.5411 13.3077 12.5302C13.3677 12.5634 13.5316 12.6785 13.5579 12.7035C13.5745 12.7265 13.5439 12.7569 13.5344 12.7716C13.484 12.8499 13.4425 12.9326 13.4159 13.0235C13.3229 13.34 13.3655 13.6346 13.5528 13.8994C13.7091 14.1204 13.9217 14.2415 14.1816 14.2692C14.5519 14.3088 14.9319 14.0852 15.0883 13.6905C15.0969 13.6688 15.0948 13.6344 15.1299 13.6327C15.1525 13.6603 15.3666 13.7983 15.3932 13.8138Z" fill="#5F5F5F"/>
<path d="M15.1297 13.6327C15.1002 13.7131 15.0672 13.7915 15.021 13.863C14.8746 14.0897 14.6748 14.2303 14.4203 14.2787C14.1626 14.3278 13.9267 14.2666 13.717 14.1017C13.5325 13.9566 13.4148 13.7615 13.3694 13.5224C13.3157 13.2399 13.3721 12.9799 13.5294 12.745C13.5352 12.7362 13.5408 12.7273 13.5467 12.7185C13.5526 12.711 13.6308 12.6192 13.6689 12.5853C13.8374 12.4351 14.0303 12.358 14.2508 12.3536C14.6639 12.3453 15.0365 12.6427 15.1439 13.0748C15.1869 13.2478 15.1858 13.4211 15.139 13.5936C15.1355 13.6064 15.1328 13.6197 15.1297 13.6327Z" fill="#EDAE50"/>
<path d="M14.5073 13.3241C14.5143 13.472 14.3866 13.5865 14.2655 13.5849C14.1273 13.5832 14.0139 13.4679 14.0151 13.3216C14.0163 13.1786 14.1214 13.0604 14.2672 13.06C14.3887 13.0596 14.514 13.1752 14.5073 13.3241Z" fill="#414141"/>
<path d="M14.5213 12.8325C14.5494 12.8295 14.5728 12.84 14.5922 12.8622C14.6094 12.8818 14.6279 12.9003 14.6447 12.9203C14.6837 12.9667 14.6599 13.0517 14.6094 13.0684C14.5874 13.0757 14.5671 13.0762 14.5477 13.0626C14.5061 13.0335 14.4707 12.9968 14.4392 12.9565C14.4058 12.9137 14.4228 12.8588 14.4725 12.8403C14.4881 12.8342 14.5047 12.8315 14.5213 12.8325Z" fill="#FCD38C"/>
<path d="M7.89031 15.3556C7.82183 15.3173 7.78119 15.2577 7.76898 15.1759C7.76479 15.148 7.75756 15.1207 7.7522 15.093C7.74839 15.0735 7.73919 15.0671 7.72013 15.0687C7.59893 15.0795 7.47716 15.0809 7.35578 15.0727C7.33934 15.0717 7.32287 15.0707 7.30654 15.0687C7.29098 15.0668 7.28288 15.0737 7.27968 15.0896C7.2739 15.1186 7.26614 15.1472 7.26165 15.1764C7.24776 15.2665 7.20134 15.3285 7.12231 15.3634C7.07175 15.378 7.02122 15.3729 6.97069 15.3629C6.92389 15.3536 6.87584 15.3493 6.83342 15.3232C6.81713 15.3104 6.79963 15.2994 6.78551 15.2836C6.7351 15.2269 6.71425 15.1608 6.72726 15.0836C6.73217 15.0545 6.73868 15.0257 6.74419 14.9967C6.75351 14.947 6.75344 14.9468 6.70995 14.9304C6.61092 14.893 6.51432 14.8486 6.42078 14.7977C6.39826 14.7855 6.37543 14.7734 6.3539 14.7595C6.33746 14.7487 6.32654 14.751 6.31585 14.7676C6.29945 14.7931 6.28126 14.8174 6.26498 14.8431C6.19562 14.9526 6.05952 14.9847 5.95253 14.8969C5.92449 14.8739 5.89488 14.853 5.86677 14.8302C5.7675 14.7495 5.74939 14.6209 5.82172 14.5119C5.84067 14.4833 5.86003 14.455 5.87982 14.4269C5.88922 14.4137 5.88906 14.4029 5.87715 14.3921C5.87137 14.3869 5.8662 14.3809 5.86068 14.3753C5.76799 14.2816 5.68239 14.1803 5.60465 14.0722C5.58259 14.0416 5.5824 14.0417 5.54998 14.0615C5.52803 14.075 5.50619 14.0885 5.48423 14.102C5.36879 14.1722 5.25412 14.1413 5.18278 14.0211C5.173 14.0057 5.16931 14.0001 5.15907 13.9816C5.14648 13.9556 5.13126 13.9312 5.11985 13.9044C5.07118 13.7897 5.10508 13.6724 5.20694 13.6077C5.23083 13.5924 5.25511 13.5779 5.27923 13.5628C5.31134 13.5425 5.31168 13.5423 5.29787 13.5071C5.25348 13.394 5.21686 13.2776 5.18829 13.1588C5.18358 13.1393 5.1784 13.1198 5.1746 13.1001C5.17079 13.0803 5.15999 13.0739 5.14184 13.0764C5.10794 13.0809 5.074 13.0862 5.03991 13.0883C4.9524 13.0936 4.88486 13.0566 4.83917 12.9768C4.82014 12.9439 4.81299 12.9071 4.80979 12.869C4.80743 12.8407 4.80218 12.8153 4.80039 12.7849C4.79301 12.67 4.8548 12.5259 4.99063 12.5155C5.01967 12.5133 5.04854 12.5087 5.0775 12.5053C5.11098 12.5012 5.11216 12.5009 5.11292 12.4671C5.1151 12.3674 5.12272 12.268 5.13575 12.1692C5.14108 12.1293 5.14716 12.0893 5.15378 12.0496C5.16014 12.0116 5.16018 12.0108 5.1246 11.9985C5.09797 11.9892 5.07133 11.9805 5.04512 11.9711C4.9312 11.9302 4.87238 11.8148 4.90434 11.692C4.91614 11.6466 4.93063 11.602 4.94619 11.5579C4.98611 11.4442 5.09538 11.3868 5.20492 11.4212C5.23772 11.4315 5.27059 11.4418 5.30248 11.4547C5.32287 11.4628 5.33193 11.4561 5.34052 11.4369C5.36073 11.392 5.38268 11.3479 5.40395 11.3036C5.41156 11.2883 5.41856 11.2761 5.42545 11.262C5.44828 11.2175 5.47251 11.1736 5.50154 11.133C5.52768 11.1088 9.92581 13.8598 9.9134 13.8915C9.90496 13.9077 9.89818 13.9234 9.89008 13.939C9.87456 13.9683 9.85991 13.9981 9.8434 14.0268C9.78065 14.1353 9.66643 14.1684 9.55982 14.1092C9.53182 14.0936 9.50492 14.0757 9.47741 14.0591C9.4488 14.0417 9.44846 14.0416 9.42901 14.0683C9.38561 14.1279 9.34021 14.1858 9.2928 14.2419C9.25038 14.292 9.20552 14.3395 9.15986 14.3861C9.13886 14.4076 9.1389 14.4082 9.15507 14.4326C9.17329 14.4601 9.19255 14.4869 9.21062 14.5145C9.2807 14.6217 9.26191 14.7508 9.16454 14.8297C9.13334 14.855 9.10164 14.8796 9.06942 14.9034C8.96825 14.978 8.84806 14.9576 8.77326 14.8533C8.75423 14.8265 8.73616 14.7987 8.71714 14.7718C8.69994 14.7475 8.69929 14.7472 8.6741 14.7617C8.5708 14.8219 8.46357 14.8741 8.35324 14.9179C8.3378 14.924 8.32224 14.9297 8.30686 14.9359C8.27905 14.9472 8.27852 14.9476 8.28403 14.9804C8.28894 15.0096 8.29305 15.0391 8.30093 15.0674C8.3303 15.1732 8.26897 15.3009 8.13279 15.3459C8.07393 15.3654 7.94643 15.3795 7.89031 15.3556Z" fill="#414141"/>
<path d="M9.90489 13.8994C9.81251 13.8423 8.99037 13.3036 8.9328 13.2698C8.90156 13.253 8.91172 13.251 8.93067 13.2131C8.99791 13.0603 9.04316 12.8976 9.0649 12.7305C9.08058 12.6088 9.07974 12.4865 9.0703 12.3639C9.06147 12.2484 9.04106 12.1342 9.00943 12.0233C8.96913 11.882 8.91084 11.7498 8.83886 11.6234C8.75854 11.4824 8.65623 11.3621 8.54319 11.2511C8.45628 11.1657 8.35804 11.0964 8.25433 11.0362C8.09849 10.9451 7.92892 10.8837 7.75323 10.8546C7.64289 10.8364 7.53153 10.8274 7.42016 10.8352C7.18316 10.8518 6.95879 10.9181 6.7501 11.0401C6.58547 11.1388 6.43812 11.2671 6.31456 11.4192C6.28306 11.458 6.2382 11.5353 6.20734 11.5744C6.18961 11.5969 5.89458 11.3934 5.49325 11.1409C5.50805 11.1131 5.52232 11.0905 5.53815 11.0663C5.548 11.0511 5.54721 11.0397 5.53435 11.0277C5.50973 11.0045 5.48519 10.9811 5.46103 10.9573C5.38417 10.8815 5.36621 10.7809 5.41434 10.6821C5.42534 10.6595 5.4452 10.6063 5.47549 10.5677C5.49013 10.549 5.50627 10.5319 5.52209 10.5145C5.59956 10.4293 5.75015 10.4279 5.83101 10.5064C5.92887 10.6014 5.91601 10.5793 5.99842 10.512C6.06885 10.4547 6.14011 10.3987 6.21461 10.3473C6.25471 10.3197 6.2573 10.3063 6.23702 10.26C6.21442 10.2084 6.19406 10.1565 6.19844 10.0975C6.20384 10.0246 6.23165 9.96229 6.28762 9.92182C6.36752 9.86411 6.45237 9.8166 6.5543 9.81956C6.6385 9.82206 6.69747 9.86658 6.74024 9.93951C6.75546 9.96573 6.76729 9.99439 6.77962 10.0225C6.79104 10.0488 6.80953 10.0574 6.83544 10.0501C6.9446 10.0197 7.05516 9.99669 7.16646 9.97755C7.2069 9.97059 7.21504 9.95796 7.2166 9.91523C7.21735 9.9004 7.21735 9.88554 7.2166 9.87071C7.20797 9.73489 7.30689 9.62089 7.42381 9.613C7.48827 9.60863 7.55283 9.60345 7.61683 9.61704C7.71092 9.63728 7.80353 9.72894 7.79421 9.8548C7.79292 9.87221 7.79387 9.88981 7.79421 9.90742C7.79505 9.95914 7.80418 9.9718 7.85223 9.97913C7.95636 9.99463 8.05948 10.017 8.16099 10.0461C8.21472 10.0618 8.22305 10.0561 8.24542 10.0027C8.26296 9.96084 8.28054 9.91891 8.31151 9.88532C8.37414 9.81765 8.4521 9.80673 8.53329 9.82583C8.5976 9.84096 8.65802 9.872 8.71338 9.91037C8.80359 9.97294 8.83646 10.0853 8.79974 10.1946C8.79214 10.2174 8.78293 10.2397 8.77334 10.2617C8.75432 10.3049 8.75755 10.3207 8.79537 10.3461C8.87482 10.3991 8.95132 10.4569 9.02449 10.5192C9.10466 10.588 9.09036 10.5984 9.17882 10.5133C9.25628 10.4387 9.37591 10.4298 9.44656 10.4809C9.51817 10.5326 9.58045 10.5978 9.62181 10.6792C9.6586 10.7518 9.65366 10.8853 9.58038 10.9523C9.55838 10.9726 9.5389 10.9958 9.51847 11.0179C9.50078 11.0372 9.49838 11.0582 9.51238 11.0801C9.57788 11.1827 9.63651 11.2901 9.68782 11.4014C9.70042 11.4287 9.72207 11.4357 9.7487 11.4267C9.78005 11.416 9.81205 11.4075 9.84447 11.4012C9.93114 11.3851 10.0266 11.4255 10.0711 11.5065C10.1143 11.5848 10.1409 11.6709 10.1436 11.7629C10.1465 11.8641 10.0992 11.9341 10.018 11.9807C9.9911 11.9958 9.96271 12.0078 9.93335 12.0164C9.90234 12.0258 9.88906 12.0458 9.8953 12.0795C9.91718 12.2002 9.92444 12.3223 9.93164 12.4447C9.93354 12.477 9.94826 12.4949 9.97885 12.4959C10.0017 12.4966 10.0242 12.5011 10.0467 12.5043C10.163 12.5205 10.2426 12.6167 10.243 12.7419C10.2432 12.7661 10.2421 12.7903 10.2398 12.8144C10.236 12.8525 10.2232 12.907 10.2132 12.9426C10.184 13.0462 10.0857 13.103 9.98429 13.0961C9.95146 13.0939 9.91881 13.0883 9.88602 13.0849C9.85588 13.0817 9.85436 13.0821 9.84686 13.1139C9.82434 13.2093 9.7998 13.3041 9.76757 13.3965C9.75258 13.4394 9.73713 13.4822 9.72017 13.5243C9.71256 13.5429 9.71575 13.5544 9.73204 13.5641C9.76403 13.5834 9.7963 13.6022 9.82716 13.6235C9.90949 13.6801 9.94351 13.7832 9.91353 13.8816C9.9111 13.8878 9.90821 13.8937 9.90489 13.8994Z" fill="#666059"/>
<path d="M6.55131 11.7724C6.58936 11.7238 6.62546 11.6734 6.66713 11.6278C6.86365 11.4131 7.1011 11.287 7.38148 11.2534C7.62944 11.2237 7.86469 11.2696 8.08198 11.3996C8.4165 11.5998 8.61603 11.905 8.67896 12.3072C8.71552 12.5409 8.68782 12.769 8.60058 12.9879C8.59567 13.0003 8.59217 13.0133 8.58802 13.026C8.5975 13.0471 8.58829 13.0652 8.58 13.0835C8.53769 13.1766 8.48202 13.2601 8.41761 13.3365C8.23235 13.5562 8.00562 13.7019 7.73046 13.7523C7.3652 13.8191 7.03566 13.7292 6.74916 13.478C6.5168 13.2743 6.37678 13.0105 6.3317 12.6941C6.29662 12.4479 6.3258 12.2081 6.42172 11.9789C6.44496 11.9233 6.4732 11.8709 6.50162 11.8182C6.51322 11.7963 6.52837 11.7799 6.55131 11.7724Z" fill="#EDAE50"/>
<path d="M6.76333 12.4978C6.75705 12.0441 7.12197 11.6983 7.50907 11.6962C7.88871 11.6941 8.26759 12.0157 8.26824 12.5019C8.26889 12.9532 7.92448 13.2962 7.5225 13.3006C7.08457 13.3054 6.7553 12.9211 6.76333 12.4978Z" fill="#45423D"/>
<path d="M8.2549 11.7576C8.26118 11.8245 8.18235 11.877 8.12756 11.8383C8.09038 11.8121 8.05526 11.7854 8.02581 11.7504C7.98339 11.7001 7.99305 11.648 8.04925 11.6152C8.09088 11.5909 8.12969 11.5891 8.16812 11.624C8.19517 11.6485 8.22138 11.6732 8.24079 11.7051C8.25063 11.7206 8.25557 11.7389 8.2549 11.7576Z" fill="#FCD38C"/>
<path d="M6.9148 12.5033C6.90548 12.1755 7.15523 11.8558 7.51771 11.8572C7.85634 11.8586 8.12066 12.1475 8.11728 12.5087C8.11397 12.8649 7.83633 13.1441 7.50638 13.1398C7.16425 13.1353 6.90556 12.8291 6.9148 12.5033Z" fill="#EDAE50"/>
<path d="M7.51391 12.7602C7.37903 12.7602 7.2666 12.6409 7.26758 12.4971C7.26846 12.3555 7.37165 12.2369 7.51547 12.2353C7.64666 12.2339 7.76122 12.3493 7.7605 12.4993C7.75981 12.6455 7.65175 12.7603 7.51391 12.7602Z" fill="#414141"/>
<path d="M7.79894 12.064C7.81309 12.064 7.82694 12.0656 7.83897 12.0741C7.89128 12.111 7.91929 12.1623 7.91742 12.2298C7.91643 12.2645 7.86967 12.3009 7.83779 12.2932C7.78387 12.2802 7.73993 12.2518 7.70991 12.2007C7.68396 12.1565 7.68909 12.1195 7.72798 12.0883C7.74902 12.0715 7.77307 12.0647 7.79894 12.064Z" fill="#FCD38C"/>
<path d="M6.55175 11.7724C6.51248 11.8384 6.47447 11.9051 6.44411 11.9766C6.3931 12.0973 6.35998 12.2256 6.34591 12.357C6.32723 12.5228 6.34012 12.6908 6.38381 12.8511C6.42749 13.0115 6.50108 13.1608 6.60018 13.2903C6.75085 13.487 6.94071 13.6225 7.16816 13.6981C7.3 13.7419 7.43575 13.7621 7.57326 13.7524C7.93297 13.7271 8.22632 13.5642 8.4505 13.2627C8.49755 13.1991 8.53815 13.1304 8.5716 13.0577C8.57663 13.0469 8.58283 13.0367 8.58846 13.0262C8.61973 13.0418 8.86305 13.209 8.90452 13.2398C8.921 13.252 8.91354 13.2682 8.9057 13.283C8.86298 13.3642 8.81781 13.4437 8.76344 13.5168C8.64462 13.6768 8.50601 13.8131 8.34206 13.92C8.18294 14.0238 8.00813 14.0976 7.82537 14.138C7.68398 14.1697 7.54077 14.1744 7.39797 14.1649C7.20804 14.1525 7.02601 14.1014 6.85274 14.0158C6.73405 13.958 6.6228 13.8841 6.52173 13.7962C6.32292 13.6219 6.16871 13.4115 6.06895 13.1572C6.00519 12.9941 5.96533 12.8214 5.95074 12.6454C5.92791 12.3829 5.96702 12.1302 6.05392 11.8846C6.08577 11.7947 6.12778 11.7103 6.17267 11.6273C6.17709 11.6192 6.18203 11.6111 6.18713 11.6036C6.21441 11.5623 6.21959 11.561 6.26014 11.5856C6.32825 11.6269 6.45925 11.7133 6.52595 11.7567C6.53486 11.7613 6.54348 11.7665 6.55175 11.7724Z" fill="#666059"/>
<path d="M8.66621 12.7651C8.70061 12.6022 8.70382 12.4336 8.67567 12.2694C8.64752 12.1052 8.58857 11.9487 8.50233 11.8092C8.35821 11.6115 8.17714 11.445 7.97621 11.3421C7.85079 11.2847 7.71638 11.2527 7.5799 11.2477C7.21962 11.2341 6.91075 11.361 6.65913 11.637C6.61957 11.6812 6.58241 11.7277 6.54784 11.7764C6.51824 11.7576 6.2457 11.6097 6.20739 11.5745C6.19217 11.5605 6.31099 11.4173 6.37206 11.3504C6.50553 11.2041 6.65639 11.0833 6.82974 10.9948C6.99198 10.9057 7.17742 10.8548 7.36454 10.8337C7.50801 10.8172 7.65292 10.8213 7.79536 10.8458C7.98313 10.8787 8.15625 10.9564 8.32043 11.0603C8.43301 11.1307 8.53666 11.2162 8.62884 11.3145C8.80999 11.5094 8.94331 11.7354 9.01842 11.9991C9.06628 12.1684 9.08946 12.3444 9.08717 12.5212C9.0847 12.7848 9.02249 13.027 8.93213 13.2221C8.9142 13.2608 8.93045 13.2598 8.87852 13.2221C8.81471 13.1735 8.65552 13.0721 8.58832 13.0263C8.58414 13.0229 8.639 12.8949 8.66621 12.7651Z" fill="#45423D"/>
<path d="M6.99335 5.89369C6.96565 5.79996 6.94438 5.70437 6.92106 5.60939C6.9149 5.58438 6.92182 5.57766 6.9469 5.57119C8.33432 5.2123 10.0215 5.48652 10.8881 5.76572C11.0254 5.81813 11.159 5.87904 11.2827 5.96237C11.3364 5.99855 11.3873 6.03841 11.4273 6.09187C11.4384 6.10651 11.4485 6.12207 11.4573 6.13841C11.4783 6.17811 11.483 6.21814 11.4632 6.26156C11.4176 6.3623 11.3679 6.46078 11.3143 6.55699C11.2796 6.61964 11.244 6.68168 11.2088 6.74404C11.1923 6.77431 11.1737 6.80326 11.1532 6.83069C11.1353 6.84845 11.1152 6.83991 11.0959 6.8353C11.011 6.81507 10.9253 6.79924 10.8409 6.77715C10.8347 6.77553 10.8284 6.77828 10.8221 6.77852C10.7338 6.74809 10.6405 6.74461 10.5508 6.72186C10.539 6.71887 10.5288 6.72644 10.5175 6.72441C10.3702 6.69394 10.2207 6.67856 10.0724 6.65687C10.0202 6.64922 9.96632 6.65327 9.91571 6.63344C9.89639 6.6117 9.89288 6.5833 9.88638 6.5559C9.84898 6.39426 9.80039 6.2374 9.71136 6.0981C9.69781 6.07694 9.68309 6.05674 9.66764 6.03707C9.62134 5.97795 9.56605 5.94278 9.49098 5.9323C9.29519 5.9049 9.09909 5.88122 8.90242 5.8635C8.5752 5.83383 8.24761 5.82878 7.91979 5.83371C7.75801 5.8361 7.59638 5.84755 7.4349 5.86237C7.3012 5.87451 7.1678 5.88891 7.03479 5.90765C7.01831 5.90935 7.00408 5.9083 6.99335 5.89369Z" fill="#EDAE50"/>
<path d="M11.5939 8.71562C11.5017 8.71493 11.4095 8.71291 11.3174 8.71428C11.2881 8.71469 11.2816 8.69652 11.2752 8.67406C11.2502 8.66596 11.2509 8.64168 11.247 8.62144C11.2172 8.46568 11.1892 8.30946 11.1568 8.15426C11.0771 7.77267 10.9875 7.39379 10.8785 7.0203C10.8598 6.95595 10.8396 6.89209 10.8212 6.82758C10.8157 6.80795 10.805 6.78654 10.823 6.76688C10.8297 6.75878 10.8386 6.75878 10.8473 6.76044C10.9499 6.78068 11.0523 6.80091 11.1531 6.83013C11.2192 7.02811 11.2748 7.22953 11.3261 7.43232C11.3959 7.70792 11.4557 7.98607 11.5116 8.26519C11.5323 8.36944 11.5936 8.71303 11.5939 8.71562Z" fill="#45423D"/>
<path d="M6.99318 5.89369C7.11437 5.87167 7.23669 5.85888 7.35894 5.84723C7.4471 5.83881 7.53571 5.83343 7.6241 5.82699C7.86966 5.80886 8.11545 5.80923 8.36116 5.81364C8.53965 5.81684 8.71798 5.82691 8.89616 5.84197C9.01483 5.852 9.13331 5.86354 9.25153 5.87791C9.35083 5.89005 9.44938 5.90757 9.54872 5.92133C9.58083 5.92574 9.60503 5.9425 9.62797 5.96479C9.70708 6.04169 9.76293 6.13574 9.8068 6.23837C9.859 6.36035 9.89484 6.48791 9.91862 6.61939C9.91311 6.63785 9.89895 6.63809 9.88465 6.63716C9.82152 6.63311 9.75829 6.62838 9.6954 6.62215C9.63992 6.61668 9.58422 6.61405 9.52882 6.61073C9.44051 6.60555 9.35209 6.59535 9.26332 6.60057C9.22908 6.60264 9.19533 6.59345 9.16116 6.59289C9.1149 6.59216 9.10051 6.6028 9.08446 6.64841C8.98987 6.91741 8.91199 7.19196 8.84354 7.46966C8.73776 7.89864 8.6571 8.33325 8.58926 8.77061C8.57108 8.88748 8.55627 9.00493 8.54007 9.12217C8.53676 9.146 8.53432 9.17045 8.52005 9.19097C8.5089 9.20286 8.49471 9.20367 8.48109 9.19991C8.41748 9.18243 8.35432 9.16292 8.29085 9.14495C8.28589 9.14376 8.28127 9.14129 8.27741 9.13776C8.27355 9.13424 8.27056 9.12976 8.26871 9.12472C8.25847 9.09546 8.2649 9.06571 8.26901 9.0369C8.33369 8.56381 8.41287 8.09367 8.51701 7.62855C8.59067 7.29961 8.6746 6.97399 8.78213 6.65553C8.79841 6.60737 8.78928 6.59337 8.74172 6.5928C8.55323 6.59058 8.36504 6.59754 8.17663 6.60713C8.08197 6.61199 7.98734 6.61612 7.89291 6.62453C7.88659 6.62453 7.88024 6.62478 7.87388 6.62482C7.7753 6.6255 7.77302 6.62781 7.74193 6.72538C7.56101 7.29269 7.43454 7.87424 7.33683 8.46352C7.30761 8.63977 7.28201 8.81658 7.25598 8.99335C7.25362 9.00954 7.25195 9.02549 7.24236 9.03904C7.23323 9.0547 7.21816 9.05681 7.20302 9.05928C7.12441 9.07142 7.04535 9.07988 6.96712 9.09465C6.9495 9.09801 6.92785 9.10201 6.92432 9.07182C6.93743 8.97866 6.95057 8.8855 6.96373 8.79234C6.99783 8.55001 7.03643 8.30854 7.07955 8.06793C7.13609 7.75267 7.20077 7.43988 7.28067 7.13085C7.31872 6.98427 7.35803 6.83801 7.40585 6.69459C7.42259 6.64432 7.42252 6.64432 7.38633 6.6096C7.29905 6.52554 7.21207 6.44116 7.12434 6.35763C7.10821 6.34259 7.09691 6.32255 7.09203 6.30033C7.06232 6.17783 7.03116 6.05573 7.00049 5.93347C6.99518 5.92098 6.99271 5.90734 6.99326 5.89365L6.99318 5.89369Z" fill="#45423D"/>
<path d="M6.99357 5.89348C6.99821 5.90631 7.0035 5.91897 7.00079 5.9333C6.99319 5.9212 6.98352 5.9093 6.99357 5.89348Z" fill="#A9A9A9"/>
<path d="M9.0077 9.41114C8.8619 9.32786 8.70906 9.26221 8.55272 9.20535C8.53849 9.20017 8.52354 9.19633 8.5127 9.1839C8.52879 9.06529 8.54367 8.94647 8.56117 8.82809C8.60175 8.55403 8.64915 8.28133 8.70335 8.01C8.78592 7.59874 8.88469 7.19218 9.01455 6.79469C9.03532 6.73107 9.05686 6.66773 9.07847 6.60448C9.08939 6.57247 9.08988 6.57235 9.12211 6.57332C9.30193 6.57874 9.4817 6.58607 9.66125 6.59805C9.74713 6.60375 9.83285 6.61217 9.91865 6.61937C10.0604 6.63386 10.2017 6.65244 10.3427 6.67368C10.4026 6.68275 10.4625 6.69109 10.5221 6.70286C10.5563 6.71739 10.5775 6.74523 10.5981 6.77721C10.6767 6.8989 10.7393 7.0303 10.7913 7.16572C10.8458 7.30736 10.8956 7.45184 10.9293 7.60154C10.9425 7.66046 10.9613 7.71789 10.9749 7.77661C11.0195 7.96985 11.0688 8.16184 11.1048 8.35731C11.1232 8.45755 11.1428 8.55772 11.1672 8.65679C11.1736 8.68313 11.1844 8.71296 11.1524 8.73194C11.149 8.73599 11.1462 8.74104 11.142 8.74343C11.0855 8.7752 11.0474 8.82692 11.0103 8.87965C10.9484 8.96767 10.887 9.05618 10.8255 9.14453C10.8081 9.15262 10.7938 9.1459 10.7796 9.1351C10.7055 9.0786 10.6307 9.02309 10.5552 8.96857C10.5168 8.94076 10.5138 8.92684 10.5396 8.8858C10.5761 8.82753 10.6154 8.77128 10.6531 8.71385C10.6676 8.69175 10.6831 8.67026 10.695 8.64638C10.7163 8.60308 10.7085 8.5599 10.6757 8.53404C10.6429 8.50818 10.602 8.51344 10.5706 8.55096C10.5309 8.59831 10.4996 8.65258 10.4657 8.70474C10.3581 8.86967 10.2503 9.03448 10.1423 9.19916C10.1321 9.21462 10.1218 9.23008 10.1149 9.24773C10.0991 9.28779 10.1101 9.32907 10.1421 9.35129C10.1752 9.37428 10.2133 9.36974 10.2413 9.33559C10.2806 9.28783 10.3116 9.23344 10.3457 9.1818C10.3675 9.14866 10.3892 9.11547 10.4116 9.08289C10.4273 9.06023 10.4445 9.05687 10.4671 9.07225C10.5492 9.12838 10.6276 9.19018 10.7076 9.24934C10.7211 9.25926 10.7343 9.271 10.7338 9.29131C10.7087 9.33474 10.6838 9.37824 10.6585 9.4215C10.6459 9.44324 10.6323 9.46436 10.6198 9.48626C10.5677 9.57679 10.5661 9.67039 10.611 9.76331C10.7319 10.0135 10.8575 10.2611 10.9993 10.4989C11.0169 10.5285 11.0359 10.557 11.0537 10.5865C11.1036 10.6693 11.1782 10.7025 11.266 10.7053C11.3507 10.708 11.4352 10.6981 11.5196 10.6902C11.5177 11.0649 11.4169 11.4076 11.2282 11.723C11.2017 11.7671 11.1732 11.786 11.1217 11.7844C10.9851 11.78 10.8483 11.7836 10.7116 11.784C10.6839 11.7799 10.6849 11.7539 10.6811 11.7344C10.6649 11.6541 10.6436 11.5753 10.6211 11.4967C10.5346 11.1936 10.4093 10.9047 10.2486 10.6381C10.1967 10.5519 10.1387 10.4704 10.0843 10.3862C10.0337 10.316 9.97922 10.2492 9.92295 10.1844C9.82273 10.0689 9.71871 9.95736 9.60483 9.85659C9.44015 9.71172 9.26378 9.58259 9.07775 9.47071C9.05199 9.45424 9.02109 9.444 9.0077 9.41114Z" fill="#B9E1E1"/>
<path d="M11.1442 8.74135C11.1547 8.71706 11.1538 8.68355 11.1483 8.66069C11.1003 8.46138 10.7609 7.0718 10.569 6.76601C10.5458 6.72894 10.5403 6.71911 10.522 6.70288C10.6121 6.71033 10.7005 6.73056 10.7898 6.74384C10.7967 6.74468 10.8032 6.74722 10.809 6.75126C10.8147 6.75531 10.8195 6.76074 10.8229 6.76711C10.9427 7.15429 11.0455 7.54651 11.1313 7.94377C11.1839 8.18586 11.2379 8.446 11.2808 8.69027C11.2809 8.69083 11.2811 8.69137 11.2814 8.69185C11.29 8.70889 11.2923 8.70419 11.2421 8.71087C11.2109 8.71512 11.1691 8.72989 11.1442 8.74135Z" fill="#DCF9FB"/>
<path d="M8.27776 9.11997C8.19972 9.10378 8.12176 9.08609 8.04353 9.07185C7.9502 9.05504 7.85611 9.04343 7.76164 9.03708C7.67222 9.03089 7.58357 9.02899 7.49401 9.02879C7.44367 9.02879 7.39269 9.03401 7.34204 9.03004C7.32131 9.01313 7.32504 8.99018 7.32804 8.96715C7.371 8.63765 7.42096 8.30956 7.48606 7.98373C7.53171 7.75427 7.58312 7.52643 7.64639 7.3019C7.70681 7.08741 7.7772 6.87668 7.88628 6.68352C7.90272 6.65446 7.90531 6.63042 7.88792 6.60319C7.89994 6.59805 7.91273 6.59809 7.92532 6.59748C8.21243 6.58364 8.4995 6.56863 8.78703 6.57142C8.79943 6.57142 8.81233 6.5683 8.82439 6.57486C8.82923 6.58939 8.82116 6.60125 8.81701 6.61335C8.69024 6.98162 8.59443 7.35977 8.51194 7.74177C8.44197 8.06585 8.38387 8.39236 8.3338 8.72053C8.31364 8.85351 8.29648 8.98686 8.27776 9.11997Z" fill="#B9E1E1"/>
<path d="M7.91303 6.59819C7.96444 6.59179 7.95956 6.59479 7.92875 6.6508C7.84553 6.80199 7.77545 6.95744 7.72192 7.12146C7.69087 7.21653 7.66077 7.31248 7.63753 7.41054C7.61215 7.51754 7.5822 7.62329 7.55865 7.73086C7.5348 7.83972 7.51467 7.94939 7.4926 8.05866C7.47 8.17056 7.44694 8.28234 7.42975 8.39529C7.40311 8.57066 7.37739 8.74615 7.35258 8.92176C7.34756 8.9575 7.34117 8.99348 7.3422 9.03006C7.32937 9.03617 7.24156 9.0458 7.23486 9.03006C7.24065 8.94398 7.25583 8.8592 7.26835 8.77417C7.29932 8.56405 7.33412 8.35462 7.37275 8.14588C7.46289 7.66347 7.57395 7.18674 7.72279 6.72085C7.73219 6.69155 7.7433 6.66282 7.75163 6.63319C7.7565 6.61583 7.7662 6.6094 7.78177 6.60891C7.81742 6.60701 7.90672 6.5979 7.91303 6.59819Z" fill="#DCF9FB"/>
<path d="M12.6596 12.5322C12.5711 12.525 12.4724 12.4509 12.4019 12.6423C12.3319 12.832 12.4348 12.9051 12.4193 12.8987C12.4117 12.8977 12.4039 12.8974 12.3962 12.8979C12.3382 12.8986 12.2783 12.8884 12.2204 12.8884C12.1999 12.8784 12.2047 12.8605 12.2082 12.8432C12.2373 12.6941 12.282 12.5489 12.3413 12.4102C12.4199 12.2284 12.516 12.0581 12.6365 11.9035C12.8039 11.6888 13 11.511 13.2281 11.3728C13.4656 11.229 13.7204 11.14 13.9904 11.1013C14.1208 11.0826 14.2524 11.0756 14.3842 11.0854C14.4342 11.0891 14.4733 11.0674 14.5002 11.0235C14.5112 11.0057 14.5233 10.9921 14.5421 10.985C14.5638 10.9848 14.5835 10.9946 14.6043 10.9995C14.6499 11.0104 14.6547 11.0087 14.6747 10.9647C14.707 10.8937 14.7406 10.8234 14.7823 10.7579C14.7926 10.7508 14.8012 10.7413 14.8074 10.7301C14.8615 10.6419 14.9308 10.569 15.0121 10.5091C15.0144 10.508 15.017 10.5075 15.0195 10.5078C15.049 10.5078 15.0567 10.5318 15.0638 10.5552C15.0949 10.6577 15.13 10.7586 15.1733 10.8563C15.2451 11.0182 15.3337 11.1679 15.4475 11.3001C15.4645 11.3198 15.4859 11.3374 15.4759 11.3695C15.4167 11.4801 15.3574 11.5907 15.2982 11.7013C15.2895 11.7175 15.2798 11.7333 15.2706 11.7493C15.2542 11.7771 15.2356 11.8035 15.215 11.8282C15.2097 11.8241 15.2041 11.8205 15.1982 11.8174C15.1947 11.8156 15.1883 11.8095 15.185 11.8076C15.1229 11.7717 15.1317 11.7693 15.1626 11.7024C15.182 11.6601 15.1921 11.6174 15.1798 11.5698C15.175 11.5501 15.1664 11.5317 15.1545 11.5158C15.1427 11.4999 15.1279 11.4867 15.1111 11.4771C15.0714 11.4542 15.0302 11.4326 14.9849 11.4225C14.9212 11.4085 14.8548 11.4398 14.8241 11.501C14.814 11.5212 14.8069 11.5429 14.7975 11.5636C14.784 11.5936 14.7763 11.5979 14.7469 11.589C14.6689 11.5653 14.59 11.5459 14.5093 11.5363C14.5017 11.5354 14.4945 11.5323 14.4869 11.5316C14.4654 11.5289 14.4563 11.5154 14.4565 11.4932C14.4565 11.4717 14.4551 11.4501 14.4565 11.4285C14.4615 11.3469 14.4126 11.2918 14.3417 11.2769C14.2906 11.2662 14.2379 11.2669 14.1871 11.279C14.1221 11.2946 14.0836 11.3368 14.0746 11.4085C14.0709 11.4352 14.0688 11.462 14.0682 11.4889C14.0678 11.5239 14.0655 11.5268 14.0323 11.5338C13.9913 11.5423 13.95 11.5488 13.9089 11.5571C13.8666 11.5656 13.8248 11.5763 13.7834 11.5892C13.7565 11.5975 13.7502 11.5942 13.7389 11.5675C13.7286 11.5429 13.7189 11.5181 13.7056 11.495C13.6705 11.4343 13.607 11.4063 13.542 11.4241C13.4953 11.4371 13.4509 11.4579 13.4104 11.4859C13.3515 11.5264 13.3299 11.6028 13.3549 11.6749C13.3623 11.6963 13.3732 11.7163 13.3819 11.7372C13.3929 11.7636 13.3919 11.7699 13.3701 11.7841C13.2933 11.8341 13.2222 11.8925 13.1515 11.9515C13.1308 11.9688 13.1252 11.969 13.1058 11.95C13.0886 11.9321 13.0704 11.9154 13.0512 11.9C12.9968 11.8582 12.9225 11.8576 12.8714 11.9035C12.8358 11.9356 12.8021 11.9705 12.7767 12.0132C12.7382 12.078 12.7471 12.1549 12.7995 12.2075C12.8207 12.2288 12.8229 12.2304 12.8574 12.2555C12.8044 12.3118 12.701 12.4638 12.6707 12.5237" fill="#414141"/>
<path d="M11.9515 12.8808C11.7386 12.8805 11.5257 12.8803 11.3128 12.8801C10.9745 12.8801 10.6361 12.8801 10.2978 12.8801C10.2198 12.8801 10.2184 12.8775 10.2293 12.796C10.2369 12.7367 10.2382 12.6775 10.2069 12.6235C10.1732 12.5653 10.1255 12.528 10.0615 12.5176C10.0302 12.5121 9.99871 12.5087 9.96708 12.5074C9.92903 12.5062 9.92214 12.4961 9.92074 12.4553C9.91617 12.3234 9.90601 12.1922 9.88216 12.0622C9.87268 12.0108 9.87531 12.0065 9.92378 11.9922C9.96301 11.9807 10.0012 11.9664 10.0362 11.9441C10.1232 11.8884 10.1487 11.7933 10.1279 11.6955C10.1184 11.651 10.1039 11.6075 10.0898 11.5642C10.0533 11.452 9.95665 11.3936 9.84704 11.4154C9.80948 11.4229 9.77353 11.4356 9.73731 11.4478C9.70759 11.4579 9.70386 11.4569 9.69005 11.4262C9.63248 11.297 9.56457 11.1734 9.48706 11.0567C9.47249 11.0349 9.47325 11.0281 9.49544 11.0104C9.52587 10.9858 9.55053 10.9547 9.57876 10.9278C9.64668 10.863 9.64546 10.7267 9.60482 10.6616C9.56655 10.6004 9.51804 10.5483 9.46526 10.5025C9.39887 10.4448 9.28244 10.4427 9.20863 10.5133C9.18321 10.5376 9.15437 10.5578 9.13189 10.5855C9.11842 10.6022 9.10598 10.6025 9.09003 10.5882C9.0524 10.5543 9.01439 10.5207 8.97536 10.4886C8.91417 10.4384 8.8498 10.3931 8.78451 10.3489C8.72793 10.3106 8.73055 10.3192 8.75932 10.2558C8.77133 10.2305 8.78187 10.2045 8.7909 10.1779C8.82381 10.0743 8.79398 9.96073 8.68901 9.90407C8.64373 9.87979 8.59826 9.85474 8.54945 9.84061C8.48096 9.82078 8.41411 9.82442 8.35392 9.87198C8.32949 9.89152 8.30991 9.91709 8.29684 9.94648C8.28064 9.98153 8.26641 10.0176 8.25088 10.053C8.23913 10.0796 8.23654 10.0813 8.21002 10.0724C8.10828 10.0384 8.00426 10.0152 7.89905 9.99743C7.87405 9.99339 7.84898 9.98934 7.82395 9.98553C7.78769 9.97995 7.78487 9.97695 7.78422 9.93644C7.78373 9.90277 7.78384 9.86906 7.78422 9.83527C7.78506 9.7417 7.73857 9.68148 7.66331 9.64243C7.64167 9.63082 7.61799 9.62416 7.59379 9.62288C7.53695 9.62082 7.47999 9.61698 7.42322 9.62693C7.31498 9.6462 7.24775 9.72657 7.2444 9.84296C7.24356 9.87258 7.2444 9.90225 7.24405 9.93199C7.24352 9.97744 7.24177 9.97882 7.20064 9.98578C7.07425 10.0071 6.94823 10.0303 6.82541 10.0698C6.79611 10.0792 6.79261 10.0772 6.77922 10.0464C6.76648 10.0171 6.75403 9.9876 6.74117 9.95826C6.69057 9.84166 6.57323 9.80399 6.4651 9.84591C6.42459 9.86152 6.38506 9.87983 6.34673 9.90075C6.28384 9.93535 6.24236 9.98877 6.22878 10.0649C6.22179 10.1048 6.22532 10.146 6.23898 10.184C6.25077 10.2182 6.26641 10.2505 6.28117 10.2834C6.29369 10.3112 6.29228 10.3175 6.26835 10.333C6.16741 10.3981 6.07313 10.4731 5.98109 10.5515C5.96925 10.5616 5.95826 10.573 5.94684 10.5834C5.92717 10.6009 5.92112 10.6009 5.90119 10.5826C5.87916 10.5624 5.85644 10.5428 5.83582 10.521C5.75809 10.4388 5.61255 10.4393 5.5371 10.5267C5.51485 10.5524 5.49365 10.5793 5.47082 10.6044C5.4432 10.6347 5.44138 10.6337 5.41307 10.6059C5.38902 10.5823 5.33233 10.5292 5.3283 10.5261C5.29051 10.4813 5.29207 10.481 5.33031 10.435C5.65541 10.0447 6.06755 9.74758 6.52883 9.57096C6.76134 9.48193 7.00062 9.4239 7.24649 9.40135C7.39666 9.38808 7.54755 9.38657 7.69793 9.39682C7.90158 9.40981 8.10341 9.44537 8.30012 9.50293C8.46151 9.54986 8.61849 9.61252 8.76906 9.69011C8.87195 9.74171 8.97175 9.80002 9.06789 9.86469C9.20257 9.9554 9.33006 10.0577 9.44909 10.1704C9.56298 10.2792 9.6699 10.396 9.76915 10.5199C9.78262 10.5377 9.79522 10.5563 9.8069 10.5755C9.89977 10.687 9.97431 10.8123 10.0439 10.9404C10.1839 11.1971 10.2886 11.4737 10.3548 11.762C10.378 11.8628 10.3934 11.9651 10.4105 12.0671C10.4253 12.1561 10.4867 12.1866 10.5621 12.1435C10.6566 12.0895 10.7166 11.961 10.7029 11.8473C10.6999 11.8226 10.6838 11.7947 10.7088 11.7715C10.7285 11.7596 10.7503 11.7606 10.7718 11.7605C10.8859 11.7602 10.9998 11.759 11.1138 11.7611C11.1609 11.762 11.1924 11.7433 11.2176 11.7018C11.3119 11.5465 11.3837 11.3769 11.4307 11.1989C11.4677 11.06 11.4943 10.9189 11.5033 10.7744C11.5044 10.7596 11.5042 10.7447 11.5027 10.7299C11.5007 10.7123 11.5048 10.6979 11.5201 10.6887C11.5448 10.6882 11.5989 10.6849 11.6014 10.6846C11.696 10.6787 11.696 10.6787 11.6962 10.78C11.6962 10.8568 11.6958 10.9337 11.6964 11.0104C11.697 11.0806 11.7147 11.1023 11.7792 11.1197C11.9339 11.1615 12.0904 11.1751 12.2499 11.1662C12.3236 11.1622 12.3956 11.1481 12.4688 11.142C12.4839 11.1402 12.4987 11.1361 12.5128 11.1298C12.5572 11.1117 12.5702 11.0934 12.5709 11.0421C12.572 10.9464 12.5705 10.8507 12.5717 10.7551C12.572 10.7342 12.5679 10.7113 12.5853 10.6944C12.614 10.6709 12.6415 10.6888 12.6672 10.7002C12.7306 10.7286 12.7783 10.7789 12.8221 10.8333C12.9032 10.9341 12.9635 11.0493 13.0206 11.1664C13.0256 11.1758 13.0277 11.1867 13.0267 11.1975C13.0247 11.2237 13.0068 11.2367 12.9886 11.2493C12.8391 11.352 12.7049 11.474 12.5815 11.6102C12.4399 11.7662 12.3225 11.9406 12.2231 12.1291C12.1076 12.348 12.0291 12.5814 11.9827 12.8274C11.9787 12.848 11.9826 12.8773 11.9515 12.8808Z" fill="#45423D"/>
<path d="M11.9513 12.8807C11.9609 12.8348 11.9701 12.7887 11.9802 12.7431C12.0629 12.3682 12.2219 12.0336 12.4513 11.7364C12.6037 11.5377 12.7844 11.3658 12.9869 11.2267C12.9985 11.2186 13.0113 11.2122 13.0185 11.1984C13.0277 11.1822 13.7182 10.7096 14.4904 10.8614C14.5364 10.8969 14.5418 10.9652 14.5168 11.0271C14.4924 11.0875 14.447 11.1065 14.3741 11.1046C14.3069 11.1029 14.2398 11.099 14.1729 11.1029C14.0603 11.1089 13.9484 11.1241 13.838 11.1482C13.5357 11.2156 13.2603 11.3463 13.0133 11.5434C12.7246 11.7738 12.5068 12.0651 12.3572 12.4141C12.2966 12.5567 12.2509 12.7059 12.221 12.859C12.2192 12.8682 12.1944 13.0163 12.1868 13.0816C12.1799 13.1423 12.1525 13.1847 12.0975 13.2047C12.0165 13.2341 11.93 13.1713 11.9283 13.0804C11.9273 13.0346 11.9366 12.9895 11.9431 12.9444C11.9457 12.9265 11.9485 12.8836 11.9513 12.8807Z" fill="#A19D98"/>
<path d="M11.2926 12.5655C11.1545 12.5655 11.0164 12.566 10.8784 12.5653C10.8137 12.565 10.7668 12.5314 10.7402 12.4698C10.7135 12.4082 10.7217 12.3484 10.7604 12.2949C10.7912 12.2526 10.8352 12.2364 10.8841 12.2347C10.917 12.2337 10.9499 12.2343 10.983 12.2343C11.216 12.2345 11.4491 12.2347 11.6822 12.2348C11.7263 12.2348 11.7675 12.2429 11.8025 12.2748C11.8508 12.3189 11.8705 12.3904 11.8503 12.4541C11.8405 12.4864 11.8213 12.5146 11.7956 12.5346C11.7698 12.5547 11.7388 12.5656 11.7069 12.5658C11.5688 12.5665 11.4308 12.566 11.2927 12.566L11.2926 12.5655Z" fill="#FCBE4F"/>
<path d="M6.92459 9.07147C6.93322 9.07879 6.94311 9.07899 6.95327 9.07685C7.03964 9.05888 7.127 9.04852 7.21444 9.03889C7.22205 9.038 7.21824 9.03812 7.23981 9.03593C7.54686 9.01165 7.95615 9.02954 8.27799 9.11995C8.34895 9.14083 8.42045 9.15637 8.49148 9.17709C8.49875 9.17754 8.84643 9.31279 8.9815 9.39C8.9936 9.39919 8.9995 9.40409 9.00814 9.41113C9.01369 9.47738 8.99433 9.52716 8.95795 9.57236C8.90731 9.63537 8.84038 9.68054 8.7655 9.70915C8.6692 9.66463 8.57332 9.61902 8.47387 9.58252C8.29787 9.51787 8.11654 9.47097 7.93229 9.44245C7.77174 9.41814 7.60961 9.40772 7.44748 9.41129C7.25618 9.4147 7.06573 9.43904 6.87912 9.48393C6.29993 9.62229 5.77475 9.94677 5.37481 10.4134C5.36203 10.4283 5.34898 10.443 5.33615 10.4579C5.30952 10.489 5.29788 10.5091 5.27824 10.5338C5.24564 10.575 5.21391 10.6169 5.18213 10.6588C5.10794 10.7565 4.97755 10.7618 4.89632 10.6593C4.84134 10.5899 4.85066 10.4853 4.8954 10.4194C4.9442 10.3489 4.99635 10.281 5.05167 10.2162C5.10821 10.1489 5.1633 10.0801 5.22528 10.0183C5.31215 9.93181 5.39863 9.8446 5.4931 9.76742C5.81571 9.50389 6.16929 9.30291 6.55898 9.176C6.66196 9.14237 6.76655 9.11459 6.87231 9.09279C6.89095 9.08907 6.91051 9.08765 6.92459 9.07147Z" fill="#EDAE50"/>
<path d="M10.0953 10.3744C10.1897 10.4932 10.2665 10.6247 10.3407 10.758C10.428 10.9149 10.5005 11.0793 10.562 11.2494C10.6183 11.4055 10.6671 11.5641 10.6995 11.728C10.7033 11.7464 10.7079 11.7644 10.7121 11.7829C10.7206 11.8332 10.7304 11.883 10.72 11.9348C10.6988 12.0411 10.649 12.1243 10.554 12.1706C10.4743 12.2094 10.4052 12.1689 10.3922 12.0766C10.3579 11.8338 10.302 11.5967 10.2167 11.368C10.1159 11.0974 9.9837 10.8459 9.81556 10.6157C9.80795 10.6051 9.8008 10.594 9.79346 10.5831C9.81164 10.5189 9.84935 10.4669 9.88561 10.4135C9.90597 10.3835 9.93743 10.3884 9.96368 10.3796C10.0061 10.3654 10.0507 10.3538 10.0953 10.3744Z" fill="#EDAE50"/>
<path d="M10.0739 10.3688C9.8657 10.3509 9.8003 10.5693 9.79364 10.583C9.70373 10.4665 9.60888 10.355 9.50566 10.2515C9.29586 10.0407 9.0578 9.86409 8.79926 9.72757C8.78784 9.72162 8.77685 9.71543 8.76562 9.70908C8.77533 9.69694 8.86097 9.67909 8.93239 9.57553C8.99281 9.48791 9.00704 9.4285 9.00826 9.41106C9.0764 9.43829 9.13591 9.48253 9.1977 9.52182C9.30453 9.58917 9.40724 9.66366 9.5052 9.74485C9.5937 9.81883 9.67957 9.89589 9.76134 9.97869C9.81738 10.0353 9.86989 10.0954 9.92285 10.1548C9.98449 10.2239 10.0466 10.2934 10.0954 10.3743" fill="#FCD38C"/>
<path d="M15.4728 11.3686C15.4505 11.3289 15.4165 11.2998 15.3891 11.2643C15.242 11.0735 15.1366 10.8586 15.0624 10.6257C15.0539 10.5989 15.0461 10.5719 15.0375 10.5451C15.034 10.5338 15.0312 10.5208 15.016 10.5212C14.8286 10.3504 14.6023 10.2552 14.3806 10.1509C14.0458 9.99358 13.6962 9.88544 13.3426 9.79013C13.0652 9.71539 12.7842 9.65994 12.5023 9.60867C12.4767 9.60401 12.4492 9.60175 12.4315 9.57629C12.4269 9.55784 12.4269 9.53898 12.4269 9.52016C12.4265 9.29717 12.4266 9.07418 12.4272 8.8512C12.4272 8.82691 12.4202 8.79899 12.4448 8.78102C12.5004 8.79555 12.5578 8.79555 12.6142 8.80389C12.7207 8.81959 12.8279 8.83128 12.9343 8.8484C13.072 8.87034 13.2102 8.88984 13.3469 8.91898C13.4412 8.93922 13.5361 8.95625 13.6302 8.97762C13.7406 9.00267 13.8509 9.02801 13.9599 9.05751C14.1415 9.1066 14.3231 9.15642 14.5002 9.22267C14.5706 9.24901 14.6405 9.27746 14.7119 9.30085C14.7846 9.32465 14.8416 9.37216 14.8958 9.42566C15.0137 9.54201 15.1314 9.65869 15.2452 9.77961C15.3213 9.86055 15.3978 9.94092 15.4704 10.0256C15.5018 10.0623 15.5366 10.0958 15.5693 10.1315C15.6258 10.1932 15.6784 10.2588 15.7364 10.3193C15.7829 10.3678 15.8104 10.429 15.8138 10.499C15.8186 10.5973 15.8156 10.6949 15.7921 10.7917C15.7489 10.9697 15.6692 11.1268 15.5611 11.2688C15.534 11.3041 15.506 11.3389 15.4728 11.3686Z" fill="#EDAE50"/>
<path d="M10.7342 9.29043L10.4723 9.09714C10.4679 9.09438 10.4638 9.09124 10.4599 9.08776C10.4441 9.07157 10.4346 9.07901 10.4246 9.09585C10.4097 9.12086 10.393 9.1447 10.3771 9.16894C10.3392 9.2262 10.3021 9.28407 10.2632 9.34049C10.2343 9.38238 10.1976 9.39529 10.1571 9.38181C10.0965 9.36157 10.0691 9.29217 10.0992 9.23207C10.1086 9.21313 10.1211 9.19589 10.1327 9.17825C10.2659 8.97509 10.3993 8.77197 10.5327 8.56889C10.541 8.55541 10.5503 8.54257 10.5603 8.53045C10.5951 8.49062 10.6478 8.48439 10.6877 8.51426C10.7071 8.5287 10.7209 8.55025 10.7263 8.57478C10.7317 8.59931 10.7284 8.6251 10.717 8.6472C10.7052 8.67088 10.69 8.69269 10.6755 8.71475C10.6341 8.77764 10.5923 8.8402 10.5507 8.90289C10.5341 8.9279 10.5338 8.92843 10.5575 8.94603C10.6468 9.01224 10.7362 9.07826 10.8258 9.14409L10.7342 9.29043Z" fill="#45423E"/>
<path d="M11.814 8.73096C11.8262 8.74014 11.8254 8.75415 11.8254 8.76738C11.8257 9.0037 11.8257 9.23999 11.8254 9.47625C11.8257 9.48431 11.8245 9.49236 11.8216 9.49984C11.8059 9.52008 11.7836 9.51927 11.7624 9.51935C11.684 9.51975 11.6057 9.5153 11.5274 9.51368C11.3087 9.50866 11.0899 9.5117 10.8708 9.51214C10.8556 9.51214 10.8404 9.51304 10.8263 9.52024C10.8179 9.52429 10.8103 9.53011 10.8115 9.54124C10.8127 9.55237 10.8215 9.55581 10.8303 9.55828C10.8364 9.55996 10.8428 9.56073 10.8491 9.56059C10.9565 9.55812 11.0639 9.56285 11.1715 9.55569C11.2748 9.54877 11.3786 9.55087 11.4823 9.55751C11.5718 9.56322 11.6616 9.56561 11.7513 9.56905C11.7741 9.5699 11.797 9.56824 11.8173 9.58268C11.8274 9.63683 11.8433 9.69041 11.8325 9.74679C11.8323 9.75194 11.8309 9.75696 11.8285 9.76144C11.8117 9.78264 11.7857 9.78309 11.764 9.79272C11.7228 9.81093 11.7023 9.84064 11.7036 9.88896C11.7095 10.1096 11.6932 10.3301 11.696 10.5507C11.6964 10.5763 11.6969 10.6018 11.6995 10.6273C11.7053 10.6824 11.691 10.7006 11.6386 10.7062C11.6248 10.7077 11.6109 10.7081 11.5968 10.7085C11.5725 10.7088 11.5482 10.709 11.5239 10.7069C11.4528 10.7188 11.3808 10.7196 11.3091 10.7248C11.1762 10.7343 11.0785 10.6768 11.0093 10.5548C10.9132 10.3856 10.8162 10.217 10.7283 10.0427C10.6888 9.96452 10.6522 9.88487 10.6106 9.80774C10.5438 9.68382 10.5431 9.56269 10.6212 9.44412C10.6552 9.39244 10.68 9.3342 10.7207 9.28738C10.7432 9.231 10.7797 9.18406 10.8125 9.13456C10.8878 9.01647 10.9673 8.90162 11.0529 8.7917C11.079 8.75815 11.1153 8.73747 11.1488 8.71339C11.1932 8.7006 11.3543 8.69721 11.3951 8.69579C11.4415 8.69413 11.488 8.69514 11.5345 8.69579C11.5566 8.69595 11.7714 8.70833 11.814 8.73096Z" fill="#EDAE50"/>
<path d="M14.5439 11.003C14.5296 10.9946 14.5207 10.9828 14.5216 10.9642C14.5245 10.9076 14.4901 10.8797 14.4479 10.8588C14.3917 10.837 13.9639 10.7942 13.5386 10.9514C13.389 11.0029 13.2447 11.0672 13.109 11.1523C13.084 11.168 13.0563 11.1786 13.0329 11.1974C13.0296 11.2001 13.0233 11.1984 13.0184 11.1987C12.9851 11.148 12.963 11.0905 12.9329 11.0378C12.8864 10.9562 12.8371 10.877 12.7743 10.8082C12.7248 10.7542 12.6688 10.7128 12.598 10.6977C12.5785 10.6992 12.5756 10.6841 12.5732 10.6693C12.5711 10.652 12.5704 10.6345 12.571 10.617C12.571 10.4945 12.569 10.3721 12.5715 10.2497C12.5739 10.1339 12.5614 10.0187 12.563 9.90295C12.5635 9.85892 12.5439 9.82906 12.5059 9.81194C12.4907 9.80512 12.476 9.79728 12.4618 9.78846C12.451 9.78166 12.4392 9.77466 12.444 9.75738L12.4454 9.66985C12.458 9.65127 12.4751 9.6539 12.4934 9.65682C12.7039 9.69049 12.913 9.7321 13.1206 9.78167C13.3703 9.84172 13.6185 9.90765 13.8616 9.99357C14.0563 10.0624 14.2491 10.1372 14.4358 10.2287C14.5243 10.2721 14.6146 10.312 14.6954 10.3709C14.7259 10.393 14.7504 10.4224 14.7735 10.4531C14.8286 10.5259 14.8147 10.6105 14.8095 10.6934C14.808 10.7193 14.7964 10.7433 14.7943 10.7694C14.7466 10.8465 14.706 10.9282 14.6728 11.0134C14.666 11.0311 14.6569 11.0377 14.638 11.0309C14.6074 11.0198 14.5754 11.0122 14.5439 11.003Z" fill="#EDAE50"/>
<path d="M14.7947 10.7695C14.7841 10.7478 14.7858 10.7244 14.7897 10.7022C14.798 10.6554 14.7951 10.6083 14.7951 10.5613C14.7951 10.5152 14.7711 10.4794 14.7449 10.4465C14.7119 10.4055 14.6715 10.3719 14.6261 10.3478C14.4136 10.233 14.1936 10.1374 13.9686 10.0544C13.8059 9.99433 13.6418 9.93953 13.475 9.89412C13.2642 9.83674 13.0527 9.7838 12.8385 9.74034C12.7155 9.71541 12.5915 9.69671 12.4684 9.67239C12.461 9.67093 12.4532 9.67065 12.4458 9.6698C12.4458 9.64012 12.4458 9.61052 12.4458 9.58101C12.5214 9.58866 12.5959 9.60464 12.6705 9.61893C12.7676 9.63749 12.8645 9.65721 12.9612 9.6781C13.0628 9.70023 13.1644 9.72172 13.2648 9.75009C13.3418 9.77178 13.4196 9.79024 13.4967 9.81161C13.6854 9.86389 13.8719 9.92396 14.056 9.99182C14.2056 10.0469 14.3503 10.1153 14.4957 10.1813C14.6341 10.2444 14.7683 10.3174 14.8975 10.3998C14.9353 10.4239 14.9701 10.4535 15.0059 10.4812C15.0186 10.4911 15.0299 10.5029 15.0162 10.5212C14.968 10.5667 14.9182 10.6102 14.8754 10.6621C14.8469 10.6966 14.8217 10.7337 14.7947 10.7695Z" fill="#FCD38C"/>
<path d="M11.814 9.50024L11.8142 9.58899C11.5609 9.56685 11.0886 9.56685 10.8502 9.58114C10.8321 9.5802 10.8141 9.57822 10.7962 9.57519C10.7829 9.57199 10.7624 9.55374 10.7627 9.54233C10.7633 9.52136 10.7746 9.51125 10.7893 9.50348C10.8077 9.49368 10.8323 9.49186 10.8529 9.49186C11.081 9.49186 11.3091 9.48822 11.5371 9.49405C11.6293 9.49639 11.7217 9.49785 11.814 9.50024Z" fill="#FCD38C"/>
<path d="M15.7235 10.5767C15.7248 10.6638 15.7083 10.7439 15.6849 10.8225C15.6436 10.9618 15.5761 11.086 15.4904 11.1994C15.473 11.2224 15.4721 11.2225 15.4539 11.1997C15.3705 11.0954 15.3038 10.9798 15.2466 10.8575C15.2036 10.7656 15.1684 10.6705 15.1369 10.5737C15.1271 10.5437 15.1283 10.5383 15.1565 10.5229C15.2552 10.469 15.3587 10.4307 15.4691 10.414C15.5194 10.4063 15.5701 10.4064 15.6204 10.3999C15.6255 10.3994 15.6305 10.3993 15.6356 10.3996C15.6834 10.4005 15.6909 10.407 15.7089 10.4533C15.7248 10.4946 15.7245 10.5374 15.7235 10.5767Z" fill="#FEFEFE"/>
<path d="M12.4403 8.80111C12.4403 9.05837 12.4431 9.62264 12.449 9.78092C12.4349 9.80002 12.4166 9.79306 12.4 9.78804C12.2217 9.73264 12.0421 9.74085 11.862 9.7759C11.8467 9.77882 11.832 9.78282 11.8191 9.76959L11.8182 9.77088C11.8099 9.75874 11.8182 8.50159 11.8171 8.42109C11.8166 8.38653 11.8221 8.35521 11.8382 8.32486C11.8581 8.28754 11.8754 8.24873 11.8939 8.21053C11.8964 8.20775 11.8999 8.20603 11.9035 8.20567C12.1112 8.30001 12.2827 8.40948 12.4391 8.57957C12.4368 8.64105 12.4391 8.72332 12.4403 8.80111Z" fill="#414141"/>
<path d="M11.9041 8.1909H11.901L11.8979 8.1903C11.9129 8.15222 11.9138 8.11231 11.9137 8.07176C11.9132 7.95068 11.9151 7.82955 11.914 7.7085C11.9136 7.66435 11.9261 7.62858 11.952 7.59406C12.0799 7.4237 12.2188 7.26307 12.3677 7.11336C12.4624 7.01817 12.5629 6.92974 12.6733 6.85512C12.6943 6.86046 12.6853 6.87499 12.6806 6.88616C12.6128 7.04496 12.6224 7.2115 12.6437 7.37677C12.653 7.44962 12.672 7.52469 12.729 7.57819C12.733 7.58157 12.7358 7.58643 12.7366 7.59183C12.7375 7.59723 12.7364 7.60277 12.7336 7.60737C12.605 7.67095 12.5041 7.7697 12.4188 7.88823C12.4062 7.90571 12.3969 7.92421 12.4 7.94728C12.3943 8.09155 12.3956 8.23571 12.4003 8.4731C12.4001 8.47565 12.3998 8.4782 12.3993 8.48071C12.3803 8.49443 12.3679 8.47893 12.3562 8.46833C12.3054 8.42235 12.256 8.37464 12.2013 8.33364C12.1414 8.28876 12.08 8.24687 12.0137 8.21353C11.9788 8.19604 11.9432 8.18423 11.9041 8.1909Z" fill="#A19D98"/>
<path d="M12.7565 6.83736C12.7822 6.85099 12.7953 6.87378 12.8018 6.90304C12.8183 6.97744 12.8293 7.05313 12.8345 7.12939C12.8434 7.25978 12.8256 7.38597 12.795 7.51114C12.7886 7.5372 12.7813 7.5629 12.765 7.58443C12.7488 7.58734 12.7438 7.57488 12.7373 7.56294C12.6617 7.42486 12.648 7.27419 12.6574 7.11899C12.6586 7.0977 12.6618 7.07641 12.6632 7.05496C12.6674 6.97252 12.7008 6.89482 12.7565 6.83736Z" fill="#A19D98"/>
<path d="M12.523 9.79652C12.5624 9.81494 12.5818 9.84197 12.5834 9.89215C12.5914 10.1451 12.5892 10.398 12.5898 10.6509C12.5898 10.6671 12.5914 10.7345 12.5913 10.7533C12.5907 10.8582 12.589 10.9632 12.5904 11.0681C12.5909 11.105 12.5765 11.1261 12.5465 11.1394C12.296 11.2122 11.9707 11.2086 11.7425 11.1313C11.6911 11.1147 11.6774 11.0943 11.677 11.0378C11.6765 10.9638 11.677 10.8898 11.677 10.8158C11.677 10.7849 11.6775 10.7539 11.677 10.723C11.6765 10.692 11.6846 10.2124 11.6846 10.1976C11.6846 10.0845 11.6854 9.97147 11.6843 9.85844C11.684 9.82291 11.6963 9.80154 11.7275 9.78669C12.0898 9.66496 12.28 9.70037 12.523 9.79652Z" fill="#A19D98"/>
<path d="M11.7521 10.4625V9.91694C11.7521 9.90751 11.7518 9.89808 11.7521 9.88861C11.7529 9.85113 11.7559 9.84611 11.7898 9.83296C11.9172 9.78096 12.2897 9.73179 12.4885 9.87133C12.5199 9.88889 12.5249 9.90682 12.5263 9.94927C12.5314 10.0448 12.5225 10.7546 12.5228 11.028C12.5228 11.0335 12.5228 11.0388 12.5228 11.0442C12.5219 11.0832 12.5194 11.0851 12.4822 11.0933C12.2503 11.1445 12.0197 11.1378 11.79 11.0771C11.756 11.0681 11.7542 11.0673 11.7542 11.0281C11.7539 10.9028 11.7539 10.7775 11.7542 10.6522C11.7542 10.5889 11.7542 10.5256 11.7542 10.4623L11.7521 10.4625Z" fill="#45423D"/>
<path d="M11.8958 8.19861C11.9003 8.164 11.9202 8.1604 11.9584 8.16995C12.0044 8.18451 12.0484 8.20542 12.0893 8.23216C12.1804 8.28995 12.2675 8.35356 12.3441 8.43248C12.3611 8.45013 12.381 8.46486 12.3995 8.48076C12.4021 8.49239 12.408 8.50288 12.4164 8.51083C12.4406 8.53394 12.4439 8.56065 12.4389 8.59436C12.3988 8.58829 12.3762 8.56279 12.3508 8.53293C12.2817 8.45199 12.201 8.38647 12.1153 8.32681C12.0626 8.29007 11.9819 8.24992 11.9233 8.22507C11.9032 8.21657 11.8935 8.2171 11.8958 8.19861Z" fill="#DCF9FB"/>
<path d="M12.7565 6.83737C12.77 6.84522 12.7787 6.84882 12.7438 6.8816C12.6998 6.92361 12.6706 7.02952 12.6736 7.20321C12.6765 7.31835 12.6779 7.42086 12.7649 7.58444C12.7576 7.59658 12.7479 7.60552 12.7338 7.60735C12.5864 7.4532 12.6006 6.97885 12.6734 6.85509C12.7036 6.82187 12.7213 6.8181 12.7565 6.83737Z" fill="#DCF9FB"/>
</g>
<defs>
<clipPath id="clip0_1002_137830">
<rect width="11.4" height="9.975" fill="white" transform="translate(4.7998 5.40002)"/>
</clipPath>
</defs>
</svg>
