<svg width="310" height="75" viewBox="0 0 310 75" fill="none" xmlns="http://www.w3.org/2000/svg">
<path d="M148.467 48.027C139.897 48.027 118.442 32.5541 106.897 32.5541C95.3506 32.5541 80.8214 48.027 65.4796 48.027C50.1378 48.027 30.051 19.1721 19.7704 19.1721C12.3233 19.1721 5.29112 26.1941 1.9805 30.0648C0.633356 31.6399 0 33.6674 0 35.74V65C0 70.5228 4.47716 75 10 75H300C305.523 75 310 70.5228 310 65V22.4811C310 16.9583 305.51 11.9731 300.427 9.81327C291.798 6.14702 281.423 0 275.556 0C267.194 0 253.852 43.8451 242.781 43.8451C231.709 43.8451 217.702 12.5937 204.86 20.8449C192.017 29.096 157.038 48.027 148.467 48.027Z" fill="url(#paint0_linear_772_99983)"/>
<defs>
<linearGradient id="paint0_linear_772_99983" x1="155" y1="1.79807" x2="155" y2="75" gradientUnits="userSpaceOnUse">
<stop stop-color="white"/>
<stop offset="1" stop-color="white" stop-opacity="0"/>
</linearGradient>
</defs>
</svg>
