<svg width="37" height="34" viewBox="0 0 37 34" fill="none" xmlns="http://www.w3.org/2000/svg">
<g clip-path="url(#clip0_772_99436)">
<path d="M34.0154 22.0687C34.1369 22.1709 34.2168 22.2592 34.3364 22.364C34.4089 22.4275 34.4094 22.4275 34.4806 22.3582C34.53 22.31 34.578 22.2593 34.6287 22.212C34.8332 22.0189 35.1084 22.0283 35.2988 22.2385C35.3746 22.3228 35.4461 22.4118 35.5128 22.5051C35.6774 22.7341 35.661 23.0335 35.4751 23.2419C35.4229 23.3004 35.3676 23.3557 35.3112 23.4091C35.2642 23.4534 35.2626 23.4965 35.296 23.5521C35.3646 23.6666 35.4312 23.7826 35.4958 23.9C35.5776 24.0487 35.6505 24.2035 35.7197 24.3598C35.7854 24.5086 35.7854 24.5076 35.9219 24.4596C35.988 24.4342 36.0553 24.4131 36.1235 24.3963C36.3457 24.3486 36.5564 24.4686 36.6513 24.6998C36.7088 24.8424 36.7518 24.9917 36.7794 25.1449C36.8203 25.3634 36.7008 25.6058 36.5097 25.7134C36.4356 25.7548 36.3544 25.7728 36.2771 25.8037C36.1835 25.8413 36.1753 25.8487 36.1906 25.9508C36.24 26.2726 36.2749 26.5959 36.2771 26.9229C36.2777 26.9942 36.3018 27.0349 36.3687 27.0411C36.426 27.0463 36.4828 27.0582 36.54 27.0648C36.7675 27.0912 36.9222 27.2177 36.9896 27.467C36.9954 27.4887 37.0104 27.9384 36.9905 28.0602C36.9468 28.3293 36.7591 28.5211 36.5122 28.532C36.4589 28.5347 36.4056 28.5309 36.353 28.5207C36.2557 28.5009 36.1913 28.5466 36.1678 28.6514C36.1099 28.9094 36.032 29.1599 35.9484 29.4084C35.9237 29.4803 35.9379 29.5434 35.9915 29.5938C36.0195 29.6203 36.1273 29.75 36.1447 29.7932C36.1847 29.8922 36.0117 29.738 35.9718 29.7123C35.8802 29.6536 34.7592 28.9623 34.3418 28.7143C34.3716 28.468 34.4794 28.1528 34.5229 27.9097C34.7442 26.6718 34.5153 25.5426 33.8747 24.5116C33.3419 23.6542 32.6123 23.1057 31.7164 22.8337C30.9278 22.5941 30.1462 22.6428 29.3793 22.9555C28.745 23.2143 28.0503 23.6385 27.6692 24.3064C27.6255 24.3607 27.6049 24.3545 27.5359 24.3202C27.2974 24.1873 26.3627 23.5077 25.9828 23.2608C25.8143 23.0719 25.7029 22.7631 25.8294 22.5351C25.9196 22.3724 26.0409 22.2406 26.1711 22.1221C26.354 21.9557 26.6191 21.9604 26.8132 22.1168C27.0541 22.3108 27.0539 22.31 27.288 22.1015C27.4102 21.9925 27.5404 21.896 27.6688 21.7965C27.7882 21.704 27.7971 21.6667 27.741 21.5216C27.5884 21.126 27.6863 20.8253 28.0305 20.6297C28.1214 20.5757 28.2165 20.5307 28.3145 20.4953C28.5771 20.4059 28.8193 20.5106 28.9621 20.772C29.111 21.0446 29.1102 21.0442 29.3906 20.9722C29.5388 20.934 29.689 20.9069 29.8386 20.8765C29.9881 20.846 30.0109 20.8196 30.0194 20.6544C30.0228 20.5718 30.034 20.4898 30.0528 20.4098C30.0924 20.2501 30.164 20.1099 30.3122 20.047C30.5948 19.9267 30.8802 19.9037 31.1576 20.0618C31.3212 20.155 31.3975 20.3153 31.3996 20.5231C31.4027 20.8344 31.4047 20.837 31.677 20.8863C31.8559 20.9187 32.0313 20.9669 32.2072 21.0133C32.3407 21.0485 32.3752 21.0347 32.4273 20.8909C32.5589 20.5273 32.8863 20.3418 33.2725 20.5535C33.382 20.6137 33.4968 20.6575 33.5925 20.7544C33.7856 20.9497 33.7991 21.2381 33.7197 21.4485C33.7085 21.4782 33.695 21.5064 33.6841 21.5362C33.6312 21.6823 33.6255 21.7678 33.6255 21.7678C33.6255 21.7678 33.8957 21.9679 34.0154 22.0687Z" fill="#5F5F5F"/>
<path d="M34.2793 28.5947C34.3915 28.7148 35.8913 29.6308 36.0205 29.7173C36.059 29.7228 36.0886 29.7513 36.1233 29.767L36.1215 29.7656C36.1483 29.7926 36.1738 29.821 36.198 29.8509L36.1967 29.8489C36.3155 30.0346 36.3147 30.2325 36.2461 30.4375C36.2025 30.5464 36.15 30.6507 36.0894 30.7489C35.9482 30.9863 35.6877 31.0608 35.4586 30.9319C35.3889 30.8927 35.3214 30.8491 35.2552 30.8022C35.2072 30.7687 35.1741 30.7777 35.1404 30.8275C34.9568 31.0985 34.7528 31.3515 34.5306 31.5837C34.4857 31.6303 34.4804 31.6711 34.5182 31.7252C34.5616 31.7863 34.6019 31.8502 34.6408 31.9149C34.7992 32.177 34.7566 32.4794 34.5327 32.6736C34.4547 32.741 34.3752 32.8066 34.2926 32.8667C34.0703 33.0278 33.8098 32.9824 33.6405 32.7544C33.5936 32.6904 33.5498 32.6238 33.5091 32.5548C33.473 32.4944 33.4368 32.4806 33.3764 32.5191C33.1223 32.6806 32.854 32.8081 32.5799 32.9209C32.4803 32.9623 32.4811 32.9638 32.5006 33.0801C32.5076 33.1207 32.513 33.1616 32.52 33.202C32.5838 33.543 32.511 33.7277 32.2439 33.9026C32.1749 33.9454 32.0957 33.9388 32.0216 33.9606C31.8927 33.9951 31.7623 33.9923 31.6309 33.985H31.6303C31.5873 33.9613 31.5451 33.9358 31.503 33.91C31.3766 33.7923 31.3202 33.6374 31.2875 33.4597C31.243 33.2191 31.2701 33.2582 31.0716 33.2685C30.8087 33.2823 30.5453 33.2811 30.2825 33.2648C30.1805 33.2585 30.1803 33.258 30.1568 33.3636C30.1459 33.4127 30.1336 33.4615 30.1269 33.5114C30.0843 33.8265 29.857 34.0632 29.4947 33.9861C29.406 33.9671 29.3182 33.9415 29.2315 33.913C28.9838 33.8317 28.8405 33.565 28.8902 33.2815C28.9025 33.2095 28.9176 33.1379 28.9302 33.0657C28.9472 32.9677 28.9461 32.9626 28.858 32.9256C28.6885 32.8546 28.5198 32.7819 28.3568 32.6941C28.2605 32.6423 28.1653 32.5881 28.0703 32.5333C27.9715 32.4766 27.9722 32.4758 27.9031 32.5791C27.8661 32.6343 27.8315 32.6914 27.7931 32.7446C27.6242 32.9811 27.3577 33.0307 27.1326 32.8653C27.0467 32.8023 26.9631 32.7348 26.8826 32.6636C26.6771 32.4816 26.6329 32.1826 26.7741 31.9357C26.8161 31.8623 26.8627 31.7921 26.9099 31.7227C26.9426 31.6746 26.9447 31.6361 26.9026 31.5918C26.6775 31.3563 26.4709 31.0996 26.2852 30.8245C26.25 30.772 26.2153 30.7723 26.1696 30.8043C26.1139 30.8434 26.0562 30.8791 25.9984 30.9147C25.7391 31.0723 25.4689 30.9945 25.3166 30.7111C25.2622 30.6095 25.1955 30.5164 25.1581 30.4025C25.0652 30.1204 25.1435 29.859 25.3754 29.7017C25.4248 29.6684 25.4752 29.6375 25.5236 29.6039C25.6092 29.5455 25.6114 29.5438 25.5736 29.4416C25.4952 29.2294 25.4277 29.0123 25.3716 28.7915C25.3469 28.6949 25.3234 28.5967 25.3029 28.4985C25.2881 28.4267 25.2545 28.399 25.1885 28.4145C25.1359 28.4252 25.0828 28.4331 25.0295 28.4379C24.7159 28.4749 24.4833 28.2651 24.4506 27.9157C24.4416 27.8191 24.432 27.7238 24.4259 27.6276C24.4175 27.4885 24.4572 27.3511 24.5369 27.2437C24.6166 27.1364 24.7301 27.0673 24.8541 27.0508C24.9233 27.0412 24.9931 27.0352 25.062 27.0232C25.1519 27.0066 25.1549 27.0045 25.1562 26.8997C25.1603 26.6702 25.176 26.4411 25.2032 26.2136C25.2145 26.1136 25.2445 26.0163 25.238 25.9138C25.2312 25.8438 25.2045 25.8003 25.1541 25.7784C25.1196 25.7672 25.1114 25.7624 25.0599 25.748C24.9584 25.7204 24.8663 25.6713 24.7928 25.5883" fill="#414141"/>
<path d="M25.2426 25.9761C25.2542 25.9059 25.2271 25.8003 25.1625 25.7801C25.1071 25.7627 25.0184 25.7256 24.9634 25.7071C24.7444 25.6334 24.6071 25.4404 24.583 25.1812C24.5552 25.0708 24.6423 24.7138 24.6818 24.5981C24.7702 24.343 24.9869 24.1943 25.2312 24.2356C25.284 24.2442 25.3357 24.2592 25.3856 24.2803C25.4778 24.3203 25.5488 24.2888 25.5896 24.1909C25.6901 23.9498 25.8405 23.7109 25.9372 23.4682C26.0308 23.2337 25.9645 23.2532 25.9972 23.2613C26.0772 23.3383 27.2451 23.9725 27.6132 24.3041C27.3734 24.5938 26.8406 25.9056 26.8184 26.3444" fill="#414141"/>
<path d="M27.6272 24.2834C28.3727 23.3833 28.9062 22.997 29.6421 22.7634C30.0899 22.6202 30.5571 22.5681 31.0214 22.6098C31.8028 22.68 32.5084 22.9847 33.1296 23.5234C33.6776 23.9986 34.0766 24.6006 34.3487 25.3104C34.5153 25.7446 34.6032 26.1985 34.6444 26.669C34.7033 27.3426 34.5741 28.0952 34.3671 28.7231C34.3253 28.7645 33.5628 28.1815 33.4812 28.068C33.4626 28.0068 33.4857 27.9506 33.4996 27.8938C33.5746 27.587 33.6231 27.2754 33.6145 26.9566C33.5735 25.4245 32.6389 24.1608 31.3465 23.8521C30.3926 23.6242 29.3812 23.8541 28.4555 24.9051C28.4321 24.9197 28.4248 24.8882 28.2676 24.7672C28.0037 24.5879 27.8738 24.4754 27.6935 24.3534C27.5902 24.286 27.5953 24.3223 27.6272 24.2834Z" fill="#414141"/>
<path d="M34.382 28.6788C34.3572 28.723 34.3347 28.7688 34.3148 28.8159C34.0875 29.428 33.7233 29.9304 33.2799 30.3559C32.6995 30.9131 32.0262 31.2605 31.2619 31.3721C31.0747 31.3997 30.887 31.4297 30.6977 31.423C30.1505 31.4036 29.6216 31.291 29.1163 31.0452C28.7958 30.8883 28.4957 30.6837 28.2243 30.4369C27.8019 30.0552 27.4587 29.5966 27.2067 29.0531C26.9751 28.5523 26.8419 28.0228 26.7853 27.4647C26.7359 26.9844 26.7747 26.5129 26.8647 26.0426C26.9677 25.5062 27.1599 25.0118 27.4281 24.5537C27.4662 24.4886 27.5773 24.3407 27.6133 24.3036C27.8082 24.4167 28.3402 24.809 28.4255 24.8943C28.4792 24.9728 28.3799 25.0761 28.3492 25.1264C28.1857 25.3934 28.051 25.6752 27.9644 25.9848C27.6626 27.0637 27.8009 28.0678 28.409 28.9704C28.9163 29.7236 29.6062 30.1365 30.4497 30.2311C31.6515 30.3659 32.8849 29.6037 33.3925 28.2585C33.4205 28.1843 33.4135 28.0671 33.5276 28.0613C33.6009 28.1554 34.2958 28.626 34.382 28.6788Z" fill="#5F5F5F"/>
<path d="M33.5274 28.0614C33.4317 28.3355 33.3248 28.6027 33.1747 28.8466C32.6995 29.6191 32.051 30.0984 31.2252 30.2635C30.3888 30.4307 29.6232 30.2222 28.9425 29.6602C28.3437 29.1657 27.9617 28.5004 27.8142 27.6857C27.6399 26.7227 27.8229 25.8366 28.3334 25.0357C28.3525 25.0057 28.3705 24.9755 28.3896 24.9455C28.4089 24.9198 28.6627 24.6069 28.7862 24.4914C29.3333 23.9793 29.9593 23.7168 30.6749 23.7016C32.0155 23.6732 33.2249 24.687 33.5736 26.1599C33.7131 26.7495 33.7094 27.3404 33.5577 27.9283C33.5463 27.9719 33.5374 28.017 33.5274 28.0614Z" fill="#EDAE50"/>
<path d="M31.5066 27.0094C31.5292 27.5135 31.1149 27.9038 30.7218 27.8985C30.2733 27.8926 29.9051 27.4996 29.9092 27.001C29.913 26.5136 30.2541 26.1105 30.7273 26.1092C31.1217 26.1079 31.5284 26.502 31.5066 27.0094Z" fill="#414141"/>
<path d="M31.5516 25.3339C31.6428 25.3235 31.7187 25.3596 31.7818 25.4351C31.8376 25.502 31.8977 25.5649 31.9522 25.6332C32.0789 25.7914 32.0016 26.081 31.8376 26.138C31.7661 26.1628 31.7004 26.1644 31.6375 26.1182C31.5025 26.0192 31.3874 25.8939 31.2853 25.7565C31.1767 25.6106 31.2319 25.4237 31.3932 25.3604C31.4439 25.3396 31.4978 25.3306 31.5516 25.3339V25.3339Z" fill="#FCD38C"/>
<path d="M10.0306 33.9338C9.80832 33.8032 9.67643 33.6001 9.63679 33.3214C9.62321 33.2263 9.59975 33.1333 9.58233 33.0387C9.56999 32.9725 9.5401 32.9504 9.47823 32.9559C9.08489 32.993 8.68965 32.9976 8.2957 32.9697C8.24235 32.9662 8.18888 32.9628 8.13591 32.9559C8.0854 32.9496 8.05909 32.9729 8.04872 33.0273C8.02995 33.126 8.00476 33.2234 7.99019 33.323C7.94511 33.6302 7.79446 33.8414 7.53797 33.9603C7.37385 34.0101 7.20986 33.9927 7.04587 33.9588C6.89397 33.9272 6.73801 33.9124 6.60032 33.8233C6.54746 33.7799 6.49066 33.7424 6.44484 33.6884C6.28122 33.4953 6.21355 33.2699 6.25578 33.0068C6.27171 32.9075 6.29283 32.8095 6.31073 32.7104C6.34099 32.5413 6.34074 32.5403 6.19959 32.4846C5.87819 32.357 5.56467 32.2059 5.26107 32.0322C5.18797 31.9908 5.11388 31.9494 5.04398 31.9021C4.99063 31.8654 4.95519 31.8731 4.92049 31.9297C4.86727 32.0167 4.80824 32.0993 4.75539 32.1869C4.53027 32.5603 4.08854 32.6697 3.74129 32.3705C3.65028 32.292 3.55421 32.2209 3.46295 32.1429C3.14076 31.8679 3.08198 31.4296 3.31674 31.0581C3.37823 30.9606 3.44109 30.864 3.5053 30.7685C3.53581 30.7235 3.53531 30.6867 3.49666 30.6497C3.47789 30.6319 3.4611 30.6116 3.44319 30.5926C3.14237 30.2731 2.86453 29.9277 2.61223 29.5595C2.54061 29.455 2.53999 29.4554 2.43478 29.523C2.36352 29.5688 2.29264 29.615 2.22139 29.6609C1.84672 29.9001 1.47452 29.795 1.24298 29.385C1.21125 29.3326 1.19927 29.3136 1.16605 29.2505C1.12517 29.162 1.07578 29.0789 1.03873 28.9874C0.880788 28.5966 0.990817 28.1967 1.3214 27.976C1.39895 27.9241 1.47774 27.8744 1.55603 27.823C1.66025 27.754 1.66136 27.7532 1.61654 27.6333C1.47246 27.2477 1.3536 26.851 1.26089 26.4462C1.24558 26.3796 1.22878 26.3132 1.21643 26.2459C1.20408 26.1786 1.16901 26.1566 1.11011 26.1651C1.00008 26.1806 0.889926 26.1986 0.77928 26.2056C0.495255 26.224 0.276061 26.0977 0.127751 25.8256C0.0660059 25.7136 0.0427903 25.5881 0.0324172 25.4584C0.0247608 25.3618 0.00771894 25.2751 0.00191495 25.1715C-0.022042 24.7801 0.178505 24.2886 0.619361 24.2533C0.713583 24.2459 0.807312 24.23 0.901287 24.2184C1.00996 24.2046 1.01379 24.2037 1.01626 24.0882C1.02332 23.7485 1.04806 23.4096 1.09035 23.0731C1.10764 22.9368 1.1274 22.8008 1.14888 22.6653C1.16951 22.5359 1.16963 22.5332 1.05417 22.491C0.967725 22.4595 0.881282 22.4299 0.796198 22.3976C0.426471 22.2583 0.235557 21.865 0.339288 21.4465C0.377569 21.2918 0.424619 21.1396 0.475126 20.9892C0.604666 20.6017 0.959327 20.4063 1.31485 20.5235C1.4213 20.5585 1.528 20.5936 1.63148 20.6377C1.69767 20.6653 1.72706 20.6423 1.75497 20.577C1.82054 20.4238 1.89179 20.2736 1.96082 20.1225C1.98552 20.0704 2.00825 20.0287 2.0306 19.9808C2.10469 19.8291 2.18335 19.6794 2.27758 19.5412C2.36241 19.4585 16.637 28.8353 16.5968 28.9435C16.5694 28.9987 16.5474 29.052 16.5211 29.1053C16.4707 29.2052 16.4231 29.3068 16.3695 29.4045C16.1659 29.7746 15.7952 29.8873 15.4492 29.6855C15.3583 29.6324 15.271 29.5714 15.1817 29.5146C15.0888 29.4555 15.0877 29.455 15.0246 29.546C14.8838 29.7493 14.7364 29.9466 14.5825 30.1378C14.4448 30.3086 14.2993 30.4704 14.1511 30.6294C14.0829 30.7025 14.083 30.7047 14.1355 30.7879C14.1947 30.8817 14.2571 30.9728 14.3158 31.067C14.5433 31.4325 14.4823 31.8723 14.1663 32.1413C14.065 32.2276 13.9621 32.3114 13.8575 32.3926C13.5292 32.6468 13.1391 32.5773 12.8963 32.2217C12.8345 32.1305 12.7759 32.0357 12.7141 31.944C12.6583 31.8612 12.6562 31.86 12.5745 31.9097C12.2392 32.1147 11.8912 32.2926 11.5331 32.442C11.483 32.4627 11.4324 32.4821 11.3826 32.5034C11.2923 32.5418 11.2906 32.5432 11.3085 32.6551C11.3244 32.7544 11.3377 32.8551 11.3633 32.9515C11.4586 33.3121 11.2596 33.7476 10.8176 33.9008C10.6266 33.9672 10.2127 34.0153 10.0306 33.9338Z" fill="#414141"/>
<path d="M16.5698 28.9704C16.2699 28.776 13.6016 26.9396 13.4147 26.8244C13.3133 26.7671 13.3463 26.7603 13.4078 26.6313C13.6261 26.1105 13.7729 25.5559 13.8435 24.9863C13.8944 24.5714 13.8916 24.1547 13.861 23.7368C13.8323 23.3431 13.7661 22.9539 13.6634 22.5759C13.5327 22.0942 13.3435 21.6434 13.1098 21.2126C12.8491 20.7322 12.5171 20.3219 12.1502 19.9436C11.8681 19.6526 11.5493 19.4165 11.2127 19.2112C10.7069 18.9008 10.1565 18.6914 9.58631 18.5923C9.22819 18.5302 8.86674 18.4996 8.50529 18.5261C7.73607 18.5826 7.00786 18.8086 6.33052 19.2245C5.7962 19.561 5.31797 19.9982 4.91693 20.5167C4.81469 20.649 4.66909 20.9123 4.56894 21.0459C4.51139 21.1226 3.55386 20.4287 2.25129 19.5679C2.29933 19.4735 2.34564 19.3962 2.39701 19.3137C2.42899 19.2621 2.4264 19.2231 2.38466 19.1823C2.30476 19.1031 2.22511 19.0235 2.1467 18.9424C1.89725 18.6839 1.83896 18.3411 1.99518 18.0044C2.03087 17.9273 2.09533 17.746 2.19362 17.6143C2.24117 17.5505 2.29353 17.4925 2.3449 17.433C2.59632 17.1425 3.08509 17.1377 3.34751 17.4054C3.66512 17.729 3.62338 17.6537 3.89086 17.4246C4.11944 17.2291 4.35074 17.0384 4.59253 16.8632C4.72269 16.769 4.73108 16.7234 4.66526 16.5656C4.59191 16.3896 4.52584 16.2126 4.54004 16.0115C4.55758 15.7632 4.64785 15.5508 4.8295 15.4128C5.08883 15.2161 5.36421 15.0542 5.69504 15.0643C5.96832 15.0728 6.15973 15.2246 6.29853 15.4731C6.34793 15.5625 6.38633 15.6602 6.42634 15.7559C6.46339 15.8456 6.52341 15.8748 6.6075 15.8501C6.96179 15.7465 7.32065 15.668 7.68186 15.6028C7.81313 15.5791 7.83956 15.536 7.84462 15.3904C7.84704 15.3398 7.84704 15.2892 7.84462 15.2386C7.81659 14.7757 8.13766 14.3871 8.51714 14.3602C8.72633 14.3453 8.93589 14.3277 9.1436 14.374C9.44899 14.443 9.74957 14.7554 9.71931 15.1844C9.71511 15.2437 9.7182 15.3037 9.71931 15.3637C9.72203 15.54 9.75167 15.5832 9.90763 15.6082C10.2456 15.661 10.5803 15.7373 10.9097 15.8366C11.0841 15.8899 11.1112 15.8705 11.1838 15.6885C11.2407 15.5458 11.2978 15.4029 11.3983 15.2884C11.6015 15.0578 11.8546 15.0205 12.1181 15.0856C12.3268 15.1372 12.5229 15.243 12.7026 15.3738C12.9954 15.5871 13.1021 15.9701 12.9829 16.3427C12.9582 16.4204 12.9283 16.4962 12.8972 16.5713C12.8354 16.7185 12.8459 16.7723 12.9687 16.859C13.2265 17.0395 13.4748 17.2365 13.7123 17.449C13.9725 17.6835 13.9261 17.7191 14.2132 17.4289C14.4646 17.1746 14.8529 17.1443 15.0822 17.3185C15.3146 17.4947 15.5168 17.7168 15.651 17.9944C15.7704 18.2419 15.7544 18.6968 15.5165 18.9254C15.4451 18.9944 15.3819 19.0736 15.3156 19.149C15.2582 19.2145 15.2504 19.2861 15.2958 19.3609C15.5084 19.7105 15.6987 20.0765 15.8653 20.456C15.9061 20.5491 15.9764 20.5729 16.0628 20.5424C16.1646 20.5057 16.2684 20.4767 16.3737 20.4555C16.655 20.4003 16.9648 20.5382 17.1093 20.8141C17.2496 21.0813 17.3358 21.3746 17.3445 21.6883C17.354 22.0331 17.2003 22.2717 16.937 22.4305C16.8496 22.482 16.7574 22.5228 16.6621 22.5522C16.5615 22.5842 16.5184 22.6526 16.5386 22.7674C16.6096 23.1786 16.6332 23.595 16.6566 24.012C16.6627 24.1224 16.7105 24.1834 16.8098 24.1865C16.8839 24.189 16.9569 24.2045 17.0301 24.2152C17.4076 24.2704 17.6658 24.5984 17.6672 25.0251C17.6678 25.1077 17.6643 25.1902 17.6567 25.2724C17.6444 25.4021 17.6029 25.5879 17.5703 25.7091C17.4757 26.0624 17.1566 26.2558 16.8275 26.2325C16.7209 26.225 16.615 26.2059 16.5085 26.1941C16.4107 26.1834 16.4058 26.1848 16.3814 26.2932C16.3083 26.6184 16.2287 26.9415 16.1241 27.2563C16.0754 27.4027 16.0253 27.5485 15.9702 27.6919C15.9455 27.7555 15.9559 27.7945 16.0087 27.8278C16.1126 27.8933 16.2173 27.9576 16.3175 28.03C16.5847 28.2231 16.6951 28.5745 16.5978 28.9098C16.5899 28.9308 16.5805 28.951 16.5698 28.9704V28.9704Z" fill="#666059"/>
<path d="M5.6855 21.7204C5.80899 21.5549 5.92618 21.383 6.0614 21.2278C6.69923 20.4957 7.46993 20.0659 8.37992 19.9516C9.1847 19.8503 9.94824 20.0067 10.6535 20.4499C11.7392 21.1323 12.3868 22.1726 12.591 23.5434C12.7097 24.3399 12.6198 25.1174 12.3366 25.8638C12.3207 25.906 12.3094 25.9503 12.2959 25.9936C12.3266 26.0654 12.2968 26.1271 12.2698 26.1895C12.1325 26.5067 11.9519 26.7913 11.7428 27.0517C11.1415 27.8008 10.4056 28.2972 9.51257 28.469C8.32707 28.6968 7.25752 28.3905 6.32765 27.5343C5.5735 26.8397 5.11906 25.9405 4.97272 24.8623C4.85887 24.0231 4.95358 23.2055 5.2649 22.4245C5.34035 22.2351 5.43198 22.0561 5.52423 21.8767C5.56189 21.8019 5.61104 21.7461 5.6855 21.7204Z" fill="#EDAE50"/>
<path d="M6.374 24.1932C6.35363 22.6466 7.53801 21.4681 8.79439 21.4609C10.0266 21.4538 11.2563 22.5498 11.2584 24.207C11.2605 25.7454 10.1426 26.9146 8.83798 26.9296C7.41662 26.946 6.34795 25.636 6.374 24.1932Z" fill="#45423D"/>
<path d="M11.2146 21.6702C11.235 21.8983 10.9792 22.0772 10.8013 21.9454C10.6807 21.856 10.5667 21.7649 10.4711 21.6457C10.3334 21.4744 10.3648 21.2968 10.5472 21.1847C10.6823 21.102 10.8082 21.096 10.933 21.2148C11.0208 21.2983 11.1059 21.3826 11.1688 21.4914C11.2008 21.544 11.2168 21.6066 11.2146 21.6702Z" fill="#FCD38C"/>
<path d="M6.86557 24.2119C6.83531 23.0945 7.64589 22.0048 8.82238 22.0096C9.92144 22.0146 10.7793 22.9991 10.7683 24.2305C10.7576 25.4444 9.85648 26.3962 8.78558 26.3814C7.67516 26.3661 6.83556 25.3223 6.86557 24.2119Z" fill="#EDAE50"/>
<path d="M8.81023 25.0875C8.37246 25.0875 8.00755 24.6808 8.01076 24.1908C8.0136 23.708 8.3485 23.304 8.81529 23.2986C9.24108 23.2938 9.61291 23.6869 9.61056 24.1984C9.60834 24.6968 9.25763 25.088 8.81023 25.0875Z" fill="#414141"/>
<path d="M9.73415 22.7146C9.78009 22.7146 9.82504 22.7202 9.86406 22.7491C10.0339 22.8749 10.1248 23.0498 10.1187 23.2797C10.1155 23.3979 9.96372 23.5222 9.86024 23.496C9.68525 23.4516 9.54262 23.3548 9.44518 23.1807C9.36096 23.03 9.37763 22.904 9.50384 22.7975C9.57213 22.7404 9.65018 22.7171 9.73415 22.7146Z" fill="#FCD38C"/>
<path d="M5.68577 21.7203C5.55833 21.9456 5.43496 22.1728 5.33642 22.4165C5.17088 22.8278 5.06336 23.2652 5.01769 23.7132C4.95709 24.2781 4.99893 24.8509 5.14071 25.3974C5.2825 25.9439 5.52133 26.4529 5.84297 26.8941C6.33199 27.5647 6.9482 28.0266 7.68642 28.2843C8.11431 28.4337 8.55492 28.5023 9.00121 28.4693C10.1687 28.3831 11.1208 27.8279 11.8484 26.8002C12.0011 26.5835 12.1329 26.3493 12.2415 26.1015C12.2578 26.0647 12.2779 26.0299 12.2962 25.9942C12.3977 26.0473 13.1874 26.617 13.322 26.7223C13.3755 26.7636 13.3513 26.8188 13.3258 26.8693C13.1871 27.146 13.0406 27.4172 12.8641 27.6665C12.4784 28.2116 12.0286 28.6764 11.4964 29.0407C10.98 29.3945 10.4126 29.6459 9.81946 29.7836C9.36057 29.8918 8.89576 29.9078 8.4323 29.8755C7.81584 29.8331 7.22507 29.6588 6.6627 29.3673C6.27745 29.17 5.91639 28.9184 5.58834 28.6187C4.94311 28.0247 4.4426 27.3073 4.11881 26.4407C3.91187 25.8845 3.78248 25.2962 3.73513 24.6962C3.66104 23.8013 3.78799 22.94 4.07004 22.1028C4.1734 21.7963 4.30973 21.5087 4.45545 21.2259C4.46977 21.1984 4.48582 21.1708 4.50237 21.145C4.59091 21.0044 4.60771 21 4.73935 21.0839C4.96039 21.2247 5.38557 21.5192 5.60204 21.6668C5.63097 21.6826 5.65894 21.7005 5.68577 21.7203V21.7203Z" fill="#666059"/>
<path d="M12.5492 25.1041C12.6608 24.5489 12.6712 23.9743 12.5799 23.4146C12.4885 22.8549 12.2972 22.3214 12.0173 21.846C11.5495 21.1722 10.9618 20.6045 10.3097 20.254C9.90262 20.0581 9.46638 19.949 9.02341 19.9322C7.85409 19.8857 6.85161 20.3184 6.03497 21.2589C5.90656 21.4095 5.78596 21.5683 5.67377 21.7343C5.57769 21.67 4.69313 21.1659 4.56878 21.0459C4.51939 20.9982 4.90504 20.51 5.10324 20.282C5.53644 19.7835 6.02608 19.3716 6.5887 19.0699C7.11526 18.7664 7.71714 18.593 8.32446 18.5209C8.79011 18.4647 9.26041 18.4786 9.72273 18.5623C10.3322 18.6744 10.894 18.9393 11.4269 19.2934C11.7923 19.5333 12.1287 19.8246 12.4279 20.1599C13.0158 20.824 13.4485 21.5945 13.6923 22.4932C13.8476 23.0702 13.9229 23.6703 13.9154 24.2727C13.9074 25.1712 13.7055 25.997 13.4122 26.6618C13.3541 26.7937 13.4068 26.7904 13.2382 26.6618C13.0311 26.4963 12.5145 26.1506 12.2964 25.9943C12.2828 25.9828 12.4609 25.5467 12.5492 25.1041Z" fill="#45423D"/>
<path d="M7.1204 1.68277C7.0305 1.3633 6.96147 1.03748 6.88577 0.713727C6.86577 0.628479 6.88824 0.60558 6.96962 0.58351C11.4727 -0.639762 16.9487 0.294935 19.7612 1.2466C20.2068 1.42523 20.6406 1.63284 21.042 1.91686C21.2161 2.04018 21.3813 2.17605 21.5113 2.35827C21.5475 2.40817 21.58 2.46121 21.6087 2.51691C21.6767 2.65223 21.6919 2.78865 21.6279 2.93667C21.4798 3.28005 21.3186 3.61571 21.1445 3.94365C21.032 4.15718 20.9163 4.36864 20.8022 4.58121C20.7485 4.68437 20.6882 4.78307 20.6218 4.87655C20.5636 4.9371 20.4983 4.908 20.4355 4.89227C20.1602 4.8233 19.8819 4.76937 19.6082 4.69405C19.588 4.68853 19.5675 4.69791 19.5471 4.69874C19.2604 4.59501 18.9576 4.58315 18.6664 4.50562C18.6283 4.49541 18.595 4.52121 18.5585 4.51431C18.0802 4.41044 17.5953 4.35802 17.1137 4.28409C16.9442 4.25802 16.7695 4.27181 16.6053 4.20422C16.5425 4.13014 16.5312 4.03331 16.51 3.93992C16.3887 3.38898 16.231 2.85432 15.942 2.37952C15.898 2.30737 15.8502 2.23854 15.8001 2.1715C15.6498 1.96997 15.4704 1.8501 15.2267 1.81437C14.5913 1.72098 13.9548 1.64029 13.3165 1.57987C12.2545 1.47875 11.1912 1.46151 10.1272 1.47834C9.60217 1.48648 9.07759 1.52552 8.5535 1.576C8.11956 1.61739 7.6866 1.66649 7.25488 1.73036C7.20141 1.73616 7.15523 1.73257 7.1204 1.68277Z" fill="#EDAE50"/>
<path d="M22.0524 11.3015C21.7533 11.2991 21.4543 11.2922 21.1553 11.2969C21.06 11.2983 21.0388 11.2363 21.0181 11.1598C20.9371 11.1322 20.9393 11.0494 20.9268 10.9805C20.8301 10.4495 20.7391 9.91707 20.6339 9.38806C20.3752 8.0874 20.0845 6.79599 19.7308 5.52292C19.67 5.30359 19.6044 5.08592 19.5449 4.86604C19.5267 4.79914 19.4921 4.72617 19.5507 4.65913C19.5723 4.63154 19.6012 4.63154 19.6296 4.63719C19.9624 4.70616 20.2949 4.77513 20.6218 4.87473C20.8364 5.54954 21.017 6.23608 21.1836 6.92731C21.4099 7.8667 21.6042 8.81477 21.7853 9.76616C21.8528 10.1215 22.0517 11.2926 22.0524 11.3015Z" fill="#45423D"/>
<path d="M7.12049 1.6828C7.5138 1.60776 7.91082 1.56417 8.30759 1.52445C8.59372 1.49575 8.88132 1.47741 9.16819 1.45548C9.96519 1.39368 10.7629 1.39492 11.5604 1.40995C12.1397 1.42085 12.7185 1.4552 13.2968 1.50651C13.682 1.54072 14.0665 1.58004 14.4502 1.62901C14.7725 1.67039 15.0923 1.73012 15.4148 1.77702C15.519 1.79205 15.5975 1.84916 15.672 1.92517C15.9287 2.18726 16.11 2.50784 16.2524 2.85766C16.4218 3.27341 16.5382 3.70821 16.6153 4.15638C16.5974 4.21928 16.5515 4.22011 16.5051 4.21694C16.3002 4.20315 16.095 4.18701 15.8908 4.16576C15.7108 4.14714 15.53 4.13817 15.3502 4.12686C15.0636 4.10921 14.7766 4.07444 14.4885 4.09224C14.3773 4.09927 14.2678 4.06796 14.1569 4.06603C14.0067 4.06355 13.9601 4.09983 13.908 4.25529C13.601 5.17219 13.3482 6.10799 13.126 7.05455C12.7827 8.51673 12.5209 9.9981 12.3007 11.4888C12.2417 11.8872 12.1937 12.2875 12.1411 12.6871C12.1303 12.7684 12.1224 12.8517 12.0761 12.9216C12.0399 12.9622 11.9939 12.965 11.9497 12.9521C11.7432 12.8925 11.5382 12.826 11.3322 12.7648C11.3161 12.7607 11.3011 12.7523 11.2886 12.7403C11.2761 12.7283 11.2664 12.713 11.2603 12.6958C11.2271 12.5961 11.248 12.4947 11.2613 12.3965C11.4713 10.784 11.7282 9.18148 12.0662 7.59611C12.3053 6.47491 12.5777 5.36503 12.9267 4.27957C12.9796 4.11541 12.9499 4.06769 12.7956 4.06575C12.1838 4.05817 11.573 4.08189 10.9615 4.11459C10.6543 4.13114 10.3471 4.14521 10.0406 4.1739C10.0201 4.1739 9.99952 4.17473 9.9789 4.17487C9.65894 4.17721 9.65153 4.18507 9.55064 4.51765C8.96344 6.45133 8.55297 8.43356 8.23584 10.4421C8.14101 11.0429 8.0579 11.6455 7.97343 12.2481C7.96577 12.3032 7.96034 12.3576 7.92922 12.4038C7.89958 12.4572 7.85068 12.4644 7.80153 12.4728C7.5464 12.5142 7.28979 12.543 7.0359 12.5933C6.97872 12.6048 6.90846 12.6184 6.89697 12.5155C6.93954 12.198 6.98218 11.8805 7.02491 11.5629C7.13555 10.7369 7.26086 9.91386 7.40081 9.09375C7.58432 8.01918 7.79425 6.95302 8.05357 5.8997C8.17706 5.40007 8.30463 4.90155 8.45985 4.41268C8.51419 4.24136 8.51394 4.24136 8.3965 4.123C8.11322 3.8365 7.83092 3.54889 7.54616 3.26417C7.49381 3.21289 7.45715 3.14459 7.44131 3.06885C7.34487 2.6513 7.24373 2.23512 7.1442 1.8184C7.12697 1.77583 7.11894 1.72934 7.12074 1.68267L7.12049 1.6828Z" fill="#45423D"/>
<path d="M7.12091 1.6821C7.13598 1.72583 7.15314 1.769 7.14438 1.81783C7.11968 1.77659 7.08832 1.73603 7.12091 1.6821Z" fill="#A9A9A9"/>
<path d="M13.6588 13.6721C13.1856 13.3882 12.6896 13.1645 12.1822 12.9707C12.136 12.953 12.0874 12.9399 12.0522 12.8976C12.1045 12.4933 12.1528 12.0883 12.2096 11.6848C12.3413 10.7506 12.4951 9.82113 12.6711 8.89628C12.939 7.49451 13.2596 6.10874 13.6811 4.75387C13.7485 4.53703 13.8184 4.32115 13.8885 4.10554C13.924 3.99643 13.9256 3.99602 14.0302 3.99933C14.6138 4.01781 15.1973 4.04278 15.78 4.08361C16.0587 4.10306 16.337 4.13175 16.6154 4.15631C17.0755 4.20569 17.5341 4.26901 17.9917 4.34143C18.1862 4.37232 18.3807 4.40074 18.5738 4.44088C18.685 4.4904 18.7538 4.58531 18.8208 4.69428C19.0757 5.10907 19.2788 5.55697 19.4478 6.01853C19.6246 6.50132 19.7864 6.99378 19.8955 7.50403C19.9385 7.70487 19.9995 7.90061 20.0437 8.10076C20.1882 8.75944 20.3484 9.41384 20.4652 10.0801C20.5251 10.4218 20.5887 10.7632 20.6676 11.1009C20.6886 11.1907 20.7234 11.2923 20.6198 11.357C20.6087 11.3708 20.5996 11.3881 20.586 11.3962C20.4027 11.5045 20.2789 11.6808 20.1586 11.8605C19.9575 12.1605 19.7585 12.4622 19.5587 12.7633C19.5024 12.7909 19.4559 12.768 19.4099 12.7312C19.1692 12.5386 18.9264 12.3494 18.6813 12.1636C18.5567 12.0688 18.547 12.0214 18.6306 11.8815C18.7493 11.6828 18.8769 11.4911 18.9993 11.2954C19.0463 11.2201 19.0967 11.1468 19.1351 11.0654C19.2044 10.9178 19.1789 10.7706 19.0725 10.6825C18.966 10.5943 18.8334 10.6123 18.7313 10.7402C18.6025 10.9015 18.501 11.0865 18.391 11.2643C18.0417 11.8265 17.6918 12.3882 17.3413 12.9496C17.3083 13.0023 17.2747 13.055 17.2524 13.1151C17.2011 13.2517 17.2368 13.3924 17.3407 13.4681C17.4481 13.5464 17.5717 13.531 17.6627 13.4146C17.7901 13.2518 17.8908 13.0664 18.0016 12.8904C18.0722 12.7774 18.1426 12.6643 18.2155 12.5533C18.2662 12.476 18.3223 12.4646 18.3954 12.517C18.6619 12.7083 18.9163 12.9189 19.1762 13.1206C19.2198 13.1544 19.2627 13.1944 19.2609 13.2637C19.1797 13.4117 19.0987 13.56 19.0168 13.7074C18.9757 13.7815 18.9316 13.8535 18.891 13.9281C18.7219 14.2367 18.7167 14.5558 18.8624 14.8725C19.2549 15.7254 19.6626 16.5692 20.1228 17.3797C20.1801 17.4806 20.2417 17.5779 20.2992 17.6782C20.4614 17.9606 20.7035 18.0739 20.9886 18.0834C21.2634 18.0925 21.5377 18.0588 21.8115 18.0319C21.8053 19.3088 21.4781 20.4771 20.8657 21.5521C20.7799 21.7026 20.6871 21.7668 20.5199 21.7613C20.0766 21.7466 19.6326 21.7586 19.1889 21.7599C19.0993 21.7461 19.1025 21.6576 19.0901 21.5911C19.0375 21.3171 18.9684 21.0486 18.8953 20.7808C18.6147 19.7478 18.2079 18.7629 17.6863 17.8541C17.5178 17.5603 17.3296 17.2828 17.1531 16.9957C16.989 16.7565 16.812 16.5288 16.6294 16.3078C16.3041 15.9142 15.9665 15.5339 15.5969 15.1904C15.0624 14.6966 14.49 14.2565 13.8862 13.8752C13.8026 13.819 13.7023 13.7841 13.6588 13.6721Z" fill="#B9E1E1"/>
<path d="M20.5931 11.3891C20.6274 11.3063 20.6244 11.1921 20.6066 11.1141C20.4506 10.4348 19.3492 5.6984 18.7264 4.65611C18.6509 4.52975 18.6331 4.49623 18.5737 4.44092C18.8663 4.4663 19.1531 4.53527 19.4431 4.58052C19.4653 4.58338 19.4866 4.59205 19.5052 4.60583C19.5238 4.61962 19.5393 4.63812 19.5503 4.65983C19.9393 5.97957 20.273 7.31646 20.5515 8.6705C20.7222 9.49567 20.8973 10.3824 21.0366 11.215C21.037 11.2169 21.0376 11.2187 21.0386 11.2204C21.0666 11.2784 21.0738 11.2624 20.9109 11.2852C20.8099 11.2997 20.674 11.35 20.5931 11.3891Z" fill="#DCF9FB"/>
<path d="M11.2888 12.6796C11.0355 12.6244 10.7825 12.5641 10.5286 12.5156C10.2257 12.4583 9.92028 12.4187 9.61367 12.3971C9.32347 12.376 9.03574 12.3695 8.74504 12.3688C8.58167 12.3688 8.41619 12.3866 8.25183 12.3731C8.18453 12.3154 8.19663 12.2372 8.20638 12.1587C8.3458 11.0356 8.50795 9.9173 8.71924 8.80673C8.86742 8.02459 9.03426 7.24798 9.23962 6.48268C9.43572 5.75158 9.66417 5.03332 10.0182 4.37492C10.0716 4.27588 10.08 4.19394 10.0235 4.1011C10.0626 4.08358 10.104 4.08372 10.1449 4.08165C11.0768 4.03448 12.0085 3.9833 12.9417 3.99282C12.982 3.99282 13.0238 3.9822 13.063 4.00454C13.0786 4.05406 13.0525 4.09448 13.039 4.13573C12.6275 5.391 12.3166 6.67993 12.0489 7.98197C11.8218 9.08661 11.6332 10.1995 11.4707 11.3181C11.4052 11.7714 11.3496 12.2259 11.2888 12.6796Z" fill="#B9E1E1"/>
<path d="M10.1054 4.08415C10.2722 4.06235 10.2564 4.07256 10.1564 4.26347C9.8863 4.77882 9.65883 5.30866 9.48508 5.86774C9.38432 6.19177 9.28664 6.51883 9.21118 6.85306C9.12882 7.21778 9.03163 7.57822 8.95519 7.94487C8.87776 8.31594 8.81244 8.68976 8.74081 9.06221C8.66746 9.44362 8.59263 9.82461 8.53681 10.2096C8.45037 10.8074 8.36689 11.4055 8.28637 12.0041C8.27007 12.1259 8.24933 12.2485 8.25266 12.3732C8.21104 12.3941 7.92603 12.4269 7.9043 12.3732C7.92307 12.0798 7.97234 11.7908 8.01297 11.501C8.11349 10.7848 8.22644 10.071 8.35182 9.35947C8.64437 7.7152 9.00483 6.09024 9.48792 4.50225C9.51843 4.40238 9.55448 4.30444 9.58153 4.20347C9.59734 4.14429 9.62883 4.12236 9.67933 4.1207C9.79504 4.11422 10.0849 4.08318 10.1054 4.08415Z" fill="#DCF9FB"/>
<path d="M25.5103 24.3105C25.223 24.2858 24.9028 24.0332 24.6741 24.6855C24.4467 25.3322 24.7809 25.5813 24.7305 25.5595C24.7057 25.556 24.6806 25.5551 24.6556 25.5569C24.4674 25.5594 24.2727 25.5246 24.0849 25.5244C24.0184 25.4903 24.034 25.4295 24.0451 25.3706C24.1398 24.8622 24.2847 24.3671 24.4774 23.8946C24.7322 23.2749 25.0443 22.6945 25.4353 22.1675C25.9786 21.4357 26.6153 20.8295 27.3556 20.3586C28.1262 19.8683 28.9533 19.5651 29.8296 19.433C30.2529 19.3692 30.6798 19.3454 31.1077 19.3789C31.2701 19.3916 31.3969 19.3176 31.4842 19.1681C31.5198 19.1073 31.5591 19.0609 31.6201 19.0368C31.6906 19.036 31.7547 19.0693 31.822 19.0862C31.9702 19.1233 31.9856 19.1173 32.0506 18.9675C32.1555 18.7256 32.2643 18.486 32.3999 18.2627C32.4333 18.2386 32.4611 18.2061 32.4812 18.1679C32.6569 17.8673 32.8816 17.6187 33.1458 17.4147C33.1533 17.4108 33.1616 17.4093 33.1697 17.4103C33.2653 17.4103 33.2903 17.4918 33.3134 17.5716C33.4145 17.9212 33.5282 18.265 33.6689 18.5981C33.9018 19.1499 34.1895 19.6603 34.5588 20.1107C34.6138 20.1778 34.6834 20.2377 34.6511 20.3472C34.4588 20.7243 34.2665 21.1013 34.0742 21.4784C34.0459 21.5335 34.0147 21.5873 33.9848 21.6418C33.9313 21.7368 33.8709 21.8267 33.8044 21.9107C33.7871 21.8967 33.7687 21.8844 33.7495 21.8738C33.7384 21.8678 33.7174 21.8471 33.7067 21.8405C33.5053 21.7181 33.5338 21.71 33.6341 21.4818C33.697 21.3379 33.7298 21.1921 33.69 21.0299C33.6743 20.9629 33.6464 20.9003 33.608 20.846C33.5696 20.7916 33.5215 20.7468 33.4669 20.7142C33.3381 20.636 33.2045 20.5624 33.0573 20.5279C32.8508 20.4801 32.635 20.587 32.5356 20.7956C32.5028 20.8645 32.4798 20.9385 32.4492 21.0088C32.4055 21.1113 32.3803 21.1257 32.2851 21.0953C32.0317 21.0146 31.7758 20.9487 31.5136 20.916C31.4889 20.9128 31.4656 20.9022 31.4412 20.8997C31.3711 20.8905 31.3416 20.8445 31.3424 20.7691C31.3424 20.6955 31.3379 20.6219 31.3424 20.5484C31.3585 20.2704 31.2 20.0825 30.9699 20.0318C30.804 19.995 30.633 19.9975 30.4679 20.0389C30.257 20.092 30.1322 20.2359 30.1028 20.4804C30.0909 20.5711 30.084 20.6625 30.082 20.7542C30.0808 20.8735 30.0735 20.8836 29.9656 20.9072C29.8326 20.9363 29.6984 20.9583 29.5652 20.9866C29.4279 21.0159 29.2921 21.0523 29.1577 21.096C29.0704 21.1245 29.0499 21.1131 29.0135 21.0221C28.9799 20.9383 28.9484 20.8536 28.9052 20.7751C28.7912 20.5682 28.5851 20.4726 28.3742 20.5333C28.2226 20.5776 28.0785 20.6487 27.9472 20.7441C27.7559 20.882 27.686 21.1425 27.767 21.3882C27.7911 21.4611 27.8265 21.5293 27.8547 21.6007C27.8902 21.6907 27.8871 21.712 27.8165 21.7603C27.5672 21.9308 27.3364 22.1299 27.1068 22.331C27.0398 22.3899 27.0214 22.3906 26.9586 22.3259C26.9028 22.265 26.8435 22.2081 26.7813 22.1555C26.6048 22.0129 26.3638 22.0111 26.1979 22.1675C26.0822 22.2768 25.9728 22.3957 25.8904 22.5415C25.7656 22.7622 25.7944 23.0243 25.9645 23.2036C26.0333 23.2762 26.0405 23.2817 26.1524 23.3671C25.9805 23.5591 25.6448 24.0773 25.5465 24.2815" fill="#414141"/>
<path d="M23.2121 25.4985C22.5212 25.4977 21.8302 25.4969 21.1392 25.4962C20.0411 25.4962 18.9429 25.4962 17.8447 25.4962C17.5916 25.4962 17.5872 25.4872 17.6224 25.2097C17.6471 25.0075 17.6516 24.8057 17.5499 24.6217C17.4404 24.4233 17.2857 24.2961 17.0778 24.2605C16.9765 24.2419 16.8741 24.2303 16.7715 24.2258C16.648 24.2218 16.6256 24.1874 16.6211 24.0482C16.6062 23.5985 16.5733 23.1516 16.4958 22.7084C16.4651 22.5332 16.4736 22.5184 16.6309 22.4699C16.7583 22.4307 16.8822 22.382 16.9958 22.3057C17.2781 22.1159 17.361 21.7918 17.2933 21.4585C17.2625 21.3068 17.2154 21.1585 17.1698 21.011C17.0514 20.6284 16.7376 20.4293 16.3819 20.5038C16.26 20.5293 16.1433 20.5728 16.0257 20.6142C15.9293 20.6486 15.9172 20.6452 15.8723 20.5405C15.6855 20.1004 15.4651 19.679 15.2135 19.2811C15.1662 19.2069 15.1687 19.1836 15.2407 19.1231C15.3395 19.0395 15.4195 18.9335 15.5111 18.8416C15.7316 18.6209 15.7276 18.1563 15.5957 17.9345C15.4715 17.7258 15.314 17.5483 15.1428 17.3922C14.9273 17.1954 14.5494 17.1884 14.3098 17.4289C14.2273 17.5117 14.1337 17.5807 14.0608 17.6752C14.017 17.7319 13.9767 17.7331 13.9249 17.6843C13.8028 17.5685 13.6794 17.4542 13.5527 17.3448C13.3541 17.1735 13.1452 17.0191 12.9333 16.8685C12.7497 16.738 12.7582 16.7674 12.8515 16.5512C12.8905 16.4652 12.9247 16.3765 12.954 16.2858C13.0609 15.9325 12.964 15.5455 12.6233 15.3524C12.4764 15.2696 12.3288 15.1842 12.1704 15.1361C11.9481 15.0685 11.7311 15.0809 11.5358 15.243C11.4565 15.3096 11.3929 15.3967 11.3505 15.4969C11.2979 15.6164 11.2517 15.7393 11.2014 15.8598C11.1632 15.9507 11.1548 15.9564 11.0687 15.9262C10.7385 15.8103 10.4009 15.7311 10.0594 15.6706C9.97832 15.6568 9.89694 15.643 9.81568 15.63C9.698 15.611 9.68886 15.6008 9.68676 15.4627C9.68515 15.3479 9.68552 15.233 9.68676 15.1179C9.68947 14.7989 9.53857 14.5937 9.29431 14.4606C9.2241 14.421 9.14724 14.3983 9.06869 14.3939C8.8842 14.3869 8.69934 14.3738 8.51509 14.4077C8.16376 14.4734 7.94556 14.7473 7.93469 15.1441C7.93197 15.245 7.93469 15.3461 7.93358 15.4475C7.93185 15.6024 7.92617 15.6071 7.79268 15.6309C7.38245 15.7034 6.97345 15.7826 6.57483 15.9174C6.47974 15.9494 6.46838 15.9425 6.42491 15.8376C6.38354 15.7376 6.34316 15.6371 6.30142 15.5371C6.13718 15.1396 5.75634 15.0112 5.40538 15.1541C5.27392 15.2073 5.14561 15.2697 5.02121 15.341C4.81708 15.459 4.68248 15.6411 4.63839 15.9004C4.61571 16.0365 4.62716 16.177 4.67149 16.3064C4.70977 16.4231 4.76052 16.5333 4.80844 16.6451C4.84906 16.7401 4.84449 16.7617 4.76682 16.8143C4.4392 17.0364 4.1332 17.2918 3.83448 17.5592C3.79607 17.5935 3.76038 17.6324 3.72333 17.6677C3.65949 17.7276 3.63986 17.7274 3.57515 17.6651C3.50365 17.5961 3.42992 17.5296 3.36299 17.4553C3.1107 17.1751 2.63836 17.1768 2.39348 17.4745C2.32124 17.5622 2.25245 17.6538 2.17836 17.7393C2.08871 17.8428 2.08278 17.8392 1.9909 17.7445C1.91286 17.664 1.72886 17.4833 1.71577 17.4725C1.59314 17.3198 1.59821 17.3187 1.72231 17.1622C2.77746 15.8317 4.11509 14.819 5.61223 14.217C6.36687 13.9135 7.1435 13.7157 7.94148 13.6388C8.42889 13.5936 8.91861 13.5884 9.40669 13.6234C10.0677 13.6677 10.7227 13.7889 11.3612 13.9851C11.885 14.145 12.3945 14.3586 12.8832 14.6231C13.2171 14.799 13.541 14.9977 13.853 15.2181C14.2902 15.5273 14.704 15.8759 15.0903 16.2603C15.4599 16.6311 15.8069 17.0291 16.1291 17.4516C16.1728 17.5123 16.2137 17.5754 16.2516 17.6408C16.553 18.0208 16.7949 18.4479 17.0208 18.8848C17.475 19.7596 17.8149 20.7026 18.0299 21.685C18.105 22.0286 18.155 22.3773 18.2105 22.7251C18.2588 23.0286 18.4581 23.1324 18.7026 22.9855C19.0093 22.8014 19.2041 22.3635 19.1595 21.9758C19.1499 21.8916 19.0978 21.7965 19.1786 21.7174C19.2427 21.6771 19.3134 21.6804 19.3831 21.6802C19.7536 21.6789 20.1233 21.6748 20.4933 21.6821C20.6461 21.6851 20.7483 21.6214 20.8302 21.48C21.1362 20.9505 21.3693 20.3727 21.5217 19.7658C21.6419 19.2923 21.7283 18.8114 21.7576 18.3189C21.7611 18.2684 21.7604 18.2176 21.7554 18.1672C21.749 18.1073 21.7624 18.0581 21.8119 18.0268C21.8922 18.0251 22.0678 18.0138 22.0757 18.013C22.3829 17.9927 22.3829 17.9928 22.3836 18.3378C22.3836 18.5999 22.3821 18.862 22.3843 19.1233C22.3863 19.3627 22.4435 19.4367 22.653 19.4957C23.155 19.6385 23.6629 19.6846 24.1807 19.6545C24.4198 19.6407 24.6537 19.5927 24.891 19.5717C24.9401 19.5656 24.9882 19.5516 25.0338 19.5303C25.1779 19.4687 25.2202 19.4062 25.2223 19.2313C25.226 18.9052 25.2212 18.5791 25.2251 18.253C25.2259 18.1818 25.2127 18.1037 25.2693 18.0461C25.3625 17.9661 25.4515 18.0272 25.5349 18.0661C25.7407 18.1626 25.8956 18.3343 26.0379 18.5198C26.3011 18.8634 26.4966 19.2558 26.682 19.655C26.6983 19.6872 26.7052 19.7242 26.7017 19.761C26.6952 19.8502 26.6372 19.8948 26.5783 19.9376C26.0931 20.2878 25.6575 20.7035 25.2569 21.1676C24.7974 21.6993 24.4163 22.2939 24.0936 22.9364C23.7187 23.6827 23.4638 24.4782 23.3133 25.3167C23.3003 25.387 23.3132 25.4867 23.2121 25.4985Z" fill="#45423D"/>
<path d="M23.2117 25.4983C23.2429 25.3418 23.2727 25.1848 23.3055 25.0293C23.574 23.7514 24.0898 22.6109 24.8345 21.5979C25.3291 20.9209 25.9155 20.3347 26.5727 19.8607C26.6105 19.8332 26.6521 19.8111 26.6754 19.7642C26.705 19.709 28.9463 18.098 31.4526 18.6157C31.6018 18.7366 31.6193 18.9694 31.5383 19.1803C31.4591 19.3861 31.3116 19.4509 31.0751 19.4446C30.8569 19.4386 30.6392 19.4255 30.422 19.4388C30.0567 19.4593 29.6934 19.5109 29.3352 19.5931C28.354 19.8228 27.4602 20.2682 26.6584 20.9403C25.7216 21.7254 25.0145 22.7185 24.529 23.908C24.3323 24.3938 24.1841 24.9024 24.0871 25.4245C24.0811 25.4558 24.0006 25.9604 23.9759 26.1832C23.9535 26.3901 23.8648 26.5344 23.686 26.6027C23.4233 26.7028 23.1426 26.4888 23.1369 26.1789C23.1339 26.0228 23.164 25.8692 23.185 25.7153C23.1934 25.6543 23.2025 25.5084 23.2117 25.4983Z" fill="#A19D98"/>
<path d="M21.0739 24.4239C20.6257 24.4239 20.1776 24.4255 19.7296 24.4233C19.5196 24.4222 19.3675 24.3077 19.2809 24.0977C19.1944 23.8878 19.221 23.6839 19.3467 23.5016C19.4465 23.3575 19.5893 23.3022 19.748 23.2965C19.8548 23.2928 19.9617 23.295 20.069 23.2951C20.8255 23.2957 21.5819 23.2963 22.3383 23.2968C22.4817 23.2968 22.6151 23.3244 22.7288 23.4331C22.8856 23.5835 22.9494 23.8272 22.8841 24.0443C22.8522 24.1544 22.79 24.2504 22.7064 24.3187C22.6229 24.387 22.5221 24.4241 22.4186 24.4248C21.9704 24.4274 21.5224 24.4256 21.0742 24.4256L21.0739 24.4239Z" fill="#FCBE4F"/>
<path d="M6.89647 12.5143C6.92451 12.5392 6.95661 12.5399 6.98959 12.5326C7.26991 12.4714 7.55344 12.4361 7.83722 12.4032C7.86191 12.4002 7.84957 12.4006 7.91959 12.3932C8.91614 12.3104 10.2445 12.3714 11.2891 12.6795C11.5194 12.7507 11.7515 12.8037 11.982 12.8743C12.0056 12.8758 13.134 13.3368 13.5724 13.6C13.6117 13.6313 13.6308 13.648 13.6589 13.672C13.6769 13.8978 13.6141 14.0675 13.496 14.2216C13.3316 14.4364 13.1144 14.5903 12.8714 14.6878C12.5588 14.5361 12.2476 14.3806 11.9248 14.2562C11.3536 14.0358 10.7651 13.876 10.1671 13.7788C9.64602 13.6959 9.1198 13.6604 8.59359 13.6726C7.97272 13.6842 7.35457 13.7672 6.7489 13.9202C4.86907 14.3918 3.16455 15.4978 1.8665 17.0882C1.82501 17.1392 1.78266 17.1893 1.74104 17.2399C1.6546 17.3458 1.61681 17.4145 1.55309 17.4988C1.44726 17.639 1.34427 17.782 1.24115 17.9248C1.00035 18.2579 0.577151 18.2758 0.313501 17.9266C0.135059 17.69 0.165314 17.3334 0.310537 17.1087C0.468893 16.8683 0.638172 16.6371 0.817709 16.416C1.00121 16.1866 1.18003 15.9523 1.38119 15.7417C1.66312 15.4468 1.94381 15.1495 2.25043 14.8865C3.2975 13.9882 4.44509 13.3032 5.70987 12.8706C6.0441 12.7559 6.38356 12.6613 6.7268 12.587C6.78731 12.5743 6.85078 12.5694 6.89647 12.5143Z" fill="#EDAE50"/>
<path d="M17.1873 16.9554C17.4937 17.3602 17.743 17.8087 17.9838 18.2631C18.267 18.7976 18.5024 19.3582 18.7019 19.9378C18.8848 20.47 19.043 21.0105 19.1482 21.5691C19.1605 21.632 19.1755 21.6933 19.1892 21.7565C19.2167 21.9278 19.2483 22.0975 19.2147 22.2742C19.146 22.6364 18.9844 22.92 18.6758 23.078C18.4174 23.2102 18.193 23.0719 18.1507 22.7575C18.0396 21.9299 17.8581 21.1218 17.5813 20.3421C17.254 19.4199 16.825 18.5627 16.2793 17.7779C16.2546 17.7419 16.2314 17.7039 16.2075 17.6667C16.2665 17.4478 16.3889 17.2707 16.5066 17.0888C16.5727 16.9866 16.6748 17.0032 16.76 16.9733C16.8978 16.9249 17.0426 16.8853 17.1873 16.9554Z" fill="#EDAE50"/>
<path d="M17.1176 16.9364C16.442 16.8754 16.2297 17.6199 16.2081 17.6665C15.9163 17.2695 15.6085 16.8894 15.2734 16.5368C14.5925 15.818 13.8199 15.2162 12.9807 14.7508C12.9437 14.7306 12.908 14.7095 12.8716 14.6878C12.9031 14.6464 13.181 14.5856 13.4128 14.2326C13.6089 13.9339 13.6551 13.7315 13.6591 13.672C13.8802 13.7648 14.0734 13.9156 14.2739 14.0495C14.6207 14.2791 14.954 14.533 15.272 14.8097C15.5592 15.0619 15.8379 15.3245 16.1033 15.6068C16.2852 15.7999 16.4556 16.0045 16.6275 16.207C16.8275 16.4426 17.0292 16.6796 17.1875 16.9553" fill="#FCD38C"/>
<path d="M34.6404 20.3443C34.5678 20.2088 34.4575 20.1098 34.3687 19.9886C33.8913 19.3382 33.5491 18.6059 33.3082 17.8119C33.2806 17.7207 33.2552 17.6286 33.2276 17.5373C33.216 17.4987 33.2072 17.4545 33.1578 17.4559C32.5494 16.8738 31.8149 16.5492 31.0955 16.1937C30.0088 15.6574 28.8742 15.2888 27.7264 14.964C26.8261 14.7092 25.914 14.5202 24.9992 14.3454C24.916 14.3296 24.827 14.3218 24.7695 14.2351C24.7545 14.1722 24.7545 14.1079 24.7543 14.0438C24.7531 13.2837 24.7535 12.5236 24.7555 11.7636C24.7555 11.6808 24.7326 11.5856 24.8126 11.5244C24.9931 11.5739 25.1793 11.5739 25.3623 11.6023C25.7081 11.6558 26.0561 11.6957 26.4013 11.7541C26.8484 11.8288 27.2969 11.8953 27.7403 11.9946C28.0466 12.0636 28.3544 12.1217 28.6601 12.1945C29.0182 12.2799 29.3763 12.3662 29.73 12.4668C30.3195 12.6341 30.9089 12.8039 31.4835 13.0297C31.7122 13.1195 31.9391 13.2165 32.1706 13.2962C32.4066 13.3774 32.5916 13.5393 32.7676 13.7217C33.1504 14.1182 33.5322 14.5159 33.9017 14.9281C34.1487 15.204 34.3969 15.4779 34.6324 15.7665C34.7344 15.8915 34.8473 16.0058 34.9535 16.1274C35.137 16.3379 35.3078 16.5615 35.4957 16.7676C35.6466 16.9331 35.7359 17.1415 35.747 17.3802C35.7626 17.7154 35.7529 18.0479 35.6767 18.3778C35.5365 18.9847 35.2776 19.5201 34.9268 20.0041C34.8389 20.1245 34.748 20.243 34.6404 20.3443Z" fill="#EDAE50"/>
<path d="M19.2606 13.2606L18.4104 12.6017C18.3963 12.5923 18.3829 12.5816 18.3704 12.5697C18.3189 12.5146 18.288 12.5399 18.2555 12.5973C18.2074 12.6826 18.1533 12.7638 18.1014 12.8465C17.9785 13.0416 17.8581 13.2389 17.7318 13.4312C17.6379 13.574 17.5189 13.618 17.3875 13.572C17.1908 13.5031 17.102 13.2665 17.1994 13.0616C17.2301 12.9971 17.2707 12.9383 17.3082 12.8782C17.7407 12.1857 18.1734 11.4934 18.6065 10.8012C18.6336 10.7552 18.6636 10.7115 18.6961 10.6701C18.809 10.5344 18.9801 10.5132 19.1097 10.615C19.1727 10.6642 19.2172 10.7376 19.2347 10.8213C19.2523 10.9049 19.2415 10.9928 19.2047 11.0681C19.1662 11.1488 19.117 11.2232 19.0699 11.2983C18.9357 11.5127 18.8001 11.726 18.665 11.9396C18.6112 12.0249 18.6101 12.0267 18.687 12.0867C18.9769 12.3123 19.2671 12.5374 19.5577 12.7618L19.2606 13.2606Z" fill="#45423E"/>
<path d="M22.7653 11.3538C22.8049 11.3852 22.8023 11.4329 22.8023 11.478C22.8033 12.2835 22.8033 13.0889 22.8023 13.8942C22.8034 13.9217 22.7992 13.9491 22.79 13.9746C22.7391 14.0436 22.6665 14.0408 22.5978 14.0411C22.3434 14.0425 22.0892 14.0273 21.8352 14.0218C21.1251 14.0047 20.415 14.015 19.7041 14.0165C19.6547 14.0165 19.6053 14.0196 19.5595 14.0441C19.5324 14.0579 19.5077 14.0778 19.5116 14.1157C19.5154 14.1537 19.5439 14.1654 19.5726 14.1738C19.5925 14.1795 19.613 14.1822 19.6336 14.1817C19.9822 14.1732 20.3306 14.1894 20.6798 14.165C21.0151 14.1414 21.3521 14.1486 21.6888 14.1712C21.9793 14.1906 22.2707 14.1988 22.5618 14.2105C22.6359 14.2134 22.71 14.2077 22.7759 14.257C22.8089 14.4415 22.8605 14.6242 22.8253 14.8163C22.8245 14.8339 22.82 14.851 22.8122 14.8663C22.7579 14.9385 22.6734 14.9401 22.6029 14.9729C22.4693 15.035 22.4028 15.1362 22.407 15.3009C22.4262 16.0531 22.3731 16.8045 22.3823 17.5566C22.3834 17.6437 22.3851 17.7306 22.3937 17.8175C22.4123 18.0054 22.3659 18.0674 22.1961 18.0865C22.1512 18.0915 22.106 18.093 22.0603 18.0943C21.9814 18.0955 21.9025 18.0959 21.8238 18.089C21.5929 18.1293 21.3591 18.1322 21.1264 18.1498C20.6951 18.1823 20.3782 17.9862 20.1536 17.5705C19.8415 16.9937 19.5269 16.4191 19.2414 15.825C19.1133 15.5585 18.9944 15.287 18.8595 15.0241C18.6428 14.6017 18.6405 14.1888 18.8938 13.7847C19.0042 13.6085 19.0847 13.41 19.2167 13.2504C19.2899 13.0583 19.4085 12.8982 19.5149 12.7295C19.7593 12.327 20.0171 11.9355 20.2949 11.5609C20.3796 11.4465 20.4975 11.3761 20.6063 11.294C20.7504 11.2504 21.2732 11.2388 21.4058 11.234C21.5563 11.2283 21.7072 11.2318 21.858 11.234C21.9297 11.2345 22.627 11.2767 22.7653 11.3538Z" fill="#EDAE50"/>
<path d="M31.6253 19.0983C31.5787 19.0694 31.5498 19.0293 31.5529 18.966C31.5624 18.7729 31.4506 18.6777 31.3137 18.6065C31.1315 18.5323 29.7428 18.3865 28.3623 18.9221C27.8768 19.0977 27.4086 19.3169 26.9681 19.6069C26.887 19.6604 26.7972 19.6967 26.7212 19.7608C26.7104 19.7698 26.69 19.764 26.6741 19.7651C26.5659 19.5922 26.4942 19.3964 26.3966 19.2166C26.2456 18.9385 26.0858 18.6687 25.8817 18.4342C25.7212 18.2502 25.5395 18.1091 25.3097 18.0574C25.2465 18.0627 25.2371 18.0112 25.2293 17.9608C25.2225 17.9016 25.2201 17.8419 25.2221 17.7823C25.2221 17.365 25.2155 16.9476 25.2237 16.5305C25.2314 16.1357 25.191 15.743 25.196 15.3486C25.1978 15.1985 25.1342 15.0967 25.0107 15.0384C24.9615 15.0151 24.9137 14.9884 24.8676 14.9583C24.8324 14.9352 24.7942 14.9113 24.8097 14.8524L24.8144 14.554C24.8552 14.4907 24.9108 14.4997 24.9701 14.5096C25.6534 14.6244 26.332 14.7662 27.0059 14.9352C27.8163 15.1399 28.6218 15.3646 29.4106 15.6574C30.0428 15.8919 30.6685 16.1469 31.2743 16.4589C31.5616 16.6069 31.8547 16.7429 32.1171 16.9435C32.2159 17.0189 32.2953 17.1192 32.3704 17.2236C32.5492 17.4719 32.504 17.7602 32.4874 18.0427C32.4823 18.131 32.4446 18.213 32.438 18.3018C32.2833 18.5645 32.1513 18.843 32.0437 19.1336C32.0217 19.194 31.9922 19.2164 31.9307 19.1932C31.8313 19.1554 31.7277 19.1296 31.6253 19.0983Z" fill="#EDAE50"/>
<path d="M32.4396 18.3021C32.4052 18.2283 32.4106 18.1485 32.4234 18.0729C32.4504 17.9131 32.4409 17.7527 32.4409 17.5924C32.4409 17.4353 32.3631 17.3134 32.2779 17.2014C32.1708 17.0615 32.0397 16.9471 31.8923 16.8649C31.2026 16.4734 30.4887 16.1476 29.7582 15.8647C29.2301 15.66 28.6975 15.4732 28.1563 15.3184C27.4722 15.1228 26.7856 14.9424 26.0906 14.7943C25.6912 14.7093 25.2889 14.6456 24.8893 14.5627C24.8652 14.5577 24.8399 14.5567 24.8159 14.5538C24.8159 14.4527 24.8159 14.3518 24.8159 14.2512C25.0614 14.2773 25.303 14.3317 25.5452 14.3804C25.8604 14.4437 26.1749 14.5109 26.4888 14.5821C26.8184 14.6576 27.1483 14.7308 27.4741 14.8275C27.7238 14.9015 27.9765 14.9644 28.2268 15.0372C28.8393 15.2154 29.4444 15.4202 30.0421 15.6514C30.5275 15.8393 30.997 16.0722 31.4691 16.2973C31.9183 16.5124 32.354 16.7613 32.773 17.0422C32.8959 17.1243 33.0089 17.2251 33.125 17.3196C33.1661 17.3531 33.203 17.3934 33.1585 17.4559C33.0019 17.6109 32.8403 17.7593 32.7015 17.9362C32.6091 18.0538 32.5273 18.1801 32.4396 18.3021Z" fill="#FCD38C"/>
<path d="M22.7656 13.9759L22.7663 14.2784C21.9441 14.2029 20.4113 14.2029 19.6377 14.2516C19.5789 14.2484 19.5203 14.2417 19.4622 14.2313C19.419 14.2204 19.3524 14.1582 19.3535 14.1193C19.3555 14.0479 19.3923 14.0134 19.44 13.9869C19.4996 13.9535 19.5793 13.9473 19.6463 13.9473C20.3865 13.9473 21.127 13.9349 21.8668 13.9548C22.1661 13.9628 22.466 13.9677 22.7656 13.9759Z" fill="#FCD38C"/>
<path d="M35.4543 17.6451C35.4584 17.9418 35.4049 18.2148 35.3289 18.483C35.1947 18.9575 34.9759 19.381 34.6975 19.7673C34.6411 19.8458 34.6381 19.8461 34.5791 19.7686C34.3084 19.4131 34.0918 19.019 33.9062 18.6021C33.7667 18.289 33.6524 17.9646 33.5502 17.6346C33.5186 17.5324 33.5223 17.514 33.6139 17.4616C33.9344 17.2779 34.2703 17.1474 34.6285 17.0903C34.7916 17.0642 34.9564 17.0646 35.1195 17.0423C35.1359 17.0407 35.1524 17.0403 35.1689 17.0412C35.3241 17.0443 35.3484 17.0664 35.4067 17.2244C35.4585 17.3651 35.4575 17.511 35.4543 17.6451Z" fill="#FEFEFE"/>
<path d="M24.7989 11.5927C24.7989 12.4696 24.808 14.3929 24.8272 14.9324C24.7813 14.9975 24.7218 14.9738 24.6681 14.9566C24.0892 14.7678 23.5063 14.7958 22.9217 14.9153C22.8723 14.9252 22.8244 14.9389 22.7828 14.8937L22.7797 14.8982C22.7527 14.8568 22.7797 10.5717 22.7763 10.2974C22.7747 10.1796 22.7923 10.0728 22.8448 9.96935C22.9093 9.84217 22.9655 9.70988 23.0253 9.57966C23.0337 9.57019 23.0447 9.56433 23.0566 9.56311C23.7306 9.88465 24.2874 10.2578 24.7948 10.8376C24.7874 11.0471 24.7948 11.3275 24.7989 11.5927Z" fill="#414141"/>
<path d="M23.0589 9.51278H23.0489L23.0391 9.51071C23.0877 9.3809 23.0906 9.24489 23.0901 9.10667C23.0886 8.69395 23.0946 8.28109 23.0911 7.8685C23.0898 7.71801 23.1304 7.59607 23.2145 7.4784C23.6295 6.89773 24.0803 6.35023 24.5638 5.83993C24.871 5.51549 25.1972 5.21408 25.5555 4.95972C25.6237 4.97793 25.5945 5.02745 25.5791 5.06552C25.3593 5.6068 25.3904 6.17444 25.4594 6.73779C25.4898 6.98609 25.5514 7.24197 25.7363 7.42433C25.7495 7.43584 25.7583 7.45242 25.761 7.47082C25.7638 7.48922 25.7603 7.50812 25.7512 7.52379C25.3339 7.74049 25.0062 8.07707 24.7295 8.48111C24.6886 8.5407 24.6584 8.60374 24.6685 8.68236C24.6501 9.17413 24.6542 9.66548 24.6695 10.4746C24.6688 10.4834 24.6678 10.492 24.6663 10.5006C24.6045 10.5473 24.5643 10.4945 24.5262 10.4584C24.3614 10.3017 24.2012 10.139 24.0235 9.9993C23.8293 9.84632 23.6301 9.70355 23.4147 9.58989C23.3014 9.5303 23.1859 9.49001 23.0589 9.51278Z" fill="#A19D98"/>
<path d="M25.8244 4.89926C25.9076 4.94575 25.9501 5.02341 25.9712 5.12314C26.025 5.37673 26.0604 5.63473 26.0773 5.89465C26.1063 6.3391 26.0486 6.76921 25.9492 7.19586C25.9285 7.2847 25.9046 7.37229 25.8519 7.44567C25.7993 7.45561 25.7831 7.41312 25.7619 7.37243C25.5166 6.90177 25.4722 6.38821 25.5025 5.8592C25.5066 5.78664 25.517 5.71409 25.5213 5.64098C25.5352 5.35997 25.6434 5.09513 25.8244 4.89926V4.89926Z" fill="#A19D98"/>
<path d="M25.067 14.9856C25.1949 15.0483 25.2578 15.1405 25.263 15.3115C25.2889 16.1737 25.2819 17.0358 25.2837 17.8978C25.2837 17.953 25.289 18.1828 25.2887 18.2467C25.2867 18.6043 25.2812 18.9622 25.2857 19.3197C25.2873 19.4455 25.2405 19.5174 25.1432 19.5628C24.3301 19.8111 23.2742 19.7988 22.5337 19.5352C22.3669 19.4785 22.3224 19.409 22.3211 19.2165C22.3194 18.9644 22.3211 18.7121 22.3211 18.4598C22.3211 18.3544 22.3228 18.2489 22.3211 18.1433C22.3194 18.0378 22.3458 16.4029 22.3458 16.3526C22.3458 15.9673 22.3484 15.5819 22.3449 15.1966C22.3438 15.0755 22.3837 15.0027 22.485 14.9521C23.6609 14.5371 24.2781 14.6578 25.067 14.9856Z" fill="#A19D98"/>
<path d="M22.5658 17.2556V15.396C22.5658 15.3639 22.5649 15.3317 22.5658 15.2995C22.5684 15.1717 22.5782 15.1546 22.6882 15.1098C23.1016 14.9325 24.3106 14.7649 24.9559 15.2406C25.0578 15.3004 25.0741 15.3615 25.0786 15.5062C25.0951 15.8319 25.0662 18.2513 25.0672 19.1832C25.0672 19.2017 25.0672 19.2201 25.0672 19.2384C25.0642 19.3712 25.0562 19.3776 24.9354 19.4056C24.1828 19.5804 23.4343 19.5573 22.6891 19.3504C22.5787 19.3199 22.5729 19.3169 22.5726 19.1834C22.5716 18.7563 22.5716 18.3293 22.5726 17.9023C22.5726 17.6865 22.5726 17.4706 22.5726 17.2548L22.5658 17.2556Z" fill="#45423D"/>
<path d="M23.0309 9.53906C23.0452 9.42112 23.1098 9.40884 23.234 9.44139C23.3833 9.49101 23.5261 9.56229 23.6588 9.65341C23.9543 9.85039 24.2372 10.0672 24.4856 10.3362C24.541 10.3964 24.6054 10.4466 24.6656 10.5008C24.6741 10.5404 24.6932 10.5762 24.7205 10.6033C24.7989 10.6821 24.8095 10.7731 24.7936 10.888C24.6633 10.8673 24.5901 10.7804 24.5074 10.6786C24.2832 10.4027 24.0211 10.1794 23.7433 9.97606C23.5721 9.85081 23.3101 9.71397 23.1199 9.62927C23.0547 9.6003 23.0234 9.6021 23.0309 9.53906Z" fill="#DCF9FB"/>
<path d="M25.8244 4.89925C25.8682 4.92601 25.8965 4.93828 25.7834 5.05002C25.6405 5.1932 25.5458 5.5542 25.5554 6.14624C25.5647 6.53869 25.5693 6.8881 25.8518 7.44566C25.828 7.48704 25.7967 7.51753 25.7508 7.52374C25.2724 6.99831 25.3186 5.38149 25.5549 4.95966C25.6529 4.84641 25.7102 4.83358 25.8244 4.89925Z" fill="#DCF9FB"/>
</g>
<defs>
<clipPath id="clip0_772_99436">
<rect width="37" height="34" fill="white"/>
</clipPath>
</defs>
</svg>
