<svg width="53" height="24" viewBox="0 0 53 24" fill="none" xmlns="http://www.w3.org/2000/svg">
<mask id="mask0_13142_154646" style="mask-type:luminance" maskUnits="userSpaceOnUse" x="0" y="0" width="24" height="24">
<path d="M23.9469 0.040947H0V23.9906H23.9469V0.040947Z" fill="white"/>
</mask>
<g mask="url(#mask0_13142_154646)">
<path d="M23.0077 14.7678L22.9937 14.8238C21.4506 20.8847 15.2972 24.5663 9.22085 23.0512C3.12847 21.5318 -0.580435 15.3589 0.939567 9.26511C2.45825 3.17012 8.63086 -0.53915 14.7239 0.980156C20.8184 2.49948 24.5272 8.6731 23.0077 14.7678Z" fill="white" stroke="#2251F4" stroke-width="1.19735"/>
<path d="M17.2541 10.3097C17.4924 8.71609 16.2791 7.85948 14.6201 7.28803L15.1583 5.12937L13.8443 4.80193L13.3204 6.90376C12.9749 6.81761 12.6202 6.73641 12.2675 6.65593L12.7953 4.54025L11.4821 4.21281L10.9436 6.37077C10.6577 6.3057 10.3769 6.24136 10.1045 6.17359L10.106 6.1668L8.29394 5.71429L7.94439 7.11774C7.94439 7.11774 8.9193 7.34121 8.89877 7.35499C9.43089 7.48778 9.5271 7.84003 9.51112 8.11922L8.89806 10.5784C8.93469 10.5878 8.98222 10.6012 9.03467 10.6223C8.99084 10.6114 8.94418 10.5995 8.89577 10.5879L8.03646 14.0329C7.97144 14.1946 7.80639 14.4372 7.43436 14.3451C7.44753 14.3642 6.4793 14.1067 6.4793 14.1067L5.8269 15.6109L7.5369 16.0372C7.85501 16.117 8.16677 16.2004 8.47375 16.2789L7.93001 18.4623L9.24251 18.7898L9.78101 16.6295C10.1396 16.7269 10.4875 16.8167 10.8282 16.9013L10.2915 19.0513L11.6056 19.3788L12.1493 17.1994C14.39 17.6235 16.0749 17.4525 16.7841 15.4258C17.3555 13.7941 16.7556 12.8529 15.5768 12.2391C16.4354 12.0411 17.0821 11.4764 17.2545 10.3099L17.2541 10.3097ZM14.2518 14.5196C13.8457 16.1514 11.0983 15.2693 10.2076 15.0481L10.9292 12.1555C11.8198 12.3778 14.6761 12.8179 14.2518 14.5196ZM14.6582 10.286C14.2877 11.7703 12.0011 11.0162 11.2593 10.8313L11.9135 8.20786C12.6553 8.39274 15.044 8.73785 14.6582 10.286Z" fill="#2251F4"/>
</g>
<mask id="mask1_13142_154646" style="mask-type:luminance" maskUnits="userSpaceOnUse" x="14" y="0" width="25" height="24">
<path d="M38.0745 0H14.0745V24H38.0745V0Z" fill="white"/>
</mask>
<g mask="url(#mask1_13142_154646)">
<path d="M37.5745 12C37.5745 18.3513 32.4258 23.5 26.0745 23.5C19.7232 23.5 14.5745 18.3513 14.5745 12C14.5745 5.64873 19.7232 0.5 26.0745 0.5C32.4258 0.5 37.5745 5.64873 37.5745 12Z" fill="#627EEA" stroke="#627EEA"/>
<path d="M26.4482 4.06644V9.9305L31.4045 12.1452L26.4482 4.06644Z" fill="white" fill-opacity="0.602"/>
<path d="M26.448 4.06644L21.491 12.1452L26.448 9.9305V4.06644Z" fill="white"/>
<path d="M26.4482 15.9453V19.9298L31.4078 13.0681L26.4482 15.9453Z" fill="white" fill-opacity="0.602"/>
<path d="M26.448 19.9298V15.9446L21.491 13.0681L26.448 19.9298Z" fill="white"/>
<path d="M26.4482 15.0229L31.4045 12.1451L26.4482 9.9317V15.0229Z" fill="white" fill-opacity="0.2"/>
<path d="M21.491 12.1451L26.448 15.0229V9.9317L21.491 12.1451Z" fill="white" fill-opacity="0.602"/>
</g>
<mask id="mask2_13142_154646" style="mask-type:luminance" maskUnits="userSpaceOnUse" x="28" y="0" width="25" height="24">
<path d="M52.0745 0H28.0745V24H52.0745V0Z" fill="white"/>
</mask>
<g mask="url(#mask2_13142_154646)">
<path d="M51.5745 12C51.5745 18.3739 46.4484 23.5 40.0745 23.5C33.7006 23.5 28.5745 18.3739 28.5745 12C28.5745 5.6261 33.7006 0.5 40.0745 0.5C46.4484 0.5 51.5745 5.6261 51.5745 12Z" fill="#2775CA" stroke="#2775CA"/>
<path d="M43.4077 14.0027C43.4077 12.3569 42.3629 11.7926 40.2733 11.5575C38.7808 11.3693 38.4823 10.9932 38.4823 10.3347C38.4823 9.6763 38.9798 9.2531 39.9748 9.2531C40.8704 9.2531 41.3679 9.5353 41.6166 10.2407C41.6664 10.3818 41.8157 10.4758 41.9649 10.4758H42.7609C42.9599 10.4758 43.1092 10.3347 43.1092 10.1467V10.0996C42.9101 9.065 42.0146 8.2656 40.8704 8.1716V7.043C40.8704 6.8548 40.7211 6.7137 40.4724 6.6667H39.7261C39.5271 6.6667 39.3778 6.8078 39.328 7.043V8.1245C37.8355 8.3127 36.8903 9.2531 36.8903 10.4288C36.8903 11.9807 37.8853 12.592 39.9748 12.8272C41.3679 13.0623 41.8157 13.3444 41.8157 14.0969C41.8157 14.8493 41.1191 15.3666 40.1739 15.3666C38.8803 15.3666 38.4325 14.8492 38.2832 14.1438C38.2336 13.9558 38.0843 13.8617 37.9351 13.8617H37.0892C36.8903 13.8617 36.741 14.0027 36.741 14.1909V14.238C36.94 15.4135 37.736 16.26 39.3778 16.4952V17.6238C39.3778 17.8119 39.5271 17.9529 39.7758 18H40.5221C40.7211 18 40.8704 17.8589 40.9202 17.6238V16.4952C42.4127 16.26 43.4077 15.2725 43.4077 14.0027Z" fill="white"/>
<path d="M37.6254 18.474C33.8801 17.1793 31.9593 13.1561 33.3519 9.5953C34.0722 7.6531 35.6567 6.1734 37.6254 5.47974C37.8175 5.38729 37.9135 5.24856 37.9135 5.01727V4.36991C37.9135 4.1849 37.8175 4.04617 37.6254 4C37.5774 4 37.4814 4 37.4333 4.04617C32.8717 5.43346 30.3747 10.1041 31.8153 14.4971C32.6796 17.0867 34.7444 19.0752 37.4333 19.9076C37.6254 20 37.8175 19.9076 37.8655 19.7225C37.9135 19.6764 37.9135 19.6301 37.9135 19.5376V18.8902C37.9135 18.7514 37.7695 18.5665 37.6254 18.474ZM42.7154 4.04617C42.5233 3.95372 42.3311 4.04617 42.2832 4.23118C42.2351 4.27746 42.2351 4.32363 42.2351 4.41619V5.06355C42.2351 5.24856 42.3792 5.43346 42.5233 5.52602C46.2687 6.8207 48.1894 10.8439 46.7968 14.4047C46.0765 16.3469 44.4919 17.8266 42.5233 18.5203C42.3311 18.6127 42.2351 18.7514 42.2351 18.9827V19.6301C42.2351 19.8151 42.3311 19.9538 42.5233 20C42.5713 20 42.6673 20 42.7154 19.9538C47.277 18.5665 49.774 13.8959 48.3335 9.5029C47.4691 6.867 45.3563 4.87854 42.7154 4.04617Z" fill="white"/>
</g>
</svg>
