<svg width="18" height="16" viewBox="0 0 18 16" fill="none" xmlns="http://www.w3.org/2000/svg">
<path d="M9.81892 2.25028C9.81892 3.1576 7.7962 3.89314 5.30106 3.89314C2.80592 3.89314 0.783203 3.1576 0.783203 2.25028M9.81892 2.25028C9.81892 1.34295 7.7962 0.607422 5.30106 0.607422C2.80592 0.607422 0.783203 1.34295 0.783203 2.25028M9.81892 2.25028V5.91151C8.81554 6.21284 8.17606 6.66869 8.17606 7.17885M0.783203 2.25028V12.1074C0.783203 13.0147 2.80592 13.7503 5.30106 13.7503C6.39326 13.7503 7.39493 13.6093 8.17606 13.3748V7.17885M0.783203 5.53599C0.783203 6.44332 2.80592 7.17885 5.30106 7.17885C6.39326 7.17885 7.39493 7.03792 8.17606 6.80333M0.783203 8.82171C0.783203 9.72903 2.80592 10.4646 5.30106 10.4646C6.39326 10.4646 7.39493 10.3236 8.17606 10.089M17.2118 7.17885C17.2118 8.08618 15.1891 8.82171 12.6939 8.82171C10.1988 8.82171 8.17606 8.08618 8.17606 7.17885M17.2118 7.17885C17.2118 6.27153 15.1891 5.53599 12.6939 5.53599C10.1988 5.53599 8.17606 6.27153 8.17606 7.17885M17.2118 7.17885V13.7503C17.2118 14.6576 15.1891 15.3931 12.6939 15.3931C10.1988 15.3931 8.17606 14.6576 8.17606 13.7503V7.17885M17.2118 10.4646C17.2118 11.3719 15.1891 12.1074 12.6939 12.1074C10.1988 12.1074 8.17606 11.3719 8.17606 10.4646" stroke="#6F78AA" stroke-width="1.23214" stroke-linecap="round" stroke-linejoin="round"/>
</svg>
