<svg width="20" height="21" viewBox="0 0 20 21" fill="none" xmlns="http://www.w3.org/2000/svg">
<g id="gift-01">
<path id="Icon" d="M9.64616 5.75083V18.6128M9.64616 5.75083H6.80389C6.3851 5.75083 5.98347 5.58145 5.68734 5.27994C5.39122 4.97842 5.22485 4.56949 5.22485 4.14309C5.22485 3.71669 5.39122 3.30775 5.68734 3.00624C5.98347 2.70473 6.3851 2.53534 6.80389 2.53534C9.01454 2.53534 9.64616 5.75083 9.64616 5.75083ZM9.64616 5.75083H12.4884C12.9072 5.75083 13.3088 5.58145 13.605 5.27994C13.9011 4.97842 14.0675 4.56949 14.0675 4.14309C14.0675 3.71669 13.9011 3.30775 13.605 3.00624C13.3088 2.70473 12.9072 2.53534 12.4884 2.53534C10.2778 2.53534 9.64616 5.75083 9.64616 5.75083ZM16.0771 9.7702V16.0404C16.0771 16.9408 16.0771 17.3911 15.9019 17.735C15.7478 18.0375 15.5018 18.2834 15.1993 18.4376C14.8554 18.6128 14.4052 18.6128 13.5048 18.6128L5.78757 18.6128C4.88714 18.6128 4.43693 18.6128 4.09301 18.4376C3.7905 18.2834 3.54454 18.0375 3.3904 17.735C3.21517 17.3911 3.21517 16.9408 3.21517 16.0404V9.7702M1.60742 7.03703L1.60742 8.484C1.60742 8.93422 1.60742 9.15932 1.69504 9.33128C1.77211 9.48254 1.89509 9.60551 2.04634 9.68259C2.2183 9.7702 2.44341 9.7702 2.89362 9.7702L16.3987 9.7702C16.8489 9.7702 17.074 9.7702 17.246 9.68259C17.3972 9.60552 17.5202 9.48254 17.5973 9.33128C17.6849 9.15932 17.6849 8.93422 17.6849 8.484V7.03703C17.6849 6.58682 17.6849 6.36172 17.5973 6.18976C17.5202 6.0385 17.3972 5.91552 17.246 5.83845C17.074 5.75083 16.8489 5.75083 16.3987 5.75083L2.89362 5.75083C2.44341 5.75083 2.2183 5.75083 2.04634 5.83845C1.89509 5.91552 1.77211 6.0385 1.69504 6.18976C1.60742 6.36171 1.60742 6.58682 1.60742 7.03703Z" stroke="#2775CA" stroke-linecap="round" stroke-linejoin="round"/>
</g>
</svg>
