<svg width="18" height="14" viewBox="0 0 18 14" fill="none" xmlns="http://www.w3.org/2000/svg">
<path d="M10.6423 4.53571H8.58873C7.90823 4.53571 7.35659 5.08736 7.35659 5.76786C7.35659 6.44835 7.90823 7 8.58873 7H9.41016C10.0907 7 10.6423 7.55165 10.6423 8.23214C10.6423 8.91264 10.0907 9.46429 9.41016 9.46429H7.35659M8.99944 3.71429V4.53571M8.99944 9.46429V10.2857M13.928 7H13.9362M4.07087 7H4.07909M0.785156 3.87857L0.785156 10.1214C0.785156 11.0415 0.785156 11.5016 0.964217 11.853C1.12172 12.1621 1.37305 12.4134 1.68217 12.5709C2.0336 12.75 2.49364 12.75 3.41373 12.75L14.5852 12.75C15.5052 12.75 15.9653 12.75 16.3167 12.5709C16.6258 12.4134 16.8772 12.1621 17.0347 11.853C17.2137 11.5016 17.2137 11.0415 17.2137 10.1214V3.87857C17.2137 2.95849 17.2137 2.49844 17.0347 2.14702C16.8772 1.83789 16.6258 1.58657 16.3167 1.42906C15.9653 1.25 15.5052 1.25 14.5852 1.25L3.41373 1.25C2.49364 1.25 2.0336 1.25 1.68217 1.42906C1.37305 1.58657 1.12172 1.83789 0.964217 2.14702C0.785156 2.49844 0.785156 2.95849 0.785156 3.87857ZM14.3387 7C14.3387 7.22683 14.1548 7.41071 13.928 7.41071C13.7012 7.41071 13.5173 7.22683 13.5173 7C13.5173 6.77317 13.7012 6.58929 13.928 6.58929C14.1548 6.58929 14.3387 6.77317 14.3387 7ZM4.48158 7C4.48158 7.22683 4.2977 7.41071 4.07087 7.41071C3.84404 7.41071 3.66016 7.22683 3.66016 7C3.66016 6.77317 3.84404 6.58929 4.07087 6.58929C4.2977 6.58929 4.48158 6.77317 4.48158 7Z" stroke="black" stroke-width="1.23214" stroke-linecap="round" stroke-linejoin="round"/>
</svg>
