<svg width="480" height="59" viewBox="0 0 480 59" fill="none" xmlns="http://www.w3.org/2000/svg">
<rect width="117" height="2" transform="matrix(-1 0 0 1 117 11)" fill="#15B088"/>
<rect width="324" height="2" transform="matrix(-1 0 0 1 433 11)" fill="#EAECF0"/>
<rect width="115" height="2" transform="matrix(-1 0 0 1 480 11)" fill="#EAECF0"/>
<g filter="url(#filter0_d_3978_17224)">
<g clip-path="url(#clip0_3978_17224)">
<rect x="111" y="6" width="12" height="12" rx="6" fill="white"/>
<rect x="111" y="6" width="12" height="12" rx="6" fill="#15B088"/>
<circle cx="117" cy="12" r="2" fill="white"/>
</g>
</g>
<path d="M94.737 34.1836H93.6291L96.8336 25.4563H97.9245L101.129 34.1836H100.021L97.4132 26.837H97.345L94.737 34.1836ZM95.1461 30.7745H99.612V31.712H95.1461V30.7745ZM102.352 36.6381V27.6381H103.324V28.6779H103.443C103.517 28.5643 103.619 28.4194 103.75 28.2433C103.883 28.0643 104.074 27.9052 104.321 27.766C104.571 27.6239 104.909 27.5529 105.335 27.5529C105.886 27.5529 106.372 27.6907 106.792 27.9663C107.213 28.2418 107.541 28.6325 107.777 29.1381C108.013 29.6438 108.131 30.2404 108.131 30.9279C108.131 31.6211 108.013 32.2219 107.777 32.7305C107.541 33.2362 107.214 33.6282 106.797 33.9066C106.379 34.1822 105.898 34.32 105.352 34.32C104.932 34.32 104.595 34.2504 104.342 34.1112C104.089 33.9691 103.895 33.8086 103.758 33.6296C103.622 33.4478 103.517 33.2972 103.443 33.1779H103.358V36.6381H102.352ZM103.341 30.9109C103.341 31.4052 103.413 31.8413 103.558 32.2191C103.703 32.5941 103.915 32.8881 104.193 33.1012C104.471 33.3114 104.812 33.4165 105.216 33.4165C105.636 33.4165 105.987 33.3058 106.268 33.0842C106.552 32.8597 106.765 32.5586 106.907 32.1808C107.052 31.8001 107.125 31.3768 107.125 30.9109C107.125 30.4506 107.054 30.0359 106.912 29.6665C106.773 29.2944 106.561 29.0004 106.277 28.7844C105.996 28.5657 105.642 28.4563 105.216 28.4563C104.807 28.4563 104.463 28.56 104.184 28.7674C103.906 28.9719 103.696 29.2589 103.554 29.6282C103.412 29.9947 103.341 30.4222 103.341 30.9109ZM109.665 36.6381V27.6381H110.636V28.6779H110.756C110.829 28.5643 110.932 28.4194 111.062 28.2433C111.196 28.0643 111.386 27.9052 111.633 27.766C111.883 27.6239 112.221 27.5529 112.648 27.5529C113.199 27.5529 113.684 27.6907 114.105 27.9663C114.525 28.2418 114.854 28.6325 115.089 29.1381C115.325 29.6438 115.443 30.2404 115.443 30.9279C115.443 31.6211 115.325 32.2219 115.089 32.7305C114.854 33.2362 114.527 33.6282 114.109 33.9066C113.692 34.1822 113.21 34.32 112.665 34.32C112.244 34.32 111.907 34.2504 111.655 34.1112C111.402 33.9691 111.207 33.8086 111.071 33.6296C110.934 33.4478 110.829 33.2972 110.756 33.1779H110.67V36.6381H109.665ZM110.653 30.9109C110.653 31.4052 110.726 31.8413 110.871 32.2191C111.015 32.5941 111.227 32.8881 111.506 33.1012C111.784 33.3114 112.125 33.4165 112.528 33.4165C112.949 33.4165 113.3 33.3058 113.581 33.0842C113.865 32.8597 114.078 32.5586 114.22 32.1808C114.365 31.8001 114.437 31.3768 114.437 30.9109C114.437 30.4506 114.366 30.0359 114.224 29.6665C114.085 29.2944 113.873 29.0004 113.589 28.7844C113.308 28.5657 112.954 28.4563 112.528 28.4563C112.119 28.4563 111.775 28.56 111.497 28.7674C111.219 28.9719 111.008 29.2589 110.866 29.6282C110.724 29.9947 110.653 30.4222 110.653 30.9109ZM116.977 34.1836V27.6381H117.949V28.6268H118.017C118.136 28.3029 118.352 28.0401 118.665 27.8384C118.977 27.6367 119.329 27.5359 119.721 27.5359C119.795 27.5359 119.888 27.5373 119.998 27.5401C120.109 27.543 120.193 27.5472 120.25 27.5529V28.5756C120.216 28.5671 120.138 28.5543 120.015 28.5373C119.896 28.5174 119.77 28.5075 119.636 28.5075C119.318 28.5075 119.034 28.5742 118.784 28.7077C118.537 28.8384 118.341 29.0202 118.196 29.2532C118.054 29.4833 117.983 29.7461 117.983 30.0415V34.1836H116.977ZM123.902 34.32C123.311 34.32 122.792 34.1793 122.346 33.8981C121.903 33.6168 121.557 33.2234 121.307 32.7177C121.059 32.212 120.936 31.6211 120.936 30.945C120.936 30.2631 121.059 29.668 121.307 29.1594C121.557 28.6509 121.903 28.256 122.346 27.9748C122.792 27.6935 123.311 27.5529 123.902 27.5529C124.493 27.5529 125.01 27.6935 125.453 27.9748C125.899 28.256 126.246 28.6509 126.493 29.1594C126.743 29.668 126.868 30.2631 126.868 30.945C126.868 31.6211 126.743 32.212 126.493 32.7177C126.246 33.2234 125.899 33.6168 125.453 33.8981C125.01 34.1793 124.493 34.32 123.902 34.32ZM123.902 33.4165C124.351 33.4165 124.72 33.3015 125.01 33.0714C125.3 32.8413 125.514 32.5387 125.653 32.1637C125.792 31.7887 125.862 31.3825 125.862 30.945C125.862 30.5075 125.792 30.0998 125.653 29.7219C125.514 29.3441 125.3 29.0387 125.01 28.8058C124.72 28.5728 124.351 28.4563 123.902 28.4563C123.453 28.4563 123.084 28.5728 122.794 28.8058C122.504 29.0387 122.29 29.3441 122.15 29.7219C122.011 30.0998 121.942 30.5075 121.942 30.945C121.942 31.3825 122.011 31.7887 122.15 32.1637C122.29 32.5387 122.504 32.8413 122.794 33.0714C123.084 33.3015 123.453 33.4165 123.902 33.4165ZM133.521 27.6381L131.1 34.1836H130.078L127.657 27.6381H128.748L130.555 32.854H130.623L132.43 27.6381H133.521ZM137.358 34.32C136.727 34.32 136.183 34.1808 135.726 33.9023C135.271 33.6211 134.921 33.229 134.673 32.7262C134.429 32.2205 134.307 31.6325 134.307 30.962C134.307 30.2915 134.429 29.7006 134.673 29.1893C134.921 28.6751 135.264 28.2745 135.705 27.9876C136.148 27.6978 136.665 27.5529 137.256 27.5529C137.597 27.5529 137.933 27.6097 138.266 27.7234C138.598 27.837 138.901 28.0217 139.173 28.2773C139.446 28.5302 139.664 28.8654 139.825 29.283C139.987 29.7006 140.068 30.2148 140.068 30.8256V31.2518H135.023V30.3825H139.046C139.046 30.0131 138.972 29.6836 138.824 29.3938C138.679 29.104 138.472 28.8754 138.202 28.7077C137.935 28.5401 137.619 28.4563 137.256 28.4563C136.855 28.4563 136.509 28.5558 136.216 28.7546C135.926 28.9506 135.703 29.2063 135.547 29.5217C135.391 29.837 135.313 30.1751 135.313 30.5359V31.1154C135.313 31.6097 135.398 32.0288 135.568 32.3725C135.742 32.7134 135.982 32.9734 136.289 33.1523C136.595 33.3285 136.952 33.4165 137.358 33.4165C137.622 33.4165 137.861 33.3796 138.074 33.3058C138.29 33.229 138.476 33.1154 138.632 32.9648C138.789 32.8114 138.909 32.6211 138.994 32.3938L139.966 32.6665C139.864 32.9961 139.692 33.2859 139.45 33.5359C139.209 33.783 138.911 33.9762 138.556 34.1154C138.2 34.2518 137.801 34.32 137.358 34.32ZM100.494 41.3938V40.4563H107.039V41.3938H104.295V49.1836H103.238V41.3938H100.494ZM110.244 49.32C109.653 49.32 109.134 49.1793 108.688 48.8981C108.245 48.6168 107.898 48.2234 107.648 47.7177C107.401 47.212 107.278 46.6211 107.278 45.945C107.278 45.2631 107.401 44.668 107.648 44.1594C107.898 43.6509 108.245 43.256 108.688 42.9748C109.134 42.6935 109.653 42.5529 110.244 42.5529C110.835 42.5529 111.352 42.6935 111.795 42.9748C112.241 43.256 112.587 43.6509 112.835 44.1594C113.085 44.668 113.21 45.2631 113.21 45.945C113.21 46.6211 113.085 47.212 112.835 47.7177C112.587 48.2234 112.241 48.6168 111.795 48.8981C111.352 49.1793 110.835 49.32 110.244 49.32ZM110.244 48.4165C110.692 48.4165 111.062 48.3015 111.352 48.0714C111.641 47.8413 111.856 47.5387 111.995 47.1637C112.134 46.7887 112.204 46.3825 112.204 45.945C112.204 45.5075 112.134 45.0998 111.995 44.7219C111.856 44.3441 111.641 44.0387 111.352 43.8058C111.062 43.5728 110.692 43.4563 110.244 43.4563C109.795 43.4563 109.425 43.5728 109.136 43.8058C108.846 44.0387 108.631 44.3441 108.492 44.7219C108.353 45.0998 108.283 45.5075 108.283 45.945C108.283 46.3825 108.353 46.7887 108.492 47.1637C108.631 47.5387 108.846 47.8413 109.136 48.0714C109.425 48.3015 109.795 48.4165 110.244 48.4165ZM115.682 46.7972L115.665 45.5529H115.87L118.733 42.6381H119.978L116.926 45.7234H116.841L115.682 46.7972ZM114.745 49.1836V40.4563H115.75V49.1836H114.745ZM118.904 49.1836L116.347 45.945L117.063 45.2461L120.182 49.1836H118.904ZM123.747 49.32C123.116 49.32 122.572 49.1808 122.115 48.9023C121.66 48.6211 121.309 48.229 121.062 47.7262C120.818 47.2205 120.696 46.6325 120.696 45.962C120.696 45.2915 120.818 44.7006 121.062 44.1893C121.309 43.6751 121.653 43.2745 122.093 42.9876C122.537 42.6978 123.054 42.5529 123.645 42.5529C123.985 42.5529 124.322 42.6097 124.654 42.7234C124.987 42.837 125.289 43.0217 125.562 43.2773C125.835 43.5302 126.052 43.8654 126.214 44.283C126.376 44.7006 126.457 45.2148 126.457 45.8256V46.2518H121.412V45.3825H125.434C125.434 45.0131 125.36 44.6836 125.213 44.3938C125.068 44.104 124.86 43.8754 124.591 43.7077C124.324 43.5401 124.008 43.4563 123.645 43.4563C123.244 43.4563 122.897 43.5558 122.605 43.7546C122.315 43.9506 122.092 44.2063 121.936 44.5217C121.779 44.837 121.701 45.1751 121.701 45.5359V46.1154C121.701 46.6097 121.787 47.0288 121.957 47.3725C122.13 47.7134 122.37 47.9734 122.677 48.1523C122.984 48.3285 123.341 48.4165 123.747 48.4165C124.011 48.4165 124.25 48.3796 124.463 48.3058C124.679 48.229 124.865 48.1154 125.021 47.9648C125.177 47.8114 125.298 47.6211 125.383 47.3938L126.355 47.6665C126.252 47.9961 126.081 48.2859 125.839 48.5359C125.598 48.783 125.299 48.9762 124.944 49.1154C124.589 49.2518 124.19 49.32 123.747 49.32ZM128.993 45.2461V49.1836H127.987V42.6381H128.958V43.6609H129.044C129.197 43.3285 129.43 43.0614 129.743 42.8597C130.055 42.6552 130.458 42.5529 130.953 42.5529C131.396 42.5529 131.784 42.6438 132.116 42.8256C132.449 43.0046 132.707 43.2773 132.892 43.6438C133.076 44.0075 133.169 44.4677 133.169 45.0245V49.1836H132.163V45.0927C132.163 44.5785 132.029 44.1779 131.762 43.891C131.495 43.6012 131.129 43.4563 130.663 43.4563C130.342 43.4563 130.055 43.5259 129.802 43.6651C129.552 43.8043 129.355 44.0075 129.21 44.2745C129.065 44.5415 128.993 44.8654 128.993 45.2461Z" fill="#344054"/>
<g clip-path="url(#clip1_3978_17224)">
<rect x="239" y="6" width="12" height="12" rx="6" fill="#F2F4F7"/>
<circle cx="245" cy="12" r="2" fill="white"/>
</g>
<path d="M230.591 28.1836H229.534C229.472 27.8796 229.363 27.6126 229.206 27.3825C229.053 27.1523 228.865 26.9592 228.644 26.8029C228.425 26.6438 228.182 26.5245 227.915 26.445C227.648 26.3654 227.37 26.3256 227.08 26.3256C226.551 26.3256 226.073 26.4592 225.644 26.7262C225.218 26.9933 224.878 27.3867 224.625 27.9066C224.375 28.4265 224.25 29.0643 224.25 29.82C224.25 30.5756 224.375 31.2134 224.625 31.7333C224.878 32.2532 225.218 32.6467 225.644 32.9137C226.073 33.1808 226.551 33.3143 227.08 33.3143C227.37 33.3143 227.648 33.2745 227.915 33.195C228.182 33.1154 228.425 32.9975 228.644 32.8413C228.865 32.6822 229.053 32.4876 229.206 32.2575C229.363 32.0245 229.472 31.7575 229.534 31.4563H230.591C230.512 31.9023 230.367 32.3015 230.157 32.6538C229.946 33.006 229.685 33.3058 229.373 33.5529C229.06 33.7972 228.709 33.9833 228.32 34.1112C227.934 34.239 227.52 34.3029 227.08 34.3029C226.336 34.3029 225.674 34.1211 225.094 33.7575C224.515 33.3938 224.059 32.8768 223.726 32.2063C223.394 31.5359 223.228 30.7404 223.228 29.82C223.228 28.8995 223.394 28.104 223.726 27.4336C224.059 26.7631 224.515 26.2461 225.094 25.8825C225.674 25.5188 226.336 25.337 227.08 25.337C227.52 25.337 227.934 25.4009 228.32 25.5288C228.709 25.6566 229.06 25.8441 229.373 26.0913C229.685 26.3356 229.946 26.6339 230.157 26.9862C230.367 27.3356 230.512 27.7347 230.591 28.1836ZM234.822 34.32C234.231 34.32 233.712 34.1793 233.266 33.8981C232.823 33.6168 232.477 33.2234 232.227 32.7177C231.979 32.212 231.856 31.6211 231.856 30.945C231.856 30.2631 231.979 29.668 232.227 29.1594C232.477 28.6509 232.823 28.256 233.266 27.9748C233.712 27.6935 234.231 27.5529 234.822 27.5529C235.413 27.5529 235.93 27.6935 236.373 27.9748C236.819 28.256 237.165 28.6509 237.413 29.1594C237.663 29.668 237.788 30.2631 237.788 30.945C237.788 31.6211 237.663 32.212 237.413 32.7177C237.165 33.2234 236.819 33.6168 236.373 33.8981C235.93 34.1793 235.413 34.32 234.822 34.32ZM234.822 33.4165C235.271 33.4165 235.64 33.3015 235.93 33.0714C236.219 32.8413 236.434 32.5387 236.573 32.1637C236.712 31.7887 236.782 31.3825 236.782 30.945C236.782 30.5075 236.712 30.0998 236.573 29.7219C236.434 29.3441 236.219 29.0387 235.93 28.8058C235.64 28.5728 235.271 28.4563 234.822 28.4563C234.373 28.4563 234.004 28.5728 233.714 28.8058C233.424 29.0387 233.21 29.3441 233.07 29.7219C232.931 30.0998 232.862 30.5075 232.862 30.945C232.862 31.3825 232.931 31.7887 233.07 32.1637C233.21 32.5387 233.424 32.8413 233.714 33.0714C234.004 33.3015 234.373 33.4165 234.822 33.4165ZM240.328 30.2461V34.1836H239.323V27.6381H240.294V28.6609H240.38C240.533 28.3285 240.766 28.0614 241.078 27.8597C241.391 27.6552 241.794 27.5529 242.289 27.5529C242.732 27.5529 243.12 27.6438 243.452 27.8256C243.784 28.0046 244.043 28.2773 244.228 28.6438C244.412 29.0075 244.505 29.4677 244.505 30.0245V34.1836H243.499V30.0927C243.499 29.5785 243.365 29.1779 243.098 28.891C242.831 28.6012 242.465 28.4563 241.999 28.4563C241.678 28.4563 241.391 28.5259 241.138 28.6651C240.888 28.8043 240.691 29.0075 240.546 29.2745C240.401 29.5415 240.328 29.8654 240.328 30.2461ZM249.257 27.6381V28.4904H245.729V27.6381H249.257ZM246.786 34.1836V26.7347C246.786 26.3597 246.874 26.0472 247.05 25.7972C247.226 25.5472 247.455 25.3597 247.736 25.2347C248.017 25.1097 248.314 25.0472 248.626 25.0472C248.874 25.0472 249.075 25.0671 249.232 25.1069C249.388 25.1467 249.504 25.1836 249.581 25.2177L249.291 26.087C249.24 26.07 249.169 26.0487 249.078 26.0231C248.99 25.9975 248.874 25.9847 248.729 25.9847C248.396 25.9847 248.156 26.0685 248.009 26.2362C247.864 26.4038 247.791 26.6495 247.791 26.9734V34.1836H246.786ZM250.667 34.1836V27.6381H251.672V34.1836H250.667ZM251.178 26.5472C250.982 26.5472 250.813 26.4805 250.671 26.3469C250.532 26.2134 250.462 26.0529 250.462 25.8654C250.462 25.6779 250.532 25.5174 250.671 25.3839C250.813 25.2504 250.982 25.1836 251.178 25.1836C251.374 25.1836 251.542 25.2504 251.681 25.3839C251.823 25.5174 251.894 25.6779 251.894 25.8654C251.894 26.0529 251.823 26.2134 251.681 26.3469C251.542 26.4805 251.374 26.5472 251.178 26.5472ZM253.514 34.1836V27.6381H254.486V28.6268H254.554C254.673 28.3029 254.889 28.0401 255.202 27.8384C255.514 27.6367 255.866 27.5359 256.259 27.5359C256.332 27.5359 256.425 27.5373 256.536 27.5401C256.646 27.543 256.73 27.5472 256.787 27.5529V28.5756C256.753 28.5671 256.675 28.5543 256.553 28.5373C256.433 28.5174 256.307 28.5075 256.173 28.5075C255.855 28.5075 255.571 28.5742 255.321 28.7077C255.074 28.8384 254.878 29.0202 254.733 29.2532C254.591 29.4833 254.52 29.7461 254.52 30.0415V34.1836H253.514ZM257.979 34.1836V27.6381H258.951V28.6609H259.036C259.172 28.3114 259.392 28.0401 259.696 27.8469C260 27.6509 260.365 27.5529 260.792 27.5529C261.223 27.5529 261.583 27.6509 261.87 27.8469C262.159 28.0401 262.385 28.3114 262.547 28.6609H262.615C262.783 28.3228 263.034 28.0543 263.37 27.8555C263.705 27.6538 264.107 27.5529 264.576 27.5529C265.161 27.5529 265.64 27.7362 266.012 28.1026C266.384 28.4663 266.57 29.033 266.57 29.8029V34.1836H265.564V29.8029C265.564 29.32 265.432 28.9748 265.168 28.7674C264.904 28.56 264.593 28.4563 264.235 28.4563C263.775 28.4563 263.418 28.5955 263.165 28.8739C262.912 29.1495 262.786 29.4989 262.786 29.9222V34.1836H261.763V29.7006C261.763 29.3285 261.642 29.0288 261.401 28.8015C261.159 28.5714 260.848 28.4563 260.468 28.4563C260.206 28.4563 259.962 28.5259 259.735 28.6651C259.51 28.8043 259.328 28.9975 259.189 29.2447C259.053 29.489 258.985 29.7717 258.985 30.0927V34.1836H257.979ZM212.386 41.3938V40.4563H218.932V41.3938H216.187V49.1836H215.131V41.3938H212.386ZM219.747 49.1836V42.6381H220.718V43.6268H220.786C220.906 43.3029 221.122 43.0401 221.434 42.8384C221.747 42.6367 222.099 42.5359 222.491 42.5359C222.565 42.5359 222.657 42.5373 222.768 42.5401C222.879 42.543 222.963 42.5472 223.019 42.5529V43.5756C222.985 43.5671 222.907 43.5543 222.785 43.5373C222.666 43.5174 222.539 43.5075 222.406 43.5075C222.088 43.5075 221.803 43.5742 221.553 43.7077C221.306 43.8384 221.11 44.0202 220.965 44.2532C220.823 44.4833 220.752 44.7461 220.752 45.0415V49.1836H219.747ZM226.138 49.337C225.723 49.337 225.346 49.2589 225.008 49.1026C224.67 48.9435 224.402 48.7148 224.203 48.4165C224.004 48.1154 223.905 47.7518 223.905 47.3256C223.905 46.9506 223.979 46.6467 224.126 46.4137C224.274 46.1779 224.471 45.9933 224.719 45.8597C224.966 45.7262 225.238 45.6268 225.537 45.5614C225.838 45.4933 226.14 45.4393 226.444 45.3995C226.842 45.3484 227.165 45.31 227.412 45.2844C227.662 45.256 227.844 45.2092 227.957 45.1438C228.074 45.0785 228.132 44.9648 228.132 44.8029V44.7688C228.132 44.3484 228.017 44.0217 227.787 43.7887C227.559 43.5558 227.214 43.4393 226.751 43.4393C226.271 43.4393 225.895 43.5444 225.622 43.7546C225.349 43.9648 225.157 44.1893 225.047 44.4279L224.092 44.087C224.263 43.6893 224.49 43.3796 224.774 43.158C225.061 42.9336 225.373 42.7773 225.711 42.6893C226.052 42.5984 226.388 42.5529 226.717 42.5529C226.927 42.5529 227.169 42.5785 227.442 42.6296C227.717 42.6779 227.983 42.7788 228.238 42.9322C228.497 43.0856 228.711 43.3171 228.882 43.6268C229.052 43.9364 229.138 44.3512 229.138 44.8711V49.1836H228.132V48.2972H228.081C228.013 48.4393 227.899 48.5913 227.74 48.7532C227.581 48.9151 227.369 49.0529 227.105 49.1665C226.841 49.2802 226.518 49.337 226.138 49.337ZM226.291 48.4336C226.689 48.4336 227.024 48.3555 227.297 48.1992C227.572 48.043 227.78 47.8413 227.919 47.5941C228.061 47.3469 228.132 47.087 228.132 46.8143V45.8938C228.089 45.945 227.996 45.9918 227.851 46.0344C227.709 46.0742 227.544 46.1097 227.356 46.141C227.172 46.1694 226.991 46.195 226.815 46.2177C226.642 46.2376 226.501 46.2546 226.393 46.2688C226.132 46.3029 225.888 46.3583 225.66 46.435C225.436 46.5089 225.254 46.6211 225.115 46.7717C224.979 46.9194 224.91 47.1211 224.91 47.3768C224.91 47.7262 225.04 47.9904 225.298 48.1694C225.559 48.3455 225.89 48.4336 226.291 48.4336ZM231.979 45.2461V49.1836H230.973V42.6381H231.945V43.6609H232.03C232.183 43.3285 232.416 43.0614 232.729 42.8597C233.041 42.6552 233.445 42.5529 233.939 42.5529C234.382 42.5529 234.77 42.6438 235.102 42.8256C235.435 43.0046 235.693 43.2773 235.878 43.6438C236.063 44.0075 236.155 44.4677 236.155 45.0245V49.1836H235.149V45.0927C235.149 44.5785 235.016 44.1779 234.749 43.891C234.482 43.6012 234.115 43.4563 233.649 43.4563C233.328 43.4563 233.041 43.5259 232.789 43.6651C232.539 43.8043 232.341 44.0075 232.196 44.2745C232.051 44.5415 231.979 44.8654 231.979 45.2461ZM242.629 44.104L241.726 44.3597C241.669 44.2092 241.585 44.0629 241.474 43.9208C241.366 43.7759 241.219 43.6566 241.031 43.5629C240.844 43.4691 240.604 43.4222 240.311 43.4222C239.91 43.4222 239.577 43.5146 239.309 43.6992C239.045 43.881 238.913 44.1126 238.913 44.3938C238.913 44.6438 239.004 44.8413 239.186 44.9862C239.368 45.131 239.652 45.2518 240.038 45.3484L241.01 45.587C241.595 45.729 242.031 45.9464 242.318 46.239C242.605 46.5288 242.748 46.9023 242.748 47.3597C242.748 47.7347 242.64 48.07 242.425 48.3654C242.211 48.6609 241.913 48.8938 241.53 49.0643C241.146 49.2347 240.7 49.32 240.192 49.32C239.524 49.32 238.971 49.1751 238.534 48.8853C238.096 48.5955 237.819 48.1722 237.703 47.6154L238.657 47.3768C238.748 47.729 238.92 47.9933 239.173 48.1694C239.429 48.3455 239.763 48.4336 240.175 48.4336C240.643 48.4336 241.015 48.3342 241.291 48.1353C241.569 47.9336 241.709 47.6921 241.709 47.4109C241.709 47.1836 241.629 46.9933 241.47 46.8398C241.311 46.6836 241.067 46.5671 240.737 46.4904L239.646 46.2347C239.047 46.0927 238.606 45.8725 238.325 45.5742C238.047 45.2731 237.907 44.8967 237.907 44.445C237.907 44.0756 238.011 43.7489 238.219 43.4648C238.429 43.1808 238.714 42.9577 239.075 42.7958C239.439 42.6339 239.851 42.5529 240.311 42.5529C240.959 42.5529 241.467 42.695 241.836 42.979C242.209 43.2631 242.473 43.6381 242.629 44.104ZM246.188 49.337C245.774 49.337 245.397 49.2589 245.059 49.1026C244.721 48.9435 244.453 48.7148 244.254 48.4165C244.055 48.1154 243.955 47.7518 243.955 47.3256C243.955 46.9506 244.029 46.6467 244.177 46.4137C244.325 46.1779 244.522 45.9933 244.769 45.8597C245.017 45.7262 245.289 45.6268 245.588 45.5614C245.889 45.4933 246.191 45.4393 246.495 45.3995C246.893 45.3484 247.215 45.31 247.463 45.2844C247.713 45.256 247.894 45.2092 248.008 45.1438C248.124 45.0785 248.183 44.9648 248.183 44.8029V44.7688C248.183 44.3484 248.068 44.0217 247.838 43.7887C247.61 43.5558 247.265 43.4393 246.802 43.4393C246.322 43.4393 245.945 43.5444 245.673 43.7546C245.4 43.9648 245.208 44.1893 245.097 44.4279L244.143 44.087C244.313 43.6893 244.541 43.3796 244.825 43.158C245.112 42.9336 245.424 42.7773 245.762 42.6893C246.103 42.5984 246.438 42.5529 246.768 42.5529C246.978 42.5529 247.22 42.5785 247.492 42.6296C247.768 42.6779 248.034 42.7788 248.289 42.9322C248.548 43.0856 248.762 43.3171 248.933 43.6268C249.103 43.9364 249.188 44.3512 249.188 44.8711V49.1836H248.183V48.2972H248.132C248.063 48.4393 247.95 48.5913 247.791 48.7532C247.632 48.9151 247.42 49.0529 247.156 49.1665C246.892 49.2802 246.569 49.337 246.188 49.337ZM246.342 48.4336C246.74 48.4336 247.075 48.3555 247.347 48.1992C247.623 48.043 247.83 47.8413 247.97 47.5941C248.112 47.3469 248.183 47.087 248.183 46.8143V45.8938C248.14 45.945 248.046 45.9918 247.901 46.0344C247.759 46.0742 247.595 46.1097 247.407 46.141C247.222 46.1694 247.042 46.195 246.866 46.2177C246.693 46.2376 246.552 46.2546 246.444 46.2688C246.183 46.3029 245.938 46.3583 245.711 46.435C245.487 46.5089 245.305 46.6211 245.166 46.7717C245.029 46.9194 244.961 47.1211 244.961 47.3768C244.961 47.7262 245.09 47.9904 245.349 48.1694C245.61 48.3455 245.941 48.4336 246.342 48.4336ZM253.683 49.32C253.069 49.32 252.541 49.1751 252.098 48.8853C251.655 48.5955 251.314 48.1964 251.075 47.6879C250.836 47.1793 250.717 46.5984 250.717 45.945C250.717 45.2802 250.839 44.6935 251.084 44.185C251.331 43.6737 251.675 43.2745 252.115 42.9876C252.558 42.6978 253.075 42.5529 253.666 42.5529C254.126 42.5529 254.541 42.6381 254.91 42.8086C255.28 42.979 255.582 43.2177 255.818 43.5245C256.054 43.8313 256.2 44.1893 256.257 44.5984H255.251C255.175 44.3001 255.004 44.0359 254.74 43.8058C254.479 43.5728 254.126 43.4563 253.683 43.4563C253.291 43.4563 252.947 43.5586 252.652 43.7631C252.359 43.9648 252.131 44.2504 251.966 44.6197C251.804 44.9862 251.723 45.4165 251.723 45.9109C251.723 46.4165 251.802 46.8569 251.961 47.2319C252.123 47.6069 252.351 47.8981 252.643 48.1055C252.939 48.3129 253.285 48.4165 253.683 48.4165C253.944 48.4165 254.182 48.3711 254.395 48.2802C254.608 48.1893 254.788 48.0586 254.936 47.8881C255.084 47.7177 255.189 47.5131 255.251 47.2745H256.257C256.2 47.6609 256.059 48.0089 255.835 48.3185C255.613 48.6254 255.319 48.8697 254.953 49.0515C254.589 49.2305 254.166 49.32 253.683 49.32ZM260.574 42.6381V43.4904H257.182V42.6381H260.574ZM258.17 41.07H259.176V47.3086C259.176 47.5927 259.217 47.8058 259.3 47.9478C259.385 48.087 259.493 48.1808 259.623 48.229C259.757 48.2745 259.898 48.2972 260.045 48.2972C260.156 48.2972 260.247 48.2915 260.318 48.2802C260.389 48.266 260.446 48.2546 260.488 48.2461L260.693 49.1495C260.625 49.1751 260.53 49.2006 260.407 49.2262C260.285 49.2546 260.131 49.2688 259.943 49.2688C259.659 49.2688 259.381 49.2077 259.108 49.0856C258.838 48.9634 258.613 48.7773 258.434 48.5273C258.258 48.2773 258.17 47.962 258.17 47.5813V41.07ZM262.086 49.1836V42.6381H263.092V49.1836H262.086ZM262.598 41.5472C262.402 41.5472 262.233 41.4805 262.091 41.3469C261.952 41.2134 261.882 41.0529 261.882 40.8654C261.882 40.6779 261.952 40.5174 262.091 40.3839C262.233 40.2504 262.402 40.1836 262.598 40.1836C262.794 40.1836 262.961 40.2504 263.101 40.3839C263.243 40.5174 263.314 40.6779 263.314 40.8654C263.314 41.0529 263.243 41.2134 263.101 41.3469C262.961 41.4805 262.794 41.5472 262.598 41.5472ZM267.593 49.32C267.002 49.32 266.484 49.1793 266.038 48.8981C265.595 48.6168 265.248 48.2234 264.998 47.7177C264.751 47.212 264.627 46.6211 264.627 45.945C264.627 45.2631 264.751 44.668 264.998 44.1594C265.248 43.6509 265.595 43.256 266.038 42.9748C266.484 42.6935 267.002 42.5529 267.593 42.5529C268.184 42.5529 268.701 42.6935 269.144 42.9748C269.59 43.256 269.937 43.6509 270.184 44.1594C270.434 44.668 270.559 45.2631 270.559 45.945C270.559 46.6211 270.434 47.212 270.184 47.7177C269.937 48.2234 269.59 48.6168 269.144 48.8981C268.701 49.1793 268.184 49.32 267.593 49.32ZM267.593 48.4165C268.042 48.4165 268.411 48.3015 268.701 48.0714C268.991 47.8413 269.205 47.5387 269.345 47.1637C269.484 46.7887 269.553 46.3825 269.553 45.945C269.553 45.5075 269.484 45.0998 269.345 44.7219C269.205 44.3441 268.991 44.0387 268.701 43.8058C268.411 43.5728 268.042 43.4563 267.593 43.4563C267.144 43.4563 266.775 43.5728 266.485 43.8058C266.195 44.0387 265.981 44.3441 265.842 44.7219C265.703 45.0998 265.633 45.5075 265.633 45.945C265.633 46.3825 265.703 46.7887 265.842 47.1637C265.981 47.5387 266.195 47.8413 266.485 48.0714C266.775 48.3015 267.144 48.4165 267.593 48.4165ZM273.1 45.2461V49.1836H272.094V42.6381H273.066V43.6609H273.151C273.305 43.3285 273.537 43.0614 273.85 42.8597C274.162 42.6552 274.566 42.5529 275.06 42.5529C275.503 42.5529 275.891 42.6438 276.224 42.8256C276.556 43.0046 276.814 43.2773 276.999 43.6438C277.184 44.0075 277.276 44.4677 277.276 45.0245V49.1836H276.27V45.0927C276.27 44.5785 276.137 44.1779 275.87 43.891C275.603 43.6012 275.236 43.4563 274.77 43.4563C274.449 43.4563 274.162 43.5259 273.91 43.6651C273.66 43.8043 273.462 44.0075 273.317 44.2745C273.172 44.5415 273.1 44.8654 273.1 45.2461Z" fill="#344054"/>
<g clip-path="url(#clip2_3978_17224)">
<rect x="367" y="6" width="12" height="12" rx="6" fill="#F2F4F7"/>
<circle cx="373" cy="12" r="2" fill="white"/>
</g>
<path d="M340.386 25.3938V24.4563H346.932V25.3938H344.187V33.1836H343.131V25.3938H340.386ZM347.747 33.1836V26.6381H348.718V27.6268H348.786C348.906 27.3029 349.122 27.0401 349.434 26.8384C349.747 26.6367 350.099 26.5359 350.491 26.5359C350.565 26.5359 350.657 26.5373 350.768 26.5401C350.879 26.543 350.963 26.5472 351.019 26.5529V27.5756C350.985 27.5671 350.907 27.5543 350.785 27.5373C350.666 27.5174 350.539 27.5075 350.406 27.5075C350.088 27.5075 349.803 27.5742 349.553 27.7077C349.306 27.8384 349.11 28.0202 348.965 28.2532C348.823 28.4833 348.752 28.7461 348.752 29.0415V33.1836H347.747ZM354.138 33.337C353.723 33.337 353.346 33.2589 353.008 33.1026C352.67 32.9435 352.402 32.7148 352.203 32.4165C352.004 32.1154 351.905 31.7518 351.905 31.3256C351.905 30.9506 351.979 30.6467 352.126 30.4137C352.274 30.1779 352.471 29.9933 352.719 29.8597C352.966 29.7262 353.238 29.6268 353.537 29.5614C353.838 29.4933 354.14 29.4393 354.444 29.3995C354.842 29.3484 355.165 29.31 355.412 29.2844C355.662 29.256 355.844 29.2092 355.957 29.1438C356.074 29.0785 356.132 28.9648 356.132 28.8029V28.7688C356.132 28.3484 356.017 28.0217 355.787 27.7887C355.559 27.5558 355.214 27.4393 354.751 27.4393C354.271 27.4393 353.895 27.5444 353.622 27.7546C353.349 27.9648 353.157 28.1893 353.047 28.4279L352.092 28.087C352.263 27.6893 352.49 27.3796 352.774 27.158C353.061 26.9336 353.373 26.7773 353.711 26.6893C354.052 26.5984 354.388 26.5529 354.717 26.5529C354.927 26.5529 355.169 26.5785 355.442 26.6296C355.717 26.6779 355.983 26.7788 356.238 26.9322C356.497 27.0856 356.711 27.3171 356.882 27.6268C357.052 27.9364 357.138 28.3512 357.138 28.8711V33.1836H356.132V32.2972H356.081C356.013 32.4393 355.899 32.5913 355.74 32.7532C355.581 32.9151 355.369 33.0529 355.105 33.1665C354.841 33.2802 354.518 33.337 354.138 33.337ZM354.291 32.4336C354.689 32.4336 355.024 32.3555 355.297 32.1992C355.572 32.043 355.78 31.8413 355.919 31.5941C356.061 31.3469 356.132 31.087 356.132 30.8143V29.8938C356.089 29.945 355.996 29.9918 355.851 30.0344C355.709 30.0742 355.544 30.1097 355.356 30.141C355.172 30.1694 354.991 30.195 354.815 30.2177C354.642 30.2376 354.501 30.2546 354.393 30.2688C354.132 30.3029 353.888 30.3583 353.66 30.435C353.436 30.5089 353.254 30.6211 353.115 30.7717C352.979 30.9194 352.91 31.1211 352.91 31.3768C352.91 31.7262 353.04 31.9904 353.298 32.1694C353.559 32.3455 353.89 32.4336 354.291 32.4336ZM359.979 29.2461V33.1836H358.973V26.6381H359.945V27.6609H360.03C360.183 27.3285 360.416 27.0614 360.729 26.8597C361.041 26.6552 361.445 26.5529 361.939 26.5529C362.382 26.5529 362.77 26.6438 363.102 26.8256C363.435 27.0046 363.693 27.2773 363.878 27.6438C364.063 28.0075 364.155 28.4677 364.155 29.0245V33.1836H363.149V29.0927C363.149 28.5785 363.016 28.1779 362.749 27.891C362.482 27.6012 362.115 27.4563 361.649 27.4563C361.328 27.4563 361.041 27.5259 360.789 27.6651C360.539 27.8043 360.341 28.0075 360.196 28.2745C360.051 28.5415 359.979 28.8654 359.979 29.2461ZM370.629 28.104L369.726 28.3597C369.669 28.2092 369.585 28.0629 369.474 27.9208C369.366 27.7759 369.219 27.6566 369.031 27.5629C368.844 27.4691 368.604 27.4222 368.311 27.4222C367.91 27.4222 367.577 27.5146 367.309 27.6992C367.045 27.881 366.913 28.1126 366.913 28.3938C366.913 28.6438 367.004 28.8413 367.186 28.9862C367.368 29.131 367.652 29.2518 368.038 29.3484L369.01 29.587C369.595 29.729 370.031 29.9464 370.318 30.239C370.605 30.5288 370.748 30.9023 370.748 31.3597C370.748 31.7347 370.64 32.07 370.425 32.3654C370.211 32.6609 369.913 32.8938 369.53 33.0643C369.146 33.2347 368.7 33.32 368.192 33.32C367.524 33.32 366.971 33.1751 366.534 32.8853C366.096 32.5955 365.819 32.1722 365.703 31.6154L366.657 31.3768C366.748 31.729 366.92 31.9933 367.173 32.1694C367.429 32.3455 367.763 32.4336 368.175 32.4336C368.643 32.4336 369.015 32.3342 369.291 32.1353C369.569 31.9336 369.709 31.6921 369.709 31.4109C369.709 31.1836 369.629 30.9933 369.47 30.8398C369.311 30.6836 369.067 30.5671 368.737 30.4904L367.646 30.2347C367.047 30.0927 366.606 29.8725 366.325 29.5742C366.047 29.2731 365.907 28.8967 365.907 28.445C365.907 28.0756 366.011 27.7489 366.219 27.4648C366.429 27.1808 366.714 26.9577 367.075 26.7958C367.439 26.6339 367.851 26.5529 368.311 26.5529C368.959 26.5529 369.467 26.695 369.836 26.979C370.209 27.2631 370.473 27.6381 370.629 28.104ZM374.188 33.337C373.774 33.337 373.397 33.2589 373.059 33.1026C372.721 32.9435 372.453 32.7148 372.254 32.4165C372.055 32.1154 371.955 31.7518 371.955 31.3256C371.955 30.9506 372.029 30.6467 372.177 30.4137C372.325 30.1779 372.522 29.9933 372.769 29.8597C373.017 29.7262 373.289 29.6268 373.588 29.5614C373.889 29.4933 374.191 29.4393 374.495 29.3995C374.893 29.3484 375.215 29.31 375.463 29.2844C375.713 29.256 375.894 29.2092 376.008 29.1438C376.124 29.0785 376.183 28.9648 376.183 28.8029V28.7688C376.183 28.3484 376.068 28.0217 375.838 27.7887C375.61 27.5558 375.265 27.4393 374.802 27.4393C374.322 27.4393 373.945 27.5444 373.673 27.7546C373.4 27.9648 373.208 28.1893 373.097 28.4279L372.143 28.087C372.313 27.6893 372.541 27.3796 372.825 27.158C373.112 26.9336 373.424 26.7773 373.762 26.6893C374.103 26.5984 374.438 26.5529 374.768 26.5529C374.978 26.5529 375.22 26.5785 375.492 26.6296C375.768 26.6779 376.034 26.7788 376.289 26.9322C376.548 27.0856 376.762 27.3171 376.933 27.6268C377.103 27.9364 377.188 28.3512 377.188 28.8711V33.1836H376.183V32.2972H376.132C376.063 32.4393 375.95 32.5913 375.791 32.7532C375.632 32.9151 375.42 33.0529 375.156 33.1665C374.892 33.2802 374.569 33.337 374.188 33.337ZM374.342 32.4336C374.74 32.4336 375.075 32.3555 375.347 32.1992C375.623 32.043 375.83 31.8413 375.97 31.5941C376.112 31.3469 376.183 31.087 376.183 30.8143V29.8938C376.14 29.945 376.046 29.9918 375.901 30.0344C375.759 30.0742 375.595 30.1097 375.407 30.141C375.222 30.1694 375.042 30.195 374.866 30.2177C374.693 30.2376 374.552 30.2546 374.444 30.2688C374.183 30.3029 373.938 30.3583 373.711 30.435C373.487 30.5089 373.305 30.6211 373.166 30.7717C373.029 30.9194 372.961 31.1211 372.961 31.3768C372.961 31.7262 373.09 31.9904 373.349 32.1694C373.61 32.3455 373.941 32.4336 374.342 32.4336ZM381.683 33.32C381.069 33.32 380.541 33.1751 380.098 32.8853C379.655 32.5955 379.314 32.1964 379.075 31.6879C378.836 31.1793 378.717 30.5984 378.717 29.945C378.717 29.2802 378.839 28.6935 379.084 28.185C379.331 27.6737 379.675 27.2745 380.115 26.9876C380.558 26.6978 381.075 26.5529 381.666 26.5529C382.126 26.5529 382.541 26.6381 382.91 26.8086C383.28 26.979 383.582 27.2177 383.818 27.5245C384.054 27.8313 384.2 28.1893 384.257 28.5984H383.251C383.175 28.3001 383.004 28.0359 382.74 27.8058C382.479 27.5728 382.126 27.4563 381.683 27.4563C381.291 27.4563 380.947 27.5586 380.652 27.7631C380.359 27.9648 380.131 28.2504 379.966 28.6197C379.804 28.9862 379.723 29.4165 379.723 29.9109C379.723 30.4165 379.802 30.8569 379.961 31.2319C380.123 31.6069 380.351 31.8981 380.643 32.1055C380.939 32.3129 381.285 32.4165 381.683 32.4165C381.944 32.4165 382.182 32.3711 382.395 32.2802C382.608 32.1893 382.788 32.0586 382.936 31.8881C383.084 31.7177 383.189 31.5131 383.251 31.2745H384.257C384.2 31.6609 384.059 32.0089 383.835 32.3185C383.613 32.6254 383.319 32.8697 382.953 33.0515C382.589 33.2305 382.166 33.32 381.683 33.32ZM388.574 26.6381V27.4904H385.182V26.6381H388.574ZM386.17 25.07H387.176V31.3086C387.176 31.5927 387.217 31.8058 387.3 31.9478C387.385 32.087 387.493 32.1808 387.623 32.229C387.757 32.2745 387.898 32.2972 388.045 32.2972C388.156 32.2972 388.247 32.2915 388.318 32.2802C388.389 32.266 388.446 32.2546 388.488 32.2461L388.693 33.1495C388.625 33.1751 388.53 33.2006 388.407 33.2262C388.285 33.2546 388.131 33.2688 387.943 33.2688C387.659 33.2688 387.381 33.2077 387.108 33.0856C386.838 32.9634 386.613 32.7773 386.434 32.5273C386.258 32.2773 386.17 31.962 386.17 31.5813V25.07ZM390.086 33.1836V26.6381H391.092V33.1836H390.086ZM390.598 25.5472C390.402 25.5472 390.233 25.4805 390.091 25.3469C389.952 25.2134 389.882 25.0529 389.882 24.8654C389.882 24.6779 389.952 24.5174 390.091 24.3839C390.233 24.2504 390.402 24.1836 390.598 24.1836C390.794 24.1836 390.961 24.2504 391.101 24.3839C391.243 24.5174 391.314 24.6779 391.314 24.8654C391.314 25.0529 391.243 25.2134 391.101 25.3469C390.961 25.4805 390.794 25.5472 390.598 25.5472ZM395.593 33.32C395.002 33.32 394.484 33.1793 394.038 32.8981C393.595 32.6168 393.248 32.2234 392.998 31.7177C392.751 31.212 392.627 30.6211 392.627 29.945C392.627 29.2631 392.751 28.668 392.998 28.1594C393.248 27.6509 393.595 27.256 394.038 26.9748C394.484 26.6935 395.002 26.5529 395.593 26.5529C396.184 26.5529 396.701 26.6935 397.144 26.9748C397.59 27.256 397.937 27.6509 398.184 28.1594C398.434 28.668 398.559 29.2631 398.559 29.945C398.559 30.6211 398.434 31.212 398.184 31.7177C397.937 32.2234 397.59 32.6168 397.144 32.8981C396.701 33.1793 396.184 33.32 395.593 33.32ZM395.593 32.4165C396.042 32.4165 396.411 32.3015 396.701 32.0714C396.991 31.8413 397.205 31.5387 397.345 31.1637C397.484 30.7887 397.553 30.3825 397.553 29.945C397.553 29.5075 397.484 29.0998 397.345 28.7219C397.205 28.3441 396.991 28.0387 396.701 27.8058C396.411 27.5728 396.042 27.4563 395.593 27.4563C395.144 27.4563 394.775 27.5728 394.485 27.8058C394.195 28.0387 393.981 28.3441 393.842 28.7219C393.703 29.0998 393.633 29.5075 393.633 29.945C393.633 30.3825 393.703 30.7887 393.842 31.1637C393.981 31.5387 394.195 31.8413 394.485 32.0714C394.775 32.3015 395.144 32.4165 395.593 32.4165ZM401.1 29.2461V33.1836H400.094V26.6381H401.066V27.6609H401.151C401.305 27.3285 401.537 27.0614 401.85 26.8597C402.162 26.6552 402.566 26.5529 403.06 26.5529C403.503 26.5529 403.891 26.6438 404.224 26.8256C404.556 27.0046 404.814 27.2773 404.999 27.6438C405.184 28.0075 405.276 28.4677 405.276 29.0245V33.1836H404.27V29.0927C404.27 28.5785 404.137 28.1779 403.87 27.891C403.603 27.6012 403.236 27.4563 402.77 27.4563C402.449 27.4563 402.162 27.5259 401.91 27.6651C401.66 27.8043 401.462 28.0075 401.317 28.2745C401.172 28.5415 401.1 28.8654 401.1 29.2461ZM349.667 41.6381C349.616 41.2063 349.409 40.8711 349.045 40.6325C348.682 40.3938 348.236 40.2745 347.707 40.2745C347.321 40.2745 346.983 40.337 346.693 40.462C346.406 40.587 346.182 40.7589 346.02 40.9776C345.861 41.1964 345.781 41.445 345.781 41.7234C345.781 41.9563 345.836 42.1566 345.947 42.3242C346.061 42.489 346.206 42.6268 346.382 42.7376C346.558 42.8455 346.743 42.935 346.936 43.006C347.129 43.0742 347.307 43.1296 347.469 43.1722L348.355 43.4109C348.582 43.4705 348.835 43.5529 349.113 43.658C349.395 43.7631 349.663 43.9066 349.919 44.0884C350.177 44.2674 350.39 44.4975 350.558 44.7788C350.726 45.06 350.809 45.4052 350.809 45.8143C350.809 46.2859 350.686 46.712 350.439 47.0927C350.194 47.4734 349.836 47.7759 349.365 48.0004C348.896 48.2248 348.327 48.337 347.656 48.337C347.031 48.337 346.49 48.2362 346.032 48.0344C345.578 47.8327 345.22 47.5515 344.959 47.1907C344.7 46.8299 344.554 46.4109 344.52 45.9336H345.611C345.639 46.2631 345.75 46.5359 345.943 46.7518C346.139 46.9648 346.386 47.1239 346.684 47.229C346.986 47.3313 347.309 47.3825 347.656 47.3825C348.059 47.3825 348.422 47.3171 348.743 47.1864C349.064 47.0529 349.318 46.8683 349.506 46.6325C349.693 46.3938 349.787 46.1154 349.787 45.7972C349.787 45.5075 349.706 45.2717 349.544 45.0898C349.382 44.908 349.169 44.7603 348.905 44.6467C348.64 44.533 348.355 44.4336 348.048 44.3484L346.974 44.0415C346.292 43.8455 345.753 43.5657 345.355 43.2021C344.957 42.8384 344.758 42.3626 344.758 41.7745C344.758 41.2859 344.89 40.8597 345.155 40.4961C345.422 40.1296 345.78 39.8455 346.229 39.6438C346.68 39.4393 347.184 39.337 347.741 39.337C348.304 39.337 348.804 39.4379 349.241 39.6396C349.679 39.8384 350.025 40.1112 350.281 40.4577C350.54 40.8043 350.676 41.1978 350.69 41.6381H349.667ZM356.536 45.5075V41.6381H357.541V48.1836H356.536V47.0756H356.468C356.314 47.408 356.075 47.6907 355.752 47.9237C355.428 48.1538 355.019 48.2688 354.524 48.2688C354.115 48.2688 353.752 48.1793 353.433 48.0004C353.115 47.8185 352.865 47.5458 352.683 47.1822C352.502 46.8157 352.411 46.354 352.411 45.7972V41.6381H353.416V45.729C353.416 46.2063 353.55 46.587 353.817 46.8711C354.087 47.1552 354.431 47.2972 354.848 47.2972C355.098 47.2972 355.352 47.2333 355.611 47.1055C355.872 46.9776 356.091 46.7816 356.267 46.5174C356.446 46.2532 356.536 45.9165 356.536 45.5075ZM362.042 48.32C361.429 48.32 360.9 48.1751 360.457 47.8853C360.014 47.5955 359.673 47.1964 359.434 46.6879C359.196 46.1793 359.077 45.5984 359.077 44.945C359.077 44.2802 359.199 43.6935 359.443 43.185C359.69 42.6737 360.034 42.2745 360.474 41.9876C360.917 41.6978 361.434 41.5529 362.025 41.5529C362.486 41.5529 362.9 41.6381 363.27 41.8086C363.639 41.979 363.942 42.2177 364.177 42.5245C364.413 42.8313 364.559 43.1893 364.616 43.5984H363.611C363.534 43.3001 363.363 43.0359 363.099 42.8058C362.838 42.5728 362.486 42.4563 362.042 42.4563C361.65 42.4563 361.307 42.5586 361.011 42.7631C360.719 42.9648 360.49 43.2504 360.325 43.6197C360.163 43.9862 360.082 44.4165 360.082 44.9109C360.082 45.4165 360.162 45.8569 360.321 46.2319C360.483 46.6069 360.71 46.8981 361.003 47.1055C361.298 47.3129 361.645 47.4165 362.042 47.4165C362.304 47.4165 362.541 47.3711 362.754 47.2802C362.967 47.1893 363.148 47.0586 363.295 46.8881C363.443 46.7177 363.548 46.5131 363.611 46.2745H364.616C364.559 46.6609 364.419 47.0089 364.194 47.3185C363.973 47.6254 363.679 47.8697 363.312 48.0515C362.949 48.2305 362.525 48.32 362.042 48.32ZM368.746 48.32C368.132 48.32 367.604 48.1751 367.16 47.8853C366.717 47.5955 366.376 47.1964 366.138 46.6879C365.899 46.1793 365.78 45.5984 365.78 44.945C365.78 44.2802 365.902 43.6935 366.146 43.185C366.393 42.6737 366.737 42.2745 367.177 41.9876C367.621 41.6978 368.138 41.5529 368.729 41.5529C369.189 41.5529 369.604 41.6381 369.973 41.8086C370.342 41.979 370.645 42.2177 370.881 42.5245C371.116 42.8313 371.263 43.1893 371.319 43.5984H370.314C370.237 43.3001 370.067 43.0359 369.802 42.8058C369.541 42.5728 369.189 42.4563 368.746 42.4563C368.354 42.4563 368.01 42.5586 367.714 42.7631C367.422 42.9648 367.193 43.2504 367.028 43.6197C366.866 43.9862 366.785 44.4165 366.785 44.9109C366.785 45.4165 366.865 45.8569 367.024 46.2319C367.186 46.6069 367.413 46.8981 367.706 47.1055C368.001 47.3129 368.348 47.4165 368.746 47.4165C369.007 47.4165 369.244 47.3711 369.457 47.2802C369.67 47.1893 369.851 47.0586 369.998 46.8881C370.146 46.7177 370.251 46.5131 370.314 46.2745H371.319C371.263 46.6609 371.122 47.0089 370.898 47.3185C370.676 47.6254 370.382 47.8697 370.015 48.0515C369.652 48.2305 369.229 48.32 368.746 48.32ZM375.534 48.32C374.903 48.32 374.359 48.1808 373.902 47.9023C373.447 47.6211 373.096 47.229 372.849 46.7262C372.605 46.2205 372.483 45.6325 372.483 44.962C372.483 44.2915 372.605 43.7006 372.849 43.1893C373.096 42.6751 373.44 42.2745 373.881 41.9876C374.324 41.6978 374.841 41.5529 375.432 41.5529C375.773 41.5529 376.109 41.6097 376.442 41.7234C376.774 41.837 377.077 42.0217 377.349 42.2773C377.622 42.5302 377.839 42.8654 378.001 43.283C378.163 43.7006 378.244 44.2148 378.244 44.8256V45.2518H373.199V44.3825H377.221C377.221 44.0131 377.148 43.6836 377 43.3938C376.855 43.104 376.648 42.8754 376.378 42.7077C376.111 42.5401 375.795 42.4563 375.432 42.4563C375.031 42.4563 374.684 42.5558 374.392 42.7546C374.102 42.9506 373.879 43.2063 373.723 43.5217C373.567 43.837 373.488 44.1751 373.488 44.5359V45.1154C373.488 45.6097 373.574 46.0288 373.744 46.3725C373.917 46.7134 374.157 46.9734 374.464 47.1523C374.771 47.3285 375.128 47.4165 375.534 47.4165C375.798 47.4165 376.037 47.3796 376.25 47.3058C376.466 47.229 376.652 47.1154 376.808 46.9648C376.964 46.8114 377.085 46.6211 377.17 46.3938L378.142 46.6665C378.04 46.9961 377.868 47.2859 377.626 47.5359C377.385 47.783 377.086 47.9762 376.731 48.1154C376.376 48.2518 375.977 48.32 375.534 48.32ZM384.41 43.104L383.507 43.3597C383.45 43.2092 383.366 43.0629 383.256 42.9208C383.148 42.7759 383 42.6566 382.812 42.5629C382.625 42.4691 382.385 42.4222 382.092 42.4222C381.692 42.4222 381.358 42.5146 381.091 42.6992C380.827 42.881 380.694 43.1126 380.694 43.3938C380.694 43.6438 380.785 43.8413 380.967 43.9862C381.149 44.131 381.433 44.2518 381.819 44.3484L382.791 44.587C383.376 44.729 383.812 44.9464 384.099 45.239C384.386 45.5288 384.53 45.9023 384.53 46.3597C384.53 46.7347 384.422 47.07 384.206 47.3654C383.993 47.6609 383.694 47.8938 383.311 48.0643C382.927 48.2347 382.481 48.32 381.973 48.32C381.305 48.32 380.753 48.1751 380.315 47.8853C379.878 47.5955 379.601 47.1722 379.484 46.6154L380.439 46.3768C380.53 46.729 380.702 46.9933 380.954 47.1694C381.21 47.3455 381.544 47.4336 381.956 47.4336C382.425 47.4336 382.797 47.3342 383.072 47.1353C383.351 46.9336 383.49 46.6921 383.49 46.4109C383.49 46.1836 383.41 45.9933 383.251 45.8398C383.092 45.6836 382.848 45.5671 382.518 45.4904L381.427 45.2347C380.828 45.0927 380.388 44.8725 380.106 44.5742C379.828 44.2731 379.689 43.8967 379.689 43.445C379.689 43.0756 379.792 42.7489 380 42.4648C380.21 42.1808 380.496 41.9577 380.856 41.7958C381.22 41.6339 381.632 41.5529 382.092 41.5529C382.74 41.5529 383.248 41.695 383.618 41.979C383.99 42.2631 384.254 42.6381 384.41 43.104ZM390.68 43.104L389.776 43.3597C389.72 43.2092 389.636 43.0629 389.525 42.9208C389.417 42.7759 389.269 42.6566 389.082 42.5629C388.894 42.4691 388.654 42.4222 388.362 42.4222C387.961 42.4222 387.627 42.5146 387.36 42.6992C387.096 42.881 386.964 43.1126 386.964 43.3938C386.964 43.6438 387.055 43.8413 387.237 43.9862C387.419 44.131 387.703 44.2518 388.089 44.3484L389.061 44.587C389.646 44.729 390.082 44.9464 390.369 45.239C390.656 45.5288 390.799 45.9023 390.799 46.3597C390.799 46.7347 390.691 47.07 390.475 47.3654C390.262 47.6609 389.964 47.8938 389.58 48.0643C389.197 48.2347 388.751 48.32 388.242 48.32C387.575 48.32 387.022 48.1751 386.585 47.8853C386.147 47.5955 385.87 47.1722 385.754 46.6154L386.708 46.3768C386.799 46.729 386.971 46.9933 387.224 47.1694C387.48 47.3455 387.813 47.4336 388.225 47.4336C388.694 47.4336 389.066 47.3342 389.342 47.1353C389.62 46.9336 389.759 46.6921 389.759 46.4109C389.759 46.1836 389.68 45.9933 389.521 45.8398C389.362 45.6836 389.117 45.5671 388.788 45.4904L387.697 45.2347C387.097 45.0927 386.657 44.8725 386.376 44.5742C386.097 44.2731 385.958 43.8967 385.958 43.445C385.958 43.0756 386.062 42.7489 386.269 42.4648C386.48 42.1808 386.765 41.9577 387.126 41.7958C387.49 41.6339 387.901 41.5529 388.362 41.5529C389.009 41.5529 389.518 41.695 389.887 41.979C390.259 42.2631 390.524 42.6381 390.68 43.104ZM395.228 41.6381V42.4904H391.699V41.6381H395.228ZM392.756 48.1836V40.7347C392.756 40.3597 392.844 40.0472 393.02 39.7972C393.197 39.5472 393.425 39.3597 393.706 39.2347C393.988 39.1097 394.285 39.0472 394.597 39.0472C394.844 39.0472 395.046 39.0671 395.202 39.1069C395.358 39.1467 395.475 39.1836 395.552 39.2177L395.262 40.087C395.211 40.07 395.14 40.0487 395.049 40.0231C394.961 39.9975 394.844 39.9847 394.699 39.9847C394.367 39.9847 394.127 40.0685 393.979 40.2362C393.834 40.4038 393.762 40.6495 393.762 40.9734V48.1836H392.756ZM400.762 45.5075V41.6381H401.768V48.1836H400.762V47.0756H400.694C400.541 47.408 400.302 47.6907 399.978 47.9237C399.654 48.1538 399.245 48.2688 398.751 48.2688C398.342 48.2688 397.978 48.1793 397.66 48.0004C397.342 47.8185 397.092 47.5458 396.91 47.1822C396.728 46.8157 396.637 46.354 396.637 45.7972V41.6381H397.643V45.729C397.643 46.2063 397.776 46.587 398.044 46.8711C398.313 47.1552 398.657 47.2972 399.075 47.2972C399.325 47.2972 399.579 47.2333 399.838 47.1055C400.099 46.9776 400.318 46.7816 400.494 46.5174C400.673 46.2532 400.762 45.9165 400.762 45.5075ZM404.616 39.4563V48.1836H403.61V39.4563H404.616Z" fill="#344054"/>
<defs>
<filter id="filter0_d_3978_17224" x="109" y="4" width="16" height="16" filterUnits="userSpaceOnUse" color-interpolation-filters="sRGB">
<feFlood flood-opacity="0" result="BackgroundImageFix"/>
<feColorMatrix in="SourceAlpha" type="matrix" values="0 0 0 0 0 0 0 0 0 0 0 0 0 0 0 0 0 0 127 0" result="hardAlpha"/>
<feMorphology radius="2" operator="dilate" in="SourceAlpha" result="effect1_dropShadow_3978_17224"/>
<feOffset/>
<feColorMatrix type="matrix" values="0 0 0 0 0.0823529 0 0 0 0 0.690196 0 0 0 0 0.533333 0 0 0 0.48 0"/>
<feBlend mode="normal" in2="BackgroundImageFix" result="effect1_dropShadow_3978_17224"/>
<feBlend mode="normal" in="SourceGraphic" in2="effect1_dropShadow_3978_17224" result="shape"/>
</filter>
<clipPath id="clip0_3978_17224">
<rect x="111" y="6" width="12" height="12" rx="6" fill="white"/>
</clipPath>
<clipPath id="clip1_3978_17224">
<rect x="239" y="6" width="12" height="12" rx="6" fill="white"/>
</clipPath>
<clipPath id="clip2_3978_17224">
<rect x="367" y="6" width="12" height="12" rx="6" fill="white"/>
</clipPath>
</defs>
</svg>
