<svg width="1441" height="373" viewBox="0 0 1441 373" fill="none" xmlns="http://www.w3.org/2000/svg">
<path fill-rule="evenodd" clip-rule="evenodd" d="M0 373V309.489L101.609 289.327L204.757 297.392L309.445 236.905L411.054 245.978L515.742 259.084L618.891 230.857L720.5 236.905L823.648 158.273L925.257 163.314L1029.95 187.508L1133.09 110.892L1236.24 93.7541L1339.39 48.3892L1441 0V373H0Z" fill="#93E4B5"/>
<path fill-rule="evenodd" clip-rule="evenodd" d="M0 373V325.641L101.609 310.606L204.757 316.62L309.445 271.517L411.054 278.282L515.742 288.055L618.891 267.006L720.5 271.517L823.648 212.882L925.257 216.641L1029.95 234.682L1133.09 177.551L1236.24 164.772L1339.39 130.944L1441 94.8613V373H0Z" fill="#29CE84"/>
<path fill-rule="evenodd" clip-rule="evenodd" d="M0 373V338.971L101.609 328.168L204.757 332.489L309.445 300.08L411.054 304.941L515.742 311.963L618.891 296.839L720.5 300.08L823.648 257.949L925.257 260.649L1029.95 273.613L1133.09 232.562L1236.24 223.379L1339.39 199.073L1441 173.146V373H0Z" fill="#036666"/>
</svg>
