<svg width="254" height="263" viewBox="0 0 254 263" fill="none" xmlns="http://www.w3.org/2000/svg">
<rect x="89.0434" y="3.04343" width="188.692" height="188.692" rx="94.3462" fill="white" stroke="white" stroke-width="6.08685"/>
<g clip-path="url(#clip0_3679_123606)">
<path d="M253.389 97.3894C253.389 136.186 222.187 167.388 183.39 167.388C144.593 167.388 113.391 136.186 113.391 97.3894C113.391 58.5924 144.593 27.3906 183.39 27.3906C222.187 27.3906 253.389 58.5924 253.389 97.3894Z" fill="#2775CA" stroke="#2775CA" stroke-width="6.08685"/>
<path d="M203.675 109.579C203.675 99.5607 197.315 96.1258 184.596 94.6948C175.512 93.5496 173.695 91.2599 173.695 87.2521C173.695 83.2443 176.723 80.6688 182.779 80.6688C188.23 80.6688 191.259 82.3862 192.773 86.6798C193.076 87.5386 193.984 88.1108 194.893 88.1108H199.738C200.949 88.1108 201.858 87.2521 201.858 86.1076V85.8211C200.646 79.5236 195.195 74.6577 188.23 74.0855V67.2157C188.23 66.0705 187.322 65.2118 185.808 64.9253H181.266C180.054 64.9253 179.145 65.784 178.842 67.2157V73.799C169.757 74.9442 164.004 80.6688 164.004 87.825C164.004 97.271 170.061 100.992 182.779 102.423C191.259 103.854 193.984 105.572 193.984 110.152C193.984 114.732 189.744 117.88 183.991 117.88C176.117 117.88 173.391 114.731 172.483 110.438C172.181 109.293 171.272 108.72 170.364 108.72H165.215C164.004 108.72 163.096 109.579 163.096 110.724V111.011C164.307 118.166 169.152 123.318 179.145 124.75V131.62C179.145 132.764 180.054 133.623 181.568 133.91H186.11C187.322 133.91 188.23 133.051 188.533 131.62V124.75C197.618 123.318 203.675 117.307 203.675 109.579Z" fill="white"/>
<path d="M168.487 136.795C145.69 128.915 133.998 104.426 142.475 82.7523C146.859 70.9304 156.504 61.9234 168.487 57.7013C169.657 57.1386 170.241 56.2941 170.241 54.8863V50.9459C170.241 49.8198 169.657 48.9754 168.487 48.6943C168.195 48.6943 167.61 48.6943 167.318 48.9754C139.552 57.4196 124.353 85.8489 133.121 112.589C138.382 128.351 150.951 140.455 167.318 145.521C168.487 146.084 169.657 145.521 169.948 144.395C170.241 144.114 170.241 143.832 170.241 143.27V139.329C170.241 138.484 169.364 137.359 168.487 136.795ZM199.469 48.9754C198.3 48.4126 197.13 48.9754 196.838 50.1015C196.546 50.3832 196.546 50.6642 196.546 51.2276V55.168C196.546 56.2941 197.423 57.4196 198.3 57.983C221.097 65.8638 232.789 90.3521 224.312 112.026C219.928 123.848 210.283 132.855 198.3 137.077C197.13 137.64 196.546 138.484 196.546 139.892V143.832C196.546 144.959 197.13 145.803 198.3 146.084C198.592 146.084 199.176 146.084 199.469 145.803C227.235 137.359 242.434 108.929 233.665 82.1896C228.404 66.1455 215.544 54.0419 199.469 48.9754Z" fill="white"/>
</g>
<path d="M191.736 219.39C191.736 271.496 149.496 313.736 97.3896 313.736C45.2837 313.736 3.04343 271.496 3.04343 219.39C3.04343 167.284 45.2837 125.043 97.3896 125.043C149.496 125.043 191.736 167.284 191.736 219.39Z" fill="white" stroke="white" stroke-width="6.08685"/>
<g clip-path="url(#clip1_3679_123606)">
<path d="M167.389 219.389C167.389 258.049 136.049 289.388 97.3899 289.388C58.7306 289.388 27.3911 258.049 27.3911 219.389C27.3911 180.73 58.7306 149.391 97.3899 149.391C136.049 149.391 167.389 180.73 167.389 219.389Z" fill="#627EEA" stroke="#627EEA" stroke-width="6.08685"/>
<path d="M99.6602 171.099V206.793L129.829 220.273L99.6602 171.099Z" fill="white" fill-opacity="0.602"/>
<path d="M99.6609 171.099L69.4883 220.273L99.6609 206.793V171.099Z" fill="white"/>
<path d="M99.6602 243.402V267.656L129.849 225.89L99.6602 243.402Z" fill="white" fill-opacity="0.602"/>
<path d="M99.6609 267.656V243.398L69.4883 225.89L99.6609 267.656Z" fill="white"/>
<path d="M99.6602 237.789L129.829 220.272L99.6602 206.8V237.789Z" fill="white" fill-opacity="0.2"/>
<path d="M69.4883 220.272L99.6609 237.789V206.8L69.4883 220.272Z" fill="white" fill-opacity="0.602"/>
</g>
<defs>
<clipPath id="clip0_3679_123606">
<rect x="110.348" y="24.3472" width="146.084" height="146.084" fill="white"/>
</clipPath>
<clipPath id="clip1_3679_123606">
<rect width="146.084" height="146.084" fill="white" transform="translate(24.3477 146.347)"/>
</clipPath>
</defs>
</svg>
