<svg width="162" height="176" viewBox="0 0 162 176" fill="none" xmlns="http://www.w3.org/2000/svg">
<rect x="37.0677" y="1.37288" width="85.1186" height="85.1186" rx="42.5593" fill="white" stroke="#CED3E6" stroke-width="2.74576"/>
<g clip-path="url(#clip0_1798_113289)">
<path d="M111.203 43.9321C111.203 61.4333 97.1283 75.5083 79.6271 75.5083C62.1259 75.5083 48.0509 61.4333 48.0509 43.9321C48.0509 26.4309 62.1259 12.3558 79.6271 12.3558C97.1283 12.3558 111.203 26.4309 111.203 43.9321Z" fill="#2775CA" stroke="#2775CA" stroke-width="2.74576"/>
<path d="M88.7799 49.4307C88.7799 44.9115 85.9112 43.3621 80.1738 42.7165C76.0756 42.2 75.256 41.1671 75.256 39.3592C75.256 37.5512 76.6221 36.3894 79.3541 36.3894C81.813 36.3894 83.1792 37.1642 83.8621 39.101C83.9988 39.4884 84.4087 39.7465 84.8185 39.7465H87.0039C87.5505 39.7465 87.9603 39.3592 87.9603 38.8429V38.7136C87.4138 35.8728 84.9549 33.6779 81.813 33.4197V30.3208C81.813 29.8042 81.4032 29.4168 80.7203 29.2876H78.6712C78.1247 29.2876 77.7149 29.675 77.5781 30.3208V33.2905C73.48 33.8071 70.8847 36.3894 70.8847 39.6176C70.8847 43.8787 73.6167 45.557 79.3541 46.2029C83.1792 46.8484 84.4087 47.6231 84.4087 49.6892C84.4087 51.7552 82.496 53.1755 79.9007 53.1755C76.3487 53.1755 75.1192 51.7549 74.7094 49.8181C74.573 49.3018 74.1632 49.0433 73.7534 49.0433H71.4309C70.8847 49.0433 70.4749 49.4307 70.4749 49.9473V50.0765C71.0211 53.3044 73.2069 55.6286 77.7149 56.2744V59.3734C77.7149 59.8896 78.1247 60.277 78.8076 60.4062H80.8567C81.4032 60.4062 81.813 60.0189 81.9498 59.3734V56.2744C86.0479 55.6286 88.7799 52.917 88.7799 49.4307Z" fill="white"/>
<path d="M72.9028 61.7079C62.6188 58.1529 57.3449 47.1063 61.1686 37.3293C63.1463 31.9964 67.4972 27.9334 72.9028 26.0288C73.4303 25.775 73.6939 25.3941 73.6939 24.759V22.9815C73.6939 22.4735 73.4303 22.0926 72.9028 21.9658C72.7708 21.9658 72.5073 21.9658 72.3753 22.0926C59.8501 25.9018 52.994 38.7262 56.9494 50.7884C59.3226 57.8988 64.9921 63.3587 72.3753 65.6442C72.9028 65.898 73.4303 65.6442 73.5619 65.1362C73.6939 65.0094 73.6939 64.8823 73.6939 64.6285V62.8507C73.6939 62.4698 73.2983 61.9621 72.9028 61.7079ZM86.8786 22.0926C86.3511 21.8387 85.8236 22.0926 85.6919 22.6006C85.56 22.7277 85.56 22.8544 85.56 23.1086V24.8861C85.56 25.3941 85.9555 25.9018 86.3511 26.1559C96.635 29.7109 101.909 40.7575 98.0852 50.5346C96.1075 55.8674 91.7566 59.9304 86.3511 61.835C85.8236 62.0889 85.56 62.4698 85.56 63.1048V64.8823C85.56 65.3903 85.8236 65.7713 86.3511 65.898C86.483 65.898 86.7466 65.898 86.8786 65.7713C99.4038 61.9621 106.26 49.1377 102.305 37.0754C99.9313 29.838 94.1299 24.3781 86.8786 22.0926Z" fill="white"/>
</g>
<path d="M160.627 82.3726C160.627 105.877 141.573 124.932 118.068 124.932C94.5628 124.932 75.5084 105.877 75.5084 82.3726C75.5084 58.8678 94.5628 39.8133 118.068 39.8133C141.573 39.8133 160.627 58.8678 160.627 82.3726Z" fill="white" stroke="#CED3E6" stroke-width="2.74576"/>
<g clip-path="url(#clip1_1798_113289)">
<path d="M118.068 115.322C136.265 115.322 151.017 100.57 151.017 82.3725C151.017 64.1752 136.265 49.4233 118.068 49.4233C99.8705 49.4233 85.1187 64.1752 85.1187 82.3725C85.1187 100.57 99.8705 115.322 118.068 115.322Z" fill="#50AF95"/>
<g clip-path="url(#clip2_1798_113289)">
<path fill-rule="evenodd" clip-rule="evenodd" d="M101.826 60.64L92.4806 81.5941C92.445 81.6721 92.4337 81.7601 92.4484 81.8454C92.4631 81.9306 92.5029 82.0086 92.5621 82.068L117.802 107.885C117.874 107.958 117.969 107.999 118.068 107.999C118.168 107.999 118.263 107.958 118.335 107.885L143.575 82.0696C143.634 82.0103 143.674 81.9322 143.688 81.847C143.703 81.7617 143.692 81.6737 143.656 81.5957L134.311 60.6416C134.281 60.5712 134.232 60.5116 134.171 60.4699C134.11 60.4282 134.039 60.4061 133.967 60.4063H102.173C102.1 60.4053 102.029 60.4269 101.967 60.4683C101.906 60.5098 101.857 60.5694 101.826 60.64Z" fill="#50AF95"/>
<path fill-rule="evenodd" clip-rule="evenodd" d="M121.311 83.7468C121.13 83.7613 120.193 83.8209 118.105 83.8209C116.444 83.8209 115.265 83.7677 114.851 83.7468C108.432 83.4453 103.641 82.2526 103.641 80.8245C103.641 79.3964 108.432 78.2052 114.851 77.899V82.5588C115.271 82.5911 116.473 82.6668 118.134 82.6668C120.127 82.6668 121.125 82.5782 121.305 82.5604V77.9022C127.71 78.2068 132.491 79.3996 132.491 80.8245C132.491 82.2494 127.712 83.4421 121.305 83.7452L121.311 83.7468ZM121.311 77.4202V73.2504H130.25V66.8916H105.912V73.2504H114.849V77.4186C107.585 77.7748 102.122 79.3109 102.122 81.1517C102.122 82.9924 107.585 84.5269 114.849 84.8847V98.247H121.309V84.8799C128.557 84.5237 134.011 82.9892 134.011 81.1501C134.011 79.3109 128.562 77.7765 121.309 77.4186L121.311 77.4202Z" fill="white"/>
</g>
</g>
<path d="M122.186 131.796C122.186 155.301 103.132 174.356 79.627 174.356C56.1222 174.356 37.0677 155.301 37.0677 131.796C37.0677 108.292 56.1222 89.2371 79.627 89.2371C103.132 89.2371 122.186 108.292 122.186 131.796Z" fill="white" stroke="#CED3E6" stroke-width="2.74576"/>
<g clip-path="url(#clip3_1798_113289)">
<path d="M111.203 131.796C111.203 149.235 97.0662 163.373 79.6271 163.373C62.188 163.373 48.0509 149.235 48.0509 131.796C48.0509 114.357 62.188 100.22 79.6271 100.22C97.0662 100.22 111.203 114.357 111.203 131.796Z" fill="#627EEA" stroke="#627EEA" stroke-width="2.74576"/>
<path d="M80.6533 110.013V126.114L94.2623 132.195L80.6533 110.013Z" fill="white" fill-opacity="0.602"/>
<path d="M80.6535 110.013L67.0427 132.195L80.6535 126.114V110.013Z" fill="white"/>
<path d="M80.6533 142.629V153.569L94.2714 134.729L80.6533 142.629Z" fill="white" fill-opacity="0.602"/>
<path d="M80.6535 153.569V142.627L67.0427 134.729L80.6535 153.569Z" fill="white"/>
<path d="M80.6533 140.096L94.2623 132.195L80.6533 126.117V140.096Z" fill="white" fill-opacity="0.2"/>
<path d="M67.0427 132.195L80.6535 140.096V126.117L67.0427 132.195Z" fill="white" fill-opacity="0.602"/>
</g>
<path d="M86.4915 82.3726C86.4915 105.877 67.4371 124.932 43.9322 124.932C20.4273 124.932 1.37288 105.877 1.37288 82.3726C1.37288 58.8678 20.4273 39.8133 43.9322 39.8133C67.4371 39.8133 86.4915 58.8678 86.4915 82.3726Z" fill="white" stroke="#CED3E6" stroke-width="2.74576"/>
<g clip-path="url(#clip4_1798_113289)">
<path d="M75.5083 82.3725C75.5083 99.8737 61.4333 113.949 43.9321 113.949C26.4309 113.949 12.3558 99.8737 12.3558 82.3725C12.3558 64.8713 26.4309 50.7962 43.9321 50.7962C61.4333 50.7962 75.5083 64.8713 75.5083 82.3725Z" stroke="#F6F6F6" stroke-width="2.74576"/>
<g clip-path="url(#clip5_1798_113289)">
<path d="M43.9324 51.2534C61.1203 51.2534 75.051 65.1869 75.051 82.3721C75.051 99.56 61.1203 113.491 43.9324 113.491C26.7472 113.491 12.8137 99.5586 12.8137 82.3721C12.8137 65.1869 26.7472 51.2534 43.9324 51.2534Z" fill="#F5AC37"/>
<path d="M45.0793 84.5695H56.9039C57.156 84.5695 57.275 84.5695 57.2932 84.2391C57.3898 83.0362 57.3898 81.8263 57.2932 80.622C57.2932 80.3881 57.177 80.2915 56.9235 80.2915H33.3906C33.0993 80.2915 33.0209 80.3881 33.0209 80.6612V84.1228C33.0209 84.5695 33.0209 84.5695 33.4872 84.5695H45.0793ZM55.9727 76.2458C56.0063 76.1576 56.0063 76.061 55.9727 75.9742C55.7752 75.5443 55.5414 75.134 55.2697 74.7489C54.8608 74.0907 54.3791 73.4844 53.8301 72.9396C53.5711 72.6105 53.2714 72.3151 52.9353 72.0644C51.2521 70.6318 49.251 69.618 47.1 69.1082C46.0148 68.8646 44.9057 68.7484 43.7938 68.7582H33.35C33.0587 68.7582 33.0195 68.8744 33.0195 69.1279V76.0316C33.0195 76.3229 33.0195 76.4013 33.3892 76.4013H55.8326C55.8326 76.4013 56.0273 76.3621 56.0665 76.2458H55.9713H55.9727ZM55.9727 88.6152C55.6422 88.5788 55.3089 88.5788 54.9784 88.6152H33.4102C33.1189 88.6152 33.0209 88.6152 33.0209 89.0045V95.7542C33.0209 96.065 33.0209 96.1435 33.4102 96.1435H43.3681C43.8442 96.1799 44.3203 96.1463 44.7867 96.0468C46.2318 95.9432 47.6532 95.6295 49.0087 95.1128C49.5016 94.942 49.9778 94.7193 50.4273 94.4518H50.5631C52.8975 93.2377 54.7936 91.3304 55.9895 88.9891C55.9895 88.9891 56.1253 88.695 55.9727 88.618V88.6152ZM29.1125 99.6429V99.5267V94.9952V93.459V88.8882C29.1125 88.6348 29.1125 88.597 28.8016 88.597H24.581C24.3471 88.597 24.2505 88.597 24.2505 88.2861V84.5905H28.7624C29.0145 84.5905 29.1125 84.5906 29.1125 84.2601V80.6037C29.1125 80.3699 29.1125 80.3125 28.8016 80.3125H24.581C24.3471 80.3125 24.2505 80.3125 24.2505 80.0016V76.5791C24.2505 76.3649 24.2505 76.3075 24.5614 76.3075H28.7428C29.0341 76.3075 29.1125 76.3075 29.1125 75.9378V65.4547C29.1125 65.1439 29.1125 65.0654 29.5018 65.0654H44.0879C45.1466 65.1074 46.1982 65.2237 47.2387 65.4155C49.3826 65.8118 51.4425 66.5778 53.326 67.6715C54.5751 68.4067 55.7248 69.2945 56.7485 70.3168C57.5187 71.1164 58.2132 71.9818 58.8294 72.9032C59.4414 73.8372 59.9497 74.8357 60.3488 75.879C60.3978 76.1506 60.6583 76.3341 60.9299 76.2879H64.4112C64.8579 76.2879 64.8579 76.2879 64.8775 76.7164V79.9064C64.8775 80.2172 64.7613 80.2957 64.449 80.2957H61.7645C61.4929 80.2957 61.4145 80.2957 61.4341 80.6458C61.5405 81.8305 61.5405 83.0194 61.4341 84.2041C61.4341 84.5345 61.4341 84.5737 61.8051 84.5737H64.8761C65.012 84.7488 64.8761 84.9238 64.8761 85.1003C64.8957 85.3257 64.8957 85.554 64.8761 85.7795V88.1334C64.8761 88.4639 64.7795 88.562 64.4868 88.562H60.8109C60.5546 88.5129 60.3054 88.6768 60.2466 88.9316C59.3713 91.2072 57.971 93.2475 56.1617 94.8831C55.5008 95.4783 54.8062 96.0384 54.0808 96.5552C53.3022 97.0033 52.5446 97.4696 51.7464 97.8393C50.2774 98.5003 48.7371 98.9876 47.1561 99.2971C45.6549 99.5659 44.1327 99.6878 42.6049 99.6667H29.1069V99.6471L29.1125 99.6429Z" fill="#FEFEFD"/>
</g>
</g>
<defs>
<clipPath id="clip0_1798_113289">
<rect x="46.678" y="10.9829" width="65.8983" height="65.8983" fill="white"/>
</clipPath>
<clipPath id="clip1_1798_113289">
<rect width="65.8983" height="65.8983" fill="white" transform="translate(85.1187 49.4233)"/>
</clipPath>
<clipPath id="clip2_1798_113289">
<rect width="51.2542" height="47.5932" fill="white" transform="translate(92.4409 60.4062)"/>
</clipPath>
<clipPath id="clip3_1798_113289">
<rect width="65.8983" height="65.8983" fill="white" transform="translate(46.678 98.8472)"/>
</clipPath>
<clipPath id="clip4_1798_113289">
<rect x="10.9829" y="49.4233" width="65.8983" height="65.8983" fill="white"/>
</clipPath>
<clipPath id="clip5_1798_113289">
<rect width="62.2373" height="62.2373" fill="white" transform="translate(12.8137 51.2534)"/>
</clipPath>
</defs>
</svg>
