<svg width="225" height="233" viewBox="0 0 225 233" fill="none" xmlns="http://www.w3.org/2000/svg">
<path d="M224.826 46.4721C224.826 58.5317 215.144 68.1794 203.042 68.1794H147.373C136.783 68.1794 128.009 59.587 128.009 48.884C128.009 39.6886 134.665 31.8498 143.591 30.0409C142.986 28.3827 142.532 26.7245 142.532 24.7648C142.532 16.7753 149.037 10.2932 157.054 10.2932C160.08 10.2932 162.954 11.1977 165.223 12.8559C169.308 5.62011 177.174 0.645508 186.099 0.645508C199.563 0.645508 210.304 11.4992 210.304 24.7648C210.304 25.217 210.304 25.6692 210.304 26.1215C218.775 28.9856 224.826 37.1259 224.826 46.4721Z" fill="#93E4B5"/>
<path d="M0.796875 114.054C0.796875 126.113 10.4786 135.761 22.5807 135.761H78.2504C88.8398 135.761 97.6138 127.168 97.6138 116.466C97.6138 107.27 90.9576 99.4313 82.0323 97.6224C82.6374 95.9642 83.0913 94.306 83.0913 92.3463C83.0913 84.3568 76.5864 77.8748 68.5687 77.8748C65.5432 77.8748 62.6689 78.7792 60.3998 80.4374C56.3153 73.2016 48.449 68.2271 39.5236 68.2271C26.06 68.2271 15.3194 79.0807 15.3194 92.3463C15.3194 92.7985 15.3194 93.2508 15.3194 93.703C6.84793 96.5672 0.796875 104.707 0.796875 114.054Z" fill="#29CE84"/>
<path d="M84.2812 203.329C84.2812 219.454 97.2264 232.354 113.408 232.354H187.843C202.002 232.354 213.733 220.865 213.733 206.554C213.733 194.259 204.833 183.778 192.899 181.36C193.708 179.142 194.315 176.925 194.315 174.305C194.315 163.622 185.618 154.955 174.898 154.955C170.852 154.955 167.009 156.165 163.975 158.382C158.514 148.707 147.996 142.056 136.062 142.056C118.06 142.056 103.699 156.568 103.699 174.305C103.699 174.91 103.699 175.514 103.699 176.119C92.372 179.949 84.2812 190.833 84.2812 203.329Z" fill="#036666"/>
</svg>
