<svg width="32" height="32" viewBox="0 0 32 32" fill="none" xmlns="http://www.w3.org/2000/svg">
<path d="M31.5 16C31.5 24.5604 24.5604 31.5 16 31.5C7.43959 31.5 0.5 24.5604 0.5 16C0.5 7.43959 7.43959 0.5 16 0.5C24.5604 0.5 31.5 7.43959 31.5 16Z" fill="white" stroke="#CED3E6"/>
<g clip-path="url(#clip0_33_22706)">
<path d="M15.836 27.073C22.042 27.073 27.073 22.042 27.073 15.836C27.073 9.62998 22.042 4.599 15.836 4.599C9.62998 4.599 4.599 9.62998 4.599 15.836C4.599 22.042 9.62998 27.073 15.836 27.073Z" fill="#012169"/>
<path d="M16 5C13.4551 4.99992 10.9889 5.88226 9.02158 7.49667C7.05429 9.11109 5.70764 11.3577 5.21108 13.8537C4.71451 16.3497 5.09877 18.9406 6.29837 21.1851C7.49797 23.4295 9.43869 25.1886 11.7899 26.1626C14.141 27.1365 16.7572 27.2651 19.1925 26.5264C21.6279 25.7877 23.7317 24.2275 25.1457 22.1115C26.5596 19.9955 27.1961 17.4547 26.9467 14.9221C26.6973 12.3894 25.5775 10.0216 23.778 8.222C21.7152 6.15908 18.9173 5.00009 16 5ZM16 4C18.3734 4 20.6935 4.70379 22.6668 6.02236C24.6402 7.34094 26.1783 9.21509 27.0866 11.4078C27.9948 13.6005 28.2324 16.0133 27.7694 18.3411C27.3064 20.6689 26.1635 22.8071 24.4853 24.4853C22.8071 26.1635 20.6689 27.3064 18.3411 27.7694C16.0133 28.2324 13.6005 27.9948 11.4078 27.0866C9.21509 26.1783 7.34094 24.6402 6.02236 22.6668C4.70379 20.6935 4 18.3734 4 16C4 12.8174 5.26428 9.76515 7.51472 7.51472C9.76515 5.26428 12.8174 4 16 4V4Z" fill="#012169"/>
<path fill-rule="evenodd" clip-rule="evenodd" d="M2.67505 5.98599H33.5V26.538H2.67505V5.98599Z" fill="#012169"/>
<path fill-rule="evenodd" clip-rule="evenodd" d="M26.0211 7.81598L26.4211 9.05198H27.7211L26.6691 9.81298L27.0691 11.047L26.0201 10.282L24.9711 11.047L25.3711 9.81298L24.3191 9.05198H25.6191L26.0211 7.81598Z" fill="white"/>
<path fill-rule="evenodd" clip-rule="evenodd" d="M21.1741 13.29L21.5741 14.526H22.8741L21.8221 15.287L22.2221 16.521L21.1731 15.756L20.1241 16.521L20.5241 15.287L19.4761 14.522H20.7761L21.1741 13.29Z" fill="white"/>
<path fill-rule="evenodd" clip-rule="evenodd" d="M26 20.48L26.439 21.841H27.869L26.71 22.68L27.154 24.039L26 23.194L24.844 24.037L25.289 22.678L24.13 21.839H25.56L26 20.48Z" fill="white"/>
<path fill-rule="evenodd" clip-rule="evenodd" d="M7.30005 9.41099H7.81405L2.67505 5.98599V6.67099L6.78505 9.41099H7.30005Z" fill="#C8102E"/>
<path fill-rule="evenodd" clip-rule="evenodd" d="M13.979 12.837H12.951L18.089 16.262V15.577L13.979 12.837Z" fill="#C8102E"/>
<path fill-rule="evenodd" clip-rule="evenodd" d="M12.4381 9.41099H12.9521L18.0901 5.98599H17.0621L11.9241 9.41099H12.4381Z" fill="#C8102E"/>
<path fill-rule="evenodd" clip-rule="evenodd" d="M3.18905 16.262H3.70005L8.84105 12.837H7.81305L2.67505 16.262H3.18905Z" fill="#C8102E"/>
<path fill-rule="evenodd" clip-rule="evenodd" d="M6.27505 12.837L2.67505 15.237V16.265L7.81305 12.837H8.66905V12.951L3.70005 16.262H4.21705L8.66905 13.294V16.263H12.1V13.294L16.553 16.263H18.094L12.951 12.837H13.975L18.085 15.577V15.235L14.485 12.835H18.085V9.41099H14.485L18.085 7.01099V5.98599L12.951 9.41099H12.1V9.29999L17.067 5.98899H16.553L12.1 8.95499V5.98599H8.66905V8.95499L4.21605 5.98599H2.67505L7.81305 9.41099H6.78505L2.67505 6.67099V7.01399L6.27505 9.41399H2.67505V12.837H6.27505Z" fill="white"/>
<path fill-rule="evenodd" clip-rule="evenodd" d="M9.35505 16.262V12.152H2.67505V10.1H9.35505V5.98599H11.41V10.1H18.09V12.152H11.41V16.262H9.35505Z" fill="#C8102E"/>
<path fill-rule="evenodd" clip-rule="evenodd" d="M26 21.169L26.282 22.042H27.2001L26.4611 22.578L26.746 23.45L26 22.909L25.2591 23.45L25.5401 22.578L24.8 22.04H25.717L26 21.169Z" fill="#C8102E"/>
<path fill-rule="evenodd" clip-rule="evenodd" d="M21.174 13.978L21.415 14.726H22.2L21.563 15.187L21.807 15.934L21.172 15.471L20.537 15.934L20.781 15.187L20.144 14.726H20.93L21.174 13.978Z" fill="#C8102E"/>
<path fill-rule="evenodd" clip-rule="evenodd" d="M26.021 8.5L26.263 9.248H27.049L26.412 9.709L26.656 10.456L26.021 10L25.386 10.463L25.63 9.716L25 9.251H25.786L26.021 8.5Z" fill="#C8102E"/>
<path d="M19.7059 16.027C19.7534 16.1382 19.7775 16.258 19.7769 16.379C19.7775 16.5572 19.7252 16.7317 19.6266 16.8801C19.528 17.0286 19.3875 17.1445 19.2229 17.213C19.1118 17.261 18.9919 17.2852 18.8709 17.284H18.5709V15.473H18.8709C18.992 15.4721 19.1119 15.4966 19.2229 15.545C19.331 15.5902 19.4291 15.6561 19.5119 15.739C19.5948 15.8213 19.6607 15.9192 19.7059 16.027Z" fill="#F70000" stroke="black" stroke-width="0.325" stroke-miterlimit="10"/>
<path d="M20.376 16.487C20.376 16.451 20.376 16.415 20.376 16.379C20.3766 16.2439 20.3587 16.1093 20.323 15.979C20.2882 15.8527 20.2368 15.7317 20.17 15.619C20.1037 15.5098 20.0244 15.4091 19.934 15.319C19.8447 15.2272 19.7439 15.1476 19.634 15.082C19.5207 15.0159 19.3994 14.9648 19.273 14.93C19.1427 14.8938 19.0082 14.8756 18.873 14.876H17.963V17.896H18.873C18.984 17.8964 19.0948 17.884 19.203 17.859L16 21.565L12.72 17.753V15.9L13.884 17.889H14.53V14.869H13.93V16.858L12.762 14.869H12.115V17.051L10.6 15.292L12.176 13.731H19.864L21.4 15.3L20.376 16.487Z" fill="#F70000" stroke="black" stroke-width="0.325" stroke-miterlimit="10"/>
<path d="M19.7059 16.027C19.7534 16.1382 19.7775 16.258 19.7769 16.379C19.7775 16.5572 19.7252 16.7317 19.6266 16.8801C19.528 17.0286 19.3875 17.1445 19.2229 17.213C19.1118 17.261 18.9919 17.2852 18.8709 17.284H18.5709V15.473H18.8709C18.992 15.4721 19.1119 15.4966 19.2229 15.545C19.331 15.5902 19.4291 15.6561 19.5119 15.739C19.5948 15.8213 19.6607 15.9192 19.7059 16.027Z" fill="#FFF800" stroke="black" stroke-width="0.325" stroke-miterlimit="10"/>
<path d="M20.376 16.487C20.376 16.451 20.376 16.415 20.376 16.379C20.3766 16.2439 20.3587 16.1093 20.323 15.979C20.2882 15.8527 20.2368 15.7317 20.17 15.619C20.1037 15.5098 20.0244 15.4091 19.934 15.319C19.8447 15.2272 19.7439 15.1476 19.634 15.082C19.5207 15.0159 19.3994 14.9648 19.273 14.93C19.1427 14.8938 19.0082 14.8756 18.873 14.876H17.963V17.896H18.873C18.984 17.8964 19.0948 17.884 19.203 17.859L16 21.565L12.72 17.753V15.9L13.884 17.889H14.53V14.869H13.93V16.858L12.762 14.869H12.115V17.051L10.6 15.292L12.176 13.731H19.864L21.4 15.3L20.376 16.487Z" fill="#FFF800" stroke="black" stroke-width="0.325" stroke-miterlimit="10"/>
<path d="M17.415 17.881H15.078L16.366 15.465H15.078V14.865H17.415L16.131 17.28H17.415V17.881Z" fill="#F70000" stroke="black" stroke-width="0.322" stroke-miterlimit="10"/>
<path d="M20.335 13.008H11.7L9.5 15.137L16.017 22.737L22.5 15.17L20.335 13.008ZM19.223 17.208C19.1119 17.256 18.992 17.2802 18.871 17.279H18.571V15.473H18.871C18.9921 15.4721 19.112 15.4967 19.223 15.545C19.331 15.5902 19.4292 15.6561 19.512 15.739C19.6392 15.8666 19.7256 16.0291 19.7601 16.206C19.7947 16.3828 19.7758 16.5659 19.706 16.732C19.6143 16.9495 19.4408 17.1222 19.223 17.213V17.208ZM20.323 15.972C20.2882 15.8457 20.2368 15.7247 20.17 15.612C20.1037 15.5029 20.0245 15.4021 19.934 15.312C19.8448 15.2203 19.7439 15.1406 19.634 15.075C19.5207 15.0089 19.3994 14.9578 19.273 14.923C19.1428 14.8868 19.0082 14.8686 18.873 14.869H17.963V17.889H18.873C18.9841 17.8894 19.0948 17.877 19.203 17.852L16 21.565L12.72 17.753V15.9L13.884 17.889H14.53V14.869H13.93V16.858L12.762 14.869H12.115V17.051L10.6 15.292L12.176 13.731H19.864L21.4 15.3L20.377 16.487C20.377 16.451 20.377 16.415 20.377 16.379C20.3787 16.2433 20.3619 16.1081 20.327 15.977L20.323 15.972Z" fill="#F70000" stroke="black" stroke-width="0.322" stroke-miterlimit="10"/>
</g>
<defs>
<clipPath id="clip0_33_22706">
<rect x="4" y="4" width="24" height="24" rx="12" fill="white"/>
</clipPath>
</defs>
</svg>
