<svg width="4" height="16" viewBox="0 0 4 16" fill="none" xmlns="http://www.w3.org/2000/svg">
<path d="M1.99996 8.83331C2.4602 8.83331 2.83329 8.46022 2.83329 7.99998C2.83329 7.53974 2.4602 7.16665 1.99996 7.16665C1.53972 7.16665 1.16663 7.53974 1.16663 7.99998C1.16663 8.46022 1.53972 8.83331 1.99996 8.83331Z" stroke="#98A2B3" stroke-width="1.66667" stroke-linecap="round" stroke-linejoin="round"/>
<path d="M1.99996 2.99998C2.4602 2.99998 2.83329 2.62688 2.83329 2.16665C2.83329 1.70641 2.4602 1.33331 1.99996 1.33331C1.53972 1.33331 1.16663 1.70641 1.16663 2.16665C1.16663 2.62688 1.53972 2.99998 1.99996 2.99998Z" stroke="#98A2B3" stroke-width="1.66667" stroke-linecap="round" stroke-linejoin="round"/>
<path d="M1.99996 14.6666C2.4602 14.6666 2.83329 14.2935 2.83329 13.8333C2.83329 13.3731 2.4602 13 1.99996 13C1.53972 13 1.16663 13.3731 1.16663 13.8333C1.16663 14.2935 1.53972 14.6666 1.99996 14.6666Z" stroke="#98A2B3" stroke-width="1.66667" stroke-linecap="round" stroke-linejoin="round"/>
</svg>
