<svg width="13" height="13" viewBox="0 0 13 13" fill="none" xmlns="http://www.w3.org/2000/svg">
<g clip-path="url(#clip0_13585_4106)">
<g clip-path="url(#clip1_13585_4106)">
<mask id="mask0_13585_4106" style="mask-type:luminance" maskUnits="userSpaceOnUse" x="0" y="-1" width="13" height="15">
<path d="M12.7834 -0.640869H0V13.4243H12.7834V-0.640869Z" fill="white"/>
</mask>
<g mask="url(#mask0_13585_4106)">
<path d="M12.7819 8.78314V3.9995C12.782 3.60492 12.6783 3.21724 12.4812 2.87542C12.2841 2.5336 12.0005 2.24966 11.6589 2.05212L7.51629 -0.340082C7.17444 -0.537451 6.78666 -0.641357 6.39192 -0.641357C5.99718 -0.641357 5.6094 -0.537451 5.26754 -0.340082L1.12418 2.05212C0.782377 2.24951 0.498548 2.53338 0.301215 2.87522C0.103882 3.21705 -3.05715e-06 3.6048 0 3.9995L0 8.78314C-3.05715e-06 9.17784 0.103882 9.56559 0.301215 9.90742C0.498548 10.2493 0.782377 10.5331 1.12418 10.7305L5.26754 13.1223C5.6094 13.3197 5.99718 13.4236 6.39192 13.4236C6.78666 13.4236 7.17444 13.3197 7.51629 13.1223L11.6597 10.7305C12.0011 10.5329 12.2845 10.2489 12.4815 9.90709C12.6785 9.56527 12.7821 9.17765 12.7819 8.78314Z" fill="url(#paint0_linear_13585_4106)"/>
</g>
<mask id="mask1_13585_4106" style="mask-type:luminance" maskUnits="userSpaceOnUse" x="1" y="0" width="11" height="13">
<path d="M11.7627 0.482544H1.02124V12.3013H11.7627V0.482544Z" fill="white"/>
</mask>
<g mask="url(#mask1_13585_4106)">
<path d="M11.7627 8.40133V4.38188C11.7628 4.05015 11.6755 3.72426 11.5096 3.43697C11.3438 3.14968 11.1052 2.91111 10.8179 2.74525L7.33674 0.735327C7.0495 0.569486 6.72366 0.482178 6.39198 0.482178C6.06029 0.482178 5.73446 0.569486 5.44721 0.735327L1.96601 2.74525C1.67872 2.91111 1.44017 3.14968 1.27433 3.43697C1.10848 3.72426 1.0212 4.05015 1.02124 4.38188V8.40133C1.0212 8.73305 1.10848 9.05894 1.27433 9.34624C1.44017 9.63353 1.67872 9.8721 1.96601 10.038L5.44721 12.0479C5.73446 12.2137 6.06029 12.301 6.39198 12.301C6.72366 12.301 7.0495 12.2137 7.33674 12.0479L10.8179 10.038C11.1052 9.8721 11.3438 9.63353 11.5096 9.34624C11.6755 9.05894 11.7628 8.73305 11.7627 8.40133Z" fill="url(#paint1_linear_13585_4106)"/>
</g>
<mask id="mask2_13585_4106" style="mask-type:luminance" maskUnits="userSpaceOnUse" x="2" y="2" width="8" height="8">
<path d="M9.93766 2.77271H2.82202V9.88834H9.93766V2.77271Z" fill="white"/>
</mask>
<g mask="url(#mask2_13585_4106)">
<path d="M9.9361 6.33011C9.9361 5.5929 9.18326 4.96671 8.05634 4.65166C7.74363 3.52552 7.11744 2.77307 6.37906 2.77307C5.64068 2.77307 5.01683 3.52552 4.70178 4.65244C3.57486 4.96749 2.82202 5.59329 2.82202 6.33011C2.82202 7.06692 3.57486 7.6939 4.70178 8.00856C5.01644 9.13587 5.64264 9.88715 6.37906 9.88715C7.11548 9.88715 7.74246 9.13431 8.05751 8.00739C9.18521 7.69429 9.9361 7.0681 9.9361 6.33011Z" fill="white"/>
</g>
</g>
</g>
<defs>
<linearGradient id="paint0_linear_13585_4106" x1="6.39094" y1="1.69343" x2="6.39094" y2="14.4503" gradientUnits="userSpaceOnUse">
<stop stop-color="#6C00FF"/>
<stop offset="1" stop-color="#FF008B"/>
</linearGradient>
<linearGradient id="paint1_linear_13585_4106" x1="6.39198" y1="6.91163" x2="6.39198" y2="16.7449" gradientUnits="userSpaceOnUse">
<stop stop-color="#6C00FF"/>
<stop offset="1" stop-color="#FF008B"/>
</linearGradient>
<clipPath id="clip0_13585_4106">
<rect width="12.7834" height="12.7834" fill="white"/>
</clipPath>
<clipPath id="clip1_13585_4106">
<rect width="12.7834" height="14.0652" fill="white" transform="translate(0 -0.640869)"/>
</clipPath>
</defs>
</svg>
