<svg width="12" height="15" viewBox="0 0 12 15" fill="none" xmlns="http://www.w3.org/2000/svg">
<path d="M3.98418 8.18457L1.37479 4.92283C1.21235 4.71978 1.13113 4.61826 1.07338 4.50521C1.02214 4.40492 0.984688 4.29816 0.962045 4.18783C0.936523 4.06347 0.936523 3.93346 0.936523 3.67344V3.25C0.936523 2.54993 0.936523 2.1999 1.07277 1.93251C1.19261 1.69731 1.38383 1.50608 1.61904 1.38624C1.88643 1.25 2.23646 1.25 2.93652 1.25H8.93652C9.63659 1.25 9.98662 1.25 10.254 1.38624C10.4892 1.50608 10.6804 1.69731 10.8003 1.93251C10.9365 2.1999 10.9365 2.54993 10.9365 3.25V3.67344C10.9365 3.93346 10.9365 4.06347 10.911 4.18783C10.8884 4.29816 10.8509 4.40492 10.7997 4.50521C10.7419 4.61826 10.6607 4.71978 10.4983 4.92283L7.88887 8.18457M1.56156 1.875L5.93656 7.5L10.3115 1.875M8.14623 8.41529C9.36662 9.63568 9.36662 11.6143 8.14623 12.8347C6.92585 14.0551 4.94721 14.0551 3.72681 12.8347C2.50643 11.6143 2.50643 9.63568 3.72681 8.41529C4.9472 7.1949 6.92584 7.1949 8.14623 8.41529Z" stroke="#344054" stroke-linecap="round" stroke-linejoin="round"/>
</svg>
