<svg width="25" height="25" viewBox="0 0 25 25" fill="none" xmlns="http://www.w3.org/2000/svg">
<rect x="0.5" y="0.5" width="24" height="24" rx="12" fill="white" stroke="#E9E9E9"/>
<path d="M9.53125 10.7188C8.58642 10.7188 7.68028 10.9064 7.01218 11.2405C6.34408 11.5745 5.96875 12.0276 5.96875 12.5C5.96875 12.9724 6.34408 13.4255 7.01218 13.7595C7.68028 14.0936 8.58642 14.2812 9.53125 14.2812C10.4761 14.2812 11.3822 14.0936 12.0503 13.7595C12.7184 13.4255 13.0938 12.9724 13.0938 12.5C13.0938 12.0276 12.7184 11.5745 12.0503 11.2405C11.3822 10.9064 10.4761 10.7188 9.53125 10.7188Z" stroke="#FF9400" stroke-miterlimit="10"/>
<path d="M5.96875 12.5C5.96875 12.8248 5.96875 14.5502 5.96875 14.875C5.96875 15.8588 7.56356 16.6562 9.53125 16.6562C11.4989 16.6562 13.0938 15.8588 13.0938 14.875C13.0938 14.5502 13.0938 12.8248 13.0938 12.5" stroke="#FF9400" stroke-miterlimit="10"/>
<path d="M5.96875 14.875C5.96875 15.1998 5.96875 16.9252 5.96875 17.25C5.96875 18.2338 7.56356 19.0312 9.53125 19.0312C11.4989 19.0312 13.0938 18.2338 13.0938 17.25C13.0938 16.9252 13.0938 15.1998 13.0938 14.875M15.4688 5.96875C14.5239 5.96875 13.6178 6.15642 12.9497 6.49047C12.2816 6.82452 11.9062 7.27758 11.9062 7.75C11.9062 8.22242 12.2816 8.67549 12.9497 9.00953C13.6178 9.34358 14.5239 9.53125 15.4688 9.53125C16.4136 9.53125 17.3197 9.34358 17.9878 9.00953C18.6559 8.67549 19.0312 8.22242 19.0312 7.75C19.0312 7.27758 18.6559 6.82452 17.9878 6.49047C17.3197 6.15642 16.4136 5.96875 15.4688 5.96875Z" stroke="#FF9400" stroke-miterlimit="10"/>
<path d="M11.9062 7.75C11.9062 8.07478 11.9062 9.80022 11.9062 10.125C11.9062 11.1088 13.5011 11.9062 15.4688 11.9062C17.4364 11.9062 19.0312 11.1088 19.0312 10.125C19.0312 9.80022 19.0312 8.07478 19.0312 7.75" stroke="#FF9400" stroke-miterlimit="10"/>
<path d="M13.1371 13.8466C13.7623 14.1174 14.5769 14.2812 15.4687 14.2812C17.4364 14.2812 19.0312 13.4838 19.0312 12.5C19.0312 12.1752 19.0312 10.4498 19.0312 10.125" stroke="#FF9400" stroke-miterlimit="10"/>
<path d="M13.1091 16.2097C13.7373 16.4876 14.5638 16.6562 15.4687 16.6562C17.4364 16.6562 19.0312 15.8588 19.0312 14.875C19.0312 14.5502 19.0312 12.8248 19.0312 12.5" stroke="#FF9400" stroke-miterlimit="10"/>
</svg>
