<svg width="22" height="22" viewBox="0 0 22 22" fill="none" xmlns="http://www.w3.org/2000/svg">
<path d="M11 15.5C11 18.2614 13.2386 20.5 16 20.5C18.7614 20.5 21 18.2614 21 15.5C21 12.7386 18.7614 10.5 16 10.5C13.2386 10.5 11 12.7386 11 15.5ZM11 15.5C11 14.3742 11.3721 13.3353 12 12.4995V3.5M11 15.5C11 16.3254 11.2 17.104 11.5541 17.7901C10.7117 18.5018 8.76584 19 6.5 19C3.46243 19 1 18.1046 1 17V3.5M12 3.5C12 4.60457 9.53757 5.5 6.5 5.5C3.46243 5.5 1 4.60457 1 3.5M12 3.5C12 2.39543 9.53757 1.5 6.5 1.5C3.46243 1.5 1 2.39543 1 3.5M1 12.5C1 13.6046 3.46243 14.5 6.5 14.5C8.689 14.5 10.5793 14.035 11.4646 13.3618M12 8C12 9.10457 9.53757 10 6.5 10C3.46243 10 1 9.10457 1 8" stroke="#344054" stroke-width="2" stroke-linecap="round" stroke-linejoin="round"/>
</svg>
