<svg width="25" height="25" viewBox="0 0 25 25" fill="none" xmlns="http://www.w3.org/2000/svg">
<rect x="0.5" y="0.5" width="24" height="24" rx="12" fill="white" stroke="#E9E9E9"/>
<path d="M11.224 19.392V18.16C10.1893 18.0427 9.34667 17.68 8.696 17.072C8.04533 16.464 7.70933 15.648 7.688 14.624H9.848C9.86933 15.0507 9.99733 15.424 10.232 15.744C10.4773 16.064 10.808 16.2827 11.224 16.4V13.024C11.128 12.992 11.0267 12.96 10.92 12.928C10.824 12.896 10.7227 12.864 10.616 12.832C9.752 12.5333 9.09067 12.1493 8.632 11.68C8.184 11.2107 7.96 10.5867 7.96 9.808C7.94933 8.89067 8.248 8.15467 8.856 7.6C9.464 7.03467 10.2533 6.70933 11.224 6.624V5.328H12.296V6.64C13.256 6.736 14.0293 7.072 14.616 7.648C15.2133 8.21333 15.528 8.944 15.56 9.84H13.368C13.3573 9.53067 13.256 9.248 13.064 8.992C12.8827 8.72533 12.6267 8.53867 12.296 8.432V11.408C12.3813 11.44 12.4667 11.472 12.552 11.504C12.6373 11.5253 12.7227 11.552 12.808 11.584C13.3627 11.776 13.8693 12 14.328 12.256C14.7867 12.512 15.1547 12.8533 15.432 13.28C15.7093 13.696 15.848 14.2347 15.848 14.896C15.848 15.4507 15.7093 15.968 15.432 16.448C15.1653 16.928 14.7653 17.328 14.232 17.648C13.7093 17.9573 13.064 18.1333 12.296 18.176V19.392H11.224ZM10.104 9.664C10.104 10.0053 10.2053 10.2827 10.408 10.496C10.6107 10.6987 10.8827 10.8747 11.224 11.024V8.368C10.8933 8.432 10.6213 8.576 10.408 8.8C10.2053 9.024 10.104 9.312 10.104 9.664ZM13.672 15.04C13.672 14.6133 13.544 14.2773 13.288 14.032C13.032 13.7867 12.7013 13.5787 12.296 13.408V16.448C12.7227 16.384 13.0587 16.2293 13.304 15.984C13.5493 15.7387 13.672 15.424 13.672 15.04Z" fill="#FF9400"/>
</svg>
