<svg width="12" height="12" viewBox="0 0 12 12" fill="none" xmlns="http://www.w3.org/2000/svg">
<g clip-path="url(#clip0_141_237552)">
<path d="M12 3.47791V1.16107L9.99354 0.00262451L7.98708 1.16107V1.81216H4.01292V1.16107L2.00646 0.00262451L0 1.16107V3.47791L1.65495 4.43341V7.56654L0 8.52201V10.8389L2.00646 11.9973L4.01292 10.8389V10.171H7.98705V10.8389L9.99352 11.9973L12 10.8389V8.52199L10.3451 7.56651V4.43339L12 3.47791ZM10.3451 3.62163V2.52244L11.297 1.97285V3.07202L10.3451 3.62163ZM8.69009 1.97285L9.64202 2.52244V3.62163L8.69009 3.07202V1.97285ZM10.9455 1.36399L9.99354 1.9136L9.0416 1.36399L9.99354 0.814382L10.9455 1.36399ZM2.35798 2.52244L3.30989 1.97285V3.07202L2.35798 3.62163V2.52244ZM2.9584 1.36399L2.00646 1.9136L1.05452 1.36399L2.00646 0.814382L2.9584 1.36399ZM0.703031 3.07202V1.97285L1.65495 2.52244V3.62163L0.703031 3.07202ZM2.00646 9.27457L1.05455 8.72496L2.00646 8.17537L2.9584 8.72496L2.00646 9.27457ZM0.703031 9.3338L1.65495 9.88338V10.9826L0.703031 10.433V9.3338ZM2.35798 10.9826V9.88338L3.30989 9.3338V10.433L2.35798 10.9826ZM4.01292 9.46797V8.52201L2.35798 7.56654V4.43341L4.01292 3.47791V2.51519H7.98705V3.47791L9.642 4.43341V7.56654L7.98705 8.52201V9.46797H4.01292ZM9.99354 9.27457L9.0416 8.72496L9.99354 8.17537L10.9455 8.72496L9.99354 9.27457ZM8.69009 9.3338L9.64202 9.88338V10.9826L8.69009 10.433V9.3338ZM10.3451 10.9826V9.88338L11.297 9.3338V10.433L10.3451 10.9826Z" fill="#1F2937"/>
</g>
<defs>
<clipPath id="clip0_141_237552">
<rect width="12" height="12" fill="white"/>
</clipPath>
</defs>
</svg>
