<svg width="20" height="23" viewBox="0 0 20 23" fill="none" xmlns="http://www.w3.org/2000/svg">
<path d="M12.5301 10.2883L14.1791 7.49021L18.6239 14.413L18.626 15.7416L18.6115 6.59931C18.601 6.37576 18.4823 6.17128 18.293 6.05066L10.2907 1.44781C10.1037 1.35579 9.86616 1.35689 9.67936 1.45071C9.65408 1.46342 9.63045 1.4771 9.60779 1.49216L9.57988 1.5097L1.81235 6.01087L1.78223 6.02468C1.74341 6.04237 1.7043 6.06516 1.66741 6.09142C1.52013 6.19697 1.42231 6.35324 1.39067 6.5283C1.38597 6.55482 1.38238 6.5819 1.38086 6.60926L1.39302 14.0593L5.53315 7.64246C6.05431 6.79164 7.19003 6.51738 8.24437 6.53244L9.48164 6.56505L2.19106 18.257L3.05045 18.7518L10.4284 6.57693L13.6895 6.56505L6.33064 19.0472L9.39723 20.8112L9.76364 21.0217C9.91866 21.0847 10.1013 21.0879 10.2576 21.0314L18.3723 16.3288L16.8209 17.2278L12.5301 10.2883ZM13.1592 19.3499L10.0619 14.4886L11.9527 11.2801L16.0205 17.6917L13.1592 19.3499Z" fill="#2D374B"/>
<path d="M10.0613 14.4887L13.1587 19.35L16.0198 17.6918L11.9521 11.2802L10.0613 14.4887Z" fill="#28A0F0"/>
<path d="M18.6254 15.7417L18.6233 14.4131L14.1785 7.49033L12.5295 10.2885L16.8204 17.228L18.3719 16.3289C18.524 16.2054 18.6161 16.024 18.6258 15.8283L18.6254 15.7417Z" fill="#28A0F0"/>
<path d="M0 16.9946L2.19089 18.2571L9.48147 6.56509L8.24419 6.53248C7.18999 6.51756 6.05427 6.79168 5.53297 7.6425L1.39285 14.0593L0 16.1994V16.9946Z" fill="white"/>
<path d="M13.6893 6.56506L10.4282 6.57695L3.05029 18.7518L5.62915 20.2365L6.33034 19.0472L13.6893 6.56506Z" fill="white"/>
<path d="M20 6.54822C19.9728 5.86623 19.6035 5.242 19.0251 4.87849L10.918 0.216229C10.3458 -0.0718461 9.6311 -0.0722605 9.05785 0.216091C8.99015 0.250218 1.17385 4.78343 1.17385 4.78343C1.06567 4.83524 0.961493 4.897 0.863534 4.96719C0.34721 5.33733 0.0324689 5.91238 0 6.54407V16.1995L1.39285 14.0594L1.38069 6.60929C1.38235 6.58207 1.3858 6.55513 1.3905 6.52874C1.422 6.3534 1.51996 6.19714 1.66724 6.09144C1.70413 6.06519 9.65376 1.46345 9.67904 1.45074C9.86598 1.35692 10.1033 1.35582 10.2904 1.44784L18.2927 6.05068C18.482 6.1713 18.6007 6.37579 18.6112 6.59934V15.8281C18.6015 16.0237 18.5241 16.2052 18.372 16.3287L16.8205 17.2277L16.02 17.6917L13.1589 19.3498L10.2573 21.0313C10.101 21.0878 9.91821 21.0846 9.76332 21.0216L6.33033 19.0471L5.629 20.2364L8.71423 22.0127C8.8162 22.0707 8.90711 22.1221 8.98172 22.1641C9.09723 22.2289 9.17598 22.2721 9.20375 22.2857C9.42302 22.3922 9.73845 22.4541 10.0228 22.4541C10.2834 22.4541 10.5376 22.4063 10.7781 22.3121L19.2061 17.4314C19.6898 17.0565 19.9744 16.4913 20 15.8791V6.54822Z" fill="#96BEDC"/>
</svg>
