<svg width="12" height="12" viewBox="0 0 12 12" fill="none" xmlns="http://www.w3.org/2000/svg">
<g clip-path="url(#clip0_557_78304)">
<path d="M1.6001 6H4.0001M1.6001 9.2H5.6001M1.6001 2.8H7.2001M8.8001 2.8H10.4001M5.6001 6H10.4001M7.2001 9.2H10.4001M4.8001 5.2C4.58792 5.2 4.38444 5.28429 4.23441 5.43431C4.08438 5.58434 4.0001 5.78783 4.0001 6C4.0001 6.21217 4.08438 6.41566 4.23441 6.56569C4.38444 6.71571 4.58792 6.8 4.8001 6.8C5.01227 6.8 5.21575 6.71571 5.36578 6.56569C5.51581 6.41566 5.6001 6.21217 5.6001 6C5.6001 5.78783 5.51581 5.58434 5.36578 5.43431C5.21575 5.28429 5.01227 5.2 4.8001 5.2ZM6.4001 8.4C6.18792 8.4 5.98444 8.48429 5.83441 8.63431C5.68438 8.78434 5.6001 8.98783 5.6001 9.2C5.6001 9.41217 5.68438 9.61566 5.83441 9.76569C5.98444 9.91571 6.18792 10 6.4001 10C6.61227 10 6.81575 9.91571 6.96578 9.76569C7.11581 9.61566 7.2001 9.41217 7.2001 9.2C7.2001 8.98783 7.11581 8.78434 6.96578 8.63431C6.81575 8.48429 6.61227 8.4 6.4001 8.4V8.4ZM8.0001 2C7.78792 2 7.58444 2.08429 7.43441 2.23431C7.28438 2.38434 7.2001 2.58783 7.2001 2.8C7.2001 3.01217 7.28438 3.21566 7.43441 3.36569C7.58444 3.51571 7.78792 3.6 8.0001 3.6C8.21227 3.6 8.41575 3.51571 8.56578 3.36569C8.71581 3.21566 8.8001 3.01217 8.8001 2.8C8.8001 2.58783 8.71581 2.38434 8.56578 2.23431C8.41575 2.08429 8.21227 2 8.0001 2V2Z" stroke="#15202B" stroke-miterlimit="10" stroke-linecap="round" stroke-linejoin="round"/>
</g>
<defs>
<clipPath id="clip0_557_78304">
<rect width="12" height="12" fill="white"/>
</clipPath>
</defs>
</svg>
