<?xml version="1.0" encoding="utf-8"?>
<svg viewBox="-6.079 -94.266 1000 1000" class="jss227" width="24" height="24" xmlns="http://www.w3.org/2000/svg" xmlns:bx="https://boxy-svg.com">
  <path d="M 0 0 L 1023.52 1023.52 L 0 1023.52 L 0 0 Z" style="fill: rgb(130, 71, 228);" transform="matrix(0.000729, 1, -1, 0.000729, 1015.716309, -96.286583)" bx:shape="triangle 0 0 1023.52 1023.52 0 0 1@d21596db"/>
  <path d="M 370.299 227.347 C 370.299 218.829 370.189 211.111 370.299 203.401 C 370.433 195.577 367.137 189.923 360.431 185.96 C 350.496 180.076 340.711 173.957 330.777 168.059 C 324.111 164.097 317.256 163.618 310.369 167.616 C 300.004 173.633 289.597 179.597 279.293 185.724 C 273.74 189.02 270.289 193.967 270.209 200.55 C 270.033 214.029 270.013 227.442 270.31 240.881 C 270.451 247.02 273.895 251.616 279.071 254.783 C 289.417 261.072 299.734 267.392 310.168 273.526 C 316.637 277.334 323.302 277.603 329.948 273.722 C 366.125 252.606 402.295 231.47 438.456 210.315 C 446.083 205.841 453.422 205.451 461.248 210.087 C 480.334 221.39 499.603 232.395 518.784 243.549 C 525.395 247.397 528.892 252.917 528.892 260.856 C 528.736 284.066 528.736 307.279 528.892 330.496 C 528.947 338.53 525.523 344.143 518.709 348.072 C 500.371 358.708 481.831 369.154 463.666 380.248 C 457.373 384.089 450.983 384.027 444.304 383.778 C 443.051 383.737 441.75 382.97 440.605 382.303 C 420.921 370.921 401.243 359.516 381.572 348.085 C 374.563 344.043 370.978 338.071 371.127 329.889 C 371.249 323.048 371.06 316.201 371.235 309.367 C 371.276 308.06 372.037 306.193 373.061 305.573 C 381.405 300.531 389.908 295.72 398.327 290.854 C 398.859 290.627 399.406 290.439 399.965 290.295 C 399.965 297.169 400.227 303.773 399.906 310.318 C 399.405 320.259 403.335 327.166 412.245 331.83 C 421.464 336.668 430.3 342.229 439.303 347.479 C 446.616 351.738 453.82 351.942 461.187 347.405 C 470.535 341.642 480.004 336.075 489.494 330.517 C 496.288 326.526 499.65 320.763 499.569 312.813 C 499.434 301.044 499.5 289.264 499.569 277.489 C 499.569 269.854 496.347 264.198 489.71 260.392 C 479.695 254.65 469.76 248.778 459.752 243.024 C 453.013 239.147 446.274 238.865 439.371 242.875 C 403.319 263.83 367.265 284.769 331.208 305.694 C 323.869 309.967 316.78 310.129 309.319 305.728 C 290.51 294.621 271.613 283.653 252.625 272.826 C 245.043 268.477 241.236 262.473 241.357 253.429 C 241.66 230.67 241.491 207.904 241.431 185.137 C 241.431 178.31 244.369 173.337 250.192 169.946 C 270.021 158.341 289.788 146.641 309.709 135.211 C 317.07 130.992 324.995 130.971 332.347 135.211 C 350.814 145.799 369.03 156.831 387.484 167.447 C 395.571 172.083 399.803 178.391 399.272 187.933 C 398.908 194.532 399.136 201.164 399.272 207.782 C 399.304 209.805 398.778 211.024 396.924 212.061 C 388.211 216.916 379.632 221.962 370.299 227.347 Z" class="fg" style="fill: rgb(255, 255, 255);"/>
  <path d="M 470.573 470.339 L 939.697 939.463 L 470.573 939.463 L 470.573 470.339 Z" style="fill: rgb(255, 255, 255);" transform="matrix(0, 1, -1, 0, 931.472107, -568.871887)" bx:shape="triangle 470.573 470.339 469.124 469.124 0 0 1@03ac205b"/>
</svg>