<svg width="26" height="25" viewBox="0 0 26 25" fill="none" xmlns="http://www.w3.org/2000/svg">
<rect x="0.890137" y="25" width="25" height="25" rx="12.5" transform="rotate(-90 0.890137 25)" fill="#1ABC9C"/>
<path d="M12.7832 8.07023C12.5488 8.30461 12.5723 8.65617 12.7832 8.89054L15.6191 11.5624H8.86914C8.56445 11.5624 8.30664 11.8202 8.30664 12.1249V12.8749C8.30664 13.203 8.56445 13.4374 8.86914 13.4374H15.6191L12.7832 16.1327C12.5723 16.3671 12.5488 16.7187 12.7832 16.953L13.2988 17.4687C13.5098 17.6796 13.8848 17.6796 14.0957 17.4687L18.6426 12.8984C18.877 12.6874 18.877 12.3359 18.6426 12.1015L14.0957 7.55461C13.8848 7.34367 13.5332 7.34367 13.2988 7.55461L12.7832 8.07023Z" fill="white" fill-opacity="0.8"/>
</svg>
