<svg width="18" height="17" viewBox="0 0 18 17" fill="none" xmlns="http://www.w3.org/2000/svg">
<path d="M11.2605 0C9.55713 0 8.01531 0.714519 6.92591 1.85938C6.66523 2.1333 5.98797 2.81262 5.40915 3.39653C5.26507 3.52154 5.12651 3.65241 4.99507 3.79044C4.96913 3.81756 4.94728 3.84832 4.93021 3.88175C4.31917 4.49523 3.9667 4.84266 3.41796 5.3857C3.29639 5.49417 3.17652 5.60434 3.06423 5.72226C3.04767 5.7397 3.03277 5.75864 3.01973 5.77885C2.72942 6.06447 2.27472 6.52066 2.11314 6.67458C1.99794 6.78431 1.89048 6.90159 1.78429 7.0202C1.69068 6.46539 1.43097 5.90518 0.872419 5.48606C0.800463 5.43059 0.711265 5.40226 0.620504 5.40607C0.540341 5.40934 0.463183 5.4375 0.399748 5.48664C0.336314 5.53579 0.289752 5.60348 0.26653 5.68032C0.243309 5.75715 0.244581 5.83932 0.27017 5.91539C0.295758 5.99147 0.344393 6.05769 0.409318 6.10485C1.04572 6.58239 1.11679 7.26659 1.03005 7.91744C1.01877 8.00213 0.998789 8.0769 0.982537 8.15665C0.52074 9.00627 0.2547 9.97802 0.2547 11.0114C0.2547 11.0409 0.258797 11.0694 0.259226 11.0989C0.258563 11.1342 0.2547 11.1693 0.2547 11.2045C0.254192 11.2434 0.259531 11.282 0.270539 11.3192C0.432262 14.4785 3.0431 17 6.24031 17C7.92834 17 9.45635 16.2969 10.544 15.1701C10.5537 15.1617 10.563 15.1529 10.5719 15.1436L10.5726 15.1429C10.5734 15.1421 10.5741 15.1414 10.5749 15.1406C11.3968 14.277 14.5245 11.1477 15.3877 10.3254C16.532 9.23547 17.2461 7.69287 17.2461 5.98864C17.2461 5.35379 17.1455 4.74231 16.9618 4.16775C16.8314 3.3491 16.8994 2.83514 16.9852 2.54079C17.0284 2.39229 17.0761 2.29841 17.1073 2.24649C17.1386 2.19457 17.133 2.20499 17.133 2.20499C17.1888 2.15072 17.2269 2.08085 17.2423 2.00453C17.2578 1.92822 17.2498 1.84902 17.2195 1.77732C17.1891 1.70561 17.1379 1.64475 17.0724 1.6027C17.0069 1.56066 16.9302 1.53939 16.8524 1.54168C16.7521 1.54467 16.6569 1.58662 16.5869 1.65865C16.5869 1.65865 16.5111 1.73963 16.4459 1.84806C16.3806 1.95648 16.3054 2.11264 16.2437 2.32422C16.2208 2.4029 16.2022 2.49721 16.1842 2.59135C15.1032 1.02794 13.3007 0 11.2605 0ZM11.2605 0.772727C13.5712 0.772727 15.5234 2.27047 16.209 4.34961C16.2095 4.35113 16.2101 4.35262 16.2106 4.35414C16.2174 4.38313 16.2275 4.41123 16.2407 4.4379C16.3924 4.92752 16.4738 5.44849 16.4738 5.98864C16.4738 7.31372 15.9798 8.51746 15.1682 9.43648C15.2682 8.9568 15.3153 8.45644 15.3153 7.92045C15.3153 4.61764 12.6308 1.93182 9.32966 1.93182C8.77667 1.93182 8.24351 2.01429 7.73445 2.15518C8.6627 1.29921 9.89632 0.772727 11.2605 0.772727ZM9.32966 2.70455C12.2134 2.70455 14.5429 5.03527 14.5429 7.92045C14.5429 9.03717 14.3561 9.89102 13.8392 10.7684C13.6401 10.9645 13.469 11.1323 13.2396 11.36C13.3383 10.8828 13.3844 10.3852 13.3844 9.85227C13.3844 6.54946 10.7 3.86364 7.39882 3.86364C6.85099 3.86364 6.32274 3.94486 5.81794 4.08323C5.86725 4.03355 5.8964 4.00363 5.94465 3.95494C6.85535 3.17552 8.03521 2.70455 9.32966 2.70455ZM7.39882 4.63636C10.2825 4.63636 12.6121 6.96709 12.6121 9.85227C12.6121 10.957 12.4284 11.8044 11.9242 12.6723C11.8386 12.7583 11.7941 12.8041 11.7108 12.8881C11.7991 12.4275 11.8398 11.9336 11.8398 11.3977C11.8405 11.346 11.8308 11.2947 11.8113 11.2468C11.7919 11.199 11.763 11.1555 11.7264 11.1189C11.6898 11.0824 11.6463 11.0536 11.5984 11.0342C11.5505 11.0148 11.4992 11.0053 11.4476 11.0061C11.3453 11.0077 11.2478 11.0498 11.1765 11.1232C11.1053 11.1967 11.066 11.2954 11.0674 11.3977C11.0674 12.848 10.8214 13.7809 10.0183 14.6048C10.0177 14.6054 10.0158 14.6073 10.0153 14.6079C9.06569 15.6058 7.72824 16.2273 6.24031 16.2273C3.38586 16.2273 1.0782 13.9427 1.03156 11.0981C1.04408 10.5344 1.15658 9.97612 1.36493 9.45987C1.36494 9.45962 1.36494 9.45937 1.36493 9.45912C1.36754 9.45464 1.37005 9.45011 1.37248 9.44553C1.37248 9.44553 1.41907 9.34346 1.47656 9.20255C1.63817 8.86671 1.84077 8.55216 2.08825 8.27361C2.78981 7.48396 3.82676 6.95455 5.27489 6.95455C6.53454 6.95455 7.38106 7.39131 7.93659 7.98988C8.49212 8.58845 8.75041 9.36932 8.75041 10.0455C8.75041 11.3977 7.77212 12.75 6.04723 12.75C5.55379 12.75 5.06554 12.5834 4.71072 12.2678C4.35591 11.9522 4.11639 11.4943 4.11639 10.8182C4.11639 10.3245 4.27435 9.9508 4.53423 9.69078C4.79411 9.43077 5.16762 9.27273 5.66106 9.27273C5.97734 9.27273 6.35134 9.38235 6.57067 9.56778C6.60905 9.6029 6.65413 9.6299 6.70319 9.64717C6.75226 9.66443 6.8043 9.6716 6.85621 9.66825C6.90811 9.66489 6.9588 9.65108 7.00524 9.62765C7.05168 9.60421 7.09291 9.57164 7.12646 9.53187C7.16 9.4921 7.18517 9.44596 7.20046 9.39622C7.21575 9.34649 7.22084 9.29417 7.21542 9.24241C7.21001 9.19066 7.1942 9.14053 7.16895 9.09504C7.14369 9.04955 7.10952 9.00963 7.06846 8.97767C6.65988 8.63224 6.13488 8.5 5.66106 8.5C4.99599 8.5 4.40408 8.72832 3.98817 9.14444C3.57225 9.56057 3.34405 10.1528 3.34405 10.8182C3.34405 11.6875 3.68378 12.3887 4.19784 12.8458C4.7119 13.303 5.38216 13.5227 6.04723 13.5227C8.18403 13.5227 9.52275 11.7841 9.52275 10.0455C9.52275 9.3634 9.32196 8.62823 8.89899 7.97856C9.42364 8.34354 9.92299 8.83127 10.3599 9.48704C10.3877 9.53012 10.4237 9.56726 10.466 9.59627C10.5082 9.62529 10.5558 9.64561 10.6059 9.65606C10.6561 9.6665 10.7078 9.66686 10.7581 9.65711C10.8084 9.64736 10.8562 9.6277 10.8988 9.59927C10.9415 9.57084 10.978 9.53421 11.0063 9.49152C11.0347 9.44882 11.0542 9.40091 11.0639 9.35057C11.0736 9.30024 11.0731 9.24849 11.0626 9.19833C11.052 9.14817 11.0316 9.10061 11.0026 9.05842C9.37 6.60835 6.88393 6.18182 5.27489 6.18182C5.26078 6.1818 5.24668 6.18256 5.23266 6.18408C4.55022 6.18871 3.93409 6.30576 3.38327 6.5063C3.56744 6.32582 3.77417 6.12034 3.99797 5.89884C4.9107 5.11165 6.09719 4.63636 7.39882 4.63636Z" fill="#1F2937"/>
</svg>
