<svg width="15" height="15" viewBox="0 0 15 15" fill="none" xmlns="http://www.w3.org/2000/svg">
<path d="M14.0312 11.8788C14.5739 12.3798 14.5739 13.2564 14.0312 13.7574C13.7808 14.0079 13.4468 14.1331 13.1128 14.1331C12.7371 14.1331 12.4031 14.0079 12.1526 13.7574L7.76927 9.37402L3.34415 13.7574C3.09367 14.0079 2.7597 14.1331 2.42573 14.1331C2.05001 14.1331 1.71604 14.0079 1.46556 13.7574C0.922858 13.2564 0.922858 12.3798 1.46556 11.8788L5.84893 7.45368L1.46556 3.07031C0.922858 2.56935 0.922858 1.69268 1.46556 1.19172C1.96652 0.649019 2.84319 0.649019 3.34415 1.19172L7.76927 5.5751L12.1526 1.19172C12.6536 0.649019 13.5303 0.649019 14.0312 1.19172C14.5739 1.69268 14.5739 2.56935 14.0312 3.07031L9.64786 7.49543L14.0312 11.8788Z" fill="#15202B"/>
</svg>
