<svg width="30" height="29" viewBox="0 0 30 29" fill="none" xmlns="http://www.w3.org/2000/svg">
<path d="M14.8903 0.633545C22.7151 0.633545 29.057 6.97673 29.057 14.8002C29.057 22.625 22.7151 28.9669 14.8903 28.9669C7.06682 28.9669 0.723633 22.6243 0.723633 14.8002C0.723633 6.97673 7.06682 0.633545 14.8903 0.633545Z" fill="#F5AC37"/>
<path d="M15.4124 15.8006H20.7955C20.9103 15.8006 20.9645 15.8006 20.9728 15.6501C21.0168 15.1025 21.0168 14.5517 20.9728 14.0034C20.9728 13.897 20.9199 13.853 20.8045 13.853H10.0912C9.95858 13.853 9.92288 13.897 9.92288 14.0213V15.5972C9.92288 15.8006 9.92288 15.8006 10.1352 15.8006H15.4124V15.8006ZM20.3716 12.0112C20.3869 11.9711 20.3869 11.9271 20.3716 11.8876C20.2817 11.6918 20.1753 11.5051 20.0516 11.3297C19.8654 11.0301 19.6461 10.7541 19.3962 10.5061C19.2783 10.3563 19.1419 10.2218 18.9889 10.1076C18.2226 9.45547 17.3116 8.99392 16.3324 8.76187C15.8383 8.65094 15.3334 8.59803 14.8272 8.60249H10.0727C9.94009 8.60249 9.92224 8.6554 9.92224 8.77079V11.9137C9.92224 12.0463 9.92224 12.082 10.0905 12.082H20.3079C20.3079 12.082 20.3965 12.0642 20.4143 12.0112H20.371H20.3716ZM20.3716 17.6423C20.2212 17.6258 20.0694 17.6258 19.919 17.6423H10.1001C9.9675 17.6423 9.92288 17.6423 9.92288 17.8196V20.8923C9.92288 21.0339 9.92288 21.0696 10.1001 21.0696H14.6334C14.8502 21.0861 15.0669 21.0708 15.2792 21.0256C15.9371 20.9784 16.5842 20.8356 17.2013 20.6004C17.4257 20.5226 17.6424 20.4212 17.8471 20.2995H17.9089C18.9716 19.7467 19.8348 18.8785 20.3793 17.8125C20.3793 17.8125 20.4411 17.6787 20.3716 17.6436V17.6423ZM8.1436 22.6627V22.6098V20.5468V19.8475V17.7666C8.1436 17.6513 8.1436 17.634 8.00207 17.634H6.08063C5.97416 17.634 5.93018 17.634 5.93018 17.4925V15.8101H7.98422C8.09897 15.8101 8.1436 15.8101 8.1436 15.6597V13.9952C8.1436 13.8887 8.1436 13.8626 8.00207 13.8626H6.08063C5.97416 13.8626 5.93018 13.8626 5.93018 13.721V12.163C5.93018 12.0654 5.93018 12.0393 6.0717 12.0393H7.9753C8.1079 12.0393 8.1436 12.0393 8.1436 11.871V7.09861C8.1436 6.95709 8.1436 6.92139 8.32082 6.92139H14.9611C15.443 6.94051 15.9218 6.99342 16.3955 7.08076C17.3715 7.26118 18.3093 7.60989 19.1667 8.10779C19.7354 8.44248 20.2588 8.84666 20.7248 9.31204C21.0754 9.67605 21.3916 10.07 21.6721 10.4895C21.9507 10.9147 22.1821 11.3693 22.3638 11.8442C22.3861 11.9679 22.5047 12.0514 22.6284 12.0304H24.2132C24.4166 12.0304 24.4166 12.0304 24.4255 12.2254V13.6777C24.4255 13.8192 24.3726 13.8549 24.2304 13.8549H23.0083C22.8847 13.8549 22.849 13.8549 22.8579 14.0143C22.9063 14.5536 22.9063 15.0949 22.8579 15.6342C22.8579 15.7846 22.8579 15.8025 23.0268 15.8025H24.4249C24.4867 15.8822 24.4249 15.9619 24.4249 16.0422C24.4338 16.1448 24.4338 16.2487 24.4249 16.3514V17.423C24.4249 17.5735 24.3809 17.6181 24.2476 17.6181H22.5742C22.4575 17.5958 22.3441 17.6704 22.3173 17.7864C21.9188 18.8224 21.2813 19.7512 20.4577 20.4958C20.1568 20.7667 19.8406 21.0218 19.5103 21.257C19.1559 21.461 18.811 21.6733 18.4476 21.8416C17.7789 22.1425 17.0776 22.3643 16.3579 22.5052C15.6745 22.6276 14.9815 22.6831 14.286 22.6735H8.14105V22.6646L8.1436 22.6627Z" fill="#FEFEFD"/>
</svg>
