<svg width="31" height="31" viewBox="0 0 31 31" fill="none" xmlns="http://www.w3.org/2000/svg">
<path d="M30.3901 15.8003C30.3901 23.8084 23.8983 30.3003 15.8901 30.3003C7.88201 30.3003 1.39014 23.8084 1.39014 15.8003C1.39014 7.79216 7.88201 1.30029 15.8901 1.30029C23.8983 1.30029 30.3901 7.79216 30.3901 15.8003Z" fill="#627EEA" stroke="#F6F6F6"/>
<path d="M16.3574 5.8833V13.2134L22.5529 15.9818L16.3574 5.8833Z" fill="white" fill-opacity="0.602"/>
<path d="M16.3574 5.8833L10.1611 15.9818L16.3574 13.2134V5.8833Z" fill="white"/>
<path d="M16.3574 20.7319V25.7126L22.557 17.1355L16.3574 20.7319Z" fill="white" fill-opacity="0.602"/>
<path d="M16.3574 25.7126V20.7311L10.1611 17.1355L16.3574 25.7126Z" fill="white"/>
<path d="M16.3574 19.5789L22.5529 15.9816L16.3574 13.2148V19.5789Z" fill="white" fill-opacity="0.2"/>
<path d="M10.1611 15.9816L16.3574 19.5789V13.2148L10.1611 15.9816Z" fill="white" fill-opacity="0.602"/>
</svg>
