<svg width="41" height="40" viewBox="0 0 41 40" fill="none" xmlns="http://www.w3.org/2000/svg">
<g clip-path="url(#clip0_24_23818)">
<path d="M39.75 20C39.75 30.8073 31.0573 39.5 20.25 39.5C9.44274 39.5 0.75 30.8073 0.75 20C0.75 9.19274 9.44274 0.5 20.25 0.5C31.0573 0.5 39.75 9.19274 39.75 20Z" fill="white" stroke="#F6F6F6"/>
<g clip-path="url(#clip1_24_23818)">
<path d="M31.5217 22.293C31.6056 22.3602 31.6608 22.4183 31.7435 22.4872C31.7935 22.5289 31.7939 22.5289 31.843 22.4834C31.8771 22.4516 31.9103 22.4183 31.9453 22.3872C32.0866 22.2602 32.2766 22.2664 32.4081 22.4046C32.4605 22.4601 32.5099 22.5186 32.556 22.58C32.6697 22.7306 32.6583 22.9275 32.5299 23.0646C32.4939 23.103 32.4557 23.1394 32.4167 23.1745C32.3843 23.2036 32.3832 23.232 32.4062 23.2686C32.4536 23.3439 32.4996 23.4202 32.5442 23.4974C32.6007 23.5952 32.6511 23.697 32.6988 23.7998C32.7442 23.8977 32.7442 23.897 32.8385 23.8654C32.8841 23.8487 32.9306 23.8348 32.9777 23.8238C33.1313 23.7924 33.2768 23.8713 33.3423 24.0234C33.382 24.1171 33.4117 24.2154 33.4308 24.3162C33.459 24.4599 33.3765 24.6193 33.2445 24.69C33.1934 24.7172 33.1372 24.7291 33.0838 24.7494C33.0192 24.7741 33.0136 24.779 33.0241 24.8461C33.0582 25.0578 33.0823 25.2705 33.0838 25.4855C33.0843 25.5324 33.1009 25.5591 33.1471 25.5632C33.1867 25.5667 33.2259 25.5745 33.2654 25.5788C33.4225 25.5961 33.5294 25.6793 33.576 25.8434C33.58 25.8576 33.5903 26.1534 33.5766 26.2335C33.5464 26.4105 33.4167 26.5366 33.2462 26.5437C33.2094 26.5455 33.1726 26.543 33.1363 26.5363C33.0691 26.5233 33.0246 26.5533 33.0084 26.6223C32.9684 26.7919 32.9145 26.9567 32.8568 27.1202C32.8397 27.1674 32.8495 27.2089 32.8866 27.2421C32.9059 27.2595 32.9804 27.3448 32.9924 27.3732C33.02 27.4383 32.9005 27.3369 32.873 27.32C32.8097 27.2814 32.0354 26.8268 31.7471 26.6637C31.7678 26.5016 31.8422 26.2943 31.8722 26.1345C32.0251 25.3203 31.867 24.5777 31.4245 23.8996C31.0565 23.3357 30.5526 22.975 29.9338 22.7961C29.3891 22.6385 28.8493 22.6706 28.3196 22.8762C27.8815 23.0464 27.4017 23.3254 27.1385 23.7647C27.1083 23.8004 27.094 23.7963 27.0464 23.7737C26.8817 23.6864 26.2361 23.2394 25.9736 23.077C25.8573 22.9528 25.7804 22.7497 25.8677 22.5997C25.9301 22.4927 26.0138 22.406 26.1037 22.3281C26.23 22.2187 26.4132 22.2218 26.5472 22.3246C26.7136 22.4522 26.7135 22.4516 26.8752 22.3146C26.9595 22.2429 27.0495 22.1794 27.1381 22.114C27.2206 22.0531 27.2268 22.0286 27.188 21.9332C27.0826 21.673 27.1503 21.4752 27.388 21.3466C27.4508 21.311 27.5164 21.2815 27.5841 21.2582C27.7656 21.1994 27.9328 21.2683 28.0314 21.4402C28.1343 21.6195 28.1338 21.6192 28.3274 21.5718C28.4297 21.5467 28.5335 21.5289 28.6368 21.5089C28.7401 21.4888 28.7558 21.4715 28.7617 21.3628C28.7641 21.3085 28.7718 21.2546 28.7848 21.2019C28.8121 21.0969 28.8616 21.0047 28.9639 20.9634C29.1592 20.8842 29.3563 20.8691 29.5478 20.9731C29.6609 21.0344 29.7136 21.1398 29.715 21.2764C29.7171 21.4812 29.7185 21.4829 29.9066 21.5153C30.0302 21.5366 30.1513 21.5684 30.2728 21.5989C30.365 21.622 30.3888 21.6129 30.4248 21.5184C30.5157 21.2792 30.7419 21.1572 31.0086 21.2965C31.0842 21.336 31.1636 21.3649 31.2297 21.4286C31.363 21.557 31.3723 21.7467 31.3175 21.8851C31.3097 21.9046 31.3004 21.9232 31.2929 21.9428C31.2563 22.0389 31.2524 22.0951 31.2524 22.0951C31.2524 22.0951 31.439 22.2267 31.5217 22.293Z" fill="#5F5F5F"/>
<path d="M31.7041 26.585C31.7816 26.6639 32.8175 27.2664 32.9067 27.3233C32.9333 27.3269 32.9538 27.3456 32.9778 27.3559L32.9765 27.355C32.995 27.3727 33.0127 27.3914 33.0294 27.4111L33.0284 27.4098C33.1105 27.5319 33.11 27.6621 33.0626 27.7969C33.0324 27.8685 32.9962 27.9371 32.9543 28.0017C32.8568 28.1578 32.6769 28.2068 32.5186 28.1221C32.4705 28.0963 32.4239 28.0676 32.3782 28.0368C32.345 28.0147 32.3221 28.0206 32.2988 28.0534C32.1721 28.2316 32.0311 28.398 31.8777 28.5507C31.8467 28.5814 31.843 28.6082 31.8691 28.6438C31.8991 28.684 31.927 28.726 31.9538 28.7685C32.0632 28.9409 32.0337 29.1398 31.8791 29.2675C31.8253 29.3119 31.7704 29.355 31.7133 29.3945C31.5598 29.5005 31.3798 29.4706 31.2629 29.3207C31.2305 29.2786 31.2002 29.2348 31.1721 29.1894C31.1472 29.1497 31.1222 29.1406 31.0805 29.1659C30.905 29.2721 30.7196 29.356 30.5304 29.4302C30.4615 29.4574 30.4621 29.4584 30.4756 29.5349C30.4804 29.5615 30.4841 29.5885 30.489 29.6151C30.533 29.8393 30.4828 29.9608 30.2983 30.0759C30.2506 30.104 30.1959 30.0996 30.1448 30.114C30.0557 30.1366 29.9656 30.1348 29.8749 30.13H29.8745C29.8448 30.1144 29.8156 30.0976 29.7865 30.0807C29.6993 30.0033 29.6603 29.9014 29.6377 29.7845C29.607 29.6263 29.6257 29.652 29.4886 29.6588C29.307 29.6679 29.1251 29.6671 28.9436 29.6564C28.8731 29.6522 28.873 29.6519 28.8568 29.7213C28.8492 29.7536 28.8407 29.7857 28.8361 29.8186C28.8067 30.0258 28.6497 30.1815 28.3994 30.1307C28.3382 30.1182 28.2775 30.1014 28.2176 30.0827C28.0466 30.0292 27.9476 29.8538 27.9819 29.6673C27.9904 29.62 28.0008 29.5729 28.0095 29.5254C28.0213 29.4609 28.0205 29.4576 27.9596 29.4333C27.8426 29.3865 27.7261 29.3387 27.6135 29.281C27.547 29.2469 27.4812 29.2113 27.4156 29.1753C27.3474 29.138 27.3478 29.1374 27.3002 29.2054C27.2746 29.2417 27.2507 29.2792 27.2242 29.3142C27.1075 29.4697 26.9234 29.5024 26.7679 29.3936C26.7086 29.3522 26.6509 29.3078 26.5953 29.261C26.4534 29.1412 26.4228 28.9446 26.5203 28.7822C26.5493 28.734 26.5816 28.6878 26.6141 28.6422C26.6367 28.6105 26.6382 28.5852 26.6091 28.5561C26.4536 28.4012 26.3109 28.2323 26.1826 28.0514C26.1583 28.0169 26.1344 28.0171 26.1028 28.0381C26.0643 28.0638 26.0245 28.0873 25.9846 28.1107C25.8055 28.2144 25.6189 28.1632 25.5137 27.9768C25.4761 27.91 25.43 27.8488 25.4042 27.7739C25.34 27.5883 25.3941 27.4164 25.5543 27.313C25.5884 27.291 25.6232 27.2707 25.6566 27.2487C25.7157 27.2102 25.7173 27.2091 25.6912 27.1419C25.637 27.0023 25.5904 26.8596 25.5516 26.7143C25.5346 26.6508 25.5184 26.5862 25.5042 26.5216C25.494 26.4745 25.4708 26.4562 25.4252 26.4664C25.3888 26.4735 25.3522 26.4786 25.3154 26.4818C25.0987 26.5061 24.9381 26.3681 24.9155 26.1383C24.9093 26.0748 24.9027 26.0121 24.8985 25.9489C24.8927 25.8574 24.9201 25.767 24.9751 25.6964C25.0302 25.6258 25.1086 25.5804 25.1942 25.5695C25.242 25.5632 25.2902 25.5593 25.3378 25.5514C25.3999 25.5405 25.402 25.5391 25.4029 25.4702C25.4057 25.3192 25.4165 25.1686 25.4353 25.0189C25.4432 24.9531 25.4639 24.8892 25.4594 24.8218C25.4547 24.7757 25.4362 24.7471 25.4014 24.7327C25.3776 24.7253 25.3719 24.7222 25.3364 24.7127C25.2663 24.6946 25.2026 24.6623 25.1519 24.6077" fill="#414141"/>
<path d="M25.4624 24.8622C25.4705 24.816 25.4518 24.7466 25.4072 24.7333C25.3689 24.7219 25.3076 24.6975 25.2696 24.6853C25.1184 24.6368 25.0235 24.5099 25.0069 24.3394C24.9877 24.2668 25.0478 24.032 25.0751 23.9559C25.1362 23.7882 25.2859 23.6904 25.4546 23.7175C25.491 23.7231 25.5268 23.733 25.5612 23.7469C25.6249 23.7732 25.674 23.7525 25.7021 23.6881C25.7715 23.5295 25.8754 23.3724 25.9422 23.2128C26.0069 23.0586 25.9611 23.0714 25.9837 23.0767C26.0389 23.1274 26.8455 23.5445 27.0998 23.7626C26.9342 23.9531 26.5662 24.8159 26.5509 25.1044" fill="#414141"/>
<path d="M27.1095 23.7488C27.6244 23.1568 27.9928 22.9027 28.5011 22.7491C28.8104 22.6549 29.1331 22.6207 29.4538 22.6481C29.9935 22.6942 30.4808 22.8946 30.9099 23.2489C31.2884 23.5615 31.564 23.9574 31.752 24.4242C31.867 24.7098 31.9277 25.0083 31.9561 25.3177C31.9968 25.7607 31.9076 26.2557 31.7647 26.6687C31.7357 26.6959 31.2092 26.3125 31.1528 26.2378C31.1399 26.1976 31.1558 26.1606 31.1655 26.1233C31.2173 25.9215 31.2508 25.7166 31.2448 25.5069C31.2165 24.4992 30.571 23.6681 29.6783 23.4651C29.0195 23.3152 28.321 23.4665 27.6815 24.1577C27.6654 24.1673 27.6604 24.1465 27.5518 24.067C27.3695 23.949 27.2798 23.8751 27.1553 23.7948C27.0839 23.7505 27.0875 23.7744 27.1095 23.7488Z" fill="#414141"/>
<path d="M31.775 26.6406C31.7578 26.6696 31.7423 26.6997 31.7286 26.7307C31.5716 27.1333 31.32 27.4637 31.0137 27.7435C30.6129 28.11 30.1478 28.3385 29.62 28.4119C29.4907 28.43 29.361 28.4497 29.2303 28.4454C28.8523 28.4326 28.487 28.3585 28.138 28.1969C27.9166 28.0937 27.7094 27.9591 27.5219 27.7968C27.2301 27.5458 26.9931 27.2441 26.819 26.8867C26.6591 26.5574 26.5671 26.2091 26.528 25.842C26.4939 25.5261 26.5207 25.216 26.5829 24.9068C26.654 24.554 26.7867 24.2288 26.972 23.9275C26.9983 23.8847 27.075 23.7875 27.0999 23.7631C27.2345 23.8375 27.6019 24.0955 27.6609 24.1515C27.698 24.2031 27.6294 24.2711 27.6082 24.3042C27.4952 24.4798 27.4022 24.6651 27.3424 24.8688C27.1339 25.5783 27.2295 26.2387 27.6494 26.8323C27.9998 27.3277 28.4764 27.5992 29.059 27.6614C29.8891 27.7501 30.741 27.2488 31.0915 26.3641C31.1109 26.3153 31.106 26.2382 31.1848 26.2344C31.2355 26.2963 31.7154 26.6058 31.775 26.6406Z" fill="#5F5F5F"/>
<path d="M31.185 26.2342C31.1189 26.4145 31.045 26.5902 30.9414 26.7506C30.6132 27.2586 30.1652 27.5739 29.5949 27.6825C29.0172 27.7924 28.4884 27.6553 28.0182 27.2857C27.6046 26.9604 27.3408 26.5229 27.2389 25.9871C27.1186 25.3537 27.245 24.7709 27.5976 24.2442C27.6107 24.2245 27.6232 24.2047 27.6364 24.1849C27.6497 24.168 27.825 23.9622 27.9102 23.8862C28.2882 23.5495 28.7205 23.3768 29.2148 23.3668C30.1407 23.3481 30.976 24.0149 31.2169 24.9836C31.3133 25.3713 31.3107 25.76 31.2059 26.1466C31.198 26.1753 31.1919 26.205 31.185 26.2342Z" fill="#F2994A"/>
<path d="M29.789 25.5421C29.8046 25.8737 29.5184 26.1304 29.2469 26.1269C28.9371 26.123 28.6829 25.8645 28.6857 25.5366C28.6883 25.2161 28.9239 24.951 29.2508 24.9501C29.5231 24.9493 29.8041 25.2084 29.789 25.5421Z" fill="#414141"/>
<path d="M29.8203 24.4407C29.8832 24.4339 29.9357 24.4576 29.9792 24.5073C30.0178 24.5513 30.0592 24.5927 30.0969 24.6376C30.1845 24.7416 30.1311 24.9321 30.0178 24.9695C29.9684 24.9859 29.923 24.987 29.8795 24.9566C29.7863 24.8914 29.7068 24.809 29.6363 24.7187C29.5613 24.6227 29.5994 24.4998 29.7108 24.4581C29.7458 24.4445 29.783 24.4386 29.8203 24.4407Z" fill="#F1C372"/>
<path d="M14.9559 30.095C14.8023 30.0091 14.7113 29.8755 14.6839 29.6922C14.6745 29.6297 14.6583 29.5685 14.6463 29.5063C14.6377 29.4627 14.6171 29.4482 14.5744 29.4519C14.3027 29.4762 14.0297 29.4792 13.7576 29.4609C13.7207 29.4586 13.6838 29.4564 13.6472 29.4519C13.6123 29.4477 13.5942 29.463 13.587 29.4988C13.574 29.5637 13.5566 29.6278 13.5466 29.6933C13.5154 29.8953 13.4114 30.0342 13.2342 30.1124C13.1209 30.1452 13.0076 30.1337 12.8943 30.1114C12.7894 30.0906 12.6817 30.0809 12.5866 30.0223C12.5501 29.9937 12.5109 29.9691 12.4792 29.9336C12.3662 29.8066 12.3195 29.6583 12.3486 29.4853C12.3596 29.42 12.3742 29.3555 12.3866 29.2904C12.4075 29.1791 12.4073 29.1785 12.3098 29.1419C12.0878 29.0579 11.8713 28.9585 11.6616 28.8443C11.6111 28.8171 11.5599 28.7899 11.5117 28.7587C11.4748 28.7346 11.4503 28.7397 11.4264 28.7769C11.3896 28.8341 11.3488 28.8885 11.3123 28.9461C11.1568 29.1917 10.8518 29.2636 10.6119 29.0668C10.549 29.0152 10.4827 28.9684 10.4197 28.9171C10.1971 28.7362 10.1565 28.448 10.3187 28.2037C10.3611 28.1395 10.4046 28.076 10.4489 28.0132C10.47 27.9836 10.4696 27.9594 10.4429 27.9351C10.43 27.9234 10.4184 27.91 10.406 27.8975C10.1982 27.6874 10.0063 27.4602 9.83208 27.2181C9.78261 27.1493 9.78218 27.1496 9.70951 27.1941C9.6603 27.2242 9.61134 27.2546 9.56212 27.2848C9.30334 27.4421 9.04627 27.373 8.88635 27.1033C8.86443 27.0689 8.85615 27.0563 8.83321 27.0149C8.80498 26.9566 8.77086 26.902 8.74527 26.8418C8.63618 26.5848 8.71218 26.3218 8.94051 26.1766C8.99407 26.1425 9.04849 26.1098 9.10257 26.076C9.17455 26.0306 9.17532 26.0301 9.14436 25.9513C9.04485 25.6977 8.96275 25.4367 8.89872 25.1705C8.88814 25.1267 8.87654 25.0831 8.86801 25.0388C8.85948 24.9945 8.83526 24.9801 8.79457 24.9856C8.71858 24.9959 8.6425 25.0077 8.56607 25.0123C8.3699 25.0244 8.2185 24.9414 8.11607 24.7624C8.07342 24.6887 8.05739 24.6061 8.05022 24.5209C8.04493 24.4574 8.03316 24.4003 8.02915 24.3322C8.01261 24.0748 8.15112 23.7515 8.45562 23.7283C8.5207 23.7234 8.58543 23.713 8.65034 23.7054C8.7254 23.6963 8.72804 23.6957 8.72975 23.6197C8.73463 23.3963 8.75172 23.1734 8.78093 22.9521C8.79287 22.8625 8.80651 22.773 8.82135 22.6839C8.8356 22.5988 8.83568 22.597 8.75594 22.5693C8.69623 22.5486 8.63653 22.5291 8.57776 22.5078C8.32239 22.4162 8.19053 22.1576 8.26217 21.8823C8.28862 21.7806 8.32111 21.6805 8.356 21.5816C8.44547 21.3267 8.69043 21.1982 8.93599 21.2753C9.00951 21.2983 9.0832 21.3214 9.15468 21.3504C9.2004 21.3686 9.2207 21.3534 9.23997 21.3105C9.28526 21.2097 9.33448 21.1109 9.38216 21.0116C9.39921 20.9773 9.41491 20.9499 9.43035 20.9184C9.48152 20.8186 9.53585 20.7202 9.60093 20.6293C9.65953 20.5748 19.5189 26.7418 19.4911 26.8129C19.4721 26.8492 19.4569 26.8843 19.4388 26.9194C19.404 26.985 19.3711 27.0519 19.3341 27.1161C19.1935 27.3595 18.9374 27.4337 18.6984 27.3009C18.6357 27.266 18.5754 27.2259 18.5137 27.1885C18.4496 27.1497 18.4488 27.1493 18.4052 27.2092C18.3079 27.3429 18.2061 27.4727 18.0999 27.5984C18.0048 27.7107 17.9042 27.8171 17.8018 27.9217C17.7548 27.9698 17.7548 27.9713 17.7911 28.026C17.8319 28.0877 17.8751 28.1476 17.9156 28.2095C18.0727 28.4499 18.0306 28.7391 17.8123 28.9161C17.7424 28.9728 17.6713 29.0279 17.5991 29.0813C17.3723 29.2485 17.1029 29.2028 16.9352 28.9689C16.8925 28.909 16.852 28.8467 16.8094 28.7863C16.7708 28.7319 16.7694 28.7311 16.7129 28.7637C16.4813 28.8986 16.241 29.0156 15.9936 29.1138C15.959 29.1274 15.9241 29.1402 15.8897 29.1542C15.8273 29.1795 15.8261 29.1804 15.8385 29.254C15.8495 29.3193 15.8587 29.3855 15.8764 29.449C15.9422 29.6861 15.8047 29.9725 15.4994 30.0733C15.3675 30.1169 15.0817 30.1486 14.9559 30.095Z" fill="#414141"/>
<path d="M19.4725 26.8308C19.2654 26.703 17.4224 25.4952 17.2933 25.4195C17.2233 25.3818 17.2461 25.3773 17.2885 25.2924C17.4393 24.9499 17.5407 24.5852 17.5894 24.2106C17.6246 23.9377 17.6227 23.6636 17.6016 23.3888C17.5817 23.1299 17.536 22.8739 17.4651 22.6253C17.3748 22.3085 17.2441 22.012 17.0827 21.7287C16.9027 21.4127 16.6733 21.1429 16.4199 20.8941C16.2251 20.7027 16.0049 20.5474 15.7724 20.4124C15.423 20.2083 15.0429 20.0705 14.6491 20.0054C14.4017 19.9645 14.1521 19.9444 13.9024 19.9618C13.3711 19.999 12.8681 20.1476 12.4003 20.4211C12.0313 20.6425 11.7009 20.93 11.424 21.271C11.3533 21.358 11.2528 21.5312 11.1836 21.619C11.1439 21.6695 10.4825 21.2131 9.58282 20.647C9.616 20.5849 9.64799 20.5341 9.68347 20.4798C9.70556 20.4459 9.70377 20.4202 9.67494 20.3934C9.61976 20.3413 9.56474 20.289 9.51058 20.2356C9.33829 20.0656 9.29803 19.8402 9.40593 19.6187C9.43058 19.568 9.4751 19.4488 9.54299 19.3621C9.57583 19.3202 9.61199 19.282 9.64748 19.2429C9.82113 19.0519 10.1587 19.0487 10.34 19.2248C10.5593 19.4376 10.5305 19.3881 10.7153 19.2374C10.8731 19.1088 11.0329 18.9834 11.1999 18.8682C11.2898 18.8062 11.2956 18.7763 11.2501 18.6725C11.1995 18.5567 11.1538 18.4403 11.1636 18.308C11.1758 18.1447 11.2381 18.005 11.3636 17.9143C11.5427 17.7849 11.7329 17.6784 11.9614 17.6851C12.1501 17.6907 12.2823 17.7905 12.3782 17.954C12.4123 18.0127 12.4389 18.077 12.4665 18.1399C12.4921 18.1989 12.5335 18.2181 12.5916 18.2019C12.8363 18.1338 13.0842 18.0821 13.3337 18.0392C13.4243 18.0236 13.4426 17.9953 13.4461 17.8995C13.4478 17.8663 13.4478 17.833 13.4461 17.7997C13.4267 17.4953 13.6485 17.2397 13.9106 17.222C14.0551 17.2122 14.1998 17.2006 14.3433 17.2311C14.5542 17.2764 14.7618 17.4819 14.7409 17.7641C14.738 17.8031 14.7401 17.8425 14.7409 17.882C14.7428 17.998 14.7633 18.0263 14.871 18.0428C15.1044 18.0775 15.3356 18.1277 15.5631 18.193C15.6836 18.228 15.7023 18.2153 15.7524 18.0956C15.7917 18.0018 15.8311 17.9078 15.9006 17.8325C16.0409 17.6808 16.2157 17.6563 16.3977 17.6991C16.5419 17.733 16.6773 17.8026 16.8014 17.8886C17.0036 18.0289 17.0773 18.2808 16.995 18.5259C16.978 18.5769 16.9573 18.6268 16.9358 18.6762C16.8932 18.773 16.9004 18.8084 16.9852 18.8654C17.1633 18.9841 17.3348 19.1137 17.4989 19.2535C17.6786 19.4077 17.6465 19.4311 17.8448 19.2402C18.0185 19.073 18.2866 19.053 18.445 19.1676C18.6055 19.2835 18.7452 19.4295 18.8379 19.6122C18.9204 19.7749 18.9093 20.0741 18.745 20.2244C18.6957 20.2698 18.652 20.3219 18.6062 20.3715C18.5666 20.4146 18.5612 20.4617 18.5926 20.5109C18.7394 20.7408 18.8708 20.9815 18.9859 21.2311C19.0141 21.2923 19.0626 21.3079 19.1223 21.2879C19.1926 21.2638 19.2643 21.2447 19.337 21.2307C19.5313 21.1944 19.7453 21.2852 19.8451 21.4666C19.942 21.6423 20.0015 21.8352 20.0076 22.0415C20.0141 22.2683 19.908 22.4253 19.7261 22.5297C19.6657 22.5636 19.6021 22.5904 19.5363 22.6097C19.4667 22.6308 19.437 22.6758 19.451 22.7512C19.5 23.0217 19.5163 23.2956 19.5324 23.5698C19.5367 23.6424 19.5697 23.6825 19.6383 23.6846C19.6894 23.6862 19.7398 23.6964 19.7904 23.7034C20.0512 23.7397 20.2295 23.9555 20.2305 24.2361C20.2309 24.2904 20.2285 24.3447 20.2232 24.3987C20.2147 24.484 20.186 24.6062 20.1635 24.686C20.0982 24.9183 19.8778 25.0455 19.6505 25.0302C19.5769 25.0253 19.5037 25.0127 19.4301 25.0049C19.3626 24.9979 19.3592 24.9988 19.3424 25.0701C19.2919 25.284 19.2369 25.4965 19.1646 25.7035C19.131 25.7998 19.0964 25.8956 19.0584 25.99C19.0413 26.0318 19.0485 26.0575 19.085 26.0794C19.1567 26.1225 19.229 26.1647 19.2982 26.2124C19.4828 26.3394 19.559 26.5704 19.4918 26.791C19.4864 26.8048 19.4799 26.8181 19.4725 26.8308Z" fill="#666059"/>
<path d="M11.9547 22.0628C12.04 21.9539 12.1209 21.8409 12.2143 21.7388C12.6549 21.2574 13.1872 20.9747 13.8157 20.8995C14.3716 20.8329 14.8989 20.9358 15.386 21.2273C16.1359 21.6761 16.5832 22.3602 16.7243 23.2618C16.8062 23.7856 16.7442 24.2969 16.5486 24.7878C16.5376 24.8156 16.5297 24.8447 16.5204 24.8732C16.5417 24.9205 16.521 24.961 16.5024 25.002C16.4076 25.2107 16.2828 25.3978 16.1384 25.5691C15.7231 26.0617 15.2148 26.3883 14.598 26.5012C13.7792 26.6511 13.0405 26.4496 12.3982 25.8865C11.8773 25.4297 11.5635 24.8383 11.4624 24.1292C11.3837 23.5772 11.4492 23.0395 11.6642 22.5259C11.7163 22.4013 11.7796 22.2836 11.8433 22.1656C11.8693 22.1164 11.9033 22.0797 11.9547 22.0628Z" fill="#F2994A"/>
<path d="M12.43 23.6894C12.4159 22.6722 13.234 21.8971 14.1017 21.8924C14.9528 21.8877 15.8021 22.6085 15.8036 23.6984C15.805 24.7102 15.033 25.4791 14.1319 25.489C13.1501 25.4998 12.412 24.6382 12.43 23.6894Z" fill="#45423D"/>
<path d="M15.7736 22.0297C15.7876 22.1797 15.6109 22.2974 15.4881 22.2106C15.4048 22.1519 15.326 22.092 15.26 22.0136C15.1649 21.9009 15.1866 21.7841 15.3126 21.7104C15.4059 21.656 15.4929 21.6521 15.579 21.7302C15.6397 21.7851 15.6984 21.8405 15.7419 21.9121C15.764 21.9467 15.7751 21.9879 15.7736 22.0297Z" fill="#F1C372"/>
<path d="M12.7696 23.7016C12.7487 22.9667 13.3086 22.25 14.1212 22.2532C14.8803 22.2565 15.4728 22.9039 15.4652 23.7138C15.4578 24.5122 14.8354 25.1381 14.0957 25.1284C13.3288 25.1184 12.7489 24.4319 12.7696 23.7016Z" fill="#F2994A"/>
<path d="M14.1127 24.2771C13.8104 24.2771 13.5583 24.0096 13.5606 23.6874C13.5625 23.3699 13.7938 23.1042 14.1162 23.1006C14.4103 23.0974 14.6671 23.356 14.6655 23.6924C14.664 24.0202 14.4218 24.2775 14.1127 24.2771Z" fill="#414141"/>
<path d="M14.751 22.7164C14.7827 22.7164 14.8137 22.7202 14.8407 22.7391C14.958 22.8218 15.0208 22.9369 15.0166 23.0881C15.0144 23.1659 14.9095 23.2476 14.8381 23.2304C14.7172 23.2012 14.6187 23.1375 14.5514 23.023C14.4932 22.9239 14.5047 22.841 14.5919 22.771C14.6391 22.7334 14.693 22.7181 14.751 22.7164Z" fill="#F1C372"/>
<path d="M11.9549 22.0627C11.8669 22.2109 11.7817 22.3603 11.7136 22.5206C11.5993 22.791 11.525 23.0787 11.4935 23.3734C11.4516 23.7449 11.4805 24.1216 11.5784 24.4811C11.6764 24.8405 11.8413 25.1752 12.0635 25.4654C12.4012 25.9064 12.8268 26.2102 13.3367 26.3797C13.6323 26.478 13.9366 26.5231 14.2448 26.5014C15.0512 26.4447 15.7088 26.0795 16.2114 25.4036C16.3169 25.2611 16.4079 25.1071 16.4828 24.9441C16.4941 24.9199 16.508 24.897 16.5206 24.8735C16.5907 24.9085 17.1362 25.2832 17.2292 25.3524C17.2661 25.3796 17.2494 25.4159 17.2318 25.4491C17.136 25.6311 17.0348 25.8094 16.9129 25.9734C16.6465 26.3319 16.3358 26.6375 15.9683 26.8771C15.6116 27.1098 15.2197 27.2752 14.81 27.3658C14.493 27.4369 14.172 27.4474 13.8519 27.4262C13.4261 27.3983 13.0181 27.2837 12.6297 27.092C12.3636 26.9622 12.1142 26.7967 11.8876 26.5996C11.4419 26.209 11.0963 25.7371 10.8726 25.1672C10.7297 24.8014 10.6403 24.4145 10.6076 24.0199C10.5564 23.4313 10.6441 22.8649 10.8389 22.3143C10.9103 22.1127 11.0045 21.9235 11.1051 21.7376C11.115 21.7194 11.1261 21.7013 11.1375 21.6843C11.1987 21.5919 11.2103 21.589 11.3012 21.6441C11.4539 21.7367 11.7476 21.9304 11.8971 22.0275C11.917 22.0379 11.9364 22.0496 11.9549 22.0627Z" fill="#666059"/>
<path d="M16.6955 24.2879C16.7726 23.9228 16.7798 23.5449 16.7167 23.1768C16.6536 22.8086 16.5215 22.4578 16.3281 22.1451C16.0051 21.7019 15.5991 21.3286 15.1487 21.0981C14.8676 20.9693 14.5663 20.8975 14.2603 20.8864C13.4527 20.8559 12.7603 21.1405 12.1962 21.759C12.1075 21.8581 12.0242 21.9625 11.9467 22.0716C11.8804 22.0294 11.2694 21.6979 11.1835 21.6189C11.1494 21.5875 11.4158 21.2665 11.5527 21.1165C11.8519 20.7886 12.1901 20.5178 12.5787 20.3193C12.9424 20.1198 13.3581 20.0057 13.7775 19.9583C14.0992 19.9213 14.424 19.9305 14.7433 19.9855C15.1642 20.0592 15.5523 20.2334 15.9204 20.4663C16.1727 20.6241 16.4051 20.8157 16.6117 21.0362C17.0178 21.473 17.3167 21.9797 17.4851 22.5708C17.5923 22.9502 17.6443 23.3449 17.6392 23.7411C17.6336 24.3321 17.4942 24.8751 17.2916 25.3124C17.2514 25.3991 17.2879 25.397 17.1714 25.3124C17.0284 25.2035 16.6715 24.9762 16.5209 24.8734C16.5115 24.8658 16.6345 24.579 16.6955 24.2879Z" fill="#45423D"/>
<path d="M12.9461 8.88456C12.884 8.67445 12.8363 8.46016 12.784 8.24724C12.7702 8.19117 12.7857 8.17611 12.842 8.16159C15.9522 7.35707 19.7344 7.9718 21.6769 8.59769C21.9848 8.71518 22.2844 8.85172 22.5616 9.03851C22.6819 9.11962 22.796 9.20898 22.8857 9.32882C22.9107 9.36164 22.9332 9.39652 22.953 9.43315C23 9.52215 23.0105 9.61187 22.9663 9.70922C22.864 9.93506 22.7527 10.1558 22.6324 10.3715C22.5547 10.5119 22.4748 10.651 22.396 10.7908C22.3589 10.8586 22.3172 10.9236 22.2714 10.985C22.2312 11.0249 22.1861 11.0057 22.1427 10.9954C21.9525 10.95 21.7604 10.9145 21.5713 10.865C21.5574 10.8614 21.5432 10.8676 21.5291 10.8681C21.3311 10.7999 21.1219 10.7921 20.9208 10.7411C20.8945 10.7344 20.8715 10.7513 20.8463 10.7468C20.5159 10.6785 20.181 10.644 19.8483 10.5954C19.7313 10.5782 19.6106 10.5873 19.4972 10.5429C19.4539 10.4941 19.446 10.4305 19.4314 10.369C19.3476 10.0067 19.2387 9.65506 19.0391 9.34279C19.0087 9.29535 18.9757 9.25007 18.9411 9.20598C18.8373 9.07344 18.7134 8.9946 18.5451 8.97111C18.1062 8.90969 17.6666 8.85661 17.2257 8.81688C16.4922 8.75038 15.7578 8.73904 15.0229 8.75011C14.6602 8.75546 14.2979 8.78113 13.9359 8.81434C13.6362 8.84155 13.3372 8.87385 13.039 8.91586C13.002 8.91967 12.9701 8.91731 12.9461 8.88456Z" fill="#F2994A"/>
<path d="M23.2594 15.2107C23.0528 15.2092 22.8462 15.2046 22.6397 15.2077C22.5739 15.2086 22.5593 15.1679 22.545 15.1175C22.489 15.0994 22.4905 15.045 22.4819 14.9996C22.4151 14.6504 22.3523 14.3002 22.2796 13.9523C22.1009 13.0969 21.9001 12.2476 21.6559 11.4103C21.6138 11.266 21.5685 11.1229 21.5274 10.9783C21.5149 10.9343 21.491 10.8863 21.5314 10.8422C21.5464 10.824 21.5663 10.824 21.5859 10.8278C21.8158 10.8731 22.0455 10.9185 22.2713 10.984C22.4195 11.4278 22.5442 11.8793 22.6593 12.3339C22.8156 12.9517 22.9498 13.5753 23.0749 14.201C23.1215 14.4347 23.2589 15.2049 23.2594 15.2107Z" fill="#45423D"/>
<path d="M12.9461 8.88458C13.2178 8.83523 13.492 8.80656 13.766 8.78043C13.9637 8.76156 14.1623 8.74949 14.3605 8.73507C14.9109 8.69443 15.4619 8.69524 16.0128 8.70513C16.4129 8.7123 16.8126 8.73489 17.2121 8.76864C17.4781 8.79113 17.7437 8.81699 18.0087 8.8492C18.2313 8.87641 18.4522 8.9157 18.6749 8.94654C18.7469 8.95643 18.8011 8.99399 18.8526 9.04398C19.0299 9.21635 19.1551 9.42718 19.2535 9.65726C19.3705 9.93069 19.4508 10.2166 19.5041 10.5114C19.4918 10.5528 19.46 10.5533 19.428 10.5512C19.2865 10.5422 19.1447 10.5315 19.0037 10.5176C18.8794 10.5053 18.7545 10.4994 18.6303 10.492C18.4323 10.4804 18.2341 10.4575 18.0351 10.4692C17.9584 10.4738 17.8827 10.4532 17.8061 10.452C17.7024 10.4503 17.6702 10.4742 17.6342 10.5764C17.4221 11.1795 17.2475 11.7949 17.0941 12.4175C16.857 13.3791 16.6762 14.3534 16.5241 15.3338C16.4833 15.5958 16.4501 15.8591 16.4138 16.1219C16.4064 16.1753 16.4009 16.2301 16.3689 16.2761C16.3439 16.3028 16.3121 16.3046 16.2816 16.2962C16.139 16.257 15.9974 16.2133 15.8551 16.173C15.844 16.1703 15.8337 16.1648 15.825 16.1569C15.8164 16.149 15.8097 16.1389 15.8055 16.1276C15.7825 16.062 15.797 15.9954 15.8062 15.9308C15.9512 14.8702 16.1287 13.8163 16.3621 12.7736C16.5272 12.0363 16.7154 11.3063 16.9564 10.5924C16.9929 10.4845 16.9725 10.4531 16.8659 10.4518C16.4433 10.4468 16.0215 10.4624 15.5991 10.4839C15.3869 10.4948 15.1747 10.5041 14.9631 10.5229C14.9489 10.5229 14.9346 10.5235 14.9204 10.5236C14.6994 10.5251 14.6943 10.5303 14.6246 10.749C14.219 12.0207 13.9355 13.3244 13.7165 14.6454C13.651 15.0405 13.5936 15.4369 13.5352 15.8331C13.53 15.8694 13.5262 15.9052 13.5047 15.9356C13.4842 15.9707 13.4505 15.9754 13.4165 15.9809C13.2403 16.0081 13.0631 16.0271 12.8877 16.0602C12.8482 16.0677 12.7997 16.0767 12.7917 16.0091C12.8211 15.8002 12.8506 15.5914 12.8801 15.3825C12.9565 14.8393 13.0431 14.298 13.1397 13.7586C13.2665 13.0519 13.4115 12.3507 13.5906 11.6579C13.6759 11.3293 13.764 11.0015 13.8712 10.68C13.9087 10.5673 13.9086 10.5673 13.8275 10.4894C13.6318 10.301 13.4368 10.1119 13.2401 9.92461C13.204 9.89088 13.1787 9.84596 13.1677 9.79615C13.1011 9.52154 13.0313 9.24783 12.9625 8.97376C12.9506 8.94576 12.9451 8.91518 12.9463 8.88449L12.9461 8.88458Z" fill="#45423D"/>
<path d="M12.9463 8.88416C12.9567 8.91291 12.9686 8.94131 12.9625 8.97342C12.9454 8.9463 12.9238 8.91963 12.9463 8.88416Z" fill="#A9A9A9"/>
<path d="M17.4621 16.7703C17.1352 16.5836 16.7926 16.4364 16.4421 16.3089C16.4102 16.2973 16.3767 16.2887 16.3524 16.2609C16.3885 15.9949 16.4218 15.7286 16.4611 15.4632C16.5521 14.8489 16.6583 14.2375 16.7798 13.6293C16.9649 12.7074 17.1863 11.796 17.4774 10.9049C17.524 10.7623 17.5723 10.6203 17.6207 10.4785C17.6452 10.4068 17.6463 10.4065 17.7186 10.4087C18.1216 10.4208 18.5247 10.4372 18.9272 10.4641C19.1197 10.4769 19.3118 10.4958 19.5042 10.5119C19.822 10.5444 20.1387 10.586 20.4548 10.6337C20.5891 10.654 20.7234 10.6727 20.8568 10.6991C20.9336 10.7316 20.9811 10.794 21.0274 10.8657C21.2035 11.1385 21.3438 11.4331 21.4604 11.7366C21.5826 12.0542 21.6943 12.3781 21.7697 12.7136C21.7994 12.8457 21.8415 12.9745 21.8721 13.1061C21.9719 13.5393 22.0825 13.9697 22.1632 14.4079C22.2045 14.6326 22.2485 14.8571 22.303 15.0792C22.3175 15.1383 22.3415 15.2051 22.27 15.2477C22.2623 15.2567 22.256 15.2681 22.2466 15.2734C22.12 15.3447 22.0345 15.4606 21.9514 15.5788C21.8125 15.7761 21.675 15.9745 21.537 16.1726C21.4981 16.1907 21.4661 16.1757 21.4343 16.1514C21.268 16.0248 21.1003 15.9004 20.931 15.7781C20.845 15.7158 20.8383 15.6846 20.8961 15.5926C20.978 15.462 21.0661 15.3359 21.1507 15.2071C21.1832 15.1576 21.218 15.1094 21.2445 15.0559C21.2923 14.9588 21.2748 14.862 21.2012 14.804C21.1277 14.7461 21.0361 14.7579 20.9656 14.842C20.8766 14.9481 20.8065 15.0698 20.7305 15.1867C20.4893 15.5564 20.2476 15.9259 20.0055 16.2951C19.9827 16.3297 19.9595 16.3644 19.9441 16.4039C19.9087 16.4937 19.9334 16.5863 20.0051 16.6361C20.0793 16.6876 20.1647 16.6774 20.2275 16.6009C20.3155 16.4938 20.3851 16.3719 20.4616 16.2561C20.5104 16.1818 20.559 16.1074 20.6093 16.0344C20.6444 15.9836 20.6831 15.9761 20.7336 16.0106C20.9176 16.1364 21.0933 16.2749 21.2729 16.4076C21.303 16.4298 21.3326 16.4561 21.3314 16.5016C21.2753 16.599 21.2193 16.6965 21.1628 16.7935C21.1344 16.8422 21.1039 16.8896 21.0759 16.9386C20.9591 17.1416 20.9555 17.3514 21.0562 17.5597C21.3272 18.1207 21.6089 18.6756 21.9267 19.2087C21.9662 19.275 22.0088 19.339 22.0485 19.405C22.1605 19.5907 22.3278 19.6652 22.5246 19.6715C22.7145 19.6774 22.9039 19.6553 23.093 19.6376C23.0888 20.4774 22.8627 21.2457 22.4398 21.9527C22.3805 22.0517 22.3164 22.094 22.201 22.0904C21.8948 22.0807 21.5881 22.0886 21.2817 22.0895C21.2197 22.0804 21.222 22.0221 21.2134 21.9784C21.1771 21.7982 21.1293 21.6216 21.0788 21.4455C20.8851 20.7661 20.6041 20.1184 20.2438 19.5207C20.1274 19.3274 19.9974 19.1449 19.8755 18.9561C19.7622 18.7988 19.6399 18.649 19.5138 18.5037C19.2891 18.2449 19.0559 17.9947 18.8007 17.7688C18.4315 17.4441 18.0361 17.1546 17.6191 16.9038C17.5614 16.8669 17.4921 16.8439 17.4621 16.7703Z" fill="#B9E1E1"/>
<path d="M22.2512 15.2684C22.2749 15.214 22.2728 15.1388 22.2605 15.0876C22.1528 14.6408 21.3921 11.5258 20.9619 10.8403C20.9098 10.7572 20.8975 10.7351 20.8564 10.6987C21.0585 10.7154 21.2566 10.7608 21.4569 10.7905C21.4722 10.7924 21.4869 10.7981 21.4998 10.8072C21.5127 10.8163 21.5233 10.8284 21.5309 10.8427C21.7996 11.7107 22.0301 12.5899 22.2225 13.4804C22.3404 14.0231 22.4613 14.6063 22.5575 15.1539C22.5578 15.1552 22.5582 15.1564 22.5589 15.1574C22.5782 15.1956 22.5832 15.1851 22.4707 15.2001C22.4009 15.2096 22.3071 15.2427 22.2512 15.2684Z" fill="#DCF9FB"/>
<path d="M15.8252 16.117C15.6503 16.0807 15.4755 16.0411 15.3001 16.0091C15.0909 15.9714 14.88 15.9454 14.6682 15.9312C14.4678 15.9173 14.269 15.9131 14.0683 15.9126C13.9554 15.9126 13.8411 15.9243 13.7276 15.9154C13.6811 15.8775 13.6895 15.8261 13.6962 15.7744C13.7925 15.0358 13.9045 14.3003 14.0504 13.5699C14.1528 13.0555 14.268 12.5447 14.4098 12.0414C14.5453 11.5606 14.7031 11.0882 14.9476 10.6552C14.9845 10.59 14.9903 10.5362 14.9513 10.4751C14.9782 10.4636 15.0069 10.4637 15.0351 10.4623C15.6787 10.4313 16.3223 10.3976 16.9668 10.4039C16.9946 10.4039 17.0236 10.3969 17.0506 10.4116C17.0614 10.4442 17.0433 10.4707 17.0341 10.4979C16.7499 11.3234 16.5351 12.1711 16.3502 13.0275C16.1933 13.754 16.0631 14.4859 15.9508 15.2216C15.9056 15.5197 15.8672 15.8186 15.8252 16.117Z" fill="#B9E1E1"/>
<path d="M15.0076 10.4634C15.1228 10.449 15.1119 10.4558 15.0428 10.5813C14.8563 10.9202 14.6991 11.2687 14.5791 11.6364C14.5095 11.8495 14.4421 12.0646 14.39 12.2844C14.3331 12.5243 14.2659 12.7614 14.2131 13.0025C14.1597 13.2465 14.1145 13.4924 14.0651 13.7373C14.0144 13.9882 13.9627 14.2388 13.9242 14.492C13.8645 14.8851 13.8068 15.2785 13.7512 15.6722C13.7399 15.7523 13.7256 15.8329 13.7279 15.9149C13.6992 15.9286 13.5023 15.9502 13.4873 15.9149C13.5003 15.722 13.5343 15.5319 13.5624 15.3413C13.6318 14.8703 13.7098 14.4008 13.7964 13.9328C13.9985 12.8514 14.2474 11.7827 14.5811 10.7384C14.6022 10.6727 14.6271 10.6083 14.6458 10.5418C14.6567 10.5029 14.6784 10.4885 14.7133 10.4874C14.7932 10.4831 14.9934 10.4627 15.0076 10.4634Z" fill="#DCF9FB"/>
<path d="M25.6478 23.7669C25.4493 23.7507 25.2282 23.5846 25.0702 24.0136C24.9132 24.4389 25.144 24.6028 25.1092 24.5884C25.092 24.5861 25.0747 24.5855 25.0574 24.5867C24.9274 24.5883 24.793 24.5655 24.6633 24.5653C24.6173 24.5429 24.6281 24.5029 24.6358 24.4641C24.7012 24.1298 24.8013 23.8042 24.9343 23.4934C25.1104 23.0859 25.3259 22.7041 25.5959 22.3576C25.9712 21.8763 26.411 21.4776 26.9223 21.1678C27.4546 20.8454 28.0259 20.646 28.6311 20.5591C28.9235 20.5172 29.2183 20.5015 29.5139 20.5235C29.626 20.5319 29.7136 20.4833 29.7739 20.3849C29.7985 20.3449 29.8256 20.3144 29.8677 20.2985C29.9164 20.298 29.9607 20.32 30.0072 20.331C30.1096 20.3554 30.1202 20.3515 30.1651 20.253C30.2376 20.0939 30.3127 19.9363 30.4064 19.7894C30.4294 19.7736 30.4486 19.7522 30.4625 19.7271C30.5839 19.5294 30.7391 19.3659 30.9215 19.2317C30.9267 19.2292 30.9324 19.2282 30.9381 19.2288C31.0041 19.2288 31.0213 19.2825 31.0373 19.3349C31.1071 19.5649 31.1857 19.791 31.2828 20.01C31.4437 20.3729 31.6424 20.7086 31.8975 21.0048C31.9355 21.049 31.9835 21.0884 31.9613 21.1604C31.8284 21.4084 31.6956 21.6563 31.5628 21.9043C31.5432 21.9406 31.5217 21.976 31.501 22.0118C31.4641 22.0743 31.4224 22.1334 31.3764 22.1886C31.3645 22.1794 31.3518 22.1713 31.3385 22.1644C31.3309 22.1604 31.3164 22.1468 31.3089 22.1425C31.1698 22.062 31.1895 22.0566 31.2588 21.9066C31.3023 21.812 31.3249 21.7161 31.2974 21.6094C31.2866 21.5653 31.2673 21.5241 31.2408 21.4884C31.2143 21.4527 31.1811 21.4232 31.1433 21.4017C31.0543 21.3503 30.9621 21.3019 30.8604 21.2792C30.7178 21.2478 30.5688 21.3181 30.5001 21.4552C30.4774 21.5006 30.4616 21.5492 30.4404 21.5955C30.4102 21.6629 30.3928 21.6723 30.327 21.6524C30.152 21.5993 29.9753 21.5559 29.7942 21.5344C29.7772 21.5324 29.761 21.5254 29.7442 21.5237C29.6958 21.5177 29.6754 21.4875 29.6759 21.4378C29.6759 21.3895 29.6729 21.341 29.6759 21.2927C29.6871 21.1099 29.5776 20.9863 29.4187 20.9529C29.3041 20.9288 29.186 20.9304 29.072 20.9576C28.9263 20.9926 28.8401 21.0872 28.8198 21.2479C28.8116 21.3076 28.8068 21.3677 28.8054 21.428C28.8046 21.5065 28.7995 21.5131 28.725 21.5286C28.6331 21.5478 28.5404 21.5623 28.4485 21.5809C28.3536 21.6001 28.2598 21.6241 28.167 21.6528C28.1067 21.6716 28.0926 21.6641 28.0674 21.6042C28.0442 21.5491 28.0224 21.4934 27.9926 21.4418C27.9139 21.3057 27.7715 21.2429 27.6258 21.2828C27.5212 21.3119 27.4216 21.3587 27.3309 21.4214C27.1988 21.5121 27.1505 21.6834 27.2064 21.845C27.2231 21.893 27.2476 21.9378 27.267 21.9848C27.2916 22.0439 27.2894 22.058 27.2406 22.0898C27.0684 22.2019 26.909 22.3328 26.7505 22.4651C26.7042 22.5038 26.6914 22.5043 26.6481 22.4617C26.6095 22.4217 26.5686 22.3843 26.5256 22.3497C26.4038 22.2559 26.2373 22.2547 26.1227 22.3576C26.0428 22.4294 25.9672 22.5076 25.9103 22.6035C25.8241 22.7487 25.844 22.921 25.9615 23.039C26.009 23.0867 26.014 23.0903 26.0912 23.1465C25.9725 23.2728 25.7407 23.6136 25.6728 23.7479" fill="#414141"/>
<path d="M24.0598 24.5483C23.5827 24.5478 23.1054 24.5473 22.6281 24.5468C21.8697 24.5468 21.1112 24.5468 20.3527 24.5468C20.1778 24.5468 20.1748 24.5409 20.1991 24.3584C20.2162 24.2254 20.2193 24.0926 20.1491 23.9716C20.0734 23.8412 19.9665 23.7575 19.823 23.7341C19.753 23.7219 19.6823 23.7142 19.6114 23.7112C19.5261 23.7086 19.5107 23.686 19.5075 23.5945C19.4973 23.2987 19.4745 23.0048 19.421 22.7133C19.3998 22.5981 19.4057 22.5884 19.5143 22.5564C19.6023 22.5307 19.6879 22.4987 19.7664 22.4485C19.9613 22.3237 20.0186 22.1105 19.9718 21.8913C19.9505 21.7915 19.918 21.694 19.8865 21.597C19.8047 21.3453 19.588 21.2144 19.3423 21.2634C19.2581 21.2802 19.1775 21.3088 19.0963 21.336C19.0297 21.3587 19.0213 21.3564 18.9904 21.2875C18.8613 20.9981 18.7091 20.7209 18.5353 20.4592C18.5027 20.4104 18.5044 20.3951 18.5541 20.3554C18.6223 20.3004 18.6776 20.2306 18.7409 20.1702C18.8931 20.025 18.8904 19.7195 18.7993 19.5736C18.7135 19.4363 18.6048 19.3196 18.4865 19.217C18.3376 19.0875 18.0766 19.0829 17.9112 19.2411C17.8542 19.2955 17.7895 19.3409 17.7391 19.4031C17.7089 19.4403 17.681 19.4412 17.6453 19.409C17.5609 19.3329 17.4757 19.2577 17.3882 19.1858C17.2511 19.0731 17.1068 18.9716 16.9604 18.8725C16.8336 18.7867 16.8395 18.806 16.9039 18.6639C16.9309 18.6073 16.9545 18.549 16.9747 18.4893C17.0485 18.257 16.9816 18.0024 16.7463 17.8754C16.6448 17.821 16.5429 17.7648 16.4335 17.7331C16.2799 17.6887 16.1301 17.6968 15.9951 17.8034C15.9404 17.8473 15.8965 17.9046 15.8672 17.9705C15.8309 18.049 15.799 18.1299 15.7642 18.2092C15.7378 18.2689 15.732 18.2727 15.6726 18.2528C15.4445 18.1766 15.2113 18.1245 14.9755 18.0847C14.9194 18.0756 14.8632 18.0665 14.8071 18.058C14.7258 18.0455 14.7195 18.0388 14.718 17.948C14.7169 17.8725 14.7172 17.7969 14.718 17.7212C14.7199 17.5114 14.6157 17.3764 14.447 17.2889C14.3985 17.2628 14.3454 17.2479 14.2912 17.2451C14.1637 17.2404 14.036 17.2318 13.9088 17.2541C13.6661 17.2973 13.5154 17.4775 13.5079 17.7384C13.506 17.8048 13.5079 17.8713 13.5071 17.938C13.506 18.0399 13.502 18.043 13.4098 18.0586C13.1265 18.1063 12.844 18.1584 12.5687 18.247C12.503 18.268 12.4951 18.2635 12.4651 18.1945C12.4365 18.1288 12.4087 18.0626 12.3798 17.9969C12.2664 17.7355 12.0033 17.651 11.7609 17.745C11.6701 17.78 11.5815 17.8211 11.4956 17.868C11.3546 17.9455 11.2616 18.0653 11.2312 18.2358C11.2155 18.3254 11.2234 18.4178 11.254 18.5028C11.2805 18.5796 11.3155 18.6521 11.3486 18.7256C11.3767 18.7881 11.3735 18.8023 11.3199 18.8369C11.0936 18.9829 10.8823 19.1509 10.6759 19.3268C10.6494 19.3493 10.6248 19.3749 10.5992 19.3982C10.5551 19.4375 10.5415 19.4374 10.4968 19.3964C10.4474 19.3511 10.3965 19.3073 10.3503 19.2584C10.176 19.0742 9.84978 19.0753 9.68065 19.2711C9.63075 19.3288 9.58324 19.389 9.53207 19.4452C9.47014 19.5133 9.46605 19.5109 9.40259 19.4487C9.34869 19.3957 9.2216 19.2769 9.21256 19.2698C9.12786 19.1694 9.13136 19.1686 9.21708 19.0657C9.94586 18.1907 10.8697 17.5246 11.9038 17.1287C12.425 16.9291 12.9614 16.799 13.5126 16.7484C13.8492 16.7187 14.1875 16.7153 14.5246 16.7383C14.9811 16.7674 15.4336 16.8471 15.8745 16.9762C16.2363 17.0814 16.5882 17.2218 16.9258 17.3957C17.1564 17.5114 17.3801 17.6421 17.5957 17.7871C17.8976 17.9905 18.1834 18.2197 18.4502 18.4725C18.7055 18.7164 18.9452 18.9781 19.1677 19.256C19.1979 19.2959 19.2261 19.3375 19.2523 19.3805C19.4605 19.6304 19.6276 19.9113 19.7836 20.1986C20.0973 20.774 20.3321 21.3941 20.4806 22.0402C20.5325 22.2662 20.567 22.4956 20.6053 22.7243C20.6387 22.9239 20.7763 22.9922 20.9452 22.8956C21.1571 22.7745 21.2916 22.4865 21.2608 22.2315C21.2541 22.1761 21.2181 22.1135 21.274 22.0616C21.3183 22.0351 21.3671 22.0372 21.4152 22.0371C21.6711 22.0363 21.9265 22.0335 22.182 22.0383C22.2875 22.0403 22.3582 21.9984 22.4147 21.9054C22.6261 21.5572 22.7871 21.1771 22.8924 20.778C22.9753 20.4666 23.035 20.1503 23.0553 19.8265C23.0577 19.7932 23.0572 19.7598 23.0537 19.7267C23.0493 19.6873 23.0586 19.6549 23.0928 19.6343C23.1482 19.6332 23.2695 19.6258 23.275 19.6252C23.4872 19.6119 23.4872 19.612 23.4876 19.8389C23.4876 20.0113 23.4866 20.1836 23.4881 20.3555C23.4895 20.5129 23.529 20.5616 23.6737 20.6004C24.0204 20.6943 24.3712 20.7246 24.7289 20.7048C24.894 20.6957 25.0556 20.6642 25.2195 20.6504C25.2534 20.6463 25.2866 20.6372 25.3181 20.6232C25.4176 20.5826 25.4469 20.5415 25.4483 20.4265C25.4509 20.212 25.4476 19.9976 25.4502 19.7831C25.4508 19.7363 25.4417 19.6849 25.4807 19.647C25.5451 19.5944 25.6066 19.6346 25.6642 19.6602C25.8064 19.7237 25.9133 19.8365 26.0116 19.9585C26.1934 20.1845 26.3285 20.4426 26.4565 20.7052C26.4678 20.7263 26.4725 20.7507 26.4701 20.7749C26.4656 20.8336 26.4255 20.8629 26.3848 20.891C26.0497 21.1213 25.7489 21.3948 25.4722 21.6999C25.1548 22.0497 24.8916 22.4407 24.6688 22.8633C24.4098 23.3541 24.2338 23.8773 24.1298 24.4288C24.1208 24.4749 24.1297 24.5405 24.0598 24.5483Z" fill="#45423D"/>
<path d="M24.0597 24.5479C24.0813 24.4449 24.1018 24.3417 24.1245 24.2394C24.3099 23.399 24.6662 22.6489 25.1806 21.9826C25.5222 21.5374 25.9272 21.1519 26.3811 20.8402C26.4072 20.822 26.436 20.8075 26.4521 20.7767C26.4725 20.7404 28.0205 19.6808 29.7516 20.0213C29.8547 20.1009 29.8668 20.2539 29.8108 20.3926C29.7562 20.528 29.6542 20.5706 29.4909 20.5665C29.3402 20.5626 29.1898 20.554 29.0398 20.5627C28.7875 20.5761 28.5366 20.6101 28.2892 20.6642C27.6115 20.8152 26.9941 21.1082 26.4403 21.5502C25.7933 22.0666 25.3049 22.7197 24.9696 23.502C24.8337 23.8215 24.7313 24.156 24.6643 24.4994C24.6602 24.52 24.6046 24.8518 24.5876 24.9983C24.572 25.1344 24.5108 25.2293 24.3873 25.2742C24.2059 25.3401 24.012 25.1993 24.0081 24.9955C24.006 24.8928 24.0268 24.7919 24.0413 24.6906C24.0471 24.6505 24.0534 24.5545 24.0597 24.5479Z" fill="#A19D98"/>
<path d="M22.5829 23.8409C22.2734 23.8409 21.9639 23.8419 21.6544 23.8405C21.5094 23.8397 21.4043 23.7644 21.3445 23.6264C21.2848 23.4883 21.3032 23.3542 21.39 23.2343C21.4589 23.1395 21.5575 23.1032 21.6671 23.0994C21.7409 23.097 21.8148 23.0984 21.8889 23.0985C22.4113 23.0989 22.9338 23.0993 23.4562 23.0996C23.5553 23.0996 23.6475 23.1178 23.7259 23.1893C23.8342 23.2881 23.8783 23.4485 23.8332 23.5912C23.8112 23.6636 23.7682 23.7268 23.7105 23.7717C23.6528 23.8166 23.5832 23.841 23.5117 23.8415C23.2021 23.8432 22.8927 23.842 22.5832 23.842L22.5829 23.8409Z" fill="#CEE7FF"/>
<path d="M12.7912 16.0085C12.8106 16.0249 12.8328 16.0254 12.8555 16.0206C13.0492 15.9803 13.245 15.957 13.441 15.9355C13.458 15.9335 13.4495 15.9337 13.4979 15.9288C14.1862 15.8744 15.1037 15.9145 15.8252 16.1172C15.9843 16.164 16.1445 16.1988 16.3038 16.2453C16.3201 16.2463 17.0995 16.5495 17.4023 16.7226C17.4294 16.7432 17.4426 16.7541 17.462 16.7699C17.4744 16.9184 17.431 17.03 17.3495 17.1313C17.2359 17.2726 17.0859 17.3738 16.918 17.438C16.7022 17.3382 16.4872 17.236 16.2643 17.1541C15.8697 17.0092 15.4633 16.9041 15.0502 16.8401C14.6903 16.7856 14.3269 16.7623 13.9634 16.7703C13.5346 16.7779 13.1076 16.8325 12.6893 16.9331C11.3909 17.2433 10.2136 17.9707 9.31707 19.0166C9.28841 19.0502 9.25916 19.0831 9.23042 19.1164C9.17071 19.1861 9.14461 19.2313 9.1006 19.2867C9.0275 19.3789 8.95637 19.473 8.88515 19.5669C8.71883 19.786 8.42653 19.7978 8.24443 19.568C8.12118 19.4125 8.14208 19.1779 8.24238 19.0302C8.35176 18.872 8.46868 18.72 8.59268 18.5746C8.71942 18.4237 8.84293 18.2696 8.98187 18.1311C9.1766 17.9371 9.37047 17.7416 9.58225 17.5686C10.3054 16.9778 11.0981 16.5273 11.9716 16.2428C12.2025 16.1674 12.437 16.1052 12.674 16.0563C12.7158 16.0479 12.7597 16.0448 12.7912 16.0085Z" fill="#F2994A"/>
<path d="M19.8989 18.9292C20.1105 19.1955 20.2827 19.4904 20.449 19.7893C20.6446 20.1408 20.8073 20.5095 20.945 20.8907C21.0713 21.2407 21.1806 21.5962 21.2533 21.9636C21.2618 22.005 21.2721 22.0453 21.2816 22.0868C21.3006 22.1995 21.3224 22.3111 21.2992 22.4273C21.2517 22.6655 21.1402 22.8521 20.927 22.9559C20.7485 23.0429 20.5935 22.9519 20.5643 22.7452C20.4876 22.2009 20.3622 21.6694 20.1711 21.1566C19.9449 20.5501 19.6486 19.9863 19.2717 19.4702C19.2547 19.4465 19.2386 19.4215 19.2222 19.3971C19.2629 19.2531 19.3475 19.1366 19.4287 19.017C19.4744 18.9497 19.5449 18.9607 19.6038 18.941C19.699 18.9092 19.7989 18.8832 19.8989 18.9292Z" fill="#F2994A"/>
<path d="M19.8508 18.9168C19.3842 18.8767 19.2375 19.3664 19.2226 19.397C19.0211 19.1359 18.8084 18.8859 18.577 18.654C18.1067 18.1813 17.5731 17.7855 16.9935 17.4794C16.9679 17.4661 16.9433 17.4522 16.9181 17.438C16.9398 17.4108 17.1318 17.3707 17.2919 17.1386C17.4274 16.9422 17.4593 16.809 17.462 16.7699C17.6148 16.831 17.7482 16.9301 17.8867 17.0182C18.1262 17.1692 18.3564 17.3362 18.576 17.5182C18.7744 17.684 18.9669 17.8567 19.1502 18.0424C19.2758 18.1694 19.3935 18.3039 19.5123 18.4371C19.6504 18.592 19.7897 18.7479 19.8991 18.9293" fill="#F1C372"/>
<path d="M31.9539 21.1582C31.9038 21.0691 31.8276 21.004 31.7663 20.9243C31.4365 20.4966 31.2002 20.0149 31.0338 19.4927C31.0147 19.4328 30.9972 19.3722 30.9781 19.3121C30.9701 19.2867 30.964 19.2577 30.9299 19.2586C30.5097 18.8757 30.0023 18.6623 29.5055 18.4285C28.7549 18.0757 27.9713 17.8333 27.1785 17.6197C26.5567 17.4521 25.9267 17.3278 25.2948 17.2129C25.2374 17.2025 25.1759 17.1974 25.1362 17.1403C25.1258 17.0989 25.1258 17.0567 25.1257 17.0145C25.1249 16.5146 25.1251 16.0147 25.1265 15.5149C25.1265 15.4604 25.1107 15.3978 25.166 15.3575C25.2906 15.3901 25.4192 15.3901 25.5456 15.4088C25.7844 15.444 26.0248 15.4702 26.2633 15.5086C26.572 15.5578 26.8818 15.6015 27.1881 15.6668C27.3996 15.7122 27.6123 15.7504 27.8234 15.7983C28.0707 15.8544 28.3181 15.9112 28.5623 15.9774C28.9695 16.0874 29.3766 16.1991 29.7735 16.3476C29.9315 16.4066 30.0881 16.4704 30.2481 16.5229C30.4111 16.5762 30.5388 16.6827 30.6604 16.8026C30.9248 17.0635 31.1885 17.325 31.4437 17.5961C31.6143 17.7775 31.7857 17.9577 31.9484 18.1475C32.0188 18.2297 32.0968 18.3049 32.1701 18.3848C32.2969 18.5233 32.4148 18.6703 32.5447 18.8059C32.6489 18.9147 32.7106 19.0518 32.7182 19.2088C32.729 19.4292 32.7223 19.648 32.6697 19.8649C32.5728 20.264 32.394 20.6161 32.1517 20.9345C32.091 21.0137 32.0282 21.0916 31.9539 21.1582Z" fill="#F2994A"/>
<path d="M21.331 16.4992L20.7437 16.0659C20.734 16.0597 20.7248 16.0527 20.7161 16.0449C20.6805 16.0086 20.6592 16.0253 20.6368 16.063C20.6035 16.1191 20.5662 16.1725 20.5303 16.2268C20.4455 16.3552 20.3623 16.4849 20.275 16.6114C20.2102 16.7053 20.128 16.7342 20.0372 16.704C19.9014 16.6587 19.8401 16.5031 19.9073 16.3684C19.9285 16.3259 19.9566 16.2873 19.9825 16.2477C20.2812 15.7923 20.5801 15.337 20.8792 14.8817C20.8979 14.8515 20.9186 14.8227 20.9411 14.7955C21.0191 14.7063 21.1373 14.6923 21.2267 14.7592C21.2703 14.7916 21.301 14.8399 21.3131 14.8949C21.3252 14.9499 21.3178 15.0077 21.2923 15.0573C21.2658 15.1103 21.2318 15.1592 21.1993 15.2087C21.1066 15.3497 21.0129 15.4899 20.9196 15.6304C20.8824 15.6865 20.8816 15.6877 20.9348 15.7271C21.135 15.8756 21.3355 16.0236 21.5362 16.1711L21.331 16.4992Z" fill="#45423E"/>
<path d="M23.7519 15.2447C23.7793 15.2653 23.7775 15.2967 23.7775 15.3263C23.7782 15.8561 23.7782 16.3858 23.7775 16.9154C23.7782 16.9335 23.7753 16.9515 23.769 16.9683C23.7338 17.0137 23.6837 17.0118 23.6363 17.012C23.4606 17.0129 23.2849 17.003 23.1095 16.9993C22.6191 16.9881 22.1286 16.9949 21.6376 16.9959C21.6035 16.9959 21.5694 16.9979 21.5377 17.014C21.519 17.0231 21.502 17.0362 21.5046 17.0611C21.5073 17.0861 21.527 17.0938 21.5468 17.0993C21.5605 17.1031 21.5747 17.1048 21.5889 17.1045C21.8297 17.0989 22.0703 17.1096 22.3115 17.0935C22.5431 17.078 22.7758 17.0827 23.0084 17.0976C23.209 17.1104 23.4103 17.1157 23.6114 17.1234C23.6625 17.1253 23.7137 17.1216 23.7593 17.154C23.782 17.2754 23.8177 17.3955 23.7934 17.5219C23.7928 17.5334 23.7897 17.5447 23.7843 17.5547C23.7468 17.6023 23.6885 17.6033 23.6398 17.6249C23.5475 17.6657 23.5016 17.7323 23.5045 17.8406C23.5177 18.3353 23.481 18.8295 23.4874 19.3241C23.4882 19.3814 23.4893 19.4386 23.4953 19.4957C23.5082 19.6193 23.4761 19.66 23.3588 19.6726C23.3278 19.6759 23.2965 19.6769 23.265 19.6777C23.2105 19.6785 23.156 19.6788 23.1017 19.6743C22.9422 19.7008 22.7807 19.7027 22.62 19.7143C22.3221 19.7356 22.1032 19.6067 21.9481 19.3332C21.7325 18.9539 21.5152 18.576 21.318 18.1852C21.2296 18.01 21.1474 17.8314 21.0543 17.6585C20.9046 17.3807 20.903 17.1092 21.0779 16.8434C21.1542 16.7275 21.2098 16.597 21.3009 16.492C21.3515 16.3656 21.4334 16.2604 21.5069 16.1494C21.6757 15.8847 21.8538 15.6273 22.0456 15.3809C22.1041 15.3056 22.1856 15.2593 22.2607 15.2053C22.3603 15.1766 22.7213 15.169 22.8129 15.1658C22.9169 15.1621 23.0211 15.1644 23.1253 15.1658C23.1748 15.1662 23.6564 15.194 23.7519 15.2447Z" fill="#F2994A"/>
<path d="M29.8714 20.3379C29.8393 20.319 29.8193 20.2926 29.8214 20.2509C29.828 20.1239 29.7507 20.0613 29.6562 20.0145C29.5303 19.9657 28.5712 19.8698 27.6177 20.2221C27.2824 20.3376 26.959 20.4817 26.6548 20.6724C26.5987 20.7076 26.5367 20.7315 26.4842 20.7737C26.4768 20.7796 26.4627 20.7757 26.4517 20.7765C26.377 20.6628 26.3274 20.534 26.26 20.4158C26.1557 20.2329 26.0454 20.0554 25.9044 19.9012C25.7935 19.7802 25.668 19.6873 25.5093 19.6533C25.4656 19.6569 25.4591 19.6229 25.4538 19.5898C25.449 19.5509 25.4474 19.5116 25.4488 19.4724C25.4488 19.198 25.4442 18.9235 25.4499 18.6491C25.4552 18.3895 25.4273 18.1312 25.4307 17.8718C25.432 17.7731 25.3881 17.7062 25.3028 17.6678C25.2688 17.6525 25.2358 17.6349 25.2039 17.6152C25.1796 17.5999 25.1533 17.5842 25.1639 17.5455L25.1672 17.3493C25.1954 17.3076 25.2338 17.3135 25.2747 17.32C25.7467 17.3955 26.2154 17.4888 26.6809 17.5999C27.2406 17.7346 27.7969 17.8823 28.3418 18.0749C28.7784 18.2292 29.2106 18.3968 29.629 18.602C29.8274 18.6994 30.0299 18.7888 30.2111 18.9207C30.2794 18.9704 30.3342 19.0363 30.3861 19.105C30.5096 19.2683 30.4784 19.4579 30.4668 19.6437C30.4633 19.7018 30.4373 19.7557 30.4327 19.8141C30.3259 19.9869 30.2347 20.17 30.1604 20.3611C30.1452 20.4009 30.1248 20.4156 30.0823 20.4003C30.0137 20.3755 29.9421 20.3585 29.8714 20.3379Z" fill="#F2994A"/>
<path d="M30.4337 19.8147C30.4099 19.7662 30.4137 19.7137 30.4225 19.664C30.4411 19.5589 30.4346 19.4534 30.4346 19.348C30.4346 19.2446 30.3808 19.1644 30.322 19.0908C30.2481 18.9988 30.1575 18.9235 30.0557 18.8695C29.5793 18.612 29.0863 18.3978 28.5817 18.2117C28.217 18.0771 27.8491 17.9542 27.4753 17.8524C27.0027 17.7238 26.5285 17.6051 26.0485 17.5077C25.7726 17.4518 25.4948 17.4099 25.2188 17.3554C25.2021 17.3521 25.1846 17.3515 25.1681 17.3496C25.1681 17.283 25.1681 17.2167 25.1681 17.1505C25.3377 17.1677 25.5045 17.2035 25.6718 17.2355C25.8895 17.2771 26.1067 17.3213 26.3235 17.3682C26.5512 17.4178 26.779 17.466 27.0041 17.5295C27.1766 17.5782 27.3511 17.6195 27.524 17.6674C27.947 17.7847 28.3649 17.9193 28.7778 18.0714C29.113 18.195 29.4373 18.3481 29.7634 18.4962C30.0737 18.6377 30.3746 18.8013 30.664 18.9861C30.7489 19.0401 30.8269 19.1064 30.9071 19.1685C30.9355 19.1906 30.961 19.2171 30.9302 19.2582C30.8221 19.3601 30.7105 19.4578 30.6146 19.5741C30.5507 19.6514 30.4943 19.7345 30.4337 19.8147Z" fill="#F1C372"/>
<path d="M23.7518 16.9695L23.7523 17.1685C23.1844 17.1189 22.1258 17.1189 21.5914 17.1509C21.5508 17.1488 21.5103 17.1443 21.4702 17.1376C21.4404 17.1304 21.3944 17.0895 21.3952 17.0639C21.3965 17.0169 21.4219 16.9942 21.4549 16.9768C21.4961 16.9548 21.5511 16.9508 21.5974 16.9508C22.1086 16.9508 22.62 16.9426 23.131 16.9557C23.3378 16.9609 23.5449 16.9642 23.7518 16.9695Z" fill="#F1C372"/>
<path d="M32.5159 19.3825C32.5187 19.5776 32.4818 19.7572 32.4293 19.9335C32.3366 20.2456 32.1855 20.5241 31.9932 20.7782C31.9542 20.8299 31.9522 20.83 31.9114 20.7791C31.7245 20.5453 31.5749 20.2861 31.4467 20.0119C31.3503 19.806 31.2714 19.5926 31.2008 19.3756C31.1789 19.3084 31.1815 19.2963 31.2448 19.2618C31.4661 19.141 31.6981 19.0551 31.9455 19.0176C32.0582 19.0004 32.172 19.0007 32.2847 18.986C32.296 18.985 32.3074 18.9847 32.3188 18.9853C32.426 18.9874 32.4428 19.0019 32.4831 19.1058C32.5188 19.1983 32.5181 19.2943 32.5159 19.3825Z" fill="#FEFEFE"/>
<path d="M25.1562 15.4022C25.1562 15.9789 25.1625 17.2438 25.1757 17.5986C25.1441 17.6415 25.1029 17.6259 25.0658 17.6146C24.666 17.4904 24.2634 17.5088 23.8597 17.5874C23.8255 17.5939 23.7924 17.6029 23.7637 17.5732L23.7616 17.5761C23.7429 17.5489 23.7616 14.7307 23.7592 14.5503C23.7581 14.4728 23.7703 14.4026 23.8065 14.3346C23.851 14.2509 23.8898 14.1639 23.9312 14.0783C23.937 14.072 23.9446 14.0682 23.9528 14.0674C24.4183 14.2789 24.8029 14.5243 25.1534 14.9056C25.1482 15.0434 25.1534 15.2278 25.1562 15.4022Z" fill="#414141"/>
<path d="M23.9543 14.0344H23.9474L23.9406 14.033C23.9742 13.9476 23.9761 13.8582 23.9758 13.7673C23.9748 13.4958 23.9789 13.2243 23.9765 12.953C23.9756 12.854 24.0037 12.7738 24.0618 12.6964C24.3484 12.3145 24.6598 11.9544 24.9937 11.6188C25.2059 11.4054 25.4311 11.2072 25.6786 11.0399C25.7257 11.0519 25.7056 11.0845 25.6949 11.1095C25.5431 11.4655 25.5646 11.8388 25.6123 12.2093C25.6333 12.3726 25.6758 12.5409 25.8035 12.6608C25.8126 12.6684 25.8187 12.6793 25.8206 12.6914C25.8225 12.7035 25.8201 12.7159 25.8138 12.7263C25.5255 12.8688 25.2993 13.0901 25.1081 13.3559C25.0799 13.3951 25.059 13.4365 25.066 13.4882C25.0533 13.8116 25.0561 14.1348 25.0667 14.667C25.0662 14.6727 25.0655 14.6784 25.0645 14.684C25.0218 14.7148 24.994 14.68 24.9677 14.6563C24.8539 14.5532 24.7432 14.4462 24.6205 14.3543C24.4863 14.2537 24.3488 14.1598 24.2 14.0851C24.1217 14.0459 24.042 14.0194 23.9543 14.0344Z" fill="#A19D98"/>
<path d="M25.8647 11C25.9222 11.0306 25.9515 11.0816 25.9661 11.1472C26.0032 11.314 26.0277 11.4837 26.0394 11.6546C26.0594 11.947 26.0196 12.2298 25.9509 12.5104C25.9366 12.5689 25.9201 12.6265 25.8837 12.6747C25.8474 12.6813 25.8362 12.6533 25.8215 12.6266C25.6521 12.317 25.6214 11.9793 25.6424 11.6313C25.6452 11.5836 25.6524 11.5359 25.6554 11.4878C25.665 11.303 25.7397 11.1288 25.8647 11Z" fill="#A19D98"/>
<path d="M25.3413 17.6333C25.4297 17.6745 25.4731 17.7351 25.4767 17.8476C25.4946 18.4147 25.4897 18.9817 25.491 19.5486C25.491 19.5849 25.4947 19.736 25.4944 19.778C25.4931 20.0133 25.4893 20.2486 25.4924 20.4837C25.4935 20.5665 25.4612 20.6138 25.3939 20.6436C24.8324 20.8069 24.103 20.7988 23.5916 20.6255C23.4764 20.5882 23.4457 20.5424 23.4447 20.4159C23.4436 20.25 23.4447 20.0841 23.4447 19.9182C23.4447 19.8489 23.4459 19.7795 23.4447 19.7101C23.4436 19.6407 23.4618 18.5654 23.4618 18.5323C23.4618 18.2789 23.4636 18.0255 23.4612 17.7721C23.4604 17.6924 23.488 17.6445 23.5579 17.6112C24.3702 17.3383 24.7965 17.4177 25.3413 17.6333Z" fill="#A19D98"/>
<path d="M23.6139 19.1265V17.9034C23.6139 17.8823 23.6133 17.8612 23.6139 17.8399C23.6157 17.7559 23.6224 17.7447 23.6984 17.7152C23.984 17.5986 24.819 17.4884 25.2648 17.8012C25.3351 17.8406 25.3464 17.8808 25.3494 17.9759C25.3609 18.1901 25.3409 19.7813 25.3416 20.3942C25.3416 20.4064 25.3416 20.4184 25.3416 20.4305C25.3396 20.5179 25.334 20.522 25.2506 20.5405C24.7307 20.6554 24.2138 20.6402 23.699 20.5042C23.6228 20.4841 23.6188 20.4821 23.6186 20.3943C23.6179 20.1134 23.6179 19.8326 23.6186 19.5518C23.6186 19.4098 23.6186 19.2679 23.6186 19.1259L23.6139 19.1265Z" fill="#45423D"/>
<path d="M23.9355 14.0513C23.9453 13.9737 23.99 13.9656 24.0758 13.987C24.1789 14.0197 24.2775 14.0665 24.3692 14.1265C24.5733 14.256 24.7687 14.3986 24.9402 14.5755C24.9785 14.6151 25.0229 14.6481 25.0646 14.6838C25.0704 14.7098 25.0836 14.7334 25.1024 14.7512C25.1566 14.803 25.1639 14.8629 25.1529 14.9384C25.0629 14.9248 25.0124 14.8677 24.9553 14.8007C24.8004 14.6193 24.6194 14.4724 24.4275 14.3387C24.3093 14.2563 24.1283 14.1663 23.9969 14.1106C23.9519 14.0915 23.9302 14.0927 23.9355 14.0513Z" fill="#DCF9FB"/>
<path d="M25.8646 11C25.8949 11.0176 25.9144 11.0257 25.8363 11.0992C25.7376 11.1933 25.6722 11.4307 25.6789 11.8201C25.6853 12.0782 25.6884 12.308 25.8836 12.6747C25.8671 12.7019 25.8455 12.722 25.8138 12.7261C25.4834 12.3805 25.5153 11.3172 25.6785 11.0397C25.7462 10.9653 25.7857 10.9568 25.8646 11Z" fill="#DCF9FB"/>
</g>
</g>
<defs>
<clipPath id="clip0_24_23818">
<rect x="0.25" width="40" height="40" fill="white"/>
</clipPath>
<clipPath id="clip1_24_23818">
<rect width="25.5556" height="22.3611" fill="white" transform="translate(8.02783 7.77783)"/>
</clipPath>
</defs>
</svg>
