<svg width="15" height="18" viewBox="0 0 15 18" fill="none" xmlns="http://www.w3.org/2000/svg">
<path d="M4.90576 10.1797C5.06982 10.1523 5.26123 10.125 5.45264 10.125C5.67139 10.125 5.86279 10.1523 6.02686 10.1797L6.57373 9.57812C6.73779 9.38672 7.01123 9.30469 7.25732 9.41406C7.39404 9.46875 7.55811 9.55078 7.69482 9.60547L7.83154 9.6875C7.96826 9.79688 8.10498 9.87891 8.2417 9.96094C8.43311 10.125 8.51514 10.3984 8.43311 10.6445L8.15967 11.4102C8.40576 11.7109 8.59717 12.0391 8.73389 12.3945L9.52686 12.5859C9.80029 12.6133 9.9917 12.832 10.019 13.0781C10.0464 13.2695 10.0464 13.4609 10.0464 13.625C10.0464 13.8164 10.0464 14.0078 10.019 14.1992C9.9917 14.4453 9.80029 14.6641 9.52686 14.6914L8.73389 14.8828C8.59717 15.2383 8.40576 15.5664 8.15967 15.8672L8.43311 16.6328C8.51514 16.8789 8.43311 17.1523 8.2417 17.3164C8.10498 17.3984 7.96826 17.5078 7.83154 17.5898L7.69482 17.6719C7.55811 17.7266 7.39404 17.8086 7.25732 17.8633C7.01123 17.9727 6.73779 17.8906 6.57373 17.6992L6.02686 17.0977C5.86279 17.125 5.67139 17.1523 5.45264 17.1523C5.26123 17.1523 5.06982 17.125 4.90576 17.0977L4.35889 17.6992C4.16748 17.8906 3.89404 17.9727 3.67529 17.8633C3.51123 17.8086 3.37451 17.7266 3.23779 17.6719L3.10107 17.5898C2.96436 17.5078 2.82764 17.3984 2.69092 17.3164C2.49951 17.1523 2.41748 16.8789 2.49951 16.6328L2.77295 15.8672C2.52686 15.5664 2.33545 15.2383 2.19873 14.8828L1.40576 14.6914C1.13232 14.6641 0.940918 14.4453 0.913574 14.1992C0.88623 14.0078 0.858887 13.8164 0.858887 13.625C0.858887 13.4609 0.88623 13.2695 0.913574 13.0781C0.940918 12.832 1.13232 12.6133 1.40576 12.5859L2.19873 12.3945C2.33545 12.0391 2.52686 11.7109 2.77295 11.4102L2.49951 10.6445C2.41748 10.3984 2.49951 10.125 2.69092 9.96094C2.82764 9.87891 2.96436 9.79688 3.10107 9.6875L3.23779 9.60547C3.37451 9.55078 3.51123 9.46875 3.67529 9.41406C3.89404 9.30469 4.16748 9.38672 4.35889 9.57812L4.90576 10.1797ZM4.14014 13.625C4.14014 14.3633 4.7417 14.9375 5.45264 14.9375C6.19092 14.9375 6.76514 14.3633 6.76514 13.625C6.76514 12.9141 6.19092 12.3125 5.45264 12.3125C4.7417 12.3125 4.14014 12.9141 4.14014 13.625ZM13.7378 4.76562C13.7651 4.92969 13.7651 5.12109 13.7651 5.3125C13.7651 5.53125 13.7651 5.72266 13.7378 5.88672L14.3394 6.43359C14.5308 6.625 14.6128 6.87109 14.5034 7.11719C14.4487 7.25391 14.3667 7.41797 14.312 7.55469L14.2026 7.69141C14.1206 7.82812 14.0386 7.96484 13.9565 8.10156C13.7925 8.29297 13.519 8.375 13.2729 8.29297L12.5073 8.01953C12.2065 8.26562 11.8784 8.45703 11.4956 8.59375L11.3315 9.38672C11.2769 9.66016 11.0854 9.85156 10.8394 9.87891C10.6479 9.90625 10.4565 9.90625 10.2651 9.90625C10.1011 9.90625 9.90967 9.90625 9.71826 9.87891C9.47217 9.85156 9.25342 9.66016 9.19873 9.38672L9.03467 8.59375C8.6792 8.45703 8.35107 8.26562 8.05029 8.01953L7.28467 8.29297C7.03857 8.375 6.76514 8.29297 6.60107 8.10156C6.51904 7.96484 6.40967 7.82812 6.32764 7.69141L6.24561 7.55469C6.19092 7.41797 6.10889 7.28125 6.0542 7.11719C5.94482 6.87109 6.02686 6.625 6.21826 6.43359L6.81982 5.88672C6.79248 5.72266 6.76514 5.53125 6.76514 5.3125C6.76514 5.12109 6.79248 4.92969 6.81982 4.76562L6.21826 4.21875C6.02686 4.02734 5.94482 3.78125 6.0542 3.53516C6.10889 3.37109 6.19092 3.23438 6.24561 3.09766L6.32764 2.96094C6.40967 2.82422 6.51904 2.6875 6.60107 2.55078C6.76514 2.35938 7.03857 2.27734 7.28467 2.35938L8.05029 2.63281C8.35107 2.38672 8.6792 2.19531 9.03467 2.05859L9.19873 1.26562C9.25342 0.992188 9.47217 0.800781 9.71826 0.773438C9.90967 0.746094 10.1011 0.71875 10.2651 0.71875C10.4565 0.71875 10.6479 0.746094 10.8394 0.773438C11.0854 0.800781 11.2769 0.992188 11.3315 1.26562L11.4956 2.05859C11.8784 2.19531 12.2065 2.38672 12.5073 2.63281L13.2729 2.35938C13.519 2.27734 13.7925 2.35938 13.9565 2.55078C14.0386 2.6875 14.1206 2.82422 14.2026 2.96094L14.312 3.09766C14.3667 3.23438 14.4487 3.39844 14.5034 3.53516C14.6128 3.78125 14.5308 4.02734 14.3394 4.21875L13.7378 4.76562ZM10.2651 4C9.5542 4 8.95264 4.60156 8.95264 5.3125C8.95264 6.05078 9.5542 6.625 10.2651 6.625C11.0034 6.625 11.5776 6.05078 11.5776 5.3125C11.5776 4.60156 11.0034 4 10.2651 4Z" fill="#1F2937"/>
</svg>
