<svg width="14" height="14" viewBox="0 0 14 14" fill="none" xmlns="http://www.w3.org/2000/svg">
<mask id="mask0_431_139695" style="mask-type:alpha" maskUnits="userSpaceOnUse" x="1" y="1" width="12" height="12">
<path fill-rule="evenodd" clip-rule="evenodd" d="M7.00002 1.16667C3.78002 1.16667 1.16669 3.78 1.16669 7C1.16669 10.22 3.78002 12.8333 7.00002 12.8333C10.22 12.8333 12.8334 10.22 12.8334 7C12.8334 3.78 10.22 1.16667 7.00002 1.16667ZM7.58336 11.0833H6.4167V9.91667H7.58336V11.0833ZM8.26586 7.09917L8.79086 6.5625C9.38586 5.9675 9.59003 4.94667 8.90169 3.99583C8.37669 3.26667 7.53086 2.80583 6.64419 2.94583C5.74003 3.08583 5.01086 3.73917 4.76003 4.59667C4.66669 4.92333 4.90003 5.25 5.23836 5.25H5.41336C5.64086 5.25 5.82169 5.08667 5.89169 4.87083C6.08419 4.31667 6.68503 3.94917 7.33253 4.13C7.74086 4.24667 8.06753 4.6025 8.14336 5.0225C8.21919 5.43083 8.09086 5.81583 7.82253 6.0725L7.09919 6.8075C6.85419 7.0525 6.66169 7.35583 6.54503 7.69417C6.46336 7.93333 6.41669 8.19 6.41669 8.45833V8.75H7.58336C7.58336 8.48167 7.61253 8.27167 7.65919 8.085C7.76419 7.665 7.97419 7.39667 8.26586 7.09917Z" fill="black"/>
</mask>
<g mask="url(#mask0_431_139695)">
<rect width="14" height="14" fill="#F2994A"/>
</g>
</svg>
