<svg width="21" height="21" viewBox="0 0 21 21" fill="none" xmlns="http://www.w3.org/2000/svg">
<g clip-path="url(#clip0_414_132862)">
<path d="M20.7981 10.5C20.7981 4.81254 16.1875 0.201923 10.5 0.201923C4.81254 0.201923 0.201923 4.81254 0.201923 10.5C0.201923 16.1875 4.81254 20.7981 10.5 20.7981C16.1875 20.7981 20.7981 16.1875 20.7981 10.5Z" fill="#E9E9E9" stroke="#FF9400" stroke-width="0.403846"/>
<mask id="mask0_414_132862" style="mask-type:luminance" maskUnits="userSpaceOnUse" x="4" y="4" width="14" height="13">
<path d="M17.9614 4H4V16.2162H17.9614V4Z" fill="white"/>
</mask>
<g mask="url(#mask0_414_132862)">
<path d="M16.835 11.9292C16.8809 11.966 16.911 11.9977 16.9562 12.0353C16.9835 12.0581 16.9837 12.0581 17.0105 12.0333C17.0292 12.0159 17.0473 11.9977 17.0665 11.9807C17.1436 11.9113 17.2474 11.9147 17.3193 11.9902C17.3479 12.0205 17.3749 12.0525 17.4 12.086C17.4622 12.1683 17.456 12.2759 17.3858 12.3508C17.3661 12.3718 17.3452 12.3916 17.324 12.4108C17.3062 12.4267 17.3056 12.4422 17.3182 12.4622C17.3441 12.5034 17.3693 12.545 17.3936 12.5872C17.4245 12.6406 17.452 12.6963 17.4781 12.7524C17.5029 12.8059 17.5029 12.8055 17.5544 12.7883C17.5793 12.7792 17.6047 12.7716 17.6305 12.7655C17.7143 12.7484 17.7938 12.7915 17.8296 12.8746C17.8513 12.9258 17.8675 12.9795 17.878 13.0345C17.8934 13.113 17.8483 13.2001 17.7762 13.2388C17.7483 13.2536 17.7176 13.2601 17.6884 13.2712C17.6531 13.2847 17.65 13.2874 17.6558 13.3241C17.6745 13.4397 17.6876 13.5559 17.6884 13.6733C17.6887 13.699 17.6978 13.7136 17.723 13.7158C17.7446 13.7177 17.7661 13.722 17.7876 13.7243C17.8735 13.7338 17.9319 13.7793 17.9573 13.8689C17.9595 13.8766 17.9651 14.0382 17.9576 14.082C17.9411 14.1787 17.8703 14.2476 17.7772 14.2515C17.7571 14.2525 17.7369 14.2511 17.7171 14.2474C17.6804 14.2403 17.6561 14.2567 17.6472 14.2944C17.6253 14.3871 17.5959 14.4771 17.5644 14.5664C17.5551 14.5922 17.5604 14.6149 17.5807 14.633C17.5912 14.6425 17.6319 14.6891 17.6385 14.7046C17.6536 14.7402 17.5883 14.6848 17.5732 14.6756C17.5387 14.6545 17.1157 14.4061 16.9582 14.317C16.9694 14.2285 17.0101 14.1152 17.0265 14.0279C17.11 13.5831 17.0236 13.1774 16.7819 12.807C16.5809 12.4989 16.3056 12.3018 15.9675 12.2041C15.6699 12.118 15.375 12.1355 15.0857 12.2479C14.8463 12.3408 14.5842 12.4932 14.4404 12.7332C14.4239 12.7528 14.4161 12.7505 14.3901 12.7382C14.3001 12.6905 13.9474 12.4463 13.804 12.3575C13.7405 12.2897 13.6984 12.1787 13.7461 12.0968C13.7802 12.0384 13.826 11.991 13.8751 11.9484C13.9441 11.8886 14.0441 11.8903 14.1174 11.9465C14.2083 12.0162 14.2082 12.0159 14.2965 11.941C14.3426 11.9019 14.3918 11.8672 14.4402 11.8314C14.4853 11.7982 14.4886 11.7848 14.4675 11.7327C14.4099 11.5905 14.4468 11.4825 14.5767 11.4122C14.611 11.3928 14.6469 11.3766 14.6839 11.3639C14.783 11.3318 14.8743 11.3694 14.9282 11.4633C14.9844 11.5613 14.9841 11.5611 15.0899 11.5352C15.1458 11.5215 15.2025 11.5118 15.259 11.5009C15.3154 11.4899 15.324 11.4804 15.3272 11.4211C15.3285 11.3914 15.3327 11.3619 15.3398 11.3332C15.3547 11.2758 15.3817 11.2254 15.4377 11.2028C15.5443 11.1596 15.652 11.1513 15.7567 11.2081C15.8184 11.2416 15.8472 11.2992 15.848 11.3739C15.8492 11.4857 15.8499 11.4867 15.9526 11.5044C16.0202 11.516 16.0863 11.5334 16.1527 11.55C16.2031 11.5627 16.2161 11.5577 16.2358 11.5061C16.2854 11.3754 16.409 11.3087 16.5547 11.3848C16.596 11.4064 16.6394 11.4222 16.6755 11.457C16.7483 11.5272 16.7534 11.6308 16.7235 11.7064C16.7192 11.717 16.7141 11.7272 16.71 11.7379C16.69 11.7904 16.6879 11.8211 16.6879 11.8211C16.6879 11.8211 16.7899 11.893 16.835 11.9292Z" fill="#5F5F5F"/>
<path d="M16.9348 14.2741C16.9771 14.3172 17.543 14.6463 17.5918 14.6774C17.6063 14.6794 17.6175 14.6896 17.6306 14.6953C17.6407 14.7049 17.6496 14.7147 17.6588 14.7254C17.7036 14.7921 17.7028 14.8625 17.6769 14.9362C17.6604 14.9753 17.6407 15.0128 17.6178 15.048C17.5645 15.1333 17.4662 15.1601 17.3798 15.1138C17.3535 15.0997 17.328 15.0841 17.303 15.0672C17.2849 15.0552 17.2724 15.0584 17.2597 15.0763C17.1904 15.1737 17.1134 15.2646 17.0296 15.348C17.0127 15.3648 17.0107 15.3794 17.0249 15.3989C17.0413 15.4208 17.0565 15.4438 17.0712 15.467C17.1309 15.5612 17.1148 15.6698 17.0304 15.7396C17.001 15.7638 16.971 15.7874 16.9398 15.809C16.8559 15.8669 16.7576 15.8506 16.6937 15.7686C16.676 15.7457 16.6595 15.7217 16.6441 15.6969C16.6305 15.6752 16.6169 15.6703 16.5941 15.6841C16.4982 15.7421 16.3969 15.7879 16.2935 15.8285C16.2559 15.8433 16.2563 15.8439 16.2636 15.8857C16.2662 15.9002 16.2683 15.915 16.2709 15.9295C16.295 16.052 16.2675 16.1184 16.1667 16.1812C16.1407 16.1966 16.1108 16.1942 16.0829 16.202C16.0342 16.2144 15.985 16.2134 15.9354 16.2108C15.9192 16.2023 15.903 16.1931 15.8872 16.1838C15.8395 16.1416 15.8182 16.0859 15.8058 16.0221C15.7891 15.9356 15.7993 15.9497 15.7244 15.9534C15.6252 15.9583 15.5258 15.9579 15.4266 15.952C15.3881 15.9497 15.3881 15.9496 15.3792 15.9875C15.3751 16.0052 15.3704 16.0227 15.3679 16.0406C15.3518 16.1539 15.2661 16.2389 15.1293 16.2112C15.0959 16.2044 15.0628 16.1952 15.0301 16.1849C14.9366 16.1557 14.8825 16.0599 14.9013 15.958C14.9059 15.9322 14.9116 15.9064 14.9164 15.8805C14.9228 15.8453 14.9224 15.8434 14.8891 15.8302C14.8252 15.8046 14.7615 15.7785 14.7 15.747C14.6637 15.7284 14.6277 15.7089 14.5919 15.6892C14.5546 15.6688 14.5549 15.6685 14.5288 15.7057C14.5148 15.7255 14.5018 15.746 14.4873 15.7651C14.4235 15.8501 14.323 15.8679 14.238 15.8085C14.2057 15.7858 14.1741 15.7616 14.1437 15.736C14.0662 15.6706 14.0495 15.5632 14.1028 15.4745C14.1186 15.4481 14.1362 15.4229 14.154 15.398C14.1664 15.3807 14.1672 15.3668 14.1513 15.3509C14.0663 15.2663 13.9884 15.1741 13.9183 15.0752C13.905 15.0564 13.8919 15.0565 13.8747 15.068C13.8537 15.082 13.8319 15.0948 13.8101 15.1076C13.7122 15.1643 13.6103 15.1363 13.5528 15.0345C13.5323 14.998 13.5071 14.9645 13.493 14.9236C13.458 14.8222 13.4875 14.7283 13.575 14.6718C13.5936 14.6598 13.6127 14.6487 13.6309 14.6367C13.6632 14.6157 13.6641 14.6151 13.6498 14.5783C13.6202 14.5021 13.5948 14.4241 13.5736 14.3448C13.5642 14.3101 13.5554 14.2748 13.5477 14.2395C13.5421 14.2137 13.5294 14.2037 13.5045 14.2093C13.4846 14.2132 13.4646 14.216 13.4445 14.2177C13.3261 14.231 13.2384 14.1556 13.226 14.0301C13.2226 13.9954 13.219 13.9611 13.2167 13.9266C13.2136 13.8766 13.2285 13.8272 13.2586 13.7887C13.2887 13.7501 13.3315 13.7253 13.3783 13.7193C13.4044 13.7159 13.4307 13.7137 13.4567 13.7094C13.4907 13.7035 13.4918 13.7027 13.4923 13.665C13.4938 13.5826 13.4998 13.5003 13.51 13.4185C13.5143 13.3826 13.5256 13.3476 13.5231 13.3108C13.5206 13.2856 13.5105 13.27 13.4915 13.2621C13.4785 13.2581 13.4754 13.2564 13.456 13.2512C13.4177 13.2413 13.3829 13.2237 13.3552 13.1938" fill="#414141"/>
<path d="M13.5248 13.3333C13.5292 13.308 13.519 13.2701 13.4946 13.2628C13.4737 13.2566 13.4403 13.2433 13.4195 13.2366C13.3369 13.2101 13.285 13.1408 13.276 13.0476C13.2655 13.008 13.2983 12.8797 13.3132 12.8381C13.3466 12.7465 13.4284 12.6931 13.5205 12.7079C13.5404 12.711 13.56 12.7164 13.5788 12.7239C13.6136 12.7383 13.6404 12.727 13.6558 12.6918C13.6937 12.6052 13.7504 12.5194 13.7869 12.4322C13.8223 12.3479 13.7972 12.3549 13.8096 12.3578C13.8398 12.3855 14.2804 12.6134 14.4193 12.7325C14.3289 12.8366 14.1278 13.3079 14.1195 13.4656" fill="#414141"/>
<path d="M14.4244 12.725C14.7057 12.4016 14.907 12.2628 15.1847 12.1789C15.3536 12.1274 15.53 12.1087 15.7052 12.1236C16 12.1489 16.2662 12.2584 16.5007 12.4519C16.7074 12.6226 16.858 12.8389 16.9607 13.094C17.0235 13.25 17.0567 13.4131 17.0722 13.5821C17.0944 13.8242 17.0457 14.0946 16.9676 14.3202C16.9518 14.3351 16.6641 14.1256 16.6333 14.0848C16.6263 14.0628 16.635 14.0426 16.6403 14.0222C16.6686 13.912 16.6869 13.8 16.6836 13.6855C16.6681 13.135 16.3155 12.6809 15.8278 12.57C15.4679 12.4881 15.0863 12.5708 14.7369 12.9484C14.7281 12.9536 14.7254 12.9423 14.6661 12.8988C14.5665 12.8344 14.5175 12.794 14.4494 12.7501C14.4104 12.7259 14.4124 12.739 14.4244 12.725Z" fill="#414141"/>
<path d="M16.9733 14.3043C16.9639 14.3202 16.9555 14.3366 16.948 14.3536C16.8622 14.5735 16.7248 14.754 16.5574 14.9069C16.3384 15.1071 16.0844 15.2319 15.796 15.272C15.7253 15.2819 15.6545 15.2927 15.5831 15.2903C15.3766 15.2833 15.177 15.2429 14.9864 15.1546C14.8654 15.0982 14.7522 15.0247 14.6498 14.936C14.4904 14.7989 14.3609 14.6341 14.2658 14.4388C14.1784 14.2589 14.1281 14.0686 14.1068 13.8681C14.0882 13.6955 14.1028 13.5261 14.1368 13.3571C14.1756 13.1644 14.2481 12.9868 14.3493 12.8222C14.3637 12.7988 14.4056 12.7456 14.4192 12.7323C14.4928 12.7729 14.6935 12.9139 14.7257 12.9445C14.746 12.9727 14.7085 13.0098 14.6969 13.0279C14.6352 13.1238 14.5844 13.2251 14.5517 13.3364C14.4378 13.724 14.49 14.0848 14.7195 14.4091C14.9109 14.6797 15.1712 14.828 15.4895 14.862C15.943 14.9105 16.4084 14.6366 16.5999 14.1533C16.6105 14.1266 16.6078 14.0845 16.6509 14.0824C16.6786 14.1162 16.9408 14.2853 16.9733 14.3043Z" fill="#5F5F5F"/>
<path d="M16.651 14.0824C16.6149 14.1809 16.5745 14.2769 16.5179 14.3646C16.3386 14.6421 16.0939 14.8143 15.7823 14.8737C15.4667 14.9337 15.1778 14.8588 14.9209 14.6569C14.695 14.4792 14.5508 14.2401 14.4952 13.9474C14.4294 13.6014 14.4985 13.283 14.6911 12.9953C14.6983 12.9845 14.7051 12.9737 14.7123 12.9629C14.7196 12.9536 14.8153 12.8412 14.8619 12.7997C15.0684 12.6157 15.3046 12.5214 15.5746 12.516C16.0805 12.5057 16.5368 12.87 16.6684 13.3992C16.7211 13.611 16.7197 13.8234 16.6624 14.0346C16.6581 14.0503 16.6547 14.0665 16.651 14.0824Z" fill="#EDAE50"/>
<path d="M15.8884 13.7046C15.8969 13.8857 15.7406 14.0259 15.5923 14.024C15.423 14.0219 15.2841 13.8807 15.2857 13.7015C15.2871 13.5264 15.4158 13.3816 15.5944 13.3811C15.7432 13.3807 15.8966 13.5223 15.8884 13.7046Z" fill="#414141"/>
<path d="M15.9054 13.1024C15.9398 13.0987 15.9685 13.1117 15.9923 13.1388C16.0134 13.1628 16.036 13.1854 16.0566 13.21C16.1044 13.2668 16.0752 13.3709 16.0134 13.3913C15.9864 13.4003 15.9616 13.4008 15.9378 13.3842C15.8869 13.3487 15.8435 13.3037 15.8049 13.2543C15.764 13.2019 15.7848 13.1347 15.8457 13.1119C15.8648 13.1045 15.8851 13.1012 15.9054 13.1024Z" fill="#FCD38C"/>
<path d="M7.7849 16.1925C7.70103 16.1455 7.65126 16.0726 7.63631 15.9724C7.63118 15.9383 7.62233 15.9049 7.61576 15.8709C7.6111 15.8471 7.59982 15.8391 7.57648 15.8411C7.42806 15.8544 7.27891 15.8561 7.13026 15.8461C7.11013 15.8448 7.08996 15.8436 7.06997 15.8411C7.05091 15.8388 7.04098 15.8472 7.03707 15.8667C7.02999 15.9022 7.02048 15.9372 7.01498 15.973C6.99798 16.0834 6.94113 16.1593 6.84435 16.202C6.78242 16.2199 6.72054 16.2136 6.65866 16.2014C6.60134 16.1901 6.54249 16.1848 6.49054 16.1528C6.47059 16.1372 6.44916 16.1237 6.43187 16.1043C6.37013 16.0349 6.34459 15.9539 6.36053 15.8594C6.36654 15.8237 6.37451 15.7885 6.38127 15.7529C6.39268 15.6921 6.39259 15.6918 6.33933 15.6718C6.21805 15.6259 6.09975 15.5716 5.98519 15.5092C5.95761 15.4943 5.92965 15.4795 5.90327 15.4625C5.88314 15.4493 5.86977 15.4521 5.85668 15.4724C5.83659 15.5036 5.81432 15.5333 5.79438 15.5648C5.70943 15.699 5.54275 15.7383 5.41172 15.6308C5.37738 15.6026 5.34113 15.577 5.30669 15.549C5.18512 15.4502 5.16294 15.2927 5.25152 15.1592C5.27473 15.1242 5.29845 15.0895 5.32268 15.0552C5.33419 15.039 5.334 15.0258 5.31942 15.0125C5.31233 15.0061 5.306 14.9988 5.29924 14.992C5.18573 14.8772 5.08089 14.7531 4.98569 14.6208C4.95866 14.5832 4.95843 14.5834 4.91873 14.6077C4.89184 14.6241 4.8651 14.6407 4.83821 14.6572C4.69683 14.7432 4.55639 14.7054 4.46902 14.5581C4.45705 14.5393 4.45253 14.5324 4.43999 14.5098C4.42457 14.4779 4.40593 14.4481 4.39195 14.4152C4.33235 14.2748 4.37387 14.1311 4.49861 14.0518C4.52787 14.0332 4.5576 14.0153 4.58714 13.9968C4.62647 13.9721 4.62689 13.9718 4.60998 13.9287C4.55561 13.7901 4.51076 13.6476 4.47578 13.5022C4.47 13.4782 4.46366 13.4544 4.459 13.4302C4.45434 13.406 4.44111 13.3981 4.41888 13.4011C4.37737 13.4067 4.3358 13.4132 4.29405 13.4157C4.18688 13.4223 4.10417 13.377 4.0482 13.2792C4.02491 13.2389 4.01615 13.1938 4.01223 13.1472C4.00934 13.1125 4.00291 13.0814 4.00072 13.0441C3.99168 12.9035 4.06736 12.7269 4.23371 12.7143C4.26926 12.7116 4.30463 12.7059 4.34009 12.7017C4.38109 12.6968 4.38254 12.6964 4.38347 12.6549C4.38614 12.5329 4.39547 12.4111 4.41143 12.2902C4.41795 12.2412 4.42541 12.1924 4.43351 12.1437C4.4413 12.0972 4.44134 12.0962 4.39777 12.081C4.36516 12.0697 4.33254 12.0591 4.30043 12.0475C4.16092 11.9974 4.08888 11.8561 4.12803 11.7058C4.14247 11.6502 4.16022 11.5955 4.17928 11.5415C4.22816 11.4022 4.36199 11.332 4.49614 11.3741C4.53631 11.3867 4.57657 11.3993 4.61562 11.4152C4.64059 11.4251 4.65168 11.4168 4.66221 11.3934C4.68696 11.3383 4.71384 11.2843 4.73989 11.23C4.74921 11.2113 4.75778 11.1963 4.76622 11.1791C4.79417 11.1246 4.82386 11.0709 4.85941 11.0212C4.89142 10.9915 10.2777 14.3606 10.2626 14.3994C10.2522 14.4193 10.2439 14.4384 10.234 14.4576C10.215 14.4935 10.197 14.53 10.1768 14.5651C10.1 14.6981 9.96009 14.7385 9.82953 14.666C9.79523 14.647 9.76229 14.625 9.7286 14.6046C9.69356 14.5834 9.69314 14.5832 9.66933 14.6159C9.61618 14.689 9.56057 14.7599 9.50251 14.8286C9.45056 14.8899 9.39562 14.948 9.3397 15.0052C9.31398 15.0315 9.31403 15.0323 9.33383 15.0621C9.35615 15.0958 9.37973 15.1286 9.40186 15.1624C9.4877 15.2937 9.46468 15.4518 9.34544 15.5484C9.30723 15.5794 9.26839 15.6095 9.22894 15.6387C9.10504 15.73 8.95784 15.7051 8.86623 15.5773C8.84293 15.5445 8.8208 15.5105 8.7975 15.4775C8.77644 15.4478 8.77565 15.4473 8.7448 15.4652C8.61828 15.5389 8.48696 15.6028 8.35185 15.6564C8.33293 15.6639 8.31387 15.6709 8.29505 15.6785C8.26099 15.6923 8.26033 15.6928 8.26709 15.733C8.2731 15.7687 8.27813 15.8049 8.28778 15.8395C8.32375 15.9691 8.24864 16.1256 8.08187 16.1806C8.00978 16.2045 7.85364 16.2218 7.7849 16.1925Z" fill="#414141"/>
<path d="M10.2521 14.409C10.139 14.3392 9.13211 13.6794 9.06161 13.638C9.02336 13.6174 9.0358 13.6149 9.059 13.5686C9.14136 13.3815 9.19677 13.1822 9.2234 12.9776C9.24259 12.8285 9.24157 12.6788 9.23001 12.5286C9.21919 12.3872 9.1942 12.2473 9.15546 12.1115C9.10611 11.9384 9.03472 11.7765 8.94656 11.6217C8.8482 11.449 8.7229 11.3016 8.58446 11.1657C8.47803 11.0612 8.35772 10.9763 8.23069 10.9026C8.03985 10.791 7.83218 10.7158 7.61701 10.6802C7.48188 10.6579 7.34549 10.6469 7.2091 10.6564C6.91885 10.6767 6.64407 10.7579 6.38848 10.9073C6.18687 11.0283 6.00641 11.1853 5.85509 11.3716C5.81651 11.4192 5.76157 11.5138 5.72378 11.5618C5.70206 11.5893 5.34075 11.34 4.84925 11.0307C4.86737 10.9968 4.88485 10.969 4.90423 10.9394C4.9163 10.9209 4.91532 10.9068 4.89957 10.8922C4.86942 10.8637 4.83937 10.8351 4.80978 10.806C4.71565 10.7131 4.69366 10.5899 4.7526 10.4689C4.76607 10.4412 4.79039 10.3761 4.82749 10.3288C4.84543 10.3059 4.86518 10.285 4.88457 10.2637C4.97944 10.1593 5.16387 10.1575 5.26289 10.2537C5.38274 10.37 5.36699 10.343 5.46791 10.2606C5.55417 10.1904 5.64144 10.1219 5.73268 10.0589C5.78179 10.0251 5.78496 10.0087 5.76012 9.952C5.73245 9.88876 5.70752 9.82517 5.71287 9.75291C5.71949 9.66369 5.75355 9.58737 5.8221 9.53781C5.91995 9.46713 6.02386 9.40894 6.1487 9.41256C6.25182 9.41563 6.32404 9.47015 6.37642 9.55946C6.39505 9.59158 6.40955 9.62667 6.42464 9.66107C6.43862 9.69328 6.46127 9.70379 6.493 9.69492C6.62669 9.6577 6.7621 9.6295 6.89839 9.60605C6.94793 9.59753 6.9579 9.58206 6.95981 9.52973C6.96072 9.51157 6.96072 9.49337 6.95981 9.47521C6.94923 9.30887 7.07038 9.16926 7.21358 9.15959C7.29251 9.15424 7.37159 9.14789 7.44996 9.16455C7.5652 9.18933 7.67861 9.30159 7.6672 9.45573C7.66561 9.47704 7.66678 9.4986 7.6672 9.52016C7.66822 9.5835 7.67941 9.59901 7.73826 9.60799C7.86578 9.62697 7.99207 9.65438 8.11639 9.69006C8.18219 9.70919 8.19239 9.70225 8.21979 9.63683C8.24127 9.58558 8.2628 9.53424 8.30073 9.4931C8.37743 9.41023 8.47291 9.39685 8.57234 9.42024C8.65109 9.43878 8.72509 9.47679 8.79289 9.52378C8.90337 9.6004 8.94363 9.73804 8.89866 9.87191C8.88934 9.89981 8.87807 9.92707 8.86632 9.95403C8.84302 10.0069 8.84699 10.0262 8.8933 10.0574C8.9906 10.1223 9.08429 10.193 9.17391 10.2694C9.27209 10.3537 9.25457 10.3664 9.36291 10.2622C9.45778 10.1708 9.60428 10.1599 9.69081 10.2225C9.77851 10.2858 9.85478 10.3656 9.90544 10.4654C9.95049 10.5543 9.94444 10.7177 9.85469 10.7999C9.82776 10.8247 9.8039 10.8531 9.77888 10.8802C9.75721 10.9038 9.75427 10.9295 9.77142 10.9563C9.85164 11.082 9.92343 11.2135 9.98628 11.3498C10.0017 11.3833 10.0282 11.3918 10.0608 11.3808C10.0992 11.3677 10.1384 11.3572 10.1781 11.3496C10.2843 11.3298 10.4012 11.3794 10.4557 11.4785C10.5086 11.5745 10.5412 11.6799 10.5445 11.7926C10.5481 11.9165 10.49 12.0022 10.3907 12.0593C10.3577 12.0778 10.3229 12.0924 10.287 12.103C10.249 12.1145 10.2327 12.1391 10.2404 12.1803C10.2672 12.328 10.2761 12.4777 10.2849 12.6275C10.2872 12.6672 10.3052 12.6891 10.3427 12.6902C10.3707 12.6911 10.3982 12.6966 10.4258 12.7005C10.5683 12.7203 10.6657 12.8382 10.6662 12.9915C10.6665 13.0212 10.6651 13.0508 10.6623 13.0804C10.6576 13.1269 10.6419 13.1937 10.6296 13.2373C10.594 13.3642 10.4735 13.4337 10.3494 13.4253C10.3092 13.4226 10.2692 13.4158 10.229 13.4115C10.1921 13.4077 10.1902 13.4082 10.1811 13.4471C10.1535 13.564 10.1234 13.6801 10.0839 13.7932C10.0656 13.8458 10.0467 13.8981 10.0259 13.9497C10.0166 13.9725 10.0205 13.9866 10.0404 13.9985C10.0796 14.0221 10.1191 14.0451 10.1569 14.0712C10.2578 14.1406 10.2994 14.2668 10.2627 14.3873C10.2597 14.3948 10.2562 14.4021 10.2521 14.409Z" fill="#666059"/>
<path d="M6.14513 11.8041C6.19173 11.7447 6.23595 11.6829 6.28697 11.6272C6.52764 11.3641 6.81846 11.2097 7.16183 11.1686C7.4655 11.1322 7.75361 11.1884 8.01973 11.3477C8.42941 11.5929 8.67376 11.9666 8.75083 12.4592C8.79561 12.7453 8.76169 13.0247 8.65484 13.2929C8.64883 13.308 8.64455 13.3239 8.63947 13.3395C8.65107 13.3653 8.63979 13.3875 8.62963 13.4099C8.57782 13.5239 8.50965 13.6261 8.43076 13.7197C8.20388 13.9888 7.92621 14.1672 7.58922 14.2289C7.14189 14.3108 6.73831 14.2007 6.38743 13.8931C6.10287 13.6435 5.93139 13.3204 5.87617 12.933C5.83321 12.6315 5.86895 12.3377 5.98642 12.0571C6.01489 11.9891 6.04946 11.9248 6.08427 11.8603C6.09848 11.8334 6.11703 11.8134 6.14513 11.8041Z" fill="#EDAE50"/>
<path d="M6.40521 12.6926C6.39752 12.1369 6.84443 11.7134 7.3185 11.7108C7.78345 11.7083 8.24746 12.1021 8.24825 12.6975C8.24905 13.2502 7.82725 13.6703 7.33495 13.6757C6.79862 13.6816 6.39537 13.2109 6.40521 12.6926Z" fill="#45423D"/>
<path d="M8.23172 11.786C8.23941 11.868 8.14286 11.9322 8.07576 11.8849C8.03023 11.8527 7.98722 11.82 7.95116 11.7772C7.8992 11.7157 7.91104 11.6518 7.97986 11.6116C8.03084 11.5818 8.07837 11.5797 8.12543 11.6224C8.15856 11.6524 8.19067 11.6826 8.21443 11.7217C8.22648 11.7407 8.23254 11.7632 8.23172 11.786Z" fill="#FCD38C"/>
<path d="M6.5904 12.6992C6.57898 12.2978 6.88484 11.9062 7.32877 11.908C7.74349 11.9097 8.0672 12.2635 8.06305 12.7059C8.05899 13.1421 7.71898 13.4841 7.31489 13.4788C6.89589 13.4733 6.57907 13.0982 6.5904 12.6992Z" fill="#EDAE50"/>
<path d="M7.32438 13.0138C7.1592 13.0138 7.0215 12.8677 7.02271 12.6917C7.02378 12.5182 7.15015 12.373 7.32629 12.3711C7.48696 12.3694 7.62726 12.5106 7.62637 12.6944C7.62554 12.8735 7.4932 13.014 7.32438 13.0138Z" fill="#414141"/>
<path d="M7.67314 12.1613C7.69047 12.1613 7.70743 12.1633 7.72216 12.1736C7.78623 12.2188 7.82053 12.2817 7.81824 12.3643C7.81703 12.4068 7.75976 12.4514 7.72071 12.442C7.65468 12.4261 7.60086 12.3913 7.5641 12.3287C7.53232 12.2746 7.53861 12.2293 7.58623 12.191C7.612 12.1705 7.64145 12.1621 7.67314 12.1613Z" fill="#FCD38C"/>
<path d="M6.14525 11.804C6.09716 11.885 6.05061 11.9666 6.01343 12.0542C5.95096 12.2019 5.9104 12.3591 5.89316 12.5201C5.8703 12.723 5.88608 12.9288 5.93958 13.1252C5.99308 13.3216 6.0832 13.5044 6.20457 13.663C6.38909 13.9039 6.62161 14.0699 6.90017 14.1625C7.06163 14.2161 7.22789 14.2408 7.39629 14.2289C7.83682 14.198 8.19608 13.9985 8.47063 13.6292C8.52826 13.5513 8.57798 13.4672 8.61895 13.3782C8.6251 13.365 8.63269 13.3525 8.63959 13.3396C8.67789 13.3587 8.97588 13.5634 9.02667 13.6012C9.04685 13.6161 9.03771 13.6359 9.02811 13.6541C8.97579 13.7535 8.92048 13.8509 8.85389 13.9405C8.70837 14.1363 8.53861 14.3033 8.33783 14.4342C8.14295 14.5614 7.92886 14.6517 7.70504 14.7012C7.53189 14.74 7.35649 14.7458 7.18162 14.7342C6.949 14.719 6.72608 14.6563 6.51388 14.5516C6.36851 14.4807 6.23228 14.3903 6.10849 14.2826C5.86502 14.0692 5.67616 13.8114 5.55398 13.5001C5.4759 13.3002 5.42707 13.0888 5.40921 12.8732C5.38125 12.5517 5.42915 12.2423 5.53558 11.9415C5.57458 11.8313 5.62602 11.728 5.68101 11.6264C5.68641 11.6165 5.69247 11.6066 5.69871 11.5973C5.73212 11.5468 5.73846 11.5452 5.78813 11.5753C5.87154 11.6259 6.03198 11.7318 6.11366 11.7848C6.12457 11.7905 6.13513 11.7969 6.14525 11.804Z" fill="#666059"/>
<path d="M8.73533 13.0198C8.77746 12.8204 8.7814 12.6139 8.74692 12.4128C8.71244 12.2117 8.64024 12.02 8.53464 11.8492C8.35813 11.6071 8.13637 11.4031 7.89029 11.2772C7.73669 11.2068 7.57208 11.1676 7.40494 11.1616C6.96371 11.1449 6.58544 11.3003 6.27729 11.6383C6.22884 11.6924 6.18333 11.7494 6.141 11.809C6.10474 11.786 5.77097 11.6048 5.72405 11.5617C5.70541 11.5446 5.85093 11.3692 5.92572 11.2873C6.08918 11.1081 6.27394 10.9601 6.48623 10.8517C6.68492 10.7427 6.91204 10.6804 7.1412 10.6545C7.3169 10.6343 7.49436 10.6393 7.66882 10.6694C7.89877 10.7096 8.11079 10.8048 8.31185 10.932C8.44973 11.0183 8.57667 11.1229 8.68957 11.2434C8.91142 11.482 9.07469 11.7588 9.16668 12.0817C9.22529 12.289 9.25369 12.5047 9.25088 12.7211C9.24785 13.044 9.17166 13.3406 9.06099 13.5795C9.03905 13.6269 9.05894 13.6257 8.99534 13.5795C8.9172 13.5201 8.72223 13.3959 8.63994 13.3397C8.63482 13.3355 8.70201 13.1789 8.73533 13.0198Z" fill="#45423D"/>
<path d="M6.68658 4.60462C6.65266 4.48983 6.62661 4.37277 6.59805 4.25644C6.5905 4.22581 6.59898 4.21759 6.62969 4.20966C8.32885 3.77013 10.3951 4.10597 11.4564 4.4479C11.6246 4.51209 11.7883 4.58668 11.9397 4.68873C12.0054 4.73304 12.0677 4.78186 12.1168 4.84733C12.1304 4.86526 12.1427 4.88432 12.1535 4.90433C12.1792 4.95295 12.1849 5.00197 12.1608 5.05515C12.1049 5.17853 12.0441 5.29913 11.9784 5.41696C11.9359 5.49368 11.8923 5.56966 11.8492 5.64604C11.8289 5.6831 11.8062 5.71856 11.7811 5.75215C11.7592 5.77391 11.7345 5.76345 11.7109 5.7578C11.6069 5.73302 11.502 5.71364 11.3987 5.68658C11.3911 5.6846 11.3833 5.68797 11.3756 5.68826C11.2674 5.65099 11.1532 5.64673 11.0433 5.61888C11.0289 5.61521 11.0164 5.62448 11.0026 5.622C10.8221 5.58468 10.6391 5.56584 10.4574 5.53928C10.3935 5.52991 10.3275 5.53487 10.2656 5.51058C10.2419 5.48397 10.2376 5.44917 10.2296 5.41562C10.1838 5.21767 10.1243 5.02556 10.0153 4.85496C9.9987 4.82904 9.98067 4.80431 9.96175 4.78022C9.90504 4.70781 9.83733 4.66474 9.7454 4.65191C9.50561 4.61835 9.26545 4.58936 9.02459 4.56765C8.62385 4.53132 8.22265 4.52512 7.82117 4.53117C7.62304 4.53409 7.4251 4.54812 7.22734 4.56626C7.0636 4.58113 6.90023 4.59877 6.73733 4.62172C6.71715 4.6238 6.69972 4.62251 6.68658 4.60462Z" fill="#EDAE50"/>
<path d="M12.3208 8.06059C12.208 8.05975 12.0951 8.05727 11.9823 8.05895C11.9463 8.05945 11.9383 8.03719 11.9305 8.00969C11.8999 7.99977 11.9008 7.97004 11.8961 7.94526C11.8596 7.75449 11.8253 7.56318 11.7856 7.3731C11.6879 6.90577 11.5782 6.44177 11.4448 5.98435C11.4218 5.90555 11.3971 5.82734 11.3746 5.74833C11.3678 5.7243 11.3547 5.69808 11.3768 5.67399C11.385 5.66408 11.3959 5.66408 11.4066 5.66611C11.5322 5.69089 11.6576 5.71567 11.781 5.75146C11.862 5.99392 11.9301 6.24059 11.993 6.48895C12.0784 6.82647 12.1517 7.16712 12.22 7.50895C12.2455 7.63663 12.3205 8.05742 12.3208 8.06059Z" fill="#45423D"/>
<path d="M6.68664 4.60467C6.83505 4.57771 6.98486 4.56205 7.13457 4.54777C7.24254 4.53746 7.35106 4.53087 7.45931 4.52299C7.76004 4.50079 8.06106 4.50123 8.36198 4.50664C8.58057 4.51055 8.79897 4.52289 9.01718 4.54133C9.16252 4.55362 9.30762 4.56775 9.4524 4.58534C9.57402 4.60021 9.6947 4.62167 9.81637 4.63852C9.8557 4.64393 9.88533 4.66444 9.91343 4.69175C10.0103 4.78592 10.0787 4.90111 10.1324 5.0268C10.1964 5.17618 10.2403 5.3324 10.2694 5.49343C10.2626 5.51603 10.2453 5.51633 10.2278 5.51519C10.1505 5.51023 10.073 5.50444 9.996 5.4968C9.92806 5.49011 9.85984 5.48689 9.792 5.48283C9.68385 5.47648 9.57555 5.46399 9.46684 5.47039C9.42491 5.47291 9.38357 5.46166 9.34173 5.46097C9.28507 5.46008 9.26745 5.47311 9.24779 5.52897C9.13195 5.85841 9.03657 6.19465 8.95274 6.53475C8.8232 7.06011 8.72441 7.59237 8.64133 8.12799C8.61906 8.27113 8.60093 8.41496 8.58108 8.55855C8.57703 8.58774 8.57405 8.61767 8.55657 8.6428C8.54292 8.65737 8.52554 8.65837 8.50886 8.65376C8.43095 8.63234 8.3536 8.60846 8.27587 8.58645C8.26979 8.58499 8.26414 8.58197 8.25941 8.57765C8.25469 8.57333 8.25103 8.56784 8.24875 8.56167C8.23622 8.52583 8.24409 8.48941 8.24913 8.45412C8.32834 7.87473 8.42531 7.29896 8.55284 6.72933C8.64306 6.32648 8.74585 5.9277 8.87753 5.53769C8.89748 5.47871 8.88629 5.46156 8.82805 5.46087C8.5972 5.45814 8.36674 5.46667 8.13599 5.47841C8.02005 5.48436 7.90417 5.48942 7.78851 5.49973C7.78078 5.49973 7.773 5.50002 7.76522 5.50007C7.64448 5.50092 7.64169 5.50374 7.60362 5.62324C7.38205 6.31801 7.22716 7.03023 7.1075 7.75191C7.07171 7.96776 7.04035 8.1843 7.00848 8.40079C7.00559 8.42061 7.00354 8.44014 6.9918 8.45674C6.98062 8.47592 6.96216 8.4785 6.94362 8.48153C6.84735 8.49639 6.75052 8.50675 6.65472 8.52484C6.63314 8.52896 6.60663 8.53386 6.60229 8.49689C6.61836 8.3828 6.63445 8.2687 6.65057 8.15461C6.69232 7.85783 6.7396 7.5621 6.79241 7.26743C6.86165 6.88134 6.94087 6.49827 7.03872 6.11981C7.08532 5.94029 7.13345 5.76117 7.19203 5.58552C7.21253 5.52396 7.21244 5.52396 7.16812 5.48144C7.06123 5.3785 6.95471 5.27516 6.84726 5.17286C6.8275 5.15443 6.81367 5.12989 6.80769 5.10268C6.7713 4.95265 6.73314 4.80312 6.69558 4.65339C6.68908 4.6381 6.68596 4.62144 6.68664 4.60467Z" fill="#45423D"/>
<path d="M6.68692 4.60437C6.6926 4.62008 6.69908 4.63559 6.69577 4.65314C6.68645 4.63832 6.67462 4.62375 6.68692 4.60437Z" fill="#A9A9A9"/>
<path d="M9.15359 8.91229C8.97503 8.81029 8.78785 8.72989 8.59638 8.66026C8.57896 8.65392 8.56064 8.64921 8.54736 8.63399C8.56707 8.48872 8.58529 8.34321 8.60673 8.19823C8.65643 7.8626 8.71448 7.52862 8.78086 7.19632C8.88198 6.69266 9.00294 6.19476 9.16198 5.70795C9.18742 5.63004 9.21379 5.55247 9.24026 5.475C9.25363 5.4358 9.25424 5.43565 9.29371 5.43684C9.51392 5.44348 9.73409 5.45245 9.95398 5.46712C10.0592 5.47411 10.1641 5.48442 10.2692 5.49324C10.4428 5.51099 10.6158 5.53374 10.7885 5.55976C10.8619 5.57086 10.9353 5.58107 11.0082 5.59549C11.0501 5.61329 11.0761 5.64738 11.1014 5.68654C11.1976 5.83557 11.2742 5.9965 11.338 6.16234C11.4047 6.33581 11.4657 6.51275 11.5069 6.69608C11.5231 6.76825 11.5462 6.83858 11.5628 6.91049C11.6174 7.14716 11.6778 7.38228 11.7219 7.62167C11.7445 7.74444 11.7685 7.8671 11.7982 7.98843C11.8062 8.0207 11.8193 8.05723 11.7802 8.08047C11.776 8.08543 11.7726 8.09162 11.7674 8.09455C11.6983 8.13346 11.6516 8.1968 11.6062 8.26138C11.5303 8.36918 11.4552 8.47757 11.3798 8.58577C11.3586 8.59568 11.341 8.58745 11.3237 8.57422C11.2329 8.50503 11.1412 8.43704 11.0487 8.37027C11.0017 8.33622 10.9981 8.31917 11.0296 8.26891C11.0744 8.19754 11.1225 8.12865 11.1687 8.05832C11.1865 8.03126 11.2055 8.00494 11.22 7.9757C11.2461 7.92267 11.2365 7.86978 11.1964 7.83811C11.1562 7.80644 11.1061 7.81288 11.0676 7.85883C11.019 7.91682 10.9807 7.98328 10.9392 8.04717C10.8074 8.24915 10.6754 8.45099 10.5431 8.65268C10.5307 8.67161 10.518 8.69054 10.5096 8.71215C10.4902 8.76122 10.5037 8.81177 10.5429 8.83898C10.5834 8.86713 10.6301 8.86158 10.6644 8.81975C10.7124 8.76127 10.7505 8.69466 10.7923 8.63141C10.8189 8.59082 10.8455 8.55018 10.873 8.51028C10.8921 8.48253 10.9133 8.47841 10.9409 8.49725C11.0414 8.56599 11.1374 8.64167 11.2355 8.71413C11.2519 8.72628 11.2681 8.74065 11.2675 8.76553C11.2368 8.81871 11.2062 8.87199 11.1753 8.92497C11.1598 8.95159 11.1432 8.97746 11.1279 9.00427C11.0641 9.11515 11.0621 9.22979 11.1171 9.34358C11.2652 9.65003 11.419 9.9532 11.5927 10.2444C11.6143 10.2807 11.6375 10.3157 11.6592 10.3517C11.7204 10.4531 11.8118 10.4938 11.9194 10.4973C12.0231 10.5005 12.1266 10.4884 12.2299 10.4788C12.2275 10.9376 12.1041 11.3573 11.873 11.7436C11.8406 11.7976 11.8056 11.8207 11.7425 11.8188C11.5752 11.8134 11.4077 11.8178 11.2403 11.8183C11.2065 11.8133 11.2077 11.7815 11.203 11.7576C11.1832 11.6592 11.1571 11.5627 11.1295 11.4665C11.0236 11.0953 10.8701 10.7414 10.6733 10.4149C10.6097 10.3093 10.5387 10.2096 10.4721 10.1065C10.4102 10.0205 10.3434 9.93868 10.2745 9.85928C10.1517 9.71788 10.0243 9.58124 9.88488 9.45782C9.68321 9.2804 9.4672 9.12225 9.23937 8.98524C9.20783 8.96507 9.16999 8.95253 9.15359 8.91229Z" fill="#B9E1E1"/>
<path d="M11.7703 8.09206C11.7832 8.06232 11.7821 8.02129 11.7754 7.99328C11.7165 7.74919 11.3009 6.0474 11.0659 5.6729C11.0374 5.6275 11.0307 5.61546 11.0083 5.59558C11.1187 5.6047 11.2269 5.62948 11.3363 5.64574C11.3447 5.64677 11.3527 5.64988 11.3598 5.65484C11.3668 5.65979 11.3726 5.66644 11.3768 5.67424C11.5236 6.14842 11.6495 6.62877 11.7546 7.11528C11.819 7.41176 11.8851 7.73035 11.9376 8.02951L11.9384 8.03145C11.949 8.05231 11.9517 8.04656 11.8902 8.05474C11.8521 8.05994 11.8008 8.07803 11.7703 8.09206Z" fill="#DCF9FB"/>
<path d="M8.2595 8.55567C8.16393 8.53585 8.06845 8.51419 7.97265 8.49674C7.85835 8.47615 7.74311 8.46194 7.62741 8.45417C7.51791 8.44658 7.40934 8.44425 7.29965 8.44401C7.238 8.44401 7.17556 8.4504 7.11354 8.44554C7.08815 8.42483 7.09271 8.39672 7.09639 8.36852C7.149 7.96498 7.21018 7.56317 7.28991 7.16414C7.34583 6.88312 7.40878 6.60408 7.48627 6.32911C7.56027 6.06643 7.64647 5.80835 7.78006 5.57179C7.80019 5.5362 7.80336 5.50676 7.78207 5.47341C7.79679 5.46711 7.81245 5.46716 7.82787 5.46642C8.17949 5.44947 8.53107 5.43108 8.8832 5.4345C8.89839 5.4345 8.91418 5.43068 8.92896 5.43871C8.93487 5.45651 8.925 5.47103 8.91992 5.48585C8.76466 5.93687 8.64732 6.39998 8.5463 6.86781C8.46061 7.26471 8.38946 7.66458 8.32814 8.06649C8.30344 8.22935 8.28242 8.39266 8.2595 8.55567Z" fill="#B9E1E1"/>
<path d="M7.81272 5.46741C7.87567 5.45958 7.86971 5.46325 7.83197 5.53184C7.73006 5.71701 7.64423 5.90738 7.57867 6.10826C7.54064 6.22468 7.50378 6.34219 7.47531 6.46228C7.44423 6.59333 7.40756 6.72284 7.37872 6.85457C7.3495 6.9879 7.32485 7.12221 7.29783 7.25603C7.27015 7.39307 7.24191 7.52997 7.22085 7.6683C7.18823 7.88307 7.15673 8.09799 7.12635 8.31306C7.1202 8.35682 7.11237 8.40088 7.11363 8.44569C7.09792 8.45317 6.99038 8.46497 6.98218 8.44569C6.98926 8.34027 7.00785 8.23644 7.02318 8.1323C7.06111 7.87497 7.10373 7.61849 7.15105 7.36284C7.26143 6.77205 7.39745 6.1882 7.57974 5.61763C7.59125 5.58175 7.60485 5.54656 7.61506 5.51028C7.62102 5.48902 7.6329 5.48114 7.65196 5.48054C7.69562 5.47821 7.80499 5.46706 7.81272 5.46741Z" fill="#DCF9FB"/>
<path d="M13.626 12.7347C13.5175 12.7258 13.3967 12.6351 13.3104 12.8695C13.2246 13.1018 13.3507 13.1913 13.3317 13.1835C13.3223 13.1822 13.3129 13.1819 13.3034 13.1826C13.2324 13.1835 13.159 13.171 13.0881 13.1709C13.063 13.1586 13.0689 13.1368 13.0731 13.1156C13.1088 12.9329 13.1635 12.7551 13.2362 12.5853C13.3324 12.3626 13.4501 12.1541 13.5976 11.9648C13.8027 11.7018 14.0429 11.484 14.3223 11.3148C14.613 11.1386 14.9251 11.0297 15.2558 10.9822C15.4155 10.9593 15.5766 10.9508 15.7381 10.9628C15.7993 10.9674 15.8472 10.9408 15.8801 10.8871C15.8936 10.8652 15.9084 10.8486 15.9314 10.8399C15.958 10.8396 15.9822 10.8516 16.0076 10.8576C16.0635 10.871 16.0693 10.8688 16.0938 10.815C16.1334 10.7281 16.1745 10.642 16.2257 10.5617C16.2382 10.5531 16.2487 10.5414 16.2563 10.5277C16.3226 10.4197 16.4074 10.3304 16.5071 10.2571C16.5099 10.2557 16.5131 10.2551 16.5161 10.2555C16.5522 10.2555 16.5616 10.2848 16.5703 10.3134C16.6085 10.4391 16.6514 10.5626 16.7045 10.6823C16.7924 10.8805 16.9009 11.0639 17.0403 11.2257C17.061 11.2499 17.0873 11.2714 17.0751 11.3107C17.0026 11.4462 16.93 11.5817 16.8574 11.7171C16.8467 11.737 16.835 11.7563 16.8237 11.7759C16.8035 11.81 16.7807 11.8423 16.7556 11.8725C16.7491 11.8674 16.7422 11.863 16.7349 11.8592C16.7307 11.8571 16.7228 11.8496 16.7187 11.8472C16.6427 11.8033 16.6535 11.8004 16.6914 11.7184C16.7151 11.6667 16.7275 11.6143 16.7125 11.556C16.7065 11.5319 16.696 11.5094 16.6815 11.4899C16.667 11.4704 16.6489 11.4543 16.6283 11.4426C16.5797 11.4145 16.5292 11.388 16.4737 11.3757C16.3958 11.3585 16.3144 11.3969 16.2769 11.4718C16.2645 11.4966 16.2558 11.5232 16.2443 11.5484C16.2278 11.5853 16.2183 11.5904 16.1823 11.5795C16.0867 11.5505 15.9902 11.5268 15.8912 11.5151C15.8819 11.5139 15.8731 11.5101 15.8639 11.5092C15.8375 11.5059 15.8263 11.4894 15.8266 11.4623C15.8266 11.4359 15.8249 11.4094 15.8266 11.383C15.8327 11.2831 15.7729 11.2156 15.6861 11.1974C15.6235 11.1842 15.5589 11.1851 15.4967 11.2C15.4171 11.219 15.37 11.2707 15.3589 11.3586C15.3544 11.3911 15.3518 11.424 15.351 11.4569C15.3506 11.4998 15.3478 11.5034 15.3071 11.5119C15.2569 11.5224 15.2063 11.5303 15.156 11.5404C15.1042 11.551 15.053 11.5641 15.0023 11.5798C14.9693 11.59 14.9616 11.5859 14.9478 11.5532C14.9352 11.5231 14.9233 11.4927 14.907 11.4645C14.864 11.3901 14.7862 11.3558 14.7066 11.3776C14.6494 11.3935 14.595 11.419 14.5455 11.4533C14.4733 11.5029 14.4469 11.5965 14.4775 11.6847C14.4866 11.7109 14.4999 11.7354 14.5106 11.7611C14.524 11.7934 14.5228 11.8011 14.4962 11.8184C14.4021 11.8797 14.315 11.9512 14.2284 12.0235C14.2031 12.0447 14.1961 12.0449 14.1725 12.0217C14.1514 11.9998 14.129 11.9793 14.1056 11.9604C14.039 11.9092 13.948 11.9086 13.8854 11.9648C13.8418 12.004 13.8005 12.0467 13.7694 12.0991C13.7223 12.1784 13.7332 12.2726 13.7974 12.337C13.8233 12.3631 13.826 12.3651 13.8682 12.3958C13.8034 12.4647 13.6767 12.651 13.6396 12.7243" fill="#414141"/>
<path d="M12.7585 13.1616C12.4978 13.1613 12.2371 13.161 11.9764 13.1607C11.562 13.1607 11.1477 13.1607 10.7333 13.1607C10.6377 13.1607 10.6361 13.1575 10.6494 13.0578C10.6587 12.9851 10.6604 12.9126 10.622 12.8465C10.5807 12.7752 10.5223 12.7295 10.4439 12.7167C10.4056 12.7101 10.367 12.7059 10.3283 12.7042C10.2817 12.7028 10.2732 12.6905 10.2715 12.6405C10.2659 12.4789 10.2535 12.3183 10.2243 12.1591C10.2127 12.0961 10.2159 12.0908 10.2753 12.0734C10.3233 12.0593 10.3701 12.0418 10.4129 12.0144C10.5195 11.9462 10.5507 11.8297 10.5252 11.71C10.5135 11.6554 10.4958 11.6022 10.4786 11.5492C10.4339 11.4117 10.3155 11.3402 10.1813 11.3669C10.1353 11.3761 10.0912 11.3917 10.0469 11.4066C10.0105 11.419 10.0059 11.4177 9.98901 11.3801C9.9185 11.222 9.83533 11.0706 9.74041 10.9276C9.72256 10.901 9.7235 10.8926 9.75066 10.8709C9.78794 10.8408 9.81813 10.8027 9.85271 10.7697C9.93588 10.6904 9.93439 10.5235 9.88463 10.4438C9.83775 10.3688 9.77834 10.305 9.71371 10.249C9.6324 10.1782 9.48981 10.1757 9.39941 10.2621C9.36829 10.2919 9.33297 10.3167 9.30543 10.3506C9.28893 10.371 9.27369 10.3714 9.25417 10.3539C9.20809 10.3123 9.16154 10.2712 9.11373 10.2319C9.0388 10.1703 8.95996 10.1149 8.88 10.0608C8.81071 10.0139 8.81392 10.0244 8.84915 9.94677C8.86386 9.91585 8.87677 9.88401 8.88783 9.85141C8.92813 9.72448 8.8916 9.58541 8.76304 9.51602C8.70759 9.48628 8.6519 9.4556 8.59212 9.43831C8.50825 9.41402 8.42638 9.41848 8.35266 9.47672C8.32275 9.50065 8.29876 9.53197 8.28276 9.56796C8.26291 9.61088 8.24549 9.65504 8.22647 9.69836C8.21208 9.73102 8.20891 9.73306 8.17643 9.7222C8.05183 9.68057 7.92443 9.65212 7.79559 9.63036C7.76498 9.62541 7.73427 9.62045 7.70361 9.61579C7.6592 9.60895 7.65575 9.60528 7.65496 9.55567C7.65436 9.51444 7.6545 9.47315 7.65496 9.43176C7.65599 9.31718 7.59905 9.24343 7.50688 9.1956C7.48039 9.18137 7.45138 9.17322 7.42175 9.17166C7.35213 9.16913 7.28237 9.16442 7.21285 9.17662C7.08028 9.20021 6.99795 9.29864 6.99385 9.44118C6.99282 9.47746 6.99385 9.51379 6.99343 9.55022C6.99277 9.60588 6.99063 9.60756 6.94026 9.61609C6.78546 9.64216 6.63113 9.67061 6.48072 9.71903C6.44484 9.73053 6.44055 9.72805 6.42415 9.69038C6.40854 9.65445 6.3933 9.61832 6.37755 9.58239C6.31558 9.4396 6.17188 9.39345 6.03945 9.4448C5.98984 9.46391 5.94142 9.48634 5.89448 9.51196C5.81746 9.55433 5.76667 9.61976 5.75003 9.71293C5.74147 9.76185 5.7458 9.81233 5.76252 9.8588C5.77697 9.90073 5.79612 9.94033 5.8142 9.98052C5.82953 10.0146 5.8278 10.0224 5.79849 10.0413C5.67487 10.1211 5.5594 10.2129 5.44669 10.3089C5.4322 10.3213 5.41873 10.3352 5.40475 10.3479C5.38066 10.3694 5.37325 10.3694 5.34883 10.347C5.32185 10.3222 5.29403 10.2983 5.26878 10.2716C5.17358 10.1709 4.99535 10.1715 4.90295 10.2785C4.87569 10.31 4.84973 10.3429 4.82177 10.3737C4.78795 10.4108 4.78571 10.4095 4.75104 10.3755C4.72159 10.3466 4.65216 10.2817 4.64722 10.2778C4.60095 10.2229 4.60286 10.2225 4.64969 10.1663C5.04784 9.68826 5.55257 9.32437 6.1175 9.10807C6.40225 8.99903 6.6953 8.92796 6.99641 8.90035C7.18032 8.8841 7.36511 8.88225 7.54928 8.8948C7.79869 8.91071 8.04586 8.95426 8.28677 9.02475C8.48442 9.08223 8.67667 9.15896 8.86108 9.25398C8.98708 9.31719 9.10931 9.38859 9.22705 9.4678C9.39199 9.57889 9.54813 9.70412 9.69391 9.84224C9.83338 9.97548 9.96433 10.1185 10.0859 10.2703C10.1024 10.2921 10.1178 10.3148 10.1321 10.3383C10.2458 10.4748 10.3371 10.6283 10.4224 10.7852C10.5938 11.0996 10.722 11.4384 10.8031 11.7913C10.8315 11.9148 10.8503 12.0401 10.8713 12.1651C10.8895 12.2741 10.9647 12.3114 11.057 12.2586C11.1727 12.1925 11.2462 12.0351 11.2294 11.8958C11.2257 11.8656 11.2061 11.8314 11.2366 11.803C11.2608 11.7885 11.2874 11.7897 11.3138 11.7896C11.4535 11.7892 11.5931 11.7877 11.7327 11.7903C11.7903 11.7914 11.8289 11.7685 11.8598 11.7177C11.9752 11.5274 12.0632 11.3198 12.1207 11.1018C12.1661 10.9316 12.1987 10.7589 12.2097 10.5819C12.2111 10.5638 12.2108 10.5455 12.2089 10.5274C12.2065 10.5059 12.2115 10.4882 12.2302 10.4769C12.2605 10.4763 12.3268 10.4723 12.3298 10.472C12.4457 10.4647 12.4457 10.4648 12.4459 10.5887C12.4459 10.6829 12.4454 10.777 12.4462 10.8709C12.4469 10.957 12.4685 10.9835 12.5476 11.0047C12.737 11.056 12.9287 11.0726 13.124 11.0618C13.2143 11.0568 13.3025 11.0396 13.3921 11.032C13.4106 11.0298 13.4287 11.0248 13.4459 11.0172C13.5003 10.995 13.5163 10.9726 13.5171 10.9097C13.5185 10.7926 13.5167 10.6754 13.5181 10.5582C13.5184 10.5327 13.5135 10.5046 13.5348 10.4839C13.57 10.4551 13.6036 10.4771 13.635 10.4911C13.7127 10.5258 13.7711 10.5874 13.8248 10.6541C13.9242 10.7775 13.9979 10.9185 14.0679 11.062C14.074 11.0735 14.0766 11.0868 14.0753 11.1C14.0729 11.1321 14.051 11.1481 14.0287 11.1635C13.8456 11.2893 13.6813 11.4387 13.5301 11.6054C13.3568 11.7965 13.213 12.0101 13.0912 12.241C12.9497 12.5091 12.8536 12.7949 12.7968 13.0962C12.7919 13.1215 12.7967 13.1573 12.7585 13.1616Z" fill="#45423D"/>
<path d="M12.7583 13.1616C12.77 13.1053 12.7813 13.0489 12.7937 12.9931C12.895 12.5339 13.0896 12.1241 13.3706 11.7601C13.5572 11.5169 13.7785 11.3063 14.0265 11.136C14.0407 11.1261 14.0564 11.1182 14.0653 11.1013C14.0764 11.0815 14.9221 10.5026 15.8679 10.6886C15.9241 10.7321 15.9308 10.8157 15.9002 10.8915C15.8703 10.9655 15.8146 10.9887 15.7254 10.9865C15.6431 10.9843 15.5609 10.9796 15.479 10.9844C15.3411 10.9918 15.2041 11.0103 15.0689 11.0398C14.6986 11.1224 14.3614 11.2824 14.0588 11.5239C13.7053 11.806 13.4385 12.1628 13.2554 12.5902C13.1811 12.7647 13.1252 12.9475 13.0886 13.1351C13.0863 13.1463 13.056 13.3276 13.0466 13.4077C13.0382 13.482 13.0047 13.5339 12.9372 13.5584C12.8381 13.5944 12.7322 13.5175 12.7301 13.4061C12.7289 13.35 12.7403 13.2949 12.7482 13.2396C12.7514 13.2176 12.7548 13.1652 12.7583 13.1616Z" fill="#A19D98"/>
<path d="M11.9514 12.7755C11.7823 12.7755 11.6132 12.776 11.4442 12.7752C11.365 12.7748 11.3076 12.7337 11.2749 12.6583C11.2422 12.5828 11.2523 12.5096 11.2997 12.4441C11.3374 12.3923 11.3913 12.3724 11.4511 12.3704C11.4914 12.3691 11.5318 12.3699 11.5723 12.3699C11.8577 12.3701 12.1431 12.3703 12.4285 12.3705C12.4826 12.3705 12.533 12.3804 12.5759 12.4195C12.6351 12.4735 12.6592 12.5611 12.6345 12.6391C12.6225 12.6786 12.599 12.7131 12.5675 12.7377C12.5359 12.7622 12.4979 12.7756 12.4588 12.7758C12.2897 12.7767 12.1205 12.7755 11.9514 12.7755Z" fill="#FCBE4F"/>
<path d="M6.60221 8.49638C6.61279 8.50535 6.6249 8.5056 6.63734 8.50297C6.74312 8.48097 6.8501 8.46828 6.95718 8.45648C6.9665 8.45539 6.96184 8.45554 6.98826 8.45287C7.3643 8.42313 7.86555 8.44504 8.25971 8.55576C8.34661 8.58133 8.43417 8.60037 8.52117 8.62574C8.53007 8.62629 8.95587 8.79193 9.12129 8.88649C9.13611 8.89774 9.14333 8.90374 9.15391 8.91236C9.16071 8.9935 9.13699 9.05446 9.09244 9.10982C9.03042 9.18699 8.94846 9.2423 8.85676 9.27734C8.73882 9.22282 8.6214 9.16697 8.49959 9.12226C8.28405 9.04309 8.06199 8.98565 7.83633 8.95072C7.63971 8.92095 7.44115 8.90819 7.24259 8.91256C7.00831 8.91673 6.77506 8.94655 6.54653 9.00153C5.8372 9.17097 5.19402 9.56836 4.70422 10.1398C4.68856 10.1581 4.67258 10.1761 4.65688 10.1943C4.62426 10.2324 4.61 10.2571 4.58596 10.2873C4.54602 10.3377 4.50716 10.3891 4.46825 10.4404C4.37739 10.5601 4.2177 10.5665 4.11822 10.441C4.05088 10.356 4.0623 10.2279 4.1171 10.1472C4.17685 10.0608 4.24073 9.9777 4.30847 9.89827C4.37772 9.81584 4.44519 9.73169 4.52109 9.656C4.62748 9.55004 4.73339 9.44323 4.84909 9.34871C5.24419 9.02596 5.67721 8.77983 6.15446 8.6244C6.28058 8.58322 6.40867 8.5492 6.53818 8.5225C6.56102 8.51794 6.58497 8.51621 6.60221 8.49638Z" fill="#EDAE50"/>
<path d="M10.4852 10.092C10.6008 10.2375 10.6949 10.3986 10.7857 10.5619C10.8926 10.7539 10.9814 10.9553 11.0567 11.1636C11.1257 11.3548 11.1854 11.549 11.2251 11.7497C11.2298 11.7723 11.2354 11.7943 11.2406 11.817C11.251 11.8786 11.2629 11.9396 11.2502 12.003C11.2243 12.1332 11.1633 12.2351 11.0469 12.2918C10.9493 12.3394 10.8647 12.2897 10.8487 12.1767C10.8068 11.8793 10.7383 11.589 10.6339 11.3089C10.5103 10.9775 10.3485 10.6695 10.1426 10.3875C10.1332 10.3746 10.1245 10.3609 10.1155 10.3476C10.1378 10.2689 10.1839 10.2053 10.2283 10.1399C10.2533 10.1032 10.2918 10.1092 10.324 10.0984C10.376 10.081 10.4306 10.0668 10.4852 10.092Z" fill="#EDAE50"/>
<path d="M10.4586 10.0853C10.2037 10.0634 10.1236 10.3308 10.1154 10.3476C10.0053 10.205 9.88917 10.0684 9.76275 9.94168C9.50582 9.68343 9.21427 9.46717 8.89764 9.29999C8.88366 9.2927 8.87019 9.28512 8.85645 9.27733C8.86833 9.26247 8.97322 9.24061 9.06068 9.11378C9.13467 9.00647 9.1521 8.93372 9.15359 8.91235C9.23705 8.94571 9.30992 8.99988 9.3856 9.04801C9.51644 9.13048 9.64222 9.22171 9.76219 9.32115C9.87058 9.41175 9.97575 9.50612 10.0759 9.60752C10.1445 9.67691 10.2088 9.75041 10.2737 9.82317C10.3492 9.90782 10.4253 9.99297 10.485 10.0921" fill="#FCD38C"/>
<path d="M17.0709 11.3097C17.0435 11.2611 17.0019 11.2255 16.9684 11.182C16.7883 10.9483 16.6592 10.6852 16.5682 10.3999C16.5578 10.3671 16.5483 10.334 16.5378 10.3012C16.5334 10.2873 16.5301 10.2714 16.5115 10.2719C16.2819 10.0628 16.0047 9.94617 15.7333 9.81845C15.3233 9.62575 14.8951 9.49331 14.462 9.37659C14.1223 9.28505 13.7782 9.21715 13.433 9.15436C13.4016 9.14866 13.368 9.14588 13.3463 9.1147C13.3406 9.0921 13.3406 9.06901 13.3406 9.04596C13.3401 8.77287 13.3402 8.49978 13.341 8.22669C13.341 8.19695 13.3324 8.16275 13.3626 8.14075C13.4306 8.15854 13.5009 8.15854 13.57 8.16875C13.7004 8.18798 13.8317 8.2023 13.962 8.22327C14.1307 8.25013 14.2999 8.27402 14.4673 8.30971C14.5828 8.33449 14.699 8.35535 14.8143 8.38152C14.9495 8.4122 15.0846 8.44323 15.218 8.47936C15.4405 8.53948 15.6629 8.60049 15.8797 8.68163C15.966 8.71389 16.0516 8.74873 16.139 8.77738C16.228 8.80652 16.2978 8.86471 16.3642 8.93023C16.5087 9.07272 16.6528 9.21561 16.7922 9.36371C16.8854 9.46283 16.979 9.56126 17.0679 9.66495C17.1064 9.70985 17.149 9.75094 17.1891 9.79461C17.2583 9.87024 17.3227 9.95058 17.3937 10.0246C17.4506 10.0841 17.4843 10.159 17.4885 10.2447C17.4944 10.3652 17.4907 10.4847 17.462 10.6032C17.409 10.8212 17.3114 11.0136 17.179 11.1875C17.1458 11.2308 17.1115 11.2734 17.0709 11.3097Z" fill="#EDAE50"/>
<path d="M11.2676 8.7645L10.9468 8.52779C10.9415 8.5244 10.9364 8.52055 10.9317 8.51629C10.9123 8.49646 10.9006 8.50558 10.8884 8.5262C10.8702 8.55683 10.8498 8.58602 10.8302 8.61571C10.7838 8.68584 10.7384 8.75672 10.6907 8.82581C10.6553 8.87711 10.6104 8.89292 10.5608 8.87641C10.4866 8.85163 10.4531 8.76663 10.4899 8.69303C10.5014 8.66983 10.5167 8.64872 10.5309 8.62711C10.6941 8.37831 10.8574 8.12955 11.0208 7.88084C11.031 7.86434 11.0423 7.8486 11.0546 7.83376C11.0972 7.78499 11.1618 7.77736 11.2107 7.81393C11.2344 7.83162 11.2512 7.85801 11.2579 7.88805C11.2645 7.9181 11.2604 7.94968 11.2465 7.97675C11.232 8.00574 11.2134 8.03246 11.1957 8.05947C11.145 8.13649 11.0938 8.21311 11.0429 8.28989C11.0226 8.32052 11.0221 8.32116 11.0512 8.34272C11.1605 8.4238 11.2701 8.50466 11.3797 8.58528L11.2676 8.7645Z" fill="#45423E"/>
<path d="M12.5903 8.07945C12.6053 8.09071 12.6043 8.10785 12.6043 8.12406C12.6047 8.41348 12.6047 8.70286 12.6043 8.9922C12.6047 9.00208 12.6031 9.01193 12.5996 9.0211C12.5804 9.04588 12.553 9.04489 12.5271 9.04499C12.4311 9.04548 12.3352 9.04003 12.2393 9.03805C11.9714 9.0319 11.7035 9.03562 11.4352 9.03617C11.4166 9.03617 11.3979 9.03726 11.3806 9.04608C11.3704 9.05103 11.3611 9.05817 11.3626 9.0718C11.364 9.08543 11.3748 9.08964 11.3856 9.09267C11.3931 9.09472 11.4008 9.09567 11.4086 9.09549C11.5401 9.09247 11.6716 9.09827 11.8034 9.08949C11.9299 9.08102 12.057 9.0836 12.1841 9.09173C12.2937 9.09871 12.4037 9.10164 12.5135 9.10585C12.5415 9.10689 12.5694 9.10486 12.5943 9.12255C12.6067 9.18887 12.6262 9.25449 12.6129 9.32353C12.6126 9.32984 12.611 9.33599 12.608 9.34147C12.5875 9.36744 12.5556 9.36799 12.529 9.37978C12.4786 9.40209 12.4535 9.43847 12.4551 9.49764C12.4623 9.76791 12.4423 10.0379 12.4458 10.3081C12.4462 10.3394 12.4468 10.3706 12.4501 10.4019C12.4571 10.4694 12.4396 10.4916 12.3755 10.4985C12.3586 10.5003 12.3415 10.5008 12.3243 10.5013C12.2945 10.5017 12.2647 10.5019 12.235 10.4994C12.1479 10.5139 12.0597 10.5149 11.9719 10.5213C11.8091 10.5329 11.6896 10.4625 11.6048 10.3131C11.4871 10.1059 11.3683 9.8994 11.2606 9.68593C11.2123 9.59018 11.1674 9.49264 11.1165 9.39817C11.0347 9.24641 11.0339 9.09807 11.1294 8.95285C11.1711 8.88956 11.2015 8.81824 11.2513 8.76089C11.2789 8.69185 11.3236 8.63436 11.3638 8.57374C11.456 8.42912 11.5533 8.28846 11.6581 8.15385C11.6901 8.11276 11.7346 8.08743 11.7756 8.05794C11.83 8.04228 12.0273 8.03812 12.0773 8.03638C12.1341 8.03435 12.1911 8.03559 12.2479 8.03638C12.275 8.03658 12.5381 8.05175 12.5903 8.07945Z" fill="#EDAE50"/>
<path d="M15.9332 10.8621C15.9156 10.8517 15.9047 10.8373 15.9059 10.8145C15.9095 10.7451 15.8673 10.7109 15.8156 10.6854C15.7469 10.6587 15.2229 10.6063 14.702 10.7988C14.5188 10.8619 14.3421 10.9406 14.1759 11.0448C14.1453 11.064 14.1114 11.0771 14.0827 11.1001C14.0787 11.1033 14.071 11.1012 14.065 11.1016C14.0241 11.0395 13.9971 10.9692 13.9603 10.9046C13.9033 10.8047 13.843 10.7077 13.7659 10.6235C13.7054 10.5573 13.6368 10.5066 13.5501 10.488C13.5263 10.49 13.5227 10.4714 13.5198 10.4534C13.5172 10.4321 13.5163 10.4106 13.5171 10.3892C13.5171 10.2393 13.5146 10.0893 13.5177 9.93944C13.5206 9.79759 13.5053 9.65648 13.5072 9.51478C13.5079 9.46086 13.4839 9.42428 13.4373 9.40331C13.4187 9.39496 13.4007 9.38536 13.3833 9.37457C13.37 9.36624 13.3556 9.35767 13.3614 9.3365L13.3632 9.2293C13.3786 9.20655 13.3996 9.20977 13.422 9.21334C13.6798 9.25458 13.9359 9.30554 14.1902 9.36624C14.4959 9.43979 14.7999 9.52053 15.0975 9.62575C15.3361 9.71001 15.5722 9.8016 15.8008 9.91371C15.9092 9.96689 16.0198 10.0158 16.1188 10.0878C16.1561 10.1149 16.186 10.151 16.2144 10.1885C16.2819 10.2777 16.2648 10.3813 16.2585 10.4828C16.2566 10.5145 16.2424 10.544 16.2399 10.5759C16.1815 10.6703 16.1317 10.7703 16.0911 10.8747C16.0828 10.8964 16.0717 10.9045 16.0484 10.8961C16.0109 10.8826 15.9718 10.8733 15.9332 10.8621Z" fill="#EDAE50"/>
<path d="M16.2407 10.576C16.2277 10.5495 16.2298 10.5208 16.2346 10.4936C16.2448 10.4362 16.2412 10.3786 16.2412 10.321C16.2412 10.2645 16.2118 10.2207 16.1797 10.1805C16.1393 10.1302 16.0898 10.0891 16.0342 10.0596C15.774 9.91894 15.5046 9.80187 15.2289 9.70022C15.0297 9.62667 14.8287 9.55956 14.6245 9.50395C14.3663 9.43367 14.1072 9.36884 13.845 9.31561C13.6943 9.28508 13.5425 9.26218 13.3917 9.2324C13.3826 9.23061 13.3731 9.23027 13.364 9.22922C13.364 9.19288 13.364 9.15663 13.364 9.12048C13.4566 9.12985 13.5478 9.14943 13.6392 9.16692C13.7581 9.18966 13.8768 9.21381 13.9953 9.23938C14.1196 9.2665 14.2441 9.29281 14.3671 9.32756C14.4613 9.35412 14.5566 9.37672 14.6511 9.40289C14.8822 9.46693 15.1105 9.5405 15.336 9.6236C15.5192 9.6911 15.6964 9.77476 15.8745 9.85565C16.044 9.93294 16.2084 10.0224 16.3665 10.1233C16.4129 10.1528 16.4555 10.189 16.4993 10.223C16.5148 10.235 16.5288 10.2495 16.512 10.2719C16.4529 10.3276 16.3919 10.381 16.3395 10.4445C16.3046 10.4868 16.2738 10.5321 16.2407 10.576Z" fill="#FCD38C"/>
<path d="M12.5902 9.02152L12.5905 9.13021C12.2803 9.1031 11.7019 9.1031 11.41 9.1206C11.3878 9.11946 11.3657 9.11702 11.3437 9.11331C11.3274 9.1094 11.3023 9.08705 11.3027 9.07307C11.3035 9.0474 11.3174 9.035 11.3354 9.02549C11.3579 9.01349 11.3879 9.01126 11.4132 9.01126C11.6925 9.01126 11.9719 9.0068 12.2511 9.01394C12.364 9.01682 12.4772 9.0186 12.5902 9.02152Z" fill="#FCD38C"/>
<path d="M17.3781 10.3398C17.3796 10.4464 17.3595 10.5445 17.3308 10.6409C17.2801 10.8114 17.1976 10.9635 17.0925 11.1024C17.0712 11.1306 17.0701 11.1307 17.0479 11.1028C16.9457 10.9751 16.864 10.8335 16.7939 10.6837C16.7413 10.5712 16.6982 10.4546 16.6596 10.3361C16.6477 10.2993 16.6491 10.2928 16.6837 10.2739C16.8046 10.2079 16.9313 10.161 17.0665 10.1405C17.1281 10.1311 17.1902 10.1313 17.2518 10.1232C17.258 10.1227 17.2642 10.1225 17.2704 10.1228C17.329 10.124 17.3382 10.1319 17.3602 10.1887C17.3797 10.2392 17.3793 10.2917 17.3781 10.3398Z" fill="#FEFEFE"/>
<path d="M13.3573 8.16513C13.3573 8.4802 13.3607 9.17126 13.368 9.3651C13.3507 9.38849 13.3282 9.37996 13.308 9.37382C13.0895 9.30597 12.8696 9.31603 12.649 9.35895C12.6304 9.36252 12.6123 9.36743 12.5966 9.35122L12.5954 9.3528C12.5852 9.33794 12.5954 7.79832 12.5941 7.69974C12.5935 7.65741 12.6002 7.61905 12.62 7.58188C12.6443 7.53618 12.6655 7.48865 12.6881 7.44186C12.6912 7.43846 12.6954 7.43635 12.6999 7.43591C12.9542 7.55144 13.1643 7.68551 13.3558 7.89382C13.353 7.96911 13.3558 8.06987 13.3573 8.16513Z" fill="#414141"/>
<path d="M12.7009 7.4179H12.6971L12.6934 7.41716C12.7117 7.37052 12.7128 7.32165 12.7126 7.27199C12.712 7.1237 12.7143 6.97536 12.713 6.82711C12.7125 6.77304 12.7278 6.72923 12.7596 6.68695C12.9161 6.47831 13.0863 6.2816 13.2687 6.09824C13.3846 5.98167 13.5077 5.87338 13.6429 5.78198C13.6686 5.78852 13.6576 5.80632 13.6518 5.82C13.5689 6.01448 13.5806 6.21843 13.6067 6.42085C13.6181 6.51006 13.6414 6.602 13.7111 6.66752C13.7161 6.67166 13.7194 6.67761 13.7205 6.68423C13.7215 6.69084 13.7202 6.69763 13.7168 6.70326C13.5593 6.78112 13.4356 6.90205 13.3312 7.04722C13.3158 7.06863 13.3044 7.09128 13.3082 7.11953C13.3013 7.29623 13.3028 7.47277 13.3086 7.7635C13.3083 7.76663 13.3079 7.76974 13.3074 7.77282C13.2841 7.78962 13.2689 7.77064 13.2545 7.75766C13.1923 7.70135 13.1319 7.64292 13.0648 7.59271C12.9915 7.53775 12.9164 7.48645 12.8351 7.44561C12.7923 7.4242 12.7488 7.40972 12.7009 7.4179Z" fill="#A19D98"/>
<path d="M13.7442 5.76025C13.7756 5.77696 13.7917 5.80486 13.7996 5.84069C13.8199 5.93181 13.8333 6.02451 13.8397 6.1179C13.8506 6.27759 13.8289 6.43213 13.7913 6.58543C13.7835 6.61734 13.7745 6.64882 13.7546 6.67518C13.7348 6.67875 13.7287 6.66349 13.7207 6.64887C13.6281 6.47976 13.6113 6.29524 13.6228 6.10516C13.6243 6.07909 13.6283 6.05302 13.6299 6.02675C13.6351 5.92579 13.676 5.83063 13.7442 5.76025Z" fill="#A19D98"/>
<path d="M13.4588 9.38425C13.5071 9.4068 13.5308 9.43991 13.5327 9.50137C13.5425 9.81114 13.5399 10.1209 13.5406 10.4306C13.5406 10.4504 13.5426 10.533 13.5424 10.556C13.5417 10.6845 13.5396 10.813 13.5413 10.9415C13.5419 10.9867 13.5243 11.0125 13.4875 11.0288C13.1807 11.1181 12.7823 11.1136 12.5029 11.0189C12.4399 10.9986 12.4232 10.9736 12.4227 10.9044C12.422 10.8138 12.4227 10.7232 12.4227 10.6325C12.4227 10.5947 12.4233 10.5568 12.4227 10.5188C12.422 10.4809 12.432 9.89351 12.432 9.87542C12.432 9.73699 12.433 9.59851 12.4316 9.46008C12.4312 9.41657 12.4463 9.3904 12.4845 9.37221C12.9282 9.22312 13.1611 9.26649 13.4588 9.38425Z" fill="#A19D98"/>
<path d="M12.5148 10.1999V9.53177C12.5148 9.52022 12.5145 9.50867 12.5148 9.49707C12.5158 9.45118 12.5195 9.44503 12.561 9.42892C12.717 9.36524 13.1732 9.30502 13.4167 9.47591C13.4551 9.49742 13.4613 9.51938 13.4629 9.57137C13.4692 9.68839 13.4583 10.5577 13.4587 10.8925C13.4587 10.8992 13.4587 10.9057 13.4587 10.9123C13.4575 10.9601 13.4545 10.9624 13.4089 10.9724C13.1249 11.0352 12.8425 11.0269 12.5613 10.9526C12.5196 10.9416 12.5174 10.9405 12.5174 10.8926C12.517 10.7391 12.517 10.5857 12.5174 10.4323C12.5174 10.3547 12.5174 10.2772 12.5174 10.1996L12.5148 10.1999Z" fill="#45423D"/>
<path d="M12.6904 7.42728C12.6958 7.3849 12.7201 7.38049 12.767 7.39218C12.8233 7.41001 12.8772 7.43562 12.9273 7.46836C13.0388 7.53914 13.1456 7.61705 13.2393 7.7137C13.2602 7.73531 13.2845 7.75335 13.3072 7.77283C13.3104 7.78707 13.3176 7.79992 13.3279 7.80965C13.3575 7.83795 13.3615 7.87067 13.3555 7.91195C13.3063 7.90452 13.2787 7.87329 13.2475 7.83671C13.1629 7.73759 13.064 7.65735 12.9592 7.58429C12.8946 7.53929 12.7957 7.49012 12.724 7.45969C12.6994 7.44928 12.6875 7.44993 12.6904 7.42728Z" fill="#DCF9FB"/>
<path d="M13.7446 5.76024C13.7612 5.76986 13.7718 5.77427 13.7292 5.81441C13.6752 5.86586 13.6395 5.99557 13.6431 6.20829C13.6466 6.3493 13.6484 6.47484 13.755 6.67517C13.746 6.69004 13.7342 6.701 13.7169 6.70323C13.5363 6.51444 13.5538 5.93351 13.643 5.78195C13.6799 5.74126 13.7015 5.73665 13.7446 5.76024Z" fill="#DCF9FB"/>
</g>
<path d="M18.5 16H12.5C11.1193 16 10 17.1193 10 18.5C10 19.8807 11.1193 21 12.5 21H18.5C19.8807 21 21 19.8807 21 18.5C21 17.1193 19.8807 16 18.5 16Z" fill="#FF9400"/>
<mask id="mask1_414_132862" style="mask-type:luminance" maskUnits="userSpaceOnUse" x="11" y="17" width="3" height="3">
<path d="M13.332 17.7595H11.8511V19.2404H13.332V17.7595Z" fill="white"/>
</mask>
<g mask="url(#mask1_414_132862)">
<path d="M12.5915 19.0553C12.8982 19.0553 13.1468 18.8067 13.1468 18.5C13.1468 18.1933 12.8982 17.9447 12.5915 17.9447C12.2848 17.9447 12.0362 18.1933 12.0362 18.5C12.0362 18.8067 12.2848 19.0553 12.5915 19.0553Z" fill="#27AE60"/>
</g>
<path d="M15.0894 19.5V17.6152H15.3738V19.2552H16.2279V19.5H15.0894ZM16.5523 19.5V17.6152H17.2241C17.3707 17.6152 17.4922 17.6419 17.5885 17.6953C17.6848 17.7487 17.7569 17.8217 17.8048 17.9143C17.8526 18.0063 17.8766 18.11 17.8766 18.2254C17.8766 18.3413 17.8523 18.4456 17.8039 18.5383C17.756 18.6303 17.6836 18.7033 17.5867 18.7573C17.4904 18.8107 17.3692 18.8374 17.2232 18.8374H16.7612V18.5963H17.1974C17.29 18.5963 17.3652 18.5803 17.4229 18.5484C17.4805 18.5159 17.5229 18.4717 17.5499 18.4159C17.5769 18.36 17.5904 18.2965 17.5904 18.2254C17.5904 18.1542 17.5769 18.091 17.5499 18.0358C17.5229 17.9806 17.4802 17.9373 17.4219 17.906C17.3643 17.8747 17.2882 17.8591 17.1937 17.8591H16.8366V19.5H16.5523Z" fill="white"/>
</g>
<defs>
<clipPath id="clip0_414_132862">
<rect width="21" height="21" fill="white"/>
</clipPath>
</defs>
</svg>
