<svg width="15" height="15" viewBox="0 0 15 15" fill="none" xmlns="http://www.w3.org/2000/svg">
<path d="M9.64014 7.75C9.14795 7.75 8.76514 8.16016 8.76514 8.625C8.76514 9.11719 9.14795 9.5 9.64014 9.5H12.2651C13.7144 9.5 14.8901 10.6758 14.8901 12.125C14.8901 13.5742 13.7144 14.75 12.2651 14.75H4.69092C4.93701 14.5039 5.21045 14.1484 5.51123 13.7656C5.67529 13.5195 5.8667 13.2734 6.03076 13H12.2651C12.73 13 13.1401 12.6172 13.1401 12.125C13.1401 11.6602 12.73 11.25 12.2651 11.25H9.64014C8.16357 11.25 6.98779 10.0742 6.98779 8.625C6.98779 7.17578 8.16357 6 9.64014 6H10.7886C10.187 5.17969 9.64014 4.19531 9.64014 3.375C9.64014 1.92578 10.7886 0.75 12.2651 0.75C13.7144 0.75 14.8901 1.92578 14.8901 3.375C14.8901 5.125 12.2651 7.75 12.2651 7.75H9.64014ZM12.2651 4.25C12.73 4.25 13.1401 3.86719 13.1401 3.375C13.1401 2.91016 12.73 2.5 12.2651 2.5C11.7729 2.5 11.3901 2.91016 11.3901 3.375C11.3901 3.86719 11.7729 4.25 12.2651 4.25ZM4.1167 14.0938L4.08936 14.1211C3.97998 14.2578 3.87061 14.3672 3.78857 14.4766C3.76123 14.4766 3.76123 14.4766 3.76123 14.5039C3.59717 14.668 3.51514 14.75 3.51514 14.75C3.51514 14.75 0.890137 12.125 0.890137 10.375C0.890137 8.92578 2.03857 7.75 3.51514 7.75C4.96436 7.75 6.14014 8.92578 6.14014 10.375C6.14014 11.1953 5.56592 12.1797 4.96436 13C4.66357 13.4375 4.36279 13.793 4.1167 14.0938ZM3.48779 11.25C3.97998 11.25 4.36279 10.8672 4.36279 10.375C4.36279 9.91016 3.97998 9.5 3.48779 9.5C3.02295 9.5 2.61279 9.91016 2.61279 10.375C2.61279 10.8672 3.02295 11.25 3.48779 11.25Z" fill="#1F2937"/>
</svg>
