<svg width="16" height="16" viewBox="0 0 16 16" fill="none" xmlns="http://www.w3.org/2000/svg">
<path d="M5.75 0.5C2.86016 0.5 0.5 2.86016 0.5 5.75C0.5 8.63984 2.86016 11 5.75 11C7.06016 11 8.25781 10.5102 9.18125 9.71094L9.5 10.0297V11L14 15.5L15.5 14L11 9.5H10.0297L9.71094 9.18125C10.5102 8.25781 11 7.06016 11 5.75C11 2.86016 8.63984 0.5 5.75 0.5ZM5.75 2C7.82891 2 9.5 3.67109 9.5 5.75C9.5 7.82891 7.82891 9.5 5.75 9.5C3.67109 9.5 2 7.82891 2 5.75C2 3.67109 3.67109 2 5.75 2Z" fill="#888E8F"/>
</svg>
