<svg width="25" height="25" viewBox="0 0 25 25" fill="none" xmlns="http://www.w3.org/2000/svg">
<g clip-path="url(#clip0_1028_249141)">
<path d="M24.0407 12.2892C24.0407 18.7551 18.84 23.9559 12.374 23.9559C5.90808 23.9559 0.707357 18.7551 0.707357 12.2892C0.707357 5.82324 5.90808 0.622518 12.374 0.622518C18.84 0.622518 24.0407 5.82324 24.0407 12.2892Z" fill="#F9FAFC" stroke="#1F2937" stroke-width="0.666667"/>
<path d="M15.7072 14.2919C15.7072 12.646 14.6624 12.0817 12.5728 11.8466C11.0803 11.6585 10.7818 11.2823 10.7818 10.6238C10.7818 9.96541 11.2793 9.54228 12.2743 9.54228C13.1699 9.54228 13.6674 9.82444 13.9161 10.5298C13.9659 10.6709 14.1152 10.7649 14.2644 10.7649H15.0604C15.2594 10.7649 15.4087 10.6238 15.4087 10.4358V10.3888C15.2096 9.35414 14.3141 8.55474 13.1699 8.46072V7.33209C13.1699 7.14395 13.0206 7.00287 12.7719 6.95581H12.0256C11.8266 6.95581 11.6773 7.09689 11.6275 7.33209V8.41366C10.135 8.6018 9.18978 9.54228 9.18978 10.718C9.18978 12.2698 10.1848 12.8811 12.2743 13.1163C13.6674 13.3514 14.1152 13.6336 14.1152 14.386C14.1152 15.1385 13.4186 15.6557 12.4734 15.6557C11.1798 15.6557 10.732 15.1384 10.5827 14.433C10.5331 14.2449 10.3838 14.1508 10.2346 14.1508H9.38871C9.18978 14.1508 9.04053 14.2919 9.04053 14.48V14.5271C9.23945 15.7027 10.0355 16.5491 11.6773 16.7843V17.913C11.6773 18.101 11.8266 18.2421 12.0753 18.2891H12.8216C13.0206 18.2891 13.1699 18.1481 13.2197 17.913V16.7843C14.7122 16.5491 15.7072 15.5616 15.7072 14.2919V14.2919Z" fill="#1F2937"/>
<path d="M9.92527 18.7632C6.17988 17.4684 4.25912 13.4453 5.65172 9.88451C6.37199 7.94231 7.95658 6.46257 9.92527 5.76892C10.1174 5.67647 10.2134 5.53775 10.2134 5.30646V4.65909C10.2134 4.47408 10.1174 4.33535 9.92527 4.28918C9.87722 4.28918 9.78122 4.28918 9.73316 4.33535C5.1715 5.72264 2.67453 10.3933 4.11507 14.7863C4.97939 17.3759 7.0442 19.3644 9.73316 20.1967C9.92527 20.2892 10.1174 20.1967 10.1653 20.0117C10.2134 19.9656 10.2134 19.9193 10.2134 19.8268V19.1794C10.2134 19.0406 10.0693 18.8557 9.92527 18.7632ZM15.0152 4.33535C14.8231 4.2429 14.631 4.33535 14.583 4.52036C14.535 4.56664 14.535 4.61281 14.535 4.70537V5.35274C14.535 5.53775 14.679 5.72264 14.8231 5.8152C18.5685 7.10993 20.4893 11.1331 19.0967 14.6939C18.3764 16.6361 16.7918 18.1158 14.8231 18.8094C14.631 18.9019 14.535 19.0406 14.535 19.2719V19.9193C14.535 20.1043 14.631 20.243 14.8231 20.2892C14.8712 20.2892 14.9672 20.2892 15.0152 20.243C19.5769 18.8557 22.0738 14.1851 20.6333 9.79206C19.769 7.15621 17.6561 5.16773 15.0152 4.33535V4.33535Z" fill="white"/>
</g>
<defs>
<clipPath id="clip0_1028_249141">
<rect x="0.374023" y="0.289185" width="24" height="24" fill="white"/>
</clipPath>
</defs>
</svg>
