<svg width="22" height="23" viewBox="0 0 22 23" fill="none" xmlns="http://www.w3.org/2000/svg">
<path d="M11 14.3432C12.6569 14.3432 14 13 14 11.3432C14 9.68632 12.6569 8.34317 11 8.34317C9.34315 8.34317 8 9.68632 8 11.3432C8 13 9.34315 14.3432 11 14.3432Z" stroke="#4D5869" stroke-width="2" stroke-linecap="round" stroke-linejoin="round"/>
<path d="M17.7273 14.0704C17.6063 14.3446 17.5702 14.6488 17.6236 14.9437C17.6771 15.2386 17.8177 15.5107 18.0273 15.725L18.0818 15.7795C18.2509 15.9484 18.385 16.1489 18.4765 16.3696C18.568 16.5904 18.6151 16.827 18.6151 17.0659C18.6151 17.3048 18.568 17.5414 18.4765 17.7622C18.385 17.9829 18.2509 18.1834 18.0818 18.3523C17.913 18.5213 17.7124 18.6554 17.4917 18.7469C17.271 18.8384 17.0344 18.8855 16.7955 18.8855C16.5565 18.8855 16.3199 18.8384 16.0992 18.7469C15.8785 18.6554 15.678 18.5213 15.5091 18.3523L15.4545 18.2977C15.2403 18.0881 14.9682 17.9475 14.6733 17.8941C14.3784 17.8406 14.0742 17.8767 13.8 17.9977C13.5311 18.113 13.3018 18.3043 13.1403 18.5482C12.9788 18.7921 12.8921 19.0779 12.8909 19.3704V19.525C12.8909 20.0072 12.6994 20.4697 12.3584 20.8106C12.0174 21.1516 11.5549 21.3432 11.0727 21.3432C10.5905 21.3432 10.1281 21.1516 9.78708 20.8106C9.4461 20.4697 9.25455 20.0072 9.25455 19.525V19.4432C9.24751 19.1423 9.15011 18.8504 8.97501 18.6056C8.79991 18.3608 8.55521 18.1743 8.27273 18.0704C7.99853 17.9494 7.69437 17.9133 7.39947 17.9668C7.10456 18.0203 6.83244 18.1609 6.61818 18.3704L6.56364 18.425C6.39478 18.594 6.19425 18.7281 5.97353 18.8196C5.7528 18.9111 5.51621 18.9582 5.27727 18.9582C5.03834 18.9582 4.80174 18.9111 4.58102 18.8196C4.36029 18.7281 4.15977 18.594 3.99091 18.425C3.82186 18.2561 3.68775 18.0556 3.59626 17.8349C3.50476 17.6142 3.45766 17.3776 3.45766 17.1386C3.45766 16.8997 3.50476 16.6631 3.59626 16.4424C3.68775 16.2216 3.82186 16.0211 3.99091 15.8523L4.04545 15.7977C4.25503 15.5835 4.39562 15.3113 4.4491 15.0164C4.50257 14.7215 4.46647 14.4174 4.34545 14.1432C4.23022 13.8743 4.03887 13.645 3.79497 13.4834C3.55107 13.3219 3.26526 13.2352 2.97273 13.2341H2.81818C2.33597 13.2341 1.87351 13.0425 1.53253 12.7015C1.19156 12.3606 1 11.8981 1 11.4159C1 10.9337 1.19156 10.4712 1.53253 10.1302C1.87351 9.78927 2.33597 9.59772 2.81818 9.59772H2.9C3.2009 9.59068 3.49273 9.49328 3.73754 9.31818C3.98236 9.14308 4.16883 8.89838 4.27273 8.6159C4.39374 8.3417 4.42984 8.03754 4.37637 7.74264C4.3229 7.44773 4.18231 7.17561 3.97273 6.96135L3.91818 6.90681C3.74913 6.73795 3.61503 6.53742 3.52353 6.3167C3.43203 6.09597 3.38493 5.85938 3.38493 5.62044C3.38493 5.38151 3.43203 5.14491 3.52353 4.92419C3.61503 4.70346 3.74913 4.50294 3.91818 4.33408C4.08704 4.16503 4.28757 4.03092 4.50829 3.93943C4.72901 3.84793 4.96561 3.80083 5.20455 3.80083C5.44348 3.80083 5.68008 3.84793 5.9008 3.93943C6.12152 4.03092 6.32205 4.16503 6.49091 4.33408L6.54545 4.38862C6.75971 4.5982 7.03183 4.73879 7.32674 4.79227C7.62164 4.84574 7.9258 4.80964 8.2 4.68862H8.27273C8.54161 4.57339 8.77093 4.38204 8.93245 4.13814C9.09397 3.89424 9.18065 3.60843 9.18182 3.3159V3.16135C9.18182 2.67914 9.37338 2.21668 9.71435 1.8757C10.0553 1.53473 10.5178 1.34317 11 1.34317C11.4822 1.34317 11.9447 1.53473 12.2856 1.8757C12.6266 2.21668 12.8182 2.67914 12.8182 3.16135V3.24317C12.8193 3.5357 12.906 3.82151 13.0676 4.06541C13.2291 4.30931 13.4584 4.50066 13.7273 4.6159C14.0015 4.73691 14.3056 4.77301 14.6005 4.71954C14.8954 4.66607 15.1676 4.52548 15.3818 4.3159L15.4364 4.26135C15.6052 4.0923 15.8057 3.9582 16.0265 3.8667C16.2472 3.7752 16.4838 3.7281 16.7227 3.7281C16.9617 3.7281 17.1983 3.7752 17.419 3.8667C17.6397 3.9582 17.8402 4.0923 18.0091 4.26135C18.1781 4.43021 18.3122 4.63074 18.4037 4.85146C18.4952 5.07218 18.5423 5.30878 18.5423 5.54772C18.5423 5.78665 18.4952 6.02325 18.4037 6.24397C18.3122 6.46469 18.1781 6.66522 18.0091 6.83408L17.9545 6.88862C17.745 7.10288 17.6044 7.375 17.5509 7.66991C17.4974 7.96481 17.5335 8.26897 17.6545 8.54317V8.6159C17.7698 8.88478 17.9611 9.1141 18.205 9.27562C18.4489 9.43714 18.7347 9.52382 19.0273 9.52499H19.1818C19.664 9.52499 20.1265 9.71655 20.4675 10.0575C20.8084 10.3985 21 10.861 21 11.3432C21 11.8254 20.8084 12.2878 20.4675 12.6288C20.1265 12.9698 19.664 13.1614 19.1818 13.1614H19.1C18.8075 13.1625 18.5217 13.2492 18.2778 13.4107C18.0339 13.5722 17.8425 13.8016 17.7273 14.0704Z" stroke="#4D5869" stroke-width="2" stroke-linecap="round" stroke-linejoin="round"/>
</svg>
