<svg width="36" height="36" viewBox="0 0 36 36" fill="none" xmlns="http://www.w3.org/2000/svg">
<g clip-path="url(#clip0_1144_296468)">
<path d="M34.4391 17.7093C34.4391 27.1016 26.8848 34.6559 17.4925 34.6559C8.10027 34.6559 0.545898 27.1016 0.545898 17.7093C0.545898 8.31706 8.10027 0.762695 17.4925 0.762695C26.8848 0.762695 34.4391 8.31706 34.4391 17.7093Z" fill="white" stroke="#F6F6F6"/>
<g clip-path="url(#clip1_1144_296468)">
<path d="M27.3253 19.7097C27.3985 19.7683 27.4467 19.819 27.5188 19.8791C27.5624 19.9155 27.5627 19.9155 27.6056 19.8758C27.6354 19.8481 27.6643 19.819 27.6949 19.7919C27.8181 19.6811 27.9839 19.6865 28.0986 19.8071C28.1443 19.8554 28.1873 19.9065 28.2275 19.9601C28.3267 20.0914 28.3168 20.2632 28.2049 20.3828C28.1734 20.4163 28.14 20.448 28.106 20.4787C28.0778 20.5041 28.0768 20.5288 28.0969 20.5607C28.1383 20.6264 28.1784 20.693 28.2173 20.7603C28.2666 20.8456 28.3105 20.9344 28.3522 21.0241C28.3918 21.1095 28.3918 21.1089 28.474 21.0814C28.5138 21.0668 28.5544 21.0547 28.5955 21.0451C28.7294 21.0177 28.8563 21.0865 28.9135 21.2192C28.9481 21.301 28.974 21.3866 28.9907 21.4746C29.0153 21.5999 28.9433 21.739 28.8282 21.8007C28.7836 21.8244 28.7346 21.8348 28.688 21.8525C28.6316 21.8741 28.6267 21.8783 28.6359 21.9369C28.6657 22.1215 28.6867 22.307 28.688 22.4946C28.6884 22.5355 28.7029 22.5588 28.7432 22.5624C28.7778 22.5654 28.812 22.5722 28.8464 22.576C28.9835 22.5911 29.0767 22.6637 29.1173 22.8068C29.1208 22.8192 29.1298 23.0772 29.1179 23.1471C29.0915 23.3015 28.9784 23.4115 28.8297 23.4177C28.7976 23.4193 28.7654 23.4171 28.7338 23.4113C28.6752 23.3999 28.6363 23.4261 28.6222 23.4863C28.5873 23.6343 28.5403 23.778 28.49 23.9206C28.4751 23.9618 28.4836 23.998 28.5159 24.027C28.5328 24.0422 28.5978 24.1165 28.6083 24.1413C28.6324 24.1981 28.5281 24.1097 28.5041 24.0949C28.4489 24.0612 27.7735 23.6647 27.522 23.5224C27.54 23.381 27.6049 23.2002 27.6311 23.0607C27.7645 22.3506 27.6265 21.7027 27.2406 21.1112C26.9195 20.6193 26.4799 20.3046 25.9401 20.1486C25.465 20.0111 24.9941 20.0391 24.5321 20.2185C24.1498 20.3669 23.7313 20.6103 23.5017 20.9935C23.4754 21.0247 23.463 21.0211 23.4214 21.0014C23.2777 20.9252 22.7145 20.5353 22.4856 20.3936C22.3841 20.2853 22.317 20.1081 22.3932 19.9772C22.4476 19.8839 22.5206 19.8083 22.599 19.7403C22.7092 19.6449 22.869 19.6476 22.9859 19.7373C23.1311 19.8486 23.131 19.8481 23.272 19.7285C23.3456 19.666 23.4241 19.6106 23.5014 19.5535C23.5734 19.5004 23.5787 19.4791 23.5449 19.3958C23.453 19.1688 23.512 18.9963 23.7193 18.8841C23.7741 18.8531 23.8314 18.8273 23.8905 18.807C24.0487 18.7557 24.1946 18.8158 24.2806 18.9658C24.3704 19.1221 24.3699 19.1219 24.5388 19.0806C24.6281 19.0587 24.7187 19.0432 24.8088 19.0257C24.8989 19.0082 24.9126 18.9931 24.9177 18.8983C24.9198 18.8509 24.9265 18.8038 24.9379 18.7579C24.9617 18.6663 25.0048 18.5859 25.0941 18.5498C25.2644 18.4808 25.4364 18.4676 25.6035 18.5583C25.7021 18.6118 25.748 18.7037 25.7493 18.8229C25.7512 19.0015 25.7524 19.003 25.9164 19.0313C26.0242 19.0499 26.1299 19.0776 26.2359 19.1042C26.3163 19.1244 26.3371 19.1164 26.3685 19.034C26.4478 18.8254 26.645 18.7189 26.8777 18.8404C26.9437 18.8749 27.0129 18.9001 27.0706 18.9556C27.1869 19.0677 27.195 19.2332 27.1472 19.3539C27.1404 19.3709 27.1323 19.3871 27.1257 19.4042C27.0939 19.488 27.0904 19.5371 27.0904 19.5371C27.0904 19.5371 27.2532 19.6518 27.3253 19.7097Z" fill="#5F5F5F"/>
<path d="M27.4843 23.4536C27.5519 23.5225 28.4556 24.048 28.5334 24.0976C28.5566 24.1008 28.5745 24.1171 28.5954 24.1261L28.5943 24.1253C28.6104 24.1408 28.6258 24.1571 28.6404 24.1743L28.6396 24.1731C28.7111 24.2797 28.7107 24.3932 28.6693 24.5108C28.643 24.5733 28.6114 24.6331 28.5749 24.6895C28.4899 24.8257 28.3329 24.8684 28.1949 24.7945C28.1529 24.772 28.1122 24.747 28.0723 24.7201C28.0434 24.7009 28.0234 24.706 28.0031 24.7346C27.8925 24.8901 27.7696 25.0352 27.6357 25.1684C27.6087 25.1952 27.6055 25.2186 27.6283 25.2496C27.6544 25.2847 27.6787 25.3213 27.7021 25.3584C27.7975 25.5088 27.7719 25.6823 27.637 25.7937C27.59 25.8324 27.5421 25.87 27.4923 25.9045C27.3584 25.9969 27.2014 25.9709 27.0994 25.8401C27.0712 25.8034 27.0448 25.7651 27.0202 25.7256C26.9985 25.6909 26.9767 25.683 26.9403 25.7051C26.7872 25.7977 26.6255 25.8709 26.4604 25.9356C26.4004 25.9593 26.4009 25.9602 26.4127 26.0269C26.4168 26.0502 26.4201 26.0737 26.4243 26.0969C26.4627 26.2925 26.4189 26.3985 26.258 26.4988C26.2164 26.5234 26.1687 26.5196 26.124 26.5321C26.0464 26.5518 25.9678 26.5503 25.8886 26.5461H25.8883C25.8624 26.5325 25.8369 26.5178 25.8115 26.503C25.7354 26.4355 25.7014 26.3466 25.6817 26.2447C25.6549 26.1067 25.6712 26.1291 25.5517 26.135C25.3932 26.1429 25.2346 26.1422 25.0762 26.1329C25.0148 26.1292 25.0146 26.129 25.0005 26.1896C24.9939 26.2177 24.9865 26.2457 24.9825 26.2744C24.9568 26.4551 24.8198 26.5909 24.6015 26.5467C24.5481 26.5358 24.4952 26.5211 24.443 26.5048C24.2937 26.4581 24.2074 26.3051 24.2373 26.1425C24.2448 26.1011 24.2538 26.0601 24.2614 26.0187C24.2717 25.9624 24.271 25.9595 24.2179 25.9383C24.1158 25.8975 24.0142 25.8558 23.916 25.8055C23.8579 25.7757 23.8006 25.7446 23.7433 25.7132C23.6838 25.6807 23.6842 25.6802 23.6426 25.7395C23.6203 25.7711 23.5995 25.8039 23.5763 25.8344C23.4745 25.9701 23.314 25.9986 23.1783 25.9037C23.1266 25.8675 23.0762 25.8288 23.0277 25.788C22.9039 25.6835 22.8773 25.512 22.9623 25.3704C22.9876 25.3283 23.0158 25.288 23.0442 25.2482C23.0639 25.2206 23.0652 25.1985 23.0398 25.1731C22.9041 25.038 22.7797 24.8907 22.6678 24.7328C22.6466 24.7028 22.6257 24.7029 22.5981 24.7213C22.5646 24.7437 22.5298 24.7642 22.495 24.7846C22.3388 24.875 22.176 24.8304 22.0842 24.6678C22.0514 24.6095 22.0112 24.5561 21.9887 24.4907C21.9327 24.3289 21.9799 24.1789 22.1196 24.0887C22.1494 24.0696 22.1798 24.0518 22.2089 24.0326C22.2605 23.999 22.2618 23.9981 22.2391 23.9394C22.1918 23.8177 22.1512 23.6932 22.1173 23.5665C22.1024 23.5111 22.0883 23.4547 22.076 23.3984C22.067 23.3572 22.0468 23.3413 22.007 23.3502C21.9753 23.3564 21.9433 23.3609 21.9112 23.3636C21.7222 23.3848 21.5821 23.2645 21.5624 23.064C21.557 23.0086 21.5512 22.9539 21.5475 22.8988C21.5425 22.8189 21.5664 22.7401 21.6144 22.6785C21.6624 22.6169 21.7308 22.5773 21.8055 22.5678C21.8472 22.5623 21.8893 22.5589 21.9308 22.552C21.985 22.5425 21.9867 22.5413 21.9876 22.4811C21.99 22.3495 21.9995 22.218 22.0158 22.0875C22.0227 22.0301 22.0408 21.9743 22.0368 21.9155C22.0327 21.8753 22.0167 21.8504 21.9863 21.8378C21.9655 21.8314 21.9606 21.8286 21.9295 21.8204C21.8684 21.8046 21.8129 21.7764 21.7686 21.7288" fill="#414141"/>
<path d="M22.0398 21.9511C22.0468 21.9108 22.0305 21.8502 21.9916 21.8386C21.9582 21.8286 21.9047 21.8073 21.8716 21.7967C21.7396 21.7544 21.6569 21.6437 21.6424 21.495C21.6257 21.4317 21.6781 21.2269 21.7019 21.1605C21.7552 21.0141 21.8858 20.9288 22.0329 20.9525C22.0647 20.9574 22.0959 20.966 22.1259 20.9781C22.1815 21.0011 22.2243 20.983 22.2489 20.9268C22.3094 20.7885 22.4 20.6514 22.4583 20.5122C22.5147 20.3777 22.4748 20.3888 22.4945 20.3935C22.5427 20.4377 23.2463 20.8016 23.4681 20.9918C23.3236 21.158 23.0026 21.9106 22.9893 22.1624" fill="#414141"/>
<path d="M23.4761 20.9797C23.9253 20.4633 24.2467 20.2416 24.6901 20.1076C24.9599 20.0254 25.2414 19.9956 25.5211 20.0195C25.9919 20.0597 26.417 20.2346 26.7914 20.5436C27.1215 20.8162 27.3619 21.1616 27.5259 21.5689C27.6262 21.818 27.6792 22.0784 27.704 22.3483C27.7395 22.7347 27.6617 23.1665 27.537 23.5268C27.5117 23.5505 27.0524 23.2161 27.0032 23.1509C26.992 23.1158 27.0059 23.0836 27.0143 23.051C27.0594 22.875 27.0887 22.6962 27.0835 22.5133C27.0588 21.6343 26.4957 20.9093 25.717 20.7322C25.1423 20.6014 24.5329 20.7334 23.9751 21.3363C23.961 21.3447 23.9567 21.3266 23.8619 21.2572C23.7029 21.1543 23.6247 21.0898 23.516 21.0198C23.4538 20.9812 23.4569 21.002 23.4761 20.9797Z" fill="#414141"/>
<path d="M27.5462 23.5021C27.5312 23.5274 27.5177 23.5537 27.5057 23.5807C27.3687 23.9319 27.1493 24.2201 26.8821 24.4642C26.5324 24.7839 26.1268 24.9832 25.6663 25.0473C25.5535 25.0631 25.4404 25.0803 25.3264 25.0765C24.9967 25.0653 24.678 25.0007 24.3735 24.8597C24.1804 24.7697 23.9996 24.6523 23.8361 24.5107C23.5816 24.2917 23.3748 24.0286 23.223 23.7168C23.0835 23.4295 23.0032 23.1257 22.9691 22.8055C22.9393 22.5299 22.9627 22.2594 23.0169 21.9896C23.079 21.6819 23.1948 21.3982 23.3564 21.1354C23.3794 21.0981 23.4462 21.0132 23.468 20.9919C23.5854 21.0568 23.9059 21.2819 23.9573 21.3308C23.9897 21.3758 23.9299 21.4351 23.9113 21.464C23.8128 21.6171 23.7317 21.7788 23.6795 21.9565C23.4977 22.5754 23.581 23.1515 23.9474 23.6694C24.253 24.1015 24.6687 24.3383 25.177 24.3926C25.901 24.4699 26.6442 24.0327 26.95 23.2609C26.9669 23.2184 26.9626 23.1511 27.0314 23.1478C27.0756 23.2017 27.4943 23.4718 27.5462 23.5021Z" fill="#5F5F5F"/>
<path d="M27.0312 23.1476C26.9736 23.3049 26.9091 23.4582 26.8187 23.5981C26.5324 24.0413 26.1417 24.3163 25.6441 24.411C25.1402 24.5069 24.6789 24.3872 24.2688 24.0648C23.908 23.7811 23.6779 23.3994 23.589 22.932C23.484 22.3796 23.5942 21.8712 23.9018 21.4117C23.9133 21.3945 23.9241 21.3772 23.9357 21.3599C23.9473 21.3452 24.1002 21.1657 24.1746 21.0994C24.5043 20.8056 24.8814 20.655 25.3126 20.6463C26.1203 20.63 26.849 21.2116 27.0591 22.0567C27.1431 22.3949 27.1409 22.7339 27.0495 23.0712C27.0426 23.0962 27.0373 23.1221 27.0312 23.1476Z" fill="#EDAE50"/>
<path d="M25.8135 22.5441C25.8271 22.8333 25.5775 23.0572 25.3407 23.0542C25.0704 23.0508 24.8486 22.8253 24.8511 22.5392C24.8534 22.2596 25.0589 22.0284 25.344 22.0276C25.5816 22.0269 25.8267 22.253 25.8135 22.5441Z" fill="#414141"/>
<path d="M25.8409 21.5833C25.8958 21.5773 25.9415 21.598 25.9796 21.6414C26.0132 21.6797 26.0494 21.7158 26.0822 21.755C26.1586 21.8458 26.112 22.0119 26.0132 22.0446C25.9701 22.0588 25.9305 22.0598 25.8926 22.0333C25.8113 21.9764 25.7419 21.9046 25.6804 21.8258C25.615 21.742 25.6482 21.6348 25.7454 21.5985C25.7759 21.5866 25.8084 21.5814 25.8409 21.5833V21.5833Z" fill="#FCD38C"/>
<path d="M12.8741 26.5156C12.7402 26.4407 12.6607 26.3242 12.6368 26.1642C12.6287 26.1097 12.6145 26.0564 12.604 26.0021C12.5966 25.9641 12.5786 25.9514 12.5413 25.9546C12.3043 25.9758 12.0662 25.9785 11.8288 25.9625C11.7967 25.9604 11.7645 25.9585 11.7325 25.9546C11.7021 25.9509 11.6863 25.9643 11.68 25.9955C11.6687 26.0522 11.6535 26.108 11.6447 26.1652C11.6176 26.3414 11.5268 26.4626 11.3723 26.5308C11.2734 26.5594 11.1746 26.5494 11.0758 26.5299C10.9843 26.5118 10.8903 26.5033 10.8073 26.4522C10.7755 26.4273 10.7413 26.4058 10.7137 26.3748C10.6151 26.264 10.5743 26.1347 10.5997 25.9838C10.6093 25.9268 10.6221 25.8705 10.6329 25.8137C10.6511 25.7167 10.6509 25.7161 10.5659 25.6842C10.3722 25.611 10.1833 25.5242 10.0004 25.4246C9.95637 25.4009 9.91173 25.3771 9.86962 25.35C9.83748 25.3289 9.81612 25.3333 9.79522 25.3658C9.76315 25.4157 9.72758 25.4631 9.69574 25.5134C9.5601 25.7276 9.29396 25.7904 9.08474 25.6187C9.0299 25.5737 8.97201 25.5329 8.91703 25.4881C8.72291 25.3303 8.68749 25.0789 8.82894 24.8658C8.86599 24.8098 8.90386 24.7544 8.94255 24.6996C8.96093 24.6738 8.96063 24.6527 8.93734 24.6315C8.92603 24.6212 8.91591 24.6096 8.90513 24.5987C8.72388 24.4154 8.55647 24.2172 8.40446 24.006C8.36131 23.946 8.36094 23.9463 8.29755 23.985C8.25461 24.0113 8.21191 24.0378 8.16898 24.0642C7.94324 24.2014 7.71898 24.1411 7.57948 23.9059C7.56035 23.8758 7.55314 23.8649 7.53312 23.8287C7.5085 23.7779 7.47873 23.7303 7.45641 23.6778C7.36125 23.4535 7.42754 23.2241 7.62672 23.0975C7.67345 23.0677 7.72092 23.0393 7.76809 23.0097C7.83089 22.9702 7.83156 22.9697 7.80455 22.9009C7.71774 22.6797 7.64612 22.4521 7.59026 22.2198C7.58104 22.1816 7.57092 22.1436 7.56348 22.1049C7.55604 22.0663 7.53491 22.0537 7.49942 22.0586C7.43312 22.0675 7.36676 22.0778 7.30009 22.0818C7.12896 22.0924 6.9969 22.0199 6.90754 21.8638C6.87034 21.7995 6.85635 21.7275 6.8501 21.6531C6.84549 21.5977 6.83522 21.548 6.83172 21.4885C6.81729 21.264 6.93812 20.982 7.20374 20.9618C7.26051 20.9575 7.31698 20.9484 7.3736 20.9417C7.43908 20.9338 7.44138 20.9333 7.44287 20.867C7.44713 20.6722 7.46204 20.4777 7.48751 20.2847C7.49793 20.2065 7.50983 20.1284 7.52278 20.0507C7.53521 19.9765 7.53528 19.9749 7.46571 19.9507C7.41363 19.9326 7.36155 19.9156 7.31028 19.8971C7.08752 19.8172 6.97249 19.5915 7.03499 19.3514C7.05806 19.2627 7.0864 19.1754 7.11683 19.0891C7.19488 18.8668 7.40857 18.7547 7.62278 18.8219C7.68692 18.842 7.7512 18.8621 7.81355 18.8874C7.85343 18.9033 7.87114 18.8901 7.88795 18.8526C7.92746 18.7647 7.97039 18.6785 8.01198 18.5919C8.02687 18.5619 8.04056 18.538 8.05402 18.5106C8.09866 18.4235 8.14606 18.3377 8.20283 18.2584C8.25395 18.2109 16.8546 23.5905 16.8303 23.6526C16.8138 23.6842 16.8005 23.7149 16.7847 23.7454C16.7543 23.8027 16.7257 23.861 16.6934 23.9171C16.5707 24.1294 16.3473 24.1941 16.1389 24.0783C16.0841 24.0478 16.0315 24.0128 15.9777 23.9802C15.9218 23.9463 15.9211 23.946 15.8831 23.9983C15.7982 24.1149 15.7094 24.2281 15.6167 24.3378C15.5337 24.4357 15.446 24.5286 15.3567 24.6198C15.3157 24.6618 15.3157 24.663 15.3474 24.7108C15.383 24.7646 15.4206 24.8168 15.456 24.8709C15.593 25.0806 15.5563 25.3329 15.3659 25.4872C15.3049 25.5367 15.2429 25.5848 15.1799 25.6314C14.982 25.7772 14.747 25.7374 14.6007 25.5333C14.5635 25.481 14.5282 25.4266 14.491 25.374C14.4573 25.3265 14.4561 25.3258 14.4068 25.3543C14.2048 25.4719 13.9951 25.574 13.7794 25.6597C13.7492 25.6716 13.7187 25.6827 13.6887 25.6949C13.6343 25.717 13.6332 25.7178 13.644 25.782C13.6536 25.839 13.6617 25.8967 13.6771 25.9521C13.7345 26.1589 13.6146 26.4088 13.3483 26.4967C13.2332 26.5348 12.9839 26.5624 12.8741 26.5156Z" fill="#414141"/>
<path d="M16.8139 23.6681C16.6333 23.5566 15.0256 22.5031 14.913 22.437C14.8519 22.4041 14.8718 22.4002 14.9088 22.3262C15.0403 22.0274 15.1288 21.7092 15.1713 21.3824C15.202 21.1444 15.2003 20.9053 15.1819 20.6656C15.1646 20.4397 15.1247 20.2164 15.0628 19.9996C14.984 19.7232 14.87 19.4646 14.7293 19.2174C14.5722 18.9418 14.3721 18.7064 14.1511 18.4893C13.9811 18.3224 13.789 18.1869 13.5862 18.0692C13.2815 17.8911 12.9499 17.7709 12.6063 17.7141C12.3905 17.6785 12.1728 17.6609 11.955 17.6761C11.4915 17.7085 11.0528 17.8382 10.6447 18.0768C10.3227 18.2699 10.0346 18.5207 9.79297 18.8182C9.73136 18.8941 9.64364 19.0451 9.5833 19.1217C9.54863 19.1657 8.9717 18.7677 8.18689 18.2738C8.21583 18.2196 8.24373 18.1753 8.27469 18.128C8.29396 18.0984 8.29239 18.076 8.26725 18.0526C8.21911 18.0071 8.17112 17.9615 8.12387 17.9149C7.97358 17.7666 7.93846 17.57 8.03258 17.3768C8.05408 17.3326 8.09292 17.2286 8.15214 17.153C8.18079 17.1164 8.21234 17.0831 8.24329 17.049C8.39477 16.8823 8.68926 16.8796 8.84737 17.0332C9.03874 17.2188 9.01359 17.1756 9.17475 17.0442C9.31247 16.932 9.45183 16.8226 9.59751 16.7221C9.67593 16.668 9.68099 16.6419 9.64133 16.5514C9.59714 16.4504 9.55733 16.3489 9.56589 16.2335C9.57645 16.091 9.63084 15.9691 9.74029 15.89C9.89654 15.7771 10.0625 15.6842 10.2618 15.69C10.4264 15.6949 10.5418 15.782 10.6254 15.9246C10.6552 15.9759 10.6783 16.0319 10.7024 16.0868C10.7247 16.1383 10.7609 16.155 10.8116 16.1409C11.025 16.0814 11.2412 16.0364 11.4589 15.999C11.538 15.9854 11.5539 15.9607 11.5569 15.8771C11.5584 15.8481 11.5584 15.819 11.5569 15.79C11.54 15.5245 11.7335 15.3015 11.9621 15.2861C12.0882 15.2775 12.2144 15.2674 12.3396 15.294C12.5236 15.3336 12.7047 15.5128 12.6865 15.7589C12.6839 15.793 12.6858 15.8274 12.6865 15.8618C12.6881 15.963 12.7059 15.9877 12.7999 16.0021C13.0035 16.0324 13.2052 16.0761 13.4037 16.1331C13.5088 16.1637 13.5251 16.1526 13.5688 16.0481C13.6031 15.9663 13.6375 15.8843 13.698 15.8186C13.8205 15.6863 13.973 15.6649 14.1317 15.7023C14.2575 15.7319 14.3756 15.7926 14.4839 15.8676C14.6603 15.99 14.7246 16.2097 14.6528 16.4235C14.6379 16.468 14.6199 16.5116 14.6012 16.5546C14.564 16.6391 14.5703 16.6699 14.6442 16.7197C14.7996 16.8232 14.9492 16.9363 15.0923 17.0582C15.2491 17.1927 15.2211 17.2131 15.3941 17.0466C15.5456 16.9008 15.7795 16.8834 15.9177 16.9833C16.0577 17.0844 16.1795 17.2118 16.2604 17.3711C16.3323 17.5131 16.3226 17.7741 16.1793 17.9052C16.1363 17.9448 16.0982 17.9902 16.0583 18.0335C16.0237 18.0711 16.019 18.1122 16.0464 18.1551C16.1745 18.3557 16.2891 18.5656 16.3894 18.7833C16.4141 18.8368 16.4564 18.8504 16.5085 18.8329C16.5698 18.8118 16.6324 18.7952 16.6958 18.783C16.8653 18.7514 17.0519 18.8305 17.139 18.9888C17.2235 19.1421 17.2754 19.3103 17.2807 19.4903C17.2865 19.6881 17.1938 19.8251 17.0352 19.9161C16.9825 19.9457 16.927 19.9691 16.8696 19.9859C16.8089 20.0043 16.783 20.0436 16.7952 20.1094C16.838 20.3453 16.8522 20.5842 16.8662 20.8235C16.8699 20.8868 16.8987 20.9218 16.9586 20.9236C17.0032 20.925 17.0472 20.9339 17.0913 20.94C17.3187 20.9717 17.4743 21.1599 17.4751 21.4047C17.4755 21.4521 17.4734 21.4994 17.4688 21.5466C17.4614 21.621 17.4364 21.7276 17.4167 21.7971C17.3597 21.9998 17.1675 22.1108 16.9692 22.0974C16.905 22.0931 16.8411 22.0821 16.777 22.0754C16.7181 22.0692 16.7151 22.07 16.7005 22.1322C16.6564 22.3188 16.6084 22.5042 16.5454 22.6848C16.5161 22.7687 16.4859 22.8524 16.4527 22.9347C16.4378 22.9712 16.4441 22.9936 16.4759 23.0126C16.5385 23.0502 16.6016 23.0871 16.6619 23.1286C16.8229 23.2394 16.8894 23.441 16.8308 23.6334C16.8261 23.6454 16.8204 23.6571 16.8139 23.6681V23.6681Z" fill="#666059"/>
<path d="M10.2563 19.5089C10.3307 19.4139 10.4013 19.3153 10.4828 19.2262C10.8671 18.8063 11.3314 18.5597 11.8797 18.494C12.3646 18.436 12.8246 18.5257 13.2495 18.78C13.9037 19.1715 14.2939 19.7683 14.4169 20.5548C14.4884 21.0117 14.4343 21.4577 14.2637 21.886C14.2541 21.9102 14.2472 21.9356 14.2391 21.9604C14.2576 22.0017 14.2396 22.037 14.2234 22.0728C14.1407 22.2548 14.0318 22.4181 13.9059 22.5675C13.5436 22.9972 13.1002 23.2821 12.5621 23.3806C11.8478 23.5113 11.2034 23.3356 10.6432 22.8443C10.1888 22.4459 9.91498 21.93 9.82682 21.3114C9.75822 20.8299 9.81528 20.3609 10.0029 19.9128C10.0483 19.8041 10.1035 19.7015 10.1591 19.5985C10.1818 19.5556 10.2114 19.5236 10.2563 19.5089Z" fill="#EDAE50"/>
<path d="M10.6712 20.9277C10.6589 20.0404 11.3725 19.3642 12.1295 19.3601C12.8719 19.3561 13.6128 19.9849 13.6141 20.9356C13.6153 21.8182 12.9418 22.489 12.1558 22.4976C11.2994 22.507 10.6555 21.7554 10.6712 20.9277Z" fill="#45423D"/>
<path d="M13.5878 19.4799C13.6001 19.6108 13.4459 19.7134 13.3388 19.6378C13.2661 19.5865 13.1974 19.5342 13.1398 19.4659C13.0569 19.3676 13.0758 19.2657 13.1856 19.2014C13.267 19.1539 13.3429 19.1505 13.4181 19.2186C13.471 19.2665 13.5223 19.3149 13.5602 19.3773C13.5794 19.4075 13.5891 19.4434 13.5878 19.4799Z" fill="#FCD38C"/>
<path d="M10.9673 20.9383C10.9491 20.2972 11.4374 19.672 12.1463 19.6748C12.8085 19.6777 13.3254 20.2425 13.3187 20.949C13.3123 21.6454 12.7693 22.1915 12.1241 22.183C11.4551 22.1742 10.9492 21.5754 10.9673 20.9383Z" fill="#EDAE50"/>
<path d="M12.1389 21.4404C11.8752 21.4404 11.6553 21.2071 11.6572 20.926C11.659 20.649 11.8607 20.4172 12.142 20.4141C12.3985 20.4113 12.6225 20.6369 12.6211 20.9303C12.6198 21.2162 12.4085 21.4407 12.1389 21.4404Z" fill="#414141"/>
<path d="M12.6957 20.0791C12.7234 20.0791 12.7505 20.0823 12.774 20.0989C12.8763 20.1711 12.9311 20.2714 12.9274 20.4033C12.9255 20.4712 12.8341 20.5425 12.7717 20.5274C12.6663 20.5019 12.5803 20.4464 12.5216 20.3465C12.4709 20.2601 12.4809 20.1878 12.557 20.1267C12.5981 20.0939 12.6451 20.0805 12.6957 20.0791Z" fill="#FCD38C"/>
<path d="M10.2562 19.5088C10.1794 19.638 10.105 19.7683 10.0457 19.9082C9.94593 20.1441 9.88115 20.3951 9.85363 20.6521C9.81712 20.9762 9.84233 21.3048 9.92775 21.6184C10.0132 21.9319 10.1571 22.2239 10.3509 22.4771C10.6455 22.8617 11.0168 23.1268 11.4616 23.2746C11.7194 23.3603 11.9849 23.3997 12.2537 23.3807C12.9572 23.3313 13.5308 23.0127 13.9692 22.4232C14.0612 22.2988 14.1406 22.1644 14.206 22.0223C14.2158 22.0012 14.228 21.9812 14.239 21.9607C14.3001 21.9912 14.776 22.3181 14.8571 22.3784C14.8893 22.4022 14.8747 22.4338 14.8594 22.4628C14.7758 22.6216 14.6875 22.7771 14.5812 22.9202C14.3488 23.2329 14.0778 23.4995 13.7571 23.7085C13.446 23.9115 13.1041 24.0557 12.7467 24.1348C12.4703 24.1968 12.1902 24.206 11.911 24.1875C11.5395 24.1632 11.1836 24.0632 10.8448 23.8959C10.6126 23.7827 10.3951 23.6384 10.1975 23.4665C9.80869 23.1257 9.50714 22.7141 9.31205 22.2169C9.18737 21.8978 9.1094 21.5603 9.08088 21.216C9.03624 20.7027 9.11272 20.2085 9.28266 19.7282C9.34494 19.5524 9.42708 19.3874 9.51487 19.2251C9.52351 19.2093 9.53318 19.1935 9.54315 19.1787C9.5965 19.098 9.60661 19.0955 9.68593 19.1436C9.81911 19.2244 10.0753 19.3934 10.2057 19.4781C10.2231 19.4871 10.24 19.4974 10.2562 19.5088V19.5088Z" fill="#666059"/>
<path d="M14.3914 21.4498C14.4587 21.1313 14.465 20.8017 14.4099 20.4805C14.3549 20.1594 14.2396 19.8534 14.071 19.5806C13.7891 19.194 13.4351 18.8684 13.0421 18.6673C12.7969 18.5549 12.534 18.4923 12.2671 18.4826C11.5626 18.456 10.9586 18.7042 10.4666 19.2438C10.3892 19.3302 10.3165 19.4213 10.2489 19.5165C10.1911 19.4796 9.6581 19.1905 9.58317 19.1216C9.55341 19.0942 9.78578 18.8142 9.90519 18.6833C10.1662 18.3973 10.4612 18.161 10.8002 17.9879C11.1175 17.8138 11.4801 17.7144 11.846 17.673C12.1266 17.6407 12.4099 17.6487 12.6885 17.6967C13.0557 17.761 13.3942 17.913 13.7153 18.1161C13.9354 18.2538 14.1381 18.4209 14.3184 18.6133C14.6726 18.9943 14.9333 19.4363 15.0802 19.9519C15.1738 20.2829 15.2191 20.6272 15.2146 20.9728C15.2098 21.4884 15.0882 21.9621 14.9114 22.3435C14.8764 22.4192 14.9082 22.4173 14.8066 22.3435C14.6818 22.2486 14.3705 22.0502 14.2391 21.9606C14.2309 21.9539 14.3382 21.7038 14.3914 21.4498Z" fill="#45423D"/>
<path d="M11.1211 8.01304C11.0669 7.82975 11.0253 7.64282 10.9797 7.45708C10.9677 7.40817 10.9812 7.39504 11.0302 7.38238C13.7434 6.68057 17.0427 7.21682 18.7373 7.7628C19.0058 7.86528 19.2672 7.98439 19.509 8.14734C19.6139 8.21809 19.7135 8.29604 19.7917 8.40058C19.8135 8.42921 19.8332 8.45964 19.8504 8.49159C19.8914 8.56923 19.9006 8.6475 19.862 8.73242C19.7728 8.92942 19.6757 9.12199 19.5708 9.31013C19.503 9.43264 19.4333 9.55396 19.3645 9.67592C19.3321 9.7351 19.2958 9.79172 19.2558 9.84535C19.2208 9.8801 19.1814 9.8634 19.1436 9.85437C18.9777 9.81481 18.81 9.78386 18.6451 9.74065C18.633 9.73749 18.6206 9.74287 18.6083 9.74334C18.4356 9.68383 18.2531 9.67702 18.0777 9.63255C18.0547 9.62669 18.0347 9.64149 18.0127 9.63753C17.7245 9.57794 17.4323 9.54787 17.1421 9.50545C17.0401 9.49049 16.9348 9.49841 16.8358 9.45963C16.798 9.41713 16.7912 9.36157 16.7785 9.308C16.7053 8.99191 16.6103 8.68517 16.4362 8.41277C16.4097 8.37138 16.3809 8.33189 16.3507 8.29343C16.2602 8.17781 16.152 8.10903 16.0052 8.08854C15.6224 8.03496 15.2389 7.98866 14.8543 7.954C14.2144 7.89599 13.5738 7.8861 12.9327 7.89575C12.6164 7.90042 12.3003 7.92282 11.9845 7.95178C11.7231 7.97553 11.4622 8.0037 11.2021 8.04034C11.1699 8.04366 11.1421 8.04161 11.1211 8.01304Z" fill="#EDAE50"/>
<path d="M20.1178 13.5316C19.9376 13.5303 19.7574 13.5263 19.5773 13.529C19.5198 13.5298 19.5071 13.4943 19.4946 13.4504C19.4458 13.4345 19.4471 13.387 19.4396 13.3475C19.3814 13.0429 19.3265 12.7374 19.2631 12.4339C19.1073 11.6877 18.9321 10.9468 18.719 10.2164C18.6823 10.0906 18.6428 9.96569 18.607 9.83954C18.596 9.80116 18.5752 9.7593 18.6105 9.72083C18.6235 9.70501 18.6409 9.70501 18.658 9.70825C18.8585 9.74782 19.0589 9.78739 19.2558 9.84453C19.3852 10.2317 19.4939 10.6256 19.5943 11.0221C19.7307 11.5611 19.8477 12.105 19.9569 12.6508C19.9975 12.8547 20.1174 13.5266 20.1178 13.5316Z" fill="#45423D"/>
<path d="M11.121 8.01304C11.358 7.96999 11.5972 7.94498 11.8362 7.92219C12.0086 7.90573 12.1819 7.89521 12.3548 7.88262C12.835 7.84717 13.3156 7.84788 13.7961 7.85651C14.1451 7.86276 14.4939 7.88246 14.8423 7.9119C15.0744 7.93153 15.3061 7.95409 15.5372 7.98218C15.7314 8.00592 15.9241 8.04019 16.1184 8.0671C16.1812 8.07572 16.2285 8.10849 16.2734 8.15209C16.4281 8.30246 16.5373 8.48638 16.6231 8.68707C16.7252 8.9256 16.7952 9.17505 16.8417 9.43217C16.831 9.46826 16.8033 9.46873 16.7753 9.46691C16.6519 9.459 16.5282 9.44974 16.4052 9.43755C16.2967 9.42687 16.1878 9.42173 16.0795 9.41524C15.9068 9.40511 15.7339 9.38516 15.5603 9.39537C15.4933 9.39941 15.4273 9.38144 15.3605 9.38034C15.27 9.37891 15.2419 9.39972 15.2105 9.48891C15.0256 10.015 14.8733 10.5518 14.7394 11.0949C14.5326 11.9338 14.3748 12.7836 14.2422 13.6389C14.2066 13.8675 14.1777 14.0971 14.146 14.3264C14.1395 14.373 14.1347 14.4208 14.1068 14.4609C14.085 14.4842 14.0573 14.4858 14.0306 14.4784C13.9062 14.4442 13.7827 14.4061 13.6586 14.3709C13.6489 14.3686 13.6399 14.3638 13.6323 14.3569C13.6248 14.35 13.6189 14.3412 13.6153 14.3314C13.5953 14.2742 13.6079 14.216 13.6159 14.1596C13.7424 13.2345 13.8972 12.3151 14.1009 11.4056C14.2449 10.7623 14.409 10.1256 14.6193 9.50284C14.6512 9.40867 14.6333 9.38129 14.5403 9.38018C14.1717 9.37582 13.8037 9.38944 13.4353 9.40819C13.2501 9.41769 13.0651 9.42576 12.8804 9.44222C12.8681 9.44222 12.8556 9.4427 12.8432 9.44278C12.6504 9.44412 12.646 9.44863 12.5852 9.63944C12.2314 10.7488 11.9841 11.886 11.793 13.0384C11.7359 13.383 11.6858 13.7288 11.6349 14.0745C11.6303 14.1061 11.627 14.1373 11.6083 14.1638C11.5904 14.1945 11.5609 14.1986 11.5313 14.2034C11.3776 14.2271 11.223 14.2437 11.07 14.2726C11.0356 14.2791 10.9932 14.287 10.9863 14.2279C11.012 14.0458 11.0377 13.8636 11.0634 13.6814C11.1301 13.2075 11.2056 12.7353 11.2899 12.2648C11.4005 11.6483 11.5269 11.0366 11.6832 10.4323C11.7576 10.1457 11.8345 9.85968 11.928 9.57921C11.9607 9.48092 11.9606 9.48092 11.8898 9.41302C11.7191 9.24865 11.549 9.08364 11.3775 8.9203C11.3459 8.89088 11.3238 8.85169 11.3143 8.80824C11.2562 8.56868 11.1953 8.32992 11.1353 8.09084C11.1249 8.06642 11.1201 8.03974 11.1211 8.01296L11.121 8.01304Z" fill="#45423D"/>
<path d="M11.1212 8.0127C11.1303 8.03778 11.1406 8.06255 11.1354 8.09057C11.1205 8.06691 11.1016 8.04364 11.1212 8.0127Z" fill="#A9A9A9"/>
<path d="M15.0608 14.892C14.7756 14.7291 14.4768 14.6007 14.171 14.4895C14.1432 14.4794 14.114 14.4719 14.0928 14.4476C14.1242 14.2156 14.1533 13.9833 14.1876 13.7518C14.2669 13.2159 14.3596 12.6826 14.4656 12.152C14.6271 11.3478 14.8202 10.5527 15.0742 9.77544C15.1148 9.65103 15.1569 9.52718 15.1992 9.40349C15.2205 9.34089 15.2215 9.34065 15.2845 9.34255C15.6361 9.35315 15.9877 9.36748 16.3388 9.3909C16.5067 9.40206 16.6744 9.41852 16.8421 9.43261C17.1194 9.46094 17.3956 9.49727 17.6714 9.53881C17.7886 9.55654 17.9057 9.57284 18.0221 9.59587C18.0891 9.62429 18.1305 9.67873 18.1709 9.74125C18.3245 9.97923 18.4469 10.2362 18.5487 10.501C18.6552 10.778 18.7527 11.0605 18.8184 11.3532C18.8443 11.4685 18.8811 11.5808 18.9077 11.6956C18.9948 12.0735 19.0913 12.4489 19.1617 12.8312C19.1978 13.0272 19.2361 13.2231 19.2836 13.4168C19.2963 13.4683 19.3172 13.5267 19.2548 13.5638C19.2481 13.5717 19.2426 13.5816 19.2344 13.5862C19.124 13.6484 19.0494 13.7495 18.9769 13.8526C18.8558 14.0248 18.7359 14.1978 18.6155 14.3706C18.5815 14.3864 18.5536 14.3733 18.5258 14.3522C18.3808 14.2417 18.2345 14.1331 18.0868 14.0265C18.0118 13.9721 18.006 13.9449 18.0563 13.8647C18.1278 13.7507 18.2047 13.6407 18.2784 13.5284C18.3068 13.4852 18.3371 13.4432 18.3603 13.3965C18.402 13.3118 18.3867 13.2273 18.3225 13.1768C18.2584 13.1262 18.1785 13.1365 18.117 13.2099C18.0394 13.3024 17.9782 13.4086 17.9119 13.5106C17.7015 13.8331 17.4907 14.1554 17.2795 14.4774C17.2596 14.5077 17.2394 14.5379 17.2259 14.5724C17.195 14.6507 17.2165 14.7315 17.2791 14.7749C17.3438 14.8199 17.4183 14.811 17.4732 14.7442C17.5499 14.6508 17.6106 14.5445 17.6773 14.4435C17.7199 14.3787 17.7623 14.3138 17.8062 14.2501C17.8368 14.2057 17.8705 14.1992 17.9146 14.2292C18.0752 14.339 18.2284 14.4599 18.385 14.5756C18.4113 14.595 18.4371 14.6179 18.4361 14.6576C18.3871 14.7425 18.3383 14.8276 18.289 14.9122C18.2642 14.9547 18.2377 14.996 18.2132 15.0388C18.1113 15.2159 18.1082 15.3989 18.196 15.5806C18.4324 16.07 18.6781 16.554 18.9553 17.0191C18.9899 17.0769 19.027 17.1328 19.0617 17.1903C19.1594 17.3523 19.3053 17.4173 19.477 17.4228C19.6426 17.428 19.8079 17.4087 19.9728 17.3932C19.9691 18.1258 19.7719 18.7961 19.403 19.4128C19.3513 19.4991 19.2954 19.536 19.1946 19.5329C18.9275 19.5244 18.66 19.5313 18.3927 19.5321C18.3387 19.5242 18.3406 19.4733 18.3332 19.4352C18.3015 19.278 18.2598 19.1239 18.2158 18.9703C18.0467 18.3777 17.8016 17.8126 17.4874 17.2912C17.3858 17.1227 17.2724 16.9634 17.1661 16.7987C17.0672 16.6615 16.9606 16.5309 16.8505 16.4041C16.6546 16.1783 16.4511 15.9601 16.2285 15.7631C15.9064 15.4797 15.5615 15.2272 15.1977 15.0085C15.1474 14.9762 15.087 14.9562 15.0608 14.892Z" fill="#B9E1E1"/>
<path d="M19.2382 13.582C19.2588 13.5345 19.257 13.4689 19.2463 13.4242C19.1523 13.0345 18.4887 10.3171 18.1134 9.71916C18.068 9.64667 18.0573 9.62744 18.0215 9.5957C18.1977 9.61026 18.3706 9.64983 18.5453 9.67579C18.5587 9.67743 18.5715 9.68241 18.5827 9.69032C18.5939 9.69822 18.6032 9.70884 18.6099 9.7213C18.8442 10.4785 19.0453 11.2454 19.2131 12.0223C19.316 12.4957 19.4215 13.0044 19.5054 13.4821C19.5056 13.4832 19.506 13.4842 19.5066 13.4852C19.5235 13.5185 19.5278 13.5093 19.4296 13.5224C19.3688 13.5307 19.2869 13.5596 19.2382 13.582Z" fill="#DCF9FB"/>
<path d="M13.6328 14.3221C13.4802 14.2904 13.3277 14.2558 13.1748 14.228C12.9923 14.1951 12.8083 14.1724 12.6235 14.16C12.4487 14.1479 12.2753 14.1442 12.1002 14.1438C12.0017 14.1438 11.902 14.154 11.803 14.1462C11.7624 14.1132 11.7697 14.0683 11.7756 14.0233C11.8596 13.3789 11.9573 12.7373 12.0846 12.1002C12.1739 11.6514 12.2744 11.2059 12.3981 10.7668C12.5163 10.3474 12.6539 9.93531 12.8673 9.55758C12.8994 9.50076 12.9045 9.45375 12.8705 9.40049C12.894 9.39044 12.919 9.39051 12.9436 9.38933C13.505 9.36226 14.0664 9.3329 14.6287 9.33836C14.6529 9.33836 14.6782 9.33227 14.7018 9.34509C14.7112 9.3735 14.6954 9.39669 14.6873 9.42035C14.4394 10.1405 14.2521 10.88 14.0907 11.627C13.9539 12.2607 13.8403 12.8992 13.7424 13.541C13.703 13.801 13.6694 14.0618 13.6328 14.3221Z" fill="#B9E1E1"/>
<path d="M12.9194 9.39018C13.02 9.37767 13.0104 9.38353 12.9502 9.49306C12.7874 9.78872 12.6504 10.0927 12.5457 10.4135C12.485 10.5993 12.4261 10.787 12.3807 10.9787C12.331 11.188 12.2725 11.3948 12.2264 11.6051C12.1798 11.818 12.1404 12.0325 12.0973 12.2462C12.0531 12.465 12.008 12.6836 11.9744 12.9044C11.9223 13.2474 11.872 13.5906 11.8235 13.934C11.8136 14.0039 11.8011 14.0742 11.8032 14.1457C11.7781 14.1577 11.6064 14.1765 11.5933 14.1457C11.6046 13.9774 11.6343 13.8116 11.6587 13.6453C11.7193 13.2345 11.7874 12.8249 11.8629 12.4167C12.0392 11.4734 12.2563 10.5411 12.5474 9.63005C12.5658 9.57275 12.5875 9.51656 12.6038 9.45863C12.6133 9.42468 12.6323 9.4121 12.6627 9.41115C12.7325 9.40743 12.9071 9.38962 12.9194 9.39018Z" fill="#DCF9FB"/>
<path d="M22.2008 20.9955C22.0277 20.9813 21.8348 20.8364 21.697 21.2107C21.56 21.5817 21.7613 21.7246 21.731 21.7121C21.716 21.7101 21.7009 21.7096 21.6858 21.7106C21.5724 21.712 21.4552 21.6921 21.342 21.6919C21.3019 21.6724 21.3113 21.6375 21.318 21.6037C21.375 21.312 21.4624 21.028 21.5784 20.7569C21.732 20.4014 21.92 20.0684 22.1556 19.7661C22.483 19.3462 22.8666 18.9984 23.3126 18.7282C23.7769 18.447 24.2753 18.273 24.8032 18.1972C25.0583 18.1607 25.3155 18.147 25.5733 18.1662C25.6712 18.1735 25.7476 18.1311 25.8002 18.0453C25.8216 18.0104 25.8453 17.9838 25.882 17.9699C25.9245 17.9695 25.9631 17.9886 26.0037 17.9983C26.0929 18.0196 26.1022 18.0161 26.1414 17.9302C26.2046 17.7914 26.2702 17.6539 26.3519 17.5258C26.372 17.512 26.3887 17.4934 26.4008 17.4714C26.5067 17.299 26.6421 17.1564 26.8013 17.0393C26.8058 17.0371 26.8108 17.0362 26.8157 17.0368C26.8733 17.0368 26.8883 17.0836 26.9022 17.1293C26.9632 17.3299 27.0317 17.5271 27.1164 17.7183C27.2568 18.0348 27.4301 18.3276 27.6526 18.586C27.6858 18.6246 27.7277 18.6589 27.7082 18.7218C27.5924 18.9381 27.4765 19.1544 27.3606 19.3707C27.3436 19.4024 27.3248 19.4332 27.3068 19.4645C27.2745 19.519 27.2382 19.5705 27.1981 19.6187C27.1876 19.6107 27.1766 19.6036 27.165 19.5976C27.1583 19.5941 27.1457 19.5822 27.1392 19.5784C27.0179 19.5082 27.035 19.5036 27.0955 19.3727C27.1334 19.2901 27.1531 19.2065 27.1292 19.1134C27.1197 19.075 27.1029 19.0391 27.0797 19.0079C27.0566 18.9767 27.0277 18.951 26.9947 18.9323C26.9171 18.8874 26.8366 18.8452 26.7479 18.8254C26.6235 18.798 26.4935 18.8593 26.4336 18.979C26.4139 19.0185 26.4 19.0609 26.3816 19.1013C26.3552 19.1601 26.34 19.1683 26.2827 19.1509C26.13 19.1046 25.9758 19.0668 25.8179 19.048C25.803 19.0462 25.7889 19.0401 25.7742 19.0387C25.732 19.0334 25.7142 19.0071 25.7147 18.9638C25.7147 18.9216 25.712 18.8793 25.7147 18.8371C25.7244 18.6777 25.6289 18.5699 25.4903 18.5408C25.3903 18.5197 25.2873 18.5211 25.1878 18.5449C25.0607 18.5753 24.9855 18.6579 24.9678 18.7981C24.9607 18.8502 24.9565 18.9026 24.9553 18.9552C24.9546 19.0237 24.9502 19.0295 24.8852 19.043C24.805 19.0597 24.7241 19.0723 24.6439 19.0886C24.5612 19.1053 24.4794 19.1263 24.3984 19.1513C24.3458 19.1677 24.3335 19.1611 24.3115 19.1089C24.2913 19.0609 24.2723 19.0123 24.2463 18.9672C24.1776 18.8485 24.0534 18.7937 23.9263 18.8285C23.835 18.8539 23.7481 18.8947 23.669 18.9494C23.5538 19.0286 23.5117 19.178 23.5605 19.3189C23.575 19.3608 23.5963 19.3999 23.6133 19.4409C23.6347 19.4925 23.6329 19.5048 23.5903 19.5325C23.4401 19.6303 23.301 19.7445 23.1627 19.8599C23.1223 19.8937 23.1112 19.8941 23.0734 19.8569C23.0398 19.822 23.0041 19.7894 22.9666 19.7592C22.8603 19.6774 22.715 19.6763 22.6151 19.7661C22.5454 19.8288 22.4795 19.897 22.4298 19.9806C22.3546 20.1073 22.372 20.2576 22.4745 20.3605C22.5159 20.4021 22.5202 20.4053 22.5877 20.4543C22.4841 20.5644 22.2819 20.8618 22.2226 20.9789" fill="#414141"/>
<path d="M20.8156 21.6769C20.3993 21.6764 19.983 21.676 19.5667 21.6755C18.9051 21.6755 18.2434 21.6755 17.5817 21.6755C17.4292 21.6755 17.4266 21.6704 17.4478 21.5112C17.4627 21.3951 17.4654 21.2794 17.4041 21.1738C17.3381 21.06 17.2449 20.987 17.1197 20.9666C17.0586 20.9559 16.9969 20.9493 16.9351 20.9467C16.8607 20.9444 16.8472 20.9247 16.8445 20.8448C16.8355 20.5868 16.8157 20.3304 16.769 20.0761C16.7505 19.9756 16.7556 19.9672 16.8504 19.9393C16.9271 19.9168 17.0018 19.8889 17.0703 19.8451C17.2404 19.7362 17.2903 19.5502 17.2495 19.359C17.2309 19.272 17.2026 19.1869 17.1751 19.1023C17.1038 18.8828 16.9147 18.7686 16.7003 18.8113C16.6269 18.826 16.5566 18.8509 16.4858 18.8746C16.4277 18.8944 16.4204 18.8924 16.3934 18.8324C16.2808 18.5799 16.148 18.3381 15.9964 18.1098C15.9679 18.0673 15.9694 18.0539 16.0128 18.0192C16.0723 17.9713 16.1205 17.9104 16.1757 17.8577C16.3085 17.7311 16.3062 17.4645 16.2267 17.3373C16.1518 17.2175 16.057 17.1157 15.9538 17.0262C15.8239 16.9132 15.5963 16.9092 15.4519 17.0472C15.4022 17.0947 15.3458 17.1343 15.3018 17.1885C15.2755 17.221 15.2512 17.2217 15.22 17.1937C15.1464 17.1273 15.0721 17.0617 14.9958 16.999C14.8761 16.9007 14.7502 16.8121 14.6225 16.7257C14.5119 16.6508 14.517 16.6677 14.5733 16.5437C14.5968 16.4943 14.6174 16.4434 14.635 16.3914C14.6994 16.1887 14.6411 15.9667 14.4358 15.8559C14.3473 15.8084 14.2583 15.7594 14.1629 15.7318C14.029 15.693 13.8982 15.7001 13.7805 15.7931C13.7328 15.8313 13.6945 15.8813 13.6689 15.9388C13.6372 16.0073 13.6094 16.0778 13.579 16.147C13.556 16.1992 13.551 16.2024 13.4991 16.1851C13.3002 16.1186 13.0967 16.0732 12.891 16.0384C12.8421 16.0305 12.7931 16.0226 12.7441 16.0152C12.6732 16.0042 12.6677 15.9984 12.6665 15.9192C12.6655 15.8533 12.6657 15.7874 12.6665 15.7213C12.6681 15.5384 12.5772 15.4206 12.43 15.3442C12.3877 15.3215 12.3414 15.3085 12.2941 15.306C12.1829 15.302 12.0715 15.2944 11.9605 15.3139C11.7489 15.3516 11.6174 15.5088 11.6108 15.7364C11.6092 15.7943 11.6108 15.8523 11.6102 15.9105C11.6091 15.9993 11.6057 16.002 11.5253 16.0156C11.2781 16.0573 11.0317 16.1027 10.7915 16.18C10.7342 16.1984 10.7274 16.1944 10.7012 16.1343C10.6762 16.0769 10.6519 16.0192 10.6268 15.9618C10.5278 15.7338 10.2984 15.6602 10.0869 15.7421C10.0077 15.7727 9.93038 15.8085 9.85543 15.8494C9.73244 15.917 9.65134 16.0215 9.62478 16.1703C9.61111 16.2484 9.61801 16.329 9.64472 16.4032C9.66778 16.4701 9.69836 16.5334 9.72723 16.5976C9.75171 16.652 9.74896 16.6644 9.70216 16.6946C9.50476 16.822 9.32039 16.9686 9.14041 17.1219C9.11727 17.1416 9.09577 17.164 9.07345 17.1842C9.03498 17.2186 9.02315 17.2185 8.98416 17.1827C8.94108 17.1431 8.89666 17.105 8.85634 17.0623C8.70433 16.9016 8.41973 16.9026 8.27219 17.0733C8.22867 17.1237 8.18722 17.1762 8.14258 17.2253C8.08856 17.2846 8.08499 17.2826 8.02964 17.2283C7.98261 17.1821 7.87175 17.0784 7.86386 17.0722C7.78998 16.9846 7.79303 16.984 7.86781 16.8942C8.50355 16.1309 9.30948 15.5499 10.2115 15.2045C10.6662 15.0304 11.1341 14.9169 11.6149 14.8728C11.9086 14.8468 12.2037 14.8439 12.4977 14.8639C12.896 14.8893 13.2906 14.9589 13.6753 15.0714C13.9909 15.1632 14.2979 15.2857 14.5923 15.4375C14.7935 15.5384 14.9887 15.6524 15.1767 15.7789C15.4401 15.9562 15.6894 16.1562 15.9222 16.3768C16.1449 16.5895 16.3539 16.8178 16.548 17.0602C16.5744 17.095 16.599 17.1313 16.6218 17.1688C16.8035 17.3868 16.9492 17.6318 17.0853 17.8825C17.359 18.3844 17.5637 18.9254 17.6933 19.489C17.7386 19.6861 17.7687 19.8862 17.8021 20.0857C17.8312 20.2598 17.9513 20.3194 18.0986 20.2351C18.2834 20.1295 18.4008 19.8783 18.3739 19.6558C18.3681 19.6075 18.3367 19.5529 18.3854 19.5076C18.4241 19.4845 18.4666 19.4864 18.5086 19.4862C18.7319 19.4855 18.9546 19.4831 19.1775 19.4873C19.2696 19.4891 19.3312 19.4525 19.3805 19.3714C19.5649 19.0676 19.7053 18.7361 19.7972 18.3879C19.8696 18.1162 19.9216 17.8404 19.9393 17.5578C19.9414 17.5288 19.941 17.4997 19.9379 17.4708C19.9341 17.4364 19.9422 17.4082 19.972 17.3902C20.0204 17.3893 20.1262 17.3828 20.1309 17.3823C20.3161 17.3707 20.3161 17.3707 20.3164 17.5687C20.3164 17.719 20.3155 17.8694 20.3169 18.0193C20.3181 18.1567 20.3525 18.1991 20.4788 18.233C20.7812 18.3149 21.0873 18.3413 21.3992 18.3241C21.5433 18.3161 21.6842 18.2886 21.8272 18.2766C21.8568 18.273 21.8857 18.2651 21.9132 18.2528C22 18.2175 22.0256 18.1816 22.0268 18.0813C22.0291 17.8942 22.0262 17.7071 22.0285 17.52C22.029 17.4792 22.021 17.4344 22.0551 17.4013C22.1113 17.3554 22.1649 17.3905 22.2151 17.4128C22.3392 17.4682 22.4325 17.5666 22.5182 17.6731C22.6768 17.8702 22.7946 18.0953 22.9063 18.3244C22.9161 18.3428 22.9203 18.3641 22.9182 18.3852C22.9142 18.4364 22.8793 18.4619 22.8438 18.4865C22.5514 18.6874 22.289 18.9259 22.0477 19.1921C21.7708 19.4972 21.5412 19.8383 21.3468 20.2069C21.1209 20.6351 20.9673 21.0915 20.8766 21.5726C20.8688 21.6129 20.8765 21.6701 20.8156 21.6769Z" fill="#45423D"/>
<path d="M20.8157 21.6766C20.8345 21.5868 20.8524 21.4967 20.8722 21.4075C21.034 20.6744 21.3447 20.0201 21.7935 19.4389C22.0914 19.0505 22.4448 18.7142 22.8407 18.4422C22.8635 18.4264 22.8885 18.4138 22.9026 18.3869C22.9205 18.3552 24.2708 17.4309 25.7809 17.7279C25.8708 17.7973 25.8814 17.9308 25.8325 18.0519C25.7849 18.1699 25.6959 18.2071 25.5535 18.2035C25.422 18.2001 25.2908 18.1926 25.1599 18.2002C24.9399 18.2119 24.721 18.2415 24.5052 18.2887C23.914 18.4205 23.3754 18.676 22.8923 19.0616C22.3279 19.5121 21.9019 20.0818 21.6094 20.7642C21.4908 21.0429 21.4015 21.3347 21.3431 21.6343C21.3395 21.6522 21.291 21.9417 21.2761 22.0695C21.2626 22.1882 21.2092 22.271 21.1014 22.3102C20.9432 22.3677 20.7741 22.2448 20.7706 22.0671C20.7688 21.9775 20.7869 21.8894 20.7996 21.8011C20.8046 21.7661 20.8101 21.6824 20.8157 21.6766Z" fill="#A19D98"/>
<path d="M19.5272 21.0599C19.2572 21.0599 18.9872 21.0608 18.7172 21.0595C18.5907 21.0589 18.4991 20.9932 18.4469 20.8727C18.3947 20.7523 18.4108 20.6353 18.4866 20.5308C18.5467 20.4481 18.6327 20.4163 18.7283 20.4131C18.7927 20.411 18.8571 20.4122 18.9217 20.4123C19.3775 20.4126 19.8332 20.4129 20.289 20.4133C20.3754 20.4133 20.4558 20.4291 20.5243 20.4914C20.6188 20.5777 20.6572 20.7176 20.6179 20.8421C20.5986 20.9053 20.5612 20.9604 20.5108 20.9995C20.4605 21.0387 20.3998 21.06 20.3374 21.0604C20.0673 21.0619 19.7974 21.0609 19.5274 21.0609L19.5272 21.0599Z" fill="#FCBE4F"/>
<path d="M10.9858 14.2274C11.0027 14.2418 11.022 14.2421 11.0419 14.238C11.2108 14.2028 11.3816 14.1826 11.5526 14.1637C11.5675 14.162 11.56 14.1622 11.6022 14.1579C12.2026 14.1105 13.003 14.1454 13.6324 14.3222C13.7712 14.3631 13.911 14.3935 14.0499 14.434C14.0641 14.4349 14.744 14.6993 15.0081 14.8503C15.0318 14.8683 15.0433 14.8779 15.0602 14.8916C15.0711 15.0212 15.0332 15.1185 14.9621 15.2069C14.863 15.3302 14.7322 15.4185 14.5857 15.4744C14.3974 15.3874 14.2099 15.2982 14.0154 15.2268C13.6713 15.1004 13.3167 15.0087 12.9564 14.9529C12.6424 14.9054 12.3254 14.885 12.0083 14.892C11.6342 14.8986 11.2618 14.9462 10.8969 15.034C9.76424 15.3046 8.73725 15.9391 7.95517 16.8515C7.93017 16.8808 7.90465 16.9095 7.87957 16.9386C7.82749 16.9994 7.80472 17.0388 7.76633 17.0871C7.70256 17.1675 7.64051 17.2496 7.57838 17.3315C7.4333 17.5226 7.17832 17.5329 7.01946 17.3325C6.91195 17.1968 6.93018 16.9922 7.01768 16.8633C7.11309 16.7254 7.21508 16.5927 7.32325 16.4659C7.43382 16.3343 7.54156 16.1999 7.66276 16.0791C7.83262 15.9099 8.00174 15.7393 8.18649 15.5884C8.81735 15.073 9.50879 14.68 10.2708 14.4318C10.4722 14.3661 10.6767 14.3118 10.8835 14.2691C10.92 14.2619 10.9582 14.2591 10.9858 14.2274Z" fill="#EDAE50"/>
<path d="M17.186 16.7752C17.3706 17.0075 17.5208 17.2647 17.6659 17.5254C17.8365 17.8321 17.9784 18.1537 18.0986 18.4863C18.2088 18.7916 18.3041 19.1016 18.3675 19.4222C18.3749 19.4582 18.3839 19.4934 18.3922 19.5296C18.4088 19.6279 18.4278 19.7253 18.4076 19.8266C18.3661 20.0345 18.2688 20.1972 18.0829 20.2878C17.9272 20.3637 17.792 20.2843 17.7665 20.1039C17.6996 19.6291 17.5902 19.1655 17.4234 18.7182C17.2262 18.1891 16.9677 17.6973 16.6389 17.2471C16.6241 17.2264 16.6101 17.2046 16.5957 17.1833C16.6313 17.0577 16.705 16.9561 16.7759 16.8517C16.8157 16.7931 16.8772 16.8026 16.9286 16.7855C17.0116 16.7577 17.0988 16.735 17.186 16.7752Z" fill="#EDAE50"/>
<path d="M17.1442 16.7644C16.7372 16.7295 16.6093 17.1566 16.5962 17.1833C16.4204 16.9556 16.2349 16.7375 16.0331 16.5352C15.6228 16.1228 15.1573 15.7775 14.6517 15.5106C14.6294 15.4989 14.6079 15.4868 14.5859 15.4744C14.6049 15.4506 14.7724 15.4157 14.912 15.2132C15.0302 15.0419 15.058 14.9257 15.0604 14.8916C15.1937 14.9449 15.31 15.0314 15.4309 15.1082C15.6398 15.2399 15.8406 15.3856 16.0322 15.5443C16.2053 15.689 16.3732 15.8397 16.5331 16.0016C16.6427 16.1124 16.7453 16.2298 16.8489 16.3459C16.9694 16.4811 17.0909 16.6171 17.1863 16.7753" fill="#FCD38C"/>
<path d="M27.7018 18.7198C27.658 18.642 27.5916 18.5852 27.5381 18.5157C27.2504 18.1426 27.0442 17.7224 26.8991 17.2669C26.8824 17.2146 26.8672 17.1617 26.8505 17.1094C26.8435 17.0872 26.8382 17.0619 26.8085 17.0627C26.4419 16.7287 25.9993 16.5425 25.5659 16.3385C24.9112 16.0308 24.2275 15.8194 23.536 15.633C22.9936 15.4868 22.444 15.3784 21.8928 15.2781C21.8427 15.269 21.789 15.2646 21.7544 15.2148C21.7454 15.1787 21.7454 15.1419 21.7453 15.1051C21.7445 14.669 21.7448 14.233 21.746 13.7969C21.746 13.7494 21.7322 13.6948 21.7804 13.6597C21.8891 13.6881 22.0013 13.6881 22.1116 13.7044C22.3199 13.7351 22.5296 13.758 22.7376 13.7914C23.007 13.8343 23.2772 13.8725 23.5444 13.9295C23.7289 13.969 23.9144 14.0023 24.0985 14.0441C24.3143 14.0931 24.5301 14.1427 24.7432 14.2003C25.0984 14.2963 25.4535 14.3938 25.7997 14.5233C25.9375 14.5748 26.0742 14.6305 26.2137 14.6762C26.3559 14.7227 26.4673 14.8157 26.5733 14.9203C26.804 15.1478 27.0341 15.376 27.2567 15.6124C27.4055 15.7707 27.555 15.9279 27.6969 16.0934C27.7584 16.1651 27.8264 16.2307 27.8904 16.3005C28.0009 16.4212 28.1038 16.5495 28.2171 16.6678C28.308 16.7627 28.3618 16.8823 28.3685 17.0192C28.3779 17.2115 28.3721 17.4023 28.3261 17.5915C28.2416 17.9398 28.0857 18.2469 27.8743 18.5246C27.8213 18.5937 27.7666 18.6617 27.7018 18.7198Z" fill="#EDAE50"/>
<path d="M18.4353 14.6555L17.923 14.2775C17.9145 14.2721 17.9064 14.266 17.8989 14.2592C17.8679 14.2275 17.8493 14.2421 17.8297 14.275C17.8007 14.3239 17.7681 14.3705 17.7368 14.4179C17.6628 14.5299 17.5903 14.6431 17.5141 14.7534C17.4576 14.8353 17.3859 14.8605 17.3067 14.8342C17.1882 14.7946 17.1347 14.6589 17.1934 14.5414C17.2118 14.5043 17.2363 14.4706 17.2589 14.4361C17.5195 14.0388 17.7802 13.6416 18.0411 13.2445C18.0575 13.2182 18.0755 13.193 18.0952 13.1693C18.1632 13.0915 18.2663 13.0793 18.3443 13.1377C18.3823 13.1659 18.4091 13.208 18.4197 13.256C18.4302 13.304 18.4238 13.3544 18.4016 13.3976C18.3784 13.4439 18.3487 13.4866 18.3204 13.5297C18.2395 13.6527 18.1578 13.7751 18.0764 13.8976C18.044 13.9466 18.0433 13.9476 18.0897 13.982C18.2643 14.1115 18.4392 14.2406 18.6143 14.3693L18.4353 14.6555Z" fill="#45423E"/>
<path d="M20.5469 13.5613C20.5708 13.5792 20.5692 13.6066 20.5692 13.6325C20.5698 14.0946 20.5698 14.5567 20.5692 15.0187C20.5699 15.0345 20.5673 15.0502 20.5618 15.0648C20.5311 15.1044 20.4874 15.1028 20.446 15.103C20.2927 15.1038 20.1396 15.0951 19.9865 15.0919C19.5587 15.0821 19.1309 15.088 18.7025 15.0889C18.6728 15.0889 18.643 15.0906 18.6154 15.1047C18.5991 15.1126 18.5842 15.124 18.5865 15.1458C18.5888 15.1676 18.606 15.1743 18.6233 15.1791C18.6353 15.1824 18.6476 15.1839 18.66 15.1836C18.8701 15.1788 19.08 15.188 19.2904 15.174C19.4924 15.1605 19.6954 15.1646 19.8983 15.1776C20.0733 15.1888 20.2489 15.1934 20.4243 15.2002C20.4689 15.2018 20.5136 15.1986 20.5533 15.2268C20.5732 15.3327 20.6043 15.4375 20.5831 15.5477C20.5826 15.5578 20.5799 15.5676 20.5752 15.5764C20.5424 15.6179 20.4916 15.6187 20.4491 15.6376C20.3686 15.6732 20.3285 15.7313 20.3311 15.8258C20.3426 16.2573 20.3106 16.6884 20.3162 17.1198C20.3169 17.1699 20.3178 17.2197 20.323 17.2696C20.3343 17.3774 20.3063 17.4129 20.204 17.4239C20.1769 17.4267 20.1497 17.4276 20.1221 17.4283C20.0746 17.429 20.0271 17.4293 19.9797 17.4253C19.8405 17.4484 19.6997 17.4501 19.5595 17.4602C19.2996 17.4788 19.1087 17.3664 18.9733 17.1278C18.7853 16.797 18.5957 16.4673 18.4237 16.1264C18.3466 15.9735 18.2749 15.8178 18.1937 15.6669C18.0631 15.4246 18.0617 15.1877 18.2143 14.9559C18.2808 14.8548 18.3293 14.7409 18.4088 14.6493C18.453 14.5391 18.5244 14.4473 18.5885 14.3505C18.7358 14.1196 18.8911 13.895 19.0585 13.68C19.1095 13.6144 19.1806 13.574 19.2461 13.5269C19.3329 13.5019 19.6479 13.4953 19.7278 13.4925C19.8185 13.4892 19.9094 13.4912 20.0003 13.4925C20.0435 13.4928 20.4636 13.517 20.5469 13.5613Z" fill="#EDAE50"/>
<path d="M25.8855 18.0043C25.8574 17.9877 25.84 17.9647 25.8419 17.9284C25.8476 17.8176 25.7802 17.763 25.6977 17.7222C25.5879 17.6796 24.7513 17.5959 23.9195 17.9032C23.6269 18.004 23.3449 18.1297 23.0795 18.2961C23.0306 18.3268 22.9765 18.3476 22.9307 18.3844C22.9242 18.3895 22.9119 18.3862 22.9023 18.3868C22.8371 18.2877 22.7939 18.1753 22.7351 18.0722C22.6441 17.9126 22.5479 17.7578 22.4249 17.6233C22.3282 17.5177 22.2187 17.4368 22.0802 17.4071C22.0421 17.4102 22.0365 17.3806 22.0318 17.3517C22.0277 17.3178 22.0262 17.2835 22.0275 17.2493C22.0275 17.0099 22.0235 16.7704 22.0285 16.5311C22.0331 16.3046 22.0087 16.0793 22.0117 15.853C22.0128 15.7669 21.9745 15.7085 21.9001 15.675C21.8705 15.6617 21.8417 15.6464 21.8139 15.6291C21.7927 15.6159 21.7697 15.6022 21.779 15.5684L21.7818 15.3972C21.8064 15.3609 21.8399 15.366 21.8756 15.3717C22.2873 15.4375 22.6962 15.5189 23.1022 15.6159C23.5905 15.7333 24.0758 15.8622 24.5511 16.0302C24.932 16.1648 25.309 16.311 25.674 16.49C25.8471 16.5749 26.0237 16.653 26.1818 16.768C26.2413 16.8113 26.2892 16.8689 26.3344 16.9288C26.4421 17.0712 26.4149 17.2366 26.4049 17.3987C26.4018 17.4494 26.3791 17.4964 26.3751 17.5473C26.2819 17.6981 26.2024 17.8578 26.1375 18.0245C26.1243 18.0592 26.1065 18.072 26.0695 18.0587C26.0096 18.037 25.9471 18.0222 25.8855 18.0043Z" fill="#EDAE50"/>
<path d="M26.3756 17.5477C26.3548 17.5054 26.3581 17.4596 26.3658 17.4162C26.3821 17.3245 26.3763 17.2325 26.3763 17.1405C26.3763 17.0504 26.3295 16.9804 26.2781 16.9162C26.2136 16.8359 26.1346 16.7703 26.0458 16.7232C25.6303 16.4986 25.2002 16.3116 24.76 16.1493C24.4418 16.0319 24.1209 15.9247 23.7948 15.8359C23.3826 15.7237 22.969 15.6202 22.5502 15.5352C22.3096 15.4865 22.0672 15.4499 21.8264 15.4023C21.8119 15.3995 21.7967 15.3989 21.7822 15.3973C21.7822 15.3392 21.7822 15.2814 21.7822 15.2236C21.9301 15.2386 22.0757 15.2699 22.2217 15.2978C22.4115 15.3341 22.601 15.3727 22.7902 15.4135C22.9888 15.4568 23.1875 15.4988 23.3838 15.5543C23.5343 15.5967 23.6865 15.6328 23.8373 15.6746C24.2064 15.7768 24.5709 15.8943 24.9311 16.027C25.2235 16.1348 25.5064 16.2684 25.7909 16.3975C26.0615 16.5209 26.324 16.6637 26.5765 16.8249C26.6505 16.8719 26.7186 16.9298 26.7885 16.984C26.8133 17.0032 26.8356 17.0264 26.8087 17.0622C26.7144 17.1512 26.617 17.2363 26.5334 17.3378C26.4777 17.4053 26.4284 17.4777 26.3756 17.5477Z" fill="#FCD38C"/>
<path d="M20.547 15.0657L20.5474 15.2393C20.0521 15.196 19.1286 15.196 18.6624 15.2239C18.627 15.2221 18.5917 15.2182 18.5567 15.2123C18.5307 15.206 18.4905 15.1703 18.4912 15.148C18.4924 15.107 18.5146 15.0872 18.5433 15.072C18.5792 15.0529 18.6272 15.0493 18.6676 15.0493C19.1136 15.0493 19.5597 15.0422 20.0055 15.0536C20.1858 15.0582 20.3665 15.061 20.547 15.0657Z" fill="#FCD38C"/>
<path d="M28.1922 17.1707C28.1947 17.3409 28.1625 17.4976 28.1167 17.6514C28.0358 17.9237 27.904 18.1666 27.7363 18.3883C27.7023 18.4333 27.7005 18.4335 27.6649 18.389C27.5018 18.185 27.3713 17.9589 27.2595 17.7198C27.1754 17.5401 27.1066 17.354 27.045 17.1647C27.026 17.1061 27.0282 17.0955 27.0834 17.0655C27.2765 16.96 27.4789 16.8852 27.6947 16.8524C27.793 16.8375 27.8922 16.8377 27.9905 16.8249C28.0004 16.8239 28.0104 16.8237 28.0203 16.8242C28.1138 16.8261 28.1285 16.8387 28.1636 16.9293C28.1948 17.0101 28.1942 17.0938 28.1922 17.1707Z" fill="#FEFEFE"/>
<path d="M21.7722 13.6986C21.7722 14.2016 21.7777 15.3051 21.7893 15.6146C21.7617 15.652 21.7258 15.6383 21.6934 15.6285C21.3446 15.5202 20.9934 15.5363 20.6412 15.6048C20.6115 15.6105 20.5826 15.6183 20.5575 15.5924L20.5557 15.595C20.5394 15.5712 20.5557 13.1128 20.5536 12.9554C20.5526 12.8879 20.5633 12.8266 20.5949 12.7672C20.6337 12.6943 20.6676 12.6184 20.7036 12.5437C20.7087 12.5382 20.7153 12.5349 20.7225 12.5342C21.1286 12.7187 21.464 12.9327 21.7698 13.2653C21.7653 13.3856 21.7698 13.5465 21.7722 13.6986Z" fill="#414141"/>
<path d="M20.7239 12.5055H20.7179L20.7119 12.5043C20.7412 12.4298 20.7429 12.3518 20.7426 12.2725C20.7417 12.0357 20.7454 11.7988 20.7432 11.5621C20.7425 11.4758 20.767 11.4058 20.8176 11.3383C21.0677 11.0052 21.3393 10.6911 21.6306 10.3983C21.8157 10.2122 22.0122 10.0392 22.2281 9.89331C22.2692 9.90376 22.2516 9.93217 22.2423 9.95401C22.1099 10.2646 22.1286 10.5902 22.1702 10.9134C22.1885 11.0559 22.2257 11.2027 22.337 11.3073C22.345 11.3139 22.3503 11.3234 22.3519 11.334C22.3536 11.3445 22.3515 11.3554 22.346 11.3644C22.0946 11.4887 21.8972 11.6818 21.7304 11.9136C21.7058 11.9478 21.6876 11.9839 21.6937 12.029C21.6826 12.3112 21.685 12.5931 21.6943 13.0573C21.6939 13.0623 21.6932 13.0673 21.6923 13.0722C21.6551 13.099 21.6309 13.0687 21.608 13.048C21.5086 12.9581 21.4121 12.8648 21.3051 12.7846C21.188 12.6968 21.068 12.6149 20.9382 12.5497C20.8699 12.5155 20.8004 12.4924 20.7239 12.5055Z" fill="#A19D98"/>
<path d="M22.3904 9.8584C22.4405 9.88507 22.4661 9.92962 22.4788 9.98684C22.5112 10.1323 22.5326 10.2803 22.5428 10.4295C22.5602 10.6845 22.5255 10.9312 22.4656 11.176C22.4531 11.227 22.4387 11.2772 22.407 11.3193C22.3753 11.325 22.3655 11.3006 22.3527 11.2773C22.2049 11.0073 22.1782 10.7126 22.1965 10.4091C22.1989 10.3675 22.2052 10.3259 22.2078 10.2839C22.2162 10.1227 22.2814 9.97077 22.3904 9.8584V9.8584Z" fill="#A19D98"/>
<path d="M21.9337 15.645C22.0108 15.681 22.0487 15.7338 22.0518 15.832C22.0674 16.3266 22.0632 16.8212 22.0643 17.3158C22.0643 17.3474 22.0675 17.4793 22.0673 17.5159C22.0661 17.7211 22.0628 17.9264 22.0655 18.1315C22.0664 18.2037 22.0382 18.2449 21.9796 18.271C21.4897 18.4134 20.8535 18.4064 20.4074 18.2551C20.3069 18.2226 20.2801 18.1827 20.2793 18.0723C20.2782 17.9277 20.2793 17.7829 20.2793 17.6382C20.2793 17.5777 20.2803 17.5172 20.2793 17.4566C20.2782 17.3961 20.2942 16.4581 20.2942 16.4292C20.2942 16.2082 20.2957 15.9871 20.2936 15.7661C20.293 15.6966 20.317 15.6548 20.378 15.6257C21.0866 15.3877 21.4584 15.4569 21.9337 15.645Z" fill="#A19D98"/>
<path d="M20.427 16.9474V15.8806C20.427 15.8621 20.4265 15.8437 20.427 15.8252C20.4286 15.7519 20.4344 15.7421 20.5007 15.7163C20.7498 15.6146 21.4782 15.5185 21.8671 15.7914C21.9285 15.8257 21.9383 15.8608 21.9409 15.9438C21.9509 16.1306 21.9335 17.5187 21.9341 18.0533C21.9341 18.0639 21.9341 18.0745 21.9341 18.085C21.9323 18.1612 21.9275 18.1648 21.8547 18.1809C21.4012 18.2812 20.9503 18.268 20.5012 18.1492C20.4347 18.1318 20.4312 18.13 20.4311 18.0534C20.4305 17.8084 20.4305 17.5634 20.4311 17.3184C20.4311 17.1946 20.4311 17.0708 20.4311 16.947L20.427 16.9474Z" fill="#45423D"/>
<path d="M20.7072 12.5203C20.7158 12.4526 20.7548 12.4456 20.8296 12.4642C20.9196 12.4927 21.0056 12.5336 21.0855 12.5859C21.2636 12.6989 21.4341 12.8233 21.5837 12.9776C21.6171 13.0121 21.6559 13.0409 21.6922 13.072C21.6973 13.0948 21.7088 13.1153 21.7252 13.1308C21.7724 13.176 21.7788 13.2283 21.7692 13.2942C21.6907 13.2823 21.6466 13.2325 21.5968 13.174C21.4617 13.0158 21.3038 12.8876 21.1364 12.771C21.0333 12.6991 20.8754 12.6206 20.7609 12.572C20.7216 12.5554 20.7027 12.5564 20.7072 12.5203Z" fill="#DCF9FB"/>
<path d="M22.3902 9.85848C22.4166 9.87383 22.4336 9.88088 22.3655 9.94498C22.2794 10.0271 22.2223 10.2342 22.2281 10.5739C22.2337 10.7991 22.2365 10.9995 22.4067 11.3194C22.3923 11.3431 22.3735 11.3606 22.3458 11.3642C22.0576 11.0627 22.0854 10.1352 22.2278 9.89314C22.2868 9.82817 22.3214 9.82081 22.3902 9.85848Z" fill="#DCF9FB"/>
</g>
</g>
<g clip-path="url(#clip2_1144_296468)">
<path d="M29.2306 35.7375C32.4534 35.7375 35.0461 33.1448 35.0461 29.922C35.0461 26.6992 32.4534 24.1064 29.2306 24.1064C26.0078 24.1064 23.415 26.6992 23.415 29.922C23.415 33.1448 26.0078 35.7375 29.2306 35.7375Z" fill="#2775CA"/>
<path d="M30.8461 30.8927C30.8461 30.095 30.3398 29.8216 29.3271 29.7076C28.6038 29.6164 28.4591 29.4341 28.4591 29.115C28.4591 28.7959 28.7002 28.5909 29.1824 28.5909C29.6164 28.5909 29.8576 28.7276 29.9781 29.0695C30.0022 29.1378 30.0746 29.1834 30.1469 29.1834H30.5326C30.6291 29.1834 30.7014 29.115 30.7014 29.0239V29.0011C30.605 28.4997 30.171 28.1123 29.6164 28.0667V27.5198C29.6164 27.4286 29.5441 27.3602 29.4236 27.3374H29.0619C28.9654 27.3374 28.8931 27.4058 28.869 27.5198V28.0439C28.1456 28.1351 27.6876 28.5909 27.6876 29.1607C27.6876 29.9127 28.1698 30.209 29.1824 30.323C29.8576 30.4369 30.0746 30.5736 30.0746 30.9383C30.0746 31.3029 29.737 31.5536 29.2789 31.5536C28.652 31.5536 28.435 31.3029 28.3626 30.961C28.3386 30.8699 28.2662 30.8243 28.1939 30.8243H27.784C27.6876 30.8243 27.6152 30.8927 27.6152 30.9839V31.0067C27.7116 31.5764 28.0974 31.9866 28.8931 32.1006V32.6476C28.8931 32.7387 28.9654 32.807 29.086 32.8299H29.4476C29.5441 32.8299 29.6164 32.7615 29.6406 32.6476V32.1006C30.3639 31.9866 30.8461 31.508 30.8461 30.8927Z" fill="white"/>
<path d="M28.0436 33.0594C26.2284 32.432 25.2976 30.4822 25.9725 28.7566C26.3215 27.8153 27.0895 27.0982 28.0436 26.762C28.1367 26.7172 28.1832 26.65 28.1832 26.5379V26.2242C28.1832 26.1345 28.1367 26.0673 28.0436 26.0449C28.0203 26.0449 27.9738 26.0449 27.9505 26.0673C25.7398 26.7396 24.5297 29.0031 25.2278 31.1321C25.6467 32.3871 26.6473 33.3508 27.9505 33.7542C28.0436 33.799 28.1367 33.7542 28.1599 33.6645C28.1832 33.6421 28.1832 33.6197 28.1832 33.5749V33.2611C28.1832 33.1939 28.1134 33.1043 28.0436 33.0594ZM30.5103 26.0673C30.4172 26.0225 30.3241 26.0673 30.3009 26.157C30.2776 26.1794 30.2776 26.2018 30.2776 26.2466V26.5603C30.2776 26.65 30.3474 26.7396 30.4172 26.7845C32.2323 27.4119 33.1632 29.3617 32.4883 31.0873C32.1392 32.0286 31.3713 32.7457 30.4172 33.0819C30.3241 33.1267 30.2776 33.1939 30.2776 33.306V33.6197C30.2776 33.7094 30.3241 33.7766 30.4172 33.799C30.4405 33.799 30.487 33.799 30.5103 33.7766C32.721 33.1043 33.9311 30.8408 33.233 28.7118C32.8141 27.4344 31.7902 26.4707 30.5103 26.0673Z" fill="white"/>
</g>
<defs>
<clipPath id="clip0_1144_296468">
<rect x="0.0458984" y="0.262695" width="34.8932" height="34.8932" fill="white"/>
</clipPath>
<clipPath id="clip1_1144_296468">
<rect width="22.2929" height="19.5063" fill="white" transform="translate(6.83057 7.04761)"/>
</clipPath>
<clipPath id="clip2_1144_296468">
<rect x="23.415" y="24.1064" width="11.6311" height="11.6311" fill="white"/>
</clipPath>
</defs>
</svg>
