<svg width="31" height="31" viewBox="0 0 31 31" fill="none" xmlns="http://www.w3.org/2000/svg">
<g clip-path="url(#clip0_1028_249229)">
<path d="M30.4121 15.4219C30.4121 23.4583 23.9485 29.9219 15.9121 29.9219C7.8757 29.9219 1.41211 23.4583 1.41211 15.4219C1.41211 7.38547 7.8757 0.921875 15.9121 0.921875C23.9485 0.921875 30.4121 7.38547 30.4121 15.4219Z" fill="#2775CA" stroke="#F6F6F6"/>
<path d="M20.0789 17.9253C20.0789 15.868 18.773 15.1626 16.161 14.8687C14.2953 14.6336 13.9222 14.1633 13.9222 13.3403C13.9222 12.5172 14.5441 11.9883 15.7879 11.9883C16.9073 11.9883 17.5292 12.341 17.8401 13.2228C17.9024 13.3991 18.0889 13.5166 18.2755 13.5166H19.2704C19.5192 13.5166 19.7058 13.3403 19.7058 13.1053V13.0464C19.457 11.7532 18.3376 10.7539 16.9073 10.6364V9.2256C16.9073 8.99043 16.7207 8.81408 16.4098 8.75525H15.477C15.2282 8.75525 15.0416 8.9316 14.9794 9.2256V10.5776C13.1137 10.8127 11.9322 11.9883 11.9322 13.458C11.9322 15.3978 13.1759 16.1619 15.7879 16.4559C17.5292 16.7497 18.0889 17.1024 18.0889 18.043C18.0889 18.9836 17.2182 19.6301 16.0367 19.6301C14.4197 19.6301 13.8599 18.9834 13.6734 18.1017C13.6113 17.8667 13.4247 17.749 13.2382 17.749H12.1808C11.9322 17.749 11.7456 17.9253 11.7456 18.1605V18.2194C11.9943 19.6888 12.9893 20.7469 15.0416 21.0409V22.4517C15.0416 22.6867 15.2282 22.8631 15.5391 22.9219H16.4719C16.7207 22.9219 16.9073 22.7456 16.9695 22.4517V21.0409C18.8352 20.7469 20.0789 19.5125 20.0789 17.9253Z" fill="white"/>
<path d="M12.8508 23.5144C8.16906 21.8959 5.76812 16.867 7.50886 12.416C8.4092 9.98828 10.3899 8.1386 12.8508 7.27155C13.0909 7.15599 13.2109 6.98258 13.2109 6.69346V5.88426C13.2109 5.653 13.0909 5.47959 12.8508 5.42188C12.7907 5.42188 12.6707 5.42187 12.6107 5.47959C6.90859 7.2137 3.78738 13.052 5.58805 18.5433C6.66845 21.7802 9.24946 24.2658 12.6107 25.3063C12.8508 25.4219 13.0909 25.3063 13.1509 25.0751C13.2109 25.0173 13.2109 24.9595 13.2109 24.8439V24.0346C13.2109 23.8612 13.0309 23.6301 12.8508 23.5144ZM19.2132 5.47959C18.9731 5.36402 18.733 5.47959 18.673 5.71085C18.613 5.7687 18.613 5.82641 18.613 5.94211V6.75131C18.613 6.98258 18.793 7.2137 18.9731 7.3294C23.6548 8.94781 26.0558 13.9767 24.315 18.4277C23.4147 20.8555 21.434 22.7051 18.9731 23.5722C18.733 23.6878 18.613 23.8612 18.613 24.1503V24.9595C18.613 25.1908 18.733 25.3642 18.9731 25.4219C19.0332 25.4219 19.1532 25.4219 19.2132 25.3642C24.9153 23.6301 28.0365 17.7918 26.2358 12.3005C25.1554 9.00566 22.5144 6.52005 19.2132 5.47959Z" fill="white"/>
</g>
<defs>
<clipPath id="clip0_1028_249229">
<rect x="0.912109" y="0.421875" width="30" height="30" fill="white"/>
</clipPath>
</defs>
</svg>
