<svg width="31" height="31" viewBox="0 0 31 31" fill="none" xmlns="http://www.w3.org/2000/svg">
<rect x="0.912109" y="0.84375" width="30" height="30" rx="15" fill="#B7A0EB"/>
<path d="M20.1553 13.5046C19.8478 13.3255 19.4487 13.3255 19.1103 13.5046L16.7112 14.883L15.082 15.7813L12.6828 17.1588C12.3753 17.3388 11.9762 17.3388 11.6378 17.1588L9.73116 16.0805C9.42366 15.9013 9.20866 15.5721 9.20866 15.2121V13.0855C9.20866 12.7263 9.39283 12.3971 9.73116 12.2171L11.6062 11.1688C11.9145 10.9888 12.3145 10.9888 12.6528 11.1688L14.5278 12.2171C14.8362 12.3971 15.0512 12.7263 15.0512 13.0855V14.4638L16.6803 13.5346V12.1571C16.6821 11.9782 16.6342 11.8023 16.542 11.649C16.4497 11.4957 16.3168 11.371 16.1578 11.2888L12.6828 9.31212C12.3753 9.13212 11.9762 9.13212 11.6378 9.31212L8.10116 11.2888C7.94224 11.371 7.80925 11.4957 7.717 11.649C7.62475 11.8023 7.57686 11.9782 7.57866 12.1571V16.1405C7.57866 16.5005 7.76283 16.8296 8.10116 17.0096L11.6378 18.9863C11.9453 19.1655 12.3453 19.1655 12.6828 18.9863L15.082 17.638L16.7112 16.7096L19.1103 15.3621C19.4178 15.1821 19.817 15.1821 20.1553 15.3621L22.0312 16.4105C22.3395 16.5896 22.5537 16.9188 22.5537 17.2788V19.4055C22.5537 19.7646 22.3703 20.0938 22.0312 20.2738L20.1562 21.3521C19.8478 21.5321 19.4478 21.5321 19.1103 21.3521L17.2345 20.3038C16.9262 20.1238 16.7112 19.7946 16.7112 19.4355V18.0571L15.082 18.9863V20.3638C15.082 20.723 15.2662 21.053 15.6045 21.2321L19.1412 23.2088C19.4487 23.3888 19.8478 23.3888 20.1862 23.2088L23.7228 21.2321C24.0303 21.053 24.2453 20.7238 24.2453 20.3638V16.3805C24.2471 16.2015 24.1992 16.0256 24.107 15.8723C24.0147 15.719 23.8817 15.5943 23.7228 15.5121L20.1562 13.5046H20.1553Z" fill="#6F41D8"/>
</svg>
