<svg width="22" height="19" viewBox="0 0 22 19" fill="none" xmlns="http://www.w3.org/2000/svg">
<path d="M19 6.84317V4.54317C19 3.42307 19 2.86301 18.782 2.43519C18.5903 2.05887 18.2843 1.75291 17.908 1.56116C17.4802 1.34317 16.9201 1.34317 15.8 1.34317H4.2C3.0799 1.34317 2.51984 1.34317 2.09202 1.56116C1.7157 1.7529 1.40973 2.05887 1.21799 2.43519C1 2.86301 1 3.42307 1 4.54317V14.1432C1 15.2633 1 15.8233 1.21799 16.2511C1.40973 16.6275 1.71569 16.9334 2.09202 17.1252C2.51984 17.3432 3.07989 17.3432 4.2 17.3432L15.8 17.3432C16.9201 17.3432 17.4802 17.3432 17.908 17.1252C18.2843 16.9334 18.5903 16.6275 18.782 16.2512C19 15.8233 19 15.2633 19 14.1432V11.8432M14 9.34317C14 8.87852 14 8.64619 14.0384 8.45299C14.1962 7.65961 14.8164 7.03941 15.6098 6.8816C15.803 6.84317 16.0353 6.84317 16.5 6.84317H18.5C18.9647 6.84317 19.197 6.84317 19.3902 6.8816C20.1836 7.03941 20.8038 7.65961 20.9616 8.45299C21 8.64619 21 8.87852 21 9.34317C21 9.80783 21 10.0402 20.9616 10.2334C20.8038 11.0267 20.1836 11.6469 19.3902 11.8047C19.197 11.8432 18.9647 11.8432 18.5 11.8432H16.5C16.0353 11.8432 15.803 11.8432 15.6098 11.8047C14.8164 11.6469 14.1962 11.0267 14.0384 10.2333C14 10.0402 14 9.80782 14 9.34317Z" stroke="white" stroke-width="2" stroke-linecap="round" stroke-linejoin="round"/>
</svg>
