<?xml version="1.0" encoding="UTF-8"?>
<svg xmlns="http://www.w3.org/2000/svg" xmlns:xlink="http://www.w3.org/1999/xlink" width="32px" height="33px" viewBox="0 0 32 33" version="1.1">
<g id="surface1">
<path style=" stroke:none;fill-rule:evenodd;fill:rgb(0%,0%,0%);fill-opacity:1;" d="M 15.195312 0.871094 C 14.824219 0.96875 14.4375 1.136719 14.019531 1.386719 C 13.886719 1.464844 12.945312 1.980469 11.929688 2.53125 C 10.25 3.441406 8.011719 4.664062 3.957031 6.878906 C 3.140625 7.324219 2.34375 7.808594 2.183594 7.953125 C 1.859375 8.25 1.527344 8.714844 1.328125 9.152344 C 1.203125 9.433594 1.195312 9.707031 1.179688 16.992188 C 1.160156 24.132812 1.167969 24.546875 1.28125 24.671875 C 1.347656 24.746094 1.710938 24.972656 2.085938 25.175781 C 2.460938 25.378906 3.0625 25.703125 3.417969 25.898438 C 3.777344 26.089844 4.273438 26.328125 4.523438 26.425781 C 5.097656 26.644531 5.492188 26.863281 5.898438 27.179688 C 6.070312 27.316406 6.777344 27.726562 7.464844 28.097656 C 8.15625 28.464844 8.964844 28.902344 9.265625 29.070312 C 10.882812 29.96875 14.132812 31.714844 14.660156 31.96875 L 15.269531 32.257812 L 16.101562 32.257812 C 17.164062 32.257812 16.417969 32.605469 22.632812 29.210938 C 23.703125 28.625 25.457031 27.667969 26.53125 27.085938 C 29.59375 25.414062 29.757812 25.316406 30.085938 25.007812 C 30.445312 24.671875 30.800781 24.070312 30.90625 23.628906 C 30.957031 23.414062 30.976562 21.152344 30.976562 16.46875 C 30.972656 8.785156 31.003906 9.292969 30.457031 8.496094 C 29.960938 7.769531 30.523438 8.101562 21.878906 3.429688 C 19.753906 2.277344 17.863281 1.257812 17.675781 1.15625 C 16.992188 0.789062 15.976562 0.675781 15.195312 0.871094 M 17.300781 1.371094 C 17.582031 1.5 18.121094 1.777344 18.496094 1.984375 C 19.144531 2.34375 20.5625 3.113281 24.683594 5.347656 C 25.679688 5.890625 27.15625 6.683594 27.960938 7.113281 C 29.609375 7.996094 30.003906 8.300781 30.359375 8.980469 C 30.546875 9.339844 30.585938 9.503906 30.636719 10.128906 C 30.671875 10.53125 30.6875 13.660156 30.679688 17.078125 C 30.65625 23.855469 30.671875 23.589844 30.269531 24.242188 C 29.996094 24.679688 29.683594 24.960938 29.164062 25.246094 C 28.898438 25.386719 27.605469 26.09375 26.289062 26.8125 C 24.972656 27.527344 23.296875 28.445312 22.5625 28.84375 C 21.832031 29.242188 20.445312 30 19.488281 30.523438 C 16.863281 31.960938 16.96875 31.914062 16.316406 31.953125 C 15.652344 31.992188 15.195312 31.886719 14.585938 31.558594 C 14.367188 31.441406 13.265625 30.84375 12.136719 30.230469 C 7.910156 27.933594 6.722656 27.296875 6.339844 27.117188 C 5.996094 26.957031 5.949219 26.914062 5.988281 26.792969 C 6.015625 26.71875 6.472656 25.972656 7.007812 25.140625 C 8.882812 22.210938 9.96875 20.523438 10.441406 19.789062 C 11.023438 18.886719 13.941406 14.355469 15.027344 12.664062 C 16.496094 10.378906 16.628906 10.179688 16.757812 10.117188 C 16.835938 10.078125 17.773438 10.058594 19.214844 10.070312 L 21.542969 10.085938 L 21.121094 10.765625 C 20.890625 11.136719 20.371094 11.960938 19.96875 12.601562 C 19.566406 13.238281 18.457031 15.007812 17.507812 16.53125 C 16.554688 18.054688 15.601562 19.578125 15.386719 19.914062 C 15.167969 20.253906 14.308594 21.628906 13.46875 22.976562 C 12.632812 24.324219 11.683594 25.84375 11.363281 26.351562 C 10.910156 27.074219 10.796875 27.300781 10.847656 27.382812 C 10.886719 27.4375 11.269531 27.675781 11.699219 27.910156 C 15.496094 29.984375 15.761719 30.117188 16.035156 30.148438 C 16.378906 30.183594 16.207031 30.265625 18.960938 28.753906 C 20.171875 28.089844 22.007812 27.085938 23.042969 26.523438 C 27.886719 23.890625 28.460938 23.558594 28.59375 23.328125 C 28.710938 23.121094 28.71875 22.789062 28.71875 16.546875 C 28.71875 10.988281 28.703125 9.953125 28.621094 9.765625 C 28.492188 9.480469 28.546875 9.511719 24 7.054688 C 21.914062 5.929688 19.578125 4.664062 18.816406 4.242188 C 16.527344 2.980469 16.3125 2.878906 15.976562 2.914062 C 15.761719 2.9375 15.175781 3.226562 13.636719 4.074219 C 12.511719 4.691406 10.742188 5.660156 9.710938 6.21875 C 5.769531 8.359375 4.0625 9.300781 3.839844 9.457031 C 3.40625 9.761719 3.425781 9.535156 3.417969 15.242188 C 3.414062 18.101562 3.425781 20.457031 3.445312 20.476562 C 3.460938 20.496094 3.574219 20.332031 3.6875 20.117188 C 3.898438 19.726562 4.421875 18.933594 5.574219 17.273438 C 5.902344 16.792969 6.925781 15.304688 7.839844 13.964844 C 8.757812 12.621094 9.621094 11.390625 9.761719 11.230469 C 10.222656 10.695312 11.042969 10.296875 12.035156 10.117188 C 12.445312 10.042969 15.21875 10.003906 15.289062 10.070312 C 15.3125 10.09375 15.171875 10.351562 14.976562 10.648438 C 14.785156 10.941406 14.375 11.558594 14.070312 12.019531 C 13.761719 12.480469 12.316406 14.671875 10.851562 16.886719 C 7.035156 22.65625 5.617188 24.800781 5.367188 25.167969 C 5.25 25.347656 5.085938 25.59375 5.003906 25.722656 C 4.925781 25.847656 4.796875 26.003906 4.722656 26.066406 C 4.589844 26.179688 4.574219 26.175781 4.226562 25.960938 C 4.027344 25.839844 3.386719 25.484375 2.804688 25.167969 C 2.21875 24.855469 1.6875 24.554688 1.625 24.503906 C 1.507812 24.410156 1.503906 24.003906 1.519531 16.957031 L 1.539062 9.507812 L 1.785156 9.023438 C 1.925781 8.746094 2.160156 8.421875 2.332031 8.261719 C 2.507812 8.101562 3.230469 7.660156 4.070312 7.203125 C 6.007812 6.144531 6.878906 5.671875 8.171875 4.964844 C 8.773438 4.636719 9.773438 4.089844 10.394531 3.753906 C 11.015625 3.417969 11.921875 2.925781 12.410156 2.65625 C 15.496094 0.96875 15.183594 1.09375 16.171875 1.117188 C 16.730469 1.132812 16.839844 1.15625 17.300781 1.371094 M 22.503906 11.261719 C 22.597656 11.359375 22.886719 11.757812 23.148438 12.148438 C 23.40625 12.539062 24.570312 14.25 25.734375 15.953125 C 27.988281 19.246094 28.199219 19.578125 28.15625 19.765625 C 28.136719 19.851562 28.046875 19.761719 27.816406 19.433594 C 26.863281 18.054688 23.917969 13.726562 23.25 12.730469 C 22.398438 11.453125 22.257812 11.28125 22.15625 11.382812 C 22.117188 11.417969 21.890625 11.765625 21.652344 12.152344 C 21.414062 12.539062 20.90625 13.359375 20.523438 13.96875 C 20.136719 14.585938 19.828125 15.148438 19.828125 15.238281 C 19.828125 15.339844 20.277344 16.082031 20.96875 17.128906 C 21.59375 18.078125 22.511719 19.476562 23.007812 20.238281 C 23.507812 21 24.296875 22.210938 24.769531 22.925781 C 25.242188 23.640625 25.609375 24.242188 25.589844 24.261719 C 25.472656 24.371094 25.328125 24.203125 24.6875 23.21875 C 24.300781 22.625 23.929688 22.0625 23.859375 21.972656 C 23.792969 21.878906 23.316406 21.152344 22.800781 20.359375 C 22.285156 19.566406 21.34375 18.132812 20.710938 17.171875 C 19.898438 15.941406 19.554688 15.367188 19.554688 15.234375 C 19.554688 15.121094 19.6875 14.835938 19.886719 14.53125 C 20.226562 14.007812 20.792969 13.101562 21.503906 11.957031 C 22.105469 10.988281 22.183594 10.933594 22.503906 11.261719 M 19.222656 16.484375 C 19.277344 16.546875 19.664062 17.105469 20.082031 17.726562 C 20.496094 18.34375 21.15625 19.332031 21.550781 19.914062 C 21.945312 20.5 22.59375 21.472656 23 22.074219 C 23.402344 22.679688 23.945312 23.480469 24.203125 23.855469 C 24.460938 24.234375 24.683594 24.609375 24.695312 24.6875 C 24.722656 24.859375 24.582031 24.933594 24.523438 24.785156 C 24.5 24.726562 24.121094 24.152344 23.679688 23.507812 C 22.367188 21.582031 19.699219 17.605469 19.328125 17.019531 C 19.007812 16.511719 18.980469 16.484375 18.890625 16.601562 C 18.835938 16.667969 18.34375 17.449219 17.796875 18.335938 C 17.25 19.222656 16.667969 20.148438 16.503906 20.394531 C 16.035156 21.097656 15.933594 20.839844 17.75 23.507812 C 19.632812 26.269531 20.246094 27.21875 20.191406 27.269531 C 20.082031 27.371094 19.9375 27.195312 19.082031 25.910156 C 18.617188 25.21875 17.929688 24.195312 17.546875 23.636719 C 16.136719 21.570312 15.929688 21.242188 15.929688 21.054688 C 15.929688 20.933594 16.203125 20.4375 16.710938 19.636719 C 17.136719 18.957031 17.71875 18.023438 18.003906 17.5625 C 18.289062 17.101562 18.585938 16.644531 18.667969 16.546875 C 18.835938 16.34375 19.078125 16.316406 19.222656 16.484375 "/>
</g>
</svg>
