<svg width="110" height="110" viewBox="0 0 110 110" fill="none" xmlns="http://www.w3.org/2000/svg">
<g filter="url(#filter0_d_9_128440)">
<rect x="4" width="102" height="102" rx="20" fill="white"/>
<rect x="4.5" y="0.5" width="101" height="101" rx="19.5" stroke="#E9E9E9"/>
</g>
<g clip-path="url(#clip0_9_128440)">
<path d="M81.3212 59.1879C81.5274 59.353 81.6629 59.4956 81.8659 59.665C81.9889 59.7675 81.9897 59.7675 82.1104 59.6556C82.1942 59.5776 82.2757 59.4959 82.3618 59.4194C82.7087 59.1075 83.1755 59.1226 83.4985 59.4622C83.6271 59.5984 83.7483 59.7422 83.8616 59.8929C84.1408 60.2628 84.113 60.7464 83.7977 61.0831C83.7091 61.1776 83.6152 61.2669 83.5195 61.3531C83.4399 61.4247 83.4371 61.4944 83.4937 61.5842C83.6102 61.7692 83.7232 61.9565 83.8327 62.1462C83.9716 62.3864 84.0952 62.6364 84.2125 62.8889C84.3239 63.1293 84.3239 63.1278 84.5556 63.0502C84.6677 63.0091 84.7818 62.975 84.8975 62.9479C85.2746 62.8708 85.632 63.0647 85.7929 63.4382C85.8905 63.6684 85.9634 63.9096 86.0104 64.1572C86.0797 64.5102 85.8769 64.9017 85.5528 65.0755C85.4271 65.1424 85.2893 65.1715 85.1581 65.2215C84.9993 65.2821 84.9855 65.2941 85.0115 65.459C85.0953 65.9789 85.1544 66.5012 85.1581 67.0293C85.1592 67.1445 85.2 67.2102 85.3136 67.2202C85.4108 67.2287 85.5072 67.2479 85.6042 67.2586C85.9901 67.3011 86.2526 67.5055 86.3669 67.9083C86.3768 67.9433 86.4021 68.6697 86.3684 68.8665C86.2942 69.3012 85.9758 69.611 85.557 69.6286C85.4667 69.633 85.3761 69.6268 85.287 69.6103C85.1219 69.5784 85.0126 69.6522 84.9727 69.8216C84.8745 70.2382 84.7423 70.6429 84.6005 71.0444C84.5586 71.1605 84.5827 71.2624 84.6736 71.3439C84.7211 71.3867 84.904 71.5962 84.9336 71.6659C85.0014 71.8259 84.7079 71.5768 84.6403 71.5353C84.4848 71.4404 82.583 70.3238 81.8749 69.9232C81.9256 69.5252 82.1085 69.016 82.1823 68.6234C82.5577 66.6237 82.1693 64.7996 81.0826 63.1342C80.1786 61.7491 78.9409 60.8631 77.421 60.4237C76.0832 60.0367 74.7573 60.1153 73.4563 60.6205C72.3802 61.0385 71.2017 61.7237 70.5552 62.8026C70.4811 62.8904 70.4461 62.8804 70.329 62.8249C69.9245 62.6103 68.3388 61.5125 67.6942 61.1136C67.4084 60.8085 67.2194 60.3096 67.434 59.9413C67.5871 59.6786 67.7928 59.4656 68.0136 59.2741C68.3239 59.0054 68.7737 59.013 69.103 59.2657C69.5117 59.579 69.5113 59.5776 69.9085 59.2409C70.1157 59.0649 70.3367 58.9089 70.5544 58.7483C70.757 58.5988 70.7721 58.5386 70.677 58.3042C70.418 57.6651 70.5842 57.1793 71.168 56.8634C71.3223 56.7761 71.4836 56.7035 71.6499 56.6463C72.0955 56.5019 72.5063 56.6711 72.7485 57.0933C73.0011 57.5336 72.9998 57.533 73.4754 57.4166C73.7268 57.3549 73.9818 57.3112 74.2355 57.262C74.4892 57.2127 74.5277 57.1702 74.5422 56.9032C74.548 56.7698 74.567 56.6374 74.5989 56.5082C74.666 56.2501 74.7875 56.0237 75.0389 55.9221C75.5184 55.7278 76.0026 55.6906 76.4731 55.946C76.7507 56.0966 76.8801 56.3555 76.8837 56.6911C76.8889 57.194 76.8923 57.1983 77.3542 57.2778C77.6578 57.3302 77.9553 57.4082 78.2538 57.483C78.4803 57.5399 78.5387 57.5176 78.6271 57.2854C78.8504 56.698 79.4058 56.3983 80.0609 56.7404C80.2467 56.8375 80.4416 56.9084 80.6039 57.0648C80.9314 57.3803 80.9544 57.8463 80.8197 58.1861C80.8006 58.234 80.7778 58.2797 80.7592 58.3278C80.6695 58.5638 80.6599 58.7019 80.6599 58.7019C80.6599 58.7019 81.1182 59.025 81.3212 59.1879Z" fill="#5F5F5F"/>
<path d="M81.7693 69.7306C81.9597 69.9245 84.504 71.4043 84.7232 71.544C84.7885 71.5529 84.8388 71.5988 84.8977 71.6242L84.8945 71.622C84.94 71.6655 84.9834 71.7115 85.0244 71.7597L85.0221 71.7566C85.2236 72.0565 85.2224 72.3763 85.1059 72.7074C85.0319 72.8833 84.9429 73.0517 84.8401 73.2103C84.6006 73.5938 84.1586 73.7142 83.77 73.506C83.6518 73.4428 83.5372 73.3723 83.4249 73.2966C83.3434 73.2424 83.2873 73.2569 83.2301 73.3374C82.9187 73.7752 82.5726 74.1839 82.1956 74.5589C82.1196 74.6342 82.1105 74.7002 82.1747 74.7875C82.2482 74.8862 82.3167 74.9894 82.3827 75.0939C82.6513 75.5173 82.579 76.0057 82.1992 76.3195C82.067 76.4285 81.9321 76.5343 81.7919 76.6315C81.4148 76.8917 80.9728 76.8184 80.6856 76.4501C80.6061 76.3467 80.5317 76.2391 80.4627 76.1276C80.4015 76.03 80.3401 76.0077 80.2377 76.0699C79.8065 76.3309 79.3513 76.5368 78.8864 76.719C78.7173 76.7859 78.7188 76.7883 78.7519 76.9762C78.7636 77.0417 78.7729 77.1079 78.7848 77.1732C78.8929 77.724 78.7695 78.0224 78.3164 78.3049C78.1993 78.374 78.065 78.3633 77.9393 78.3985C77.7206 78.4542 77.4993 78.4497 77.2764 78.4379H77.2754C77.2025 78.3996 77.1308 78.3584 77.0594 78.3167C76.8451 78.1266 76.7493 77.8764 76.6938 77.5894C76.6184 77.2008 76.6643 77.2638 76.3276 77.2806C75.8816 77.3028 75.4348 77.3008 74.9889 77.2745C74.8159 77.2643 74.8155 77.2636 74.7757 77.4341C74.7572 77.5134 74.7363 77.5923 74.725 77.673C74.6527 78.1819 74.267 78.5643 73.6524 78.4397C73.5019 78.409 73.353 78.3677 73.2059 78.3216C72.7857 78.1904 72.5427 77.7594 72.6269 77.3015C72.6478 77.1852 72.6734 77.0695 72.6948 76.953C72.7237 76.7946 72.7218 76.7863 72.5722 76.7266C72.2848 76.6118 71.9986 76.4944 71.7221 76.3527C71.5587 76.2689 71.3971 76.1813 71.236 76.0929C71.0684 76.0013 71.0695 76 70.9524 76.1669C70.8895 76.256 70.8309 76.3482 70.7657 76.4342C70.4791 76.8162 70.027 76.8964 69.6451 76.6292C69.4995 76.5274 69.3577 76.4184 69.2211 76.3034C68.8725 76.0093 68.7975 75.5264 69.037 75.1276C69.1082 75.009 69.1874 74.8956 69.2674 74.7835C69.3229 74.7058 69.3265 74.6436 69.255 74.5721C68.8731 74.1916 68.5226 73.7769 68.2076 73.3324C68.1479 73.2478 68.089 73.2482 68.0115 73.2999C67.917 73.363 67.8192 73.4207 67.7211 73.4782C67.2812 73.7329 66.8228 73.6072 66.5645 73.1493C66.4721 72.9853 66.359 72.8349 66.2955 72.6508C66.138 72.1951 66.2708 71.7729 66.6642 71.5188C66.748 71.4649 66.8335 71.415 66.9156 71.3608C67.0608 71.2664 67.0646 71.2637 67.0004 71.0986C66.8674 70.7558 66.753 70.4051 66.6577 70.0484C66.6158 69.8924 66.576 69.7337 66.5412 69.5751C66.5161 69.4592 66.4591 69.4144 66.347 69.4394C66.2578 69.4568 66.1678 69.4694 66.0774 69.4773C65.5453 69.537 65.1508 69.198 65.0953 68.6336C65.08 68.4776 65.0637 68.3237 65.0534 68.1684C65.0391 67.9436 65.1065 67.7216 65.2417 67.5482C65.3768 67.3748 65.5694 67.2632 65.7797 67.2365C65.8972 67.2211 66.0156 67.2113 66.1325 67.1919C66.285 67.1652 66.29 67.1618 66.2924 66.9925C66.2993 66.6217 66.3259 66.2517 66.372 65.8841C66.3912 65.7226 66.4421 65.5655 66.431 65.3999C66.4195 65.2867 66.3743 65.2165 66.2888 65.1811C66.2301 65.163 66.2163 65.1552 66.1289 65.1321C65.9567 65.0875 65.8005 65.0082 65.6758 64.874" fill="#414141"/>
<path d="M66.4389 65.5003C66.4586 65.3869 66.4128 65.2162 66.3032 65.1837C66.2091 65.1556 66.0587 65.0956 65.9653 65.0658C65.5938 64.9466 65.3609 64.6348 65.32 64.2161C65.2729 64.0379 65.4206 63.4612 65.4876 63.2742C65.6376 62.8622 66.0053 62.622 66.4197 62.6886C66.5092 62.7025 66.597 62.7267 66.6815 62.7608C66.838 62.8255 66.9585 62.7747 67.0276 62.6164C67.1982 62.2269 67.4533 61.841 67.6174 61.449C67.7762 61.0702 67.6637 61.1017 67.7192 61.1148C67.8549 61.2391 69.8361 62.2637 70.4606 62.7994C70.0538 63.2673 69.15 65.3864 69.1123 66.0953" fill="#414141"/>
<path d="M70.4836 62.7653C71.7483 61.3113 72.6534 60.6871 73.9017 60.3099C74.6614 60.0785 75.4541 59.9944 76.2418 60.0616C77.5673 60.1751 78.7643 60.6673 79.8183 61.5375C80.7478 62.3051 81.4247 63.2775 81.8864 64.4242C82.1691 65.1257 82.3182 65.8588 82.388 66.6189C82.4879 67.707 82.2688 68.9227 81.9177 69.9371C81.8466 70.0039 80.5532 69.0622 80.4147 68.8788C80.3831 68.7799 80.4223 68.6892 80.446 68.5974C80.5731 68.1018 80.6554 67.5984 80.6408 67.0835C80.5712 64.6085 78.9858 62.5672 76.7932 62.0685C75.175 61.7003 73.4593 62.0718 71.8887 63.7695C71.8491 63.7932 71.8367 63.7421 71.5701 63.5467C71.1224 63.257 70.902 63.0754 70.5961 62.8782C70.4208 62.7695 70.4296 62.8281 70.4836 62.7653Z" fill="#414141"/>
<path d="M81.9437 69.8662C81.9015 69.9376 81.8635 70.0115 81.8297 70.0877C81.444 71.0764 80.8262 71.888 80.0739 72.5754C79.0893 73.4754 77.9471 74.0367 76.6505 74.217C76.333 74.2615 76.0145 74.3099 75.6934 74.2992C74.7651 74.2678 73.8678 74.0859 73.0106 73.6889C72.4668 73.4354 71.9578 73.1049 71.4974 72.7062C70.7807 72.0896 70.1985 71.3487 69.7709 70.4708C69.3781 69.6619 69.1521 68.8065 69.0561 67.9049C68.9723 67.129 69.0381 66.3674 69.1908 65.6078C69.3656 64.7412 69.6915 63.9426 70.1466 63.2026C70.2113 63.0974 70.3996 62.8585 70.4608 62.7986C70.7914 62.9813 71.6939 63.615 71.8386 63.7527C71.9298 63.8795 71.7613 64.0464 71.7092 64.1278C71.4318 64.5589 71.2033 65.0142 71.0564 65.5144C70.5444 67.2571 70.779 68.8791 71.8106 70.3373C72.6712 71.5539 73.8416 72.2209 75.2727 72.3737C77.3115 72.5914 79.4039 71.3603 80.265 69.1873C80.3125 69.0674 80.3006 68.878 80.4942 68.8686C80.6186 69.0206 81.7974 69.7809 81.9437 69.8662Z" fill="#5F5F5F"/>
<path d="M80.4938 68.8684C80.3314 69.3112 80.15 69.7428 79.8955 70.1367C79.0893 71.3846 77.9891 72.1589 76.5882 72.4257C75.1693 72.6957 73.8704 72.3588 72.7157 71.451C71.6998 70.6522 71.0518 69.5774 70.8015 68.2614C70.5059 66.7058 70.8164 65.2744 71.6824 63.9806C71.7147 63.9323 71.7453 63.8835 71.7777 63.8349C71.8104 63.7935 72.2409 63.2881 72.4504 63.1013C73.3787 62.2742 74.4406 61.8502 75.6547 61.8256C77.929 61.7797 79.9805 63.4173 80.5722 65.7967C80.8089 66.7491 80.8026 67.7037 80.5451 68.6534C80.5259 68.7238 80.5108 68.7967 80.4938 68.8684Z" fill="#EDAE50"/>
<path d="M77.065 67.1693C77.1034 67.9837 76.4005 68.6141 75.7337 68.6056C74.9728 68.596 74.3482 67.9612 74.3552 67.1557C74.3617 66.3684 74.9403 65.7173 75.7431 65.7151C76.412 65.7131 77.1021 66.3497 77.065 67.1693Z" fill="#414141"/>
<path d="M77.1418 64.4634C77.2964 64.4467 77.4253 64.5048 77.5323 64.6269C77.627 64.735 77.7288 64.8366 77.8214 64.9469C78.0364 65.2025 77.9052 65.6702 77.627 65.7623C77.5057 65.8024 77.3943 65.805 77.2874 65.7304C77.0585 65.5704 76.8632 65.3681 76.69 65.1461C76.5058 64.9104 76.5994 64.6084 76.873 64.5062C76.959 64.4726 77.0504 64.4581 77.1418 64.4634Z" fill="#FCD38C"/>
<path d="M40.6324 78.3537C40.2553 78.1427 40.0316 77.8147 39.9643 77.3644C39.9413 77.2108 39.9015 77.0606 39.8719 76.9078C39.851 76.8008 39.8003 76.7652 39.6953 76.7741C39.0281 76.8339 38.3575 76.8413 37.6892 76.7964C37.5987 76.7906 37.508 76.7852 37.4181 76.7741C37.3324 76.7638 37.2878 76.8015 37.2702 76.8893C37.2384 77.0488 37.1956 77.2062 37.1709 77.367C37.0945 77.8633 36.8389 78.2044 36.4038 78.3965C36.1253 78.477 35.8471 78.4489 35.5689 78.3941C35.3112 78.343 35.0466 78.3192 34.8131 78.1752C34.7234 78.105 34.627 78.0444 34.5493 77.9573C34.2717 77.6453 34.1569 77.2812 34.2286 76.8563C34.2556 76.6959 34.2914 76.5374 34.3218 76.3775C34.3731 76.1043 34.3727 76.1027 34.1332 76.0127C33.588 75.8066 33.0561 75.5624 32.5411 75.2818C32.4171 75.215 32.2914 75.1481 32.1728 75.0717C32.0823 75.0124 32.0222 75.0249 31.9633 75.1162C31.873 75.2568 31.7729 75.3903 31.6832 75.5318C31.3013 76.135 30.5519 76.3117 29.9628 75.8284C29.8084 75.7016 29.6454 75.5866 29.4906 75.4607C28.944 75.0164 28.8443 74.3085 29.2426 73.7084C29.3469 73.5508 29.4535 73.3948 29.5625 73.2405C29.6142 73.1678 29.6134 73.1083 29.5478 73.0486C29.516 73.0199 29.4875 72.9871 29.4571 72.9564C28.9468 72.4403 28.4754 71.8823 28.0474 71.2876C27.9259 71.1187 27.9248 71.1193 27.7464 71.2285C27.6255 71.3025 27.5052 71.3772 27.3844 71.4514C26.7487 71.8377 26.1173 71.6679 25.7245 71.0057C25.6707 70.921 25.6504 70.8903 25.594 70.7884C25.5247 70.6454 25.4409 70.5112 25.378 70.3633C25.1101 69.732 25.2967 69.086 25.8576 68.7295C25.9891 68.6457 26.1228 68.5655 26.2556 68.4824C26.4324 68.371 26.4343 68.3696 26.3582 68.176C26.1138 67.5531 25.9122 66.9122 25.7549 66.2583C25.7289 66.1507 25.7004 66.0435 25.6795 65.9348C25.6585 65.826 25.599 65.7906 25.4991 65.8042C25.3124 65.8294 25.1256 65.8583 24.9379 65.8697C24.456 65.8993 24.0842 65.6955 23.8326 65.2558C23.7278 65.0749 23.6884 64.8721 23.6708 64.6626C23.6579 64.5067 23.6289 64.3665 23.6191 64.1992C23.5785 63.567 23.9187 62.773 24.6666 62.716C24.8264 62.704 24.9854 62.6783 25.1448 62.6596C25.3292 62.6373 25.3357 62.6358 25.3399 62.4493C25.3519 61.9005 25.3938 61.353 25.4656 60.8095C25.4949 60.5893 25.5284 60.3696 25.5649 60.1508C25.5999 59.9418 25.6001 59.9373 25.4042 59.8691C25.2576 59.8183 25.1109 59.7704 24.9666 59.7183C24.3393 59.4932 24.0155 58.8579 24.1914 58.1819C24.2564 57.9321 24.3362 57.6861 24.4219 57.4432C24.6416 56.8173 25.2433 56.5015 25.8464 56.6909C26.027 56.7475 26.208 56.8041 26.3836 56.8754C26.4959 56.92 26.5457 56.8828 26.5931 56.7774C26.7043 56.5298 26.8252 56.2872 26.9423 56.0432C26.9842 55.9589 27.0228 55.8916 27.0607 55.8143C27.1864 55.5692 27.3198 55.3274 27.4797 55.1042C27.6236 54.9705 51.84 70.1177 51.7717 70.2924C51.7252 70.3816 51.6879 70.4678 51.6433 70.5538C51.5578 70.7151 51.4771 70.8794 51.3862 71.0371C51.0408 71.635 50.4119 71.817 49.8249 71.491C49.6707 71.4052 49.5226 71.3067 49.3711 71.2149C49.2135 71.1196 49.2117 71.1187 49.1046 71.2657C48.8656 71.5942 48.6156 71.9128 48.3546 72.2217C48.121 72.4975 47.874 72.7589 47.6226 73.0158C47.507 73.1339 47.5072 73.1375 47.5962 73.2719C47.6966 73.4234 47.8026 73.5705 47.9021 73.7227C48.288 74.3132 48.1845 75.0235 47.6484 75.4581C47.4766 75.5975 47.302 75.7329 47.1247 75.8641C46.5676 76.2747 45.9058 76.1624 45.494 75.588C45.3892 75.4407 45.2897 75.2876 45.185 75.1394C45.0903 75.0057 45.0867 75.0037 44.948 75.0839C44.3792 75.4151 43.7888 75.7025 43.1813 75.9438C43.0963 75.9773 43.0106 76.0087 42.926 76.043C42.7728 76.1052 42.7699 76.1074 42.8003 76.2881C42.8273 76.4485 42.8499 76.6112 42.8933 76.767C43.055 77.3494 42.7173 78.0529 41.9675 78.3005C41.6434 78.4076 40.9414 78.4854 40.6324 78.3537Z" fill="#414141"/>
<path d="M51.7261 70.3364C51.2175 70.0224 46.6907 67.0559 46.3737 66.8698C46.2017 66.7773 46.2577 66.7662 46.362 66.5578C46.7322 65.7165 46.9814 64.8208 47.1011 63.9006C47.1874 63.2303 47.1828 62.5572 47.1308 61.8822C47.0822 61.2462 46.9698 60.6175 46.7956 60.0069C46.5738 59.2287 46.2528 58.5005 45.8565 57.8046C45.4142 57.0285 44.8509 56.3658 44.2285 55.7546C43.75 55.2847 43.2091 54.9032 42.638 54.5716C41.78 54.0702 40.8463 53.7319 39.8789 53.5718C39.2714 53.4715 38.6582 53.422 38.045 53.4648C36.7401 53.5562 35.5047 53.9212 34.3556 54.593C33.4492 55.1367 32.6379 55.8429 31.9575 56.6805C31.784 56.8942 31.537 57.3195 31.3671 57.5352C31.2695 57.6591 29.6451 56.5383 27.4353 55.1478C27.5168 54.9952 27.5954 54.8704 27.6825 54.7372C27.7368 54.6538 27.7324 54.5908 27.6616 54.5248C27.526 54.3969 27.3909 54.2683 27.2579 54.1373C26.8347 53.7197 26.7358 53.166 27.0008 52.6221C27.0614 52.4975 27.1707 52.2047 27.3375 51.9919C27.4182 51.889 27.507 51.7951 27.5941 51.6991C28.0207 51.2298 28.8499 51.222 29.295 51.6545C29.8339 52.1773 29.763 52.0556 30.2168 51.6855C30.6046 51.3698 30.997 51.0616 31.4072 50.7786C31.628 50.6264 31.6422 50.5529 31.5306 50.2979C31.4061 50.0136 31.294 49.7277 31.3181 49.4028C31.3479 49.0018 31.501 48.6586 31.8092 48.4358C32.2491 48.118 32.7163 47.8564 33.2775 47.8727C33.7412 47.8865 34.0659 48.1316 34.3013 48.5331C34.3851 48.6775 34.4503 48.8353 34.5182 48.9899C34.581 49.1348 34.6828 49.182 34.8255 49.1421C35.4265 48.9748 36.0353 48.848 36.6481 48.7426C36.8708 48.7043 36.9156 48.6347 36.9242 48.3994C36.9283 48.3178 36.9283 48.236 36.9242 48.1543C36.8767 47.4065 37.4214 46.7788 38.0651 46.7353C38.42 46.7113 38.7755 46.6828 39.1279 46.7576C39.646 46.869 40.1559 47.3738 40.1046 48.0668C40.0975 48.1626 40.1027 48.2595 40.1046 48.3564C40.1092 48.6412 40.1595 48.711 40.4241 48.7513C40.9974 48.8366 41.5652 48.9599 42.1241 49.1203C42.4199 49.2063 42.4658 49.1751 42.589 48.881C42.6856 48.6506 42.7823 48.4197 42.9529 48.2348C43.2977 47.8622 43.727 47.802 44.174 47.9072C44.5281 47.9905 44.8607 48.1615 45.1656 48.3727C45.6623 48.7172 45.8433 49.336 45.6411 49.9379C45.5992 50.0633 45.5485 50.1859 45.4957 50.3071C45.391 50.5448 45.4088 50.6317 45.617 50.7719C46.0545 51.0635 46.4757 51.3817 46.8786 51.725C47.32 52.1038 47.2412 52.1613 47.7283 51.6924C48.1549 51.2817 48.8135 51.2327 49.2025 51.5142C49.5968 51.7987 49.9398 52.1575 50.1675 52.606C50.3701 53.0058 50.3428 53.7407 49.9393 54.1099C49.8182 54.2213 49.711 54.3492 49.5985 54.4711C49.5011 54.577 49.4879 54.6926 49.565 54.8134C49.9256 55.3782 50.2484 55.9693 50.531 56.5824C50.6003 56.7328 50.7195 56.7712 50.8661 56.7219C51.0388 56.6627 51.2149 56.6158 51.3934 56.5815C51.8707 56.4924 52.3963 56.7152 52.6414 57.1609C52.8794 57.5925 53.0256 58.0662 53.0405 58.573C53.0566 59.13 52.7958 59.5155 52.3492 59.772C52.2008 59.8552 52.0445 59.9211 51.8828 59.9685C51.7121 60.0202 51.639 60.1308 51.6733 60.3162C51.7938 60.9804 51.8338 61.6531 51.8734 62.3267C51.8839 62.505 51.9649 62.6035 52.1334 62.6086C52.2591 62.6126 52.3829 62.6376 52.5071 62.655C53.1475 62.7441 53.5856 63.274 53.5879 63.9632C53.589 64.0966 53.583 64.23 53.5701 64.3627C53.5491 64.5722 53.4788 64.8724 53.4235 65.0682C53.263 65.6389 52.7216 65.9513 52.1633 65.9136C51.9825 65.9016 51.8028 65.8706 51.6222 65.8517C51.4563 65.8343 51.4479 65.8365 51.4066 66.0117C51.2826 66.5371 51.1475 67.059 50.9701 67.5675C50.8875 67.8039 50.8025 68.0394 50.709 68.2712C50.6671 68.3739 50.6847 68.437 50.7744 68.4907C50.9506 68.5965 51.1282 68.7003 51.2981 68.8173C51.7515 69.1293 51.9388 69.6968 51.7737 70.2385C51.7603 70.2724 51.7444 70.3052 51.7261 70.3364Z" fill="#666059"/>
<path d="M33.2612 58.6246C33.4707 58.3572 33.6695 58.0795 33.8989 57.8288C34.9809 56.6463 36.2884 55.9519 37.8321 55.7672C39.1974 55.6037 40.4927 55.8563 41.6892 56.5723C43.5311 57.6746 44.6296 59.355 44.9762 61.5695C45.1775 62.8561 45.025 64.112 44.5446 65.3177C44.5176 65.3859 44.4983 65.4574 44.4755 65.5274C44.5276 65.6435 44.4769 65.7431 44.4313 65.8438C44.1983 66.3563 43.8918 66.816 43.5371 67.2367C42.5171 68.4467 41.2687 69.2487 39.7536 69.5261C37.7425 69.8942 35.928 69.3993 34.3505 68.0162C33.0711 66.8942 32.3002 65.4416 32.052 63.7C31.8588 62.3443 32.0195 61.0236 32.5476 59.7619C32.6756 59.4559 32.8311 59.1669 32.9876 58.877C33.0515 58.7563 33.1348 58.666 33.2612 58.6246Z" fill="#EDAE50"/>
<path d="M34.4288 62.6197C34.3942 60.1213 36.4035 58.2175 38.5349 58.2059C40.6252 58.1945 42.7114 59.9649 42.7149 62.642C42.7185 65.127 40.8221 67.0157 38.6088 67.0399C36.1975 67.0665 34.3846 64.9502 34.4288 62.6197Z" fill="#45423D"/>
<path d="M42.6411 58.5431C42.6756 58.9117 42.2416 59.2007 41.9399 58.9877C41.7352 58.8433 41.5418 58.6962 41.3797 58.5037C41.1461 58.2269 41.1993 57.9399 41.5087 57.759C41.7379 57.6253 41.9516 57.6157 42.1632 57.8076C42.3122 57.9424 42.4565 58.0785 42.5634 58.2543C42.6175 58.3393 42.6447 58.4405 42.6411 58.5431Z" fill="#FCD38C"/>
<path d="M35.2626 62.6492C35.2113 60.8443 36.5864 59.0839 38.5823 59.0917C40.4468 59.0997 41.9022 60.6901 41.8835 62.6793C41.8653 64.6402 40.3366 66.1777 38.5199 66.1539C36.6361 66.1291 35.2117 64.443 35.2626 62.6492Z" fill="#EDAE50"/>
<path d="M38.5619 64.0637C37.8192 64.0637 37.2002 63.4068 37.2056 62.6153C37.2104 61.8354 37.7786 61.1827 38.5705 61.174C39.2928 61.1662 39.9236 61.8013 39.9196 62.6275C39.9158 63.4326 39.3209 64.0646 38.5619 64.0637Z" fill="#414141"/>
<path d="M40.1298 60.2305C40.2077 60.2305 40.284 60.2396 40.3502 60.2862C40.6382 60.4894 40.7924 60.7719 40.7822 61.1434C40.7767 61.3344 40.5192 61.5351 40.3437 61.4928C40.0468 61.421 39.8049 61.2646 39.6396 60.9834C39.4967 60.7401 39.525 60.5364 39.7391 60.3644C39.8549 60.2721 39.9873 60.2345 40.1298 60.2305Z" fill="#FCD38C"/>
<path d="M33.2616 58.6247C33.0454 58.9886 32.8361 59.3556 32.6689 59.7494C32.3881 60.4137 32.2057 61.1203 32.1282 61.844C32.0254 62.7566 32.0963 63.6819 32.3369 64.5647C32.5774 65.4475 32.9826 66.2697 33.5282 66.9824C34.3578 68.0656 35.4032 68.8119 36.6556 69.2281C37.3815 69.4694 38.129 69.5802 38.8861 69.5269C40.8667 69.3877 42.4819 68.4908 43.7162 66.8307C43.9753 66.4806 44.1988 66.1022 44.383 65.702C44.4107 65.6426 44.4448 65.5864 44.4758 65.5287C44.6481 65.6145 45.9878 66.5348 46.2161 66.7048C46.3068 66.7716 46.2658 66.8608 46.2226 66.9423C45.9874 67.3893 45.7387 67.8274 45.4393 68.2301C44.7851 69.1107 44.0219 69.8614 43.1192 70.4499C42.243 71.0215 41.2805 71.4275 40.2742 71.6501C39.4957 71.8248 38.7072 71.8506 37.9209 71.7985C36.8751 71.7301 35.8729 71.4484 34.9189 70.9776C34.2653 70.6588 33.6528 70.2524 33.0963 69.7683C32.0016 68.8087 31.1526 67.6498 30.6033 66.25C30.2522 65.3515 30.0327 64.4011 29.9524 63.4319C29.8267 61.9864 30.042 60.595 30.5205 59.2427C30.6959 58.7475 30.9271 58.2829 31.1743 57.8261C31.1987 57.7816 31.2259 57.737 31.254 57.6953C31.4042 57.4683 31.4327 57.4611 31.656 57.5966C32.031 57.8241 32.7523 58.2999 33.1195 58.5383C33.1686 58.5638 33.216 58.5927 33.2616 58.6247Z" fill="#666059"/>
<path d="M44.9053 64.0909C45.0947 63.1942 45.1124 62.266 44.9574 61.3618C44.8024 60.4576 44.4778 59.5958 44.003 58.8279C43.2094 57.7394 42.2124 56.8224 41.1061 56.2562C40.4155 55.9398 39.6754 55.7635 38.924 55.7364C36.9403 55.6613 35.2396 56.3603 33.8542 57.8795C33.6363 58.1229 33.4317 58.3792 33.2414 58.6474C33.0784 58.5436 31.5778 57.7294 31.3668 57.5355C31.283 57.4584 31.9373 56.6698 32.2735 56.3015C33.0084 55.4962 33.8391 54.8308 34.7936 54.3435C35.6868 53.8532 36.7079 53.5731 37.7382 53.4566C38.5282 53.3658 39.326 53.3883 40.1103 53.5234C41.1442 53.7046 42.0974 54.1324 43.0014 54.7044C43.6213 55.0921 44.192 55.5625 44.6996 56.1043C45.697 57.177 46.431 58.4217 46.8446 59.8734C47.1081 60.8054 47.2358 61.7748 47.2231 62.7479C47.2095 64.1994 46.867 65.5333 46.3694 66.6073C46.2708 66.8204 46.3602 66.815 46.0743 66.6073C45.7229 66.3399 44.8464 65.7815 44.4764 65.5291C44.4534 65.5104 44.7555 64.806 44.9053 64.0909Z" fill="#45423D"/>
<path d="M35.6945 26.2564C35.542 25.7403 35.4249 25.214 35.2964 24.691C35.2625 24.5533 35.3006 24.5163 35.4387 24.4807C43.0779 22.5046 52.3678 24.0145 57.1391 25.5518C57.8952 25.8404 58.6311 26.1757 59.312 26.6346C59.6074 26.8338 59.8877 27.0532 60.1081 27.3476C60.1695 27.4282 60.2248 27.5139 60.2734 27.6039C60.3888 27.8225 60.4146 28.0428 60.306 28.2819C60.0546 28.8366 59.7812 29.3788 59.4859 29.9086C59.295 30.2535 59.0987 30.5951 58.9051 30.9385C58.814 31.1051 58.7117 31.2646 58.5991 31.4156C58.5004 31.5134 58.3896 31.4664 58.2831 31.441C57.816 31.3296 57.344 31.2424 56.8795 31.1208C56.8454 31.1119 56.8106 31.127 56.776 31.1284C56.2896 30.9608 55.7759 30.9416 55.2819 30.8164C55.2172 30.7999 55.1608 30.8416 55.0988 30.8304C54.2874 30.6626 53.4647 30.578 52.6477 30.4585C52.3603 30.4164 52.0638 30.4387 51.7852 30.3295C51.6788 30.2099 51.6595 30.0534 51.6237 29.9026C51.4178 29.0126 51.1502 28.1489 50.66 27.3819C50.5854 27.2654 50.5044 27.1542 50.4193 27.0459C50.1643 26.7203 49.8599 26.5267 49.4466 26.469C48.3685 26.3181 47.2888 26.1878 46.2059 26.0902C44.4043 25.9268 42.6005 25.899 40.7955 25.9262C39.9047 25.9393 39.0148 26.0024 38.1257 26.0839C37.3895 26.1508 36.655 26.2301 35.9226 26.3333C35.8319 26.3426 35.7536 26.3369 35.6945 26.2564Z" fill="#EDAE50"/>
<path d="M61.0262 41.7944C60.5188 41.7907 60.0114 41.7795 59.5042 41.7871C59.3424 41.7893 59.3066 41.6893 59.2714 41.5656C59.134 41.521 59.1378 41.3873 59.1166 41.2759C58.9526 40.4183 58.7982 39.5581 58.6197 38.7036C58.1808 36.6025 57.6876 34.5164 57.0876 32.4599C56.9844 32.1056 56.8731 31.754 56.7721 31.3988C56.7413 31.2907 56.6827 31.1728 56.782 31.0645C56.8186 31.02 56.8677 31.02 56.9158 31.0291C57.4804 31.1405 58.0446 31.2519 58.5992 31.4128C58.9633 32.5029 59.2695 33.6119 59.5521 34.7285C59.9362 36.246 60.2657 37.7775 60.573 39.3144C60.6874 39.8884 61.0249 41.7802 61.0262 41.7944Z" fill="#45423D"/>
<path d="M35.695 26.2561C36.3622 26.1348 37.0358 26.0644 37.7089 26.0003C38.1943 25.9539 38.6822 25.9243 39.1688 25.8888C40.5209 25.789 41.8743 25.791 43.2272 25.8153C44.2099 25.8329 45.1918 25.8884 46.1729 25.9713C46.8263 26.0266 47.4787 26.0901 48.1296 26.1692C48.6764 26.236 49.219 26.3325 49.766 26.4083C49.9428 26.4326 50.076 26.5248 50.2023 26.6476C50.6379 27.071 50.9454 27.5888 51.187 28.1539C51.4744 28.8255 51.6717 29.5279 51.8027 30.2519C51.7723 30.3535 51.6944 30.3548 51.6156 30.3497C51.268 30.3274 50.9199 30.3013 50.5736 30.267C50.2681 30.2369 49.9614 30.2224 49.6564 30.2042C49.1702 30.1756 48.6833 30.1195 48.1945 30.1482C48.006 30.1596 47.8202 30.109 47.632 30.1059C47.3773 30.1019 47.2981 30.1605 47.2097 30.4116C46.6889 31.8928 46.26 33.4044 45.8832 34.9335C45.3008 37.2955 44.8566 39.6885 44.4831 42.0966C44.383 42.7401 44.3015 43.3868 44.2122 44.0323C44.194 44.1636 44.1806 44.2981 44.102 44.4111C44.0407 44.4766 43.9625 44.4811 43.8875 44.4604C43.5372 44.3641 43.1895 44.2567 42.84 44.1578C42.8127 44.1512 42.7873 44.1376 42.766 44.1182C42.7448 44.0988 42.7283 44.0741 42.7181 44.0463C42.6618 43.8852 42.6972 43.7215 42.7198 43.5628C43.0759 40.9579 43.5119 38.3693 44.0853 35.8083C44.4909 33.9972 44.953 32.2043 45.545 30.4508C45.6347 30.1857 45.5844 30.1086 45.3226 30.1055C44.2847 30.0932 43.2486 30.1315 42.2111 30.1843C41.6899 30.2111 41.1689 30.2338 40.6489 30.2802C40.6141 30.2802 40.5792 30.2815 40.5442 30.2817C40.0014 30.2855 39.9888 30.2982 39.8176 30.8354C38.8215 33.9591 38.1251 37.1611 37.5871 40.4058C37.4263 41.3762 37.2853 42.3497 37.142 43.323C37.129 43.4122 37.1198 43.5 37.067 43.5746C37.0167 43.6609 36.9337 43.6724 36.8504 43.686C36.4175 43.7529 35.9822 43.7995 35.5515 43.8808C35.4545 43.8993 35.3353 43.9213 35.3158 43.7551C35.388 43.2422 35.4603 42.7292 35.5328 42.2162C35.7205 40.8819 35.9331 39.5524 36.1705 38.2276C36.4818 36.4917 36.838 34.7695 37.2779 33.068C37.4874 32.2609 37.7038 31.4556 37.9672 30.6659C38.0593 30.3891 38.0589 30.3891 37.8597 30.1979C37.3791 29.7351 36.9002 29.2705 36.4171 28.8106C36.3283 28.7277 36.2661 28.6174 36.2393 28.4951C36.0756 27.8206 35.9041 27.1483 35.7352 26.4751C35.706 26.4063 35.6923 26.3312 35.6954 26.2558L35.695 26.2561Z" fill="#45423D"/>
<path d="M35.6957 26.2552C35.7213 26.3259 35.7504 26.3956 35.7355 26.4745C35.6936 26.4079 35.6404 26.3424 35.6957 26.2552Z" fill="#A9A9A9"/>
<path d="M46.7868 45.6244C45.984 45.1658 45.1425 44.8044 44.2817 44.4913C44.2033 44.4628 44.121 44.4416 44.0613 44.3732C44.1499 43.7201 44.2318 43.0658 44.3282 42.4141C44.5516 40.9051 44.8126 39.4036 45.1111 37.9096C45.5657 35.6452 46.1095 33.4066 46.8245 31.218C46.9389 30.8677 47.0575 30.519 47.1765 30.1707C47.2366 29.9944 47.2393 29.9938 47.4168 29.9991C48.4068 30.029 49.3967 30.0693 50.3853 30.1353C50.8581 30.1667 51.3301 30.213 51.8026 30.2527C52.5831 30.3325 53.361 30.4347 54.1374 30.5517C54.4673 30.6016 54.7973 30.6475 55.1249 30.7124C55.3135 30.7924 55.4302 30.9457 55.5439 31.1217C55.9763 31.7918 56.3209 32.5153 56.6075 33.2609C56.9075 34.0408 57.182 34.8363 57.3672 35.6605C57.4401 35.985 57.5436 36.3012 57.6186 36.6245C57.8637 37.6885 58.1354 38.7456 58.3336 39.8219C58.4352 40.3738 58.5431 40.9253 58.6769 41.4708C58.7125 41.6159 58.7716 41.7801 58.5959 41.8846C58.577 41.9069 58.5615 41.9348 58.5385 41.9479C58.2276 42.1228 58.0174 42.4076 57.8134 42.698C57.4723 43.1826 57.1346 43.6699 56.7957 44.1564C56.7001 44.2009 56.6214 44.164 56.5432 44.1045C56.135 43.7934 55.723 43.4877 55.3072 43.1875C55.0958 43.0344 55.0795 42.9578 55.2213 42.7318C55.4226 42.411 55.639 42.1012 55.8467 41.785C55.9265 41.6634 56.0119 41.545 56.0771 41.4136C56.1946 41.1751 56.1515 40.9374 55.9709 40.795C55.7903 40.6526 55.5653 40.6816 55.392 40.8881C55.1735 41.1488 55.0013 41.4477 54.8147 41.7349C54.2222 42.643 53.6287 43.5504 53.034 44.4572C52.978 44.5423 52.921 44.6274 52.8831 44.7246C52.7962 44.9452 52.8567 45.1725 53.0329 45.2948C53.2152 45.4214 53.4249 45.3964 53.5793 45.2084C53.7953 44.9454 53.9662 44.6459 54.1541 44.3616C54.274 44.1791 54.3934 43.9964 54.517 43.817C54.6031 43.6922 54.6982 43.6737 54.8222 43.7584C55.2743 44.0675 55.7059 44.4077 56.1469 44.7335C56.2208 44.7881 56.2935 44.8527 56.2906 44.9646C56.1527 45.2037 56.0153 45.4432 55.8764 45.6814C55.8066 45.8011 55.7319 45.9174 55.6629 46.038C55.3761 46.5364 55.3673 47.0518 55.6145 47.5634C56.2803 48.9412 56.9721 50.3042 57.7526 51.6136C57.8498 51.7765 57.9544 51.9338 58.052 52.0958C58.3271 52.5519 58.7379 52.7349 59.2214 52.7502C59.6878 52.765 60.153 52.7106 60.6175 52.6671C60.607 54.7299 60.0519 56.617 59.013 58.3535C58.8674 58.5966 58.71 58.7005 58.4264 58.6916C57.6743 58.6677 56.9212 58.6871 56.1684 58.6893C56.0163 58.667 56.0218 58.524 56.0008 58.4166C55.9116 57.974 55.7943 57.5402 55.6703 57.1077C55.1943 55.4389 54.5041 53.848 53.6193 52.3799C53.3333 51.9053 53.0141 51.4569 52.7147 50.9932C52.4363 50.6069 52.1361 50.239 51.8262 49.882C51.2744 49.2463 50.7017 48.6319 50.0746 48.0771C49.1679 47.2794 48.1968 46.5684 47.1725 45.9524C47.0307 45.8617 46.8606 45.8053 46.7868 45.6244Z" fill="#B9E1E1"/>
<path d="M58.5503 41.9357C58.6083 41.802 58.6033 41.6175 58.5731 41.4916C58.3085 40.3942 56.44 32.7431 55.3833 31.0594C55.2553 30.8553 55.2252 30.8011 55.1244 30.7118C55.6207 30.7528 56.1073 30.8642 56.5992 30.9373C56.6369 30.9419 56.673 30.9559 56.7046 30.9782C56.7362 31.0005 56.7624 31.0303 56.7811 31.0654C57.441 33.1973 58.0072 35.3569 58.4797 37.5442C58.7692 38.8772 59.0662 40.3095 59.3026 41.6545C59.3032 41.6576 59.3043 41.6605 59.3059 41.6632C59.3535 41.757 59.3656 41.7312 59.0893 41.7679C58.9179 41.7913 58.6875 41.8727 58.5503 41.9357Z" fill="#DCF9FB"/>
<path d="M42.7664 44.0206C42.3367 43.9314 41.9074 43.8341 41.4767 43.7556C40.9628 43.6631 40.4447 43.5992 39.9246 43.5642C39.4322 43.5301 38.9441 43.5196 38.451 43.5185C38.1738 43.5185 37.8931 43.5473 37.6142 43.5254C37.5001 43.4323 37.5206 43.306 37.5372 43.1792C37.7737 41.3649 38.0487 39.5584 38.4072 37.7644C38.6586 36.501 38.9416 35.2464 39.29 34.0102C39.6227 32.8292 40.0102 31.6689 40.6109 30.6053C40.7014 30.4453 40.7156 30.313 40.6199 30.163C40.6861 30.1347 40.7565 30.1349 40.8258 30.1316C42.4067 30.0554 43.9873 29.9727 45.5705 29.9881C45.6387 29.9881 45.7098 29.9709 45.7762 30.007C45.8028 30.087 45.7584 30.1523 45.7355 30.2189C45.0375 32.2467 44.51 34.3288 44.0558 36.4321C43.6705 38.2165 43.3506 40.0143 43.0749 41.8212C42.9639 42.5535 42.8694 43.2877 42.7664 44.0206Z" fill="#B9E1E1"/>
<path d="M40.7582 30.1354C41.0412 30.1002 41.0144 30.1167 40.8447 30.425C40.3866 31.2575 40.0007 32.1134 39.7059 33.0166C39.535 33.54 39.3693 34.0683 39.2413 34.6082C39.1015 35.1974 38.9367 35.7796 38.807 36.3719C38.6756 36.9713 38.5648 37.5752 38.4433 38.1769C38.3189 38.793 38.1919 39.4084 38.0972 40.0303C37.9506 40.9959 37.8089 41.9622 37.6723 42.9291C37.6447 43.1259 37.6095 43.324 37.6152 43.5254C37.5446 43.5591 37.061 43.6121 37.0242 43.5254C37.056 43.0515 37.1396 42.5846 37.2085 42.1165C37.3791 40.9595 37.5707 39.8064 37.7834 38.657C38.2797 36.0009 38.8912 33.376 39.7107 30.8108C39.7625 30.6494 39.8237 30.4912 39.8695 30.3281C39.8964 30.2325 39.9498 30.1971 40.0355 30.1944C40.2318 30.1839 40.7234 30.1338 40.7582 30.1354Z" fill="#DCF9FB"/>
<path d="M66.893 62.8097C66.4055 62.7699 65.8623 62.3619 65.4743 63.4156C65.0886 64.4602 65.6555 64.8627 65.57 64.8275C65.5279 64.8218 65.4853 64.8204 65.4429 64.8232C65.1236 64.8272 64.7934 64.7711 64.4748 64.7706C64.3619 64.7156 64.3885 64.6173 64.4073 64.5222C64.5679 63.701 64.8138 62.9013 65.1406 62.1379C65.573 61.137 66.1024 60.1993 66.7656 59.3481C67.6874 58.166 68.7676 57.1866 70.0235 56.4259C71.3307 55.6339 72.7339 55.1442 74.2205 54.9307C74.9386 54.8277 75.6629 54.7892 76.3888 54.8433C76.6642 54.8638 76.8794 54.7444 77.0275 54.5029C77.0878 54.4046 77.1545 54.3297 77.258 54.2907C77.3776 54.2894 77.4863 54.3433 77.6005 54.3705C77.8519 54.4304 77.8781 54.4209 77.9883 54.1789C78.1663 53.788 78.3509 53.401 78.5809 53.0402C78.6375 53.0013 78.6847 52.9489 78.7188 52.8871C79.0169 52.4016 79.3982 52 79.8463 51.6705C79.8589 51.6642 79.873 51.6617 79.8869 51.6633C80.0491 51.6633 80.0914 51.795 80.1305 51.9238C80.3021 52.4887 80.4951 53.044 80.7337 53.5821C81.1288 54.4734 81.6169 55.2979 82.2433 56.0255C82.3367 56.134 82.4547 56.2307 82.4 56.4076C82.0738 57.0167 81.7475 57.6257 81.4212 58.2348C81.3733 58.324 81.3203 58.4109 81.2696 58.4989C81.1788 58.6522 81.0764 58.7975 80.9635 58.9332C80.9341 58.9106 80.903 58.8907 80.8705 58.8737C80.8516 58.8639 80.816 58.8304 80.7978 58.8197C80.4561 58.6221 80.5045 58.6089 80.6746 58.2404C80.7814 58.008 80.837 57.7724 80.7695 57.5104C80.7429 57.4022 80.6955 57.301 80.6304 57.2133C80.5652 57.1255 80.4837 57.053 80.3909 57.0003C80.1724 56.874 79.9458 56.7552 79.6961 56.6995C79.3458 56.6222 78.9798 56.7949 78.8112 57.1318C78.7554 57.2432 78.7165 57.3627 78.6645 57.4763C78.5903 57.6419 78.5476 57.665 78.3861 57.616C77.9562 57.4857 77.5221 57.3792 77.0774 57.3263C77.0355 57.3212 76.9959 57.3041 76.9544 57.3C76.8356 57.2851 76.7855 57.2109 76.7868 57.089C76.7868 56.9703 76.7793 56.8513 76.7868 56.7325C76.8142 56.2835 76.5453 55.98 76.155 55.898C75.8734 55.8387 75.5834 55.8426 75.3034 55.9096C74.9456 55.9954 74.7338 56.2278 74.6839 56.6226C74.6638 56.7692 74.6521 56.9169 74.6487 57.065C74.6466 57.2577 74.6342 57.274 74.4511 57.3121C74.2255 57.3591 73.9978 57.3948 73.772 57.4404C73.539 57.4877 73.3086 57.5466 73.0806 57.6171C72.9325 57.6633 72.8977 57.6448 72.8359 57.4977C72.779 57.3624 72.7255 57.2256 72.6522 57.0988C72.4588 56.7646 72.1092 56.6102 71.7514 56.7082C71.4943 56.7797 71.2497 56.8946 71.027 57.0487C70.7024 57.2715 70.5839 57.6922 70.7213 58.0891C70.7621 58.207 70.8223 58.317 70.87 58.4325C70.9304 58.5778 70.9251 58.6123 70.8053 58.6903C70.3823 58.9657 69.9908 59.2872 69.6013 59.6121C69.4876 59.7073 69.4564 59.7084 69.3499 59.6039C69.2552 59.5055 69.1547 59.4136 69.0491 59.3287C68.7497 59.0983 68.3408 59.0954 68.0595 59.3481C67.8632 59.5246 67.6775 59.7166 67.5378 59.9522C67.326 60.3087 67.3748 60.7321 67.6635 61.0218C67.7802 61.139 67.7923 61.1479 67.9822 61.2858C67.6905 61.596 67.1211 62.4332 66.9544 62.7629" fill="#414141"/>
<path d="M62.9931 64.729C61.8211 64.7277 60.6489 64.7264 59.4765 64.7252C57.6137 64.7252 55.7507 64.7252 53.8876 64.7252C53.4581 64.7252 53.4508 64.7107 53.5105 64.2624C53.5524 63.9357 53.5599 63.6097 53.3875 63.3125C53.2017 62.992 52.9392 62.7866 52.5866 62.7291C52.4146 62.6991 52.241 62.6803 52.0669 62.6729C51.8574 62.6665 51.8195 62.611 51.8117 62.3862C51.7866 61.6597 51.7306 60.9378 51.5993 60.2218C51.5471 59.9388 51.5616 59.915 51.8285 59.8365C52.0445 59.7733 52.2548 59.6946 52.4475 59.5714C52.9264 59.2648 53.067 58.7411 52.9522 58.2028C52.8998 57.9576 52.82 57.7181 52.7427 57.4799C52.5418 56.8618 52.0095 56.5402 51.4059 56.6606C51.1991 56.7018 51.0012 56.772 50.8017 56.8388C50.6381 56.8945 50.6176 56.889 50.5415 56.7198C50.2246 56.0088 49.8506 55.3282 49.4239 54.6854C49.3436 54.5655 49.3478 54.5279 49.47 54.4303C49.6376 54.2952 49.7733 54.1239 49.9288 53.9755C50.3027 53.6189 50.296 52.8684 50.0723 52.5101C49.8615 52.173 49.5944 51.8862 49.3038 51.6342C48.9383 51.3162 48.2972 51.3048 47.8908 51.6935C47.7509 51.8272 47.5921 51.9386 47.4682 52.0912C47.3941 52.1828 47.3256 52.1848 47.2378 52.1059C47.0306 51.919 46.8213 51.7342 46.6064 51.5575C46.2695 51.2808 45.915 51.0314 45.5555 50.7881C45.244 50.5773 45.2585 50.6248 45.4169 50.2756C45.483 50.1366 45.541 49.9934 45.5907 49.8469C45.772 49.2762 45.6077 48.6509 45.0297 48.339C44.7804 48.2053 44.5301 48.0674 44.2613 47.9896C43.8842 47.8804 43.5161 47.9005 43.1847 48.1623C43.0502 48.2699 42.9424 48.4107 42.8704 48.5725C42.7812 48.7655 42.7028 48.964 42.6174 49.1588C42.5526 49.3056 42.5384 49.3148 42.3924 49.266C41.8322 49.0788 41.2594 48.9509 40.6802 48.8531C40.5425 48.8308 40.4045 48.8085 40.2666 48.7875C40.067 48.7568 40.0515 48.7403 40.0479 48.5173C40.0452 48.3319 40.0458 48.1462 40.0479 47.9602C40.0525 47.445 39.7965 47.1134 39.3821 46.8984C39.263 46.8344 39.1326 46.7978 38.9994 46.7908C38.6864 46.7794 38.3728 46.7582 38.0602 46.8131C37.4642 46.9191 37.094 47.3617 37.0756 48.0025C37.071 48.1656 37.0756 48.329 37.0737 48.4927C37.0708 48.743 37.0611 48.7506 36.8347 48.7889C36.1387 48.9061 35.4449 49.034 34.7686 49.2517C34.6073 49.3034 34.588 49.2923 34.5143 49.1229C34.4441 48.9613 34.3756 48.7989 34.3048 48.6374C34.0262 47.9954 33.3801 47.7879 32.7847 48.0188C32.5617 48.1047 32.344 48.2055 32.133 48.3207C31.7867 48.5112 31.5583 48.8054 31.4835 49.2243C31.4451 49.4442 31.4645 49.6712 31.5397 49.8801C31.6046 50.0686 31.6907 50.2466 31.772 50.4273C31.8409 50.5807 31.8332 50.6156 31.7014 50.7005C31.1456 51.0593 30.6265 51.472 30.1197 51.9038C30.0546 51.9593 29.994 52.0221 29.9312 52.0792C29.8229 52.1759 29.7896 52.1757 29.6798 52.0749C29.5585 51.9635 29.4334 51.8561 29.3199 51.736C28.8919 51.2835 28.0905 51.2861 27.6751 51.767C27.5526 51.9087 27.4359 52.0567 27.3102 52.1948C27.1581 52.3619 27.148 52.3562 26.9922 52.2033C26.8598 52.0732 26.5476 51.7813 26.5254 51.7639C26.3174 51.5172 26.326 51.5154 26.5365 51.2625C28.3265 49.1134 30.5958 47.4774 33.1356 46.5049C34.4158 46.0147 35.7334 45.6951 37.0871 45.571C37.914 45.4979 38.7448 45.4896 39.5728 45.546C40.6941 45.6176 41.8054 45.8134 42.8885 46.1303C43.7771 46.3887 44.6414 46.7337 45.4705 47.1609C46.037 47.445 46.5865 47.7661 47.1159 48.1222C47.8574 48.6216 48.5594 49.1847 49.2148 49.8056C49.8419 50.4047 50.4306 51.0475 50.9771 51.73C51.0512 51.8281 51.1206 51.9301 51.1849 52.0357C51.6963 52.6496 52.1067 53.3395 52.4899 54.0452C53.2605 55.4584 53.837 56.9817 54.2018 58.5686C54.3292 59.1237 54.4141 59.687 54.5081 60.2488C54.59 60.739 54.9282 60.9068 55.343 60.6695C55.8634 60.372 56.1937 59.6647 56.1181 59.0384C56.1018 58.9024 56.0134 58.7487 56.1506 58.621C56.2593 58.5559 56.3791 58.5613 56.4975 58.5608C57.126 58.5588 57.7532 58.5522 58.3809 58.564C58.64 58.5689 58.8135 58.4659 58.9524 58.2375C59.4715 57.3821 59.867 56.4487 60.1255 55.4684C60.3294 54.7034 60.476 53.9267 60.5257 53.1312C60.5317 53.0495 60.5304 52.9674 60.5219 52.886C60.511 52.7893 60.5338 52.7098 60.6179 52.6592C60.754 52.6565 61.0519 52.6383 61.0653 52.6369C61.5866 52.6042 61.5866 52.6044 61.5876 53.1617C61.5876 53.5851 61.5851 54.0084 61.5889 54.4305C61.5922 54.8173 61.6892 54.9367 62.0447 55.0321C62.8963 55.2627 63.758 55.3372 64.6364 55.2886C65.042 55.2663 65.4388 55.1888 65.8414 55.1549C65.9247 55.145 66.0063 55.1224 66.0836 55.088C66.3281 54.9884 66.3999 54.8875 66.4035 54.605C66.4098 54.0782 66.4016 53.5514 66.4081 53.0246C66.4096 52.9097 66.3871 52.7835 66.4831 52.6904C66.6413 52.5612 66.7923 52.6599 66.9337 52.7227C67.283 52.8787 67.5457 53.1559 67.787 53.4556C68.2336 54.0107 68.5653 54.6446 68.8797 55.2895C68.9074 55.3414 68.9191 55.4013 68.9132 55.4606C68.9021 55.6048 68.8037 55.6768 68.7038 55.7458C67.8806 56.3116 67.1418 56.9832 66.4621 57.7328C65.6826 58.5918 65.0361 59.5522 64.4887 60.5902C63.8527 61.7957 63.4203 63.0807 63.1649 64.4353C63.1429 64.5487 63.1647 64.7098 62.9931 64.729Z" fill="#45423D"/>
<path d="M62.9927 64.7286C63.0457 64.4757 63.0962 64.2221 63.1519 63.971C63.6074 61.9067 64.4824 60.0643 65.7459 58.4278C66.5848 57.3343 67.5798 56.3874 68.6946 55.6217C68.7587 55.5772 68.8293 55.5415 68.8689 55.4658C68.9191 55.3766 72.7213 52.7742 76.9732 53.6105C77.2263 53.8059 77.256 54.1818 77.1186 54.5225C76.9843 54.855 76.734 54.9597 76.3328 54.9495C75.9626 54.9399 75.5933 54.9187 75.2248 54.9401C74.6052 54.9732 73.9889 55.0566 73.3812 55.1894C71.7165 55.5605 70.2002 56.28 68.84 57.3656C67.2507 58.634 66.0511 60.2381 65.2276 62.1596C64.8938 62.9444 64.6424 63.766 64.4778 64.6094C64.4678 64.66 64.3312 65.4751 64.2893 65.835C64.2512 66.1692 64.1007 66.4023 63.7974 66.5126C63.3518 66.6744 62.8756 66.3285 62.866 65.8281C62.8607 65.5758 62.9119 65.3278 62.9475 65.0791C62.9617 64.9806 62.9772 64.7449 62.9927 64.7286Z" fill="#A19D98"/>
<path d="M59.366 62.9923C58.6058 62.9923 57.8455 62.9948 57.0855 62.9912C56.7293 62.9894 56.4712 62.8044 56.3244 62.4653C56.1775 62.1261 56.2228 61.7968 56.436 61.5024C56.6053 61.2696 56.8475 61.1802 57.1167 61.1711C57.2979 61.1651 57.4793 61.1686 57.6614 61.1689C58.9446 61.1697 60.2278 61.1706 61.5111 61.1715C61.7543 61.1715 61.9808 61.2161 62.1735 61.3917C62.4396 61.6346 62.5479 62.0283 62.437 62.3791C62.3829 62.5569 62.2774 62.712 62.1356 62.8223C61.9938 62.9326 61.8229 62.9926 61.6472 62.9936C60.887 62.9979 60.1269 62.995 59.3667 62.995L59.366 62.9923Z" fill="#FCBE4F"/>
<path d="M35.3152 43.7542C35.3627 43.7945 35.4172 43.7956 35.4731 43.7838C35.9487 43.6849 36.4297 43.6278 36.9111 43.5748C36.953 43.5699 36.9321 43.5706 37.0508 43.5585C38.7415 43.4248 40.995 43.5233 42.7671 44.0211C43.1579 44.1361 43.5515 44.2217 43.9426 44.3358C43.9826 44.3382 45.897 45.0829 46.6407 45.5081C46.7073 45.5587 46.7398 45.5856 46.7874 45.6244C46.8179 45.9892 46.7113 46.2632 46.511 46.5121C46.2322 46.8591 45.8637 47.1078 45.4514 47.2653C44.9212 47.0202 44.3932 46.7691 43.8456 46.5681C42.8766 46.2121 41.8782 45.9539 40.8637 45.7969C39.9797 45.663 39.087 45.6056 38.1943 45.6253C37.141 45.644 36.0923 45.7781 35.0648 46.0253C31.8757 46.7871 28.9841 48.5737 26.782 51.1428C26.7116 51.2252 26.6398 51.3061 26.5692 51.3879C26.4225 51.559 26.3584 51.67 26.2503 51.8061C26.0708 52.0325 25.896 52.2636 25.7211 52.4942C25.3126 53.0324 24.5947 53.0613 24.1474 52.4971C23.8447 52.115 23.896 51.539 24.1424 51.176C24.411 50.7876 24.6982 50.4141 25.0028 50.0569C25.3141 49.6864 25.6174 49.308 25.9587 48.9677C26.437 48.4913 26.9131 48.0111 27.4333 47.5862C29.2096 46.1351 31.1565 45.0285 33.3021 44.3298C33.8691 44.1446 34.445 43.9917 35.0273 43.8716C35.13 43.8511 35.2377 43.8433 35.3152 43.7542Z" fill="#EDAE50"/>
<path d="M52.773 50.928C53.2927 51.582 53.7157 52.3064 54.1242 53.0404C54.6046 53.9039 55.0041 54.8094 55.3424 55.7458C55.6527 56.6055 55.9211 57.4785 56.0996 58.381C56.1205 58.4826 56.1459 58.5815 56.1691 58.6836C56.2158 58.9603 56.2695 59.2344 56.2125 59.5199C56.0958 60.105 55.8218 60.5632 55.2982 60.8183C54.8598 61.032 54.4791 60.8085 54.4075 60.3007C54.2189 58.9637 53.911 57.6583 53.4415 56.3989C52.8861 54.9091 52.1583 53.5244 51.2326 52.2567C51.1907 52.1985 51.1513 52.137 51.1108 52.0771C51.211 51.7235 51.4186 51.4374 51.6182 51.1434C51.7303 50.9783 51.9036 51.0053 52.0481 50.9569C52.2819 50.8787 52.5274 50.8148 52.773 50.928Z" fill="#EDAE50"/>
<path d="M52.6546 50.898C51.5084 50.7995 51.1483 52.0022 51.1116 52.0775C50.6166 51.4362 50.0943 50.822 49.526 50.2525C48.3708 49.0914 47.06 48.1192 45.6365 47.3675C45.5736 47.3348 45.5131 47.3007 45.4513 47.2657C45.5047 47.1988 45.9763 47.1006 46.3695 46.5303C46.7022 46.0479 46.7805 45.7208 46.7872 45.6248C47.1624 45.7747 47.4901 46.0183 47.8303 46.2346C48.4186 46.6055 48.9841 47.0156 49.5235 47.4627C50.0107 47.87 50.4836 48.2943 50.9338 48.7502C51.2424 49.0621 51.5315 49.3926 51.8231 49.7197C52.1625 50.1003 52.5046 50.4831 52.7731 50.9286" fill="#FCD38C"/>
<path d="M82.3824 56.4034C82.2592 56.1846 82.0721 56.0246 81.9215 55.8289C81.1116 54.7783 80.5311 53.5953 80.1224 52.3127C80.0754 52.1654 80.0325 52.0165 79.9856 51.869C79.9659 51.8066 79.951 51.7353 79.8672 51.7375C78.835 50.7972 77.5889 50.2729 76.3686 49.6987C74.5251 48.8323 72.6002 48.2369 70.653 47.7121C69.1257 47.3006 67.5784 46.9953 66.0265 46.713C65.8853 46.6873 65.7342 46.6749 65.6368 46.5347C65.6112 46.4331 65.6112 46.3293 65.611 46.2256C65.6089 44.9979 65.6096 43.7701 65.6129 42.5423C65.6129 42.4086 65.5741 42.2548 65.7099 42.1559C66.016 42.2359 66.3319 42.2359 66.6424 42.2818C67.229 42.3682 67.8193 42.4326 68.4051 42.5269C69.1634 42.6477 69.9243 42.7551 70.6766 42.9155C71.1962 43.0269 71.7184 43.1207 72.2369 43.2384C72.8445 43.3763 73.452 43.5158 74.052 43.6783C75.0522 43.9485 76.0521 44.2228 77.0269 44.5876C77.4148 44.7327 77.7997 44.8893 78.1925 45.0181C78.5928 45.1491 78.9067 45.4108 79.2052 45.7053C79.8546 46.346 80.5024 46.9884 81.1292 47.6542C81.5482 48.0999 81.9693 48.5424 82.3688 49.0086C82.5418 49.2104 82.7333 49.3952 82.9135 49.5915C83.2248 49.9315 83.5145 50.2927 83.8334 50.6256C84.0894 50.893 84.2408 51.2297 84.2597 51.6152C84.2861 52.1567 84.2698 52.6939 84.1405 53.2267C83.9025 54.2072 83.4634 55.072 82.8682 55.8539C82.7191 56.0484 82.5649 56.2398 82.3824 56.4034Z" fill="#EDAE50"/>
<path d="M56.2908 44.9601L54.8485 43.8958C54.8245 43.8806 54.8018 43.8633 54.7806 43.8441C54.6932 43.755 54.6408 43.796 54.5857 43.8887C54.504 44.0264 54.4123 44.1577 54.3243 44.2911C54.1159 44.6064 53.9116 44.9251 53.6973 45.2357C53.5381 45.4663 53.3361 45.5374 53.1132 45.4632C52.7795 45.3518 52.6289 44.9696 52.7941 44.6387C52.8461 44.5345 52.915 44.4395 52.9787 44.3424C53.7124 43.2238 54.4465 42.1054 55.1811 40.9872C55.2272 40.913 55.278 40.8423 55.3332 40.7755C55.5247 40.5563 55.8151 40.522 56.0348 40.6864C56.1417 40.7659 56.2172 40.8846 56.247 41.0196C56.2767 41.1547 56.2585 41.2967 56.1959 41.4184C56.1308 41.5488 56.0472 41.6689 55.9674 41.7903C55.7396 42.1366 55.5096 42.4811 55.2804 42.8262C55.1891 42.964 55.1872 42.9669 55.3177 43.0638C55.8095 43.4283 56.3019 43.7918 56.7949 44.1543L56.2908 44.9601Z" fill="#45423E"/>
<path d="M62.2367 41.8795C62.304 41.9301 62.2996 42.0072 62.2996 42.0801C62.3013 43.3812 62.3013 44.6823 62.2996 45.9832C62.3014 46.0275 62.2942 46.0718 62.2786 46.1131C62.1923 46.2245 62.0691 46.22 61.9527 46.2205C61.5211 46.2227 61.0897 46.1982 60.6588 46.1893C59.4542 46.1616 58.2496 46.1783 57.0435 46.1808C56.9597 46.1808 56.8759 46.1857 56.7982 46.2254C56.7523 46.2476 56.7104 46.2797 56.7169 46.341C56.7234 46.4023 56.7718 46.4212 56.8204 46.4348C56.8542 46.4441 56.889 46.4483 56.9239 46.4475C57.5153 46.4339 58.1063 46.46 58.6988 46.4206C59.2675 46.3825 59.8393 46.394 60.4105 46.4306C60.9033 46.462 61.3977 46.4752 61.8915 46.4941C62.0172 46.4988 62.1429 46.4896 62.2547 46.5692C62.3107 46.8673 62.3983 47.1624 62.3385 47.4728C62.3372 47.5011 62.3296 47.5288 62.3163 47.5534C62.2242 47.6702 62.0809 47.6726 61.9612 47.7257C61.7346 47.826 61.6219 47.9895 61.629 48.2556C61.6615 49.4707 61.5714 50.6844 61.5871 51.8993C61.589 52.0401 61.5917 52.1805 61.6064 52.3209C61.638 52.6244 61.5592 52.7244 61.2712 52.7554C61.1949 52.7634 61.1182 52.7659 61.0407 52.7679C60.9068 52.7699 60.773 52.7705 60.6395 52.7594C60.2478 52.8245 59.8512 52.8291 59.4565 52.8577C58.7247 52.91 58.1872 52.5934 57.8061 51.9218C57.2767 50.9901 56.7429 50.0618 56.2585 49.1021C56.0413 48.6716 55.8396 48.2331 55.6108 47.8083C55.2431 47.126 55.2391 46.4591 55.6688 45.8062C55.8561 45.5217 55.9927 45.201 56.2166 44.9432C56.3409 44.6328 56.542 44.3743 56.7226 44.1018C57.1372 43.4516 57.5746 42.8192 58.0458 42.214C58.1895 42.0293 58.3895 41.9154 58.5741 41.7828C58.8186 41.7124 59.7054 41.6937 59.9304 41.6859C60.1858 41.6767 60.4418 41.6823 60.6976 41.6859C60.8193 41.6868 62.0021 41.755 62.2367 41.8795Z" fill="#EDAE50"/>
<path d="M77.2674 54.3897C77.1884 54.3432 77.1394 54.2783 77.1446 54.176C77.1608 53.8641 76.971 53.7103 76.7389 53.5953C76.4296 53.4755 74.0739 53.2399 71.7319 54.1052C70.9082 54.3888 70.114 54.7429 69.3667 55.2113C69.2291 55.2978 69.0768 55.3564 68.9477 55.46C68.9295 55.4745 68.8949 55.4651 68.8679 55.4669C68.6844 55.1877 68.5627 54.8713 68.3972 54.5809C68.141 54.1317 67.8699 53.6958 67.5236 53.317C67.2512 53.0198 66.9431 52.7918 66.5532 52.7083C66.4459 52.7169 66.43 52.6336 66.4168 52.5523C66.4052 52.4567 66.4012 52.3602 66.4047 52.2639C66.4047 51.5899 66.3934 50.9156 66.4074 50.2418C66.4204 49.604 66.3519 48.9696 66.3603 48.3325C66.3634 48.0901 66.2555 47.9257 66.046 47.8314C65.9626 47.7938 65.8815 47.7507 65.8032 47.7022C65.7435 47.6647 65.6788 47.6262 65.705 47.531L65.7129 47.049C65.7823 46.9468 65.8765 46.9612 65.9771 46.9773C67.1363 47.1627 68.2875 47.3918 69.4308 47.6647C70.8055 47.9954 72.1721 48.3584 73.5103 48.8315C74.5827 49.2103 75.6442 49.6221 76.672 50.1261C77.1593 50.3652 77.6567 50.5849 78.1018 50.9089C78.2694 51.0308 78.4041 51.1928 78.5315 51.3615C78.8349 51.7626 78.7582 52.2283 78.7299 52.6846C78.7213 52.8272 78.6574 52.9596 78.6461 53.1031C78.3837 53.5275 78.1597 53.9774 77.9772 54.4468C77.9399 54.5444 77.8898 54.5805 77.7855 54.543C77.6169 54.482 77.4411 54.4403 77.2674 54.3897Z" fill="#EDAE50"/>
<path d="M78.6482 53.1038C78.5898 52.9846 78.599 52.8555 78.6208 52.7334C78.6664 52.4754 78.6503 52.2162 78.6503 51.9573C78.6503 51.7035 78.5183 51.5065 78.3738 51.3256C78.1922 51.0996 77.9698 50.9148 77.7197 50.7821C76.5497 50.1497 75.3386 49.6234 74.0992 49.1664C73.2034 48.8357 72.2999 48.534 71.3817 48.284C70.2211 47.968 69.0563 47.6765 67.8772 47.4372C67.1997 47.3 66.5172 47.197 65.8393 47.0631C65.7984 47.0551 65.7555 47.0535 65.7148 47.0488C65.7148 46.8854 65.7148 46.7225 65.7148 46.5599C66.1313 46.6021 66.5411 46.6901 66.9521 46.7687C67.4868 46.8709 68.0203 46.9795 68.5529 47.0945C69.112 47.2164 69.6716 47.3347 70.2244 47.4909C70.648 47.6104 71.0767 47.712 71.5013 47.8296C72.5404 48.1175 73.5669 48.4483 74.5809 48.8219C75.4044 49.1254 76.2009 49.5015 77.0018 49.8652C77.7638 50.2127 78.5029 50.6147 79.2138 51.0685C79.4223 51.201 79.614 51.3639 79.8109 51.5166C79.8807 51.5707 79.9433 51.6358 79.8677 51.7367C79.602 51.9872 79.328 52.2269 79.0925 52.5126C78.9356 52.7027 78.7969 52.9066 78.6482 53.1038Z" fill="#FCD38C"/>
<path d="M62.2368 46.116L62.238 46.6047C60.8432 46.4828 58.2429 46.4828 56.9304 46.5615C56.8307 46.5563 56.7313 46.5454 56.6327 46.5287C56.5594 46.5111 56.4465 46.4106 56.4484 46.3478C56.4517 46.2324 56.5142 46.1766 56.595 46.1339C56.6962 46.0799 56.8313 46.0699 56.9451 46.0699C58.2008 46.0699 59.457 46.0499 60.7121 46.0819C61.2199 46.0949 61.7285 46.1029 62.2368 46.116Z" fill="#FCD38C"/>
<path d="M83.7629 52.0426C83.7698 52.5219 83.6791 52.9629 83.5503 53.3961C83.3225 54.1626 82.9513 54.8467 82.4791 55.4708C82.3834 55.5976 82.3783 55.5981 82.2782 55.4728C81.819 54.8986 81.4515 54.262 81.1366 53.5886C80.8999 53.0828 80.7061 52.5587 80.5327 52.0257C80.479 51.8605 80.4853 51.8309 80.6408 51.7462C81.1844 51.4494 81.7542 51.2386 82.362 51.1464C82.6387 51.1043 82.9182 51.1049 83.1949 51.0688C83.2228 51.0662 83.2508 51.0656 83.2787 51.067C83.5421 51.0722 83.5834 51.1078 83.6822 51.363C83.77 51.5902 83.7683 51.826 83.7629 52.0426Z" fill="#FEFEFE"/>
<path d="M65.686 42.2648C65.686 43.6813 65.7015 46.7883 65.734 47.6597C65.6563 47.7649 65.5553 47.7266 65.4642 47.699C64.4821 47.3939 63.4933 47.4391 62.5015 47.6321C62.4177 47.6482 62.3364 47.6702 62.2658 47.5974L62.2606 47.6045C62.2147 47.5376 62.2606 40.6157 62.2547 40.1724C62.252 39.9822 62.282 39.8097 62.371 39.6426C62.4804 39.4371 62.5757 39.2234 62.6773 39.0131C62.6914 38.9978 62.7102 38.9883 62.7303 38.9863C63.8737 39.5057 64.8183 40.1085 65.6791 41.0451C65.6665 41.3835 65.6791 41.8365 65.686 42.2648Z" fill="#414141"/>
<path d="M62.7342 38.9049H62.7172L62.7004 38.9015C62.783 38.6918 62.7878 38.4721 62.787 38.2489C62.7844 37.5822 62.7947 36.9152 62.7886 36.2487C62.7865 36.0056 62.8555 35.8086 62.9981 35.6186C63.7021 34.6806 64.4669 33.7961 65.2871 32.9718C65.8083 32.4477 66.3616 31.9608 66.9695 31.5499C67.0852 31.5793 67.0357 31.6593 67.0095 31.7208C66.6366 32.5952 66.6894 33.5122 66.8065 34.4222C66.8581 34.8233 66.9626 35.2366 67.2762 35.5312C67.2985 35.5498 67.3135 35.5766 67.3182 35.6063C67.3229 35.6361 67.317 35.6666 67.3016 35.6919C66.5935 36.042 66.0377 36.5857 65.5682 37.2383C65.4989 37.3346 65.4475 37.4364 65.4647 37.5634C65.4335 38.3578 65.4404 39.1515 65.4664 40.4587C65.4653 40.4727 65.4635 40.4867 65.461 40.5006C65.3562 40.5761 65.2879 40.4907 65.2234 40.4324C64.9437 40.1792 64.672 39.9165 64.3705 39.6908C64.041 39.4437 63.7031 39.213 63.3377 39.0294C63.1454 38.9332 62.9495 38.8681 62.7342 38.9049Z" fill="#A19D98"/>
<path d="M67.4259 31.4521C67.5671 31.5272 67.6392 31.6527 67.675 31.8138C67.7663 32.2234 67.8264 32.6402 67.855 33.0601C67.9042 33.778 67.8064 34.4728 67.6377 35.162C67.6025 35.3055 67.5621 35.447 67.4726 35.5656C67.3834 35.5816 67.356 35.513 67.3199 35.4473C66.9039 34.687 66.8284 33.8574 66.88 33.0028C66.8869 32.8856 66.9045 32.7684 66.9118 32.6503C66.9354 32.1964 67.119 31.7686 67.4259 31.4521Z" fill="#A19D98"/>
<path d="M66.1408 47.745C66.3579 47.8464 66.4645 47.9953 66.4733 48.2716C66.5173 49.6643 66.5054 51.057 66.5085 52.4494C66.5085 52.5386 66.5175 52.9098 66.5169 53.013C66.5135 53.5908 66.5043 54.1688 66.5119 54.7464C66.5146 54.9496 66.4352 55.0657 66.2701 55.139C64.8908 55.5401 63.0994 55.5202 61.8433 55.0944C61.5602 55.0028 61.4848 54.8905 61.4825 54.5797C61.4796 54.1724 61.4825 53.7648 61.4825 53.3572C61.4825 53.187 61.4854 53.0165 61.4825 52.8461C61.4796 52.6756 61.5244 50.0346 61.5244 49.9533C61.5244 49.3309 61.5288 48.7083 61.5229 48.086C61.5211 47.8903 61.5887 47.7727 61.7605 47.6909C63.7555 47.0206 64.8026 47.2156 66.1408 47.745Z" fill="#A19D98"/>
<path d="M61.8976 51.4127V48.4087C61.8976 48.3568 61.8962 48.3048 61.8976 48.2527C61.902 48.0464 61.9186 48.0187 62.1052 47.9463C62.8066 47.66 64.8576 47.3892 65.9524 48.1576C66.1252 48.2543 66.1529 48.353 66.1604 48.5867C66.1885 49.1128 66.1395 53.021 66.1412 54.5265C66.1412 54.5563 66.1412 54.586 66.1412 54.6156C66.1361 54.8302 66.1225 54.8404 65.9176 54.8857C64.6408 55.168 63.371 55.1308 62.1067 54.7966C61.9194 54.7473 61.9096 54.7424 61.9091 54.5267C61.9075 53.8368 61.9075 53.147 61.9091 52.4573C61.9091 52.1086 61.9091 51.76 61.9091 51.4113L61.8976 51.4127Z" fill="#45423D"/>
<path d="M62.6873 38.9479C62.7116 38.7574 62.8212 38.7376 63.0319 38.7901C63.2852 38.8703 63.5275 38.9854 63.7526 39.1326C64.2539 39.4508 64.7338 39.8011 65.1551 40.2356C65.2492 40.3328 65.3584 40.4139 65.4606 40.5015C65.4749 40.5655 65.5074 40.6233 65.5536 40.667C65.6866 40.7943 65.7046 40.9413 65.6776 41.127C65.4566 41.0935 65.3324 40.9532 65.1922 40.7887C64.8118 40.343 64.3672 39.9823 63.8959 39.6538C63.6055 39.4515 63.161 39.2305 62.8383 39.0936C62.7277 39.0468 62.6745 39.0497 62.6873 38.9479Z" fill="#DCF9FB"/>
<path d="M67.4262 31.452C67.5006 31.4952 67.5485 31.515 67.3566 31.6955C67.1142 31.9268 66.9536 32.51 66.9699 33.4664C66.9856 34.1003 66.9934 34.6647 67.4727 35.5654C67.4323 35.6323 67.3793 35.6815 67.3013 35.6915C66.4897 34.8428 66.5681 32.231 66.9691 31.5496C67.1352 31.3666 67.2324 31.3459 67.4262 31.452Z" fill="#DCF9FB"/>
</g>
<defs>
<filter id="filter0_d_9_128440" x="0" y="0" width="110" height="110" filterUnits="userSpaceOnUse" color-interpolation-filters="sRGB">
<feFlood flood-opacity="0" result="BackgroundImageFix"/>
<feColorMatrix in="SourceAlpha" type="matrix" values="0 0 0 0 0 0 0 0 0 0 0 0 0 0 0 0 0 0 127 0" result="hardAlpha"/>
<feOffset dy="4"/>
<feGaussianBlur stdDeviation="2"/>
<feComposite in2="hardAlpha" operator="out"/>
<feColorMatrix type="matrix" values="0 0 0 0 0 0 0 0 0 0 0 0 0 0 0 0 0 0 0.05 0"/>
<feBlend mode="normal" in2="BackgroundImageFix" result="effect1_dropShadow_9_128440"/>
<feBlend mode="normal" in="SourceGraphic" in2="effect1_dropShadow_9_128440" result="shape"/>
</filter>
<clipPath id="clip0_9_128440">
<rect width="62.7692" height="54.9231" fill="white" transform="translate(23.6154 23.5385)"/>
</clipPath>
</defs>
</svg>
