<svg width="12" height="11" viewBox="0 0 12 11" fill="none" xmlns="http://www.w3.org/2000/svg">
<path d="M1.24977 3.99997H10.75M4.99988 0.999878L3.99985 3.99997L5.99991 9.75013L7.99997 3.99997L6.99994 0.999878M6.30721 9.63139L10.7867 4.25605C10.8626 4.16495 10.9005 4.1194 10.915 4.06855C10.9278 4.02372 10.9278 3.97621 10.915 3.93138C10.9005 3.88053 10.8626 3.83498 10.7867 3.74388L8.61993 1.14381C8.57584 1.0909 8.55379 1.06445 8.52677 1.04543C8.50283 1.02858 8.47611 1.01607 8.44784 1.00846C8.41593 0.999878 8.3815 0.999878 8.31263 0.999878H3.68719C3.61833 0.999878 3.58389 0.999878 3.55198 1.00846C3.52371 1.01607 3.49699 1.02858 3.47305 1.04543C3.44603 1.06445 3.42398 1.0909 3.3799 1.14381L1.21317 3.74388C1.13725 3.83498 1.09929 3.88053 1.08479 3.93138C1.072 3.97621 1.072 4.02372 1.08479 4.06855C1.09929 4.1194 1.13725 4.16495 1.21317 4.25605L5.69261 9.63138C5.79815 9.75802 5.85091 9.82134 5.91408 9.84443C5.96951 9.86469 6.03031 9.86469 6.08574 9.84443C6.14891 9.82134 6.20168 9.75802 6.30721 9.63139Z" stroke="#5DCF46" stroke-width="0.605772" stroke-linecap="round" stroke-linejoin="round"/>
</svg>
