<svg width="14" height="10" viewBox="0 0 14 10" fill="none" xmlns="http://www.w3.org/2000/svg">
<path d="M1.59263 5.51026C1.51433 5.38628 1.47518 5.32429 1.45326 5.22867C1.4368 5.15685 1.4368 5.04359 1.45326 4.97177C1.47518 4.87615 1.51433 4.81416 1.59263 4.69018C2.23969 3.66562 4.1657 1.07556 7.10083 1.07556C10.036 1.07556 11.962 3.66562 12.609 4.69018C12.6873 4.81416 12.7265 4.87615 12.7484 4.97177C12.7648 5.04359 12.7648 5.15685 12.7484 5.22867C12.7265 5.32429 12.6873 5.38628 12.609 5.51026C11.962 6.53481 10.036 9.12488 7.10083 9.12488C4.1657 9.12488 2.23969 6.53481 1.59263 5.51026Z" stroke="#95ACFA" stroke-width="1.1499" stroke-linecap="round" stroke-linejoin="round"/>
<path d="M7.10083 6.82507C8.05344 6.82507 8.82568 6.05283 8.82568 5.10022C8.82568 4.14761 8.05344 3.37537 7.10083 3.37537C6.14822 3.37537 5.37597 4.14761 5.37597 5.10022C5.37597 6.05283 6.14822 6.82507 7.10083 6.82507Z" stroke="#95ACFA" stroke-width="1.1499" stroke-linecap="round" stroke-linejoin="round"/>
</svg>
