<svg width="14" height="12" viewBox="0 0 14 12" fill="none" xmlns="http://www.w3.org/2000/svg">
<path d="M6.52404 2.07074C6.76111 2.03569 7.00568 2.01689 7.25757 2.01689C10.2355 2.01689 12.1896 4.64471 12.8461 5.6842C12.9255 5.81001 12.9652 5.87292 12.9875 5.96995C13.0042 6.04281 13.0042 6.15777 12.9875 6.23064C12.9652 6.32766 12.9252 6.39099 12.8452 6.51763C12.6703 6.79447 12.4036 7.18353 12.0503 7.60549M4.17985 3.01732C2.91864 3.87288 2.06242 5.06152 1.66964 5.6833C1.58982 5.80964 1.54992 5.87282 1.52767 5.96983C1.51096 6.0427 1.51096 6.15764 1.52766 6.23051C1.54989 6.32753 1.58962 6.39044 1.66907 6.51624C2.32556 7.55573 4.27965 10.1836 7.25757 10.1836C8.45831 10.1836 9.49259 9.75632 10.3425 9.17824M2.00757 0.85022L12.5076 11.3502M6.02013 4.86278C5.70344 5.17947 5.50757 5.61697 5.50757 6.10022C5.50757 7.06672 6.29107 7.85022 7.25757 7.85022C7.74082 7.85022 8.17832 7.65435 8.495 7.33766" stroke="#95ACFA" stroke-width="1.16667" stroke-linecap="round" stroke-linejoin="round"/>
</svg>
