<svg width="37" height="37" viewBox="0 0 37 37" fill="none" xmlns="http://www.w3.org/2000/svg">
<g clip-path="url(#clip0_11028_52529)">
<path d="M25.758 0H10.4424C4.67524 0 0 4.67524 0 10.4424V25.758C0 31.5252 4.67524 36.2005 10.4424 36.2005H25.758C31.5252 36.2005 36.2005 31.5252 36.2005 25.758V10.4424C36.2005 4.67524 31.5252 0 25.758 0Z" fill="#F6F6F6"/>
<mask id="mask0_11028_52529" style="mask-type:luminance" maskUnits="userSpaceOnUse" x="6" y="8" width="24" height="20">
<path d="M29.2369 8.35574H6.95966V27.8483H29.2369V8.35574Z" fill="white"/>
</mask>
<g mask="url(#mask0_11028_52529)">
<path d="M27.4417 21.0087C27.5148 21.0673 27.5629 21.1179 27.635 21.178C27.6786 21.2144 27.6789 21.2144 27.7218 21.1747C27.7515 21.147 27.7804 21.118 27.811 21.0909C27.9341 20.9802 28.0997 20.9855 28.2144 21.106C28.2601 21.1543 28.3031 21.2054 28.3433 21.2589C28.4424 21.3902 28.4325 21.5618 28.3206 21.6813C28.2892 21.7148 28.2558 21.7465 28.2219 21.7771C28.1936 21.8025 28.1926 21.8273 28.2127 21.8591C28.2541 21.9248 28.2942 21.9913 28.333 22.0586C28.3823 22.1439 28.4262 22.2326 28.4678 22.3222C28.5074 22.4075 28.5073 22.407 28.5896 22.3795C28.6294 22.3648 28.6699 22.3527 28.711 22.3431C28.8448 22.3158 28.9716 22.3846 29.0287 22.5172C29.0634 22.5989 29.0892 22.6844 29.1059 22.7723C29.1305 22.8976 29.0586 23.0366 28.9435 23.0982C28.8989 23.122 28.85 23.1323 28.8034 23.15C28.7471 23.1715 28.7422 23.1758 28.7514 23.2343C28.7812 23.4188 28.8021 23.6042 28.8034 23.7916C28.8038 23.8326 28.8183 23.8559 28.8586 23.8594C28.8931 23.8624 28.9273 23.8692 28.9617 23.873C29.0987 23.8881 29.1918 23.9606 29.2325 24.1036C29.236 24.116 29.2449 24.3738 29.233 24.4436C29.2066 24.598 29.0937 24.7079 28.945 24.7142C28.9129 24.7157 28.8808 24.7135 28.8492 24.7076C28.7906 24.6964 28.7518 24.7225 28.7376 24.7826C28.7028 24.9305 28.6558 25.0742 28.6055 25.2167C28.5906 25.2579 28.5992 25.294 28.6315 25.3229C28.6483 25.3381 28.7133 25.4124 28.7237 25.4372C28.7478 25.494 28.6437 25.4056 28.6196 25.3908C28.5645 25.3572 27.8895 24.9609 27.6382 24.8187C27.6562 24.6774 27.7211 24.4968 27.7473 24.3574C27.8805 23.6477 27.7427 23.0003 27.357 22.4093C27.0362 21.9177 26.5969 21.6032 26.0575 21.4473C25.5827 21.3099 25.1121 21.3379 24.6504 21.5171C24.2684 21.6655 23.8502 21.9086 23.6208 22.2916C23.5945 22.3227 23.5821 22.3192 23.5404 22.2995C23.3969 22.2233 22.8341 21.8337 22.6054 21.6921C22.5039 21.5839 22.4369 21.4068 22.513 21.276C22.5673 21.1828 22.6404 21.1072 22.7188 21.0393C22.8288 20.9439 22.9885 20.9466 23.1053 21.0363C23.2504 21.1475 23.2503 21.147 23.3913 21.0275C23.4648 20.9651 23.5432 20.9096 23.6205 20.8526C23.6923 20.7996 23.6977 20.7782 23.6639 20.695C23.572 20.4682 23.631 20.2958 23.8383 20.1837C23.893 20.1527 23.9503 20.127 24.0092 20.1066C24.1674 20.0554 24.3132 20.1155 24.3992 20.2653C24.4888 20.4216 24.4884 20.4214 24.6572 20.3801C24.7464 20.3581 24.8368 20.3426 24.9269 20.3251C25.0169 20.3077 25.0306 20.2926 25.0357 20.1978C25.0378 20.1505 25.0446 20.1035 25.0559 20.0576C25.0797 19.9661 25.1228 19.8857 25.2121 19.8497C25.3822 19.7807 25.5541 19.7675 25.721 19.8581C25.8195 19.9116 25.8655 20.0035 25.8668 20.1226C25.8686 20.3011 25.8698 20.3025 26.0337 20.3308C26.1415 20.3494 26.2471 20.377 26.353 20.4036C26.4334 20.4238 26.4542 20.4159 26.4856 20.3335C26.5648 20.125 26.7619 20.0186 26.9944 20.14C27.0604 20.1745 27.1295 20.1996 27.1871 20.2552C27.3033 20.3671 27.3115 20.5325 27.2637 20.6531C27.2569 20.6701 27.2488 20.6863 27.2422 20.7034C27.2104 20.7872 27.207 20.8362 27.207 20.8362C27.207 20.8362 27.3696 20.9509 27.4417 21.0087Z" fill="#5F5F5F"/>
<path d="M27.5998 24.749C27.6674 24.8177 28.5704 25.3429 28.6481 25.3925C28.6713 25.3957 28.6892 25.412 28.7101 25.421L28.709 25.4202C28.7251 25.4357 28.7405 25.4519 28.7551 25.4691L28.7542 25.468C28.8258 25.5744 28.8253 25.6879 28.784 25.8054C28.7577 25.8678 28.7262 25.9276 28.6896 25.9839C28.6046 26.12 28.4478 26.1627 28.3099 26.0889C28.2679 26.0664 28.2272 26.0414 28.1874 26.0145C28.1585 25.9953 28.1386 26.0005 28.1182 26.029C28.0077 26.1844 27.8849 26.3295 27.7511 26.4625C27.7241 26.4892 27.7209 26.5127 27.7437 26.5437C27.7698 26.5787 27.7941 26.6153 27.8175 26.6524C27.9128 26.8026 27.8872 26.9761 27.7524 27.0874C27.7055 27.126 27.6576 27.1636 27.6078 27.1981C27.474 27.2904 27.3171 27.2644 27.2152 27.1337C27.187 27.097 27.1606 27.0588 27.1361 27.0193C27.1144 26.9846 27.0926 26.9767 27.0562 26.9988C26.9032 27.0914 26.7416 27.1645 26.5766 27.2292C26.5166 27.2529 26.5172 27.2538 26.5289 27.3204C26.5331 27.3437 26.5363 27.3672 26.5406 27.3903C26.5789 27.5858 26.5352 27.6917 26.3743 27.792C26.3328 27.8165 26.2851 27.8127 26.2405 27.8252C26.1629 27.845 26.0844 27.8434 26.0052 27.8392C25.9793 27.8257 25.9536 27.811 25.9282 27.7962C25.8521 27.7287 25.8182 27.6399 25.7985 27.5381C25.7717 27.4002 25.788 27.4225 25.6685 27.4285C25.5102 27.4364 25.3517 27.4357 25.1934 27.4263C25.132 27.4227 25.1318 27.4224 25.1177 27.4829C25.1112 27.5111 25.1038 27.5391 25.0997 27.5677C25.074 27.7484 24.9372 27.8841 24.7191 27.8399C24.6657 27.8289 24.6128 27.8143 24.5606 27.7979C24.4114 27.7514 24.3252 27.5984 24.3551 27.4359C24.3626 27.3946 24.3716 27.3536 24.3792 27.3122C24.3894 27.256 24.3888 27.2531 24.3357 27.2318C24.2337 27.1911 24.1321 27.1495 24.034 27.0991C23.976 27.0694 23.9186 27.0384 23.8615 27.007C23.802 26.9745 23.8024 26.974 23.7608 27.0332C23.7385 27.0648 23.7177 27.0976 23.6945 27.1281C23.5928 27.2636 23.4324 27.2921 23.2969 27.1973C23.2452 27.1612 23.1948 27.1225 23.1464 27.0817C23.0227 26.9773 22.996 26.8059 23.081 26.6644C23.1063 26.6223 23.1344 26.582 23.1628 26.5423C23.1825 26.5146 23.1838 26.4926 23.1584 26.4672C23.0229 26.3322 22.8985 26.185 22.7867 26.0273C22.7655 25.9972 22.7445 25.9974 22.717 26.0157C22.6836 26.0381 22.6488 26.0586 22.614 26.079C22.4579 26.1693 22.2952 26.1248 22.2035 25.9622C22.1707 25.904 22.1306 25.8506 22.108 25.7853C22.0521 25.6236 22.0993 25.4737 22.2389 25.3836C22.2687 25.3644 22.299 25.3468 22.3281 25.3275C22.3797 25.294 22.381 25.293 22.3582 25.2345C22.311 25.1128 22.2704 24.9883 22.2366 24.8617C22.2217 24.8063 22.2076 24.7501 22.1953 24.6938C22.1864 24.6526 22.1661 24.6367 22.1264 24.6456C22.0947 24.6518 22.0627 24.6562 22.0306 24.659C21.8418 24.6802 21.7018 24.5599 21.6821 24.3596C21.6766 24.3042 21.6709 24.2496 21.6672 24.1945C21.6622 24.1147 21.6861 24.0359 21.7341 23.9744C21.782 23.9129 21.8504 23.8733 21.925 23.8637C21.9667 23.8583 22.0087 23.8548 22.0502 23.8479C22.1044 23.8384 22.1061 23.8373 22.1069 23.7771C22.1094 23.6455 22.1188 23.5142 22.1352 23.3838C22.142 23.3264 22.1601 23.2707 22.1562 23.212C22.152 23.1717 22.136 23.1469 22.1057 23.1343C22.0849 23.1279 22.0799 23.1251 22.0489 23.1169C21.9878 23.1011 21.9323 23.0729 21.8881 23.0253" fill="#414141"/>
<path d="M22.1569 23.2468C22.1638 23.2065 22.1475 23.1459 22.1087 23.1343C22.0753 23.1244 22.0219 23.1032 21.9887 23.0925C21.8569 23.0503 21.7742 22.9396 21.7597 22.791C21.743 22.7277 21.7954 22.523 21.8192 22.4567C21.8724 22.3104 22.0029 22.2252 22.15 22.2489C22.1818 22.2538 22.2129 22.2624 22.2429 22.2745C22.2985 22.2974 22.3412 22.2794 22.3658 22.2232C22.4263 22.085 22.5168 21.948 22.575 21.8089C22.6314 21.6745 22.5915 21.6856 22.6112 21.6903C22.6593 21.7344 23.3625 22.098 23.5841 22.2882C23.4397 22.4543 23.119 23.2063 23.1057 23.4579" fill="#414141"/>
<path d="M23.5904 22.2787C24.0393 21.7626 24.3605 21.5411 24.8035 21.4072C25.0731 21.3251 25.3544 21.2953 25.634 21.3191C26.1044 21.3594 26.5293 21.534 26.9033 21.8429C27.2332 22.1153 27.4734 22.4604 27.6373 22.8674C27.7376 23.1164 27.7905 23.3766 27.8153 23.6463C27.8507 24.0325 27.773 24.464 27.6484 24.824C27.6232 24.8477 27.1641 24.5135 27.115 24.4484C27.1038 24.4132 27.1177 24.3811 27.1261 24.3485C27.1712 24.1726 27.2005 23.9939 27.1952 23.8112C27.1705 22.9328 26.6078 22.2083 25.8297 22.0313C25.2554 21.9007 24.6464 22.0325 24.089 22.6351C24.075 22.6435 24.0706 22.6253 23.976 22.556C23.817 22.4532 23.7389 22.3887 23.6303 22.3188C23.5681 22.2801 23.5712 22.3009 23.5904 22.2787Z" fill="#414141"/>
<path d="M27.6608 24.7976C27.6459 24.8229 27.6324 24.8491 27.6204 24.8762C27.4835 25.227 27.2642 25.5151 26.9973 25.759C26.6478 26.0784 26.2424 26.2777 25.7822 26.3416C25.6695 26.3575 25.5565 26.3746 25.4425 26.3708C25.1131 26.3597 24.7947 26.2951 24.4904 26.1542C24.2974 26.0643 24.1167 25.9469 23.9534 25.8055C23.699 25.5867 23.4924 25.3237 23.3407 25.0121C23.2012 24.725 23.121 24.4214 23.087 24.1015C23.0572 23.8261 23.0806 23.5558 23.1347 23.2862C23.1968 22.9786 23.3125 22.6952 23.474 22.4326C23.4969 22.3952 23.5638 22.3104 23.5855 22.2892C23.7028 22.354 24.0231 22.579 24.0745 22.6278C24.1069 22.6728 24.0471 22.732 24.0285 22.7609C23.9301 22.914 23.849 23.0755 23.7969 23.2531C23.6152 23.8716 23.6984 24.4472 24.0645 24.9647C24.3699 25.3965 24.7853 25.6332 25.2933 25.6875C26.0168 25.7647 26.7594 25.3278 27.0651 24.5566C27.0819 24.514 27.0777 24.4468 27.1464 24.4435C27.1905 24.4974 27.6089 24.7673 27.6608 24.7976Z" fill="#5F5F5F"/>
<path d="M27.1464 24.4423C27.0887 24.5994 27.0243 24.7526 26.934 24.8925C26.6479 25.3353 26.2574 25.6101 25.7602 25.7048C25.2566 25.8006 24.7956 25.6811 24.3859 25.3589C24.0253 25.0753 23.7953 24.6939 23.7065 24.2269C23.6016 23.6748 23.7118 23.1667 24.0191 22.7076C24.0306 22.6904 24.0414 22.6731 24.053 22.6559C24.0646 22.6411 24.2173 22.4618 24.2917 22.3955C24.6212 22.102 24.9981 21.9514 25.4289 21.9427C26.2361 21.9265 26.9642 22.5077 27.1741 23.3521C27.2582 23.6901 27.2559 24.0289 27.1645 24.366C27.1577 24.3909 27.1524 24.4168 27.1464 24.4423Z" fill="#EDAE50"/>
<path d="M25.9272 23.8409C25.9409 24.1299 25.6914 24.3536 25.4547 24.3506C25.1847 24.3472 24.963 24.1219 24.9655 23.836C24.9678 23.5566 25.1731 23.3255 25.4581 23.3247C25.6955 23.324 25.9404 23.5499 25.9272 23.8409Z" fill="#414141"/>
<path d="M25.953 22.8791C26.0079 22.8731 26.0536 22.8938 26.0916 22.9371C26.1252 22.9755 26.1614 23.0115 26.1942 23.0507C26.2705 23.1414 26.224 23.3074 26.1252 23.3401C26.0822 23.3543 26.0426 23.3552 26.0047 23.3288C25.9234 23.272 25.8542 23.2002 25.7927 23.1214C25.7273 23.0377 25.7605 22.9306 25.8576 22.8943C25.8881 22.8824 25.9206 22.8772 25.953 22.8791Z" fill="#FCD38C"/>
<path d="M12.9988 27.8087C12.865 27.7338 12.7856 27.6174 12.7617 27.4576C12.7536 27.4031 12.7395 27.3498 12.7289 27.2955C12.7215 27.2576 12.7035 27.2449 12.6663 27.2481C12.4295 27.2693 12.1915 27.2719 11.9543 27.256C11.9222 27.254 11.89 27.252 11.8581 27.2481C11.8277 27.2444 11.8118 27.2578 11.8056 27.289C11.7943 27.3456 11.7791 27.4014 11.7703 27.4585C11.7432 27.6346 11.6525 27.7557 11.4981 27.8239C11.3993 27.8525 11.3006 27.8425 11.2018 27.823C11.1104 27.8049 11.0165 27.7964 10.9335 27.7454C10.9017 27.7205 10.8675 27.699 10.8399 27.668C10.7414 27.5573 10.7007 27.4281 10.7261 27.2773C10.7357 27.2203 10.7484 27.1641 10.7592 27.1073C10.7774 27.0104 10.7773 27.0098 10.6923 26.9779C10.4987 26.9047 10.31 26.818 10.1272 26.7185C10.0832 26.6947 10.0386 26.671 9.99651 26.6439C9.96435 26.6228 9.94304 26.6273 9.92216 26.6597C9.89006 26.7096 9.85456 26.757 9.82275 26.8072C9.6872 27.0212 9.4212 27.084 9.21214 26.9124C9.15735 26.8675 9.0995 26.8267 9.04458 26.782C8.85055 26.6243 8.81519 26.373 8.95651 26.1601C8.99355 26.1041 9.03142 26.0488 9.07006 25.994C9.08843 25.9682 9.08816 25.9471 9.06483 25.9259C9.05356 25.9157 9.04346 25.904 9.03267 25.8932C8.85153 25.71 8.68424 25.512 8.53234 25.3009C8.48925 25.2409 8.48883 25.2411 8.42555 25.2799C8.38259 25.3062 8.33992 25.3327 8.29704 25.359C8.07148 25.4962 7.84738 25.4359 7.70794 25.2008C7.68887 25.1708 7.68163 25.1599 7.66165 25.1237C7.637 25.073 7.60728 25.0253 7.585 24.9728C7.48991 24.7488 7.55611 24.5195 7.75514 24.393C7.80186 24.3633 7.84926 24.3348 7.89646 24.3053C7.95919 24.2658 7.95988 24.2653 7.93287 24.1966C7.84613 23.9755 7.77457 23.748 7.71873 23.516C7.70954 23.4778 7.69938 23.4398 7.69193 23.4011C7.68455 23.3626 7.66339 23.35 7.62795 23.3548C7.56168 23.3637 7.4954 23.374 7.42878 23.3781C7.25773 23.3886 7.12581 23.3162 7.03649 23.1602C6.99932 23.0959 6.98533 23.024 6.97906 22.9497C6.97447 22.8943 6.96423 22.8445 6.96075 22.7852C6.9463 22.5608 7.06706 22.279 7.3325 22.2588C7.38924 22.2545 7.44563 22.2454 7.50223 22.2387C7.56767 22.2309 7.56996 22.2303 7.57143 22.1641C7.57567 21.9694 7.59057 21.775 7.61605 21.5821C7.62649 21.504 7.63833 21.426 7.65128 21.3483C7.66374 21.2742 7.66381 21.2726 7.59426 21.2484C7.54226 21.2303 7.49018 21.2134 7.43895 21.1948C7.21631 21.115 7.10138 20.8895 7.16382 20.6496C7.18687 20.5609 7.2152 20.4736 7.24562 20.3874C7.32366 20.1653 7.53717 20.0532 7.75124 20.1205C7.81529 20.1405 7.87955 20.1606 7.94185 20.1859C7.98174 20.2018 7.99943 20.1885 8.0162 20.1511C8.05568 20.0632 8.09856 19.9771 8.14012 19.8905C8.15502 19.8606 8.16873 19.8368 8.18217 19.8093C8.22679 19.7223 8.27413 19.6366 8.33087 19.5573C8.38197 19.5098 16.9765 24.8857 16.9523 24.9477C16.9358 24.9793 16.9225 25.01 16.9067 25.0404C16.8763 25.0977 16.8477 25.156 16.8154 25.212C16.6928 25.4242 16.4696 25.4888 16.2613 25.3731C16.2066 25.3426 16.154 25.3077 16.1003 25.2751C16.0444 25.2413 16.0437 25.2409 16.0057 25.2932C15.9209 25.4097 15.8322 25.5228 15.7395 25.6324C15.6566 25.7303 15.5689 25.8231 15.4798 25.9143C15.4387 25.9562 15.4388 25.9574 15.4704 26.0051C15.506 26.0589 15.5436 26.1111 15.5789 26.1651C15.7159 26.3747 15.6791 26.6268 15.4889 26.781C15.4279 26.8305 15.3659 26.8785 15.303 26.9251C15.1053 27.0709 14.8704 27.031 14.7242 26.8271C14.687 26.7749 14.6517 26.7205 14.6146 26.6679C14.5809 26.6205 14.5797 26.6198 14.5305 26.6482C14.3286 26.7657 14.1191 26.8677 13.9035 26.9534C13.8733 26.9653 13.8429 26.9764 13.8129 26.9886C13.7585 27.0107 13.7575 27.0115 13.7682 27.0756C13.7779 27.1326 13.7859 27.1903 13.8012 27.2455C13.8587 27.4523 13.7388 27.7019 13.4727 27.7898C13.3577 27.8278 13.1085 27.8554 12.9988 27.8087Z" fill="#414141"/>
<path d="M16.9346 24.9655C16.7541 24.854 15.1475 23.8012 15.035 23.7351C14.974 23.7023 14.9939 23.6984 15.0309 23.6244C15.1623 23.3259 15.2507 23.0079 15.2932 22.6814C15.3238 22.4435 15.3222 22.2046 15.3037 21.965C15.2865 21.7393 15.2466 21.5162 15.1848 21.2995C15.106 21.0233 14.9921 20.7648 14.8515 20.5179C14.6945 20.2424 14.4946 20.0073 14.2737 19.7903C14.1039 19.6235 13.9119 19.4881 13.7092 19.3705C13.4047 19.1925 13.0733 19.0724 12.73 19.0156C12.5144 18.98 12.2968 18.9625 12.0791 18.9776C11.616 19.0101 11.1776 19.1396 10.7698 19.3781C10.448 19.571 10.1601 19.8217 9.91863 20.1189C9.85709 20.1947 9.76944 20.3457 9.70908 20.4222C9.67448 20.4662 9.09792 20.0684 8.3137 19.5749C8.34259 19.5208 8.3705 19.4765 8.40141 19.4292C8.4207 19.3996 8.41909 19.3772 8.39396 19.3538C8.34586 19.3084 8.29789 19.2628 8.25069 19.2163C8.10053 19.0681 8.06544 18.8716 8.1595 18.6786C8.18094 18.6344 8.21978 18.5304 8.27896 18.4549C8.30757 18.4183 8.33911 18.3851 8.37001 18.3509C8.52143 18.1844 8.8157 18.1816 8.97373 18.3351C9.16496 18.5207 9.13983 18.4775 9.30085 18.3461C9.43849 18.2341 9.57772 18.1247 9.72329 18.0243C9.80167 17.9703 9.80676 17.9442 9.76707 17.8537C9.72294 17.7528 9.68319 17.6513 9.69168 17.536C9.70226 17.3937 9.75663 17.2719 9.866 17.1928C10.0221 17.08 10.1879 16.9872 10.3871 16.9929C10.5516 16.9979 10.6669 17.0848 10.7505 17.2273C10.7802 17.2786 10.8033 17.3346 10.8274 17.3895C10.8497 17.4409 10.8859 17.4576 10.9365 17.4435C11.1498 17.3841 11.3659 17.3391 11.5834 17.3017C11.6624 17.2881 11.6783 17.2634 11.6814 17.1799C11.6828 17.1509 11.6828 17.1219 11.6814 17.0929C11.6645 16.8275 11.8578 16.6047 12.0863 16.5893C12.2122 16.5807 12.3384 16.5706 12.4635 16.5972C12.6473 16.6368 12.8283 16.8159 12.8101 17.0619C12.8076 17.0958 12.8094 17.1302 12.8101 17.1646C12.8117 17.2657 12.8296 17.2905 12.9235 17.3048C13.127 17.335 13.3284 17.3788 13.5268 17.4358C13.6318 17.4663 13.6481 17.4552 13.6918 17.3508C13.7261 17.269 13.7604 17.1871 13.821 17.1215C13.9434 16.9893 14.0957 16.9679 14.2543 17.0052C14.38 17.0348 14.4981 17.0954 14.6062 17.1704C14.7825 17.2927 14.8468 17.5123 14.7751 17.7259C14.7602 17.7704 14.7422 17.8139 14.7234 17.8569C14.6862 17.9413 14.6926 17.9722 14.7665 18.0219C14.9217 18.1254 15.0712 18.2383 15.2142 18.3601C15.3709 18.4946 15.3429 18.515 15.5158 18.3486C15.6672 18.2029 15.901 18.1855 16.039 18.2854C16.1789 18.3863 16.3006 18.5136 16.3815 18.6729C16.4534 18.8147 16.4437 19.0755 16.3005 19.2066C16.2575 19.2461 16.2195 19.2915 16.1795 19.3348C16.145 19.3724 16.1403 19.4134 16.1677 19.4562C16.2956 19.6567 16.4102 19.8665 16.5105 20.0841C16.5351 20.1375 16.5774 20.1511 16.6294 20.1336C16.6907 20.1126 16.7532 20.0959 16.8166 20.0838C16.9859 20.0522 17.1725 20.1312 17.2595 20.2894C17.344 20.4426 17.3958 20.6107 17.4011 20.7906C17.4068 20.9883 17.3143 21.1251 17.1557 21.2161C17.1031 21.2456 17.0476 21.269 16.9903 21.2858C16.9297 21.3042 16.9037 21.3434 16.9159 21.4092C16.9586 21.645 16.9728 21.8837 16.9869 22.1228C16.9906 22.186 17.0194 22.221 17.0791 22.2229C17.1238 22.2243 17.1677 22.2331 17.2118 22.2393C17.4391 22.2709 17.5946 22.459 17.5954 22.7036C17.5958 22.751 17.5937 22.7983 17.5891 22.8454C17.5816 22.9197 17.5566 23.0262 17.537 23.0958C17.4801 23.2983 17.2879 23.4092 17.0898 23.3958C17.0256 23.3915 16.9618 23.3805 16.8977 23.3738C16.8389 23.3676 16.8359 23.3685 16.8212 23.4306C16.7772 23.6171 16.7293 23.8023 16.6663 23.9828C16.637 24.0666 16.6068 24.1503 16.5737 24.2325C16.5588 24.269 16.565 24.2914 16.5968 24.3104C16.6594 24.348 16.7224 24.3848 16.7827 24.4264C16.9436 24.537 17.0101 24.7385 16.9515 24.9307C16.9467 24.9428 16.9411 24.9544 16.9346 24.9655Z" fill="#666059"/>
<path d="M10.3812 20.8076C10.4555 20.7127 10.5261 20.6142 10.6075 20.5252C10.9916 20.1055 11.4556 19.8591 12.0034 19.7935C12.488 19.7355 12.9477 19.8252 13.3724 20.0793C14.0261 20.4705 14.4159 21.0668 14.5389 21.8528C14.6104 22.3094 14.5563 22.7551 14.3858 23.183C14.3762 23.2072 14.3693 23.2327 14.3612 23.2574C14.3797 23.2987 14.3618 23.334 14.3455 23.3697C14.2628 23.5516 14.1541 23.7148 14.0282 23.8641C13.6662 24.2935 13.2231 24.5781 12.6854 24.6766C11.9716 24.8072 11.3277 24.6316 10.7678 24.1407C10.3138 23.7425 10.0401 23.227 9.95205 22.6089C9.88348 22.1278 9.9405 21.659 10.128 21.2112C10.1734 21.1027 10.2286 21.0001 10.2841 20.8972C10.3067 20.8544 10.3363 20.8223 10.3812 20.8076Z" fill="#EDAE50"/>
<path d="M10.7976 22.2264C10.7854 21.3397 11.4985 20.664 12.2549 20.6599C12.9968 20.6559 13.7372 21.2842 13.7385 22.2343C13.7398 23.1162 13.0667 23.7866 12.2812 23.7952C11.4254 23.8046 10.782 23.0535 10.7976 22.2264Z" fill="#45423D"/>
<path d="M13.7118 20.7784C13.7241 20.9092 13.57 21.0118 13.4629 20.9362C13.3903 20.8849 13.3217 20.8327 13.2641 20.7644C13.1812 20.6662 13.2001 20.5643 13.3099 20.5001C13.3912 20.4526 13.4671 20.4493 13.5422 20.5174C13.5951 20.5652 13.6463 20.6135 13.6842 20.6759C13.7034 20.7061 13.7131 20.7419 13.7118 20.7784Z" fill="#FCD38C"/>
<path d="M11.0922 22.2368C11.074 21.5963 11.562 20.9715 12.2704 20.9743C12.9321 20.9771 13.4486 21.5416 13.442 22.2475C13.4355 22.9434 12.893 23.4891 12.2482 23.4806C11.5796 23.4719 11.0741 22.8735 11.0922 22.2368Z" fill="#EDAE50"/>
<path d="M12.2667 22.7385C12.0031 22.7385 11.7834 22.5053 11.7854 22.2244C11.7871 21.9476 11.9887 21.716 12.2697 21.7129C12.5261 21.7102 12.75 21.9355 12.7486 22.2288C12.7472 22.5145 12.5361 22.7388 12.2667 22.7385Z" fill="#414141"/>
<path d="M12.8192 21.3784C12.8468 21.3784 12.8739 21.3817 12.8973 21.3982C12.9996 21.4703 13.0543 21.5706 13.0507 21.7024C13.0487 21.7702 12.9573 21.8415 12.895 21.8264C12.7897 21.8009 12.7038 21.7455 12.6452 21.6456C12.5944 21.5593 12.6045 21.487 12.6805 21.4259C12.7216 21.3932 12.7686 21.3798 12.8192 21.3784Z" fill="#FCD38C"/>
<path d="M10.3823 20.8095C10.3056 20.9386 10.2313 21.0689 10.172 21.2086C10.0723 21.4444 10.0076 21.6951 9.98007 21.952C9.94359 22.2759 9.96879 22.6043 10.0541 22.9176C10.1395 23.2309 10.2833 23.5227 10.477 23.7757C10.7714 24.1601 11.1424 24.4249 11.5869 24.5727C11.8445 24.6584 12.1098 24.6976 12.3785 24.6788C13.0814 24.6293 13.6547 24.311 14.0927 23.7218C14.1847 23.5975 14.264 23.4633 14.3294 23.3212C14.3392 23.3001 14.3513 23.2802 14.3623 23.2598C14.4235 23.2902 14.8989 23.6168 14.98 23.6771C15.0121 23.7009 14.9976 23.7325 14.9823 23.7614C14.8988 23.9201 14.8105 24.0755 14.7043 24.2185C14.4721 24.531 14.2013 24.7974 13.8809 25.0063C13.5699 25.2092 13.2283 25.3533 12.8712 25.4323C12.5949 25.4942 12.315 25.5034 12.036 25.4849C11.6648 25.4606 11.3091 25.3606 10.9705 25.1936C10.7385 25.0804 10.5212 24.9362 10.3236 24.7644C9.93517 24.4238 9.6338 24.0125 9.43888 23.5157C9.31426 23.1968 9.23636 22.8595 9.20789 22.5156C9.16327 22.0026 9.2397 21.5087 9.4095 21.0288C9.47174 20.8531 9.55381 20.6881 9.64153 20.5261C9.65016 20.5102 9.65984 20.4944 9.66979 20.4796C9.72312 20.399 9.73321 20.3965 9.81251 20.4446C9.94561 20.5253 10.2016 20.6942 10.3319 20.7788C10.3493 20.7878 10.3662 20.7981 10.3823 20.8095Z" fill="#666059"/>
<path d="M14.5169 22.7491C14.5841 22.4309 14.5904 22.1014 14.5354 21.7806C14.4804 21.4596 14.3652 21.1538 14.1967 20.8813C13.915 20.4949 13.5612 20.1695 13.1685 19.9685C12.9234 19.8562 12.6608 19.7937 12.3941 19.7841C11.69 19.7574 11.0864 20.0055 10.5948 20.5447C10.5175 20.631 10.4449 20.722 10.3773 20.8172C10.3195 20.7803 9.78685 20.4914 9.71202 20.4226C9.68229 20.3952 9.91446 20.1154 10.0338 19.9846C10.2946 19.6988 10.5895 19.4626 10.9282 19.2897C11.2452 19.1157 11.6076 19.0163 11.9733 18.975C12.2536 18.9427 12.5368 18.9507 12.8152 18.9986C13.182 19.063 13.5204 19.2148 13.8412 19.4178C14.0612 19.5554 14.2637 19.7224 14.4439 19.9146C14.7978 20.2953 15.0584 20.7371 15.2052 21.2523C15.2987 21.5831 15.344 21.9271 15.3395 22.2725C15.3347 22.7876 15.2131 23.261 15.0365 23.6423C15.0015 23.7179 15.0333 23.7159 14.9318 23.6423C14.8071 23.5473 14.496 23.3492 14.3647 23.2595C14.3565 23.2529 14.4637 23.0029 14.5169 22.7491Z" fill="#45423D"/>
<path d="M11.2471 9.32047C11.193 9.13731 11.1514 8.95053 11.1059 8.76493C11.0938 8.71606 11.1073 8.70291 11.1564 8.69024C13.8676 7.98892 17.1646 8.52483 18.8579 9.07041C19.1263 9.17282 19.3875 9.29186 19.6291 9.45469C19.734 9.52535 19.8335 9.60325 19.9116 9.70775C19.9334 9.73636 19.9531 9.76678 19.9703 9.79867C20.0113 9.87629 20.0205 9.95447 19.9819 10.0393C19.8927 10.2362 19.7957 10.4286 19.6908 10.6167C19.6231 10.7391 19.5534 10.8603 19.4848 10.9822C19.4524 11.0413 19.4161 11.0979 19.3761 11.1515C19.3411 11.1863 19.3017 11.1695 19.264 11.1605C19.0982 11.121 18.9307 11.09 18.7658 11.0469C18.7537 11.0437 18.7414 11.0491 18.7291 11.0496C18.5564 10.9901 18.3742 10.9833 18.1988 10.9388C18.1758 10.933 18.1559 10.9478 18.1339 10.9439C17.8459 10.8843 17.5539 10.8543 17.2639 10.8119C17.1619 10.7969 17.0567 10.8048 16.9578 10.7661C16.92 10.7236 16.9132 10.668 16.9005 10.6145C16.8274 10.2987 16.7325 9.99213 16.5585 9.71993C16.532 9.67858 16.5032 9.63911 16.4731 9.60068C16.3826 9.48511 16.2745 9.4164 16.1279 9.39594C15.7452 9.3424 15.362 9.29611 14.9777 9.26151C14.3383 9.20352 13.6981 9.19363 13.0575 9.20331C12.7414 9.20797 12.4255 9.23032 12.11 9.25928C11.8487 9.28302 11.588 9.31114 11.3281 9.34776C11.2959 9.3511 11.2681 9.34902 11.2471 9.32047Z" fill="#EDAE50"/>
<path d="M20.2383 14.8356C20.0582 14.8342 19.8781 14.8303 19.6981 14.8329C19.6407 14.8338 19.628 14.7982 19.6155 14.7543C19.5667 14.7385 19.568 14.691 19.5606 14.6515C19.5023 14.3471 19.4475 14.0419 19.3842 13.7385C19.2284 12.9929 19.0534 12.2525 18.8405 11.5227C18.8038 11.3969 18.7643 11.2721 18.7285 11.146C18.7175 11.1077 18.6967 11.0658 18.732 11.0274C18.745 11.0116 18.7624 11.0116 18.7795 11.0149C18.9798 11.0544 19.1801 11.094 19.3769 11.151C19.5061 11.5379 19.6148 11.9315 19.7151 12.3278C19.8514 12.8663 19.9684 13.4099 20.0774 13.9553C20.1181 14.159 20.2378 14.8305 20.2383 14.8356Z" fill="#45423D"/>
<path d="M11.2463 9.32055C11.4832 9.2776 11.7222 9.25261 11.9611 9.22977C12.1333 9.21334 12.3065 9.20283 12.4792 9.19023C12.9591 9.1548 13.4394 9.15556 13.9195 9.16412C14.2683 9.17039 14.6168 9.19009 14.965 9.21954C15.1969 9.2391 15.4285 9.26166 15.6594 9.28971C15.8535 9.31345 16.0461 9.3477 16.2402 9.37457C16.303 9.38321 16.3502 9.416 16.3951 9.45951C16.5496 9.60981 16.6588 9.79359 16.7445 9.99416C16.8465 10.2325 16.9166 10.4818 16.9631 10.7387C16.9523 10.7748 16.9246 10.7753 16.8967 10.7734C16.7733 10.7655 16.6497 10.7562 16.5268 10.7441C16.4184 10.7334 16.3096 10.7283 16.2013 10.7218C16.0288 10.7117 15.856 10.6917 15.6825 10.7019C15.6156 10.706 15.5497 10.688 15.4828 10.6869C15.3925 10.6855 15.3643 10.7063 15.3329 10.7954C15.1481 11.3211 14.9959 11.8576 14.8622 12.4002C14.6555 13.2386 14.4978 14.0878 14.3653 14.9425C14.3298 15.1709 14.3008 15.4003 14.2691 15.6295C14.2627 15.6761 14.2579 15.7239 14.23 15.764C14.2082 15.7872 14.1805 15.7887 14.1539 15.7814C14.0296 15.7472 13.9062 15.7091 13.7822 15.674C13.7724 15.6717 13.7634 15.6668 13.7559 15.6599C13.7483 15.6531 13.7425 15.6443 13.7389 15.6345C13.7189 15.5773 13.7314 15.5192 13.7395 15.4629C13.8658 14.5384 14.0206 13.6196 14.2241 12.7107C14.3681 12.068 14.5321 11.4317 14.7422 10.8094C14.774 10.7152 14.7562 10.6879 14.6632 10.6868C14.2949 10.6824 13.9271 10.696 13.559 10.7148C13.3739 10.7242 13.189 10.7323 13.0045 10.7487C12.9922 10.7487 12.9798 10.7492 12.9673 10.7493C12.7747 10.7507 12.7702 10.7551 12.7094 10.9458C12.3559 12.0545 12.1088 13.1909 11.9178 14.3424C11.8608 14.6868 11.8107 15.0324 11.7599 15.3778C11.7553 15.4094 11.752 15.4406 11.7332 15.467C11.7154 15.4977 11.686 15.5018 11.6564 15.5066C11.5028 15.5303 11.3482 15.5468 11.1954 15.5757C11.161 15.5823 11.1186 15.5901 11.1118 15.5311C11.1374 15.349 11.1631 15.167 11.1888 14.9849C11.2554 14.5114 11.3308 14.0396 11.4151 13.5694C11.5256 12.9533 11.652 12.342 11.8081 11.7382C11.8825 11.4517 11.9593 11.1659 12.0528 10.8857C12.0855 10.7874 12.0853 10.7874 12.0146 10.7196C11.844 10.5553 11.674 10.3904 11.5026 10.2272C11.4711 10.1978 11.449 10.1587 11.4395 10.1152C11.3814 9.87581 11.3205 9.63724 11.2606 9.39831C11.2502 9.37395 11.2453 9.34735 11.2463 9.32055Z" fill="#45423D"/>
<path d="M11.245 9.31891C11.2542 9.34425 11.2646 9.36923 11.2593 9.39752C11.2443 9.37367 11.2252 9.35016 11.245 9.31891Z" fill="#A9A9A9"/>
<path d="M15.1831 16.1949C14.8981 16.0321 14.5995 15.9039 14.294 15.7927C14.2662 15.7826 14.2369 15.7751 14.2158 15.7508C14.2472 15.519 14.2763 15.2868 14.3105 15.0555C14.3898 14.52 14.4824 13.987 14.5883 13.4568C14.7496 12.6532 14.9427 11.8587 15.1964 11.082C15.237 10.9576 15.2791 10.8338 15.3213 10.7102C15.3427 10.6477 15.3437 10.6474 15.4066 10.6494C15.758 10.6599 16.1093 10.6743 16.4602 10.6977C16.628 10.7088 16.7955 10.7252 16.9632 10.7394C17.2402 10.7676 17.5163 10.804 17.7918 10.8455C17.9089 10.8632 18.0261 10.8795 18.1423 10.9025C18.2092 10.9309 18.2506 10.9853 18.291 11.0478C18.4445 11.2856 18.5668 11.5423 18.6685 11.8069C18.775 12.0837 18.8724 12.3661 18.9381 12.6586C18.964 12.7738 19.0007 12.886 19.0274 13.0007C19.1143 13.3784 19.2107 13.7535 19.2811 14.1355C19.3172 14.3314 19.3555 14.5271 19.4029 14.7207C19.4156 14.7722 19.4366 14.8305 19.3742 14.8676C19.3675 14.8755 19.362 14.8854 19.3538 14.89C19.2434 14.9521 19.1689 15.0532 19.0965 15.1562C18.9754 15.3283 18.8555 15.5012 18.7352 15.6738C18.7013 15.6896 18.6734 15.6766 18.6457 15.6554C18.5008 15.5451 18.3546 15.4365 18.207 15.33C18.132 15.2756 18.1262 15.2485 18.1765 15.1683C18.248 15.0544 18.3248 14.9445 18.3984 14.8323C18.4268 14.7891 18.4571 14.747 18.4802 14.7004C18.5219 14.6158 18.5066 14.5314 18.4426 14.4809C18.3785 14.4304 18.2986 14.4406 18.2371 14.5139C18.1596 14.6065 18.0985 14.7125 18.0322 14.8144C17.822 15.1368 17.6113 15.4588 17.4002 15.7806C17.3804 15.8108 17.3601 15.8411 17.3467 15.8755C17.3158 15.9538 17.3374 16.0345 17.3999 16.0779C17.4645 16.1228 17.539 16.114 17.5937 16.0472C17.6704 15.9539 17.7311 15.8476 17.7978 15.7467C17.8403 15.6819 17.8827 15.617 17.9266 15.5534C17.9571 15.5091 17.9908 15.5025 18.0349 15.5326C18.1953 15.6423 18.3485 15.763 18.505 15.8787C18.5313 15.8981 18.557 15.921 18.556 15.9607C18.5071 16.0455 18.4583 16.1305 18.409 16.2151C18.3842 16.2576 18.3577 16.2989 18.3333 16.3416C18.2315 16.5186 18.2284 16.7014 18.3161 16.883C18.5524 17.372 18.7979 17.8558 19.0749 18.3204C19.1094 18.3783 19.1465 18.4341 19.1811 18.4916C19.2788 18.6535 19.4246 18.7184 19.5962 18.7239C19.7617 18.7291 19.9268 18.7098 20.0917 18.6944C20.088 19.4264 19.8909 20.0962 19.5222 20.7125C19.4705 20.7988 19.4147 20.8356 19.314 20.8325C19.0471 20.824 18.7798 20.8309 18.5127 20.8317C18.4587 20.8238 18.4606 20.773 18.4532 20.7349C18.4215 20.5778 18.3799 20.4238 18.3359 20.2703C18.167 19.6781 17.922 19.1134 17.608 18.5924C17.5065 18.424 17.3932 18.2649 17.2869 18.1003C17.1881 17.9632 17.0816 17.8326 16.9716 17.7059C16.7758 17.4802 16.5725 17.2623 16.3499 17.0653C16.0281 16.7822 15.6835 16.5298 15.3199 16.3112C15.2696 16.2791 15.2093 16.259 15.1831 16.1949Z" fill="#B9E1E1"/>
<path d="M19.3593 14.8843C19.3799 14.8369 19.3781 14.7714 19.3674 14.7267C19.2735 14.3372 18.6103 11.6218 18.2353 11.0242C18.1899 10.9518 18.1791 10.9326 18.1434 10.9008C18.3196 10.9154 18.4923 10.9549 18.6669 10.9809C18.6802 10.9825 18.6931 10.9875 18.7043 10.9954C18.7155 11.0033 18.7247 11.0139 18.7314 11.0264C18.9656 11.783 19.1665 12.5494 19.3342 13.3257C19.437 13.7988 19.5424 14.3072 19.6263 14.7845L19.6274 14.7876C19.6444 14.8209 19.6487 14.8117 19.5506 14.8248C19.4897 14.8331 19.408 14.8619 19.3593 14.8843Z" fill="#DCF9FB"/>
<path d="M13.7558 15.6255C13.6033 15.5939 13.451 15.5593 13.2981 15.5315C13.1157 15.4987 12.9319 15.476 12.7473 15.4636C12.5725 15.4515 12.3993 15.4478 12.2242 15.4474C12.1259 15.4474 12.0262 15.4575 11.9273 15.4498C11.8868 15.4167 11.894 15.3719 11.9 15.3269C11.9839 14.683 12.0815 14.0419 12.2087 13.4052C12.2979 12.9568 12.3984 12.5115 12.522 12.0728C12.6401 11.6536 12.7777 11.2419 12.9908 10.8644C13.0229 10.8076 13.028 10.7606 12.994 10.7074C13.0175 10.6974 13.0425 10.6975 13.0671 10.6963C13.6282 10.6692 14.1891 10.6399 14.751 10.6453C14.7752 10.6453 14.8004 10.6393 14.824 10.6521C14.8334 10.6804 14.8177 10.7036 14.8096 10.7273C14.5619 11.447 14.3747 12.1859 14.2134 12.9324C14.0767 13.5657 13.9632 14.2037 13.8654 14.845C13.826 15.1049 13.7924 15.3654 13.7558 15.6255Z" fill="#B9E1E1"/>
<path d="M13.0457 10.6984C13.1462 10.686 13.1367 10.6918 13.0764 10.8012C12.9138 11.0967 12.7769 11.4004 12.6723 11.7209C12.6116 11.9067 12.5528 12.0942 12.5073 12.2859C12.4578 12.4949 12.3992 12.7016 12.3532 12.9118C12.3066 13.1245 12.2673 13.3389 12.2241 13.5524C12.18 13.7711 12.1349 13.9895 12.1013 14.2102C12.0493 14.5529 11.999 14.8959 11.9505 15.239C11.9407 15.3088 11.9282 15.3791 11.9302 15.4506C11.9052 15.4626 11.7335 15.4814 11.7205 15.4506C11.7318 15.2824 11.7615 15.1168 11.7859 14.9506C11.8465 14.54 11.9144 14.1307 11.9899 13.7228C12.1661 12.7802 12.3831 11.8485 12.674 10.9381C12.6923 10.8809 12.714 10.8247 12.7303 10.7668C12.7399 10.7329 12.7588 10.7203 12.7892 10.7194C12.8589 10.7157 13.0334 10.6979 13.0457 10.6984Z" fill="#DCF9FB"/>
<path d="M22.3153 22.2928C22.1423 22.2786 21.9494 22.1338 21.8117 22.5079C21.6749 22.8786 21.876 23.0214 21.8457 23.0089C21.8307 23.0069 21.8156 23.0064 21.8006 23.0075C21.6873 23.0088 21.5701 22.9889 21.457 22.9888C21.4169 22.9692 21.4264 22.9344 21.4331 22.9006C21.49 22.6091 21.5773 22.3254 21.6933 22.0544C21.8467 21.6992 22.0346 21.3664 22.2701 21.0643C22.5972 20.6447 22.9805 20.2972 23.4263 20.0272C23.8903 19.7461 24.3882 19.5722 24.9158 19.4965C25.1707 19.4599 25.4277 19.4463 25.6854 19.4655C25.7831 19.4728 25.8595 19.4304 25.9121 19.3447C25.9335 19.3098 25.9571 19.2832 25.9939 19.2694C26.0363 19.2689 26.0749 19.2881 26.1154 19.2977C26.2046 19.319 26.2139 19.3156 26.253 19.2297C26.3162 19.091 26.3818 18.9536 26.4633 18.8255C26.4835 18.8118 26.5002 18.7932 26.5123 18.7712C26.6181 18.5989 26.7534 18.4564 26.9124 18.3394C26.917 18.3372 26.9219 18.3363 26.9268 18.3369C26.9844 18.3369 26.9995 18.3836 27.0133 18.4293C27.0742 18.6298 27.1427 18.8269 27.2274 19.0179C27.3677 19.3342 27.5409 19.6268 27.7631 19.885C27.7964 19.9235 27.8382 19.9579 27.8188 20.0206C27.703 20.2369 27.5872 20.453 27.4714 20.6692C27.4544 20.7008 27.4356 20.7316 27.4176 20.7629C27.3854 20.8173 27.3491 20.8688 27.309 20.917C27.2985 20.909 27.2875 20.9019 27.276 20.8959C27.2693 20.8924 27.2566 20.8805 27.2501 20.8768C27.1289 20.8066 27.1461 20.8019 27.2064 20.6711C27.2444 20.5886 27.2641 20.505 27.2401 20.4121C27.2307 20.3737 27.2139 20.3377 27.1908 20.3066C27.1676 20.2754 27.1387 20.2497 27.1058 20.231C27.0282 20.1862 26.9477 20.1441 26.8591 20.1243C26.7348 20.0968 26.6049 20.1581 26.5451 20.2777C26.5253 20.3172 26.5114 20.3596 26.4931 20.4C26.4667 20.4587 26.4516 20.4669 26.3942 20.4495C26.2417 20.4032 26.0876 20.3654 25.9297 20.3467C25.9149 20.3449 25.9008 20.3389 25.8861 20.3374C25.844 20.3321 25.8262 20.3058 25.8266 20.2625C25.8266 20.2204 25.8239 20.1781 25.8266 20.136C25.8364 19.9766 25.7409 19.8689 25.6024 19.8398C25.5025 19.8188 25.3995 19.8201 25.3001 19.844C25.1731 19.8744 25.098 19.9569 25.0803 20.097C25.0732 20.149 25.069 20.2014 25.0678 20.254C25.067 20.3224 25.0627 20.3281 24.9977 20.3417C24.9176 20.3583 24.8368 20.371 24.7566 20.3872C24.674 20.404 24.5922 20.4249 24.5113 20.45C24.4587 20.4663 24.4464 20.4598 24.4244 20.4076C24.4042 20.3595 24.3852 20.311 24.3593 20.266C24.2906 20.1473 24.1665 20.0926 24.0395 20.1274C23.9483 20.1527 23.8615 20.1935 23.7824 20.2482C23.6673 20.3273 23.6252 20.4766 23.674 20.6175C23.6884 20.6593 23.7098 20.6984 23.7267 20.7393C23.7482 20.7909 23.7463 20.8031 23.7038 20.8308C23.5537 20.9286 23.4147 21.0427 23.2764 21.158C23.2361 21.1917 23.225 21.1921 23.1873 21.155C23.1536 21.1202 23.1179 21.0875 23.0805 21.0574C22.9742 20.9756 22.8291 20.9746 22.7293 21.0643C22.6596 21.1269 22.5937 21.1951 22.5441 21.2787C22.4689 21.4052 22.4862 21.5555 22.5887 21.6583C22.6301 21.6999 22.6344 21.7031 22.7018 21.752C22.5983 21.8621 22.3962 22.1592 22.337 22.2762" fill="#414141"/>
<path d="M20.9343 22.9747C20.5183 22.9742 20.1023 22.9738 19.6862 22.9733C19.0251 22.9733 18.3639 22.9733 17.7026 22.9733C17.5503 22.9733 17.5477 22.9682 17.5688 22.809C17.5837 22.6931 17.5864 22.5774 17.5252 22.4719C17.4593 22.3582 17.3661 22.2853 17.2409 22.2649C17.1799 22.2542 17.1183 22.2476 17.0565 22.2449C16.9821 22.2426 16.9687 22.2229 16.9659 22.1432C16.957 21.8854 16.9371 21.6291 16.8906 21.375C16.872 21.2746 16.8771 21.2661 16.9719 21.2383C17.0485 21.2158 17.1232 21.1879 17.1916 21.1442C17.3615 21.0354 17.4114 20.8495 17.3707 20.6585C17.3521 20.5714 17.3238 20.4864 17.2964 20.4019C17.225 20.1825 17.0361 20.0684 16.8219 20.1111C16.7485 20.1258 16.6782 20.1507 16.6075 20.1743C16.5494 20.1941 16.5421 20.1922 16.5151 20.1322C16.4026 19.8798 16.2699 19.6382 16.1185 19.4101C16.09 19.3676 16.0915 19.3542 16.1348 19.3196C16.1943 19.2716 16.2425 19.2109 16.2976 19.1582C16.4304 19.0316 16.428 18.7652 16.3486 18.6381C16.2738 18.5185 16.179 18.4167 16.0758 18.3272C15.9462 18.2144 15.7186 18.2103 15.5743 18.3482C15.5247 18.3957 15.4683 18.4353 15.4244 18.4894C15.3981 18.5219 15.3738 18.5226 15.3426 18.4946C15.2691 18.4283 15.1948 18.3627 15.1185 18.3C14.999 18.2018 14.8732 18.1133 14.7456 18.027C14.635 17.9521 14.6402 17.969 14.6963 17.8451C14.7198 17.7957 14.7404 17.7449 14.7581 17.6929C14.8224 17.4904 14.7641 17.2684 14.559 17.1577C14.4705 17.1103 14.3816 17.0613 14.2862 17.0338C14.1524 16.995 14.0217 17.0021 13.9042 17.095C13.8564 17.1332 13.8181 17.1832 13.7926 17.2407C13.761 17.3091 13.7331 17.3795 13.7028 17.4487C13.6798 17.5008 13.6748 17.5041 13.6229 17.4867C13.4241 17.4203 13.2208 17.3749 13.0152 17.3402C12.9664 17.3323 12.9174 17.3244 12.8685 17.317C12.7976 17.306 12.7921 17.3002 12.7909 17.221C12.7899 17.1552 12.7901 17.0893 12.7909 17.0233C12.7925 16.8404 12.7017 16.7228 12.5546 16.6465C12.5123 16.6238 12.466 16.6108 12.4188 16.6083C12.3077 16.6042 12.1963 16.5967 12.0854 16.6162C11.8739 16.6538 11.7425 16.8109 11.736 17.0383C11.7344 17.0962 11.736 17.1542 11.7353 17.2123C11.7343 17.3011 11.7308 17.3038 11.6505 17.3174C11.4035 17.359 11.1572 17.4044 10.9172 17.4817C10.86 17.5 10.8532 17.4961 10.827 17.4359C10.8021 17.3786 10.7778 17.321 10.7526 17.2636C10.6537 17.0358 10.4244 16.9622 10.2131 17.0441C10.134 17.0746 10.0567 17.1104 9.98178 17.1513C9.85891 17.2189 9.77787 17.3233 9.75135 17.4719C9.73763 17.55 9.74453 17.6305 9.77126 17.7047C9.7943 17.7716 9.82486 17.8348 9.85368 17.8989C9.87819 17.9533 9.8754 17.9657 9.82862 17.9958C9.6314 18.1232 9.44713 18.2696 9.26731 18.4229C9.24419 18.4426 9.22268 18.4649 9.20041 18.4852C9.16191 18.5195 9.15014 18.5194 9.11116 18.4836C9.06813 18.4441 9.02372 18.406 8.98341 18.3634C8.83151 18.2027 8.54713 18.2037 8.39968 18.3744C8.35617 18.4247 8.31475 18.4772 8.27019 18.5262C8.21617 18.5855 8.21262 18.5835 8.15728 18.5292C8.11028 18.483 7.99952 18.3794 7.99166 18.3732C7.91779 18.2857 7.92086 18.2851 7.99556 18.1953C8.63087 17.4326 9.43627 16.8519 10.3377 16.5068C10.792 16.3328 11.2596 16.2194 11.7401 16.1754C12.0335 16.1494 12.3284 16.1465 12.6223 16.1665C13.0202 16.1919 13.4146 16.2614 13.799 16.3739C14.1144 16.4655 14.4211 16.588 14.7154 16.7396C14.9165 16.8405 15.1115 16.9544 15.2993 17.0808C15.5625 17.2581 15.8117 17.4579 16.0442 17.6783C16.2668 17.8909 16.4757 18.119 16.6697 18.3613C16.696 18.396 16.7206 18.4323 16.7435 18.4697C16.925 18.6876 17.0706 18.9325 17.2066 19.1829C17.4801 19.6845 17.6847 20.2251 17.8142 20.7883C17.8594 20.9853 17.8895 21.1852 17.9229 21.3846C17.9519 21.5586 18.072 21.6181 18.2192 21.5339C18.4039 21.4283 18.5211 21.1773 18.4943 20.955C18.4885 20.9068 18.4571 20.8522 18.5058 20.8069C18.5444 20.7838 18.5869 20.7857 18.629 20.7855C18.852 20.7848 19.0746 20.7824 19.2973 20.7866C19.3893 20.7884 19.4509 20.7519 19.5002 20.6708C19.6844 20.3672 19.8248 20.036 19.9166 19.688C19.9889 19.4165 20.0409 19.1408 20.0586 18.8585C20.0607 18.8295 20.0603 18.8004 20.0572 18.7715C20.0534 18.7372 20.0614 18.709 20.0913 18.691C20.1396 18.6901 20.2453 18.6836 20.2501 18.6831C20.4351 18.6715 20.4351 18.6715 20.4354 18.8693C20.4354 19.0196 20.4346 19.1699 20.4359 19.3197C20.4371 19.457 20.4715 19.4994 20.5977 19.5332C20.8999 19.6151 21.2057 19.6414 21.5175 19.6242C21.6614 19.6163 21.8023 19.5887 21.9451 19.5768C21.9747 19.5732 22.0037 19.5652 22.0311 19.553C22.1178 19.5177 22.1434 19.4819 22.1446 19.3816C22.1469 19.1946 22.1439 19.0077 22.1462 18.8207C22.1468 18.7799 22.1389 18.7352 22.1729 18.7021C22.229 18.6562 22.2826 18.6912 22.3328 18.7135C22.4567 18.7689 22.55 18.8673 22.6356 18.9737C22.7942 19.1706 22.9119 19.3956 23.0235 19.6245C23.0333 19.643 23.0375 19.6642 23.0354 19.6852C23.0314 19.7364 22.9965 19.7619 22.961 19.7864C22.6689 19.9873 22.4067 20.2257 22.1655 20.4917C21.8888 20.7965 21.6593 21.1374 21.465 21.5058C21.2394 21.9336 21.0859 22.3897 20.9952 22.8704C20.9874 22.9107 20.9951 22.9678 20.9343 22.9747Z" fill="#45423D"/>
<path d="M20.9384 22.9727C20.9572 22.883 20.975 22.7929 20.9948 22.7038C21.1565 21.9712 21.467 21.3173 21.9155 20.7365C22.2132 20.3484 22.5663 20.0123 22.962 19.7406C22.9847 19.7248 23.0098 19.7121 23.0239 19.6853C23.0417 19.6536 24.391 18.73 25.9001 19.0268C25.9899 19.0962 26.0005 19.2296 25.9517 19.3505C25.904 19.4685 25.8152 19.5057 25.6728 19.502C25.5415 19.4986 25.4104 19.4911 25.2796 19.4987C25.0596 19.5105 24.8409 19.5401 24.6253 19.5872C24.0345 19.7189 23.4963 19.9742 23.0135 20.3595C22.4495 20.8096 22.0238 21.379 21.7315 22.0609C21.6131 22.3395 21.5238 22.6311 21.4654 22.9304C21.4619 22.9483 21.4133 23.2377 21.3985 23.3653C21.3849 23.484 21.3315 23.5667 21.2239 23.6059C21.0658 23.6633 20.8968 23.5406 20.8934 23.3629C20.8915 23.2734 20.9096 23.1854 20.9223 23.0971C20.9274 23.0621 20.9329 22.9785 20.9384 22.9727Z" fill="#A19D98"/>
<path d="M19.6476 22.3579C19.3778 22.3579 19.108 22.3588 18.8382 22.3576C18.7118 22.357 18.6203 22.2913 18.5681 22.1709C18.516 22.0506 18.532 21.9337 18.6077 21.8292C18.6678 21.7466 18.7538 21.7148 18.8493 21.7116C18.9136 21.7095 18.978 21.7107 19.0426 21.7108C19.498 21.7111 19.9535 21.7114 20.4089 21.7118C20.4952 21.7118 20.5756 21.7276 20.644 21.7899C20.7384 21.8761 20.7768 22.0158 20.7376 22.1403C20.7183 22.2034 20.6809 22.2585 20.6306 22.2976C20.5802 22.3368 20.5196 22.3581 20.4572 22.3584C20.1874 22.36 19.9176 22.3589 19.6479 22.3589L19.6476 22.3579Z" fill="#FCBE4F"/>
<path d="M11.112 15.5285C11.1288 15.5427 11.1482 15.5432 11.168 15.539C11.3368 15.5038 11.5075 15.4836 11.6784 15.4648C11.6932 15.463 11.6858 15.4633 11.7279 15.459C12.328 15.4116 13.1278 15.4465 13.7567 15.6232C13.8954 15.664 14.0351 15.6944 14.1739 15.7349C14.1881 15.7357 14.8675 16.0001 15.1315 16.1509C15.1551 16.1689 15.1666 16.1784 15.1835 16.1922C15.1943 16.3217 15.1565 16.4189 15.0855 16.5073C14.9865 16.6304 14.8557 16.7186 14.7094 16.7746C14.5212 16.6876 14.3338 16.5985 14.1394 16.5271C13.7955 16.4008 13.4412 16.3091 13.0811 16.2534C12.7675 16.2059 12.4506 16.1855 12.1337 16.1925C11.76 16.1992 11.3878 16.2468 11.0231 16.3345C9.89126 16.6049 8.86504 17.2389 8.08346 18.1507C8.05847 18.1799 8.03299 18.2087 8.00793 18.2377C7.95592 18.2984 7.93316 18.3378 7.8948 18.3861C7.83103 18.4665 7.76907 18.5485 7.70698 18.6304C7.56197 18.8213 7.30717 18.8316 7.14844 18.6314C7.04103 18.4957 7.0592 18.2913 7.14664 18.1625C7.24201 18.0246 7.34393 17.8921 7.45204 17.7653C7.56252 17.6338 7.67015 17.4995 7.79128 17.3788C7.96101 17.2097 8.13003 17.0393 8.31466 16.8884C8.94503 16.3735 9.63604 15.9807 10.3975 15.7327C10.5988 15.667 10.8032 15.6127 11.0098 15.5701C11.0463 15.5629 11.0845 15.5601 11.112 15.5285Z" fill="#EDAE50"/>
<path d="M17.306 18.0765C17.4905 18.3087 17.6406 18.5658 17.7856 18.8263C17.9561 19.1328 18.0978 19.4541 18.2179 19.7865C18.328 20.0916 18.4233 20.4014 18.4866 20.7217C18.4941 20.7578 18.503 20.7929 18.5113 20.8291C18.5279 20.9273 18.5469 21.0246 18.5267 21.1259C18.4853 21.3335 18.388 21.4962 18.2022 21.5867C18.0466 21.6626 17.9115 21.5833 17.8861 21.403C17.8191 20.9285 17.7098 20.4652 17.5432 20.0182C17.3462 19.4895 17.0878 18.9981 16.7593 18.5481C16.7444 18.5275 16.7304 18.5057 16.7161 18.4844C16.7516 18.3589 16.8253 18.2573 16.8962 18.1531C16.9359 18.0944 16.9975 18.104 17.0488 18.0869C17.1317 18.0591 17.2188 18.0364 17.306 18.0765Z" fill="#EDAE50"/>
<path d="M17.2665 18.0649C16.8598 18.0299 16.732 18.4567 16.7189 18.4835C16.5432 18.2559 16.3579 18.0379 16.1562 17.8357C15.7462 17.4237 15.281 17.0786 14.7757 16.8118C14.7535 16.8002 14.732 16.7882 14.71 16.7757C14.729 16.752 14.8964 16.7171 15.0359 16.5147C15.154 16.3435 15.1818 16.2274 15.1842 16.1934C15.3174 16.2465 15.4336 16.333 15.5544 16.4098C15.7632 16.5414 15.9639 16.6869 16.1553 16.8456C16.3283 16.9902 16.496 17.1408 16.6558 17.3026C16.7653 17.4133 16.8679 17.5305 16.9714 17.6467C17.0919 17.7817 17.2133 17.9176 17.3086 18.0757" fill="#FCD38C"/>
<path d="M27.8146 20.0197C27.7709 19.9421 27.7045 19.8853 27.651 19.8159C27.3636 19.443 27.1576 19.0231 27.0125 18.5679C26.9959 18.5156 26.9806 18.4628 26.964 18.4105C26.957 18.3883 26.9517 18.363 26.922 18.3638C26.5556 18.0301 26.1134 17.844 25.6803 17.6402C25.026 17.3327 24.3429 17.1214 23.6518 16.9351C23.1098 16.7891 22.5606 16.6808 22.0098 16.5805C21.9597 16.5715 21.9061 16.567 21.8715 16.5173C21.8625 16.4812 21.8625 16.4444 21.8624 16.4076C21.8616 15.9719 21.8618 15.5361 21.863 15.1003C21.863 15.0529 21.8493 14.9984 21.8975 14.9632C22.0061 14.9916 22.1182 14.9916 22.2284 15.0079C22.4366 15.0386 22.6461 15.0614 22.854 15.0949C23.1231 15.1377 23.3932 15.1759 23.6602 15.2328C23.8446 15.2724 24.03 15.3056 24.214 15.3474C24.4296 15.3963 24.6452 15.4458 24.8581 15.5035C25.2131 15.5994 25.568 15.6968 25.9139 15.8262C26.0516 15.8777 26.1882 15.9333 26.3276 15.979C26.4697 16.0255 26.581 16.1184 26.687 16.2229C26.9175 16.4503 27.1474 16.6783 27.3699 16.9146C27.5186 17.0728 27.668 17.2298 27.8098 17.3952C27.8712 17.4669 27.9392 17.5325 28.0031 17.6021C28.1136 17.7229 28.2164 17.851 28.3296 17.9692C28.4204 18.0641 28.4742 18.1836 28.4809 18.3204C28.4903 18.5126 28.4845 18.7033 28.4386 18.8923C28.3541 19.2403 28.1983 19.5472 27.9871 19.8247C27.9341 19.8938 27.8794 19.9617 27.8146 20.0197Z" fill="#EDAE50"/>
<path d="M18.5549 15.9576L18.043 15.5798C18.0345 15.5744 18.0265 15.5683 18.0189 15.5615C17.988 15.5299 17.9694 15.5444 17.9498 15.5773C17.9208 15.6262 17.8882 15.6728 17.857 15.7201C17.783 15.8321 17.7105 15.9451 17.6344 16.0554C17.578 16.1373 17.5063 16.1625 17.4272 16.1361C17.3087 16.0966 17.2552 15.9609 17.3139 15.8436C17.3324 15.8065 17.3568 15.7728 17.3794 15.7384C17.6398 15.3413 17.9004 14.9444 18.1611 14.5476C18.1775 14.5213 18.1955 14.4961 18.215 14.4725C18.2831 14.3946 18.3861 14.3824 18.4641 14.4408C18.502 14.469 18.5288 14.5112 18.5394 14.5591C18.5499 14.607 18.5435 14.6574 18.5213 14.7006C18.4981 14.7469 18.4684 14.7895 18.4401 14.8326C18.3593 14.9555 18.2777 15.0778 18.1963 15.2002C18.1639 15.2491 18.1633 15.2501 18.2095 15.2845C18.3841 15.4139 18.5589 15.5429 18.7338 15.6716L18.5549 15.9576Z" fill="#45423E"/>
<path d="M20.6659 14.8665C20.6897 14.8844 20.6881 14.9118 20.6881 14.9376C20.6888 15.3994 20.6888 15.8611 20.6881 16.3228C20.6888 16.3386 20.6863 16.3543 20.6807 16.369C20.6501 16.4085 20.6063 16.4069 20.5651 16.4071C20.4119 16.4078 20.2587 16.3991 20.1059 16.396C19.6783 16.3862 19.2508 16.3921 18.8228 16.393C18.793 16.393 18.7633 16.3948 18.7357 16.4088C18.7194 16.4167 18.7046 16.4281 18.7069 16.4499C18.7092 16.4716 18.7264 16.4784 18.7436 16.4832C18.7556 16.4864 18.7679 16.488 18.7803 16.4877C18.9902 16.4828 19.2 16.4921 19.4102 16.4781C19.6121 16.4646 19.8149 16.4687 20.0177 16.4816C20.1926 16.4928 20.368 16.4975 20.5433 16.5042C20.588 16.5059 20.6325 16.5026 20.6723 16.5309C20.6921 16.6367 20.7232 16.7414 20.702 16.8515C20.7015 16.8616 20.6988 16.8714 20.6941 16.8802C20.6614 16.9216 20.6105 16.9224 20.5681 16.9413C20.4876 16.9769 20.4476 17.0349 20.4502 17.1293C20.4617 17.5606 20.4297 17.9913 20.4353 18.4225C20.436 18.4725 20.4369 18.5224 20.4421 18.5721C20.4533 18.6798 20.4254 18.7153 20.3231 18.7263C20.2961 18.7292 20.2689 18.7301 20.2414 18.7308C20.1939 18.7315 20.1464 18.7318 20.099 18.7278C19.96 18.7509 19.8192 18.7525 19.6791 18.7627C19.4195 18.7813 19.2286 18.6688 19.0934 18.4305C18.9055 18.0999 18.7161 17.7704 18.5442 17.4298C18.467 17.277 18.3955 17.1213 18.3143 16.9706C18.1838 16.7285 18.1824 16.4918 18.3348 16.26C18.4013 16.1591 18.4498 16.0453 18.5293 15.9538C18.5734 15.8436 18.6448 15.7518 18.7089 15.6551C18.856 15.4244 19.0112 15.1999 19.1784 14.9852C19.2295 14.9196 19.3005 14.8792 19.366 14.8321C19.4527 14.8072 19.7675 14.8005 19.8473 14.7978C19.938 14.7945 20.0288 14.7964 20.1196 14.7978C20.1628 14.798 20.5826 14.8223 20.6659 14.8665Z" fill="#EDAE50"/>
<path d="M26.0019 19.3047C25.9739 19.2882 25.9565 19.2651 25.9584 19.2289C25.9641 19.1182 25.8967 19.0636 25.8144 19.0228C25.7046 18.9802 24.8686 18.8967 24.0373 19.2037C23.745 19.3044 23.4631 19.4301 23.1979 19.5963C23.1491 19.627 23.095 19.6477 23.0492 19.6846C23.0427 19.6897 23.0305 19.6864 23.0209 19.687C22.9558 19.5879 22.9125 19.4756 22.8539 19.3725C22.7629 19.2131 22.6667 19.0584 22.5438 18.924C22.4472 18.8185 22.3377 18.7376 22.1994 18.7079C22.1613 18.711 22.1557 18.6815 22.151 18.6526C22.1469 18.6187 22.1454 18.5844 22.1467 18.5502C22.1467 18.311 22.1427 18.0717 22.1477 17.8326C22.1523 17.6062 22.128 17.381 22.1309 17.155C22.132 17.0689 22.0937 17.0105 22.0194 16.9771C21.9898 16.9638 21.961 16.9484 21.9332 16.9312C21.912 16.9179 21.889 16.9042 21.8984 16.8705L21.9012 16.6994C21.9258 16.6632 21.9592 16.6683 21.9949 16.6739C22.4064 16.7398 22.8149 16.8211 23.2207 16.9179C23.7085 17.0353 24.1936 17.1641 24.6685 17.332C25.0491 17.4665 25.4258 17.6126 25.7906 17.7915C25.9635 17.8764 26.1401 17.9543 26.2981 18.0693C26.3576 18.1126 26.4053 18.1701 26.4506 18.2299C26.5582 18.3723 26.531 18.5376 26.521 18.6996C26.5179 18.7502 26.4953 18.7972 26.4912 18.8481C26.3981 18.9987 26.3186 19.1583 26.2539 19.3249C26.2406 19.3596 26.2228 19.3724 26.1858 19.3591C26.126 19.3375 26.0636 19.3226 26.0019 19.3047Z" fill="#EDAE50"/>
<path d="M26.4915 18.8477C26.4707 18.8053 26.474 18.7596 26.4817 18.7162C26.4979 18.6247 26.4922 18.5327 26.4922 18.4408C26.4922 18.3507 26.4454 18.2808 26.3941 18.2166C26.3296 18.1364 26.2507 18.0708 26.1619 18.0237C25.7467 17.7993 25.3168 17.6125 24.877 17.4503C24.559 17.3329 24.2384 17.2258 23.9125 17.1371C23.5006 17.025 23.0872 16.9215 22.6688 16.8366C22.4283 16.7879 22.1861 16.7513 21.9454 16.7038C21.931 16.7009 21.9157 16.7004 21.9013 16.6988C21.9013 16.6408 21.9013 16.5829 21.9013 16.5252C22.0491 16.5402 22.1945 16.5714 22.3404 16.5993C22.5302 16.6356 22.7195 16.6741 22.9085 16.715C23.107 16.7582 23.3056 16.8002 23.5018 16.8556C23.6522 16.898 23.8043 16.9341 23.955 16.9758C24.3237 17.078 24.688 17.1954 25.0479 17.328C25.3402 17.4357 25.6229 17.5692 25.9071 17.6983C26.1776 17.8216 26.4399 17.9643 26.6922 18.1253C26.7662 18.1724 26.8342 18.2302 26.9041 18.2843C26.9289 18.3036 26.9511 18.3267 26.9243 18.3625C26.8299 18.4514 26.7327 18.5365 26.6491 18.6379C26.5934 18.7053 26.5442 18.7777 26.4915 18.8477Z" fill="#FCD38C"/>
<path d="M20.6667 16.3666L20.6672 16.54C20.1721 16.4968 19.2493 16.4968 18.7834 16.5247C18.7481 16.5229 18.7128 16.519 18.6778 16.5131C18.6518 16.5068 18.6117 16.4712 18.6124 16.4489C18.6136 16.4079 18.6357 16.3881 18.6644 16.373C18.7003 16.3538 18.7483 16.3503 18.7886 16.3503C19.2343 16.3503 19.6801 16.3431 20.1256 16.3545C20.3058 16.3591 20.4863 16.362 20.6667 16.3666Z" fill="#FCD38C"/>
<path d="M28.3036 18.4711C28.3061 18.6412 28.2739 18.7978 28.2281 18.9515C28.1474 19.2236 28.0156 19.4663 27.848 19.6878C27.814 19.7329 27.8122 19.733 27.7766 19.6885C27.6137 19.4848 27.4833 19.2588 27.3716 19.0199C27.2875 18.8403 27.2187 18.6543 27.1572 18.4652C27.1381 18.4065 27.1404 18.396 27.1956 18.3659C27.3885 18.2606 27.5907 18.1858 27.8064 18.1531C27.9047 18.1381 28.0038 18.1384 28.102 18.1256C28.1119 18.1246 28.1219 18.1244 28.1318 18.1249C28.2253 18.1267 28.2399 18.1393 28.275 18.2299C28.3062 18.3106 28.3055 18.3943 28.3036 18.4711Z" fill="#FEFEFE"/>
<path d="M21.8915 15.0014C21.8915 15.5041 21.897 16.6067 21.9085 16.916C21.881 16.9534 21.8451 16.9398 21.8128 16.9299C21.4642 16.8217 21.1133 16.8378 20.7613 16.9062C20.7316 16.9119 20.7028 16.9198 20.6777 16.8939L20.6758 16.8965C20.6595 16.8727 20.6758 14.416 20.6737 14.2588C20.6728 14.1912 20.6834 14.13 20.715 14.0707C20.7538 13.9978 20.7876 13.922 20.8237 13.8473C20.8287 13.8418 20.8354 13.8385 20.8425 13.8378C21.2483 14.0221 21.5836 14.2361 21.889 14.5684C21.8846 14.6886 21.889 14.8493 21.8915 15.0014Z" fill="#414141"/>
<path d="M20.8453 13.8082H20.8393L20.8334 13.8069C20.8627 13.7326 20.8644 13.6545 20.8641 13.5753C20.8632 13.3387 20.8668 13.102 20.8646 12.8654C20.8639 12.7792 20.8884 12.7093 20.939 12.6418C21.1888 12.3089 21.4603 11.995 21.7514 11.7025C21.9364 11.5165 22.1327 11.3437 22.3485 11.1978C22.3895 11.2083 22.372 11.2366 22.3627 11.2585C22.2304 11.5688 22.2491 11.8942 22.2907 12.2172C22.309 12.3595 22.3461 12.5063 22.4573 12.6108C22.4652 12.6174 22.4705 12.6269 22.4722 12.6374C22.4739 12.648 22.4718 12.6589 22.4664 12.6679C22.215 12.7921 22.0178 12.985 21.8512 13.2166C21.8265 13.2508 21.8083 13.287 21.8144 13.3321C21.8033 13.614 21.8058 13.8957 21.815 14.3596C21.8146 14.3646 21.814 14.3696 21.8131 14.3744C21.7759 14.4012 21.7517 14.371 21.7288 14.3503C21.6295 14.2604 21.5331 14.1672 21.4261 14.0871C21.3091 13.9993 21.1892 13.9175 21.0596 13.8524C20.9913 13.8182 20.9218 13.7951 20.8453 13.8082Z" fill="#A19D98"/>
<path d="M22.5092 11.1654C22.5593 11.192 22.5848 11.2365 22.5976 11.2937C22.63 11.4391 22.6513 11.587 22.6614 11.736C22.6789 11.9908 22.6442 12.2374 22.5844 12.482C22.5718 12.5329 22.5575 12.5832 22.5257 12.6252C22.4941 12.6309 22.4843 12.6066 22.4716 12.5832C22.3239 12.3134 22.2971 12.019 22.3154 11.7157C22.3179 11.6741 22.3241 11.6325 22.3267 11.5906C22.3351 11.4295 22.4002 11.2777 22.5092 11.1654Z" fill="#A19D98"/>
<path d="M22.0528 16.9482C22.1298 16.9842 22.1676 17.037 22.1708 17.1351C22.1864 17.6294 22.1821 18.1236 22.1832 18.6178C22.1832 18.6495 22.1864 18.7812 22.1862 18.8179C22.185 19.0229 22.1818 19.228 22.1844 19.433C22.1854 19.5052 22.1572 19.5463 22.0986 19.5724C21.6091 19.7147 20.9733 19.7077 20.5275 19.5566C20.4271 19.524 20.4003 19.4842 20.3995 19.3739C20.3984 19.2293 20.3995 19.0846 20.3995 18.94C20.3995 18.8796 20.4005 18.8191 20.3995 18.7586C20.3984 18.6981 20.4143 17.7608 20.4143 17.7319C20.4143 17.511 20.4159 17.2901 20.4138 17.0692C20.4132 16.9998 20.4372 16.958 20.4982 16.929C21.2062 16.6911 21.5778 16.7603 22.0528 16.9482Z" fill="#A19D98"/>
<path d="M20.544 18.2477V17.1816C20.544 17.1631 20.5435 17.1447 20.544 17.1261C20.5455 17.053 20.5514 17.0432 20.6176 17.0174C20.8666 16.9158 21.5945 16.8197 21.983 17.0924C22.0444 17.1267 22.0542 17.1618 22.0569 17.2447C22.0668 17.4314 22.0494 18.8185 22.0501 19.3527C22.0501 19.3634 22.0501 19.3739 22.0501 19.3844C22.0482 19.4606 22.0434 19.4642 21.9707 19.4803C21.5176 19.5805 21.0669 19.5672 20.6182 19.4486C20.5517 19.4311 20.5482 19.4294 20.5481 19.3529C20.5475 19.108 20.5475 18.8632 20.5481 18.6184C20.5481 18.4947 20.5481 18.3709 20.5481 18.2472L20.544 18.2477Z" fill="#45423D"/>
<path d="M20.824 13.8229C20.8327 13.7553 20.8715 13.7482 20.9463 13.7669C21.0362 13.7953 21.1222 13.8361 21.2021 13.8884C21.38 14.0013 21.5503 14.1257 21.6999 14.2799C21.7333 14.3143 21.772 14.3432 21.8083 14.3742C21.8133 14.3969 21.8249 14.4174 21.8413 14.433C21.8885 14.4781 21.8949 14.5304 21.8853 14.5962C21.8069 14.5843 21.7628 14.5345 21.713 14.4761C21.578 14.318 21.4202 14.1899 21.2529 14.0734C21.1499 14.0016 20.9921 13.9231 20.8776 13.8746C20.8384 13.8579 20.8195 13.859 20.824 13.8229Z" fill="#DCF9FB"/>
<path d="M22.507 11.1632C22.5334 11.1785 22.5503 11.1855 22.4823 11.2496C22.3962 11.3317 22.3392 11.5386 22.345 11.8781C22.3506 12.1031 22.3533 12.3034 22.5235 12.623C22.5091 12.6468 22.4903 12.6643 22.4626 12.6678C22.1746 12.3666 22.2024 11.4396 22.3447 11.1978C22.4037 11.1329 22.4382 11.1255 22.507 11.1632Z" fill="#DCF9FB"/>
</g>
</g>
<defs>
<clipPath id="clip0_11028_52529">
<rect width="36.2005" height="36.2005" fill="white"/>
</clipPath>
</defs>
</svg>
