<svg width="214" height="72" viewBox="0 0 214 72" fill="none" xmlns="http://www.w3.org/2000/svg">
<path d="M91.4055 46.7179V23.6718H95.6197V33.2524H105.958V23.6718H110.172V46.7179H105.958V36.6764H95.6197V46.7179H91.4055ZM120.182 47.113C118.777 47.113 117.625 46.8935 116.725 46.4545C115.825 45.9936 115.156 45.39 114.717 44.6438C114.278 43.8975 114.058 43.0744 114.058 42.1745C114.058 40.6601 114.651 39.431 115.836 38.4872C117.021 37.5434 118.799 37.0715 121.17 37.0715H125.318V36.6764C125.318 35.557 125 34.7339 124.363 34.2072C123.727 33.6804 122.937 33.417 121.993 33.417C121.137 33.417 120.391 33.6255 119.754 34.0425C119.118 34.4376 118.722 35.0302 118.569 35.8204H114.453C114.563 34.6352 114.958 33.6036 115.639 32.7256C116.341 31.8477 117.241 31.1782 118.338 30.7173C119.436 30.2344 120.665 29.993 122.026 29.993C124.352 29.993 126.185 30.5746 127.524 31.7379C128.863 32.9012 129.532 34.5474 129.532 36.6764V46.7179H125.944L125.549 44.0841C125.066 44.962 124.385 45.6863 123.507 46.257C122.651 46.8277 121.543 47.113 120.182 47.113ZM121.137 43.8207C122.344 43.8207 123.277 43.4256 123.935 42.6355C124.616 41.8453 125.044 40.8686 125.219 39.7053H121.631C120.511 39.7053 119.71 39.9138 119.227 40.3308C118.744 40.7259 118.503 41.2198 118.503 41.8124C118.503 42.4489 118.744 42.9427 119.227 43.2939C119.71 43.6451 120.347 43.8207 121.137 43.8207ZM133.554 46.7179V30.3881H137.307L137.702 33.4499C138.295 32.3964 139.096 31.5623 140.105 30.9478C141.137 30.3113 142.344 29.993 143.727 29.993V34.4376H142.542C141.62 34.4376 140.797 34.5803 140.073 34.8656C139.348 35.151 138.778 35.6448 138.361 36.3472C137.965 37.0495 137.768 38.0262 137.768 39.2773V46.7179H133.554ZM151.019 46.7179L145.027 30.3881H149.439L153.587 42.7342L157.735 30.3881H162.147L156.122 46.7179H151.019ZM171.936 47.113C170.289 47.113 168.83 46.7618 167.557 46.0595C166.284 45.3571 165.285 44.3694 164.561 43.0964C163.837 41.8234 163.474 40.3528 163.474 38.6847C163.474 36.9946 163.826 35.4912 164.528 34.1742C165.252 32.8573 166.24 31.8367 167.491 31.1124C168.764 30.3661 170.257 29.993 171.969 29.993C173.571 29.993 174.986 30.3442 176.216 31.0465C177.445 31.7489 178.4 32.7146 179.08 33.9438C179.782 35.151 180.133 36.5008 180.133 37.9933C180.133 38.2347 180.122 38.4872 180.101 38.7505C180.101 39.0139 180.09 39.2883 180.068 39.5736H167.656C167.743 40.8466 168.182 41.8453 168.973 42.5696C169.785 43.2939 170.761 43.6561 171.903 43.6561C172.759 43.6561 173.472 43.4695 174.043 43.0964C174.635 42.7013 175.074 42.1965 175.36 41.5819H179.64C179.332 42.6135 178.817 43.5573 178.092 44.4133C177.39 45.2474 176.512 45.9058 175.458 46.3887C174.427 46.8716 173.253 47.113 171.936 47.113ZM171.969 33.417C170.937 33.417 170.026 33.7133 169.236 34.3059C168.446 34.8766 167.941 35.7545 167.721 36.9398H175.853C175.788 35.8643 175.393 35.0083 174.668 34.3718C173.944 33.7353 173.044 33.417 171.969 33.417ZM190.427 47.113C188.978 47.113 187.705 46.8825 186.608 46.4216C185.511 45.9387 184.633 45.2803 183.974 44.4462C183.316 43.6122 182.921 42.6464 182.789 41.549H187.036C187.168 42.1855 187.519 42.7342 188.09 43.1952C188.682 43.6341 189.439 43.8536 190.361 43.8536C191.283 43.8536 191.953 43.6671 192.37 43.2939C192.809 42.9208 193.028 42.4928 193.028 42.0099C193.028 41.3076 192.721 40.8357 192.106 40.5942C191.492 40.3308 190.636 40.0784 189.538 39.837C188.836 39.6834 188.122 39.4968 187.398 39.2773C186.674 39.0578 186.004 38.7835 185.39 38.4542C184.797 38.1031 184.314 37.6641 183.941 37.1373C183.568 36.5886 183.382 35.9192 183.382 35.129C183.382 33.6804 183.952 32.4622 185.094 31.4745C186.257 30.4868 187.881 29.993 189.966 29.993C191.898 29.993 193.434 30.443 194.575 31.3428C195.739 32.2427 196.43 33.4828 196.65 35.0632H192.666C192.424 33.856 191.514 33.2524 189.933 33.2524C189.143 33.2524 188.529 33.406 188.09 33.7133C187.673 34.0206 187.464 34.4047 187.464 34.8656C187.464 35.3485 187.782 35.7326 188.419 36.0179C189.055 36.3033 189.9 36.5666 190.954 36.8081C192.095 37.0715 193.138 37.3678 194.082 37.697C195.047 38.0043 195.815 38.4762 196.386 39.1127C196.957 39.7273 197.242 40.6162 197.242 41.7795C197.264 42.7891 197.001 43.7 196.452 44.5121C195.903 45.3242 195.113 45.9607 194.082 46.4216C193.05 46.8825 191.832 47.113 190.427 47.113ZM207.737 46.7179C206.025 46.7179 204.653 46.3009 203.622 45.4668C202.59 44.6328 202.074 43.1513 202.074 41.0222V33.9108H199.276V30.3881H202.074L202.568 26.0093H206.288V30.3881H210.7V33.9108H206.288V41.0552C206.288 41.8453 206.453 42.394 206.782 42.7013C207.133 42.9866 207.726 43.1293 208.56 43.1293H210.601V46.7179H207.737Z" fill="#15202B"/>
<rect width="71.3333" height="71.3333" rx="20.5769" fill="#F1F1F1"/>
<g clip-path="url(#clip0_8_1955)">
<path d="M54.074 41.3929C54.2182 41.5084 54.313 41.6081 54.4549 41.7265C54.5409 41.7982 54.5415 41.7982 54.6259 41.72C54.6845 41.6654 54.7415 41.6083 54.8017 41.5548C55.0443 41.3366 55.3708 41.3472 55.5967 41.5847C55.6866 41.6799 55.7714 41.7805 55.8506 41.8859C56.0459 42.1446 56.0264 42.4828 55.8059 42.7183C55.7439 42.7843 55.6783 42.8468 55.6113 42.9071C55.5557 42.9572 55.5538 43.0059 55.5933 43.0687C55.6748 43.1981 55.7538 43.3291 55.8304 43.4618C55.9275 43.6297 56.0139 43.8046 56.096 43.9811C56.1739 44.1493 56.1739 44.1482 56.336 44.094C56.4143 44.0652 56.4941 44.0414 56.5751 44.0224C56.8388 43.9685 57.0887 44.1041 57.2013 44.3653C57.2695 44.5263 57.3205 44.695 57.3533 44.8682C57.4018 45.115 57.26 45.3888 57.0334 45.5104C56.9455 45.5571 56.8491 45.5775 56.7573 45.6124C56.6463 45.6548 56.6366 45.6632 56.6548 45.7786C56.7134 46.1421 56.7547 46.5074 56.7573 46.8767C56.7581 46.9573 56.7866 47.0033 56.866 47.0103C56.934 47.0162 57.0014 47.0296 57.0693 47.0371C57.3391 47.0668 57.5227 47.2097 57.6027 47.4915C57.6096 47.516 57.6273 48.024 57.6037 48.1616C57.5519 48.4656 57.3292 48.6822 57.0363 48.6945C56.9731 48.6976 56.9098 48.6933 56.8474 48.6818C56.732 48.6595 56.6555 48.7111 56.6277 48.8295C56.559 49.1209 56.4665 49.4039 56.3673 49.6847C56.338 49.7659 56.3549 49.8371 56.4185 49.8942C56.4517 49.9241 56.5796 50.0706 56.6003 50.1193C56.6477 50.2312 56.4425 50.057 56.3952 50.028C56.2865 49.9616 54.9564 49.1807 54.4612 48.9005C54.4967 48.6222 54.6246 48.2661 54.6762 47.9916C54.9387 46.5931 54.6671 45.3174 53.9071 44.1527C53.2749 43.1841 52.4094 42.5645 51.3464 42.2571C50.4108 41.9865 49.4835 42.0415 48.5737 42.3948C47.8211 42.6871 46.997 43.1663 46.5448 43.9208C46.493 43.9822 46.4685 43.9752 46.3866 43.9364C46.1037 43.7864 44.9948 43.0186 44.544 42.7396C44.3441 42.5263 44.212 42.1774 44.362 41.9198C44.4691 41.736 44.613 41.5871 44.7674 41.4532C44.9844 41.2653 45.2989 41.2706 45.5292 41.4473C45.8151 41.6664 45.8148 41.6654 46.0926 41.43C46.2375 41.3069 46.392 41.1978 46.5443 41.0854C46.6859 40.9809 46.6965 40.9388 46.63 40.7748C46.4489 40.3279 46.5651 39.9882 46.9734 39.7672C47.0813 39.7062 47.1941 39.6554 47.3104 39.6154C47.622 39.5145 47.9093 39.6327 48.0787 39.928C48.2554 40.236 48.2545 40.2355 48.5871 40.1542C48.7629 40.111 48.9412 40.0804 49.1186 40.046C49.296 40.0116 49.323 39.9818 49.3331 39.7951C49.3371 39.7018 49.3504 39.6092 49.3728 39.5188C49.4197 39.3384 49.5046 39.18 49.6805 39.109C50.0158 38.9731 50.3544 38.9471 50.6835 39.1256C50.8776 39.231 50.9681 39.4121 50.9706 39.6468C50.9743 39.9985 50.9766 40.0014 51.2997 40.0571C51.512 40.0937 51.72 40.1482 51.9288 40.2006C52.0872 40.2403 52.1281 40.2247 52.1899 40.0624C52.3461 39.6516 52.7345 39.442 53.1926 39.6812C53.3226 39.7491 53.4588 39.7987 53.5724 39.9081C53.8013 40.1288 53.8175 40.4546 53.7233 40.6923C53.7099 40.7258 53.694 40.7577 53.6809 40.7914C53.6182 40.9564 53.6115 41.053 53.6115 41.053C53.6115 41.053 53.932 41.279 54.074 41.3929Z" fill="#5F5F5F"/>
<path d="M54.3873 48.7655C54.5205 48.901 56.2998 49.9359 56.4531 50.0337C56.4988 50.0399 56.534 50.072 56.5751 50.0898L56.5729 50.0882C56.6047 50.1186 56.6351 50.1508 56.6638 50.1845L56.6622 50.1823C56.8031 50.3921 56.8022 50.6157 56.7208 50.8473C56.669 50.9703 56.6068 51.088 56.5349 51.199C56.3674 51.4672 56.0583 51.5513 55.7865 51.4058C55.7038 51.3615 55.6237 51.3123 55.5452 51.2593C55.4882 51.2214 55.4489 51.2316 55.4089 51.2878C55.1911 51.594 54.9491 51.8798 54.6855 52.1421C54.6323 52.1948 54.626 52.2409 54.6708 52.302C54.7222 52.371 54.7701 52.4432 54.8163 52.5163C55.0041 52.8124 54.9536 53.154 54.6879 53.3734C54.5955 53.4496 54.5011 53.5236 54.4031 53.5915C54.1394 53.7736 53.8303 53.7223 53.6294 53.4647C53.5738 53.3924 53.5218 53.3172 53.4735 53.2392C53.4307 53.1709 53.3878 53.1554 53.3162 53.1988C53.0147 53.3813 52.6963 53.5253 52.3712 53.6528C52.2529 53.6995 52.254 53.7013 52.2771 53.8326C52.2853 53.8784 52.2918 53.9247 52.3001 53.9704C52.3757 54.3556 52.2894 54.5643 51.9725 54.7619C51.8906 54.8102 51.7967 54.8027 51.7088 54.8273C51.5558 54.8663 51.4011 54.8632 51.2452 54.8549H51.2445C51.1935 54.8281 51.1434 54.7993 51.0935 54.7701C50.9436 54.6372 50.8766 54.4622 50.8378 54.2615C50.7851 53.9897 50.8171 54.0338 50.5817 54.0455C50.2698 54.0611 49.9573 54.0597 49.6455 54.0413C49.5245 54.0341 49.5242 54.0336 49.4964 54.1529C49.4835 54.2083 49.4688 54.2635 49.4609 54.3199C49.4104 54.6758 49.1406 54.9433 48.7108 54.8561C48.6056 54.8346 48.5014 54.8058 48.3986 54.7736C48.1047 54.6818 47.9347 54.3804 47.9936 54.0601C48.0083 53.9788 48.0261 53.8979 48.0411 53.8164C48.0613 53.7056 48.06 53.6998 47.9554 53.6581C47.7544 53.5778 47.5542 53.4957 47.3608 53.3966C47.2465 53.338 47.1336 53.2768 47.0209 53.2149C46.9037 53.1508 46.9044 53.1499 46.8225 53.2666C46.7786 53.329 46.7376 53.3935 46.692 53.4536C46.4916 53.7207 46.1754 53.7768 45.9083 53.59C45.8065 53.5188 45.7073 53.4426 45.6118 53.3622C45.368 53.1564 45.3155 52.8188 45.483 52.5398C45.5328 52.4569 45.5882 52.3776 45.6442 52.2992C45.683 52.2448 45.6855 52.2013 45.6355 52.1513C45.3684 51.8852 45.1233 51.5952 44.903 51.2844C44.8612 51.2252 44.82 51.2255 44.7658 51.2616C44.6998 51.3057 44.6313 51.3461 44.5628 51.3863C44.2551 51.5644 43.9345 51.4765 43.7539 51.1563C43.6893 51.0416 43.6102 50.9364 43.5658 50.8077C43.4556 50.489 43.5485 50.1937 43.8236 50.016C43.8822 49.9783 43.942 49.9434 43.9994 49.9056C44.101 49.8395 44.1036 49.8376 44.0588 49.7221C43.9657 49.4824 43.8857 49.2372 43.8191 48.9877C43.7898 48.8786 43.762 48.7676 43.7376 48.6567C43.7201 48.5757 43.6802 48.5443 43.6018 48.5618C43.5394 48.574 43.4765 48.5828 43.4133 48.5883C43.0411 48.63 42.7652 48.393 42.7264 47.9983C42.7157 47.8892 42.7043 47.7815 42.6971 47.6729C42.6871 47.5157 42.7343 47.3605 42.8288 47.2392C42.9233 47.1179 43.058 47.0399 43.2051 47.0212C43.2873 47.0104 43.37 47.0036 43.4518 46.99C43.5584 46.9713 43.562 46.969 43.5636 46.8506C43.5684 46.5913 43.587 46.3325 43.6193 46.0754C43.6327 45.9624 43.6683 45.8526 43.6606 45.7368C43.6525 45.6576 43.6209 45.6085 43.5611 45.5838C43.5201 45.5711 43.5104 45.5657 43.4493 45.5495C43.3289 45.5183 43.2196 45.4628 43.1324 45.369" fill="#414141"/>
<path d="M43.6661 45.8072C43.6799 45.7279 43.6478 45.6085 43.5711 45.5858C43.5054 45.5661 43.4002 45.5242 43.3348 45.5033C43.0751 45.42 42.9121 45.202 42.8836 44.9091C42.8506 44.7845 42.9539 44.3812 43.0008 44.2504C43.1057 43.9623 43.3628 43.7943 43.6526 43.8409C43.7152 43.8506 43.7766 43.8675 43.8357 43.8914C43.9452 43.9366 44.0294 43.901 44.0778 43.7904C44.197 43.518 44.3755 43.2481 44.4902 42.974C44.6013 42.7091 44.5226 42.731 44.5614 42.7402C44.6563 42.8272 46.0419 43.5437 46.4786 43.9183C46.1941 44.2456 45.5621 45.7276 45.5357 46.2233" fill="#414141"/>
<path d="M46.495 43.8949C47.3795 42.8781 48.0124 42.4416 48.8855 42.1777C49.4167 42.0159 49.9711 41.9571 50.522 42.0041C51.4489 42.0835 52.2861 42.4277 53.0232 43.0362C53.6732 43.5731 54.1466 44.2532 54.4695 45.0551C54.6672 45.5457 54.7715 46.0584 54.8203 46.5899C54.8902 47.3509 54.7369 48.2011 54.4914 48.9105C54.4417 48.9572 53.5371 48.2987 53.4403 48.1704C53.4182 48.1012 53.4456 48.0378 53.4621 47.9736C53.5511 47.627 53.6086 47.275 53.5984 46.9148C53.5497 45.184 52.441 43.7564 50.9076 43.4076C49.7759 43.1502 48.576 43.4099 47.4776 44.5972C47.45 44.6138 47.4413 44.5781 47.2548 44.4414C46.9417 44.2388 46.7876 44.1118 46.5737 43.9739C46.451 43.8979 46.4572 43.9388 46.495 43.8949Z" fill="#414141"/>
<path d="M54.5095 48.8605C54.48 48.9104 54.4534 48.9621 54.4298 49.0154C54.16 49.7068 53.728 50.2744 53.2019 50.7551C52.5133 51.3846 51.7145 51.7771 50.8078 51.9032C50.5856 51.9343 50.363 51.9682 50.1384 51.9607C49.4892 51.9387 48.8617 51.8115 48.2621 51.5338C47.8819 51.3566 47.5259 51.1254 47.2039 50.8466C46.7027 50.4154 46.2955 49.8973 45.9965 49.2833C45.7218 48.7176 45.5637 48.1194 45.4966 47.4889C45.438 46.9462 45.484 46.4136 45.5908 45.8824C45.713 45.2763 45.941 44.7178 46.2592 44.2003C46.3045 44.1267 46.4362 43.9597 46.479 43.9178C46.7102 44.0456 47.3413 44.4887 47.4426 44.585C47.5063 44.6737 47.3885 44.7904 47.352 44.8473C47.1581 45.1489 46.9982 45.4672 46.8955 45.8171C46.5374 47.0359 46.7015 48.1702 47.4229 49.1899C48.0248 50.0408 48.8434 50.5072 49.8442 50.6141C51.27 50.7664 52.7333 49.9054 53.3355 48.3857C53.3687 48.3018 53.3604 48.1694 53.4958 48.1628C53.5828 48.2691 54.4072 48.8008 54.5095 48.8605Z" fill="#5F5F5F"/>
<path d="M53.4955 48.163C53.382 48.4726 53.2551 48.7745 53.0771 49.05C52.5133 49.9227 51.7439 50.4642 50.7641 50.6507C49.7718 50.8396 48.8635 50.604 48.0559 49.9691C47.3455 49.4104 46.8923 48.6588 46.7173 47.7385C46.5105 46.6506 46.7277 45.6495 47.3333 44.7447C47.3559 44.7109 47.3773 44.6768 47.4 44.6428C47.4228 44.6138 47.7239 44.2604 47.8704 44.1298C48.5196 43.5513 49.2623 43.2548 50.1113 43.2376C51.7018 43.2055 53.1366 44.3508 53.5503 46.0148C53.7159 46.6808 53.7115 47.3484 53.5314 48.0126C53.5179 48.0618 53.5074 48.1128 53.4955 48.163Z" fill="#EDAE50"/>
<path d="M51.0976 46.9744C51.1244 47.544 50.6328 47.9849 50.1665 47.979C49.6344 47.9723 49.1976 47.5283 49.2024 46.9649C49.207 46.4144 49.6116 45.959 50.1731 45.9575C50.6409 45.9561 51.1235 46.4013 51.0976 46.9744Z" fill="#414141"/>
<path d="M51.1513 45.0816C51.2595 45.0699 51.3496 45.1106 51.4244 45.196C51.4907 45.2716 51.5619 45.3426 51.6266 45.4198C51.7769 45.5985 51.6852 45.9256 51.4907 45.99C51.4058 46.018 51.3279 46.0199 51.2532 45.9677C51.093 45.8558 50.9565 45.7143 50.8353 45.5591C50.7065 45.3942 50.772 45.1831 50.9634 45.1115C51.0235 45.0881 51.0874 45.0779 51.1513 45.0816V45.0816Z" fill="#FF9400"/>
<path d="M25.6185 54.7969C25.3548 54.6493 25.1983 54.4199 25.1513 54.105C25.1352 53.9976 25.1073 53.8926 25.0867 53.7857C25.072 53.7109 25.0366 53.6859 24.9632 53.6922C24.4965 53.734 24.0276 53.7392 23.5602 53.7077C23.4969 53.7037 23.4334 53.7 23.3706 53.6922C23.3107 53.685 23.2795 53.7113 23.2672 53.7727C23.2449 53.8843 23.215 53.9943 23.1977 54.1068C23.1442 54.4539 22.9655 54.6925 22.6612 54.8268C22.4665 54.8831 22.2719 54.8634 22.0774 54.8251C21.8971 54.7894 21.7121 54.7727 21.5487 54.672C21.486 54.623 21.4186 54.5806 21.3643 54.5196C21.1702 54.3015 21.0899 54.0468 21.14 53.7497C21.1589 53.6375 21.1839 53.5267 21.2052 53.4148C21.2411 53.2237 21.2408 53.2226 21.0733 53.1597C20.692 53.0155 20.32 52.8448 19.9598 52.6485C19.8731 52.6018 19.7852 52.555 19.7023 52.5016C19.639 52.4601 19.5969 52.4689 19.5558 52.5327C19.4926 52.6311 19.4226 52.7244 19.3599 52.8234C19.0928 53.2452 18.5687 53.3688 18.1568 53.0308C18.0488 52.9421 17.9348 52.8617 17.8265 52.7737C17.4443 52.4629 17.3745 51.9678 17.6531 51.5482C17.726 51.438 17.8006 51.3289 17.8768 51.2209C17.913 51.1701 17.9124 51.1285 17.8665 51.0868C17.8442 51.0667 17.8243 51.0437 17.8031 51.0222C17.4462 50.6613 17.1165 50.2711 16.8172 49.8552C16.7322 49.7371 16.7315 49.7375 16.6067 49.8139C16.5221 49.8656 16.438 49.9178 16.3535 49.9697C15.909 50.2399 15.4674 50.1212 15.1927 49.6581C15.1551 49.5988 15.1408 49.5773 15.1014 49.5061C15.0529 49.4061 14.9943 49.3123 14.9504 49.2088C14.763 48.7673 14.8935 48.3155 15.2857 48.0662C15.3778 48.0076 15.4712 47.9515 15.5641 47.8934C15.6878 47.8155 15.6891 47.8145 15.6359 47.6791C15.465 47.2435 15.324 46.7953 15.214 46.338C15.1958 46.2627 15.1759 46.1878 15.1612 46.1117C15.1466 46.0357 15.105 46.0109 15.0351 46.0204C14.9045 46.038 14.7738 46.0583 14.6426 46.0662C14.3056 46.0869 14.0455 45.9444 13.8696 45.6369C13.7963 45.5104 13.7688 45.3685 13.7565 45.2221C13.7474 45.113 13.7272 45.015 13.7203 44.8979C13.6919 44.4558 13.9298 43.9006 14.4528 43.8607C14.5646 43.8523 14.6758 43.8344 14.7873 43.8213C14.9162 43.8057 14.9208 43.8046 14.9237 43.6742C14.9321 43.2904 14.9615 42.9075 15.0116 42.5274C15.0321 42.3734 15.0556 42.2197 15.0811 42.0667C15.1055 41.9205 15.1057 41.9174 14.9687 41.8697C14.8661 41.8342 14.7636 41.8007 14.6626 41.7642C14.224 41.6068 13.9975 41.1626 14.1206 40.6898C14.166 40.5151 14.2218 40.343 14.2817 40.1732C14.4354 39.7354 14.8562 39.5146 15.278 39.6471C15.4043 39.6867 15.5309 39.7262 15.6536 39.7761C15.7322 39.8073 15.767 39.7812 15.8001 39.7075C15.8779 39.5344 15.9625 39.3647 16.0444 39.1941C16.0737 39.1352 16.1006 39.0881 16.1272 39.034C16.2151 38.8626 16.3084 38.6935 16.4202 38.5374C16.5208 38.4439 33.4565 49.0371 33.4087 49.1592C33.3762 49.2216 33.3501 49.2819 33.3189 49.342C33.2591 49.4549 33.2027 49.5697 33.1391 49.68C32.8975 50.0981 32.4577 50.2255 32.0472 49.9975C31.9394 49.9375 31.8358 49.8686 31.7299 49.8044C31.6197 49.7377 31.6184 49.7371 31.5435 49.8399C31.3764 50.0696 31.2015 50.2925 31.019 50.5085C30.8556 50.7014 30.6829 50.8842 30.5071 51.0638C30.4262 51.1464 30.4264 51.1489 30.4886 51.2429C30.5588 51.3489 30.6329 51.4517 30.7025 51.5582C30.9724 51.9711 30.9 52.4679 30.5251 52.7718C30.405 52.8694 30.2829 52.964 30.1588 53.0557C29.7693 53.3429 29.3064 53.2644 29.0184 52.8627C28.9451 52.7596 28.8756 52.6526 28.8023 52.549C28.7361 52.4555 28.7336 52.4541 28.6366 52.5102C28.2388 52.7418 27.8259 52.9427 27.4011 53.1115C27.3416 53.1349 27.2817 53.1569 27.2225 53.1809C27.1154 53.2243 27.1133 53.2259 27.1346 53.3523C27.1535 53.4645 27.1693 53.5782 27.1996 53.6872C27.3127 54.0945 27.0766 54.5865 26.5522 54.7596C26.3255 54.8346 25.8346 54.889 25.6185 54.7969Z" fill="#414141"/>
<path d="M33.3768 49.1897C33.0211 48.9701 29.8553 46.8954 29.6336 46.7653C29.5133 46.7007 29.5525 46.6929 29.6254 46.5472C29.8844 45.9588 30.0586 45.3323 30.1423 44.6888C30.2027 44.2201 30.1994 43.7493 30.1631 43.2773C30.1291 42.8325 30.0505 42.3928 29.9287 41.9658C29.7735 41.4216 29.5491 40.9123 29.2719 40.4256C28.9626 39.8829 28.5686 39.4194 28.1334 38.992C27.7987 38.6633 27.4204 38.3965 27.0211 38.1646C26.421 37.814 25.768 37.5773 25.0915 37.4654C24.6666 37.3953 24.2378 37.3607 23.809 37.3906C22.8964 37.4545 22.0324 37.7097 21.2288 38.1796C20.5949 38.5598 20.0275 39.0537 19.5517 39.6394C19.4304 39.7889 19.2577 40.0864 19.1388 40.2372C19.0706 40.3239 17.9345 39.54 16.3891 38.5676C16.4461 38.4609 16.5011 38.3736 16.562 38.2804C16.6 38.2221 16.5969 38.178 16.5474 38.1319C16.4526 38.0424 16.3581 37.9525 16.265 37.8609C15.9691 37.5689 15.8999 37.1816 16.0853 36.8012C16.1276 36.7141 16.2041 36.5093 16.3207 36.3605C16.3771 36.2885 16.4392 36.2229 16.5002 36.1558C16.7985 35.8276 17.3784 35.8221 17.6897 36.1246C18.0665 36.4902 18.017 36.4051 18.3343 36.1462C18.6055 35.9254 18.8799 35.7099 19.1668 35.512C19.3212 35.4056 19.3312 35.3541 19.2531 35.1759C19.1661 34.977 19.0877 34.7771 19.1045 34.5499C19.1254 34.2694 19.2325 34.0294 19.448 33.8735C19.7556 33.6513 20.0824 33.4684 20.4749 33.4797C20.7991 33.4894 21.0262 33.6608 21.1908 33.9416C21.2495 34.0426 21.295 34.153 21.3425 34.2611C21.3864 34.3624 21.4576 34.3954 21.5574 34.3675C21.9778 34.2505 22.4035 34.1618 22.8321 34.0881C22.9878 34.0613 23.0191 34.0127 23.0252 33.8481C23.028 33.791 23.028 33.7338 23.0252 33.6767C22.9919 33.1537 23.3728 32.7148 23.823 32.6844C24.0712 32.6675 24.3199 32.6476 24.5663 32.6999C24.9286 32.7779 25.2852 33.1308 25.2493 33.6155C25.2443 33.6825 25.248 33.7503 25.2493 33.8181C25.2525 34.0172 25.2877 34.066 25.4727 34.0942C25.8737 34.1539 26.2708 34.2401 26.6617 34.3523C26.8685 34.4124 26.9006 34.3906 26.9868 34.1849C27.0543 34.0238 27.122 33.8623 27.2413 33.733C27.4824 33.4724 27.7826 33.4304 28.0953 33.5039C28.3429 33.5622 28.5755 33.6817 28.7887 33.8294C29.1361 34.0704 29.2627 34.5031 29.1213 34.924C29.092 35.0118 29.0565 35.0975 29.0196 35.1822C28.9463 35.3485 28.9588 35.4093 29.1044 35.5073C29.4104 35.7112 29.7049 35.9338 29.9867 36.1738C30.2954 36.4387 30.2403 36.479 30.581 36.1511C30.8793 35.8639 31.3399 35.8296 31.6119 36.0264C31.8877 36.2254 32.1275 36.4763 32.2868 36.79C32.4284 37.0696 32.4094 37.5835 32.1272 37.8417C32.0425 37.9197 31.9675 38.0091 31.8889 38.0943C31.8207 38.1684 31.8115 38.2492 31.8654 38.3337C32.1176 38.7287 32.3434 39.1421 32.541 39.5709C32.5895 39.6761 32.6728 39.7029 32.7754 39.6684C32.8961 39.627 33.0193 39.5942 33.1441 39.5703C33.4779 39.5079 33.8455 39.6638 34.0169 39.9754C34.1833 40.2773 34.2856 40.6086 34.296 40.963C34.3073 41.3525 34.1249 41.6221 33.8125 41.8015C33.7088 41.8597 33.5994 41.9058 33.4864 41.939C33.367 41.9751 33.3159 42.0524 33.3399 42.1821C33.4241 42.6466 33.4521 43.1171 33.4798 43.5882C33.4871 43.7128 33.5438 43.7817 33.6616 43.7853C33.7495 43.7881 33.8361 43.8055 33.923 43.8177C34.3709 43.88 34.6772 44.2506 34.6788 44.7326C34.6796 44.8259 34.6754 44.9192 34.6664 45.012C34.6517 45.1585 34.6025 45.3684 34.5638 45.5054C34.4516 45.9045 34.073 46.123 33.6826 46.0966C33.5561 46.0882 33.4304 46.0666 33.3041 46.0533C33.1881 46.0412 33.1822 46.0427 33.1534 46.1652C33.0666 46.5327 32.9721 46.8976 32.8481 47.2532C32.7903 47.4186 32.7308 47.5833 32.6655 47.7454C32.6362 47.8172 32.6485 47.8613 32.7112 47.8989C32.8344 47.9729 32.9587 48.0455 33.0775 48.1273C33.3945 48.3455 33.5255 48.7424 33.4101 49.1212C33.4007 49.145 33.3896 49.1678 33.3768 49.1897V49.1897Z" fill="#666059"/>
<path d="M20.4635 40.9993C20.61 40.8123 20.7491 40.6181 20.9095 40.4428C21.6662 39.6158 22.5806 39.1302 23.6602 39.001C24.615 38.8866 25.5209 39.0633 26.3576 39.564C27.6457 40.3349 28.414 41.5101 28.6564 43.0588C28.7971 43.9586 28.6905 44.8369 28.3545 45.6801C28.3356 45.7278 28.3222 45.7778 28.3062 45.8267C28.3427 45.9079 28.3072 45.9776 28.2753 46.048C28.1124 46.4065 27.898 46.7279 27.65 47.0222C26.9366 47.8683 26.0636 48.4292 25.004 48.6232C23.5975 48.8807 22.3286 48.5345 21.2254 47.5673C20.3306 46.7826 19.7915 45.7667 19.6179 44.5487C19.4828 43.6006 19.5951 42.677 19.9645 41.7947C20.054 41.5807 20.1627 41.3786 20.2722 41.1758C20.3169 41.0914 20.3752 41.0283 20.4635 40.9993Z" fill="#EDAE50"/>
<path d="M21.2801 43.7929C21.2559 42.0457 22.6611 40.7142 24.1517 40.7061C25.6136 40.6982 27.0725 41.9363 27.075 43.8085C27.0775 45.5464 25.7513 46.8672 24.2034 46.8842C22.5171 46.9028 21.2492 45.4228 21.2801 43.7929Z" fill="#45423D"/>
<path d="M27.0235 40.9426C27.0476 41.2003 26.7441 41.4024 26.5331 41.2534C26.39 41.1525 26.2547 41.0496 26.1413 40.915C25.978 40.7214 26.0152 40.5207 26.2316 40.3942C26.3919 40.3007 26.5413 40.294 26.6893 40.4281C26.7934 40.5224 26.8944 40.6176 26.9691 40.7406C27.007 40.8 27.026 40.8708 27.0235 40.9426Z" fill="#FF9400"/>
<path d="M21.8633 43.814C21.8274 42.5517 22.7891 41.3206 24.1849 41.3261C25.4888 41.3317 26.5066 42.4439 26.4936 43.835C26.4808 45.2064 25.4117 46.2817 24.1412 46.265C22.8238 46.2477 21.8277 45.0685 21.8633 43.814Z" fill="#EDAE50"/>
<path d="M24.1707 44.8031C23.6513 44.8031 23.2184 44.3437 23.2222 43.7902C23.2256 43.2447 23.6229 42.7883 24.1767 42.7822C24.6819 42.7768 25.123 43.2209 25.1202 43.7987C25.1176 44.3618 24.7015 44.8037 24.1707 44.8031Z" fill="#414141"/>
<path d="M25.2672 42.1224C25.3217 42.1224 25.3751 42.1288 25.4213 42.1614C25.6228 42.3035 25.7306 42.5011 25.7235 42.7609C25.7196 42.8944 25.5396 43.0348 25.4168 43.0052C25.2092 42.955 25.04 42.8456 24.9244 42.649C24.8245 42.4788 24.8442 42.3364 24.994 42.2161C25.075 42.1515 25.1676 42.1252 25.2672 42.1224Z" fill="#FF9400"/>
<path d="M20.4637 40.9993C20.3125 41.2537 20.1661 41.5104 20.0492 41.7858C19.8528 42.2504 19.7252 42.7445 19.6711 43.2506C19.5992 43.8888 19.6488 44.5359 19.817 45.1533C19.9852 45.7707 20.2686 46.3458 20.6502 46.8442C21.2304 47.6017 21.9614 48.1236 22.8373 48.4147C23.3449 48.5835 23.8677 48.6609 24.3972 48.6237C25.7823 48.5263 26.9119 47.899 27.7751 46.7381C27.9563 46.4932 28.1126 46.2286 28.2415 45.9488C28.2608 45.9071 28.2847 45.8679 28.3064 45.8275C28.4268 45.8875 29.3637 46.5311 29.5234 46.65C29.5869 46.6968 29.5581 46.7591 29.528 46.8161C29.3634 47.1287 29.1895 47.4351 28.9802 47.7167C28.5226 48.3326 27.9889 48.8576 27.3576 49.2691C26.7448 49.6689 26.0717 49.9528 25.368 50.1085C24.8235 50.2306 24.2721 50.2487 23.7222 50.2123C22.9908 50.1644 22.2899 49.9674 21.6227 49.6382C21.1657 49.4153 20.7373 49.131 20.3481 48.7924C19.5826 48.1214 18.9888 47.3109 18.6046 46.332C18.3591 45.7036 18.2056 45.0389 18.1494 44.3611C18.0615 43.3502 18.2121 42.3772 18.5467 41.4314C18.6694 41.0851 18.8311 40.7602 19.004 40.4407C19.021 40.4096 19.04 40.3784 19.0597 40.3493C19.1647 40.1905 19.1846 40.1855 19.3408 40.2802C19.6031 40.4393 20.1075 40.7721 20.3643 40.9388C20.3987 40.9566 20.4318 40.9768 20.4637 40.9993V40.9993Z" fill="#666059"/>
<path d="M28.6067 44.8218C28.7392 44.1947 28.7516 43.5456 28.6432 42.9132C28.5348 42.2809 28.3078 41.6782 27.9757 41.1412C27.4207 40.3799 26.7235 39.7387 25.9498 39.3427C25.4668 39.1214 24.9493 38.9981 24.4237 38.9791C23.0364 38.9266 21.8471 39.4155 20.8782 40.4779C20.7258 40.6481 20.5828 40.8274 20.4497 41.0149C20.3357 40.9423 19.2862 40.3729 19.1387 40.2373C19.0801 40.1834 19.5376 39.6319 19.7728 39.3743C20.2867 38.8111 20.8676 38.3458 21.5351 38.005C22.1599 37.6622 22.874 37.4663 23.5945 37.3848C24.1469 37.3213 24.7049 37.337 25.2534 37.4315C25.9764 37.5582 26.6431 37.8574 27.2753 38.2574C27.7088 38.5285 28.1079 38.8575 28.4629 39.2364C29.1604 39.9866 29.6738 40.8571 29.963 41.8723C30.1473 42.5241 30.2366 43.2021 30.2277 43.8826C30.2182 44.8977 29.9787 45.8306 29.6307 46.5817C29.5617 46.7307 29.6243 46.7269 29.4243 46.5817C29.1786 46.3947 28.5656 46.0042 28.3068 45.8276C28.2907 45.8145 28.502 45.3219 28.6067 44.8218Z" fill="#45423D"/>
<path d="M22.1657 18.3626C22.059 18.0016 21.9771 17.6336 21.8873 17.2678C21.8636 17.1715 21.8902 17.1456 21.9868 17.1207C27.3293 15.7388 33.8261 16.7947 37.1629 17.8698C37.6916 18.0716 38.2063 18.3062 38.6825 18.627C38.8891 18.7663 39.0851 18.9198 39.2392 19.1257C39.2822 19.1821 39.3208 19.242 39.3548 19.3049C39.4355 19.4578 39.4536 19.6119 39.3777 19.7791C39.2019 20.167 39.0107 20.5462 38.8041 20.9167C38.6706 21.1579 38.5333 21.3968 38.398 21.637C38.3342 21.7535 38.2627 21.865 38.1839 21.9706C38.1149 22.039 38.0374 22.0061 37.963 21.9884C37.6362 21.9105 37.3062 21.8495 36.9813 21.7644C36.9575 21.7582 36.9331 21.7688 36.909 21.7697C36.5688 21.6526 36.2095 21.6392 35.8641 21.5516C35.8188 21.54 35.7794 21.5692 35.736 21.5614C35.1686 21.4441 34.5932 21.3848 34.0218 21.3013C33.8208 21.2719 33.6135 21.2874 33.4187 21.2111C33.3442 21.1274 33.3308 21.018 33.3057 20.9125C33.1617 20.2901 32.9746 19.6861 32.6318 19.1497C32.5796 19.0682 32.5229 18.9904 32.4634 18.9147C32.2851 18.687 32.0722 18.5516 31.7832 18.5112C31.0292 18.4057 30.2741 18.3146 29.5168 18.2463C28.2568 18.1321 26.9954 18.1126 25.733 18.1316C25.1101 18.1408 24.4877 18.1849 23.8659 18.2419C23.3511 18.2887 22.8374 18.3442 22.3252 18.4163C22.2618 18.4229 22.207 18.4188 22.1657 18.3626Z" fill="#EDAE50"/>
<path d="M39.8811 29.2289C39.5262 29.2263 39.1714 29.2185 38.8167 29.2238C38.7036 29.2253 38.6785 29.1554 38.6539 29.0689C38.5578 29.0377 38.5604 28.9442 38.5457 28.8663C38.4309 28.2665 38.323 27.665 38.1981 27.0673C37.8912 25.598 37.5463 24.139 37.1267 22.7008C37.0545 22.4531 36.9767 22.2071 36.9061 21.9587C36.8845 21.8832 36.8435 21.8007 36.9129 21.725C36.9386 21.6938 36.9729 21.6938 37.0066 21.7002C37.4014 21.7781 37.796 21.856 38.1838 21.9686C38.4384 22.7309 38.6526 23.5065 38.8502 24.2874C39.1188 25.3486 39.3493 26.4197 39.5642 27.4945C39.6442 27.8959 39.8802 29.2189 39.8811 29.2289Z" fill="#45423D"/>
<path d="M22.1656 18.3625C22.6322 18.2778 23.1032 18.2285 23.574 18.1836C23.9134 18.1512 24.2547 18.1305 24.595 18.1057C25.5406 18.0359 26.487 18.0373 27.4332 18.0543C28.1205 18.0666 28.8072 18.1054 29.4933 18.1634C29.9502 18.202 30.4065 18.2464 30.8617 18.3018C31.2441 18.3485 31.6235 18.416 32.0061 18.469C32.1297 18.486 32.2229 18.5505 32.3112 18.6363C32.6158 18.9324 32.8309 19.2946 32.9998 19.6898C33.2008 20.1595 33.3389 20.6507 33.4304 21.157C33.4092 21.228 33.3547 21.229 33.2996 21.2254C33.0565 21.2098 32.813 21.1916 32.5709 21.1676C32.3572 21.1465 32.1428 21.1364 31.9294 21.1236C31.5894 21.1037 31.2489 21.0644 30.9071 21.0845C30.7752 21.0925 30.6453 21.0571 30.5137 21.0549C30.3356 21.0521 30.2802 21.0931 30.2183 21.2687C29.8541 22.3045 29.5542 23.3617 29.2906 24.4311C28.8833 26.0829 28.5727 27.7564 28.3115 29.4405C28.2415 29.8906 28.1845 30.3428 28.1221 30.7943C28.1093 30.8861 28.1 30.9802 28.045 31.0592C28.0021 31.105 27.9474 31.1081 27.895 31.0936C27.65 31.0263 27.4068 30.9512 27.1624 30.882C27.1433 30.8774 27.1256 30.8679 27.1107 30.8543C27.0958 30.8408 27.0843 30.8235 27.0772 30.8041C27.0378 30.6914 27.0625 30.5769 27.0783 30.4659C27.3274 28.6442 27.6323 26.8339 28.0333 25.0429C28.3169 23.7763 28.6401 22.5224 29.0542 21.2961C29.1169 21.1107 29.0817 21.0568 28.8986 21.0546C28.1728 21.046 27.4481 21.0728 26.7226 21.1098C26.3581 21.1285 25.9937 21.1444 25.6301 21.1768C25.6058 21.1768 25.5813 21.1777 25.5568 21.1779C25.1772 21.1805 25.1684 21.1894 25.0487 21.5651C24.3521 23.7496 23.8651 25.989 23.4889 28.2581C23.3763 28.9367 23.2777 29.6176 23.1775 30.2983C23.1684 30.3606 23.162 30.422 23.1251 30.4742C23.0899 30.5345 23.0319 30.5426 22.9736 30.5521C22.6709 30.5989 22.3664 30.6314 22.0652 30.6883C21.9974 30.7013 21.914 30.7167 21.9004 30.6004C21.9509 30.2417 22.0015 29.883 22.0522 29.5242C22.1834 28.5911 22.3321 27.6613 22.4982 26.7348C22.7159 25.5208 22.9649 24.3164 23.2726 23.1264C23.4191 22.562 23.5705 21.9988 23.7546 21.4465C23.8191 21.253 23.8188 21.253 23.6795 21.1193C23.3434 20.7956 23.0084 20.4707 22.6706 20.149C22.6085 20.0911 22.565 20.0139 22.5462 19.9284C22.4318 19.4567 22.3118 18.9865 22.1937 18.5157C22.1733 18.4676 22.1637 18.4151 22.1659 18.3624L22.1656 18.3625Z" fill="#45423D"/>
<path d="M22.1662 18.3618C22.1841 18.4112 22.2045 18.46 22.1941 18.5151C22.1648 18.4686 22.1276 18.4227 22.1662 18.3618Z" fill="#A9A9A9"/>
<path d="M29.9227 31.9071C29.3613 31.5864 28.7727 31.3336 28.1707 31.1147C28.1159 31.0947 28.0584 31.0799 28.0166 31.0321C28.0786 30.5753 28.1359 30.1178 28.2033 29.662C28.3595 28.6067 28.542 27.5566 28.7508 26.5118C29.0687 24.9282 29.449 23.3627 29.9491 21.8321C30.0291 21.5871 30.112 21.3432 30.1952 21.0996C30.2373 20.9764 30.2392 20.9759 30.3632 20.9796C31.0557 21.0005 31.7479 21.0287 32.4393 21.0748C32.77 21.0968 33.1001 21.1292 33.4304 21.157C33.9763 21.2128 34.5203 21.2843 35.0633 21.3661C35.294 21.401 35.5248 21.4331 35.7539 21.4785C35.8858 21.5344 35.9674 21.6416 36.047 21.7647C36.3493 22.2333 36.5904 22.7393 36.7908 23.2607C37.0006 23.8062 37.1925 24.3625 37.322 24.9389C37.373 25.1658 37.4454 25.387 37.4978 25.6131C37.6693 26.3572 37.8593 27.0965 37.9979 27.8492C38.0689 28.2352 38.1444 28.6209 38.238 29.0023C38.2629 29.1038 38.3042 29.2186 38.1813 29.2917C38.1681 29.3073 38.1573 29.3268 38.1412 29.336C37.9237 29.4583 37.7768 29.6575 37.6341 29.8605C37.3956 30.1995 37.1594 30.5403 36.9223 30.8805C36.8555 30.9116 36.8005 30.8858 36.7458 30.8442C36.4603 30.6266 36.1722 30.4129 35.8814 30.2029C35.7336 30.0958 35.7221 30.0422 35.8213 29.8842C35.9621 29.6598 36.1135 29.4432 36.2587 29.2221C36.3145 29.137 36.3743 29.0542 36.4198 28.9623C36.502 28.7955 36.4718 28.6293 36.3455 28.5297C36.2192 28.4301 36.0619 28.4504 35.9407 28.5948C35.7879 28.7772 35.6675 28.9861 35.537 29.187C35.1226 29.8221 34.7075 30.4567 34.2916 31.0908C34.2525 31.1504 34.2126 31.2099 34.1861 31.2778C34.1253 31.4321 34.1677 31.5911 34.2909 31.6766C34.4184 31.7651 34.565 31.7477 34.673 31.6162C34.824 31.4323 34.9436 31.2228 35.075 31.024C35.1588 30.8964 35.2423 30.7686 35.3288 30.6431C35.389 30.5559 35.4555 30.5429 35.5422 30.6021C35.8584 30.8183 36.1602 31.0562 36.4686 31.2841C36.5203 31.3223 36.5712 31.3675 36.5691 31.4457C36.4727 31.6129 36.3766 31.7804 36.2795 31.947C36.2307 32.0307 36.1784 32.112 36.1302 32.1963C35.9296 32.5449 35.9234 32.9054 36.0963 33.2632C36.5619 34.2267 37.0457 35.18 37.5916 36.0956C37.6596 36.2096 37.7327 36.3196 37.801 36.4329C37.9933 36.7519 38.2806 36.8798 38.6188 36.8906C38.9449 36.9008 39.2703 36.8628 39.5951 36.8324C39.5878 38.275 39.1996 39.5948 38.473 40.8092C38.3712 40.9792 38.2612 41.0518 38.0628 41.0456C37.5368 41.0289 37.0101 41.0425 36.4837 41.044C36.3773 41.0285 36.3811 40.9284 36.3665 40.8533C36.3041 40.5438 36.222 40.2404 36.1353 39.9379C35.8024 38.7709 35.3198 37.6583 34.701 36.6316C34.501 36.2996 34.2777 35.9861 34.0683 35.6618C33.8736 35.3916 33.6637 35.1343 33.447 34.8847C33.0611 34.4401 32.6605 34.0104 32.222 33.6224C31.5879 33.0645 30.9088 32.5673 30.1924 32.1365C30.0932 32.0731 29.9743 32.0336 29.9227 31.9071Z" fill="#B9E1E1"/>
<path d="M38.1495 29.3279C38.1901 29.2344 38.1866 29.1054 38.1655 29.0173C37.9805 28.2498 36.6737 22.8991 35.9347 21.7216C35.8452 21.5788 35.8241 21.541 35.7537 21.4785C36.1007 21.5072 36.4411 21.5851 36.7851 21.6362C36.8114 21.6394 36.8367 21.6492 36.8588 21.6648C36.8809 21.6804 36.8992 21.7013 36.9123 21.7258C37.3738 23.2167 37.7697 24.727 38.1002 26.2567C38.3026 27.1889 38.5104 28.1906 38.6756 29.1312C38.6761 29.1334 38.6769 29.1355 38.678 29.1373C38.7113 29.2029 38.7197 29.1848 38.5265 29.2106C38.4067 29.2269 38.2455 29.2838 38.1495 29.3279Z" fill="#DCF9FB"/>
<path d="M27.1112 30.7859C26.8107 30.7235 26.5105 30.6554 26.2093 30.6006C25.8499 30.5359 25.4875 30.4912 25.1238 30.4667C24.7795 30.4429 24.4381 30.4356 24.0932 30.4348C23.8994 30.4348 23.7031 30.4549 23.5081 30.4396C23.4282 30.3745 23.4426 30.2861 23.4541 30.1974C23.6196 28.9286 23.8119 27.6653 24.0626 26.4107C24.2384 25.5271 24.4364 24.6497 24.68 23.7851C24.9127 22.9592 25.1837 22.1478 25.6037 21.404C25.667 21.2921 25.677 21.1995 25.61 21.0946C25.6563 21.0749 25.7056 21.075 25.7541 21.0727C26.8596 21.0194 27.965 20.9616 29.0722 20.9723C29.12 20.9723 29.1696 20.9603 29.2161 20.9856C29.2347 21.0415 29.2036 21.0872 29.1877 21.1338C28.6995 22.5519 28.3306 24.008 28.0129 25.4789C27.7435 26.7268 27.5198 27.9841 27.327 29.2478C27.2493 29.7599 27.1833 30.2733 27.1112 30.7859Z" fill="#B9E1E1"/>
<path d="M25.7069 21.0754C25.9048 21.0508 25.886 21.0623 25.7674 21.278C25.4469 21.8602 25.1771 22.4588 24.9709 23.0904C24.8514 23.4564 24.7355 23.8259 24.646 24.2035C24.5483 24.6155 24.4329 25.0227 24.3423 25.4369C24.2504 25.8561 24.1729 26.2785 24.0879 26.6992C24.0009 27.1301 23.9121 27.5605 23.8459 27.9954C23.7433 28.6707 23.6443 29.3465 23.5488 30.0227C23.5294 30.1603 23.5048 30.2988 23.5088 30.4397C23.4594 30.4633 23.1212 30.5003 23.0955 30.4397C23.1177 30.1083 23.1762 29.7818 23.2244 29.4544C23.3436 28.6453 23.4777 27.8388 23.6264 27.035C23.9735 25.1775 24.4012 23.3417 24.9743 21.5478C25.0105 21.4349 25.0533 21.3243 25.0854 21.2102C25.1041 21.1434 25.1415 21.1186 25.2014 21.1167C25.3387 21.1094 25.6825 21.0743 25.7069 21.0754Z" fill="#DCF9FB"/>
<path d="M43.9838 43.9254C43.6429 43.8975 43.263 43.6121 42.9917 44.3491C42.7219 45.0796 43.1184 45.3611 43.0586 45.3364C43.0291 45.3325 42.9994 45.3315 42.9697 45.3335C42.7464 45.3363 42.5155 45.297 42.2927 45.2967C42.2137 45.2582 42.2323 45.1895 42.2455 45.1229C42.3578 44.5486 42.5298 43.9894 42.7583 43.4555C43.0607 42.7555 43.4309 42.0997 43.8948 41.5045C44.5394 40.6777 45.2948 39.9928 46.1731 39.4608C47.0873 38.907 48.0687 38.5645 49.1083 38.4152C49.6105 38.3432 50.117 38.3162 50.6247 38.3541C50.8173 38.3684 50.9678 38.2849 51.0714 38.116C51.1136 38.0472 51.1602 37.9949 51.2325 37.9676C51.3162 37.9667 51.3922 38.0044 51.4721 38.0234C51.6479 38.0653 51.6662 38.0586 51.7433 37.8894C51.8678 37.616 51.9969 37.3454 52.1577 37.0931C52.1973 37.0659 52.2303 37.0292 52.2541 36.986C52.4626 36.6464 52.7293 36.3656 53.0427 36.1351C53.0515 36.1307 53.0614 36.129 53.0711 36.1302C53.1845 36.1302 53.2141 36.2223 53.2415 36.3123C53.3615 36.7074 53.4964 37.0957 53.6633 37.4721C53.9396 38.0954 54.281 38.672 54.719 39.1808C54.7844 39.2567 54.8668 39.3243 54.8286 39.4481C54.6004 39.874 54.3723 40.2999 54.1441 40.7259C54.1106 40.7882 54.0735 40.849 54.038 40.9106C53.9746 41.0178 53.903 41.1194 53.824 41.2143C53.8035 41.1985 53.7817 41.1846 53.7589 41.1727C53.7458 41.1658 53.7208 41.1424 53.7081 41.135C53.4691 40.9967 53.503 40.9875 53.622 40.7298C53.6967 40.5673 53.7355 40.4025 53.6883 40.2193C53.6697 40.1436 53.6366 40.0729 53.591 40.0115C53.5455 39.9501 53.4885 39.8994 53.4236 39.8626C53.2708 39.7742 53.1123 39.6912 52.9376 39.6522C52.6926 39.5981 52.4367 39.7189 52.3188 39.9545C52.2798 40.0324 52.2525 40.116 52.2162 40.1954C52.1643 40.3112 52.1344 40.3274 52.0215 40.2931C51.7209 40.202 51.4173 40.1275 51.1062 40.0906C51.0769 40.087 51.0493 40.075 51.0202 40.0722C50.9372 40.0617 50.9022 40.0098 50.903 39.9246C50.903 39.8415 50.8978 39.7583 50.903 39.6753C50.9222 39.3613 50.7341 39.149 50.4612 39.0917C50.2643 39.0502 50.0614 39.0529 49.8656 39.0998C49.6154 39.1598 49.4672 39.3223 49.4324 39.5984C49.4183 39.7009 49.4101 39.8042 49.4078 39.9078C49.4063 40.0426 49.3976 40.0539 49.2696 40.0806C49.1118 40.1135 48.9526 40.1384 48.7946 40.1703C48.6317 40.2034 48.4705 40.2446 48.3111 40.2939C48.2076 40.3262 48.1832 40.3132 48.14 40.2104C48.1002 40.1158 48.0628 40.0201 48.0115 39.9315C47.8763 39.6977 47.6318 39.5897 47.3815 39.6583C47.2017 39.7082 47.0307 39.7886 46.8749 39.8964C46.648 40.0522 46.565 40.3464 46.6611 40.624C46.6897 40.7064 46.7318 40.7834 46.7652 40.8641C46.8074 40.9657 46.8037 40.9899 46.7199 41.0444C46.4241 41.237 46.1503 41.4619 45.8779 41.6891C45.7984 41.7557 45.7765 41.7564 45.7021 41.6834C45.6358 41.6146 45.5656 41.5503 45.4917 41.4909C45.2823 41.3298 44.9964 41.3277 44.7996 41.5045C44.6623 41.6279 44.5325 41.7622 44.4348 41.9269C44.2867 42.1763 44.3208 42.4723 44.5227 42.6749C44.6043 42.7569 44.6128 42.7631 44.7455 42.8596C44.5416 43.0765 44.1434 43.662 44.0268 43.8926" fill="#414141"/>
<path d="M41.2565 45.2676C40.4368 45.2666 39.617 45.2658 38.7972 45.2649C37.4944 45.2649 36.1915 45.2649 34.8886 45.2649C34.5882 45.2649 34.5831 45.2548 34.6249 44.9413C34.6542 44.7128 34.6594 44.4848 34.5389 44.2769C34.4089 44.0528 34.2253 43.9092 33.9788 43.869C33.8585 43.848 33.7371 43.8348 33.6153 43.8297C33.4688 43.8252 33.4422 43.7864 33.4368 43.6291C33.4192 43.1211 33.3801 42.6162 33.2883 42.1155C33.2518 41.9176 33.2619 41.9009 33.4485 41.8461C33.5996 41.8018 33.7467 41.7468 33.8815 41.6606C34.2164 41.4462 34.3147 41.08 34.2344 40.7035C34.1978 40.5321 34.142 40.3645 34.0879 40.1979C33.9474 39.7657 33.5751 39.5408 33.153 39.6249C33.0084 39.6538 32.87 39.7029 32.7305 39.7496C32.6161 39.7886 32.6017 39.7847 32.5485 39.6664C32.3268 39.1692 32.0653 38.6931 31.7669 38.2436C31.7108 38.1598 31.7137 38.1334 31.7991 38.0652C31.9163 37.9708 32.0113 37.8509 32.12 37.7471C32.3815 37.4978 32.3768 36.9729 32.2203 36.7224C32.073 36.4866 31.8862 36.286 31.6829 36.1098C31.4273 35.8874 30.979 35.8794 30.6947 36.1512C30.5969 36.2447 30.4858 36.3226 30.3992 36.4294C30.3474 36.4934 30.2995 36.4948 30.2381 36.4397C30.0932 36.3089 29.9468 36.1797 29.7965 36.0562C29.5609 35.8626 29.313 35.6882 29.0616 35.5181C28.8437 35.3706 28.8538 35.4038 28.9646 35.1596C29.0108 35.0624 29.0514 34.9623 29.0862 34.8598C29.2129 34.4607 29.0981 34.0235 28.6938 33.8053C28.5195 33.7118 28.3444 33.6153 28.1565 33.5609C27.8927 33.4846 27.6353 33.4986 27.4035 33.6817C27.3095 33.757 27.2341 33.8554 27.1838 33.9686C27.1214 34.1036 27.0666 34.2424 27.0068 34.3786C26.9615 34.4813 26.9516 34.4877 26.8494 34.4536C26.4577 34.3227 26.0571 34.2332 25.652 34.1648C25.5558 34.1492 25.4592 34.1336 25.3628 34.119C25.2232 34.0975 25.2123 34.0859 25.2098 33.93C25.2079 33.8003 25.2084 33.6705 25.2098 33.5404C25.2131 33.1801 25.034 32.9482 24.7442 32.7978C24.6609 32.7531 24.5698 32.7274 24.4766 32.7225C24.2577 32.7146 24.0384 32.6998 23.8198 32.7381C23.4029 32.8123 23.1441 33.1218 23.1312 33.57C23.1279 33.684 23.1312 33.7983 23.1298 33.9128C23.1278 34.0878 23.1211 34.0931 22.9627 34.1199C22.476 34.2019 21.9907 34.2913 21.5178 34.4436C21.405 34.4797 21.3915 34.4719 21.3399 34.3535C21.2909 34.2405 21.2429 34.1269 21.1934 34.0139C20.9986 33.565 20.5467 33.4199 20.1303 33.5813C19.9744 33.6414 19.8221 33.712 19.6746 33.7925C19.4324 33.9257 19.2727 34.1314 19.2204 34.4244C19.1935 34.5782 19.2071 34.7369 19.2596 34.883C19.3051 35.0149 19.3653 35.1394 19.4221 35.2658C19.4703 35.373 19.4649 35.3974 19.3727 35.4568C18.9841 35.7077 18.621 35.9963 18.2666 36.2983C18.221 36.3371 18.1787 36.3811 18.1347 36.421C18.059 36.4886 18.0357 36.4885 17.9589 36.418C17.8741 36.3401 17.7866 36.265 17.7072 36.181C17.4079 35.8645 16.8475 35.8664 16.557 36.2026C16.4713 36.3018 16.3897 36.4052 16.3017 36.5019C16.1954 36.6187 16.1884 36.6147 16.0793 36.5078C15.9868 36.4168 15.7685 36.2126 15.7529 36.2005C15.6074 36.028 15.6134 36.0267 15.7607 35.8498C17.0125 34.3468 18.5995 33.2027 20.3758 32.5226C21.2711 32.1798 22.1925 31.9563 23.1392 31.8695C23.7175 31.8184 24.2985 31.8126 24.8776 31.852C25.6618 31.9021 26.4389 32.039 27.1964 32.2606C27.8178 32.4414 28.4223 32.6826 29.0021 32.9814C29.3983 33.1801 29.7826 33.4046 30.1528 33.6537C30.6714 34.0029 31.1623 34.3967 31.6207 34.831C32.0592 35.2499 32.4709 35.6995 32.8531 36.1768C32.905 36.2454 32.9535 36.3167 32.9985 36.3906C33.3561 36.8199 33.6431 37.3024 33.9111 37.7959C34.45 38.7842 34.8532 39.8495 35.1083 40.9594C35.1974 41.3475 35.2568 41.7415 35.3225 42.1344C35.3798 42.4772 35.6163 42.5945 35.9064 42.4286C36.2703 42.2205 36.5014 41.7259 36.4485 41.2879C36.437 41.1928 36.3752 41.0853 36.4712 40.996C36.5472 40.9505 36.631 40.9542 36.7138 40.9539C37.1533 40.9525 37.592 40.9478 38.0309 40.9561C38.2122 40.9595 38.3335 40.8875 38.4306 40.7278C38.7937 40.1296 39.0702 39.4768 39.2511 38.7912C39.3936 38.2562 39.4962 37.713 39.5309 37.1567C39.5351 37.0996 39.5342 37.0422 39.5283 36.9853C39.5206 36.9176 39.5366 36.862 39.5954 36.8266C39.6906 36.8247 39.8989 36.812 39.9083 36.811C40.2728 36.7881 40.2728 36.7883 40.2736 37.178C40.2736 37.4741 40.2718 37.7702 40.2744 38.0653C40.2768 38.3359 40.3446 38.4194 40.5932 38.4861C41.1888 38.6474 41.7914 38.6994 42.4057 38.6655C42.6894 38.6499 42.9668 38.5957 43.2484 38.572C43.3067 38.565 43.3637 38.5493 43.4178 38.5252C43.5888 38.4556 43.639 38.385 43.6415 38.1874C43.6459 37.819 43.6402 37.4506 43.6447 37.0822C43.6458 37.0018 43.6301 36.9136 43.6972 36.8484C43.8078 36.758 43.9134 36.8271 44.0123 36.871C44.2566 36.9801 44.4403 37.174 44.6091 37.3836C44.9214 37.7718 45.1534 38.2151 45.3733 38.6661C45.3926 38.7024 45.4008 38.7443 45.3967 38.7858C45.3889 38.8866 45.3201 38.9369 45.2502 38.9852C44.6746 39.3809 44.1578 39.8506 43.6825 40.3748C43.1374 40.9756 42.6853 41.6472 42.3024 42.3731C41.8576 43.2162 41.5552 44.1149 41.3766 45.0622C41.3612 45.1415 41.3765 45.2542 41.2565 45.2676Z" fill="#45423D"/>
<path d="M41.2561 45.2674C41.2932 45.0905 41.3285 44.9132 41.3675 44.7376C41.686 43.2939 42.298 42.0055 43.1816 40.861C43.7683 40.0962 44.4641 39.434 45.2437 38.8986C45.2885 38.8674 45.3379 38.8425 45.3656 38.7895C45.4008 38.7271 48.0598 36.9071 51.0333 37.492C51.2103 37.6287 51.2311 37.8915 51.135 38.1298C51.0411 38.3623 50.866 38.4356 50.5855 38.4284C50.3266 38.4217 50.0683 38.4069 49.8106 38.4219C49.3773 38.445 48.9462 38.5033 48.5213 38.5962C47.3571 38.8557 46.2967 39.3589 45.3454 40.1181C44.234 41.0051 43.395 42.127 42.8191 43.4708C42.5857 44.0196 42.4098 44.5942 42.2947 45.184C42.2877 45.2194 42.1922 45.7895 42.1629 46.0411C42.1362 46.2749 42.031 46.4379 41.8189 46.515C41.5073 46.6282 41.1742 46.3863 41.1675 46.0363C41.1638 45.8599 41.1996 45.6865 41.2245 45.5125C41.2345 45.4437 41.2453 45.2788 41.2561 45.2674Z" fill="#A19D98"/>
<path d="M38.7198 44.0536C38.1881 44.0536 37.6564 44.0553 37.1248 44.0528C36.8758 44.0516 36.6953 43.9222 36.5926 43.685C36.4899 43.4479 36.5215 43.2175 36.6707 43.0117C36.789 42.8488 36.9584 42.7863 37.1467 42.7799C37.2734 42.7757 37.4003 42.7782 37.5276 42.7784C38.425 42.779 39.3225 42.7796 40.2199 42.7802C40.39 42.7802 40.5484 42.8114 40.6831 42.9342C40.8692 43.1041 40.945 43.3794 40.8675 43.6247C40.8296 43.7491 40.7558 43.8575 40.6567 43.9347C40.5575 44.0119 40.438 44.0538 40.3151 44.0545C39.7834 44.0575 39.2519 44.0555 38.7202 44.0555L38.7198 44.0536Z" fill="#FCBE4F"/>
<path d="M21.8998 30.5991C21.933 30.6273 21.9711 30.6281 22.0102 30.6198C22.3428 30.5506 22.6792 30.5107 23.0159 30.4736C23.0452 30.4702 23.0305 30.4707 23.1136 30.4623C24.2959 30.3688 25.8719 30.4376 27.1113 30.7858C27.3845 30.8662 27.6598 30.926 27.9333 31.0058C27.9613 31.0075 29.3001 31.5283 29.8202 31.8257C29.8668 31.861 29.8895 31.8799 29.9228 31.907C29.9442 32.1621 29.8696 32.3538 29.7296 32.5278C29.5346 32.7705 29.2768 32.9444 28.9885 33.0546C28.6177 32.8832 28.2485 32.7075 27.8655 32.567C27.1878 32.318 26.4896 32.1374 25.7801 32.0276C25.1619 31.934 24.5376 31.8939 23.9133 31.9076C23.1766 31.9207 22.4433 32.0145 21.7247 32.1873C19.4944 32.7201 17.4722 33.9696 15.9321 35.7663C15.8829 35.8239 15.8326 35.8805 15.7833 35.9377C15.6807 36.0574 15.6359 36.135 15.5603 36.2302C15.4347 36.3885 15.3125 36.5501 15.1902 36.7114C14.9045 37.0877 14.4024 37.108 14.0896 36.7134C13.8779 36.4462 13.9138 36.0433 14.0861 35.7895C14.274 35.5179 14.4748 35.2566 14.6878 35.0069C14.9055 34.7477 15.1177 34.4831 15.3563 34.2452C15.6908 33.912 16.0238 33.5762 16.3876 33.279C17.6299 32.2642 18.9914 31.4903 20.492 31.0016C20.8885 30.8721 21.2912 30.7652 21.6985 30.6812C21.7703 30.6669 21.8456 30.6614 21.8998 30.5991Z" fill="#EDAE50"/>
<path d="M34.1089 35.6162C34.4724 36.0736 34.7682 36.5802 35.0539 37.0935C35.3899 37.6974 35.6693 38.3307 35.9059 38.9855C36.1229 39.5867 36.3106 40.1973 36.4354 40.8284C36.45 40.8995 36.4678 40.9687 36.484 41.0401C36.5167 41.2336 36.5542 41.4253 36.5143 41.6249C36.4327 42.0341 36.2411 42.3545 35.875 42.533C35.5683 42.6824 35.3021 42.5261 35.252 42.171C35.1202 41.2359 34.9048 40.3231 34.5765 39.4423C34.1881 38.4004 33.6791 37.432 33.0317 36.5455C33.0024 36.5048 32.9748 36.4618 32.9465 36.4198C33.0166 36.1725 33.1618 35.9724 33.3014 35.7669C33.3798 35.6514 33.5009 35.6703 33.602 35.6365C33.7655 35.5818 33.9372 35.537 34.1089 35.6162Z" fill="#EDAE50"/>
<path d="M34.0261 35.5949C33.2245 35.526 32.9727 36.367 32.9471 36.4197C32.6009 35.9712 32.2356 35.5417 31.8381 35.1434C31.0303 34.3314 30.1136 33.6515 29.118 33.1258C29.0741 33.1029 29.0317 33.079 28.9885 33.0546C29.0259 33.0078 29.3557 32.9391 29.6307 32.5403C29.8633 32.2029 29.9181 31.9742 29.9228 31.907C30.1852 32.0119 30.4144 32.1822 30.6523 32.3335C31.0637 32.5929 31.4592 32.8797 31.8364 33.1923C32.1772 33.4772 32.5078 33.7739 32.8227 34.0928C33.0385 34.3109 33.2407 34.542 33.4446 34.7708C33.682 35.037 33.9212 35.3047 34.109 35.6162" fill="#FF9400"/>
<path d="M54.8162 39.4448C54.7301 39.2918 54.5992 39.1799 54.4939 39.043C53.9275 38.3083 53.5215 37.4809 53.2357 36.584C53.2029 36.481 53.1728 36.3769 53.14 36.2737C53.1262 36.2301 53.1158 36.1802 53.0572 36.1818C52.3354 35.5241 51.4639 35.1574 50.6105 34.7559C49.3212 34.15 47.9751 33.7336 46.6133 33.3666C45.5452 33.0788 44.4631 32.8653 43.3778 32.6678C43.279 32.6499 43.1734 32.6412 43.1052 32.5432C43.0874 32.4721 43.0874 32.3995 43.0872 32.327C43.0858 31.4684 43.0862 30.6097 43.0885 29.7511C43.0885 29.6576 43.0614 29.55 43.1564 29.4809C43.3704 29.5368 43.5914 29.5368 43.8085 29.5689C44.2187 29.6294 44.6316 29.6744 45.0412 29.7403C45.5716 29.8248 46.1037 29.8999 46.6298 30.0121C46.9932 30.09 47.3584 30.1556 47.721 30.2379C48.1459 30.3344 48.5708 30.4319 48.9904 30.5455C49.6898 30.7345 50.3891 30.9264 51.0708 31.1815C51.3422 31.2829 51.6113 31.3925 51.886 31.4825C52.166 31.5742 52.3855 31.7571 52.5943 31.9631C53.0484 32.4112 53.5014 32.8604 53.9398 33.3261C54.2328 33.6377 54.5273 33.9472 54.8067 34.2732C54.9277 34.4144 55.0616 34.5436 55.1876 34.6809C55.4053 34.9187 55.608 35.1713 55.831 35.4041C56.01 35.5911 56.1159 35.8266 56.1291 36.0962C56.1476 36.4749 56.1361 36.8506 56.0457 37.2232C55.8793 37.9089 55.5722 38.5137 55.156 39.0605C55.0517 39.1965 54.9438 39.3304 54.8162 39.4448Z" fill="#EDAE50"/>
<path d="M36.569 31.4422L35.5603 30.6979C35.5435 30.6872 35.5277 30.6752 35.5128 30.6617C35.4517 30.5994 35.4151 30.6281 35.3765 30.6929C35.3194 30.7892 35.2552 30.881 35.1937 30.9744C35.0479 31.1949 34.9051 31.4177 34.7552 31.6349C34.6439 31.7962 34.5026 31.8459 34.3467 31.794C34.1133 31.7161 34.008 31.4489 34.1236 31.2175C34.1599 31.1445 34.2081 31.0781 34.2527 31.0102C34.7657 30.2279 35.2792 29.4458 35.7929 28.6638C35.8251 28.6119 35.8607 28.5624 35.8993 28.5157C36.0332 28.3624 36.2363 28.3384 36.39 28.4534C36.4647 28.509 36.5175 28.592 36.5383 28.6865C36.5591 28.7809 36.5464 28.8802 36.5026 28.9653C36.4571 29.0565 36.3986 29.1405 36.3428 29.2254C36.1835 29.4676 36.0227 29.7085 35.8624 29.9499C35.7985 30.0462 35.7972 30.0482 35.8885 30.116C36.2324 30.371 36.5767 30.6252 36.9215 30.8787L36.569 31.4422Z" fill="#45423E"/>
<path d="M40.7274 29.2882C40.7745 29.3236 40.7714 29.3775 40.7714 29.4284C40.7726 30.3384 40.7726 31.2483 40.7714 32.158C40.7726 32.1891 40.7676 32.2201 40.7567 32.2489C40.6964 32.3268 40.6102 32.3237 40.5288 32.324C40.2269 32.3256 39.9253 32.3084 39.6239 32.3022C38.7815 32.2829 37.939 32.2946 37.0956 32.2963C37.037 32.2963 36.9784 32.2997 36.924 32.3274C36.8919 32.343 36.8626 32.3655 36.8672 32.4083C36.8717 32.4512 36.9056 32.4644 36.9395 32.4739C36.9632 32.4804 36.9875 32.4834 37.0119 32.4828C37.4255 32.4733 37.8388 32.4915 38.2532 32.464C38.6509 32.4373 39.0508 32.4454 39.4503 32.471C39.7949 32.4929 40.1407 32.5021 40.486 32.5154C40.5739 32.5186 40.6618 32.5123 40.74 32.5679C40.7791 32.7764 40.8404 32.9827 40.7986 33.1998C40.7977 33.2196 40.7924 33.239 40.7831 33.2562C40.7186 33.3379 40.6184 33.3396 40.5348 33.3767C40.3762 33.4468 40.2974 33.5612 40.3024 33.7473C40.3251 34.597 40.2621 35.4459 40.2731 36.2955C40.2744 36.394 40.2763 36.4921 40.2866 36.5903C40.3087 36.8026 40.2536 36.8725 40.0522 36.8942C39.9988 36.8998 39.9452 36.9015 39.891 36.9029C39.7974 36.9043 39.7038 36.9048 39.6104 36.897C39.3365 36.9425 39.0591 36.9458 38.7831 36.9657C38.2713 37.0023 37.8954 36.7809 37.6289 36.3112C37.2586 35.6597 36.8853 35.0105 36.5466 34.3393C36.3947 34.0382 36.2536 33.7315 36.0936 33.4345C35.8365 32.9573 35.8337 32.4909 36.1342 32.0343C36.2652 31.8353 36.3607 31.6111 36.5173 31.4308C36.6042 31.2137 36.7448 31.0329 36.8711 30.8423C37.1611 30.3876 37.467 29.9453 37.7965 29.5221C37.897 29.3929 38.0369 29.3133 38.166 29.2206C38.337 29.1713 38.9571 29.1582 39.1145 29.1528C39.2931 29.1464 39.4721 29.1503 39.651 29.1528C39.7361 29.1534 40.5633 29.2011 40.7274 29.2882Z" fill="#EDAE50"/>
<path d="M51.239 38.0372C51.1838 38.0046 51.1495 37.9593 51.1532 37.8877C51.1645 37.6696 51.0317 37.562 50.8694 37.4816C50.6531 37.3978 49.0056 37.2331 47.3678 37.8382C46.7917 38.0365 46.2363 38.2842 45.7137 38.6117C45.6175 38.6722 45.5109 38.7132 45.4207 38.7856C45.4079 38.7958 45.3838 38.7892 45.3649 38.7905C45.2365 38.5952 45.1514 38.3739 45.0357 38.1709C44.8565 37.8567 44.6669 37.5519 44.4247 37.287C44.2343 37.0791 44.0187 36.9197 43.7461 36.8612C43.6711 36.8673 43.6599 36.809 43.6507 36.7521C43.6426 36.6853 43.6398 36.6178 43.6422 36.5505C43.6422 36.0791 43.6343 35.6075 43.6441 35.1363C43.6532 34.6903 43.6053 34.2466 43.6111 33.8011C43.6133 33.6315 43.5379 33.5165 43.3914 33.4506C43.333 33.4244 43.2763 33.3942 43.2216 33.3602C43.1798 33.3341 43.1346 33.3071 43.1529 33.2406L43.1584 32.9035C43.2069 32.832 43.2729 32.8421 43.3432 32.8533C44.1539 32.983 44.959 33.1432 45.7585 33.3341C46.7199 33.5653 47.6756 33.8192 48.6115 34.15C49.3615 34.4149 50.1039 34.7029 50.8226 35.0554C51.1634 35.2226 51.5112 35.3763 51.8226 35.6029C51.9398 35.6881 52.034 35.8014 52.1231 35.9194C52.3352 36.1999 52.2816 36.5256 52.2618 36.8447C52.2558 36.9444 52.2111 37.037 52.2032 37.1374C52.0197 37.4342 51.8631 37.7488 51.7354 38.0771C51.7093 38.1453 51.6743 38.1706 51.6013 38.1444C51.4834 38.1017 51.3605 38.0725 51.239 38.0372Z" fill="#EDAE50"/>
<path d="M52.2048 37.1378C52.1639 37.0544 52.1704 36.9642 52.1856 36.8788C52.2176 36.6983 52.2063 36.5171 52.2063 36.336C52.2063 36.1585 52.114 36.0207 52.0129 35.8942C51.8859 35.7362 51.7304 35.6069 51.5555 35.5141C50.7372 35.0719 49.8903 34.7038 49.0235 34.3842C48.397 34.1529 47.7651 33.9419 47.123 33.7671C46.3113 33.5461 45.4967 33.3423 44.6722 33.1749C44.1984 33.0789 43.721 33.0069 43.2469 32.9132C43.2184 32.9076 43.1883 32.9065 43.1599 32.9033C43.1599 32.789 43.1599 32.675 43.1599 32.5614C43.4512 32.5908 43.7377 32.6524 44.0252 32.7074C44.3991 32.7789 44.7722 32.8548 45.1447 32.9352C45.5357 33.0205 45.927 33.1032 46.3137 33.2124C46.6099 33.296 46.9097 33.367 47.2066 33.4493C47.9333 33.6507 48.6512 33.882 49.3603 34.1432C49.9363 34.3555 50.4933 34.6185 51.0534 34.8729C51.5863 35.1159 52.1032 35.397 52.6004 35.7144C52.7462 35.8071 52.8802 35.921 53.0179 36.0278C53.0667 36.0656 53.1105 36.1111 53.0576 36.1817C52.8719 36.3569 52.6802 36.5246 52.5156 36.7243C52.4058 36.8573 52.3088 36.9999 52.2048 37.1378Z" fill="#FF9400"/>
<path d="M40.7275 32.2503L40.7284 32.5921C39.753 32.5068 37.9345 32.5068 37.0166 32.5618C36.9468 32.5582 36.8773 32.5506 36.8084 32.5389C36.7571 32.5266 36.6781 32.4563 36.6795 32.4124C36.6818 32.3317 36.7255 32.2927 36.782 32.2628C36.8528 32.2251 36.9473 32.2181 37.0268 32.2181C37.905 32.2181 38.7835 32.204 39.6612 32.2265C40.0164 32.2355 40.3721 32.2411 40.7275 32.2503Z" fill="#FF9400"/>
<path d="M55.7816 36.3955C55.7864 36.7307 55.723 37.0391 55.6329 37.3421C55.4736 37.8781 55.214 38.3566 54.8838 38.7931C54.8168 38.8817 54.8133 38.882 54.7433 38.7945C54.4221 38.3929 54.1651 37.9476 53.9449 37.4767C53.7794 37.123 53.6438 36.7564 53.5225 36.3837C53.485 36.2682 53.4894 36.2475 53.5981 36.1883C53.9783 35.9807 54.3768 35.8333 54.8019 35.7688C54.9954 35.7393 55.1908 35.7398 55.3844 35.7145C55.4039 35.7127 55.4235 35.7123 55.443 35.7133C55.6272 35.7169 55.656 35.7418 55.7252 35.9202C55.7866 36.0792 55.7854 36.244 55.7816 36.3955Z" fill="#FEFEFE"/>
<path d="M43.1397 29.558C43.1397 30.5486 43.1505 32.7214 43.1732 33.3309C43.1189 33.4044 43.0483 33.3776 42.9845 33.3583C42.2977 33.145 41.6062 33.1766 40.9126 33.3116C40.854 33.3228 40.7972 33.3382 40.7478 33.2873L40.7442 33.2922C40.7121 33.2455 40.7442 28.4046 40.7401 28.0947C40.7381 27.9616 40.7591 27.841 40.8214 27.7241C40.8978 27.5804 40.9645 27.431 41.0356 27.2839C41.0454 27.2732 41.0586 27.2665 41.0726 27.2652C41.8723 27.6284 42.5329 28.05 43.1349 28.7049C43.1261 28.9416 43.1349 29.2585 43.1397 29.558Z" fill="#414141"/>
<path d="M41.0756 27.2082H41.0637L41.052 27.2059C41.1097 27.0593 41.1131 26.9056 41.1125 26.7495C41.1108 26.2832 41.1179 25.8168 41.1137 25.3507C41.1122 25.1807 41.1604 25.0429 41.2602 24.91C41.7525 24.254 42.2874 23.6355 42.861 23.059C43.2255 22.6924 43.6124 22.3519 44.0376 22.0646C44.1184 22.0852 44.0839 22.1411 44.0656 22.1841C43.8048 22.7956 43.8417 23.4369 43.9236 24.0733C43.9596 24.3538 44.0327 24.6429 44.2521 24.8489C44.2677 24.8619 44.2781 24.8806 44.2814 24.9014C44.2847 24.9222 44.2805 24.9435 44.2698 24.9613C43.7746 25.2061 43.3859 25.5863 43.0576 26.0427C43.0091 26.1101 42.9732 26.1813 42.9852 26.2701C42.9634 26.8257 42.9682 27.3807 42.9864 28.2949C42.9856 28.3047 42.9843 28.3145 42.9826 28.3242C42.9093 28.377 42.8615 28.3173 42.8164 28.2765C42.6208 28.0995 42.4308 27.9157 42.22 27.7579C41.9895 27.585 41.7532 27.4238 41.4977 27.2953C41.3632 27.228 41.2262 27.1825 41.0756 27.2082Z" fill="#A19D98"/>
<path d="M44.3569 21.9963C44.4556 22.0489 44.506 22.1366 44.5311 22.2493C44.5949 22.5357 44.637 22.8272 44.6569 23.1209C44.6914 23.623 44.6229 24.1088 44.505 24.5908C44.4804 24.6912 44.4521 24.7902 44.3895 24.8731C44.3271 24.8843 44.3079 24.8363 44.2827 24.7903C43.9918 24.2586 43.939 23.6784 43.9751 23.0808C43.9799 22.9988 43.9922 22.9169 43.9973 22.8343C44.0138 22.5168 44.1422 22.2176 44.3569 21.9963V21.9963Z" fill="#A19D98"/>
<path d="M43.4582 33.391C43.61 33.4619 43.6845 33.566 43.6907 33.7592C43.7214 34.7332 43.7131 35.7072 43.7153 36.681C43.7153 36.7433 43.7216 37.003 43.7212 37.0751C43.7188 37.4792 43.7124 37.8834 43.7176 38.2873C43.7195 38.4295 43.664 38.5107 43.5486 38.5619C42.5839 38.8424 41.3311 38.8286 40.4527 38.5308C40.2547 38.4667 40.202 38.3882 40.2004 38.1708C40.1983 37.8859 40.2004 37.6009 40.2004 37.3159C40.2004 37.1968 40.2024 37.0776 40.2004 36.9584C40.1983 36.8392 40.2297 34.9922 40.2297 34.9353C40.2297 34.5001 40.2328 34.0647 40.2287 33.6294C40.2273 33.4926 40.2747 33.4103 40.3948 33.3531C41.79 32.8844 42.5223 33.0207 43.4582 33.391Z" fill="#A19D98"/>
<path d="M40.4904 35.9555V33.8547C40.4904 33.8184 40.4894 33.7821 40.4904 33.7456C40.4935 33.6013 40.5051 33.582 40.6356 33.5313C41.1262 33.3311 42.5605 33.1417 43.3261 33.6791C43.447 33.7467 43.4663 33.8157 43.4716 33.9792C43.4913 34.3471 43.457 37.0803 43.4581 38.1331C43.4581 38.154 43.4581 38.1748 43.4581 38.1955C43.4546 38.3456 43.4451 38.3527 43.3018 38.3844C42.4088 38.5818 41.5208 38.5558 40.6367 38.322C40.5057 38.2876 40.4988 38.2842 40.4985 38.1333C40.4973 37.6508 40.4973 37.1684 40.4985 36.6861C40.4985 36.4422 40.4985 36.1984 40.4985 35.9546L40.4904 35.9555Z" fill="#45423D"/>
<path d="M41.0426 27.238C41.0596 27.1048 41.1362 27.0909 41.2836 27.1277C41.4607 27.1837 41.6301 27.2642 41.7876 27.3672C42.1382 27.5897 42.4738 27.8347 42.7684 28.1386C42.8342 28.2065 42.9106 28.2632 42.9821 28.3245C42.9921 28.3693 43.0148 28.4097 43.0471 28.4403C43.1401 28.5293 43.1527 28.6321 43.1338 28.7619C42.9793 28.7385 42.8924 28.6404 42.7944 28.5254C42.5283 28.2137 42.2174 27.9614 41.8878 27.7317C41.6847 27.5902 41.3738 27.4356 41.1482 27.3399C41.0708 27.3072 41.0336 27.3092 41.0426 27.238Z" fill="#DCF9FB"/>
<path d="M44.3568 21.9963C44.4089 22.0266 44.4424 22.0404 44.3082 22.1667C44.1387 22.3284 44.0263 22.7362 44.0377 23.4051C44.0487 23.8484 44.0541 24.2432 44.3894 24.8731C44.3611 24.9198 44.324 24.9542 44.2695 24.9613C43.7019 24.3677 43.7567 22.5411 44.0372 22.0646C44.1533 21.9367 44.2213 21.9222 44.3568 21.9963Z" fill="#DCF9FB"/>
</g>
<defs>
<clipPath id="clip0_8_1955">
<rect width="43.8974" height="38.4103" fill="white" transform="translate(13.718 16.4615)"/>
</clipPath>
</defs>
</svg>
