<svg width="32" height="32" viewBox="0 0 32 32" fill="none" xmlns="http://www.w3.org/2000/svg">
<g clip-path="url(#clip0_930_217209)">
<path d="M31.6799 15.9998C31.6799 7.34 24.6598 0.319824 15.9999 0.319824C7.34012 0.319824 0.319946 7.34 0.319946 15.9998C0.319946 24.6596 7.34012 31.6798 15.9999 31.6798C24.6598 31.6798 31.6799 24.6596 31.6799 15.9998Z" fill="white"/>
<path d="M24.0507 18.4802C24.1138 18.5304 24.1552 18.5736 24.2174 18.6248C24.2549 18.6558 24.2552 18.6558 24.292 18.6221C24.3178 18.5984 24.3427 18.5736 24.3691 18.5504C24.4751 18.4559 24.6179 18.4605 24.7167 18.5634C24.756 18.6046 24.7932 18.6482 24.8277 18.6938C24.9132 18.8059 24.9047 18.9525 24.8082 19.0546C24.7811 19.0831 24.7523 19.1101 24.7232 19.1362C24.6987 19.1579 24.6979 19.179 24.7152 19.2063C24.7508 19.2624 24.7855 19.3191 24.8189 19.3765C24.8614 19.4493 24.8992 19.5251 24.9351 19.6015C24.9692 19.6744 24.9692 19.6739 25.04 19.6505C25.0743 19.6381 25.1092 19.6277 25.1447 19.6194C25.26 19.5961 25.3693 19.6548 25.4185 19.768C25.4483 19.8377 25.4706 19.9109 25.4851 19.9858C25.5062 20.0927 25.4442 20.2114 25.3451 20.2641C25.3067 20.2842 25.2645 20.2931 25.2243 20.3082C25.1758 20.3266 25.1715 20.3303 25.1795 20.3802C25.2052 20.5377 25.2232 20.696 25.2243 20.8559C25.2248 20.8909 25.2373 20.9108 25.2719 20.9138C25.3016 20.9164 25.3312 20.9223 25.3607 20.9254C25.4789 20.9383 25.5592 21.0003 25.5941 21.1223C25.5971 21.1328 25.6049 21.3529 25.5945 21.4126C25.5718 21.5443 25.4745 21.6382 25.3464 21.6435C25.3188 21.6448 25.291 21.6429 25.2638 21.6379C25.2133 21.6282 25.1799 21.6506 25.1677 21.7019C25.1375 21.8281 25.0971 21.9507 25.0538 22.0724C25.041 22.1075 25.0483 22.1384 25.0762 22.1631C25.0906 22.1761 25.1466 22.2395 25.1557 22.2606C25.1765 22.3091 25.0866 22.2337 25.0659 22.2211C25.0184 22.1924 24.4367 21.854 24.2201 21.7327C24.2355 21.6121 24.2915 21.4578 24.314 21.3389C24.4289 20.733 24.3101 20.1804 23.9777 19.6759C23.7013 19.2563 23.3227 18.9878 22.8577 18.8547C22.4484 18.7374 22.0429 18.7613 21.645 18.9144C21.3158 19.0409 20.9554 19.2485 20.7576 19.5754C20.7349 19.6021 20.7242 19.599 20.6884 19.5822C20.5646 19.5172 20.0796 19.1846 19.8824 19.0636C19.7951 18.9713 19.7372 18.8201 19.8028 18.7085C19.8497 18.629 19.9126 18.5644 19.9802 18.5064C20.0751 18.425 20.2126 18.4273 20.3134 18.5038C20.4384 18.5988 20.4383 18.5984 20.5597 18.4964C20.6231 18.4431 20.6908 18.3958 20.7573 18.3471C20.8193 18.3019 20.8239 18.2836 20.7949 18.2126C20.7157 18.0189 20.7664 17.8718 20.945 17.7761C20.9922 17.7497 21.0416 17.7276 21.0925 17.7103C21.2288 17.6666 21.3543 17.7178 21.4285 17.8457C21.5057 17.9792 21.5053 17.9789 21.6508 17.9436C21.7277 17.925 21.8056 17.9117 21.8834 17.8969C21.9609 17.8819 21.9727 17.869 21.9772 17.7882C21.9789 17.7477 21.9847 17.7075 21.9944 17.6685C22.015 17.5903 22.0521 17.5216 22.1291 17.4909C22.2757 17.432 22.4238 17.4207 22.5678 17.4981C22.6527 17.5437 22.6923 17.6222 22.6934 17.7239C22.695 17.8762 22.6959 17.8775 22.8372 17.9016C22.9302 17.9175 23.0211 17.9411 23.1124 17.9638C23.1817 17.981 23.1996 17.9742 23.2267 17.904C23.2949 17.7259 23.4649 17.6351 23.6653 17.7388C23.722 17.7682 23.7817 17.7897 23.8314 17.8371C23.9315 17.9327 23.9385 18.0738 23.8973 18.1768C23.8915 18.1913 23.8844 18.2051 23.8788 18.2197C23.8513 18.2912 23.8484 18.333 23.8484 18.333C23.8484 18.333 23.9887 18.431 24.0507 18.4802Z" fill="#5F5F5F"/>
<path d="M24.1883 21.6741C24.2464 21.7328 25.0246 22.1811 25.0918 22.2234C25.1117 22.2261 25.1271 22.24 25.1451 22.2478C25.159 22.2609 25.1712 22.2743 25.1839 22.2888C25.2455 22.3797 25.2444 22.4756 25.2088 22.5759C25.1861 22.6292 25.159 22.6803 25.1275 22.7283C25.0542 22.8444 24.919 22.8809 24.8002 22.8179C24.764 22.7987 24.729 22.7774 24.6946 22.7544C24.6697 22.738 24.6525 22.7424 24.635 22.7668C24.5397 22.8994 24.4338 23.0232 24.3186 23.1369C24.2954 23.1597 24.2926 23.1796 24.3121 23.2062C24.3347 23.236 24.3556 23.2674 24.3758 23.299C24.4579 23.4272 24.4358 23.5752 24.3197 23.6703C24.2793 23.7032 24.238 23.7354 24.1951 23.7648C24.0798 23.8437 23.9445 23.8214 23.8567 23.7098C23.8324 23.6785 23.8096 23.6459 23.7884 23.6121C23.7698 23.5825 23.7511 23.5758 23.7197 23.5946C23.5878 23.6736 23.4485 23.736 23.3063 23.7914C23.2546 23.8115 23.2551 23.8123 23.2652 23.8693C23.2688 23.889 23.2717 23.9092 23.2752 23.9289C23.3084 24.0958 23.2706 24.1862 23.1319 24.2718C23.0962 24.2927 23.0551 24.2894 23.0167 24.3001C22.9497 24.317 22.8821 24.3156 22.8138 24.3121C22.7916 24.3005 22.7693 24.2879 22.7476 24.2753C22.6819 24.2178 22.6527 24.142 22.6356 24.055C22.6126 23.9372 22.6267 23.9564 22.5237 23.9615C22.3872 23.9682 22.2506 23.9676 22.1141 23.9596C22.0612 23.9564 22.0612 23.9563 22.049 24.0079C22.0433 24.032 22.0369 24.0558 22.0334 24.0802C22.0113 24.2346 21.8934 24.3504 21.7053 24.3126C21.6593 24.3034 21.6138 24.2908 21.5689 24.2768C21.4403 24.237 21.3659 24.1065 21.3918 23.9678C21.398 23.9326 21.4059 23.8975 21.4125 23.8622C21.4213 23.8142 21.4207 23.8117 21.3749 23.7937C21.2871 23.7588 21.1995 23.7232 21.1149 23.6803C21.065 23.655 21.0155 23.6284 20.9662 23.6016C20.915 23.5738 20.9154 23.5734 20.8795 23.6241C20.8602 23.6511 20.8423 23.6789 20.8224 23.705C20.7346 23.8208 20.5965 23.845 20.4795 23.7641C20.4351 23.7332 20.3917 23.7002 20.3498 23.6653C20.2433 23.5763 20.2203 23.43 20.2936 23.3091C20.3153 23.2732 20.3395 23.2389 20.364 23.2049C20.3811 23.1814 20.3822 23.1625 20.3603 23.1408C20.2434 23.0256 20.1363 22.9 20.0399 22.7653C20.0216 22.7397 20.0036 22.7398 19.9799 22.7555C19.9511 22.7746 19.9211 22.792 19.8911 22.8094C19.7564 22.8866 19.6163 22.8485 19.5373 22.7099C19.5091 22.6601 19.4744 22.6145 19.455 22.5588C19.4069 22.4206 19.4474 22.2928 19.5678 22.2158C19.5934 22.1994 19.6196 22.1844 19.6447 22.168C19.6891 22.1394 19.6903 22.1386 19.6706 22.0884C19.63 21.9847 19.595 21.8784 19.5658 21.7704C19.5529 21.7232 19.5408 21.675 19.5302 21.627C19.5225 21.5918 19.505 21.5782 19.4708 21.5859C19.4435 21.5911 19.416 21.595 19.3883 21.5973C19.2255 21.6154 19.1049 21.5127 19.0878 21.3417C19.0832 21.2945 19.0782 21.2478 19.075 21.2007C19.0708 21.1327 19.0912 21.0654 19.1327 21.0129C19.174 20.9603 19.2329 20.9266 19.2973 20.9184C19.3332 20.9138 19.3694 20.9108 19.4051 20.9049C19.4519 20.8969 19.4534 20.8958 19.4541 20.8444C19.4561 20.7322 19.4644 20.6201 19.4784 20.5087C19.4843 20.4598 19.4999 20.4121 19.4964 20.362C19.4929 20.3277 19.4791 20.3064 19.453 20.2957C19.435 20.2902 19.4308 20.2879 19.4041 20.2808C19.3514 20.2673 19.3036 20.2434 19.2655 20.2026" fill="#414141"/>
<path d="M19.4987 20.3928C19.5047 20.3584 19.4907 20.3067 19.4571 20.2967C19.4284 20.2883 19.3825 20.2702 19.3538 20.2611C19.2403 20.225 19.1689 20.1306 19.1565 20.0036C19.1421 19.9497 19.1871 19.775 19.2077 19.7183C19.2536 19.5935 19.3661 19.5208 19.4927 19.541C19.5201 19.5452 19.5471 19.5525 19.5729 19.5627C19.6208 19.5823 19.6576 19.567 19.6788 19.519C19.7309 19.401 19.8089 19.2842 19.8591 19.1654C19.9078 19.0506 19.8733 19.0601 19.8903 19.064C19.9319 19.1018 20.5378 19.4122 20.7288 19.5744C20.6045 19.7163 20.3279 20.3582 20.3165 20.573" fill="#414141"/>
<path d="M20.7359 19.5642C21.1227 19.1237 21.3995 18.9346 21.7815 18.8203C22.0137 18.7502 22.2563 18.7247 22.4973 18.745C22.9027 18.7795 23.2688 18.9286 23.5913 19.1922C23.8755 19.4247 24.0826 19.7194 24.2239 20.0668C24.3102 20.2793 24.3559 20.5014 24.3772 20.7317C24.4077 21.0614 24.3408 21.4297 24.2334 21.737C24.2116 21.7573 23.816 21.4719 23.7736 21.4163C23.764 21.3864 23.7759 21.3589 23.7832 21.3311C23.8221 21.181 23.8473 21.0285 23.8428 20.8725C23.8214 20.1227 23.3365 19.5041 22.6659 19.353C22.1709 19.2415 21.6461 19.3542 21.1656 19.8685C21.1535 19.8756 21.1498 19.8602 21.0683 19.8009C20.9313 19.7132 20.8639 19.6582 20.7703 19.5984C20.7166 19.5654 20.7193 19.5833 20.7359 19.5642Z" fill="#414141"/>
<path d="M24.2411 21.7154C24.2282 21.7371 24.2166 21.7594 24.2063 21.7826C24.0884 22.0821 23.8994 22.328 23.6692 22.5362C23.368 22.8089 23.0187 22.9789 22.6221 23.0335C22.5248 23.047 22.4275 23.0617 22.3293 23.0584C22.0453 23.0489 21.7708 22.9939 21.5087 22.8736C21.3423 22.7968 21.1866 22.6967 21.0458 22.5759C20.8266 22.3891 20.6485 22.1646 20.5177 21.8986C20.3975 21.6536 20.3283 21.3944 20.299 21.1213C20.2735 20.8862 20.2936 20.6555 20.3403 20.4252C20.3937 20.1628 20.4934 19.9209 20.6325 19.6967C20.6524 19.6648 20.71 19.5923 20.7286 19.5742C20.8299 19.6295 21.1059 19.8215 21.1502 19.8633C21.1781 19.9017 21.1265 19.9522 21.1105 19.9768C21.0257 20.1075 20.9558 20.2455 20.9109 20.397C20.7542 20.925 20.826 21.4164 21.1416 21.8581C21.4049 22.2267 21.7628 22.4287 22.2006 22.475C22.8242 22.5411 23.4642 22.168 23.7276 21.5098C23.7422 21.4734 23.7385 21.416 23.7977 21.4132C23.8358 21.4592 24.1965 21.6895 24.2411 21.7154Z" fill="#5F5F5F"/>
<path d="M23.7981 21.4132C23.7484 21.5473 23.6929 21.6781 23.615 21.7976C23.3685 22.1755 23.032 22.4101 22.6034 22.491C22.1694 22.5727 21.7721 22.4707 21.4188 22.1957C21.1082 21.9537 20.9098 21.628 20.8334 21.2293C20.7429 20.758 20.8379 20.3243 21.1028 19.9324C21.1127 19.9177 21.122 19.903 21.1319 19.8883C21.142 19.8757 21.2736 19.7225 21.3376 19.666C21.6216 19.4154 21.9465 19.287 22.3178 19.2796C23.0135 19.2656 23.641 19.7618 23.822 20.4826C23.8945 20.7711 23.8926 21.0604 23.8137 21.3481C23.8079 21.3695 23.8032 21.3915 23.7981 21.4132Z" fill="#ED5050"/>
<path d="M22.7492 20.8987C22.7609 21.1453 22.546 21.3363 22.3421 21.3337C22.1092 21.3309 21.9182 21.1385 21.9204 20.8944C21.9223 20.6559 22.0993 20.4587 22.3449 20.458C22.5496 20.4575 22.7605 20.6504 22.7492 20.8987Z" fill="#414141"/>
<path d="M22.7729 20.0785C22.8203 20.0734 22.8598 20.0912 22.8926 20.1282C22.9217 20.1609 22.9528 20.1918 22.9812 20.2253C23.047 20.3028 23.0068 20.4449 22.9217 20.4727C22.8845 20.485 22.8503 20.4856 22.8175 20.463C22.7474 20.4145 22.6876 20.3532 22.6344 20.2858C22.5781 20.2143 22.6067 20.1226 22.6906 20.0915C22.717 20.0813 22.7449 20.0769 22.7729 20.0785Z" fill="#ED5050"/>
<path d="M11.6051 24.2873C11.4898 24.2232 11.4214 24.124 11.4008 23.9875C11.3937 23.941 11.3816 23.8955 11.3725 23.8492C11.3661 23.8168 11.3506 23.8059 11.3185 23.8086C11.1144 23.8267 10.9092 23.829 10.7048 23.8154C10.6772 23.8137 10.6494 23.812 10.6219 23.8086C10.5957 23.8055 10.5821 23.8169 10.5767 23.8435C10.567 23.8918 10.5539 23.9395 10.5463 23.9883C10.5229 24.1386 10.4447 24.242 10.3117 24.3002C10.2265 24.3246 10.1414 24.316 10.0563 24.2994C9.97746 24.284 9.89653 24.2767 9.82508 24.2332C9.79762 24.2119 9.76818 24.1935 9.74438 24.1671C9.65949 24.0726 9.62435 23.9623 9.64629 23.8335C9.65455 23.7849 9.66549 23.737 9.6748 23.6885C9.6905 23.6057 9.69039 23.6053 9.61714 23.578C9.45033 23.5155 9.28765 23.4415 9.1301 23.3565C9.09216 23.3362 9.0537 23.3161 9.01746 23.2929C8.98976 23.275 8.97138 23.2787 8.9534 23.3064C8.92576 23.3489 8.8951 23.3893 8.8677 23.4323C8.75087 23.615 8.52163 23.6686 8.34144 23.5222C8.29426 23.4837 8.2444 23.4489 8.19704 23.4108C8.02982 23.2762 7.99933 23.0616 8.12117 22.8798C8.15305 22.8321 8.18569 22.7848 8.21903 22.7381C8.23485 22.7161 8.23456 22.6981 8.21455 22.68C8.20477 22.6713 8.19605 22.6613 8.1868 22.6521C8.03069 22.4957 7.88652 22.3267 7.75555 22.1465C7.71843 22.0952 7.71808 22.0955 7.66351 22.1286C7.6265 22.1509 7.58973 22.1735 7.55279 22.196C7.35834 22.3132 7.16518 22.2617 7.04504 22.0611C7.02857 22.0355 7.02234 22.026 7.00512 21.9953C6.98389 21.9518 6.95829 21.9112 6.93903 21.8664C6.85711 21.6751 6.91418 21.4794 7.08576 21.3714C7.12597 21.3461 7.16687 21.3217 7.20748 21.2965C7.26159 21.2629 7.26217 21.2625 7.2389 21.2037C7.16413 21.0149 7.10246 20.8209 7.05434 20.6228C7.04637 20.5901 7.03765 20.5577 7.03125 20.5247C7.02485 20.4918 7.00664 20.481 6.97609 20.4851C6.91901 20.4927 6.86182 20.5016 6.8044 20.505C6.65702 20.5139 6.54328 20.4523 6.4663 20.319C6.4343 20.2642 6.42226 20.2027 6.41685 20.1393C6.41289 20.092 6.40405 20.0497 6.40102 19.9988C6.38857 19.8073 6.49266 19.5667 6.72143 19.5496C6.7703 19.5459 6.81894 19.5382 6.86776 19.5324C6.92413 19.5258 6.92611 19.5252 6.92739 19.4687C6.93106 19.3025 6.94392 19.1366 6.96585 18.972C6.97481 18.9052 6.98505 18.8387 6.99622 18.7724C7.00693 18.7091 7.00698 18.7077 6.94706 18.687C6.9022 18.6716 6.85734 18.6572 6.81318 18.6414C6.62136 18.5731 6.52227 18.3807 6.57609 18.1759C6.59599 18.1002 6.62037 18.0257 6.64661 17.9521C6.71381 17.7624 6.89784 17.6668 7.08233 17.7241C7.1376 17.7413 7.19293 17.7585 7.24664 17.7801C7.28096 17.7936 7.29626 17.7823 7.31069 17.7504C7.34473 17.6754 7.38173 17.6018 7.41757 17.5278C7.43037 17.5024 7.44213 17.482 7.45376 17.4585C7.49222 17.3843 7.53301 17.3112 7.58194 17.2434C7.62592 17.203 15.0333 21.792 15.0125 21.8449C14.9982 21.872 14.9868 21.898 14.9732 21.9242C14.9471 21.973 14.9223 22.0228 14.8945 22.0706C14.7889 22.2517 14.5965 22.3068 14.4169 22.208C14.3698 22.1821 14.3245 22.1522 14.2781 22.1244C14.23 22.0955 14.2294 22.0952 14.1966 22.1398C14.1236 22.2393 14.047 22.3359 13.9672 22.4295C13.8958 22.513 13.8202 22.5921 13.7433 22.67C13.708 22.7058 13.708 22.7069 13.7352 22.7475C13.7659 22.7935 13.7984 22.8381 13.8288 22.8842C13.9469 23.063 13.9152 23.2783 13.7512 23.4099C13.6987 23.4521 13.6452 23.4931 13.591 23.5329C13.4206 23.6573 13.2182 23.6234 13.0922 23.4493C13.0602 23.4046 13.0297 23.3583 12.9977 23.3134C12.9687 23.2729 12.9676 23.2722 12.9252 23.2966C12.7512 23.397 12.5706 23.484 12.3848 23.557C12.3588 23.5673 12.3325 23.5768 12.3067 23.5871C12.2598 23.6059 12.2589 23.6066 12.2683 23.6613C12.2765 23.71 12.2834 23.7593 12.2967 23.8065C12.3462 23.983 12.2429 24.1961 12.0135 24.271C11.9144 24.3036 11.6996 24.3272 11.6051 24.2873Z" fill="#414141"/>
<path d="M14.9979 21.8583C14.8424 21.7632 13.4577 20.8645 13.3607 20.8081C13.3081 20.78 13.3252 20.7766 13.3572 20.7136C13.4704 20.4587 13.5466 20.1873 13.5832 19.9086C13.6096 19.7055 13.6082 19.5016 13.5923 19.297C13.5774 19.1044 13.543 18.9139 13.4898 18.7288C13.4219 18.4931 13.3238 18.2726 13.2025 18.0617C13.0672 17.8265 12.8949 17.6257 12.7045 17.4406C12.5581 17.2983 12.3927 17.1826 12.218 17.0822C11.9556 16.9302 11.67 16.8278 11.3741 16.7793C11.1882 16.7489 11.0007 16.734 10.8131 16.7469C10.414 16.7745 10.0361 16.8851 9.6846 17.0886C9.4073 17.2535 9.15916 17.4673 8.95104 17.7211C8.89798 17.7859 8.82246 17.9148 8.77045 17.9801C8.7406 18.0176 8.24373 17.678 7.56777 17.2567C7.59273 17.2105 7.61676 17.1727 7.64341 17.1323C7.65999 17.1071 7.65865 17.0879 7.63701 17.068C7.59552 17.0292 7.55421 16.9903 7.51349 16.9506C7.38409 16.8241 7.35383 16.6563 7.43488 16.4915C7.45338 16.4538 7.48684 16.3651 7.53786 16.3007C7.56253 16.2694 7.5897 16.241 7.61635 16.212C7.74685 16.0698 8.00047 16.0673 8.13661 16.1983C8.30144 16.3568 8.2798 16.32 8.41856 16.2078C8.53719 16.1121 8.65722 16.0188 8.78272 15.933C8.85021 15.887 8.85458 15.8647 8.82042 15.7874C8.78237 15.7013 8.7481 15.6147 8.75543 15.5162C8.76457 15.3947 8.81141 15.2908 8.90566 15.2233C9.04023 15.127 9.18313 15.0477 9.35482 15.0526C9.49661 15.0568 9.59593 15.1311 9.66802 15.2528C9.69362 15.2965 9.71357 15.3443 9.73429 15.3911C9.75354 15.435 9.78467 15.4493 9.82831 15.4373C10.0122 15.3865 10.1984 15.3481 10.3858 15.3162C10.4539 15.3046 10.4677 15.2835 10.4703 15.2123C10.4715 15.1875 10.4715 15.1627 10.4703 15.138C10.4557 14.9114 10.6223 14.7213 10.8193 14.7081C10.9278 14.7008 11.0366 14.6921 11.1443 14.7148C11.3028 14.7486 11.4588 14.9015 11.4431 15.1114C11.4409 15.1405 11.4425 15.1699 11.4431 15.1992C11.4445 15.2855 11.4599 15.3066 11.5408 15.3189C11.7162 15.3447 11.8899 15.382 12.0609 15.4306C12.1513 15.4567 12.1654 15.4472 12.2031 15.3581C12.2326 15.2883 12.2622 15.2184 12.3144 15.1624C12.4198 15.0495 12.5511 15.0313 12.6879 15.0631C12.7962 15.0883 12.8979 15.1401 12.9912 15.2041C13.1431 15.3085 13.1985 15.496 13.1366 15.6783C13.1238 15.7163 13.1083 15.7535 13.0921 15.7902C13.0601 15.8622 13.0655 15.8885 13.1293 15.931C13.2631 16.0194 13.3919 16.1157 13.5152 16.2197C13.6502 16.3345 13.6261 16.3519 13.7751 16.2099C13.9055 16.0855 14.107 16.0706 14.226 16.1559C14.3466 16.2421 14.4515 16.3508 14.5212 16.4867C14.5831 16.6078 14.5748 16.8304 14.4514 16.9423C14.4144 16.9761 14.3816 17.0148 14.3471 17.0517C14.3173 17.0839 14.3133 17.1189 14.3369 17.1554C14.4472 17.3266 14.5459 17.5057 14.6323 17.6913C14.6536 17.737 14.69 17.7485 14.7348 17.7336C14.7876 17.7157 14.8415 17.7014 14.8961 17.691C15.0422 17.6641 15.203 17.7317 15.2779 17.8666C15.3506 17.9974 15.3955 18.141 15.4 18.2945C15.405 18.4632 15.3251 18.58 15.1885 18.6577C15.1432 18.6829 15.0953 18.7028 15.0459 18.7173C14.9936 18.733 14.9712 18.7664 14.9818 18.8226C15.0186 19.0238 15.0309 19.2276 15.043 19.4317C15.0462 19.4858 15.071 19.5156 15.1225 19.5171C15.161 19.5183 15.1988 19.5258 15.2368 19.5311C15.4327 19.5581 15.5667 19.7187 15.5674 19.9275C15.5678 19.9679 15.5658 20.0083 15.562 20.0486C15.5556 20.1119 15.534 20.2029 15.517 20.2623C15.4681 20.4351 15.3024 20.5298 15.1317 20.5184C15.0764 20.5147 15.0214 20.5054 14.9661 20.4996C14.9154 20.4944 14.9128 20.4951 14.9002 20.5481C14.8623 20.7073 14.8209 20.8654 14.7666 21.0195C14.7414 21.0911 14.7155 21.1624 14.6868 21.2326C14.674 21.2637 14.6794 21.2829 14.7068 21.2991C14.7607 21.3313 14.815 21.3626 14.867 21.3982C15.0057 21.4927 15.063 21.6646 15.0125 21.8287C15.0084 21.8389 15.0035 21.8489 14.9979 21.8583Z" fill="#666059"/>
<path d="M9.35006 18.3098C9.41412 18.2289 9.47492 18.1447 9.54509 18.0688C9.87608 17.7105 10.276 17.5002 10.7482 17.4442C11.1659 17.3946 11.5621 17.4712 11.928 17.6881C12.4914 18.0221 12.8275 18.5311 12.9335 19.2021C12.995 19.5918 12.9484 19.9724 12.8015 20.3377C12.7932 20.3582 12.7873 20.3799 12.7803 20.4012C12.7963 20.4363 12.7808 20.4666 12.7668 20.497C12.6955 20.6523 12.6018 20.7916 12.4933 20.919C12.1813 21.2856 11.7994 21.5286 11.336 21.6126C10.7208 21.7242 10.1658 21.5742 9.68327 21.1552C9.29194 20.8152 9.05613 20.3752 8.98014 19.8474C8.92109 19.4368 8.97025 19.0366 9.13176 18.6544C9.17092 18.5618 9.21845 18.4742 9.26634 18.3863C9.28589 18.3497 9.31137 18.3224 9.35006 18.3098Z" fill="#ED5050"/>
<path d="M9.70764 19.5199C9.69705 18.763 10.3117 18.1862 10.9636 18.1826C11.603 18.1792 12.2411 18.7156 12.2422 19.5266C12.2433 20.2794 11.6632 20.8517 10.9862 20.859C10.2487 20.867 9.69408 20.2259 9.70764 19.5199Z" fill="#45423D"/>
<path d="M12.2202 18.2859C12.2308 18.3978 12.0978 18.4854 12.0053 18.4209C11.9426 18.3769 11.8834 18.3323 11.8337 18.2739C11.7621 18.19 11.7784 18.1028 11.8732 18.0479C11.9435 18.0073 12.0089 18.0044 12.0738 18.0627C12.1194 18.1036 12.1636 18.1448 12.1964 18.1982C12.213 18.2241 12.2213 18.2548 12.2202 18.2859Z" fill="#ED5050"/>
<path d="M9.96234 19.5294C9.94663 18.9826 10.3673 18.4492 10.9778 18.4517C11.5481 18.454 11.9933 18.9359 11.9875 19.5385C11.982 20.1327 11.5144 20.5985 10.9587 20.5912C10.3825 20.5838 9.94675 20.0728 9.96234 19.5294Z" fill="#ED5050"/>
<path d="M10.9719 19.9575C10.7447 19.9575 10.5553 19.7585 10.557 19.5188C10.5585 19.2824 10.7323 19.0847 10.9745 19.0821C11.1954 19.0797 11.3884 19.2721 11.3872 19.5224C11.3861 19.7664 11.2041 19.9577 10.9719 19.9575Z" fill="#414141"/>
<path d="M11.4516 18.7964C11.4755 18.7964 11.4988 18.7991 11.5191 18.8132C11.6074 18.8749 11.6546 18.9607 11.6515 19.0734C11.6498 19.1314 11.5709 19.1923 11.5171 19.1794C11.4261 19.1577 11.352 19.1102 11.3014 19.0248C11.2576 18.951 11.2663 18.8892 11.3319 18.8369C11.3674 18.809 11.4079 18.7975 11.4516 18.7964Z" fill="#ED5050"/>
<path d="M9.3503 18.3098C9.28415 18.4201 9.22015 18.5313 9.16901 18.6506C9.08307 18.8517 9.02733 19.0659 9.00359 19.2852C8.97218 19.5616 8.99388 19.8419 9.06742 20.1094C9.14102 20.3769 9.26495 20.6259 9.43187 20.8419C9.6856 21.1701 10.0054 21.3962 10.3885 21.5223C10.6105 21.5953 10.8392 21.6289 11.0707 21.6128C11.6766 21.5706 12.1707 21.2989 12.5482 20.7959C12.6274 20.6898 12.6958 20.5752 12.7522 20.454C12.7606 20.436 12.7711 20.419 12.7806 20.4014C12.8332 20.4274 13.243 20.7063 13.3129 20.7577C13.3406 20.778 13.3281 20.805 13.3149 20.8298C13.2429 20.9652 13.1669 21.0979 13.0753 21.2199C12.8751 21.4866 12.6417 21.7141 12.3656 21.8924C12.0976 22.0656 11.8031 22.1886 11.4953 22.2561C11.2572 22.3089 11.016 22.3168 10.7755 22.301C10.4556 22.2803 10.1491 22.1949 9.85724 22.0523C9.65733 21.9557 9.46998 21.8326 9.29974 21.6859C8.9649 21.3952 8.70518 21.044 8.53715 20.6201C8.42981 20.3478 8.36261 20.0598 8.33805 19.7661C8.29959 19.3283 8.36551 18.9068 8.51184 18.4971C8.56549 18.347 8.63623 18.2063 8.71187 18.0679C8.71926 18.0544 8.72764 18.0409 8.73619 18.0282C8.78215 17.9595 8.79088 17.9573 8.85919 17.9983C8.97386 18.0672 9.19455 18.2115 9.30684 18.2837C9.32185 18.2914 9.33639 18.3001 9.3503 18.3098Z" fill="#666059"/>
<path d="M12.9121 19.9659C12.9701 19.6943 12.9755 19.413 12.9281 19.139C12.8806 18.8651 12.7813 18.604 12.6361 18.3714C12.3934 18.0416 12.0884 17.7637 11.75 17.5923C11.5387 17.4964 11.3124 17.443 11.0825 17.4348C10.4758 17.412 9.95556 17.6237 9.53176 18.0841C9.46514 18.1578 9.40254 18.2354 9.34436 18.3166C9.29449 18.2853 8.8355 18.0385 8.77092 17.9798C8.74532 17.9565 8.94546 17.7176 9.04827 17.606C9.27308 17.3619 9.52716 17.1603 9.81912 17.0127C10.0923 16.8642 10.4047 16.7794 10.7198 16.7441C10.9615 16.7166 11.2055 16.7234 11.4454 16.7644C11.7617 16.8191 12.0532 16.9488 12.3297 17.122C12.5193 17.2396 12.6939 17.3821 12.8492 17.5462C13.1543 17.8712 13.3788 18.2483 13.5053 18.6881C13.5859 18.9704 13.625 19.2642 13.6211 19.559C13.6169 19.9988 13.5122 20.4028 13.3599 20.7282C13.3298 20.7928 13.3572 20.7912 13.2697 20.7282C13.1622 20.6473 12.8941 20.4781 12.7809 20.4016C12.7739 20.3959 12.8663 20.1825 12.9121 19.9659Z" fill="#45423D"/>
<path d="M10.0944 8.50373C10.0478 8.3474 10.012 8.18792 9.97267 8.02949C9.96231 7.98777 9.97395 7.97655 10.0162 7.96572C12.3529 7.36709 15.1945 7.82452 16.654 8.29026C16.8853 8.37771 17.1104 8.47929 17.3186 8.61829C17.409 8.67863 17.4947 8.74513 17.5622 8.83432C17.5809 8.85876 17.5978 8.88471 17.6127 8.91193C17.648 8.9782 17.6559 9.04494 17.6227 9.11737C17.5458 9.28546 17.4622 9.44971 17.3719 9.61023C17.3134 9.71473 17.2535 9.81817 17.1942 9.92226C17.1663 9.97271 17.1351 10.021 17.1005 10.0668C17.0704 10.0964 17.0365 10.0821 17.004 10.0745C16.861 10.0407 16.7167 10.0143 16.5747 9.97748C16.5642 9.97474 16.5535 9.97934 16.5429 9.97974C16.3941 9.92895 16.237 9.92319 16.0859 9.88526C16.0661 9.88025 16.0489 9.89288 16.0299 9.8895C15.7817 9.83865 15.53 9.813 15.2801 9.77681C15.1923 9.76407 15.1015 9.77081 15.0164 9.73771C14.9838 9.70146 14.9779 9.6541 14.9669 9.60837C14.9039 9.33876 14.8221 9.07711 14.6722 8.84473C14.6493 8.80942 14.6245 8.77573 14.5985 8.74292C14.5206 8.6443 14.4274 8.58559 14.301 8.56814C13.9712 8.52241 13.641 8.48296 13.3097 8.45335C12.7586 8.40389 12.2069 8.39545 11.6548 8.40366C11.3823 8.40767 11.1101 8.42676 10.8381 8.45148C10.6129 8.47173 10.3883 8.49576 10.1643 8.527C10.1365 8.52985 10.1125 8.52811 10.0944 8.50373Z" fill="#ED5050"/>
<path d="M17.843 13.2107C17.6879 13.2096 17.5326 13.2062 17.3775 13.2085C17.3279 13.2092 17.3169 13.1789 17.3062 13.1414C17.2641 13.1279 17.2653 13.0874 17.2589 13.0536C17.2087 12.7938 17.1615 12.5332 17.1069 12.2743C16.9726 11.6377 16.8217 11.0057 16.6383 10.3827C16.6067 10.2754 16.5727 10.1688 16.5417 10.0612C16.5324 10.0285 16.5143 9.99277 16.5448 9.95995C16.556 9.94645 16.571 9.94645 16.5857 9.94919C16.7585 9.98293 16.9309 10.0167 17.1006 10.0654C17.212 10.3957 17.3057 10.7317 17.3922 11.07C17.5096 11.5297 17.6104 11.9937 17.7043 12.4593C17.7394 12.6332 17.8426 13.2064 17.843 13.2107Z" fill="#45423D"/>
<path d="M10.0949 8.50348C10.299 8.46677 10.505 8.44542 10.7109 8.42598C10.8594 8.41196 11.0086 8.40294 11.1575 8.39224C11.5711 8.36198 11.985 8.36257 12.3988 8.36995C12.6995 8.37531 12.9998 8.39206 13.2999 8.4172C13.4998 8.43395 13.6993 8.45321 13.8984 8.47713C14.0657 8.49743 14.2316 8.52664 14.399 8.54956C14.4531 8.55695 14.4938 8.58488 14.5324 8.62211C14.6657 8.75035 14.7597 8.90726 14.8336 9.07843C14.9216 9.28195 14.9819 9.49473 15.022 9.71407C15.0127 9.74485 14.9889 9.74526 14.9648 9.74369C14.8585 9.73694 14.7519 9.72908 14.646 9.71867C14.5526 9.70953 14.4588 9.70517 14.3654 9.69964C14.2167 9.69097 14.0678 9.67398 13.9183 9.68265C13.8606 9.68608 13.8038 9.67078 13.7462 9.66985C13.6683 9.66863 13.6441 9.68638 13.617 9.76248C13.4577 10.2112 13.3265 10.6692 13.2113 11.1324C13.0331 11.848 12.8973 12.573 12.783 13.3026C12.7524 13.4976 12.7274 13.6935 12.7002 13.889C12.6946 13.9288 12.6905 13.9695 12.6665 14.0038C12.6477 14.0237 12.6238 14.025 12.6008 14.0187C12.4937 13.9896 12.3873 13.957 12.2804 13.927C12.2721 13.925 12.2643 13.921 12.2578 13.915C12.2513 13.9092 12.2463 13.9017 12.2431 13.8933C12.2259 13.8445 12.2367 13.7949 12.2437 13.7468C12.3526 12.9576 12.4859 12.1734 12.6614 11.3974C12.7854 10.8487 12.9268 10.3055 13.1078 9.77435C13.1353 9.694 13.1199 9.67067 13.0398 9.66974C12.7223 9.66601 12.4054 9.67759 12.0881 9.69359C11.9286 9.70168 11.7693 9.7086 11.6102 9.72262C11.5996 9.72262 11.5889 9.72303 11.5782 9.72309C11.4121 9.72425 11.4083 9.72809 11.3559 9.89089C11.0512 10.8372 10.8382 11.8073 10.6737 12.7903C10.6245 13.0843 10.5813 13.3793 10.5375 13.6742C10.5335 13.7012 10.5307 13.7277 10.5146 13.7504C10.4992 13.7765 10.4738 13.78 10.4483 13.7841C10.3159 13.8044 10.1828 13.8185 10.051 13.8431C10.0213 13.8488 9.98487 13.8554 9.97888 13.8051C10.001 13.6497 10.0231 13.4943 10.0453 13.3389C10.1027 12.9346 10.1677 12.5318 10.2404 12.1304C10.3356 11.6045 10.4445 11.0827 10.5791 10.5672C10.6431 10.3227 10.7094 10.0788 10.7899 9.83951C10.8181 9.75567 10.818 9.75567 10.7571 9.69772C10.61 9.5575 10.4635 9.41676 10.3158 9.27742C10.2886 9.25228 10.2696 9.21889 10.2614 9.18182C10.2113 8.97749 10.1588 8.77379 10.1072 8.56987C10.0983 8.54904 10.094 8.52635 10.0949 8.50348Z" fill="#45423D"/>
<path d="M10.095 8.50342C10.1028 8.52471 10.1116 8.54577 10.1071 8.56957C10.0944 8.54944 10.0781 8.52972 10.095 8.50342Z" fill="#A9A9A9"/>
<path d="M13.4873 14.3711C13.2417 14.2321 12.9843 14.1226 12.721 14.0277C12.697 14.0191 12.6718 14.0127 12.6536 13.9919C12.6807 13.7941 12.7057 13.5959 12.7352 13.3984C12.8036 12.9412 12.8834 12.4864 12.9747 12.0337C13.1137 11.3477 13.2801 10.6695 13.4988 10.0064C13.5338 9.90031 13.57 9.79465 13.6065 9.68911C13.6249 9.63576 13.6257 9.63552 13.6799 9.63715C13.9828 9.64617 14.2856 9.65839 14.588 9.6784C14.7327 9.68789 14.8769 9.70197 15.0214 9.71395C15.2602 9.73816 15.4981 9.76911 15.7356 9.8046C15.8366 9.81967 15.9375 9.83363 16.0378 9.85324C16.0954 9.8775 16.1312 9.92393 16.1659 9.97728C16.2982 10.1803 16.4036 10.3995 16.4913 10.6254C16.583 10.8616 16.6669 11.1026 16.7236 11.3524C16.7458 11.4507 16.7776 11.5464 16.8005 11.6444C16.8755 11.9668 16.9586 12.287 17.0192 12.6131C17.0503 12.7803 17.0834 12.9474 17.1242 13.1126C17.1352 13.1566 17.1532 13.2064 17.0994 13.238C17.0937 13.2448 17.089 13.2532 17.0818 13.2572C16.9868 13.3102 16.9226 13.3965 16.8602 13.4844C16.7558 13.6313 16.6525 13.7789 16.5488 13.9263C16.5196 13.9398 16.4954 13.9286 16.4716 13.9106C16.3468 13.8163 16.2207 13.7237 16.0934 13.6327C16.0288 13.5864 16.0239 13.5631 16.0672 13.4947C16.1288 13.3975 16.195 13.3037 16.2585 13.2078C16.2829 13.171 16.3091 13.1352 16.329 13.0953C16.3649 13.0231 16.3517 12.9511 16.2966 12.9079C16.2413 12.8648 16.1724 12.8735 16.1195 12.9361C16.0526 13.0151 15.9999 13.1057 15.9429 13.1926C15.7616 13.4678 15.5801 13.7427 15.3981 14.0174C15.3811 14.0432 15.3636 14.069 15.3521 14.0984C15.3254 14.1653 15.3439 14.2341 15.3979 14.2712C15.4536 14.3095 15.5178 14.302 15.565 14.245C15.631 14.1653 15.6834 14.0746 15.7409 13.9885C15.7774 13.9332 15.814 13.8778 15.8518 13.8235C15.8781 13.7857 15.9073 13.78 15.9452 13.8057C16.0834 13.8993 16.2155 14.0024 16.3503 14.1012C16.3729 14.1177 16.3952 14.1372 16.3944 14.1711C16.3521 14.2436 16.3101 14.3161 16.2676 14.3883C16.2462 14.4246 16.2234 14.4598 16.2024 14.4963C16.1146 14.6474 16.1119 14.8035 16.1875 14.9585C16.3912 15.3759 16.6027 15.7888 16.8415 16.1855C16.8713 16.235 16.9032 16.2826 16.933 16.3317C17.0172 16.4698 17.1429 16.5252 17.2909 16.53C17.4335 16.5343 17.5758 16.5179 17.7179 16.5048C17.7146 17.1297 17.5449 17.7014 17.2271 18.2276C17.1825 18.3011 17.1344 18.3326 17.0476 18.33C16.8175 18.3227 16.5872 18.3286 16.357 18.3293C16.3105 18.3225 16.3121 18.2792 16.3056 18.2466C16.2784 18.1126 16.2425 17.9812 16.2046 17.8501C16.0589 17.3445 15.8479 16.8625 15.5772 16.4177C15.4898 16.2739 15.3921 16.1381 15.3005 15.9976C15.2154 15.8805 15.1235 15.7691 15.0288 15.661C14.8599 15.4683 14.6847 15.2822 14.4929 15.1141C14.2156 14.8725 13.9186 14.657 13.6052 14.4704C13.5618 14.4429 13.5098 14.4259 13.4873 14.3711Z" fill="#B9E1E1"/>
<path d="M17.086 13.254C17.1037 13.2135 17.1022 13.1576 17.093 13.1194C17.012 12.7869 16.4405 10.469 16.1173 9.95882C16.0781 9.89704 16.0689 9.88063 16.0381 9.85352C16.1899 9.86597 16.3387 9.89971 16.4892 9.92188C16.5007 9.92328 16.5117 9.92746 16.5215 9.93427C16.5311 9.94096 16.5391 9.95004 16.5448 9.96069C16.7467 10.6066 16.9199 11.2608 17.0644 11.9235C17.153 12.3273 17.2439 12.7613 17.3161 13.1688L17.3172 13.1714C17.3318 13.1998 17.3355 13.192 17.2509 13.2032C17.1985 13.2102 17.1279 13.2349 17.086 13.254Z" fill="#DCF9FB"/>
<path d="M12.2577 13.8854C12.1263 13.8584 11.9949 13.8289 11.8632 13.8051C11.706 13.777 11.5475 13.7577 11.3884 13.7471C11.2378 13.7368 11.0885 13.7336 10.9377 13.7333C10.8529 13.7333 10.767 13.742 10.6817 13.7354C10.6468 13.7072 10.6531 13.6689 10.6581 13.6304C10.7305 13.0808 10.8146 12.5335 10.9243 11.99C11.0012 11.6072 11.0878 11.2271 11.1943 10.8526C11.2961 10.4948 11.4146 10.1432 11.5984 9.82103C11.626 9.77257 11.6304 9.73248 11.6011 9.68704C11.6213 9.67849 11.6429 9.67855 11.6641 9.6775C12.1477 9.65446 12.6312 9.62938 13.1154 9.63404C13.1363 9.63404 13.158 9.62886 13.1784 9.6398C13.1864 9.664 13.1729 9.68378 13.1659 9.70397C12.9524 10.3183 12.791 10.9491 12.6521 11.5863C12.5342 12.127 12.4364 12.6717 12.3521 13.2191C12.3181 13.4409 12.2892 13.6634 12.2577 13.8854Z" fill="#B9E1E1"/>
<path d="M11.6431 9.67882C11.7297 9.66811 11.7215 9.67311 11.6696 9.76655C11.5295 10.0188 11.4114 10.2781 11.3213 10.5517C11.269 10.7103 11.2183 10.8703 11.1791 11.0339C11.1364 11.2124 11.0859 11.3888 11.0463 11.5683C11.0061 11.7499 10.9722 11.9328 10.9351 12.1151C10.897 12.3017 10.8582 12.4882 10.8292 12.6766C10.7843 12.9692 10.741 13.2619 10.6993 13.5548C10.6908 13.6145 10.68 13.6745 10.6817 13.7355C10.6602 13.7457 10.5123 13.7618 10.501 13.7355C10.5107 13.5919 10.5363 13.4505 10.5574 13.3086C10.6095 12.9581 10.6681 12.6088 10.7332 12.2606C10.885 11.4559 11.072 10.6606 11.3227 9.88338C11.3386 9.83457 11.3573 9.78663 11.3713 9.73717C11.3795 9.70826 11.3959 9.69749 11.4221 9.69668C11.4821 9.69354 11.6325 9.67835 11.6431 9.67882Z" fill="#DCF9FB"/>
<path d="M19.6377 19.5773C19.4885 19.5652 19.3224 19.4416 19.2037 19.7609C19.0857 20.0773 19.2591 20.1992 19.233 20.1886C19.2201 20.1868 19.2071 20.1864 19.1941 20.1873C19.0965 20.1886 18.9955 20.1715 18.898 20.1714C18.8635 20.1546 18.8716 20.125 18.8774 20.0961C18.9265 19.8472 19.0017 19.6051 19.1016 19.3737C19.234 19.0704 19.3958 18.7864 19.5987 18.5286C19.8808 18.1704 20.2111 17.8737 20.5953 17.6432C20.9951 17.4032 21.4243 17.2549 21.8791 17.1902C22.0987 17.159 22.3203 17.1474 22.5423 17.1638C22.6265 17.17 22.6924 17.1338 22.7376 17.0607C22.7562 17.0308 22.7765 17.0082 22.8082 16.9964C22.8448 16.996 22.8781 17.0123 22.913 17.0205C22.9898 17.0387 22.9978 17.0357 23.0315 16.9624C23.0859 16.8441 23.1425 16.7268 23.2129 16.6174C23.2301 16.6057 23.2445 16.5898 23.255 16.5711C23.3462 16.424 23.4628 16.3024 23.5999 16.2025C23.6038 16.2006 23.6081 16.1998 23.6123 16.2004C23.6619 16.2004 23.6749 16.2402 23.6868 16.2792C23.7393 16.4504 23.7983 16.6186 23.8713 16.7817C23.9922 17.0516 24.1415 17.3015 24.3332 17.5219C24.3616 17.5548 24.3978 17.5841 24.381 17.6376C24.2813 17.8222 24.1814 18.0068 24.0816 18.1912C24.0669 18.2183 24.0508 18.2446 24.0353 18.2713C24.0075 18.3177 23.9761 18.3617 23.9416 18.4029C23.9327 18.3959 23.9232 18.3899 23.9132 18.3848C23.9074 18.3819 23.8965 18.3717 23.8909 18.3684C23.7864 18.3086 23.8012 18.3046 23.8534 18.1929C23.8859 18.1225 23.903 18.0511 23.8823 17.9718C23.8741 17.9389 23.8596 17.9083 23.8397 17.8817C23.8198 17.8552 23.7949 17.8333 23.7665 17.8173C23.6998 17.779 23.6303 17.7429 23.554 17.7262C23.4468 17.7028 23.3349 17.7551 23.2833 17.857C23.2662 17.8909 23.2543 17.9271 23.2385 17.9614C23.2158 18.0116 23.2027 18.0186 23.1532 18.0038C23.0218 17.9643 22.8891 17.932 22.7529 17.916C22.7401 17.9144 22.728 17.9092 22.7153 17.908C22.679 17.9035 22.6637 17.881 22.6641 17.8441C22.6641 17.8082 22.6617 17.772 22.6641 17.7361C22.6724 17.6001 22.5902 17.5081 22.4708 17.4833C22.3847 17.4653 22.2959 17.4665 22.2104 17.4868C22.1009 17.5127 22.0361 17.5831 22.0209 17.7029C22.0147 17.7471 22.0111 17.7919 22.01 17.8367C22.0095 17.8952 22.0056 17.9001 21.9496 17.9117C21.8806 17.926 21.811 17.9368 21.7418 17.9505C21.6706 17.9649 21.6001 17.9828 21.5304 18.0042C21.4851 18.0181 21.4745 18.0125 21.4555 17.9679C21.4382 17.9269 21.4218 17.8856 21.3994 17.8471C21.3403 17.7458 21.2333 17.6991 21.1238 17.7288C21.0452 17.7504 20.9703 17.7851 20.9023 17.8319C20.8029 17.8994 20.7666 18.0269 20.8088 18.1471C20.8213 18.1828 20.8395 18.2161 20.8543 18.2511C20.8727 18.2951 20.871 18.3056 20.8345 18.3292C20.705 18.4127 20.5853 18.5101 20.4662 18.6085C20.4314 18.6374 20.4217 18.6377 20.3893 18.6061C20.3603 18.5762 20.3295 18.5483 20.2973 18.5226C20.2057 18.4528 20.0806 18.452 19.9944 18.5286C19.9345 18.582 19.8777 18.6401 19.835 18.7115C19.7702 18.8196 19.7852 18.9478 19.8734 19.0356C19.9091 19.0711 19.9128 19.0738 19.9708 19.1156C19.8817 19.2095 19.7074 19.4633 19.6564 19.5631" fill="#414141"/>
<path d="M18.4449 20.1589C18.0864 20.1585 17.7279 20.1581 17.3694 20.1577C16.7994 20.1577 16.2297 20.1577 15.6598 20.1577C15.5283 20.1577 15.5261 20.1533 15.5445 20.0175C15.5573 19.9185 15.5596 19.8197 15.5068 19.7297C15.45 19.6326 15.3696 19.5703 15.2618 19.5529C15.2092 19.5439 15.1561 19.5382 15.1029 19.5359C15.0388 19.534 15.0271 19.5172 15.0247 19.4491C15.017 19.229 15 19.0103 14.9598 18.7934C14.9439 18.7076 14.9483 18.7004 15.03 18.6766C15.096 18.6574 15.1603 18.6337 15.2192 18.5963C15.3658 18.5034 15.4087 18.3447 15.3736 18.1817C15.3575 18.1073 15.3332 18.0348 15.3096 17.9626C15.2481 17.7754 15.0852 17.678 14.9007 17.7144C14.8374 17.7269 14.7768 17.7481 14.7159 17.7684C14.6658 17.7853 14.6595 17.7836 14.6362 17.7324C14.5393 17.517 14.4249 17.3108 14.2944 17.116C14.2698 17.0797 14.2711 17.0683 14.3085 17.0388C14.3598 16.9978 14.4012 16.9459 14.4488 16.9009C14.5632 16.7929 14.5611 16.5656 14.4927 16.457C14.4282 16.3548 14.3466 16.2679 14.2576 16.1916C14.1458 16.0952 13.9497 16.0918 13.8254 16.2095C13.7827 16.2501 13.7341 16.2839 13.6962 16.3301C13.6735 16.3579 13.6526 16.3584 13.6257 16.3345C13.5623 16.2779 13.4983 16.2219 13.4326 16.1684C13.3295 16.0845 13.2211 16.009 13.1111 15.9353C13.0158 15.8714 13.0202 15.8857 13.0687 15.78C13.089 15.7379 13.1067 15.6945 13.1219 15.6501C13.1773 15.4772 13.1271 15.2878 12.9503 15.1933C12.874 15.1527 12.7975 15.111 12.7152 15.0874C12.5999 15.0544 12.4873 15.0604 12.3859 15.1398C12.3448 15.1724 12.3118 15.215 12.2898 15.2641C12.2625 15.3225 12.2385 15.3826 12.2124 15.4416C12.1926 15.4861 12.1882 15.4889 12.1436 15.4741C11.9722 15.4174 11.797 15.3787 11.6198 15.349C11.5777 15.3423 11.5355 15.3355 11.4933 15.3292C11.4322 15.3198 11.4275 15.3148 11.4264 15.2473C11.4256 15.1911 11.4258 15.1349 11.4264 15.0785C11.4279 14.9225 11.3495 14.822 11.2228 14.7568C11.1863 14.7374 11.1464 14.7263 11.1057 14.7242C11.0099 14.7208 10.914 14.7143 10.8184 14.731C10.6361 14.7631 10.5229 14.8972 10.5173 15.0914C10.5159 15.1408 10.5173 15.1902 10.5167 15.2398C10.5157 15.3157 10.5128 15.318 10.4435 15.3296C10.2307 15.3651 10.0184 15.4039 9.81157 15.4698C9.76223 15.4854 9.75635 15.4821 9.73378 15.4308C9.71231 15.3818 9.69137 15.3326 9.66972 15.2837C9.58449 15.0892 9.38684 15.0263 9.20473 15.0963C9.13648 15.1223 9.06992 15.1529 9.00534 15.1878C8.89945 15.2454 8.82958 15.3346 8.80671 15.4615C8.79496 15.5281 8.80089 15.5969 8.82387 15.6602C8.84377 15.7173 8.87013 15.7712 8.89497 15.826C8.91603 15.8724 8.91365 15.883 8.87339 15.9088C8.70338 16.0174 8.54454 16.1425 8.38955 16.2733C8.36965 16.2901 8.35109 16.3091 8.33189 16.3264C8.29872 16.3557 8.28854 16.3557 8.25497 16.3252C8.21785 16.2914 8.17963 16.2588 8.14489 16.2224C8.01398 16.0853 7.76886 16.0861 7.64179 16.2318C7.60432 16.2747 7.5686 16.3196 7.53014 16.3615C7.48366 16.412 7.48057 16.4103 7.43286 16.364C7.39237 16.3246 7.29689 16.2362 7.29009 16.2309C7.22649 16.1561 7.22911 16.1556 7.29352 16.079C7.84107 15.4279 8.53518 14.9322 9.31208 14.6376C9.70364 14.4891 10.1067 14.3923 10.5207 14.3547C10.7737 14.3326 11.0278 14.33 11.2811 14.3471C11.6241 14.3688 11.964 14.4281 12.2953 14.5241C12.5671 14.6024 12.8315 14.7069 13.0851 14.8364C13.2584 14.9225 13.4265 15.0197 13.5884 15.1276C13.8152 15.2789 14.0299 15.4495 14.2304 15.6376C14.4222 15.8191 14.6023 16.0139 14.7695 16.2207C14.7922 16.2503 14.8133 16.2813 14.833 16.3133C14.9894 16.4993 15.115 16.7083 15.2323 16.922C15.468 17.3503 15.6443 17.8117 15.7558 18.2924C15.7949 18.4606 15.8207 18.6313 15.8496 18.8016C15.8746 18.95 15.978 19.0008 16.105 18.9289C16.2641 18.8389 16.3652 18.6245 16.3421 18.4348C16.337 18.3937 16.31 18.347 16.352 18.3084C16.3852 18.2886 16.4218 18.2903 16.4581 18.2901C16.6503 18.2896 16.8423 18.2875 17.0342 18.2911C17.1134 18.2926 17.1665 18.2613 17.209 18.1922C17.3677 17.933 17.4887 17.6502 17.5678 17.3532C17.6302 17.1214 17.6751 16.8862 17.6902 16.6451C17.6921 16.6204 17.6917 16.5955 17.6891 16.5709C17.6858 16.5416 17.6926 16.5175 17.7184 16.5021C17.7601 16.5013 17.8512 16.4958 17.8554 16.4954C18.0147 16.4855 18.0147 16.4856 18.015 16.6544C18.015 16.7827 18.0143 16.9108 18.0154 17.0388C18.0164 17.156 18.0461 17.1921 18.1549 17.221C18.4154 17.2909 18.679 17.3135 18.9476 17.2988C19.0717 17.292 19.193 17.2685 19.3163 17.2582C19.3417 17.2552 19.3666 17.2484 19.3903 17.238C19.465 17.2078 19.4871 17.1773 19.4881 17.0916C19.4901 16.9321 19.4876 16.7725 19.4895 16.6128C19.4899 16.5781 19.4832 16.5398 19.5125 16.5116C19.5609 16.4724 19.6071 16.5023 19.6503 16.5214C19.7572 16.5687 19.8375 16.6526 19.9113 16.7434C20.048 16.9115 20.1494 17.1036 20.2456 17.2991C20.254 17.3147 20.2576 17.3328 20.2558 17.3508C20.2525 17.3946 20.2224 17.4163 20.1917 17.4373C19.9399 17.6087 19.714 17.8121 19.5061 18.0392C19.2677 18.2995 19.07 18.5905 18.9025 18.905C18.7079 19.2702 18.5757 19.6594 18.4976 20.0698C18.4908 20.1043 18.4975 20.1531 18.4449 20.1589Z" fill="#45423D"/>
<path d="M18.4447 20.1588C18.4607 20.0821 18.4763 20.0053 18.4933 19.9293C18.6327 19.3038 18.9003 18.7456 19.2867 18.2498C19.5433 17.9185 19.8477 17.6317 20.1887 17.3997C20.2082 17.3862 20.2298 17.3755 20.2421 17.3525C20.2573 17.3255 21.4204 16.537 22.721 16.7903C22.7984 16.8496 22.8076 16.9635 22.7655 17.0667C22.7244 17.1675 22.6477 17.1991 22.5251 17.1961C22.4119 17.1931 22.2989 17.1867 22.1862 17.1932C21.9966 17.2033 21.8082 17.2285 21.6223 17.2687C21.113 17.3812 20.6493 17.5992 20.2331 17.9281C19.747 18.3124 19.3801 18.7984 19.1283 19.3805C19.0261 19.6182 18.9492 19.8672 18.8989 20.1227C18.8958 20.1379 18.8541 20.3849 18.8411 20.494C18.8296 20.5952 18.7835 20.6659 18.6907 20.6993C18.5544 20.7483 18.4088 20.6436 18.4059 20.4919C18.4043 20.4154 18.4199 20.3404 18.4308 20.2651C18.4352 20.2351 18.4399 20.1637 18.4447 20.1588Z" fill="#A19D98"/>
<path d="M17.3349 19.6329C17.1025 19.6329 16.8699 19.6335 16.6375 19.6325C16.5285 19.6319 16.4496 19.5759 16.4046 19.4733C16.3596 19.3704 16.3736 19.2707 16.4388 19.1815C16.4906 19.1109 16.5647 19.0838 16.6469 19.0811C16.7024 19.0793 16.758 19.0804 16.8136 19.0804C17.2061 19.0807 17.5986 19.0809 17.9911 19.0812C18.0655 19.0812 18.1348 19.0947 18.1938 19.148C18.2752 19.2215 18.3083 19.3408 18.2744 19.4471C18.2579 19.5009 18.2256 19.5479 18.1822 19.5814C18.1388 19.6148 18.0865 19.633 18.0328 19.6333C17.8002 19.6345 17.5675 19.6329 17.3349 19.6329Z" fill="#FC4F4F"/>
<path d="M9.97881 13.8047C9.99335 13.8169 10.01 13.8173 10.0271 13.8137C10.1726 13.7837 10.3197 13.7664 10.467 13.7504C10.4798 13.7489 10.4734 13.7491 10.5097 13.7454C11.0268 13.7049 11.7162 13.7348 12.2583 13.8856C12.3778 13.9204 12.4981 13.9463 12.6178 13.9809C12.63 13.9817 13.2156 14.2073 13.4431 14.3361C13.4635 14.3514 13.4734 14.3596 13.488 14.3713C13.4973 14.4818 13.4647 14.5649 13.4035 14.6403C13.3182 14.7454 13.2055 14.8208 13.0793 14.8685C12.9171 14.7942 12.7557 14.7181 12.5881 14.6572C12.2917 14.5494 11.9863 14.4711 11.676 14.4235C11.4056 14.383 11.1326 14.3657 10.8595 14.3716C10.5373 14.3773 10.2165 14.4179 9.90224 14.4928C8.92677 14.7236 8.04223 15.2649 7.36866 16.0432C7.34713 16.0681 7.32514 16.0927 7.30355 16.1175C7.25869 16.1693 7.23909 16.203 7.20604 16.2441C7.15112 16.3128 7.09765 16.3828 7.04418 16.4526C6.9192 16.6157 6.69957 16.6244 6.56278 16.4535C6.47016 16.3377 6.48586 16.1632 6.56127 16.0533C6.64342 15.9356 6.73128 15.8224 6.82442 15.7142C6.91967 15.602 7.01241 15.4873 7.11679 15.3842C7.26312 15.2399 7.4088 15.0944 7.56787 14.9657C8.11123 14.5261 8.70672 14.1908 9.36307 13.9791C9.53651 13.923 9.71263 13.8766 9.89078 13.8403C9.9222 13.8341 9.95513 13.8317 9.97881 13.8047Z" fill="#ED5050"/>
<path d="M15.3186 15.9781C15.4776 16.1762 15.607 16.3957 15.7318 16.6181C15.8789 16.8796 16.001 17.1539 16.1046 17.4377C16.1994 17.6981 16.2815 17.9627 16.3361 18.236C16.3426 18.2668 16.3503 18.2967 16.3574 18.3277C16.3717 18.4116 16.3881 18.4947 16.3706 18.581C16.335 18.7584 16.2511 18.8972 16.0911 18.9744C15.9568 19.0393 15.8405 18.9715 15.8185 18.8176C15.7609 18.4125 15.6667 18.0171 15.5231 17.6356C15.3531 17.1842 15.1306 16.7647 14.8474 16.3806C14.8345 16.363 14.8226 16.3443 14.8102 16.3262C14.8408 16.219 14.9043 16.1324 14.9653 16.0433C14.9997 15.9933 15.0526 16.0015 15.0969 15.9868C15.1684 15.9631 15.2435 15.9438 15.3186 15.9781Z" fill="#ED5050"/>
<path d="M15.2819 15.9688C14.9314 15.9389 14.8212 16.3032 14.8099 16.3261C14.6585 16.1318 14.4988 15.9457 14.3249 15.7732C13.9716 15.4214 13.5707 15.1268 13.1352 14.8991C13.116 14.8892 13.0975 14.8788 13.0786 14.8683C13.0949 14.848 13.2392 14.8182 13.3595 14.6455C13.4612 14.4993 13.4852 14.4002 13.4872 14.3711C13.602 14.4165 13.7022 14.4903 13.8063 14.5559C13.9862 14.6682 14.1592 14.7925 14.3242 14.928C14.4732 15.0514 14.6179 15.1799 14.7556 15.318C14.85 15.4125 14.9384 15.5126 15.0276 15.6117C15.1314 15.727 15.2361 15.843 15.3182 15.978" fill="#ED5050"/>
<path d="M24.3755 17.6368C24.3378 17.5706 24.2806 17.522 24.2345 17.4628C23.9868 17.1445 23.8093 16.7861 23.6842 16.3975C23.6699 16.3528 23.6568 16.3077 23.6423 16.2631C23.6363 16.2441 23.6317 16.2225 23.6062 16.2232C23.2905 15.9383 22.9092 15.7795 22.536 15.6055C21.9722 15.3431 21.3833 15.1626 20.7877 15.0036C20.3205 14.8789 19.8473 14.7865 19.3725 14.701C19.3294 14.6932 19.2832 14.6894 19.2533 14.6469C19.2455 14.6161 19.2455 14.5847 19.2455 14.5533C19.2448 14.1813 19.245 13.8093 19.2461 13.4374C19.2461 13.3969 19.2343 13.3503 19.2757 13.3203C19.3693 13.3446 19.4659 13.3446 19.561 13.3585C19.7403 13.3847 19.9209 13.4042 20.1001 13.4327C20.3321 13.4693 20.5648 13.5018 20.795 13.5505C20.9538 13.5842 21.1136 13.6126 21.2722 13.6483C21.4581 13.6901 21.6439 13.7324 21.8274 13.7815C22.1333 13.8634 22.4392 13.9465 22.7373 14.0571C22.856 14.101 22.9737 14.1485 23.0939 14.1875C23.2163 14.2272 23.3123 14.3064 23.4036 14.3957C23.6024 14.5898 23.8005 14.7844 23.9922 14.9861C24.1204 15.1211 24.2491 15.2552 24.3714 15.3964C24.4243 15.4576 24.4829 15.5135 24.538 15.5731C24.6332 15.676 24.7218 15.7855 24.8194 15.8863C24.8977 15.9674 24.944 16.0693 24.9498 16.1861C24.9579 16.3502 24.9528 16.513 24.9133 16.6744C24.8405 16.9713 24.7062 17.2334 24.5241 17.4703C24.4785 17.5292 24.4313 17.5873 24.3755 17.6368Z" fill="#ED5050"/>
<path d="M16.3946 14.1697L15.9534 13.8473C15.9461 13.8427 15.9391 13.8375 15.9326 13.8316C15.906 13.8046 15.8899 13.817 15.8731 13.8451C15.8481 13.8868 15.82 13.9266 15.7931 13.9671C15.7292 14.0626 15.6668 14.1591 15.6012 14.2532C15.5525 14.3231 15.4908 14.3446 15.4226 14.3222C15.3206 14.2884 15.2745 14.1726 15.3251 14.0724C15.3409 14.0408 15.3619 14.012 15.3815 13.9826C15.6059 13.6437 15.8305 13.3049 16.0552 12.9661C16.0692 12.9436 16.0848 12.9222 16.1017 12.9019C16.1603 12.8356 16.2491 12.8251 16.3164 12.8749C16.3489 12.899 16.372 12.935 16.3813 12.9759C16.3904 13.0169 16.3847 13.0599 16.3656 13.0967C16.3456 13.1362 16.3201 13.1726 16.2957 13.2094C16.226 13.3143 16.1556 13.4187 16.0856 13.5233C16.0577 13.565 16.057 13.5659 16.097 13.5952C16.2473 13.7057 16.398 13.8158 16.5488 13.9256L16.3946 14.1697Z" fill="#45423E"/>
<path d="M18.2136 13.2364C18.2343 13.2518 18.2329 13.2751 18.2329 13.2972C18.2334 13.6914 18.2334 14.0856 18.2329 14.4797C18.2334 14.4932 18.2312 14.5066 18.2264 14.5191C18.2 14.5528 18.1623 14.5515 18.1267 14.5516C17.9947 14.5523 17.8628 14.5448 17.7309 14.5422C17.3625 14.5338 16.9941 14.5388 16.6251 14.5396C16.5995 14.5396 16.5738 14.5411 16.55 14.5531C16.536 14.5598 16.5232 14.5696 16.5252 14.5881C16.5272 14.6067 16.542 14.6124 16.5569 14.6165C16.5672 14.6193 16.5778 14.6206 16.5885 14.6204C16.7694 14.6163 16.9502 14.6241 17.1314 14.6122C17.3054 14.6007 17.4802 14.6042 17.655 14.6152C17.8057 14.6248 17.957 14.6287 18.108 14.6345C18.1465 14.6359 18.1849 14.6332 18.2191 14.6572C18.2362 14.7476 18.263 14.837 18.2447 14.931C18.2443 14.9396 18.2421 14.948 18.2379 14.9554C18.2098 14.9908 18.1659 14.9916 18.1293 15.0076C18.06 15.038 18.0255 15.0876 18.0277 15.1681C18.0376 15.5363 18.0101 15.904 18.0149 16.2721C18.0154 16.3147 18.0162 16.3572 18.0208 16.3998C18.0304 16.4918 18.0064 16.522 17.9182 16.5314C17.895 16.5338 17.8714 16.5345 17.8478 16.5352C17.8068 16.5358 17.7658 16.5361 17.725 16.5326C17.6052 16.5524 17.4839 16.5537 17.3632 16.5625C17.1393 16.5783 16.975 16.4823 16.8583 16.2789C16.6965 15.9966 16.5331 15.7154 16.385 15.4246C16.3186 15.2942 16.2568 15.1613 16.1868 15.0326C16.0743 14.826 16.0732 14.6239 16.2045 14.4261C16.2619 14.3399 16.3037 14.2428 16.3722 14.1646C16.4101 14.0706 16.4716 13.9923 16.5269 13.9097C16.6537 13.7127 16.7875 13.5211 16.9316 13.3378C16.9756 13.2818 17.0368 13.2473 17.0932 13.2071C17.168 13.1858 17.4394 13.1801 17.5081 13.1778C17.5862 13.175 17.6646 13.1767 17.7427 13.1778C17.78 13.178 18.1418 13.1987 18.2136 13.2364Z" fill="#ED5050"/>
<path d="M22.811 17.0271C22.7868 17.0129 22.7718 16.9933 22.7734 16.9622C22.7783 16.8677 22.7203 16.8211 22.6492 16.7864C22.5547 16.75 21.8341 16.6786 21.1178 16.9408C20.8658 17.0268 20.6228 17.134 20.3943 17.2759C20.3522 17.302 20.3055 17.3199 20.2661 17.3512C20.2606 17.3556 20.25 17.3527 20.2418 17.3532C20.1855 17.2687 20.1484 17.1729 20.0978 17.085C20.0194 16.9489 19.9364 16.8167 19.8304 16.7021C19.7472 16.6119 19.6529 16.5428 19.5336 16.5175C19.5009 16.5202 19.4959 16.4949 19.492 16.4703C19.4884 16.4414 19.4872 16.412 19.4883 16.3829C19.4883 16.1787 19.4848 15.9744 19.4891 15.7703C19.4931 15.5771 19.472 15.3849 19.4746 15.1918C19.4756 15.1184 19.4426 15.0686 19.3785 15.04C19.3529 15.0286 19.3282 15.0156 19.3043 15.0009C19.286 14.9895 19.2662 14.9779 19.2742 14.9491L19.2766 14.803C19.2978 14.772 19.3267 14.7764 19.3575 14.7813C19.712 14.8375 20.0642 14.9069 20.4139 14.9895C20.8344 15.0897 21.2524 15.1997 21.6616 15.343C21.9898 15.4578 22.3145 15.5825 22.6289 15.7353C22.7779 15.8077 22.93 15.8743 23.0662 15.9724C23.1175 16.0093 23.1586 16.0585 23.1976 16.1095C23.2905 16.231 23.2669 16.3722 23.2583 16.5104C23.2557 16.5536 23.2362 16.5938 23.2327 16.6372C23.1524 16.7658 23.0839 16.902 23.0281 17.0442C23.0167 17.0738 23.0014 17.0848 22.9694 17.0734C22.9178 17.0549 22.864 17.0423 22.811 17.0271Z" fill="#ED5050"/>
<path d="M23.2337 16.6373C23.2158 16.6013 23.2187 16.5622 23.2253 16.5251C23.2393 16.4469 23.2344 16.3685 23.2344 16.29C23.2344 16.213 23.1939 16.1534 23.1498 16.0986C23.0943 16.0301 23.0262 15.9741 22.9497 15.934C22.5919 15.7424 22.2214 15.5829 21.8422 15.4444C21.5683 15.3442 21.2919 15.2528 21.0111 15.1771C20.656 15.0814 20.2997 14.9931 19.9391 14.9206C19.7318 14.879 19.5231 14.8478 19.3157 14.8072C19.3032 14.8048 19.2901 14.8043 19.2776 14.8029C19.2776 14.7534 19.2776 14.704 19.2776 14.6548C19.4049 14.6675 19.5303 14.6942 19.6561 14.718C19.8196 14.749 19.9828 14.7819 20.1458 14.8167C20.3167 14.8537 20.4879 14.8895 20.6571 14.9369C20.7866 14.973 20.9177 15.0038 21.0477 15.0394C21.3654 15.1267 21.6794 15.2269 21.9895 15.3401C22.2415 15.432 22.4852 15.546 22.7301 15.6562C22.9632 15.7614 23.1893 15.8833 23.4067 16.0207C23.4705 16.0609 23.5291 16.1102 23.5893 16.1565C23.6106 16.1729 23.6299 16.1926 23.6068 16.2231C23.5255 16.299 23.4416 16.3717 23.3696 16.4582C23.3216 16.5158 23.2792 16.5775 23.2337 16.6373Z" fill="#ED5050"/>
<path d="M18.2133 14.5198L18.2138 14.6678C17.7872 14.6309 16.9918 14.6309 16.5903 14.6547C16.5598 14.6532 16.5294 14.6499 16.4991 14.6448C16.4767 14.6394 16.4422 14.609 16.4428 14.59C16.4439 14.555 16.4629 14.5381 16.4877 14.5252C16.5187 14.5088 16.5599 14.5058 16.5947 14.5058C16.9788 14.5058 17.3631 14.4997 17.747 14.5094C17.9023 14.5134 18.0579 14.5158 18.2133 14.5198Z" fill="#ED5050"/>
<path d="M24.7977 16.3153C24.7998 16.4605 24.7721 16.5941 24.7326 16.7254C24.6629 16.9577 24.5495 17.1648 24.4049 17.354C24.3756 17.3924 24.3741 17.3926 24.3436 17.3546C24.2031 17.1806 24.0907 16.9878 23.9943 16.7837C23.922 16.6305 23.8627 16.4717 23.8096 16.3102C23.7932 16.2601 23.7951 16.2513 23.8427 16.2255C24.009 16.1356 24.1833 16.0717 24.3692 16.0438C24.4539 16.031 24.5393 16.0313 24.624 16.0203C24.6326 16.0196 24.641 16.0193 24.6496 16.0197C24.7302 16.0214 24.7428 16.0321 24.7731 16.1095C24.7999 16.1783 24.7994 16.2498 24.7977 16.3153Z" fill="#FEFEFE"/>
<path d="M19.2685 13.3531C19.2685 13.7823 19.2732 14.7236 19.2832 14.9876C19.2594 15.0195 19.2284 15.0078 19.2007 14.9995C18.9002 14.9071 18.5978 14.9208 18.2944 14.9792C18.2688 14.9841 18.2439 14.9908 18.2223 14.9687L18.2207 14.9708C18.2066 14.9506 18.2207 12.8535 18.2189 12.7193C18.2181 12.6616 18.2273 12.6093 18.2545 12.5587C18.2879 12.4964 18.3171 12.4317 18.3482 12.368C18.3524 12.3634 18.3582 12.3604 18.3644 12.3599C18.7141 12.5172 19.003 12.6998 19.2664 12.9836C19.2626 13.0861 19.2664 13.2234 19.2685 13.3531Z" fill="#414141"/>
<path d="M18.3655 12.3357H18.3603L18.3552 12.3347C18.3804 12.2711 18.3819 12.2046 18.3816 12.137C18.3808 11.935 18.384 11.7329 18.3822 11.531C18.3815 11.4574 18.4025 11.3977 18.4463 11.3401C18.6615 11.0559 18.8956 10.788 19.1464 10.5382C19.3058 10.3794 19.4751 10.2319 19.661 10.1074C19.6963 10.1163 19.6812 10.1406 19.6732 10.1592C19.5592 10.4241 19.5753 10.7019 19.6112 10.9776C19.6269 11.0991 19.6589 11.2243 19.7548 11.3136C19.7617 11.3192 19.7662 11.3274 19.7677 11.3364C19.7691 11.3454 19.7673 11.3546 19.7626 11.3623C19.546 11.4684 19.3759 11.6331 19.2323 11.8308C19.2111 11.86 19.1955 11.8908 19.2007 11.9293C19.1912 12.17 19.1933 12.4104 19.2012 12.8064C19.2008 12.8107 19.2003 12.8149 19.1996 12.8192C19.1676 12.842 19.1467 12.8161 19.1268 12.7985C19.0413 12.7218 18.9583 12.6422 18.866 12.5738C18.7652 12.4989 18.6619 12.4291 18.5501 12.3734C18.4913 12.3443 18.4314 12.3246 18.3655 12.3357Z" fill="#A19D98"/>
<path d="M19.8005 10.0776C19.8436 10.1004 19.8658 10.1384 19.8767 10.1872C19.9046 10.3113 19.923 10.4375 19.9318 10.5647C19.9468 10.7823 19.9169 10.9928 19.8652 11.2016C19.8545 11.2451 19.8421 11.2879 19.8148 11.3238C19.7875 11.3287 19.7792 11.3079 19.7682 11.288C19.6408 11.0577 19.6177 10.8063 19.6335 10.5474C19.6356 10.5119 19.6411 10.4764 19.6433 10.4406C19.6504 10.3031 19.7067 10.1735 19.8005 10.0776Z" fill="#A19D98"/>
<path d="M19.4079 15.0136C19.4744 15.0444 19.5069 15.0895 19.5096 15.1732C19.5231 15.5951 19.5195 16.017 19.5204 16.4389C19.5204 16.4658 19.5232 16.5783 19.5229 16.6097C19.522 16.7847 19.519 16.9597 19.5214 17.1347C19.5222 17.1963 19.498 17.2315 19.4474 17.2536C19.0255 17.3753 18.4776 17.3692 18.0934 17.2402C18.0067 17.2125 17.9837 17.1785 17.9831 17.0842C17.9821 16.9608 17.9831 16.8374 17.9831 16.7138C17.9831 16.6624 17.9839 16.6107 17.9831 16.559C17.9821 16.5074 17.9958 15.7073 17.9958 15.6826C17.9958 15.4941 17.9972 15.3055 17.9953 15.1169C17.9947 15.0576 18.0155 15.022 18.0681 14.9972C18.6783 14.7941 18.9986 14.8532 19.4079 15.0136Z" fill="#A19D98"/>
<path d="M18.1097 16.1249V15.2148C18.1097 15.1991 18.1093 15.1833 18.1097 15.1676C18.1111 15.105 18.1162 15.0966 18.1732 15.0747C18.3878 14.988 19.0152 14.906 19.35 15.1387C19.4028 15.168 19.4114 15.1979 19.4135 15.2687C19.4222 15.4281 19.4073 16.6122 19.4078 17.0682C19.4078 17.0774 19.4078 17.0862 19.4078 17.0952C19.4061 17.1603 19.402 17.1635 19.3393 17.1771C18.9487 17.2626 18.5604 17.2513 18.1737 17.1501C18.1163 17.1351 18.1133 17.1336 18.1133 17.0684C18.1127 16.8593 18.1127 16.6504 18.1133 16.4414C18.1133 16.3357 18.1133 16.2301 18.1133 16.1245L18.1097 16.1249Z" fill="#45423D"/>
<path d="M18.3513 12.3484C18.3588 12.2907 18.3921 12.2847 18.4567 12.3006C18.5341 12.3249 18.6082 12.3597 18.6771 12.4043C18.8304 12.5008 18.9773 12.6069 19.1062 12.7385C19.1349 12.7679 19.1683 12.7925 19.1995 12.8191C19.204 12.8384 19.2138 12.856 19.228 12.8692C19.2687 12.9077 19.2742 12.9523 19.266 13.0086C19.1983 12.9984 19.1603 12.9559 19.1174 12.9061C19.0011 12.7711 18.8651 12.6617 18.7209 12.5623C18.6321 12.5009 18.4961 12.434 18.3975 12.3925C18.3637 12.3783 18.3473 12.3792 18.3513 12.3484Z" fill="#DCF9FB"/>
<path d="M19.8009 10.0775C19.8237 10.0906 19.8383 10.0967 19.7797 10.1513C19.7055 10.2214 19.6564 10.3981 19.6613 10.6878C19.6662 10.8799 19.6686 11.0509 19.8152 11.3238C19.8028 11.344 19.7866 11.3589 19.7628 11.362C19.5144 11.1048 19.5385 10.3136 19.6611 10.1071C19.7119 10.0517 19.7416 10.0454 19.8009 10.0775Z" fill="#DCF9FB"/>
<path d="M31.6799 15.9998C31.6799 7.34 24.6598 0.319824 15.9999 0.319824C7.34012 0.319824 0.319946 7.34 0.319946 15.9998C0.319946 24.6596 7.34012 31.6798 15.9999 31.6798C24.6598 31.6798 31.6799 24.6596 31.6799 15.9998Z" stroke="#CED3E6" stroke-width="1.1"/>
</g>
<defs>
<clipPath id="clip0_930_217209">
<rect width="32" height="32" fill="white"/>
</clipPath>
</defs>
</svg>
