<svg width="36" height="33" viewBox="0 0 36 33" fill="none" xmlns="http://www.w3.org/2000/svg">
<path d="M32.9583 1L19.8242 10.7183L22.2666 4.99099L32.9583 1Z" fill="#E17726" stroke="#E17726" stroke-width="0.25" stroke-linecap="round" stroke-linejoin="round"/>
<path d="M2.6626 1L15.6798 10.809L13.3544 4.99098L2.6626 1Z" fill="#E27625" stroke="#E27625" stroke-width="0.25" stroke-linecap="round" stroke-linejoin="round"/>
<path d="M28.229 23.5332L24.7344 28.8718L32.2173 30.9321L34.3609 23.6499L28.229 23.5332Z" fill="#E27625" stroke="#E27625" stroke-width="0.25" stroke-linecap="round" stroke-linejoin="round"/>
<path d="M1.27295 23.6499L3.40349 30.9321L10.8734 28.8718L7.39178 23.5332L1.27295 23.6499Z" fill="#E27625" stroke="#E27625" stroke-width="0.25" stroke-linecap="round" stroke-linejoin="round"/>
<path d="M10.4706 14.5149L8.39209 17.6507L15.797 17.9876L15.5502 10.0186L10.4706 14.5149Z" fill="#E27625" stroke="#E27625" stroke-width="0.25" stroke-linecap="round" stroke-linejoin="round"/>
<path d="M25.1505 14.5152L19.9931 9.92822L19.8242 17.9879L27.2291 17.651L25.1505 14.5152Z" fill="#E27625" stroke="#E27625" stroke-width="0.25" stroke-linecap="round" stroke-linejoin="round"/>
<path d="M10.8735 28.8718L15.3554 26.7079L11.4971 23.7017L10.8735 28.8718Z" fill="#E27625" stroke="#E27625" stroke-width="0.25" stroke-linecap="round" stroke-linejoin="round"/>
<path d="M20.2661 26.7079L24.735 28.8718L24.1244 23.7017L20.2661 26.7079Z" fill="#E27625" stroke="#E27625" stroke-width="0.25" stroke-linecap="round" stroke-linejoin="round"/>
<path d="M24.735 28.8724L20.2661 26.7085L20.6298 29.611L20.5908 30.842L24.735 28.8724Z" fill="#D5BFB2" stroke="#D5BFB2" stroke-width="0.25" stroke-linecap="round" stroke-linejoin="round"/>
<path d="M10.8735 28.8724L15.0307 30.842L15.0047 29.611L15.3554 26.7085L10.8735 28.8724Z" fill="#D5BFB2" stroke="#D5BFB2" stroke-width="0.25" stroke-linecap="round" stroke-linejoin="round"/>
<path d="M15.1081 21.7842L11.3926 20.6958L14.0168 19.4907L15.1081 21.7842Z" fill="#233447" stroke="#233447" stroke-width="0.25" stroke-linecap="round" stroke-linejoin="round"/>
<path d="M20.5127 21.7842L21.604 19.4907L24.2412 20.6958L20.5127 21.7842Z" fill="#233447" stroke="#233447" stroke-width="0.25" stroke-linecap="round" stroke-linejoin="round"/>
<path d="M10.8732 28.8718L11.5228 23.5332L7.3916 23.6499L10.8732 28.8718Z" fill="#CC6228" stroke="#CC6228" stroke-width="0.25" stroke-linecap="round" stroke-linejoin="round"/>
<path d="M24.0981 23.5332L24.7347 28.8718L28.2293 23.6499L24.0981 23.5332Z" fill="#CC6228" stroke="#CC6228" stroke-width="0.25" stroke-linecap="round" stroke-linejoin="round"/>
<path d="M27.2291 17.6504L19.8242 17.9873L20.5127 21.784L21.604 19.4904L24.2412 20.6955L27.2291 17.6504Z" fill="#CC6228" stroke="#CC6228" stroke-width="0.25" stroke-linecap="round" stroke-linejoin="round"/>
<path d="M11.393 20.6955L14.0172 19.4904L15.1085 21.784L15.797 17.9873L8.39209 17.6504L11.393 20.6955Z" fill="#CC6228" stroke="#CC6228" stroke-width="0.25" stroke-linecap="round" stroke-linejoin="round"/>
<path d="M8.39209 17.6504L11.497 23.7017L11.393 20.6955L8.39209 17.6504Z" fill="#E27525" stroke="#E27525" stroke-width="0.25" stroke-linecap="round" stroke-linejoin="round"/>
<path d="M24.2414 20.6955L24.1245 23.7017L27.2294 17.6504L24.2414 20.6955Z" fill="#E27525" stroke="#E27525" stroke-width="0.25" stroke-linecap="round" stroke-linejoin="round"/>
<path d="M15.797 17.9873L15.1084 21.784L15.9788 26.2673L16.1737 20.3586L15.797 17.9873Z" fill="#E27525" stroke="#E27525" stroke-width="0.25" stroke-linecap="round" stroke-linejoin="round"/>
<path d="M19.8242 17.9873L19.4604 20.3457L19.6423 26.2673L20.5127 21.784L19.8242 17.9873Z" fill="#E27525" stroke="#E27525" stroke-width="0.25" stroke-linecap="round" stroke-linejoin="round"/>
<path d="M20.5125 21.7843L19.6421 26.2676L20.2657 26.7082L24.1241 23.702L24.241 20.6958L20.5125 21.7843Z" fill="#F5841F" stroke="#F5841F" stroke-width="0.25" stroke-linecap="round" stroke-linejoin="round"/>
<path d="M11.3926 20.6958L11.4966 23.702L15.3549 26.7082L15.9785 26.2676L15.1081 21.7843L11.3926 20.6958Z" fill="#F5841F" stroke="#F5841F" stroke-width="0.25" stroke-linecap="round" stroke-linejoin="round"/>
<path d="M20.5909 30.8417L20.6298 29.6107L20.2921 29.3256H15.3295L15.0047 29.6107L15.0307 30.8417L10.8735 28.8721L12.3285 30.0642L15.2775 32.0986H20.331L23.293 30.0642L24.735 28.8721L20.5909 30.8417Z" fill="#C0AC9D" stroke="#C0AC9D" stroke-width="0.25" stroke-linecap="round" stroke-linejoin="round"/>
<path d="M20.2658 26.7081L19.6422 26.2676H15.9787L15.3552 26.7081L15.0044 29.6107L15.3292 29.3256H20.2918L20.6296 29.6107L20.2658 26.7081Z" fill="#161616" stroke="#161616" stroke-width="0.25" stroke-linecap="round" stroke-linejoin="round"/>
<path d="M33.517 11.3532L34.6213 5.98873L32.9584 1L20.2661 10.3944L25.1507 14.5149L32.049 16.5234L33.569 14.7482L32.9065 14.2687L33.9587 13.3099L33.1533 12.6879L34.2056 11.8845L33.517 11.3532Z" fill="#763E1A" stroke="#763E1A" stroke-width="0.25" stroke-linecap="round" stroke-linejoin="round"/>
<path d="M1 5.98873L2.11724 11.3532L1.40273 11.8845L2.468 12.6879L1.66255 13.3099L2.71483 14.2687L2.05228 14.7482L3.57225 16.5234L10.4706 14.5149L15.3552 10.3944L2.66287 1L1 5.98873Z" fill="#763E1A" stroke="#763E1A" stroke-width="0.25" stroke-linecap="round" stroke-linejoin="round"/>
<path d="M32.0491 16.5235L25.1508 14.5151L27.2294 17.6509L24.1245 23.7021L28.2297 23.6503H34.3615L32.0491 16.5235Z" fill="#F5841F" stroke="#F5841F" stroke-width="0.25" stroke-linecap="round" stroke-linejoin="round"/>
<path d="M10.4706 14.5151L3.57238 16.5235L1.27295 23.6503H7.39178L11.4969 23.7021L8.3921 17.6509L10.4706 14.5151Z" fill="#F5841F" stroke="#F5841F" stroke-width="0.25" stroke-linecap="round" stroke-linejoin="round"/>
<path d="M19.8241 17.9878L20.2658 10.3945L22.2664 4.99121H13.3545L15.3551 10.3945L15.7968 17.9878L15.9657 20.372L15.9787 26.2678H19.6422L19.6552 20.372L19.8241 17.9878Z" fill="#F5841F" stroke="#F5841F" stroke-width="0.25" stroke-linecap="round" stroke-linejoin="round"/>
</svg>
