<svg width="19" height="19" viewBox="0 0 19 19" fill="none" xmlns="http://www.w3.org/2000/svg">
<path d="M5.99836 17.8337V8.66699M1.8317 10.3337V16.167C1.8317 17.0875 2.57789 17.8337 3.49836 17.8337H14.6869C15.9208 17.8337 16.9702 16.9334 17.1578 15.7138L18.0553 9.88047C18.2882 8.36607 17.1165 7.00033 15.5843 7.00033H12.665C12.2048 7.00033 11.8317 6.62723 11.8317 6.16699V3.22186C11.8317 2.08699 10.9117 1.16699 9.77683 1.16699C9.50614 1.16699 9.26085 1.3264 9.15091 1.57376L6.21831 8.17211C6.08456 8.47305 5.78612 8.66699 5.4568 8.66699H3.49836C2.57789 8.66699 1.8317 9.41318 1.8317 10.3337Z" stroke="#027A48" stroke-width="1.83333" stroke-linecap="round" stroke-linejoin="round"/>
</svg>
