<svg width="41" height="25" viewBox="0 0 41 25" fill="none" xmlns="http://www.w3.org/2000/svg">
<path d="M8.26752 4.83283C14.8475 -1.61094 25.5133 -1.61094 32.1018 4.83283L32.8935 5.60744C33.2254 5.93091 33.2254 6.45016 32.8935 6.77362L30.1866 9.42944C30.0248 9.59118 29.7524 9.59118 29.5907 9.42944L28.5011 8.36541C23.913 3.87095 16.4648 3.87095 11.8767 8.36541L10.7105 9.50605C10.5488 9.66779 10.2764 9.66779 10.1147 9.50605L7.39927 6.85023C7.0673 6.52677 7.0673 6.00752 7.39927 5.68405L8.26752 4.83283ZM37.7029 10.3147L40.1119 12.6726C40.4438 12.9961 40.4438 13.5153 40.1119 13.8388L29.2417 24.4876C28.9097 24.8111 28.382 24.8111 28.05 24.4876L20.3294 16.9287C20.2443 16.8521 20.1166 16.8521 20.0315 16.9287L12.3194 24.4876C11.9874 24.8111 11.4596 24.8111 11.1276 24.4876L0.248983 13.8473C-0.0829944 13.5238 -0.0829944 13.0046 0.248983 12.6811L2.65795 10.3232C2.98993 9.99977 3.51769 9.99977 3.84967 10.3232L11.5703 17.8821C11.6554 17.9587 11.7831 17.9587 11.8682 17.8821L19.5803 10.3232C19.9123 9.99977 20.44 9.99977 20.772 10.3232L28.4926 17.8821C28.5778 17.9587 28.7054 17.9587 28.7906 17.8821L36.5112 10.3232C36.8346 9.99125 37.3709 9.99125 37.7029 10.3147Z" fill="#3A99FB"/>
</svg>
