<svg width="130" height="131" viewBox="0 0 130 131" fill="none" xmlns="http://www.w3.org/2000/svg">
<path d="M127.815 65.5417C127.815 100.233 99.6916 128.356 65 128.356C30.3084 128.356 2.18522 100.233 2.18522 65.5417C2.18522 30.85 30.3084 2.72691 65 2.72691C99.6916 2.72691 127.815 30.85 127.815 65.5417Z" fill="white" stroke="#CED3E6" stroke-width="4.05257"/>
<g clip-path="url(#clip0_1801_116714)">
<path d="M111.604 65.5416C111.604 91.3722 90.8303 112.146 64.9997 112.146C39.1691 112.146 18.3952 91.3722 18.3952 65.5416C18.3952 39.7109 39.1691 18.937 64.9997 18.937C90.8303 18.937 111.604 39.7109 111.604 65.5416Z" stroke="#F6F6F6" stroke-width="4.05257"/>
<g clip-path="url(#clip1_1801_116714)">
<path d="M65.0001 19.6125C90.3684 19.6125 110.929 40.1775 110.929 65.5416C110.929 90.9099 90.3684 111.471 65.0001 111.471C39.636 111.471 19.071 90.9078 19.071 65.5416C19.071 40.1775 39.636 19.6125 65.0001 19.6125Z" fill="#F5AC37"/>
<path d="M66.693 68.7848H84.1453C84.5173 68.7848 84.693 68.7849 84.7198 68.2971C84.8624 66.5217 84.8624 64.7359 84.7198 62.9585C84.7198 62.6133 84.5483 62.4707 84.1742 62.4707H49.4411C49.0112 62.4707 48.8955 62.6133 48.8955 63.0163V68.1255C48.8955 68.7848 48.8955 68.7848 49.5837 68.7848H66.693ZM82.7708 56.4996C82.8204 56.3694 82.8204 56.2268 82.7708 56.0986C82.4794 55.4641 82.1342 54.8586 81.7333 54.2902C81.1298 53.3188 80.4188 52.4238 79.6086 51.6198C79.2262 51.1341 78.7839 50.698 78.2879 50.3281C75.8035 48.2137 72.85 46.7173 69.6754 45.965C68.0736 45.6054 66.4367 45.4338 64.7956 45.4483H49.3812C48.9513 45.4483 48.8934 45.6198 48.8934 45.9939V56.1834C48.8934 56.6133 48.8934 56.729 49.4391 56.729H82.5641C82.5641 56.729 82.8514 56.6712 82.9093 56.4996H82.7687H82.7708ZM82.7708 74.7559C82.283 74.7022 81.7911 74.7022 81.3034 74.7559H49.4701C49.0402 74.7559 48.8955 74.7559 48.8955 75.3305V85.2926C48.8955 85.7514 48.8955 85.8672 49.4701 85.8672H64.1673C64.87 85.9209 65.5727 85.8713 66.261 85.7246C68.394 85.5716 70.4918 85.1087 72.4925 84.346C73.22 84.0939 73.9227 83.7652 74.5862 83.3705H74.7867C78.2321 81.5785 81.0305 78.7635 82.7956 75.3078C82.7956 75.3078 82.9961 74.8737 82.7708 74.7601V74.7559ZM43.127 91.0322V90.8607V84.1724V81.9051V75.159C43.127 74.7849 43.127 74.7291 42.6681 74.7291H36.4387C36.0935 74.7291 35.9509 74.729 35.9509 74.2702V68.8158H42.6103C42.9823 68.8158 43.127 68.8159 43.127 68.3281V62.9316C43.127 62.5864 43.127 62.5017 42.6681 62.5017H36.4387C36.0935 62.5017 35.9509 62.5017 35.9509 62.0428V56.9915C35.9509 56.6753 35.9509 56.5906 36.4098 56.5906H42.5813C43.0112 56.5906 43.127 56.5906 43.127 56.0449V40.5726C43.127 40.1138 43.127 39.998 43.7015 39.998H65.2296C66.7922 40.0601 68.3443 40.2316 69.88 40.5148C73.0443 41.0997 76.0846 42.2302 78.8645 43.8444C80.7081 44.9295 82.405 46.2399 83.9158 47.7487C85.0526 48.9288 86.0777 50.2061 86.9872 51.5661C87.8904 52.9447 88.6406 54.4183 89.2297 55.9581C89.302 56.3591 89.6864 56.6298 90.0874 56.5616H95.2255C95.8848 56.5616 95.8848 56.5616 95.9138 57.1941V61.9023C95.9138 62.3611 95.7422 62.4769 95.2813 62.4769H91.3192C90.9183 62.4769 90.8025 62.4769 90.8315 62.9936C90.9885 64.7421 90.9885 66.4969 90.8315 68.2454C90.8315 68.7332 90.8315 68.791 91.3792 68.791H95.9117C96.1122 69.0494 95.9117 69.3078 95.9117 69.5682C95.9407 69.9009 95.9407 70.2378 95.9117 70.5706V74.0449C95.9117 74.5327 95.7691 74.6774 95.3371 74.6774H89.9117C89.5335 74.605 89.1656 74.8469 89.0788 75.223C87.787 78.5816 85.7202 81.593 83.0498 84.007C82.0743 84.8854 81.0491 85.7122 79.9785 86.4748C78.8294 87.1362 77.7112 87.8245 76.5331 88.3701C74.365 89.3457 72.0915 90.0649 69.7581 90.5217C67.5424 90.9185 65.2958 91.0983 63.0409 91.0673H43.1187V91.0384L43.127 91.0322Z" fill="#FEFEFD"/>
</g>
</g>
<defs>
<clipPath id="clip0_1801_116714">
<rect x="16.3689" y="16.9108" width="97.2616" height="97.2616" fill="white"/>
</clipPath>
<clipPath id="clip1_1801_116714">
<rect width="91.8582" height="91.8582" fill="white" transform="translate(19.071 19.6125)"/>
</clipPath>
</defs>
</svg>
