<svg width="130" height="131" viewBox="0 0 130 131" fill="none" xmlns="http://www.w3.org/2000/svg">
<path d="M128.467 65.5417C128.467 100.594 100.052 129.009 64.9999 129.009C29.948 129.009 1.53279 100.594 1.53279 65.5417C1.53279 30.4897 29.948 2.07454 64.9999 2.07454C100.052 2.07454 128.467 30.4897 128.467 65.5417Z" fill="white" stroke="#CED3E6" stroke-width="2.74576"/>
<g clip-path="url(#clip0_1801_116793)">
<path d="M112.257 65.5415C112.257 91.6409 91.0995 112.799 65.0001 112.799C38.9007 112.799 17.743 91.6409 17.743 65.5415C17.743 39.4421 38.9007 18.2844 65.0001 18.2844C91.0995 18.2844 112.257 39.4421 112.257 65.5415Z" fill="#627EEA" stroke="#627EEA" stroke-width="2.74576"/>
<path d="M66.5144 33.3907V57.1548L86.6 66.13L66.5144 33.3907Z" fill="white" fill-opacity="0.602"/>
<path d="M66.5143 33.3907L46.426 66.13L66.5143 57.1548V33.3907Z" fill="white"/>
<path d="M66.5144 81.5297V97.6769L86.6134 69.87L66.5144 81.5297Z" fill="white" fill-opacity="0.602"/>
<path d="M66.5143 97.6769V81.527L46.426 69.87L66.5143 97.6769Z" fill="white"/>
<path d="M66.5144 77.7919L86.6 66.1296L66.5144 57.1598V77.7919Z" fill="white" fill-opacity="0.2"/>
<path d="M46.426 66.1296L66.5143 77.7919V57.1598L46.426 66.1296Z" fill="white" fill-opacity="0.602"/>
</g>
<defs>
<clipPath id="clip0_1801_116793">
<rect width="97.26" height="97.26" fill="white" transform="translate(16.3701 16.9115)"/>
</clipPath>
</defs>
</svg>
