<svg width="240" height="239" viewBox="0 0 240 239" fill="none" xmlns="http://www.w3.org/2000/svg">
<path d="M235.675 119.407C235.675 183.293 183.886 235.083 120 235.083C56.114 235.083 4.32422 183.293 4.32422 119.407C4.32422 55.5212 56.114 3.73145 120 3.73145C183.886 3.73145 235.675 55.5212 235.675 119.407Z" stroke="white" stroke-width="3.7907"/>
<mask id="mask0_2670_115306" style="mask-type:luminance" maskUnits="userSpaceOnUse" x="30" y="29" width="180" height="180">
<path d="M209.555 29.8516H30.4443V208.962H209.555V29.8516Z" fill="white"/>
</mask>
<g mask="url(#mask0_2670_115306)">
<path d="M122.787 60.1997V103.963L159.776 120.491L122.787 60.1997Z" fill="white" fill-opacity="0.602"/>
<path d="M122.791 60.1997L85.7969 120.491L122.791 103.963V60.1997Z" fill="white"/>
<path d="M122.787 148.851V178.587L159.8 127.378L122.787 148.851Z" fill="white" fill-opacity="0.602"/>
<path d="M122.791 178.587V148.846L85.7969 127.378L122.791 178.587Z" fill="white"/>
<path d="M122.787 141.967L159.776 120.49L122.787 103.972V141.967Z" fill="white" fill-opacity="0.2"/>
<path d="M85.7969 120.49L122.791 141.967V103.972L85.7969 120.49Z" fill="white" fill-opacity="0.602"/>
</g>
</svg>
