<svg width="227" height="227" viewBox="0 0 227 227" fill="none" xmlns="http://www.w3.org/2000/svg">
<path d="M222.51 113.484C222.51 173.748 173.655 222.603 113.391 222.603C53.1258 222.603 4.27148 173.748 4.27148 113.484C4.27148 53.2187 53.1258 4.36432 113.391 4.36432C173.655 4.36432 222.51 53.2187 222.51 113.484Z" stroke="#CED3E6" stroke-width="5.83623"/>
<mask id="mask0_5962_281720" style="mask-type:luminance" maskUnits="userSpaceOnUse" x="28" y="29" width="170" height="169">
<path d="M197.87 29.0042H28.9111V197.963H197.87V29.0042Z" fill="white"/>
</mask>
<g mask="url(#mask0_5962_281720)">
<path d="M194.35 113.484C194.35 158.196 158.104 194.443 113.391 194.443C68.6784 194.443 32.4316 158.196 32.4316 113.484C32.4316 68.7709 68.6784 32.5241 113.391 32.5241C158.104 32.5241 194.35 68.7709 194.35 113.484Z" fill="#627EEA" stroke="#627EEA" stroke-width="1.16725"/>
<path d="M116.022 57.6317V98.9144L150.915 114.506L116.022 57.6317Z" fill="white" fill-opacity="0.602"/>
<path d="M116.021 57.6317L81.124 114.506L116.021 98.9144V57.6317Z" fill="white"/>
<path d="M116.022 141.258V169.309L150.938 121.003L116.022 141.258Z" fill="white" fill-opacity="0.602"/>
<path d="M116.021 169.309V141.253L81.124 121.003L116.021 169.309Z" fill="white"/>
<path d="M116.022 134.765L150.915 114.505L116.022 98.9228V134.765Z" fill="white" fill-opacity="0.2"/>
<path d="M81.124 114.505L116.021 134.765V98.9228L81.124 114.505Z" fill="white" fill-opacity="0.602"/>
</g>
</svg>
