<svg width="227" height="227" viewBox="0 0 227 227" fill="none" xmlns="http://www.w3.org/2000/svg">
<path d="M222.558 113.484C222.558 53.2187 173.703 4.36432 113.439 4.36432C53.1737 4.36432 4.31934 53.2187 4.31934 113.484C4.31934 173.748 53.1737 222.603 113.439 222.603C173.703 222.603 222.558 173.748 222.558 113.484Z" stroke="white" stroke-width="5.83623"/>
<mask id="mask0_5962_281701" style="mask-type:luminance" maskUnits="userSpaceOnUse" x="28" y="29" width="170" height="169">
<path d="M197.918 29.0041H28.959V197.963H197.918V29.0041Z" fill="white"/>
</mask>
<g mask="url(#mask0_5962_281701)">
<path d="M194.397 113.484C194.397 158.355 158.31 194.443 113.438 194.443C68.566 194.443 32.4785 158.355 32.4785 113.484C32.4785 68.6116 68.566 32.5241 113.438 32.5241C158.31 32.5241 194.397 68.6116 194.397 113.484Z" fill="#2775CA" stroke="#2775CA" stroke-width="7.03995"/>
<path d="M136.909 127.583C136.909 115.997 129.553 112.024 114.843 110.369C104.336 109.044 102.234 106.396 102.234 101.761C102.234 97.1255 105.737 94.1462 112.741 94.1462C119.046 94.1462 122.549 96.1329 124.3 101.099C124.65 102.092 125.701 102.754 126.752 102.754H132.355C133.756 102.754 134.807 101.761 134.807 100.437V100.106C133.406 92.822 127.101 87.1943 119.046 86.5325V78.5872C119.046 77.2623 117.995 76.269 116.244 75.9381H110.991C109.59 75.9381 108.539 76.9314 108.188 78.5872V86.2009C97.6808 87.5259 91.0266 94.1462 91.0266 102.423C91.0266 113.348 98.0314 117.652 112.741 119.308C122.549 120.963 125.701 122.949 125.701 128.246C125.701 133.543 120.797 137.185 114.143 137.185C105.036 137.185 101.884 133.542 100.833 128.577C100.483 127.253 99.4323 126.591 98.382 126.591H92.4269C91.0266 126.591 89.9756 127.583 89.9756 128.908V129.24C91.3765 137.515 96.9803 143.474 108.539 145.13V153.076C108.539 154.4 109.59 155.392 111.34 155.724H116.594C117.995 155.724 119.046 154.731 119.397 153.076V145.13C129.904 143.474 136.909 136.523 136.909 127.583Z" fill="white"/>
<path d="M96.1934 159.06C69.8262 149.946 56.3042 121.622 66.1079 96.5545C71.1786 82.8816 82.3338 72.4646 96.1934 67.5812C97.5457 66.9304 98.2216 65.9537 98.2216 64.3255V59.7681C98.2216 58.4656 97.5457 57.489 96.1934 57.1639C95.8554 57.1639 95.1796 57.1639 94.841 57.489C62.7273 67.2554 45.1487 100.136 55.29 131.063C61.3748 149.294 75.9113 163.293 94.841 169.153C96.1934 169.803 97.5457 169.153 97.8837 167.85C98.2216 167.525 98.2216 167.199 98.2216 166.548V161.99C98.2216 161.013 97.2078 159.711 96.1934 159.06ZM132.027 57.489C130.674 56.8381 129.321 57.489 128.984 58.7914C128.645 59.1172 128.645 59.4423 128.645 60.0939V64.6513C128.645 65.9537 129.66 67.2554 130.674 67.907C157.042 77.0215 170.563 105.345 160.76 130.412C155.689 144.085 144.533 154.502 130.674 159.386C129.321 160.037 128.645 161.013 128.645 162.641V167.199C128.645 168.501 129.321 169.478 130.674 169.803C131.012 169.803 131.688 169.803 132.027 169.478C164.14 159.711 181.719 126.831 171.578 95.9041C165.493 77.3475 150.619 63.3488 132.027 57.489Z" fill="white"/>
</g>
</svg>
