<svg width="193" height="193" viewBox="0 0 193 193" fill="none" xmlns="http://www.w3.org/2000/svg">
<g id="usdc.svg" clip-path="url(#clip0_3218_141179)">
<path id="Vector" d="M189.984 96.5C189.984 44.87 148.13 3.01562 96.5 3.01562C44.87 3.01562 3.01562 44.87 3.01562 96.5C3.01562 148.13 44.87 189.984 96.5 189.984C148.13 189.984 189.984 148.13 189.984 96.5Z" fill="white" stroke="#EAF1FF" stroke-width="6.03125"/>
<g id="Clip path group">
<mask id="mask0_3218_141179" style="mask-type:luminance" maskUnits="userSpaceOnUse" x="24" y="24" width="145" height="145">
<g id="clip0_1_11625">
<path id="Vector_2" d="M168.875 24.125H24.125V168.875H168.875V24.125Z" fill="white"/>
</g>
</mask>
<g mask="url(#mask0_3218_141179)">
<g id="Group">
<path id="Vector_3" d="M165.859 96.5C165.859 134.943 134.943 165.859 96.5 165.859C58.0574 165.859 27.1406 134.943 27.1406 96.5C27.1406 58.0574 58.0574 27.1406 96.5 27.1406C134.943 27.1406 165.859 58.0574 165.859 96.5Z" fill="#2775CA" stroke="#2775CA" stroke-width="6.03125"/>
<path id="Vector_4" d="M116.607 108.579C116.607 98.653 110.306 95.2496 97.7026 93.8316C88.701 92.6965 86.9007 90.4282 86.9007 86.4566C86.9007 82.4856 89.9012 79.9332 95.9023 79.9332C101.304 79.9332 104.304 81.6352 105.804 85.8897C106.105 86.7407 107.005 87.3076 107.905 87.3076H112.706C113.906 87.3076 114.807 86.4566 114.807 85.3227V85.0387C113.606 78.7987 108.205 73.9774 101.304 73.4104V66.6035C101.304 65.4685 100.403 64.6175 98.9034 64.334H94.4023C93.2021 64.334 92.3016 65.185 92.0013 66.6035V73.1263C82.9996 74.2614 77.2989 79.9332 77.2989 87.0241C77.2989 96.384 83.3 100.071 95.9023 101.489C104.304 102.907 107.005 104.609 107.005 109.147C107.005 113.685 102.804 116.805 97.1031 116.805C89.3011 116.805 86.6003 113.685 85.6998 109.43C85.4007 108.296 84.5002 107.729 83.6003 107.729H78.4985C77.2989 107.729 76.3984 108.579 76.3984 109.714V109.998C77.5987 117.088 82.3995 122.194 92.3016 123.612V130.419C92.3016 131.553 93.2021 132.404 94.7021 132.688H99.2032C100.403 132.688 101.304 131.837 101.604 130.419V123.612C110.606 122.194 116.607 116.238 116.607 108.579Z" fill="white"/>
<path id="Vector_5" d="M81.7272 135.546C59.138 127.738 47.5534 103.473 55.9525 81.9967C60.2966 70.2828 69.8535 61.3583 81.7272 57.1747C82.8858 56.6171 83.4648 55.7804 83.4648 54.3854V50.481C83.4648 49.3652 82.8858 48.5285 81.7272 48.25C81.4377 48.25 80.8587 48.25 80.5686 48.5285C53.0562 56.8956 37.9964 85.0654 46.6846 111.561C51.8976 127.179 64.3512 139.172 80.5686 144.193C81.7272 144.75 82.8858 144.193 83.1753 143.076C83.4648 142.798 83.4648 142.519 83.4648 141.961V138.057C83.4648 137.219 82.5963 136.104 81.7272 135.546ZM112.426 48.5285C111.268 47.9709 110.108 48.5285 109.82 49.6443C109.529 49.9234 109.529 50.2019 109.529 50.7601V54.6645C109.529 55.7804 110.399 56.8956 111.268 57.4538C133.857 65.2623 145.441 89.5273 137.042 111.003C132.698 122.717 123.141 131.642 111.268 135.826C110.108 136.383 109.529 137.219 109.529 138.614V142.519C109.529 143.635 110.108 144.471 111.268 144.75C111.557 144.75 112.136 144.75 112.426 144.471C139.938 136.104 154.998 107.935 146.31 81.4394C141.097 65.5416 128.354 53.5487 112.426 48.5285Z" fill="white"/>
</g>
</g>
</g>
</g>
<defs>
<clipPath id="clip0_3218_141179">
<rect width="193" height="193" fill="white"/>
</clipPath>
</defs>
</svg>
