<svg width="238" height="238" viewBox="0 0 238 238" fill="none" xmlns="http://www.w3.org/2000/svg">
<path d="M233.899 118.605C233.899 55.1482 182.457 3.70605 119 3.70605C55.5427 3.70605 4.10059 55.1482 4.10059 118.605C4.10059 182.062 55.5427 233.505 119 233.505C182.457 233.505 233.899 182.062 233.899 118.605Z" stroke="white" stroke-width="3.79324"/>
<mask id="mask0_2670_115337" style="mask-type:luminance" maskUnits="userSpaceOnUse" x="30" y="29" width="178" height="179">
<path d="M207.954 29.6514H30.0459V207.56H207.954V29.6514Z" fill="white"/>
</mask>
<g mask="url(#mask0_2670_115337)">
<path d="M143.705 133.451C143.705 121.251 135.96 117.068 120.471 115.326C109.407 113.93 107.194 111.143 107.194 106.261C107.194 101.381 110.882 98.2434 118.258 98.2434C124.897 98.2434 128.585 100.335 130.428 105.564C130.797 106.61 131.904 107.307 133.01 107.307H138.911C140.386 107.307 141.493 106.261 141.493 104.868V104.518C140.017 96.849 133.379 90.9232 124.897 90.2264V81.8603C124.897 80.4652 123.79 79.4192 121.946 79.0708H116.414C114.939 79.0708 113.832 80.1168 113.463 81.8603V89.8773C102.399 91.2724 95.3929 98.2434 95.3929 106.959C95.3929 118.463 102.769 122.994 118.258 124.738C128.585 126.48 131.904 128.572 131.904 134.15C131.904 139.727 126.74 143.562 119.734 143.562C110.144 143.562 106.825 139.726 105.718 134.497C105.351 133.104 104.244 132.406 103.138 132.406H96.8673C95.3929 132.406 94.2861 133.451 94.2861 134.847V135.196C95.7613 143.91 101.662 150.185 113.832 151.928V160.294C113.832 161.689 114.939 162.734 116.783 163.083H122.315C123.79 163.083 124.897 162.037 125.266 160.294V151.928C136.33 150.185 143.705 142.864 143.705 133.451Z" fill="white"/>
<path d="M100.853 166.596C73.0889 156.999 58.8507 127.176 69.1738 100.78C74.513 86.3826 86.2591 75.4138 100.853 70.2718C102.277 69.5865 102.988 68.5581 102.988 66.8436V62.0448C102.988 60.6734 102.277 59.645 100.853 59.3027C100.497 59.3027 99.7854 59.3027 99.4288 59.645C65.614 69.9288 47.1044 104.552 57.7828 137.116C64.1899 156.313 79.4964 171.053 99.4288 177.223C100.853 177.908 102.277 177.223 102.633 175.851C102.988 175.51 102.988 175.166 102.988 174.481V169.682C102.988 168.653 101.921 167.282 100.853 166.596ZM138.584 59.645C137.16 58.9597 135.735 59.645 135.38 61.0164C135.024 61.3595 135.024 61.7018 135.024 62.3879V67.1867C135.024 68.5581 136.092 69.9288 137.16 70.6149C164.924 80.2122 179.162 110.036 168.839 136.431C163.5 150.828 151.753 161.797 137.16 166.94C135.735 167.625 135.024 168.653 135.024 170.367V175.166C135.024 176.538 135.735 177.566 137.16 177.908C137.516 177.908 138.228 177.908 138.584 177.566C172.399 167.282 190.909 132.66 180.23 100.095C173.823 80.5554 158.161 65.8152 138.584 59.645Z" fill="white"/>
</g>
</svg>
